<svg width="63" height="73" viewBox="0 0 63 73" fill="none" xmlns="http://www.w3.org/2000/svg">
<g clip-path="url(#clip0_1_332)">
<path fill-rule="evenodd" clip-rule="evenodd" d="M31.5003 0.922607L57.3601 14.5565L50.8472 20.17L62.0283 56.0866L31.5003 72.0773L0.972244 56.0866L12.1533 20.17L5.64048 14.5565L31.5003 0.922607Z" fill="black"/>
<path fill-rule="evenodd" clip-rule="evenodd" d="M31.5 0.922646L57.3598 14.5565L50.847 20.1701L62.028 56.0866L31.5 72.0774L0.971958 56.0866L12.153 20.1701L5.6402 14.5565L31.5 0.922646ZM57.7287 13.8352L31.8689 0.208456L31.5 0.015625L31.1311 0.208456L5.27128 13.8352L4.22128 14.3923L5.1223 15.1707L11.2236 20.4343L0.205742 55.851L0 56.4937L0.603039 56.808L31.1311 72.7987L31.5 72.9915L31.8689 72.7987L62.4041 56.808L63 56.4937L62.7943 55.851L51.7764 20.4343L57.8777 15.1707L58.7787 14.3923L57.7287 13.8352Z" fill="#FCD588"/>
<path fill-rule="evenodd" clip-rule="evenodd" d="M31.1097 59.8432C33.4934 59.3861 49.0519 51.68 52.4502 50.7373C51.8968 49.6588 50.8539 49.0946 49.3215 47.652C48.8674 47.2306 46.6042 45.2809 46.0225 44.9309L47.1292 48.559L31.1097 59.8432Z" fill="white"/>
<path fill-rule="evenodd" clip-rule="evenodd" d="M33.6706 36.2251C33.9047 35.9037 33.5997 35.518 35.5933 35.3466C36.5085 35.2752 37.4308 35.2038 38.3389 35.2395C37.4733 37.0035 35.6784 37.2464 33.6706 36.2251Z" fill="white"/>
<path fill-rule="evenodd" clip-rule="evenodd" d="M28.4775 36.225C26.4485 37.2534 24.5755 36.9891 23.7738 35.1965L28.0661 35.6822C28.4988 35.9964 28.3002 35.9179 28.4775 36.225Z" fill="white"/>
<path fill-rule="evenodd" clip-rule="evenodd" d="M48.9736 57.3079L31.3365 67.9136L13.7915 57.3079L31.599 64.8568L48.9736 57.3079Z" fill="#FCD588"/>
<path fill-rule="evenodd" clip-rule="evenodd" d="M15.5509 19.613L9.58439 14.8637L31.6982 2.85815L15.8205 14.9137L15.5509 19.613Z" fill="#4D4D4D"/>
<path fill-rule="evenodd" clip-rule="evenodd" d="M47.8528 19.613L53.8193 14.8637L31.6984 2.85815L47.5832 14.9137L47.8528 19.613Z" fill="#FCD588"/>
<path fill-rule="evenodd" clip-rule="evenodd" d="M48.0657 23.2695L59.8428 54.4296L35.9624 67.0136L56.0543 54.2225L48.0657 23.2695Z" fill="#4D4D4D"/>
<path fill-rule="evenodd" clip-rule="evenodd" d="M14.9621 23.2695L3.18503 54.4296L27.0654 67.0136L6.97354 54.2225L14.9621 23.2695Z" fill="#4D4D4D"/>
<path fill-rule="evenodd" clip-rule="evenodd" d="M44.0791 38.489L36.8781 48.6876L40.5034 40.0173L41.9011 36.175L41.7379 31.6399L44.0791 38.489Z" fill="white"/>
<path fill-rule="evenodd" clip-rule="evenodd" d="M17.5588 38.489L24.7598 48.6876L21.1344 40.0173L19.7368 36.175L19.9071 31.6399L17.5588 38.489Z" fill="white"/>
<path fill-rule="evenodd" clip-rule="evenodd" d="M32.2589 12.821L43.0285 20.9128L46.1572 32.9398L42.0849 25.5051L32.2589 18.7203L41.5812 22.9911L41.4109 21.7341L32.2589 12.821Z" fill="white"/>
<path fill-rule="evenodd" clip-rule="evenodd" d="M16.9417 46.0808L30.5137 58.6006L11.6421 50.4017L16.9417 46.0808Z" fill="white" stroke="black" stroke-width="2.28795" stroke-miterlimit="22.9256"/>
<path fill-rule="evenodd" clip-rule="evenodd" d="M30.4004 12.2283L18.8433 20.4914L14.3737 37.8248L20.7943 21.9627L30.4004 12.2283Z" fill="white" stroke="black" stroke-miterlimit="22.9256"/>
</g>
<defs>
<clipPath id="clip0_1_332">
<rect width="63" height="73" fill="white" transform="matrix(-1 0 0 1 63 0)"/>
</clipPath>
</defs>
</svg>
