<svg width="45" height="52" viewBox="0 0 45 52" fill="none" xmlns="http://www.w3.org/2000/svg">
<g clip-path="url(#clip0_1_2290)">
<path fill-rule="evenodd" clip-rule="evenodd" d="M22.4999 0.65741L40.9712 10.3692L36.3192 14.3679L44.3057 39.9523L22.4999 51.343L0.69418 39.9523L8.68066 14.3679L4.02864 10.3692L22.4999 0.65741Z" fill="black"/>
<path fill-rule="evenodd" clip-rule="evenodd" d="M22.5 0.657022L40.9713 10.3688L36.3193 14.3675L44.3057 39.9519L22.5 51.3426L0.69426 39.9519L8.68074 14.3675L4.02872 10.3688L22.5 0.657022ZM41.2348 9.855L22.7635 0.148284L22.5 0.0109253L22.2365 0.148284L3.76521 9.855L3.01521 10.2518L3.65879 10.8063L8.0169 14.5557L0.146961 39.784L3.8147e-06 40.2419L0.430744 40.4658L22.2365 51.8564L22.5 51.9938L22.7635 51.8564L44.5743 40.4658L45 40.2419L44.853 39.784L36.9831 14.5557L41.3412 10.8063L41.9848 10.2518L41.2348 9.855Z" fill="#FCD588"/>
<path fill-rule="evenodd" clip-rule="evenodd" d="M22.2216 42.6285C23.9243 42.3029 35.0375 36.8136 37.4648 36.1421C37.0696 35.3739 36.3246 34.972 35.23 33.9443C34.9057 33.6442 33.2892 32.2553 32.8736 32.006L33.6642 34.5904L22.2216 42.6285Z" fill="white"/>
<path fill-rule="evenodd" clip-rule="evenodd" d="M24.0506 25.8042C24.2178 25.5752 23.9999 25.3005 25.4239 25.1784C26.0776 25.1275 26.7364 25.0767 27.385 25.1021C26.7668 26.3587 25.4847 26.5317 24.0506 25.8042Z" fill="white"/>
<path fill-rule="evenodd" clip-rule="evenodd" d="M20.3408 25.8041C18.8915 26.5366 17.5537 26.3484 16.981 25.0715L20.0469 25.4174C20.356 25.6413 20.2141 25.5853 20.3408 25.8041Z" fill="white"/>
<path fill-rule="evenodd" clip-rule="evenodd" d="M34.9814 40.8224L22.3835 48.3772L9.85138 40.8224L22.571 46.1998L34.9814 40.8224Z" fill="#FCD588"/>
<path fill-rule="evenodd" clip-rule="evenodd" d="M11.1078 13.9709L6.84599 10.5878L22.6416 2.03595L11.3004 10.6234L11.1078 13.9709Z" fill="#4D4D4D"/>
<path fill-rule="evenodd" clip-rule="evenodd" d="M34.1806 13.9709L38.4424 10.5878L22.6417 2.03595L33.988 10.6234L34.1806 13.9709Z" fill="#FCD588"/>
<path fill-rule="evenodd" clip-rule="evenodd" d="M34.3327 16.5757L42.7449 38.7719L25.6874 47.7358L40.0388 38.6243L34.3327 16.5757Z" fill="#4D4D4D"/>
<path fill-rule="evenodd" clip-rule="evenodd" d="M10.6868 16.5754L2.2746 38.7716L19.332 47.7356L4.98068 38.6241L10.6868 16.5754Z" fill="#4D4D4D"/>
<path fill-rule="evenodd" clip-rule="evenodd" d="M31.4854 27.4171L26.3418 34.6818L28.9313 28.5058L29.9296 25.7688L29.8131 22.5383L31.4854 27.4171Z" fill="white"/>
<path fill-rule="evenodd" clip-rule="evenodd" d="M12.542 27.4168L17.6855 34.6816L15.096 28.5055L14.0977 25.7685L14.2193 22.538L12.542 27.4168Z" fill="white"/>
<path fill-rule="evenodd" clip-rule="evenodd" d="M23.0421 9.13281L30.7347 14.8968L32.9695 23.464L30.0607 18.168L23.0421 13.335L29.7009 16.3772L29.5793 15.4819L23.0421 9.13281Z" fill="white"/>
<path fill-rule="evenodd" clip-rule="evenodd" d="M12.1016 32.8244L21.7959 41.7426L8.31617 35.9023L12.1016 32.8244Z" fill="white" stroke="black" stroke-width="2.28795" stroke-miterlimit="22.9256"/>
<path fill-rule="evenodd" clip-rule="evenodd" d="M21.7148 8.71063L13.4598 14.5967L10.2672 26.9438L14.8534 15.6447L21.7148 8.71063Z" fill="white" stroke="black" stroke-miterlimit="22.9256"/>
</g>
<defs>
<clipPath id="clip0_1_2290">
<rect width="45" height="52" fill="white" transform="matrix(-1 0 0 1 45 0)"/>
</clipPath>
</defs>
</svg>
