<svg width="115" height="134" viewBox="0 0 115 134" fill="none" xmlns="http://www.w3.org/2000/svg">
<path fill-rule="evenodd" clip-rule="evenodd" d="M57.4998 1.6936L104.704 26.7202L92.8157 37.0245L113.226 102.954L57.4998 132.306L1.77402 102.954L22.1839 37.0245L10.2954 26.7202L57.4998 1.6936Z" fill="black"/>
<path fill-rule="evenodd" clip-rule="evenodd" d="M57.5 1.69351L104.704 26.7201L92.8159 37.0244L113.226 102.953L57.5 132.306L1.77422 102.953L22.1841 37.0244L10.2956 26.7201L57.5 1.69351ZM105.378 25.396L58.1734 0.382529L57.5 0.0285645L56.8266 0.382529L9.62218 25.396L7.70552 26.4186L9.35023 27.8475L20.4876 37.5094L0.375565 102.521L0 103.701L1.10079 104.278L56.8266 133.63L57.5 133.984L58.1734 133.63L113.912 104.278L115 103.701L114.624 102.521L94.5124 37.5094L105.65 27.8475L107.294 26.4186L105.378 25.396Z" fill="#FCD588"/>
<path fill-rule="evenodd" clip-rule="evenodd" d="M56.7882 109.849C61.1396 109.01 89.5399 94.8648 95.7432 93.1343C94.733 91.1547 92.8293 90.1191 90.032 87.4709C89.2032 86.6974 85.072 83.1185 84.0101 82.4761L86.0303 89.1358L56.7882 109.849Z" fill="white"/>
<path fill-rule="evenodd" clip-rule="evenodd" d="M61.463 66.495C61.8903 65.9051 61.3335 65.1972 64.9726 64.8825C66.6432 64.7514 68.3267 64.6203 69.9844 64.6859C68.4044 67.924 65.128 68.3697 61.463 66.495Z" fill="white"/>
<path fill-rule="evenodd" clip-rule="evenodd" d="M51.9834 66.4952C48.2796 68.383 44.8607 67.898 43.3972 64.6074L51.2323 65.4989C52.0222 66.0757 51.6596 65.9315 51.9834 66.4952Z" fill="white"/>
<path fill-rule="evenodd" clip-rule="evenodd" d="M89.3965 105.195L57.2017 124.663L25.1752 105.195L57.6808 119.052L89.3965 105.195Z" fill="#FCD588"/>
<path fill-rule="evenodd" clip-rule="evenodd" d="M28.3871 36.0019L17.4958 27.2839L57.8623 5.24634L28.8792 27.3757L28.3871 36.0019Z" fill="#4D4D4D"/>
<path fill-rule="evenodd" clip-rule="evenodd" d="M87.3509 36.0019L98.2422 27.2839L57.8627 5.24634L86.8587 27.3757L87.3509 36.0019Z" fill="#FCD588"/>
<path fill-rule="evenodd" clip-rule="evenodd" d="M87.7396 42.7139L109.237 99.9118L65.6461 123.011L102.322 99.5317L87.7396 42.7139Z" fill="#4D4D4D"/>
<path fill-rule="evenodd" clip-rule="evenodd" d="M27.3128 42.7139L5.81504 99.9118L49.4062 123.011L12.7306 99.5317L27.3128 42.7139Z" fill="#4D4D4D"/>
<path fill-rule="evenodd" clip-rule="evenodd" d="M80.4609 70.6509L67.3162 89.3717L73.9339 73.4564L76.4851 66.4033L76.1873 58.0786L80.4609 70.6509Z" fill="white"/>
<path fill-rule="evenodd" clip-rule="evenodd" d="M32.0526 70.6509L45.1973 89.3717L38.5796 73.4564L36.0283 66.4033L36.3392 58.0786L32.0526 70.6509Z" fill="white"/>
<path fill-rule="evenodd" clip-rule="evenodd" d="M58.8859 23.5344L78.5447 38.3878L84.2559 60.4647L76.8223 46.8174L58.8859 34.3631L75.9028 42.2028L75.592 39.8954L58.8859 23.5344Z" fill="white"/>
<path fill-rule="evenodd" clip-rule="evenodd" d="M30.926 84.5867L55.7002 107.568L21.252 92.5181L30.926 84.5867Z" fill="white" stroke="black" stroke-width="2.28795" stroke-miterlimit="22.9256"/>
<path fill-rule="evenodd" clip-rule="evenodd" d="M55.4932 22.4463L34.3969 37.6143L26.2381 69.4317L37.9583 40.3149L55.4932 22.4463Z" fill="white" stroke="black" stroke-width="2.28795" stroke-miterlimit="22.9256"/>
</svg>
