<svg width="73" height="65" viewBox="0 0 73 65" fill="none" xmlns="http://www.w3.org/2000/svg">
<g style="mix-blend-mode:luminosity" opacity="0.3">
<path fill-rule="evenodd" clip-rule="evenodd" d="M31.5305 57.68L32.7364 58.7977L37.7376 63.2558C37.7376 63.2558 37.8899 63.2812 38.6896 63.3955C39.4893 63.5099 39.045 63.8401 40.3144 63.5099C41.5837 63.1923 41.4949 63.459 42.5103 62.9764C43.1704 62.6716 44.2113 62.0746 44.9856 61.5031C45.7853 59.4455 46.8007 56.9053 46.9911 56.5496C47.2577 56.0289 49.0982 51.6597 49.0982 51.6597L31.5813 53.6538L31.5305 57.68Z" fill="white"/>
<path fill-rule="evenodd" clip-rule="evenodd" d="M38.6769 51.774C38.1184 52.2947 35.9986 52.1296 35.2243 52.5742C34.9451 52.7266 34.6912 53.3108 34.6404 53.2219C34.6277 53.1838 34.5769 53.2727 34.5135 53.2981L34.9704 52.3455C36.2271 52.1423 37.2933 51.7105 38.6769 51.774ZM37.2045 48.2685C38.1057 48.3574 38.2834 47.7604 38.6262 47.2143C38.9308 46.7316 39.2354 46.3252 39.5401 45.7917C39.3243 45.3726 39.6797 45.6774 39.1974 45.6647C39.1212 46.1601 37.9788 47.735 37.6868 48.1033L36.4048 47.8874L37.2045 48.2685ZM37.1918 48.2685H37.2045C37.1791 48.2685 37.1791 48.2685 37.1918 48.2685ZM37.4964 48.4971L36.3413 49.0432L36.9633 49.1702C36.9379 49.2083 36.8618 49.3227 36.8491 49.3481C36.8491 49.3608 36.7602 49.5894 36.7602 49.5894L37.4964 48.4971ZM53.1094 33.2557C53.6679 32.6079 53.3632 33.2176 53.5283 32.7857C53.7694 33.5478 53.4648 33.878 53.2744 34.602L53.1475 33.9543C53.1475 34.0051 53.1221 34.3861 53.1094 34.4242C53.0078 34.8179 53.0586 34.5766 52.9063 34.8052L52.754 33.6875L53.1094 33.2557ZM34.2469 51.4437L33.993 51.4692L34.3358 48.4463L35.0847 48.2304C34.907 47.9763 35.1608 47.8493 34.1454 48.2812L33.8661 50.326C33.5996 50.415 33.8788 50.326 33.7011 50.326C33.2568 50.3133 34.0438 50.0847 33.6122 50.3133L33.3965 53.4505L33.4853 52.0788L31.5813 53.6538L31.5813 53.641L31.594 53.6283V53.5267L31.6067 53.514V53.4378L31.6194 53.4251V53.3616L31.6321 53.3362V53.2854L31.6448 53.2727V53.2219L31.6701 53.1457C31.6701 53.133 31.6701 53.1203 31.6828 53.0949C31.8352 52.5106 31.4797 50.4531 31.5178 49.4624C31.6194 46.7189 32.1271 47.5064 33.6757 45.4869C34.0057 45.0551 34.0311 44.7121 34.3992 44.3565L34.4119 45.8171C34.1454 45.525 34.5135 46.1728 34.4119 45.8171C34.4246 45.8425 34.45 45.8679 34.4754 45.8933C34.4754 45.8933 34.5262 45.9314 34.5262 45.9187C34.5262 45.8933 34.5643 45.9314 34.5896 45.9441C34.6531 47.5191 34.4246 47.8493 35.1989 47.7858C34.9451 46.9094 35.2116 45.7409 35.1735 44.7756C35.1482 43.5817 35.0339 43.188 34.8308 42.0957C37.268 40.9018 35.9225 41.9179 37.8772 40.9907L38.0042 42.6672L38.2834 43.0991C38.6642 43.6198 38.5881 43.3277 38.7658 43.9755L39.2227 43.8103L39.2354 42.7308C39.2481 42.7308 39.2862 42.7181 39.2989 42.7181L40.4286 42.9848C41.0887 43.3023 40.6825 43.1753 41.1648 43.2007C41.5076 43.2134 41.7995 43.2388 42.1549 43.2515C42.8531 43.2896 43.5512 43.1499 44.0463 43.315L40.2763 46.4522L37.8011 48.4971L34.2469 51.4437ZM36.9252 49.221L36.3667 49.6783L34.2469 51.4437L36.9252 49.221ZM33.8915 51.7486L35.3766 51.52L33.6757 51.774C33.6249 52.3455 33.6503 52.8409 33.5615 53.3743V53.4251L33.8915 51.7486ZM40.9618 45.8806L39.8828 46.4649C39.8574 46.4776 39.8193 46.5157 39.794 46.5411C40.784 46.4141 41.0125 46.0077 41.863 45.8679C42.523 46.3506 42.9038 47.011 43.1704 47.8747C42.7261 48.2812 42.1676 48.6622 41.6345 48.9924C41.9265 48.713 42.4596 48.205 42.4342 47.5826C40.3779 47.6969 40.2001 47.989 39.4512 49.4243C39.794 49.31 39.502 49.5513 39.8828 49.0686C40.5429 48.205 40.0732 48.7638 41.698 48.3193C41.571 48.6495 41.5583 48.6114 41.3045 48.8781C40.9618 49.2464 41.0506 49.0559 40.8348 49.4624C41.8122 49.3481 42.4342 48.8273 42.98 48.1033C43.3862 48.2177 43.2466 48.1033 43.437 48.3828C43.31 47.5064 42.9419 46.4522 42.3707 45.8679C41.9645 45.4615 41.571 45.5758 41.0379 45.8425L40.9618 45.8806ZM47.4227 38.8442C47.2831 38.1837 47.1688 38.0821 46.9277 37.4852C46.9404 37.4471 46.9911 37.4217 47.0165 37.409C47.0419 37.3963 47.0927 37.3582 47.1054 37.3455C47.1308 37.3328 47.1815 37.2947 47.1942 37.2947C47.6004 37.0406 47.1181 37.3201 47.3592 37.2311C47.8797 37.7265 47.4227 37.5233 47.9305 38.5013L47.4227 38.8442ZM41.1268 51.177C41.4568 51.1262 41.6599 51.0627 42.028 51.1008L42.523 51.2659C42.5484 51.2278 42.5865 51.3167 42.6119 51.3421C41.9899 52.0661 42.1803 51.5708 41.2918 51.647C40.8475 51.6851 40.7587 51.9264 40.2763 52.0661C40.7713 51.5581 40.7587 51.8629 41.1268 51.177ZM41.8757 52.4852L41.9265 52.4598L41.9391 52.4725L41.8757 52.4852ZM24.9553 45.1948C24.2572 44.7121 24.0033 43.442 23.9779 42.4894C24.7014 42.2989 24.8538 42.4894 25.1457 43.0864C25.1076 43.061 25.0569 43.0356 25.0188 43.0229L24.3206 42.7435C24.4476 43.8866 24.8284 44.2168 24.9553 45.1948ZM44.0463 43.315C43.7543 42.9086 43.767 43.0991 43.31 42.934C46.9784 41.829 43.8432 41.9433 45.963 41.5241L46.0899 40.6859C46.5976 40.6097 47.0419 40.4572 47.3719 40.254C47.4227 39.746 47.3592 39.5936 47.2577 39.2379C47.0165 38.4124 47.3466 38.9331 46.8007 38.5267C45.2394 37.3963 47.2704 38.0948 46.0899 37.193C46.6103 36.9263 46.4326 37.2439 46.6103 36.7485C46.1788 36.2786 46.2549 36.3421 45.5568 36.4056C46.1914 35.961 45.8487 36.2278 46.0772 35.5673C46.3438 34.8306 46.2676 35.3387 46.5976 34.7163L46.001 34.4496C46.5215 34.1575 46.3692 34.4623 46.6484 33.9797C46.2676 33.7129 46.1026 34.1575 45.6329 33.7002C46.8769 33.6621 47.1435 33.8653 48.2351 34.0559L48.1209 35.1482C47.7147 35.2752 48.3239 34.9195 47.867 35.1482C47.9558 36.4437 48.1082 40.1143 47.6893 40.8383L45.1125 44.674C44.7825 44.4327 44.8206 44.3692 44.6048 43.9374C44.3001 43.3404 44.224 43.4039 44.0463 43.315C44.554 44.6232 45.3537 45.9441 45.8487 47.4937L45.8614 47.5572V47.5699L45.8868 47.6207V47.6334L45.8995 47.6842V47.6969L45.9249 47.735V47.7604L45.9376 47.7985V47.8112L45.9503 47.8493V47.862L45.963 47.9128L45.9757 47.9255L45.9884 47.9763V47.989L46.001 48.0144V48.0271L46.0264 48.1287V48.1414L46.0518 48.205V48.2177L46.0645 48.2812L46.0899 48.3447L46.1026 48.4082V48.4209L46.1153 48.4844L46.128 48.4971L46.1407 48.5479V48.5733L46.1534 48.6114V48.6495H46.1661L46.1788 48.713V48.7511L46.1914 48.7892V48.8019L46.2041 48.8654H46.2168V48.8908L46.2295 48.9416V48.9543L46.2422 49.0178V49.0305L46.2549 49.094H46.2676L46.2803 49.1702L46.293 49.2337V49.2464L46.3057 49.31V49.3227L46.3184 49.3735L46.3311 49.3989V49.4497L46.3438 49.4751L46.3565 49.5132V49.5513L46.3692 49.5894V49.6275L46.3819 49.6529L46.3945 49.7037V49.7291L46.4072 49.7799V49.7926L46.4199 49.8561V49.8688L46.4326 49.9323V49.945L46.4453 50.0085L46.458 50.0847L46.4707 50.1482L46.4834 50.1736V50.2244L46.4961 50.2498L46.5088 50.2879V50.326L46.5215 50.3641V50.4023L46.5342 50.4404V50.4785L46.5469 50.5039V50.5547L46.5596 50.5801V50.6309L46.5723 50.6436L46.5849 50.7071V50.7198L46.5976 50.7833V50.796L46.6103 50.8595L46.623 50.9357L46.6357 50.9992V51.0119L46.6484 51.0754V51.1008L46.6611 51.1389V51.177L46.6738 51.2151V51.2532L46.6865 51.2913V51.3294L46.6992 51.3548L46.7119 51.4056V51.431L46.7246 51.4818V51.4946L46.7373 51.5581V51.5708L46.75 51.6343L46.7627 51.7105L46.7753 51.774V51.7867L46.788 51.8502V51.8629L46.8007 51.9137L44.0463 43.315ZM37.4964 50.4658C37.8011 50.3006 38.8673 49.9577 39.2989 49.8434C39.1085 50.1355 39.3116 49.9196 39.0577 50.1355L38.4231 50.5039C38.4231 51.3167 38.9689 51.3675 38.0803 51.4564L38.055 50.6182L37.4964 50.4658ZM50.6976 38.4759C51.5481 39.0347 50.6976 38.8696 52.0939 39.5301L52.0558 41.1304L51.1419 41.6766C51.7512 40.4826 51.7766 41.9687 51.9162 39.8222L51.18 39.3903C50.8626 39.1363 50.7611 38.8569 50.6976 38.4759ZM51.4338 39.0601C51.3831 38.9712 51.0277 39.1998 51.2815 37.7646C51.51 36.558 51.6496 36.9009 52.0558 36.7866C52.0558 37.4979 52.2462 39.022 51.4338 39.0601ZM51.7893 34.9703C52.005 34.2337 52.7794 32.6333 53.6679 32.3793C53.6679 32.3793 53.9218 32.3666 53.9598 33.2557C54.0106 34.1067 53.8329 35.072 53.3759 35.7197C52.792 36.5453 52.8809 37.9678 52.4239 38.8569C52.4366 38.1202 52.6397 37.2693 52.8301 36.5072C53.0459 35.6054 53.0078 35.5038 52.5382 34.2083C52.5255 34.1702 52.5001 34.1321 52.4874 34.094C52.1828 35.1482 52.3478 34.7544 51.7893 34.9703ZM27.4686 49.0178L27.4813 49.0559C27.4813 49.0432 27.4686 49.0305 27.4686 49.0178ZM31.6448 57.7816L32.7364 58.7977C33.4472 59.7122 32.8506 59.3439 33.6884 60.5378C34.0057 60.9696 34.4881 61.592 35.0212 62.227L37.7376 63.2558H37.7503V63.2685H37.8392L37.8519 63.2812H37.9407V63.2939H38.0169L38.0296 63.3066H38.1184L38.1311 63.3193H38.2073L38.22 63.332H38.2707L38.2961 63.3447H38.3596L38.385 63.3574H38.4484L38.4738 63.3701H38.5373L38.5754 63.3828H38.6135L38.6515 63.3955H38.6896C39.4893 63.5099 39.045 63.8401 40.3144 63.5099C41.5837 63.1923 41.4949 63.459 42.5103 62.9764L42.5357 62.9637H42.5484L42.65 62.9129L42.6627 62.9002L42.7008 62.8875L42.7388 62.8621H42.7515L42.8023 62.8367H42.815L42.8404 62.8113L42.8658 62.7986H42.8785L42.9165 62.7732L42.9546 62.7605L42.9927 62.7351L43.0308 62.7224L43.0689 62.697L43.0942 62.6843L43.1069 62.6716L43.145 62.6589L43.1831 62.6335L43.2212 62.6208L43.2593 62.5954H43.272L43.2973 62.57L43.3354 62.5446L43.3862 62.5319V62.5192L43.4243 62.5065V62.4938L43.4624 62.4811L43.5004 62.4557H43.5131L43.5385 62.4303L43.5893 62.4176L43.6274 62.3922C43.767 62.3032 43.8939 62.227 44.0336 62.1381H44.0463L44.1224 62.0873C44.8713 61.6174 45.5822 61.0839 45.8487 60.6648C46.3311 59.9281 47.1435 57.6546 47.1435 57.6546C47.2577 57.3498 47.3719 57.0196 47.4989 56.6893C47.6639 56.2829 47.8416 56.0543 47.9558 55.6859C48.0955 55.2795 47.9431 54.0602 49.1109 52.9552C49.2506 53.0695 49.314 52.9679 49.3394 52.9679H49.3521L49.6314 53.133C49.5298 53.2219 49.4156 53.3489 49.2887 53.5013V53.514C49.2633 53.5902 49.2506 53.6919 49.2379 53.7935L49.6695 53.1584L52.1193 53.006C52.8809 52.4217 52.3224 52.4979 52.5001 52.0534C55.6608 52.5742 58.466 51.8121 59.2149 48.3066C59.7354 48.1796 60.2431 48.0525 60.6874 47.862C61.4744 47.5064 61.1063 47.6715 61.5632 46.9856C61.8932 46.4776 62.0456 46.4522 62.4644 46.1347C64.6096 44.5089 65.1174 46.4522 66.6152 45.0424C67.2499 44.4581 68.075 44.0644 68.3796 43.2896C67.8211 43.4547 67.3387 43.6579 66.6406 43.6198C66.6279 43.5944 66.6152 43.5436 66.6025 43.5182C66.4502 43.1118 65.9678 42.7562 65.9425 42.6672C65.9298 42.6164 65.879 42.6164 65.8536 42.591C66.0694 41.8798 66.3233 42.1084 66.4248 41.4987C66.5644 40.6351 66.8564 41.4098 67.8972 41.3717C68.8239 41.3336 68.6462 41.3336 69.4078 41.5495C69.0777 38.768 71.1087 39.3522 71.6545 37.3074C70.0805 38.7299 71.2102 38.1202 69.192 38.5775C68.7985 38.6664 68.5192 38.6283 68.2019 38.5521C67.6307 37.1422 68.6335 37.2947 69.1539 36.2532C68.24 36.3548 67.7576 36.6215 67.2118 36.0245C66.8564 35.5165 67.1864 35.8975 67.0722 35.58C67.0595 35.5419 67.0468 35.5038 67.0341 35.4657C66.9072 35.1609 66.7041 35.072 66.3867 34.8433C66.2979 34.1702 66.2471 34.1448 66.5517 33.6113C67.161 33.5478 66.7421 33.8145 67.4657 33.7637C68.7096 33.6748 68.3161 33.1541 68.8112 32.3666C69.2301 31.6934 69.065 32.1888 69.2174 31.2616C69.3951 30.2201 69.1539 30.2963 68.8366 29.1786C67.7957 28.9754 67.4149 28.9754 66.831 28.0101C67.1991 27.6164 67.161 27.9212 67.3133 27.4513C66.5517 26.8162 64.4192 25.8509 66.2344 24.6824C67.6941 23.7552 66.6533 24.6443 67.4403 23.2599C67.9607 22.3327 67.8338 22.5613 67.5291 21.2785L67.3641 22.7899C67.0849 22.9677 66.996 22.9169 66.7168 23.1202C65.5236 23.9584 66.6914 23.5901 63.975 22.8153C64.0511 20.1354 63.7211 19.7163 65.6124 19.6527C65.0793 18.6494 65.5109 18.5985 65.9171 17.646C65.6632 17.049 65.8282 17.7095 65.4855 17.0617L65.7774 16.1472C65.2062 15.7662 64.3431 15.093 64.0638 14.2421C63.7338 13.2514 63.6196 12.5782 62.5914 12.0956L62.6041 13.3149C61.8425 13.4165 61.1316 13.5308 60.3954 13.0862C60.3954 12.3877 60.9793 12.4131 60.5477 11.8161C60.2177 11.3462 59.9131 11.651 59.3672 11.3843C59.3926 10.5333 59.8369 10.6857 59.3926 10.0507C57.806 7.76446 56.9174 9.3013 56.2447 9.84745C54.9626 9.64423 54.8992 10.1269 53.7948 9.77124C53.6298 9.2632 53.8075 8.94567 53.4775 8.36141L52.9824 7.51044C52.6143 6.72297 50.6976 7.34532 50.0122 6.72297C49.7456 6.49434 49.0982 4.894 48.9459 4.46216C48.7428 6.55785 49.314 5.46555 49.4283 6.76107C49.0475 7.05319 48.984 7.00239 48.654 7.21831C48.2097 7.51044 48.3493 7.53584 47.9431 7.81526C46.9911 6.48164 46.3057 7.51044 45.4806 6.84998C45.4552 6.59595 45.6964 6.38003 45.671 5.66877C43.3354 4.66538 44.8459 4.34785 43.6147 3.30635C42.5103 3.03963 42.1803 4.00492 41.533 4.33515C40.6444 4.80509 39.8955 4.00492 39.832 3.20474C40.2001 2.51888 40.3525 3.00153 40.5302 2.18865C40.0732 1.6425 37.4964 1.32497 36.9506 1.35037L37.5472 1.83302C37.5472 2.18865 37.4837 2.15055 37.2933 2.49348C38.0042 2.59509 38.3596 2.7221 38.55 3.35716C38.1692 3.97951 36.7221 4.28434 35.9605 4.03032L34.4246 2.51888C33.7392 2.7475 33.6757 2.87451 33.1045 3.19204L31.7082 3.8398C31.6828 3.8525 28.4841 3.99222 28.0525 4.00492C28.4587 4.55107 28.4206 3.95411 28.4714 4.85589C27.6844 5.22423 26.707 5.04641 25.5265 5.52906C24.2191 6.0625 24.0033 5.42745 22.6959 5.18612C22.9371 5.89739 23.0767 5.59256 23.1655 6.41814C22.9244 6.58325 22.5816 6.74837 22.2262 6.90078L21.3631 7.37072C21.3504 7.34532 21.3123 7.42153 21.2869 7.45963C21.1346 8.1709 21.9597 8.55193 20.1699 9.19969C19.3702 9.49182 18.1262 9.3521 17.6058 10.0634C17.8089 10.927 18.0882 10.3936 18.469 11.2954C18.8498 12.1718 18.4055 11.6256 19.5479 12.1337C19.5225 12.9719 19.5352 12.1718 19.421 12.5528L19.3448 13.6451C19.3321 13.6324 19.3321 13.7213 19.3194 13.7594C17.9231 14.5215 18.012 13.7848 16.9458 13.4292C15.8541 13.0608 15.5622 12.3623 14.4578 12.8449L14.5086 13.0862C14.5467 13.48 14.242 13.8102 14.0009 14.1277C13.4551 14.8644 12.6554 15.9059 11.8811 16.3885C11.4749 16.6299 10.9037 16.7569 10.434 17.0617C10.8529 17.4935 11.4241 17.3792 11.6399 18.0524C11.1956 18.4207 10.7006 18.3318 10.3579 18.7764L10.2817 18.9034C10.269 18.9161 10.2436 18.9542 10.2309 18.9669C9.4947 19.729 7.38759 19.6781 7.05756 20.2878C7.03217 20.3259 7.01948 20.364 6.99409 20.4021C6.86715 20.6434 7.01948 20.4529 6.84177 20.6815C6.47366 21.1388 6.01669 21.0118 5.75013 21.6722C6.47366 21.5579 6.86715 21.4817 7.41297 21.8881C7.22257 22.5232 7.03217 22.1295 6.66406 22.7518C8.18727 23.3107 8.73309 23.3742 5.38202 25.7747C4.50617 26.3971 4.88698 26.4606 4.265 27.1337C3.82073 27.6037 3.46531 27.845 3.10989 28.3403C4.23961 28.3784 5.30586 28.3149 5.36933 29.4834C5.4328 30.4868 4.40463 30.7663 3.70649 31.1092C3.55416 33.3446 2.72909 31.757 2.74178 33.9034C5.66128 34.4242 3.63033 34.7925 6.30864 34.8179C7.92071 34.8306 8.09842 36.5199 6.9687 37.1295C6.01669 37.6376 4.53156 37.8408 3.57955 38.2599C2.98296 38.514 2.48792 39.8349 1.34551 40.4191V44.7629C2.97027 44.2295 2.94488 45.0297 3.80803 44.7629C5.64858 44.1914 9.60894 45.1948 7.64145 47.4302C7.22257 47.9001 7.18449 48.4463 6.91793 49.0051C7.71762 49.1067 8.54269 48.9543 9.35507 49.0559C10.2055 49.1702 9.8755 49.564 11.0433 49.7672C12.465 50.0085 14.4832 49.5005 15.0798 50.6182L15.1306 52.4852C15.0671 53.3108 14.5721 53.3108 14.4324 54.0983C14.9148 54.0348 15.486 53.8824 15.8414 53.8062C16.108 53.7554 16.6919 53.7808 17.1362 53.7173C18.1897 53.5775 18.9386 53.387 19.916 53.1711L19.9287 53.2346L19.9795 53.1965L20.1318 53.3616L20.043 53.4505L20.1699 53.4378C20.4238 53.4124 20.7665 53.4124 21.0584 53.4505C21.2869 53.4632 21.4773 53.5013 21.5789 53.5521C21.5281 54.1618 21.2996 54.1872 20.9442 54.2253C20.6903 54.2507 20.3857 54.2761 20.0049 54.492L19.8652 54.5682H20.0303C20.4999 54.5682 20.7919 54.4666 21.0203 54.3777C21.4773 54.2126 21.7566 54.111 23.0005 55.0001C22.9117 57.0196 23.7494 57.1593 24.8284 57.3498C25.0569 57.3879 25.298 57.4387 25.5392 57.4895C26.4278 57.7181 26.4658 57.8578 26.5293 58.0865C26.5674 58.2516 26.6182 58.4421 26.9101 58.7342C27.1513 58.9755 27.4305 59.128 27.7225 59.2169C28.0271 59.3058 28.3445 59.3312 28.6745 59.3312C28.8014 59.3185 28.8903 59.3058 28.9411 59.2804C28.9411 59.3185 28.9538 59.382 28.9918 59.4455L29.0045 59.4709H29.0299C29.5376 59.3693 29.6138 59.2169 29.8169 58.7596L29.8423 58.7342L29.8804 58.6707L30.5531 58.2897L30.477 58.7723C30.9466 58.404 30.515 58.6707 30.7816 58.0865C30.9085 57.7816 30.9339 57.8705 31.1624 57.6038C31.6955 57.6927 31.4671 57.5657 31.594 58.0484C31.6194 57.9467 31.6321 57.8578 31.6448 57.7816Z" fill="white"/>
<path fill-rule="evenodd" clip-rule="evenodd" d="M36.9252 49.221C36.8998 49.2718 36.8618 49.3354 36.8491 49.3481C36.8491 49.3608 36.7602 49.5894 36.7602 49.5894L37.1029 49.081L36.9252 49.221ZM36.9252 49.221C36.9379 49.1956 36.9506 49.1829 36.9633 49.1702L36.3413 49.0432L37.4964 48.4971L37.1029 49.081L37.8011 48.4971L40.2763 46.4522C40.1367 46.4903 39.9717 46.5157 39.794 46.5411C39.8193 46.5157 39.8574 46.4776 39.8828 46.4649L40.9618 45.8806L44.0463 43.315C43.5512 43.1499 42.8531 43.2896 42.1549 43.2515C41.7995 43.2388 41.5076 43.2134 41.1648 43.2007C40.6825 43.1753 41.0887 43.3023 40.4286 42.9848L39.2989 42.7181C39.2862 42.7181 39.2481 42.7308 39.2354 42.7308L39.2227 43.8103L38.7658 43.9755C38.5881 43.3277 38.6642 43.6198 38.2834 43.0991L38.0042 42.6672L37.8772 40.9907C35.9225 41.9179 37.268 40.9018 34.8308 42.0957C35.0339 43.188 35.1482 43.5817 35.1735 44.7756C35.2116 45.7409 34.9451 46.9094 35.1989 47.7858C34.4246 47.8493 34.6531 47.5191 34.5896 45.9441C34.5643 45.9314 34.5262 45.8933 34.5262 45.9187C34.5262 45.9314 34.4754 45.8933 34.4754 45.8933C34.45 45.8679 34.4246 45.8425 34.4119 45.8171C34.1454 45.525 34.5135 46.1728 34.4119 45.8171L34.3992 44.3565C34.0311 44.7121 34.0057 45.0551 33.6757 45.4869C32.1271 47.5064 31.6194 46.7189 31.5178 49.4624C31.4797 50.4531 31.8352 52.5106 31.6828 53.0949C31.6701 53.1203 31.6701 53.133 31.6701 53.1457L31.6448 53.2219V53.2727L31.6321 53.2854V53.3362L31.6194 53.3616V53.4251L31.6067 53.4378V53.514L31.594 53.5267V53.6283L31.5813 53.641L31.5813 53.6538L33.4853 52.0788L33.6122 50.3133C33.6376 50.3133 33.663 50.326 33.7011 50.326C33.8788 50.326 33.5996 50.415 33.8661 50.326L34.1454 48.2812C35.1608 47.8493 34.907 47.9763 35.0847 48.2304L34.3358 48.4463L33.993 51.4692L34.2469 51.4437L36.9252 49.221ZM40.9618 45.8806L40.2763 46.4522C40.8983 46.2744 41.1648 45.9822 41.863 45.8679C42.523 46.3506 42.9038 47.011 43.1704 47.8747C42.7261 48.2812 42.1676 48.6622 41.6345 48.9924C41.9265 48.713 42.4596 48.205 42.4342 47.5826C40.3779 47.6969 40.2001 47.989 39.4512 49.4243C39.794 49.31 39.502 49.5513 39.8828 49.0686C40.5429 48.205 40.0732 48.7638 41.698 48.3193C41.571 48.6495 41.5583 48.6114 41.3045 48.8781C40.9618 49.2464 41.0506 49.0559 40.8348 49.4624C41.8122 49.3481 42.4342 48.8273 42.98 48.1033C43.3862 48.2177 43.2466 48.1033 43.437 48.3828C43.31 47.5064 42.9419 46.4522 42.3707 45.8679C41.9645 45.4615 41.571 45.5758 41.0379 45.8425L40.9618 45.8806ZM44.0463 43.315L46.8007 51.9137L46.788 51.8629V51.8502L46.7753 51.7867V51.774L46.7627 51.7105L46.75 51.6343L46.7373 51.5708V51.5581L46.7246 51.4946V51.4818L46.7119 51.431V51.4056L46.6992 51.3548L46.6865 51.3294V51.2913L46.6738 51.2532V51.2151L46.6611 51.177V51.1389L46.6484 51.1008V51.0754L46.6357 51.0119V50.9992L46.623 50.9357L46.6103 50.8595L46.5976 50.796V50.7833L46.5849 50.7198V50.7071L46.5723 50.6436L46.5596 50.6309V50.5801L46.5469 50.5547V50.5039L46.5342 50.4785V50.4404L46.5215 50.4023V50.3641L46.5088 50.326V50.2879L46.4961 50.2498L46.4834 50.2244V50.1736L46.4707 50.1482L46.458 50.0847L46.4453 50.0085L46.4326 49.945V49.9323L46.4199 49.8688V49.8561L46.4072 49.7926V49.7799L46.3945 49.7291V49.7037L46.3819 49.6529L46.3692 49.6275V49.5894L46.3565 49.5513V49.5132L46.3438 49.4751L46.3311 49.4497V49.3989L46.3184 49.3735L46.3057 49.3227V49.31L46.293 49.2464V49.2337L46.2803 49.1702L46.2676 49.094H46.2549L46.2422 49.0305V49.0178L46.2295 48.9543V48.9416L46.2168 48.8908V48.8654H46.2041L46.1914 48.8019V48.7892L46.1788 48.7511V48.713L46.1661 48.6495H46.1534V48.6114L46.1407 48.5733V48.5479L46.128 48.4971L46.1153 48.4844L46.1026 48.4209V48.4082L46.0899 48.3447L46.0645 48.2812L46.0518 48.2177V48.205L46.0264 48.1414V48.1287L46.001 48.0271V48.0144L45.9884 47.989V47.9763L45.9757 47.9255L45.963 47.9128L45.9503 47.862V47.8493L45.9376 47.8112V47.7985L45.9249 47.7604V47.735L45.8995 47.6969V47.6842L45.8868 47.6334V47.6207L45.8614 47.5699V47.5572L45.8487 47.4937C45.3537 45.9441 44.554 44.6232 44.0463 43.315C44.224 43.4039 44.3001 43.3404 44.6048 43.9374C44.8206 44.3692 44.7825 44.4327 45.1125 44.674L47.6893 40.8383C48.1082 40.1143 47.9558 36.4437 47.867 35.1482C48.3239 34.9195 47.7147 35.2752 48.1209 35.1482L48.2351 34.0559C47.1435 33.8653 46.8769 33.6621 45.6329 33.7002C46.1026 34.1575 46.2676 33.7129 46.6484 33.9797C46.3692 34.4623 46.5215 34.1575 46.001 34.4496L46.5976 34.7163C46.2676 35.3387 46.3438 34.8306 46.0772 35.5673C45.8487 36.2278 46.1914 35.961 45.5568 36.4056C46.2549 36.3421 46.1788 36.2786 46.6103 36.7485C46.4326 37.2439 46.6103 36.9263 46.0899 37.193C47.2704 38.0948 45.2394 37.3963 46.8007 38.5267C47.3466 38.9331 47.0165 38.4124 47.2577 39.2379C47.3592 39.5936 47.4227 39.746 47.3719 40.254C47.0419 40.4572 46.5976 40.6097 46.0899 40.6859L45.963 41.5241C43.8432 41.9433 46.9784 41.829 43.31 42.934C43.767 43.0991 43.7543 42.9086 44.0463 43.315ZM38.6769 51.774C38.1184 52.2947 35.9986 52.1296 35.2243 52.5742C34.9451 52.7266 34.6912 53.3108 34.6404 53.2219C34.6277 53.1838 34.5769 53.2727 34.5135 53.2981L34.9704 52.3455C36.2271 52.1423 37.2933 51.7105 38.6769 51.774ZM39.4639 45.5882C39.4512 45.6263 39.3878 45.6774 39.1974 45.6647C39.1212 46.1601 37.9788 47.735 37.6868 48.1033L36.4048 47.8874L37.2045 48.2685C38.1057 48.3574 38.2834 47.7604 38.6262 47.2143C38.9308 46.7316 39.2354 46.3252 39.5401 45.7917C39.4893 45.6774 39.4639 45.6136 39.4639 45.5882ZM33.6122 50.3133C33.3838 50.2752 33.993 50.0974 33.6122 50.3133V50.3133ZM33.8915 51.7486L33.6757 51.774C33.6249 52.3455 33.6503 52.8409 33.5615 53.3743V53.4251L33.8915 51.7486ZM46.9277 37.4852C46.9404 37.4471 46.9911 37.4217 47.0165 37.409C47.0419 37.3963 47.0927 37.3582 47.1054 37.3455C47.1308 37.3328 47.1815 37.2947 47.1942 37.2947C47.245 37.2565 47.2831 37.2308 47.3085 37.2181C47.2831 37.2435 47.2704 37.2693 47.3592 37.2311C47.8797 37.7265 47.4227 37.5233 47.9305 38.5013L47.4227 38.8442C47.2831 38.1837 47.1688 38.0821 46.9277 37.4852ZM47.3085 37.2181C47.3465 37.1927 47.41 37.1546 47.3085 37.2181V37.2181ZM41.1268 51.177C41.4568 51.1262 41.6599 51.0627 42.028 51.1008L42.523 51.2659C42.5484 51.2278 42.5865 51.3167 42.6119 51.3421C41.9899 52.0661 42.1803 51.5708 41.2918 51.647C40.8475 51.6851 40.7587 51.9264 40.2763 52.0661C40.7713 51.5581 40.7587 51.8629 41.1268 51.177ZM37.4964 50.4658C37.8011 50.3006 38.8673 49.9577 39.2989 49.8434C39.1085 50.1355 39.3116 49.9196 39.0577 50.1355L38.4231 50.5039C38.4231 51.3167 38.9689 51.3675 38.0803 51.4564L38.055 50.6182L37.4964 50.4658ZM52.5001 52.0534C55.6608 52.5742 58.466 51.8121 59.2149 48.3066C59.7354 48.1796 60.2431 48.0525 60.6874 47.862C61.4744 47.5064 61.1063 47.6715 61.5632 46.9856C61.8932 46.4776 62.0456 46.4522 62.4644 46.1347C64.6096 44.5089 65.1174 46.4522 66.6152 45.0424C67.2499 44.4581 68.075 44.0644 68.3796 43.2896C67.8211 43.4547 67.3387 43.6579 66.6406 43.6198C66.6279 43.5944 66.6152 43.5436 66.6025 43.5182C66.4502 43.1118 65.9678 42.7562 65.9425 42.6672C65.9298 42.6164 65.879 42.6164 65.8536 42.591C66.0694 41.8798 66.3233 42.1084 66.4248 41.4987C66.5644 40.6351 66.8564 41.4098 67.8972 41.3717C68.8239 41.3336 68.6462 41.3336 69.4078 41.5495C69.0777 38.768 71.1087 39.3522 71.6545 37.3074C70.0805 38.7299 71.2102 38.1202 69.192 38.5775C68.7985 38.6664 68.5192 38.6283 68.2019 38.5521C67.6307 37.1422 68.6335 37.2947 69.1539 36.2532C68.24 36.3548 67.7576 36.6215 67.2118 36.0245C66.8564 35.5165 67.1864 35.8975 67.0722 35.58C67.0595 35.5419 67.0468 35.5038 67.0341 35.4657C66.9072 35.1609 66.7041 35.072 66.3867 34.8433C66.2979 34.1702 66.2471 34.1448 66.5517 33.6113C67.161 33.5478 66.7421 33.8145 67.4657 33.7637C68.7096 33.6748 68.3161 33.1541 68.8112 32.3666C69.2301 31.6934 69.065 32.1888 69.2174 31.2616C69.3951 30.2201 69.1539 30.2963 68.8366 29.1786C67.7957 28.9754 67.4149 28.9754 66.831 28.0101C67.1991 27.6164 67.161 27.9212 67.3133 27.4513C66.5517 26.8162 64.4192 25.8509 66.2344 24.6824C67.6941 23.7552 66.6533 24.6443 67.4403 23.2599C67.9607 22.3327 67.8338 22.5613 67.5291 21.2785L67.3641 22.7899C67.0849 22.9677 66.996 22.9169 66.7168 23.1202C65.5236 23.9584 66.6914 23.5901 63.975 22.8153C64.0511 20.1354 63.7211 19.7163 65.6124 19.6527C65.0793 18.6494 65.5109 18.5985 65.9171 17.646C65.6632 17.049 65.8282 17.7095 65.4855 17.0617L65.7774 16.1472C65.2062 15.7662 64.3431 15.093 64.0638 14.2421C63.7338 13.2514 63.6196 12.5782 62.5914 12.0956L62.6041 13.3149C61.8425 13.4165 61.1316 13.5308 60.3954 13.0862C60.3954 12.3877 60.9793 12.4131 60.5477 11.8161C60.2177 11.3462 59.9131 11.651 59.3672 11.3843C59.3926 10.5333 59.8369 10.6857 59.3926 10.0507C57.806 7.76446 56.9174 9.3013 56.2447 9.84745C54.9626 9.64423 54.8992 10.1269 53.7948 9.77124C53.6298 9.2632 53.8075 8.94567 53.4775 8.36141L52.9824 7.51044C52.6143 6.72297 50.6976 7.34532 50.0122 6.72297C49.7456 6.49434 49.0982 4.894 48.9459 4.46216C48.7428 6.55785 49.314 5.46555 49.4283 6.76107C49.0475 7.05319 48.984 7.00239 48.654 7.21831C48.2097 7.51044 48.3493 7.53584 47.9431 7.81526C46.9911 6.48164 46.3057 7.51044 45.4806 6.84998C45.4552 6.59595 45.6964 6.38003 45.671 5.66877C43.3354 4.66538 44.8459 4.34785 43.6147 3.30635C42.5103 3.03963 42.1803 4.00492 41.533 4.33515C40.6444 4.80509 39.8955 4.00492 39.832 3.20474C40.2001 2.51888 40.3525 3.00153 40.5302 2.18865C40.0732 1.6425 37.4964 1.32497 36.9506 1.35037L37.5472 1.83302C37.5472 2.18865 37.4837 2.15055 37.2933 2.49348C38.0042 2.59509 38.3596 2.7221 38.55 3.35716C38.1692 3.97951 36.7221 4.28434 35.9605 4.03032L34.4246 2.51888C33.7392 2.7475 33.6757 2.87451 33.1045 3.19204L31.7082 3.8398C31.6828 3.8525 28.4841 3.99222 28.0525 4.00492C28.4587 4.55107 28.4206 3.95411 28.4714 4.85589C27.6844 5.22423 26.707 5.04641 25.5265 5.52906C24.2191 6.0625 24.0033 5.42745 22.6959 5.18612C22.9371 5.89739 23.0767 5.59256 23.1655 6.41814C22.9244 6.58325 22.5816 6.74837 22.2262 6.90078L21.3631 7.37072C21.3504 7.34532 21.3123 7.42153 21.2869 7.45963C21.1346 8.1709 21.9597 8.55193 20.1699 9.19969C19.3702 9.49182 18.1262 9.3521 17.6058 10.0634C17.8089 10.927 18.0882 10.3936 18.469 11.2954C18.8498 12.1718 18.4055 11.6256 19.5479 12.1337C19.5225 12.9719 19.5352 12.1718 19.421 12.5528L19.3448 13.6451C19.3321 13.6324 19.3321 13.7213 19.3194 13.7594C17.9231 14.5215 18.012 13.7848 16.9458 13.4292C15.8541 13.0608 15.5622 12.3623 14.4578 12.8449L14.5086 13.0862C14.5467 13.48 14.242 13.8102 14.0009 14.1277C13.4551 14.8644 12.6554 15.9059 11.8811 16.3885C11.4749 16.6299 10.9037 16.7569 10.434 17.0617C10.8529 17.4935 11.4241 17.3792 11.6399 18.0524C11.1956 18.4207 10.7006 18.3318 10.3579 18.7764L10.2817 18.9034C10.269 18.9161 10.2436 18.9542 10.2309 18.9669C9.4947 19.729 7.38759 19.6781 7.05756 20.2878C7.03217 20.3259 7.01948 20.364 6.99409 20.4021C6.86715 20.6434 7.01948 20.4529 6.84177 20.6815C6.47366 21.1388 6.01669 21.0118 5.75013 21.6722C6.47366 21.5579 6.86715 21.4817 7.41297 21.8881C7.22257 22.5232 7.03217 22.1295 6.66406 22.7518C8.18727 23.3107 8.73309 23.3742 5.38202 25.7747C4.50617 26.3971 4.88698 26.4606 4.265 27.1337C3.82073 27.6037 3.46531 27.845 3.10989 28.3403C4.23961 28.3784 5.30586 28.3149 5.36933 29.4834C5.4328 30.4868 4.40463 30.7663 3.70649 31.1092C3.55416 33.3446 2.72909 31.757 2.74178 33.9034C5.66128 34.4242 3.63033 34.7925 6.30864 34.8179C7.92071 34.8306 8.09842 36.5199 6.9687 37.1295C6.01669 37.6376 4.53156 37.8408 3.57955 38.2599C2.98296 38.514 2.48792 39.8349 1.34551 40.4191V44.7629C2.97027 44.2295 2.94488 45.0297 3.80803 44.7629C5.64858 44.1914 9.60894 45.1948 7.64145 47.4302C7.22257 47.9001 7.18449 48.4463 6.91793 49.0051C7.71762 49.1067 8.54269 48.9543 9.35507 49.0559C10.2055 49.1702 9.8755 49.564 11.0433 49.7672C12.465 50.0085 14.4832 49.5005 15.0798 50.6182L15.1306 52.4852C15.0671 53.3108 14.5721 53.3108 14.4324 54.0983C14.9148 54.0348 15.486 53.8824 15.8414 53.8062C16.108 53.7554 16.6919 53.7808 17.1362 53.7173C18.1897 53.5775 18.9386 53.387 19.916 53.1711L19.9287 53.2346L19.9795 53.1965L20.1318 53.3616L20.043 53.4505L20.1699 53.4378C20.4238 53.4124 20.7665 53.4124 21.0584 53.4505C21.2869 53.4632 21.4773 53.5013 21.5789 53.5521C21.5281 54.1618 21.2996 54.1872 20.9442 54.2253C20.6903 54.2507 20.3857 54.2761 20.0049 54.492L19.8652 54.5682H20.0303C20.4999 54.5682 20.7919 54.4666 21.0203 54.3777C21.4773 54.2126 21.7566 54.111 23.0005 55.0001C22.9117 57.0196 23.7494 57.1593 24.8284 57.3498C25.0569 57.3879 25.298 57.4387 25.5392 57.4895C26.4278 57.7181 26.4658 57.8578 26.5293 58.0865C26.5674 58.2516 26.6182 58.4421 26.9101 58.7342C27.1513 58.9755 27.4305 59.128 27.7225 59.2169C28.0271 59.3058 28.3445 59.3312 28.6745 59.3312C28.8014 59.3185 28.8903 59.3058 28.9411 59.2804C28.9411 59.3185 28.9538 59.382 28.9918 59.4455L29.0045 59.4709H29.0299C29.5376 59.3693 29.6138 59.2169 29.8169 58.7596L29.8423 58.7342L29.8804 58.6707L30.5531 58.2897L30.477 58.7723C30.9466 58.404 30.515 58.6707 30.7816 58.0865C30.9085 57.7816 30.9339 57.8705 31.1624 57.6038C31.6955 57.6927 31.4671 57.5657 31.594 58.0484C31.6194 57.9467 31.6321 57.8578 31.6448 57.7816L32.7364 58.7977C33.4472 59.7122 32.8506 59.3439 33.6884 60.5378C34.0057 60.9696 34.4881 61.592 35.0212 62.227L37.7376 63.2558H37.7503V63.2685H37.8392L37.8519 63.2812H37.9407V63.2939H38.0169L38.0296 63.3066H38.1184L38.1311 63.3193H38.2073L38.22 63.332H38.2707L38.2961 63.3447H38.3596L38.385 63.3574H38.4484L38.4738 63.3701H38.5373L38.5754 63.3828H38.6135L38.6515 63.3955H38.6896C39.4893 63.5099 39.045 63.8401 40.3144 63.5099C41.5837 63.1923 41.4949 63.459 42.5103 62.9764L42.5357 62.9637H42.5484L42.65 62.9129L42.6627 62.9002L42.7008 62.8875L42.7388 62.8621H42.7515L42.8023 62.8367H42.815L42.8404 62.8113L42.8658 62.7986H42.8785L42.9165 62.7732L42.9546 62.7605L42.9927 62.7351L43.0308 62.7224L43.0689 62.697L43.0942 62.6843L43.1069 62.6716L43.145 62.6589L43.1831 62.6335L43.2212 62.6208L43.2593 62.5954H43.272L43.2973 62.57L43.3354 62.5446L43.3862 62.5319V62.5192L43.4243 62.5065V62.4938L43.4624 62.4811L43.5004 62.4557H43.5131L43.5385 62.4303L43.5893 62.4176L43.6274 62.3922C43.767 62.3032 43.8939 62.227 44.0336 62.1381H44.0463L44.1224 62.0873C44.8713 61.6174 45.5822 61.0839 45.8487 60.6648C46.3311 59.9281 47.1435 57.6546 47.1435 57.6546C47.2577 57.3498 47.3719 57.0196 47.4989 56.6893C47.6639 56.2829 47.8416 56.0543 47.9558 55.6859C48.0955 55.2795 47.9431 54.0602 49.1109 52.9552C49.2506 53.0695 49.314 52.9679 49.3394 52.9679H49.3521L49.6314 53.133C49.5298 53.2219 49.4156 53.3489 49.2887 53.5013V53.514C49.2633 53.5902 49.2506 53.6919 49.2379 53.7935L49.6695 53.1584L52.1193 53.006C52.8809 52.4217 52.3224 52.4979 52.5001 52.0534ZM37.8645 45.4866C37.8899 45.3469 37.928 45.2071 37.9915 45.0801C37.7376 44.9023 37.5472 44.6356 37.471 44.3181C37.4457 44.2546 37.4964 44.28 37.5345 44.3054V44.2927C37.4584 44.2164 37.3568 44.1021 37.2299 43.9243C37.1918 43.8862 37.1664 43.8481 37.141 43.81L36.9252 43.4544C36.7856 43.2639 36.6967 43.0352 36.6714 42.7812C36.6587 42.7812 36.646 42.7812 36.6333 42.7812C36.5825 42.7812 36.5444 42.7939 36.3413 42.8701C36.4302 43.4036 36.4937 43.8862 36.519 44.7372C36.5317 45.1817 36.5063 45.5755 36.4683 45.9692C36.4556 46.1724 36.4429 46.3629 36.4429 46.5408C36.5063 46.5408 36.5571 46.5535 36.6333 46.5662L37.1029 46.6424C37.268 46.401 37.4584 46.1343 37.6107 45.8803C37.763 45.639 37.8645 45.512 37.8645 45.4866ZM37.5345 44.3054C37.5599 44.3308 37.5853 44.3562 37.5345 44.3054V44.3054ZM31.7336 59.6992L31.6067 59.5721C31.5432 59.6357 31.4797 59.6865 31.4036 59.75C31.1751 59.9659 30.8832 60.0929 30.5658 60.1183C30.5404 60.1437 30.515 60.1691 30.4897 60.1945C30.1723 60.512 29.8296 60.6772 29.2838 60.7788L29.2584 60.7915C28.9537 60.8423 28.6491 60.8042 28.3825 60.6644C28.2683 60.6517 28.1541 60.6517 28.0398 60.639C27.8113 60.6136 27.5829 60.5628 27.3544 60.4993C27.1005 60.4231 26.8466 60.3215 26.6308 60.1945C26.3897 60.0548 26.1739 59.8897 25.9581 59.6865C25.7042 59.4197 25.5392 59.1911 25.4377 58.9879C25.3996 58.9244 25.3742 58.8736 25.3615 58.8228C25.3234 58.8228 25.2726 58.8101 25.2092 58.7974C25.0822 58.7593 24.8284 58.7085 24.5999 58.6704C23.851 58.5434 23.1909 58.429 22.5689 57.8448C22.0612 57.3748 21.7439 56.7271 21.6677 55.711C21.5915 55.6729 21.5281 55.6348 21.4773 55.6221V55.6348C21.49 55.6348 21.49 55.6348 21.49 55.6348C21.3377 55.6983 21.1727 55.7491 20.9188 55.8126C20.6776 55.8634 20.3857 55.9142 20.0303 55.9142H19.9414C19.4464 55.9269 18.964 55.6856 18.7101 55.2284C18.634 55.1013 18.5832 54.9743 18.5578 54.8346C18.177 54.9108 17.7708 54.987 17.3139 55.0378C17.0346 55.0759 16.7427 55.0886 16.4761 55.1013C16.2984 55.1013 16.1461 55.114 16.108 55.114C16.0826 55.1267 15.9684 55.1521 15.7906 55.1903C15.4606 55.2792 15.0671 55.3681 14.6609 55.4189C14.5086 55.4443 14.3563 55.4443 14.1913 55.4189C13.4677 55.2919 12.9854 54.5933 13.1123 53.8566C13.2266 53.1708 13.4804 52.8532 13.7089 52.5357C13.747 52.4849 13.7724 52.4468 13.7851 52.4087L13.7597 51.2148C13.5185 51.1894 13.0108 51.1894 12.503 51.1894C11.9318 51.1767 11.3606 51.1767 10.8275 51.0878C9.85011 50.9227 9.50739 50.6432 9.19005 50.3892C9.19005 50.3892 9.20275 50.3892 9.17736 50.3892C8.87272 50.3511 8.50461 50.3638 8.14919 50.3638C7.67953 50.3765 7.22257 50.3892 6.75291 50.3384C6.60059 50.313 6.46096 50.2749 6.32134 50.1987C5.66128 49.8812 5.38202 49.0683 5.71205 48.4078C5.77552 48.2935 5.82629 48.1284 5.87706 47.9633C6.04208 47.4933 6.1944 47.0488 6.63867 46.5408C6.70214 46.4646 6.75291 46.4137 6.7783 46.3756C6.67675 46.2994 6.53712 46.2359 6.35942 46.1724C5.64858 45.9184 4.76004 45.8676 4.20153 46.0454C3.40184 46.2867 3.00835 46.147 2.55138 45.9692C2.42445 45.9311 2.28482 45.8803 1.82786 46.02C1.67553 46.0708 1.51052 46.1089 1.34551 46.1089C0.596592 46.1089 0 45.512 0 44.7626V40.4188C0 39.9362 0.266562 39.4662 0.73622 39.2249C1.11702 39.0217 1.45975 38.5898 1.739 38.2215C2.1325 37.7135 2.47522 37.2816 3.04643 37.0276C3.54147 36.8117 4.12537 36.6466 4.70927 36.4941C5.11546 36.3798 5.52165 36.2655 5.86437 36.1385C4.37924 36.1004 4.12537 35.8845 3.73187 35.5543C3.65571 35.4907 3.55416 35.4018 2.526 35.224C1.89132 35.1097 1.40897 34.5636 1.39628 33.9031C1.39628 32.1249 1.86594 31.782 2.39906 31.4264C2.39906 31.4137 2.38637 31.3883 2.38637 31.3756C2.37367 31.3248 2.34829 31.2359 2.36098 31.0199C2.39906 30.55 2.66562 30.1182 3.12259 29.9022C3.27491 29.826 3.37646 29.7752 3.478 29.7371C3.74457 29.6228 4.03652 29.6101 4.03652 29.5466C4.02382 29.3942 3.70649 29.699 3.33838 29.6863C3.22413 29.6736 3.10989 29.6736 3.05912 29.6736C2.79256 29.6609 2.53869 29.5847 2.31021 29.4069C1.71361 28.9751 1.58668 28.1241 2.03095 27.5398C2.3229 27.1334 2.57677 26.8921 2.85602 26.638C3.00835 26.4856 3.17336 26.3459 3.27491 26.2189C3.41454 26.0792 3.45262 26.003 3.4907 25.9268C3.6811 25.5457 3.83342 25.2409 4.60772 24.6821C5.88976 23.7676 7.03217 24.5296 6.71483 24.0978C6.65136 24.0978 6.5879 24.0978 6.52443 24.0851C6.48635 24.0978 6.43558 24.0978 6.35942 24.0724L6.27056 24.0343C6.16901 24.0089 6.08016 23.9581 5.97861 23.9073C5.6232 23.6914 5.39471 23.3357 5.34394 22.942C5.31855 22.942 5.29317 22.9293 5.26778 22.9166C4.56964 22.6499 4.23961 21.8624 4.50617 21.1765C4.8489 20.3256 5.28047 20.0969 5.72474 19.8683C5.75013 19.8556 5.75013 19.8683 5.76282 19.8683C5.77552 19.8302 5.8009 19.7921 5.82629 19.754V19.7413C5.83898 19.7159 5.85168 19.6905 5.86437 19.6651C6.30864 18.8268 7.18449 18.6236 8.14919 18.3823C8.58077 18.2807 9.05043 18.1664 9.22813 18.0648V18.0521C9.25352 18.0267 9.26621 18.0013 9.2916 17.9632C9.31699 17.9377 9.34237 17.8996 9.36776 17.8742C9.35507 17.8488 9.32968 17.8234 9.31699 17.798C8.9108 17.1884 9.07581 16.3501 9.69779 15.9437C10.0659 15.7023 10.4086 15.5753 10.7387 15.4356C10.9037 15.3721 11.0687 15.3086 11.1702 15.2451C11.4241 15.08 11.7287 14.7879 12.0207 14.4576C12.3761 14.0639 12.6808 13.6575 12.9219 13.3272C12.9727 13.2637 13.0108 13.2129 13.0489 13.1621C13.0869 13.124 13.125 13.2002 13.1504 13.2383L13.1758 13.2637V13.251L13.1504 13.0986C13.0235 12.489 13.3408 11.8666 13.9247 11.6126C15.2829 11.0156 15.9049 11.3712 16.7427 11.8539C16.9331 11.9555 17.1362 12.0825 17.3646 12.146V12.1587V12.1206C17.3266 12.0444 17.2885 11.9174 17.2504 11.8285C17.2377 11.8031 17.2504 11.8031 17.2758 11.8158C16.8823 11.5745 16.5523 11.3712 16.3238 10.4568C16.1968 10.063 16.2603 9.63119 16.5269 9.27556C17.1996 8.34837 18.1516 8.20866 19.0529 8.06895C19.3194 8.03084 19.5733 7.99274 19.7129 7.94194C19.916 7.86573 20.0303 8.46268 19.9922 8.24676C19.9414 7.98004 19.8906 7.70061 19.9541 7.28148C19.9795 7.06556 20.0556 6.86234 20.1826 6.68452C20.1953 6.67182 20.1953 6.67182 20.208 6.65912C20.3095 6.50671 20.4238 6.34159 20.7411 6.17648C20.7792 6.16377 20.8172 6.13837 20.8426 6.12567L21.4773 5.78274C21.4646 5.73194 21.4392 5.66843 21.4265 5.61762C21.3504 5.4017 21.3377 5.17308 21.3758 4.93176C21.5154 4.2078 22.2135 3.72515 22.9371 3.86486C23.5083 3.97917 23.9018 4.13159 24.2318 4.2586C24.473 4.36021 24.6507 4.43642 25.0188 4.284C25.6661 4.02998 26.212 3.91567 26.7197 3.85216C26.7959 3.1917 27.3417 2.68366 28.0271 2.65825C28.1921 2.65825 29.0299 2.62015 29.8677 2.59475C30.5912 2.55664 31.0736 2.60745 31.2386 2.58205L32.5079 1.98509C32.5841 1.94699 32.6983 1.88348 32.7872 1.81998C33.1299 1.60406 33.3584 1.46435 33.993 1.24843C34.4627 1.08331 34.9958 1.19762 35.3766 1.56595L35.7447 1.93429C35.6686 1.78187 35.6178 1.60406 35.6178 1.42624C35.567 0.689574 36.1382 0.0545165 36.8745 0.016413C37.2806 -0.00898931 38.5373 0.105321 39.5401 0.346643C40.3778 0.537161 41.1521 0.85469 41.5583 1.32463C41.7741 1.59136 41.9011 1.93429 41.863 2.30262C42.358 1.95969 42.9673 1.76917 43.9193 1.99779C44.1224 2.0359 44.3128 2.13751 44.4778 2.27722C45.3791 3.03929 45.4552 3.62354 45.5314 4.15699C45.5314 4.15699 45.5314 4.14429 46.1914 4.42372C46.6484 4.62693 46.9784 5.07147 47.0038 5.60492C47.0038 5.64303 47.0038 5.69383 47.0038 5.73194C47.2069 5.74464 47.3973 5.77004 47.6004 5.83354C47.5496 5.50331 47.5369 5.04607 47.6004 4.41101C47.6258 3.87757 47.9558 3.38222 48.5017 3.1917C49.1998 2.95038 49.9614 3.31871 50.2026 4.01728C50.2914 4.2586 50.5453 4.89366 50.7865 5.4017C50.888 5.63033 50.8499 5.68113 50.9007 5.71923C50.9388 5.75734 51.1927 5.69383 51.5227 5.70653C52.5889 5.74464 53.6171 5.77004 54.1756 6.88774L54.6326 7.68791C54.823 8.00544 54.9118 8.27217 54.9753 8.50079C55.1911 8.47539 55.445 8.43728 55.7623 8.44998C55.9273 8.28487 56.1177 8.13245 56.3335 7.98004C57.4632 7.19257 58.8468 6.92584 60.4843 9.27556C60.827 9.7709 60.9666 10.1011 60.9793 10.3933C61.1951 10.5203 61.4109 10.7108 61.6394 11.041C61.6521 11.0664 61.6774 11.0791 61.6901 11.1045C62.0709 10.7616 62.6421 10.66 63.1372 10.8886C64.5969 11.5491 64.8635 12.3746 65.2316 13.5177C65.2697 13.6194 65.2951 13.721 65.3332 13.8099C65.3966 14.0131 65.5616 14.229 65.7647 14.4195C65.9932 14.6608 66.2598 14.8514 66.4883 15.0038C66.996 15.3213 67.2499 15.9564 67.0595 16.5533L66.9833 16.7692C67.0341 16.8836 67.0975 16.9979 67.1483 17.1376C67.2753 17.4551 67.2879 17.8234 67.1483 18.1664C67.0087 18.4966 66.8818 18.7252 66.7675 18.9157C66.7548 18.9284 66.7548 18.9411 66.7929 19.03C66.8945 19.2079 66.9452 19.4111 66.9452 19.6143C66.9579 19.7921 66.9198 19.9572 66.8691 20.1223C66.9706 20.0588 67.0849 20.008 67.2118 19.9826C67.9353 19.8048 68.6588 20.2494 68.8239 20.9733C68.8746 21.1765 68.9381 21.3671 68.9762 21.5195C69.0904 21.9132 69.1539 22.1418 69.1285 22.4975C69.1158 23.0182 68.9635 23.2849 68.6208 23.9073H68.6081C68.4304 24.2248 68.4431 24.174 68.4431 24.1867C68.4177 24.5042 68.405 24.6821 68.113 25.025C67.9353 25.2282 67.8338 25.2917 67.5799 25.4441C67.4783 25.4949 67.3387 25.5838 67.161 25.6855C67.2879 25.7871 67.453 25.9014 67.5926 25.9903C67.783 26.1173 67.9607 26.2443 68.1257 26.384C68.5446 26.7015 68.7477 27.235 68.6208 27.7684C68.6842 27.7811 68.7604 27.7938 68.8492 27.8193C69.0143 27.8447 69.0143 27.8447 69.0904 27.8574C69.5728 27.959 69.9917 28.3146 70.1313 28.8226C70.2074 29.0894 70.2836 29.3053 70.3471 29.4704C70.6009 30.1055 70.7152 30.4103 70.5375 31.4772C70.4994 31.7312 70.4867 31.8201 70.474 31.8836C70.4486 32.0995 70.4359 32.2011 70.3725 32.3663C70.2963 32.5822 70.2328 32.6584 70.1186 32.8108C70.0932 32.8489 70.0551 32.8997 69.9409 33.0775C69.8901 33.1664 69.8393 33.3062 69.8139 33.4078C69.5601 34.2079 69.3951 34.7668 68.2907 35.0081C68.3034 35.0208 68.3034 35.0335 68.3161 35.0462C68.3288 35.0335 68.3669 35.0208 68.405 35.0081C68.5827 34.9827 68.7731 34.9446 68.9889 34.9192C69.2427 34.8938 69.5093 34.9319 69.7632 35.0589C70.3344 35.351 70.6136 35.9861 70.4613 36.583C70.5375 36.5068 70.639 36.4179 70.7406 36.329C71.0706 36.0242 71.5403 35.8845 72.0099 36.0115C72.7207 36.202 73.1523 36.9387 72.9492 37.6499C72.6065 38.9455 71.9337 39.4789 71.2991 39.987C70.9564 40.2537 70.639 40.5077 70.7406 41.3714C70.766 41.5492 70.7533 41.7397 70.7025 41.9175C70.5629 42.4256 70.144 42.7812 69.6616 42.8701C69.7505 43.1623 69.7505 43.4798 69.6235 43.7846C69.2681 44.6737 68.6715 45.1309 68.0496 45.6009C67.8718 45.7406 67.6814 45.893 67.5291 46.0327C66.3232 47.1631 65.5236 47.0107 64.6223 46.8456C64.2923 46.7821 63.9242 46.7186 63.2641 47.2012C63.2514 47.2139 63.1372 47.3028 62.9976 47.3917C62.8706 47.4806 62.8072 47.5314 62.6675 47.7347C62.5787 47.8617 62.5533 47.9379 62.5279 47.9887C62.236 48.6365 62.2233 48.6492 61.2205 49.081C60.9158 49.2207 60.6112 49.3223 60.3066 49.4112C59.7861 50.9862 58.8595 52.0658 57.6663 52.7262C56.4731 53.3867 55.0515 53.6153 53.5409 53.5137C53.4013 53.6915 53.1982 53.8693 52.9444 54.0725V54.0598C52.7413 54.225 52.4747 54.3266 52.1954 54.352L50.4057 54.4536L50.3549 54.5425V54.5298C50.1391 54.86 49.7964 55.0759 49.4029 55.1267C49.3902 55.2411 49.3775 55.3554 49.3648 55.457C49.3267 55.6856 49.314 55.8761 49.2252 56.1174C49.1363 56.4096 49.0221 56.6128 48.9205 56.8287C48.8571 56.9557 48.7809 57.0827 48.7428 57.1843C48.6921 57.3367 48.6286 57.4892 48.5651 57.6543C48.527 57.7686 48.4763 57.8829 48.4509 57.9845C48.4255 58.0607 48.4001 58.1369 48.362 58.2131C48.197 58.6704 47.4735 60.6136 46.9784 61.3884C46.7753 61.7059 46.458 62.0362 46.0899 62.341C45.7091 62.6458 45.2648 62.9507 44.8332 63.2301L44.7825 63.2555C44.7698 63.2682 44.7571 63.2682 44.7444 63.2809H44.7317C44.6301 63.3444 44.554 63.3952 44.5159 63.4206C44.4271 63.4714 44.3509 63.5095 44.3128 63.5349C44.3001 63.5476 44.2747 63.5603 44.2493 63.573L44.1732 63.6238C44.1605 63.6238 44.1351 63.6365 44.1224 63.6492L44.0843 63.6746C44.0843 63.6746 44.0843 63.6746 44.0716 63.6746L44.0463 63.7V63.6873C44.0336 63.7 44.0336 63.7 44.0336 63.7H44.0209C44.0082 63.7127 43.9955 63.7127 43.9828 63.7254L43.9447 63.7508L43.9066 63.7635C43.9066 63.7635 43.9066 63.7635 43.9066 63.7762H43.8939C43.8685 63.7889 43.8432 63.8016 43.8178 63.8143L43.7924 63.827C43.767 63.8397 43.7416 63.8651 43.7162 63.8778L43.6908 63.8905V63.8778C43.6908 63.8778 43.6908 63.8778 43.6908 63.8905L43.6528 63.9032C43.6274 63.9159 43.602 63.9286 43.5766 63.9413V63.954L43.5385 63.9668C43.5131 63.9795 43.5004 63.9922 43.475 64.0049L43.4497 64.0176V64.0049C43.4497 64.0049 43.4497 64.0049 43.4497 64.0176H43.4243C43.4116 64.0303 43.3862 64.043 43.3608 64.0557L43.3354 64.0684L43.2973 64.0811C43.2846 64.0938 43.2593 64.1065 43.2466 64.1192H43.2339L43.1958 64.1446H43.1831C43.1704 64.1446 43.145 64.1573 43.1196 64.17L43.1069 64.1827L43.0816 64.1954C42.2819 64.5637 41.9899 64.6018 41.5203 64.6526C41.3299 64.678 41.1014 64.7034 40.6444 64.8177C39.3243 65.148 39.045 64.9955 38.5627 64.7415C38.55 64.7415 38.55 64.7288 38.4865 64.7288L38.4484 64.7161H38.4231L38.385 64.7034H38.3088L38.2834 64.6907C38.2707 64.6907 38.258 64.6907 38.2453 64.6907H38.2327C38.22 64.678 38.2073 64.678 38.1819 64.678C38.1692 64.678 38.1438 64.678 38.1311 64.6653C38.1057 64.6653 38.093 64.6653 38.0803 64.6653H38.0676C38.0549 64.6653 38.0296 64.6526 38.0042 64.6526C37.9915 64.6526 37.9915 64.6526 37.9915 64.6526C37.9661 64.6526 37.9407 64.6399 37.9153 64.6399C37.9026 64.6399 37.8899 64.6399 37.8772 64.6399C37.8645 64.6272 37.8645 64.6272 37.8645 64.6272H37.8519C37.8519 64.6272 37.8519 64.6272 37.8392 64.6272C37.8265 64.6272 37.8138 64.6272 37.8138 64.6272C37.8011 64.6272 37.8011 64.6272 37.7884 64.6272C37.7757 64.6145 37.7503 64.6145 37.7249 64.6145C37.7122 64.6145 37.7122 64.6145 37.6995 64.6145C37.6868 64.6018 37.6614 64.6018 37.6488 64.6018H37.6107C37.6107 64.6018 37.6107 64.6018 37.598 64.6018H37.5853C37.5726 64.5891 37.5726 64.5891 37.5726 64.5891C37.4584 64.5764 37.3568 64.551 37.2553 64.5129L34.5516 63.4841C34.3358 63.3952 34.1454 63.2682 33.993 63.0904C33.7011 62.7474 33.4345 62.4172 33.2061 62.1124C32.9776 61.8203 32.7618 61.5535 32.5968 61.3122C32.0256 60.4993 31.9367 60.1818 31.8605 59.8897C31.8605 59.877 31.8479 59.8516 31.7336 59.6992ZM66.1963 21.1384C66.209 21.0368 66.2344 20.9225 66.2725 20.8209C66.0821 20.9225 65.879 20.986 65.6505 20.9987C65.3332 20.9987 65.3332 21.1257 65.3332 21.7735V21.8497C65.5489 21.9259 65.7393 22.0021 65.8917 22.0656C65.9044 22.0529 65.9297 22.0402 65.9551 22.0275C66.0059 21.9767 66.0567 21.9386 66.1075 21.9132L66.1963 21.1384ZM17.2885 11.8158H17.2758C17.2885 11.8158 17.3012 11.8285 17.2885 11.8158ZM13.1504 13.2383C13.1631 13.251 13.1631 13.2637 13.1758 13.2637L13.1504 13.2383ZM21.4138 55.5967C21.325 55.5713 21.4646 55.6094 21.4773 55.6348V55.6221C21.4519 55.6094 21.4392 55.5967 21.4138 55.5967Z" fill="white"/>
<path fill-rule="evenodd" clip-rule="evenodd" d="M49.2379 53.7935C49.2506 53.6919 49.2633 53.5902 49.2887 53.514V53.5013C49.7583 52.9425 49.9868 52.8409 50.1518 52.7647C50.2787 52.7012 50.3676 52.6631 50.5199 52.409C50.6849 52.1296 50.6849 52.028 50.6849 51.8756C50.6849 51.7867 50.6849 51.6851 50.723 51.52C50.7865 51.1389 50.7992 51.1389 50.8499 51.1389C50.8626 51.1389 50.9007 51.1389 51.0657 50.7452C51.3323 50.1101 51.2561 49.6402 51.1927 49.2591C51.18 49.1575 51.1546 49.0559 51.1546 48.967C51.1038 48.4336 51.2434 48.2304 51.3577 48.0779C51.4465 47.9509 51.5227 47.862 51.3958 47.5572L51.3196 47.3794L51.4592 47.5191C51.6116 47.6588 51.7131 47.8366 51.8146 47.989C52.0177 48.3193 52.1954 48.6114 52.8047 48.6241C53.2363 48.6368 53.5536 48.5098 53.7694 48.2685C53.9725 48.0398 54.0868 47.7223 54.1122 47.3667C54.1502 46.9983 54.0995 46.5919 53.9979 46.1855C53.7567 45.2964 53.2109 44.4454 52.5636 44.1406L52.5255 44.1279L53.1094 42.4767C53.249 41.4733 53.0967 40.9145 52.9824 40.4445C52.8174 39.7714 52.6905 39.2887 53.5283 37.9297C53.9979 37.1803 54.4041 35.7324 54.4549 34.348C54.5057 33.2557 54.3279 32.2142 53.7948 31.541C53.3379 31.5664 52.8809 31.8586 52.4747 32.2523C51.9543 32.7857 51.5227 33.4843 51.3196 34.0305L51.2434 34.1956C51.2434 34.1321 51.2181 33.9669 51.2307 33.9034C51.2434 33.6748 50.6469 33.8272 50.7738 33.5986C50.9261 33.3065 50.3295 32.9001 50.5072 32.6968C50.2534 32.6206 50.3168 32.9255 50.063 32.8619C49.7837 32.7857 50.0122 33.0779 49.7456 32.989C49.5044 32.9128 50.0503 32.7857 49.771 32.7095C48.1716 32.2523 51.6242 33.8526 49.8091 33.5605C47.9939 33.2684 49.4283 33.2684 47.7781 33.5478C46.7119 33.8399 45.5822 32.9636 44.4905 33.1922C43.3989 33.4462 42.4469 33.2176 41.3045 33.6113C40.9491 33.7256 39.4639 33.3446 39.0323 33.4589C36.8491 34.0305 34.0311 34.5131 33.1553 35.1609C32.8379 35.4022 28.738 37.663 28.3445 37.9297C28.3064 39.7206 26.542 38.2599 26.4024 40.0254L26.1739 40.5843C26.0343 41.1812 25.9708 42.2227 26.2247 43.1245C26.4024 43.7341 26.7324 44.2676 27.2909 44.5216L27.4559 44.5978L27.0243 44.6232C26.6562 44.6613 26.4278 44.6867 26.25 44.674C26.0723 44.6613 25.9708 44.5978 25.8565 44.4835C25.1711 43.7341 25.2092 43.4039 25.2473 42.8832C25.2726 42.6799 25.2853 42.4386 25.2726 42.1338L23.9525 41.9814C23.6225 42.0322 23.5463 42.4005 23.6225 42.8959C23.7621 43.8103 24.3587 45.1313 24.6507 45.779C24.6888 45.8679 24.7268 45.9568 24.7522 46.0204C24.8665 46.2744 25.0061 46.503 25.1457 46.7062C25.2473 46.8713 25.3361 47.0237 25.3996 47.1508C25.4757 47.3413 25.4757 47.3667 25.4757 47.4937C25.4757 47.7858 25.4377 48.1033 25.425 48.3955C25.4123 48.5352 25.3615 48.7384 25.3107 48.9924C25.0949 49.8942 24.7522 51.3929 25.59 52.1296L25.6027 52.1423C25.6154 52.1423 25.6281 52.1423 25.6281 52.1423C25.6535 52.155 25.6661 52.1677 25.6788 52.1677L25.7169 52.2058L25.7042 52.2312C24.8918 53.6665 24.8157 55.0763 25.1076 55.9146C25.2092 56.2067 25.3615 56.4353 25.5392 56.5496C25.7169 56.6512 25.9073 56.6512 26.1104 56.5242C26.5166 56.2829 26.9355 55.5716 27.2528 54.2126L27.2909 54.0475C27.329 54.1872 27.3798 54.3396 27.4051 54.4793C27.4051 54.5047 27.4051 54.5301 27.4178 54.5555C27.4178 54.5682 27.4178 54.5936 27.4178 54.6063C27.4305 54.6317 27.4305 54.6825 27.4432 54.7206C27.4432 54.7969 27.4305 54.8604 27.4051 54.8731C27.4051 55.0636 27.3925 55.216 27.3925 55.3303C27.3798 55.597 27.3798 55.7113 27.3925 55.7875C27.4178 55.8511 27.4559 55.8892 27.5321 55.9527C27.5956 56.0035 27.6971 56.0797 27.8113 56.2067C28.5476 56.9688 28.5856 57.3117 28.6364 57.68C28.6491 57.7562 28.6618 57.8578 28.6745 57.9467C28.9538 58.0357 29.1695 58.1246 29.3599 58.2262C29.5503 58.3278 29.7154 58.4421 29.8804 58.5945L29.9058 58.6199L29.8423 58.7342L29.8169 58.7596C29.6138 59.2169 29.5376 59.3693 29.0299 59.4709H29.0045L28.9918 59.4455C28.9538 59.382 28.9411 59.3185 28.9411 59.2804C28.8903 59.3058 28.8014 59.3185 28.6745 59.3312C28.3445 59.3312 28.0271 59.3058 27.7225 59.2169C27.4305 59.128 27.1513 58.9755 26.9101 58.7342C26.6182 58.4421 26.5674 58.2516 26.5293 58.0865C26.4658 57.8578 26.4278 57.7181 25.5392 57.4895C25.298 57.4387 25.0569 57.3879 24.8284 57.3498C23.7494 57.1593 22.9117 57.0196 23.0005 55.0001C21.7566 54.111 21.4773 54.2126 21.0203 54.3777C20.7919 54.4666 20.4999 54.5682 20.0303 54.5682H19.8652L20.0049 54.492C20.3857 54.2761 20.6903 54.2507 20.9442 54.2253C21.2996 54.1872 21.5281 54.1618 21.5789 53.5521C21.4773 53.5013 21.2869 53.4632 21.0584 53.4505C20.7665 53.4124 20.4238 53.4124 20.1699 53.4378L20.043 53.4505L20.1318 53.3616L19.9795 53.1965L19.9287 53.2346L19.916 53.1711C18.9386 53.387 18.1897 53.5775 17.1362 53.7173C16.6919 53.7808 16.108 53.7554 15.8414 53.8062C15.486 53.8824 14.9148 54.0348 14.4324 54.0983C14.5721 53.3108 15.0671 53.3108 15.1306 52.4852L15.0798 50.6182C14.4832 49.5005 12.465 50.0085 11.0433 49.7672C9.8755 49.564 10.2055 49.1702 9.35507 49.0559C8.54269 48.9543 7.71762 49.1067 6.91793 49.0051C7.18449 48.4463 7.22257 47.9001 7.64145 47.4302C9.60894 45.1948 5.64858 44.1914 3.80803 44.7629C2.94488 45.0297 2.97027 44.2295 1.34551 44.7629V40.4191C2.48792 39.8349 2.98296 38.514 3.57955 38.2599C4.53156 37.8408 6.01669 37.6376 6.9687 37.1295C8.09842 36.5199 7.92071 34.8306 6.30864 34.8179C3.63033 34.7925 5.66128 34.4242 2.74178 33.9034C2.72909 31.757 3.55416 33.3446 3.70649 31.1092C4.40463 30.7663 5.4328 30.4868 5.36933 29.4834C5.30586 28.3149 4.23961 28.3784 3.10989 28.3403C3.46531 27.845 3.82073 27.6037 4.265 27.1337C4.88698 26.4606 4.50617 26.3971 5.38202 25.7747C8.73309 23.3742 8.18727 23.3107 6.66406 22.7518C7.03217 22.1295 7.22257 22.5232 7.41297 21.8881C6.86715 21.4817 6.47366 21.5579 5.75013 21.6722C6.01669 21.0118 6.47366 21.1388 6.84177 20.6815C7.01948 20.4529 6.86715 20.6434 6.99409 20.4021C7.01948 20.364 7.03217 20.3259 7.05756 20.2878C7.38759 19.6781 9.4947 19.729 10.2309 18.9669C10.2436 18.9542 10.269 18.9161 10.2817 18.9034L10.3579 18.7764C10.7006 18.3318 11.1956 18.4207 11.6399 18.0524C11.4241 17.3792 10.8529 17.4935 10.434 17.0617C10.9037 16.7569 11.4749 16.6299 11.8811 16.3885C12.6554 15.9059 13.4551 14.8644 14.0009 14.1277C14.242 13.8102 14.5467 13.48 14.5086 13.0862L14.4578 12.8449C15.5622 12.3623 15.8541 13.0608 16.9458 13.4292C18.012 13.7848 17.9231 14.5215 19.3194 13.7594C19.3321 13.7213 19.3321 13.6324 19.3448 13.6451L19.421 12.5528C19.5352 12.1718 19.5225 12.9719 19.5479 12.1337C18.4055 11.6256 18.8498 12.1718 18.469 11.2954C18.0882 10.3936 17.8089 10.927 17.6058 10.0634C18.1262 9.3521 19.3702 9.49182 20.1699 9.19969C21.9597 8.55193 21.1346 8.1709 21.2869 7.45963C21.3123 7.42153 21.3504 7.34532 21.3631 7.37072L22.2262 6.90078C22.5816 6.74837 22.9244 6.58325 23.1655 6.41814C23.0767 5.59256 22.9371 5.89739 22.6959 5.18612C24.0033 5.42745 24.2191 6.0625 25.5265 5.52906C26.707 5.04641 27.6844 5.22423 28.4714 4.85589C28.4206 3.95411 28.4587 4.55107 28.0525 4.00492C28.4841 3.99222 31.6828 3.8525 31.7082 3.8398L33.1045 3.19204C33.6757 2.87451 33.7392 2.7475 34.4246 2.51888L35.9605 4.03032C36.7221 4.28434 38.1692 3.97951 38.55 3.35716C38.3596 2.7221 38.0042 2.59509 37.2933 2.49348C37.4837 2.15055 37.5472 2.18865 37.5472 1.83302L36.9506 1.35037C37.4964 1.32497 40.0732 1.6425 40.5302 2.18865C40.3525 3.00153 40.2001 2.51888 39.832 3.20474C39.8955 4.00492 40.6444 4.80509 41.533 4.33515C42.1803 4.00492 42.5103 3.03963 43.6147 3.30635C44.8459 4.34785 43.3354 4.66538 45.671 5.66877C45.6964 6.38003 45.4552 6.59595 45.4806 6.84998C46.3057 7.51044 46.9911 6.48164 47.9431 7.81526C48.3493 7.53584 48.2097 7.51044 48.654 7.21831C48.984 7.00239 49.0475 7.05319 49.4283 6.76107C49.314 5.46555 48.7428 6.55785 48.9459 4.46216C49.0982 4.894 49.7456 6.49434 50.0122 6.72297C50.6976 7.34532 52.6143 6.72297 52.9824 7.51044L53.4775 8.36141C53.8075 8.94567 53.6298 9.2632 53.7948 9.77124C54.8992 10.1269 54.9626 9.64423 56.2447 9.84745C56.9174 9.3013 57.806 7.76446 59.3926 10.0507C59.8369 10.6857 59.3926 10.5333 59.3672 11.3843C59.9131 11.651 60.2177 11.3462 60.5477 11.8161C60.9793 12.4131 60.3954 12.3877 60.3954 13.0862C61.1316 13.5308 61.8425 13.4165 62.6041 13.3149L62.5914 12.0956C63.6196 12.5782 63.7338 13.2514 64.0638 14.2421C64.3431 15.093 65.2062 15.7662 65.7774 16.1472L65.4855 17.0617C65.8282 17.7095 65.6632 17.049 65.9171 17.646C65.5109 18.5985 65.0793 18.6494 65.6124 19.6527C63.7211 19.7163 64.0511 20.1354 63.975 22.8153C66.6914 23.5901 65.5236 23.9584 66.7168 23.1202C66.996 22.9169 67.0849 22.9677 67.3641 22.7899L67.5291 21.2785C67.8338 22.5613 67.9607 22.3327 67.4403 23.2599C66.6533 24.6443 67.6941 23.7552 66.2344 24.6824C64.4192 25.8509 66.5517 26.8162 67.3133 27.4513C67.161 27.9212 67.1991 27.6164 66.831 28.0101C67.4149 28.9754 67.7957 28.9754 68.8366 29.1786C69.1539 30.2963 69.3951 30.2201 69.2174 31.2616C69.065 32.1888 69.2301 31.6934 68.8112 32.3666C68.3161 33.1541 68.7096 33.6748 67.4657 33.7637C66.7421 33.8145 67.161 33.5478 66.5517 33.6113C66.2471 34.1448 66.2979 34.1702 66.3867 34.8433C66.7041 35.072 66.9072 35.1609 67.0341 35.4657C67.0468 35.5038 67.0595 35.5419 67.0722 35.58C67.1864 35.8975 66.8564 35.5165 67.2118 36.0245C67.7576 36.6215 68.24 36.3548 69.1539 36.2532C68.6335 37.2947 67.6307 37.1422 68.2019 38.5521C68.5192 38.6283 68.7985 38.6664 69.192 38.5775C71.2102 38.1202 70.0805 38.7299 71.6545 37.3074C71.1087 39.3522 69.0777 38.768 69.4078 41.5495C68.6462 41.3336 68.8239 41.3336 67.8972 41.3717C66.8564 41.4098 66.5644 40.6351 66.4248 41.4987C66.3233 42.1084 66.0694 41.8798 65.8536 42.591C65.879 42.6164 65.9298 42.6164 65.9425 42.6672C65.9678 42.7562 66.4502 43.1118 66.6025 43.5182C66.6152 43.5436 66.6279 43.5944 66.6406 43.6198C67.3387 43.6579 67.8211 43.4547 68.3796 43.2896C68.075 44.0644 67.2499 44.4581 66.6152 45.0424C65.1174 46.4522 64.6096 44.5089 62.4644 46.1347C62.0456 46.4522 61.8932 46.4776 61.5632 46.9856C61.1063 47.6715 61.4744 47.5064 60.6874 47.862C60.2431 48.0525 59.7354 48.1796 59.2149 48.3066C58.466 51.8121 55.6608 52.5742 52.5001 52.0534C52.3224 52.4979 52.8809 52.4217 52.1193 53.006L49.6695 53.1584L49.2379 53.7935Z" fill="black"/>
<path fill-rule="evenodd" clip-rule="evenodd" d="M44.0463 43.315C43.7543 42.9086 43.767 43.0991 43.31 42.934C46.9784 41.829 43.8432 41.9433 45.963 41.5241L46.0899 40.6859C46.5976 40.6097 47.0419 40.4572 47.3719 40.254C47.4227 39.746 47.3592 39.5936 47.2577 39.2379C47.0165 38.4124 47.3466 38.9331 46.8007 38.5267C45.2394 37.3963 47.2704 38.0948 46.0899 37.193C46.6103 36.9263 46.4326 37.2439 46.6103 36.7485C46.1788 36.2786 46.2549 36.3421 45.5568 36.4056C46.1914 35.961 45.8487 36.2278 46.0772 35.5673C46.3438 34.8306 46.2676 35.3387 46.5976 34.7163L46.001 34.4496C46.5215 34.1575 46.3692 34.4623 46.6484 33.9797C46.2676 33.7129 46.1026 34.1575 45.6329 33.7002C46.8769 33.6621 47.1435 33.8653 48.2351 34.0559L48.1209 35.1482C47.7147 35.2752 48.3239 34.9195 47.867 35.1482C47.9558 36.4437 48.1082 40.1143 47.6893 40.8383L45.1125 44.674C44.7825 44.4327 44.8206 44.3692 44.6048 43.9374C44.3001 43.3404 44.224 43.4039 44.0463 43.315ZM39.8832 33.751C40.6575 33.5097 41.838 33.624 42.7392 33.6748C42.0792 34.3098 41.2541 34.3606 40.4798 35.2243L38.8296 37.2819C38.9439 36.3928 39.0708 36.6087 39.4897 36.2023L39.8832 33.751ZM26.3647 39.8856V40.0126C27.4309 39.5173 28.8145 37.9805 30.6297 36.9009C33.5619 35.1608 35.6309 34.1955 39.3881 33.7383C39.2612 34.1955 39.0708 35.0465 38.9058 35.5545C38.8423 35.7578 37.4334 37.4978 37.446 41.0668C36.0371 41.143 35.2755 41.3844 34.6154 42.2862C34.1331 41.3209 31.2897 39.9364 32.0133 38.8568C32.2037 38.5647 32.2671 38.6917 32.3433 38.6536C32.191 38.4377 31.6198 37.2819 30.8328 36.9136C31.0866 37.4724 31.5309 37.828 31.8609 38.3615C31.3913 40.508 32.0006 39.8094 32.8383 41.1684C31.4801 41.0033 29.7919 40.2032 28.4972 40.2921C28.713 40.635 28.8907 40.5715 29.1953 40.9652C28.5353 40.9779 27.5325 41.0795 26.974 41.4479L26.4662 41.8543C26.8724 43.0482 27.5452 42.5656 27.1136 44.0516L27.8752 44.5978C27.8879 45.3979 27.926 45.3979 27.6721 46.0838C27.7102 46.1092 27.761 46.1219 27.7863 46.1346C29.3857 46.9348 26.2377 46.9094 29.8046 46.8332L29.9061 47.1761L31.7721 47.2269C31.0739 48.4716 31.4294 50.2371 31.3405 51.5961C29.995 51.4564 28.256 50.3387 27.7229 49.729C27.0882 49.0051 27.6721 45.6901 27.2786 44.5597L27.0247 44.5724C27.2278 45.436 26.9867 46.757 26.9359 47.7858L26.3012 47.4174C26.3139 45.7917 26.6439 46.884 26.8597 45.652C26.4789 45.9314 26.0346 46.1727 26.0093 46.9602C25.9712 48.0398 26.1997 47.6079 26.8978 48.2303C26.974 50.5927 26.8343 49.4496 27.5198 50.3895C27.9006 50.9229 27.6213 50.9483 27.4944 51.5707C27.2786 52.5995 27.5325 51.685 27.7736 52.6503L27.139 53.5013C26.5424 53.4632 26.4028 53.3108 25.9077 53.1075L26.4154 51.8755C25.4507 52.6249 24.9938 55.0635 25.565 55.9526C26.6312 55.9272 26.5551 54.5682 26.9993 53.8061C28.3956 53.8188 27.2913 54.8857 27.6721 55.7875C27.7102 55.8891 28.2814 56.4734 28.421 56.6258C29.0176 57.3624 28.6495 57.0576 28.8272 57.8705L30.0839 58.3658L29.8554 58.6198L29.8046 58.7088L30.5531 58.2897L30.477 58.7723C30.9466 58.404 30.515 58.6707 30.7816 58.0865C30.9085 57.7816 30.9339 57.8705 31.1624 57.6038C31.6955 57.6927 31.4671 57.5657 31.594 58.0484C31.6701 57.5657 31.6705 57.4259 31.9498 57.0322L32.5337 56.4225C32.5972 56.2701 32.686 56.0542 32.7622 55.9526C33.143 55.3556 32.851 55.7621 33.1557 55.5843C33.181 55.5589 33.2064 55.5208 33.2191 55.5081L34.1711 54.6317C33.9046 54.746 33.016 55.3048 32.8637 55.4573C32.5591 55.7367 32.4194 56.1177 31.9879 56.5242C31.5563 55.6986 31.4417 54.0221 31.6828 53.0949C31.8352 52.5106 31.4797 50.4531 31.5178 49.4624C31.6194 46.7189 32.1271 47.5064 33.6757 45.4869C34.0057 45.0551 34.0311 44.7121 34.3992 44.3565L34.4119 45.8171C34.5262 46.1982 34.0946 45.4361 34.4754 45.8933C34.4754 45.8933 34.5262 45.9314 34.5262 45.9187C34.5262 45.8933 34.5643 45.9314 34.5896 45.9441C34.6531 47.5191 34.4246 47.8493 35.1989 47.7858C34.9451 46.9094 35.2116 45.7409 35.1735 44.7756C35.1482 43.5817 35.0339 43.188 34.8308 42.0957C37.268 40.9018 35.9225 41.9179 37.8772 40.9907L38.0042 42.6672L38.2834 43.0991C38.6642 43.6198 38.5881 43.3277 38.7658 43.9755L39.2227 43.8103L39.2354 42.7308C39.2481 42.7308 39.2862 42.7181 39.2989 42.7181L40.4286 42.9848C41.0887 43.3023 40.6825 43.1753 41.1648 43.2007C41.5076 43.2134 41.7995 43.2388 42.1549 43.2515C42.8531 43.2896 43.5512 43.1499 44.0463 43.315C44.554 44.6232 45.3537 45.9441 45.8487 47.4937C46.3057 48.967 46.5726 50.7197 46.8773 52.3074C47.0423 52.2058 46.9788 52.2185 47.1058 52.066L47.3977 51.7358C47.6516 52.6884 47.7277 52.4217 47.9435 52.5614L47.3596 51.304C48.1466 52.0788 47.1819 51.5453 48.3751 52.066L47.9054 52.8916C47.8801 52.8789 47.8547 52.8535 47.842 52.8535L47.715 52.8027C47.3215 52.6884 47.9562 52.6376 47.5373 52.8027C47.3215 52.9932 46.9154 54.3904 46.5853 54.8603C46.5472 54.8857 46.5092 54.9111 46.4838 54.9238C46.4584 54.9365 46.4203 54.9746 46.3949 54.9873L46.6742 55.127C46.5092 56.3971 46.3442 56.0415 46.2299 56.1685C46.0014 56.7909 46.0649 56.4479 45.976 56.4988C45.976 56.4988 45.8999 56.4733 45.8745 56.4479C45.6587 56.829 44.4655 58.6452 44.6052 58.9247C44.7067 59.1406 44.8336 58.8485 44.6559 59.1279L44.3513 59.3692C43.6404 60.2075 44.7321 60.6901 40.4036 61.3252C40.3655 61.4395 41.6857 61.3506 38.8296 62.1762C37.6872 62.5064 37.1414 62.1381 36.4687 61.5411C35.7451 60.8933 33.4599 59.039 32.7364 58.7977C33.4472 59.7122 32.8506 59.3439 33.6884 60.5378C34.0057 60.9696 34.4881 61.592 35.0212 62.227L37.7376 63.2558C37.7376 63.2558 37.8899 63.2812 38.6896 63.3955C39.4893 63.5099 39.045 63.8401 40.3144 63.5099C41.5837 63.1923 41.4949 63.459 42.5103 62.9764C43.5131 62.5065 45.3791 61.4142 45.8487 60.6648C46.3311 59.9281 47.1435 57.6546 47.1435 57.6546C47.2577 57.3498 47.3719 57.0196 47.4989 56.6893C47.6639 56.2829 47.8416 56.0543 47.9558 55.6859C48.0955 55.2795 47.9431 54.0602 49.1109 52.9552C49.2506 53.0695 49.314 52.9679 49.3394 52.9679H49.3521L49.6695 53.1584C50.1899 52.6504 50.2537 52.9297 50.5584 52.4217C50.8249 51.9771 50.6726 51.9771 50.7615 51.5199C50.8884 50.8213 50.7742 51.558 51.1042 50.7578C51.4469 49.945 51.2311 49.3988 51.1931 48.967C51.1042 47.9382 51.7135 48.1922 51.4342 47.5444C51.32 47.1761 51.0661 46.5283 51.1931 46.2235C52.107 46.3124 51.3073 46.16 51.8531 47.4809C52.3608 48.7256 54.0618 48.3192 53.059 45.9568C52.7036 45.1312 52.5639 44.4708 52.0435 44.204L52.4497 45.3344C52.0308 45.8425 51.7516 46.0584 50.7488 45.9314C50.6218 45.7282 50.7742 45.6139 50.6092 45.3344C50.4061 44.9915 50.3934 45.1693 50.0379 44.928C50.1522 44.5089 50.0379 44.8264 50.2791 44.4454C50.6472 43.8992 50.0633 44.2802 50.8503 43.4674C50.7996 42.845 50.4568 42.7561 50.7488 42.1464L50.3553 42.0321C50.0253 40.1016 50.6599 39.6062 50.6092 39.022C50.4314 37.2819 50.2283 36.0499 51.2819 34.0177L51.2692 33.9161L50.9773 34.3225C49.2256 33.5605 46.6611 33.4208 44.4905 33.1922C44.4778 33.1795 44.4909 33.154 44.4909 33.154C44.4909 33.1413 44.4909 33.1032 44.5036 33.1032C44.5036 33.0778 44.5163 33.0016 44.5163 32.9889L44.5036 32.6968C43.7293 33.4334 43.12 33.3445 41.8634 33.3318C38.5504 33.2683 37.0652 33.751 33.968 34.8306C32.8002 35.2243 30.8074 36.4055 29.9188 37.0533L26.3647 39.8856Z" fill="black"/>
<path fill-rule="evenodd" clip-rule="evenodd" d="M36.4045 32.9636C35.7699 34.9958 31.7714 34.7672 32.7361 32.1507C33.0788 31.2362 33.8404 30.8298 34.9956 30.9568C36.0491 31.0711 36.7599 31.7824 36.4045 32.9636ZM26.3647 39.8856L29.9188 37.0533C30.8074 36.4055 32.8002 35.2243 33.968 34.8306C37.0652 33.751 38.5504 33.2683 41.8634 33.3318C43.12 33.3445 43.7293 33.4334 44.5036 32.6968L44.5163 32.9889C44.5163 33.0016 44.5036 33.0778 44.5036 33.1032C44.4909 33.1032 44.4909 33.1413 44.4909 33.154C44.4909 33.154 44.4778 33.1795 44.4905 33.1922C46.6611 33.4208 49.2256 33.5605 50.9773 34.3225L51.2692 33.9161C51.3073 33.3826 51.7128 32.7858 52.0429 32.4175L51.2939 31.9729C51.0274 31.8967 50.7735 31.8205 50.5069 31.7443C49.9865 31.6046 49.5169 31.4395 48.933 31.2743C44.0714 29.42 36.6076 29.1533 30.8956 32.011C28.5473 33.1795 25.6532 35.0085 24.6885 37.2693L26.3647 39.8856Z" fill="#FF0000"/>
<path fill-rule="evenodd" clip-rule="evenodd" d="M26.3647 40.0126L26.1362 40.5715C25.895 41.5876 25.8569 43.9246 27.2786 44.5597C27.6721 45.6901 27.0882 49.0051 27.7229 49.729C28.256 50.3387 29.995 51.4564 31.3405 51.5961C31.4294 50.2371 31.0739 48.4716 31.7721 47.2269L29.9061 47.1761L29.8046 46.8332C26.2377 46.9094 29.3857 46.9348 27.7863 46.1346C27.761 46.1219 27.7102 46.1092 27.6721 46.0838C27.926 45.3979 27.8879 45.3979 27.8752 44.5978L27.1136 44.0516C27.5452 42.5656 26.8724 43.0482 26.4662 41.8543L26.974 41.4479C27.5325 41.0795 28.5353 40.9779 29.1953 40.9652C28.8907 40.5715 28.713 40.635 28.4972 40.2921C29.7919 40.2032 31.4801 41.0033 32.8383 41.1684C32.0006 39.8094 31.3913 40.508 31.8609 38.3615C31.5309 37.828 31.0866 37.4724 30.8328 36.9136C31.6198 37.2819 32.191 38.4377 32.3433 38.6536C32.2671 38.6917 32.2037 38.5647 32.0133 38.8568C31.2897 39.9364 34.1331 41.3209 34.6154 42.2862C35.2755 41.3844 36.0371 41.143 37.446 41.0668C37.4334 37.4978 38.8423 35.7578 38.9058 35.5545C39.0708 35.0465 39.2612 34.1955 39.3881 33.7383C35.6309 34.1955 33.5619 35.1608 30.6297 36.9009C28.8145 37.9805 27.4309 39.5173 26.3647 40.0126Z" fill="#FCFCFC"/>
<path fill-rule="evenodd" clip-rule="evenodd" d="M50.6976 38.4759C51.5481 39.0347 50.6976 38.8696 52.0939 39.5301L52.0558 41.1304L51.1419 41.6766C51.7512 40.4826 51.7766 41.9687 51.9162 39.8222L51.18 39.3903C50.8626 39.1363 50.7611 38.8569 50.6976 38.4759ZM51.4338 39.0601C51.3831 38.9712 51.0277 39.1998 51.2815 37.7646C51.51 36.558 51.6496 36.9009 52.0558 36.7866C52.0558 37.4979 52.2462 39.022 51.4338 39.0601ZM51.7893 34.9703C52.005 34.2337 52.7794 32.6333 53.6679 32.3793C53.6679 32.3793 53.9218 32.3666 53.9598 33.2557C54.0106 34.1067 53.8329 35.072 53.3759 35.7197C52.792 36.5453 52.8809 37.9678 52.4239 38.8569C52.4366 38.1202 52.6397 37.2693 52.8301 36.5072C53.0459 35.6054 53.0078 35.5038 52.5382 34.2083C52.5255 34.1702 52.5001 34.1321 52.4874 34.094C52.1828 35.1482 52.3478 34.7544 51.7893 34.9703ZM51.2819 34.0177C50.2283 36.0499 50.4314 37.2819 50.6092 39.022C50.6599 39.6062 50.0253 40.1016 50.3553 42.0321L50.7488 42.1464C50.4568 42.7561 50.7996 42.845 50.8503 43.4674C50.0633 44.2802 50.6472 43.8992 50.2791 44.4454C50.0379 44.8264 50.1522 44.5089 50.0379 44.928C50.3934 45.1693 50.4061 44.9915 50.6092 45.3344C50.7742 45.6139 50.6218 45.7282 50.7488 45.9314C51.7516 46.0584 52.0308 45.8425 52.4497 45.3344L52.0435 44.204C52.5639 44.4708 52.7036 45.1312 53.059 45.9568C54.0618 48.3192 52.3608 48.7256 51.8531 47.4809C51.3073 46.16 52.107 46.3124 51.1931 46.2235C51.0661 46.5283 51.32 47.1761 51.4342 47.5444C51.9039 48.0017 51.8777 48.6495 52.8043 48.6749C55.0891 48.7384 54.1498 44.8265 52.5758 44.1025L53.147 42.4894C53.477 40 52.1569 40.2413 53.5659 37.9551C54.4037 36.5961 55.0637 33.0398 53.8198 31.4902C52.7281 31.5537 51.65 33.0397 51.2819 34.0177Z" fill="white"/>
<path fill-rule="evenodd" clip-rule="evenodd" d="M38.6769 51.774C38.1184 52.2947 35.9986 52.1296 35.2243 52.5742C34.9451 52.7266 34.6912 53.3108 34.6404 53.2219C34.6277 53.1838 34.5769 53.2727 34.5135 53.2981L34.9704 52.3455C36.2271 52.1423 37.2933 51.7105 38.6769 51.774ZM40.4286 42.9848L39.2989 42.7181C39.2862 42.7181 39.2481 42.7308 39.2354 42.7308L39.2227 43.8103L38.7658 43.9755C38.5881 43.3277 38.6642 43.6198 38.2834 43.0991L38.0042 42.6672L37.8772 40.9907C35.9225 41.9179 37.268 40.9018 34.8308 42.0957C35.0339 43.188 35.1482 43.5817 35.1735 44.7756C35.2116 45.7409 34.9451 46.9094 35.1989 47.7858C34.4246 47.8493 34.6531 47.5191 34.5896 45.9441C34.5643 45.9314 34.5262 45.8933 34.5262 45.9187C34.5262 45.9314 34.4754 45.8933 34.4754 45.8933C34.0946 45.4361 34.5262 46.1982 34.4119 45.8171L34.3992 44.3565C34.0311 44.7121 34.0057 45.0551 33.6757 45.4869C32.1271 47.5064 31.6194 46.7189 31.5178 49.4624C31.4797 50.4531 31.8352 52.5106 31.6828 53.0949C31.4417 54.0221 31.5563 55.6986 31.9879 56.5242C32.4194 56.1177 32.5591 55.7367 32.8637 55.4573C33.016 55.3048 33.9046 54.746 34.1711 54.6317L33.2191 55.5081C33.2064 55.5208 33.181 55.5589 33.1557 55.5843L33.2946 56.6004C33.485 56.6259 33.3454 57.1212 34.0054 55.7368C34.6909 54.3015 35.6175 54.7842 35.6556 53.9967C35.7064 53.26 35.6302 54.5683 35.6048 53.7808C35.5794 52.5869 38.372 53.0441 39.0574 52.6123L41.1268 51.177C41.4187 50.8341 41.1011 50.9611 41.7104 50.8849C41.8754 50.8595 42.3577 50.8976 42.5862 50.8849C40.4283 49.0433 40.2636 50.9992 38.6769 51.774C38.9689 51.4056 40.4537 49.8434 40.9995 49.7926C41.7484 49.7164 42.6624 50.5674 43.2209 50.8595C43.5128 51.0119 43.6905 50.9992 44.0079 51.1898C43.6525 51.7613 43.3732 51.4946 42.5481 51.7232C42.802 51.901 43.2082 51.7994 43.4494 51.8248C43.8302 51.8756 43.6017 51.7994 43.7667 51.9264L41.9265 52.4598C42.1676 52.7139 42.2435 52.2693 42.0658 52.8028C42.2562 52.5742 41.9769 52.7647 42.4339 52.5488C42.7893 52.7774 43.4621 53.1076 43.2463 53.73C43.9952 53.5903 44.4902 52.9679 44.9218 52.498C45.2138 52.155 45.0741 52.1931 45.4422 52.1169C44.8837 53.8697 45.3661 53.4252 45.0107 54.1872C44.5283 55.1779 44.1094 55.216 42.8782 55.2414L42.9416 55.3811C45.2518 55.3049 45.1884 55.8511 46.6608 52.9044C46.7116 52.9933 47.0543 52.879 46.737 53.73C46.5339 54.2634 46.5472 54.276 46.5853 54.8603C46.9154 54.3904 47.3215 52.9932 47.5373 52.8027C47.9562 52.6376 47.3215 52.6884 47.715 52.8027L47.842 52.8535C47.8547 52.8535 47.8801 52.8789 47.9054 52.8916L48.3751 52.066C47.1819 51.5453 48.1466 52.0788 47.3596 51.304L47.9435 52.5614C47.7277 52.4217 47.6516 52.6884 47.3977 51.7358L47.1058 52.066C46.9788 52.2185 47.0423 52.2058 46.8773 52.3074C46.5726 50.7197 46.3057 48.967 45.8487 47.4937C45.3537 45.9441 44.554 44.6232 44.0463 43.315C43.5512 43.1499 42.8531 43.2896 42.1549 43.2515C41.7995 43.2388 41.5076 43.2134 41.1648 43.2007C40.6825 43.1753 41.0887 43.3023 40.4286 42.9848ZM35.0847 48.2304L34.3358 48.4463L33.993 51.4692L35.2621 51.3422C35.2367 51.3295 35.1859 51.2406 35.1732 51.266C35.1732 51.266 34.7544 50.9865 34.6147 50.3134C35.6175 48.84 36.1252 49.7164 36.7472 49.818C36.4934 50.0975 36.7472 49.9196 36.341 50.0848C34.9194 50.669 35.3386 50.4531 35.3766 51.52L33.6757 51.774C33.6249 52.3455 33.6503 52.8409 33.5615 53.3743C33.5234 53.6537 33.3708 54.5556 33.3073 54.7588L33.6122 50.3133C34.0438 50.0847 33.2568 50.3133 33.7011 50.326C33.8788 50.326 33.5996 50.415 33.8661 50.326L34.1454 48.2812C35.1608 47.8493 34.907 47.9763 35.0847 48.2304ZM36.7602 49.5894C36.7602 49.5894 36.8491 49.3608 36.8491 49.3481C36.8618 49.3227 36.9379 49.2083 36.9633 49.1702L36.3413 49.0432L37.2296 48.6241L36.7602 49.5894ZM38.4608 47.1762C38.7655 46.6808 39.2354 46.3252 39.5401 45.7917C39.3243 45.3726 39.6797 45.6774 39.1974 45.6647C39.1212 46.1601 37.9788 47.735 37.6868 48.1033L36.4048 47.8874L37.2045 48.2685C36.9887 48.2939 38.4735 48.1415 38.4608 47.1762ZM37.4964 50.4658C37.8011 50.3006 38.8673 49.9577 39.2989 49.8434C39.1085 50.1355 39.3116 49.9196 39.0577 50.1355L38.4231 50.5039C38.4231 51.3167 38.9689 51.3675 38.0803 51.4564L38.055 50.6182L37.4964 50.4658ZM42.98 48.1033C42.4342 48.8273 41.8122 49.3481 40.8348 49.4624C41.0506 49.0559 40.9618 49.2464 41.3045 48.8781C41.5583 48.6114 41.571 48.6495 41.698 48.3193C40.0732 48.7638 40.5429 48.205 39.8828 49.0686C39.502 49.5513 39.794 49.31 39.4512 49.4243C40.2001 47.989 40.3779 47.6969 42.4342 47.5826C42.4596 48.205 41.9265 48.713 41.6345 48.9924C42.1676 48.6622 42.7261 48.2812 43.1704 47.8747C42.9038 47.011 42.523 46.3506 41.863 45.8679C41.0125 46.0077 40.784 46.4141 39.794 46.5411C39.8193 46.5157 39.8574 46.4776 39.8828 46.4649L41.0379 45.8425C41.571 45.5758 41.9645 45.4615 42.3707 45.8679C42.9419 46.4522 43.31 47.5064 43.437 48.3828C43.2466 48.1033 43.3862 48.2177 42.98 48.1033ZM37.4964 48.4971L38.0039 48.4971C37.7754 48.8654 37.8008 48.7638 37.4834 48.9543C37.8642 48.9162 38.5751 48.5987 38.7528 48.6876C39.2732 48.9798 38.6893 49.31 38.3974 49.3989C39.5652 49.0814 38.6385 49.1957 39.032 49.5005C39.0193 49.5259 38.9686 49.5259 38.9686 49.5259L39.0701 49.8053C38.6385 49.945 37.9912 50.4404 37.2803 49.9704L36.7602 49.5894L37.4964 48.4971Z" fill="#FCFCFC"/>
<path fill-rule="evenodd" clip-rule="evenodd" d="M24.9553 45.1948C24.2572 44.7121 24.0033 43.442 23.9779 42.4894C24.7014 42.2989 24.8538 42.4894 25.1457 43.0864C25.1076 43.061 25.0569 43.0356 25.0188 43.0229L24.3206 42.7435C24.4476 43.8866 24.8284 44.2168 24.9553 45.1948ZM29.8554 58.6198L30.0839 58.3658L28.8272 57.8705C28.6495 57.0576 29.0176 57.3624 28.421 56.6258C28.2814 56.4734 27.7102 55.8891 27.6721 55.7875C27.2913 54.8857 28.3956 53.8188 26.9993 53.8061C26.5551 54.5682 26.6312 55.9272 25.565 55.9526C24.9938 55.0635 25.4507 52.6249 26.4154 51.8755L25.9077 53.1075C26.4028 53.3108 26.5424 53.4632 27.139 53.5013L27.7736 52.6503C27.5325 51.685 27.2786 52.5995 27.4944 51.5707C27.6213 50.9483 27.9006 50.9229 27.5198 50.3895C26.8343 49.4496 26.974 50.5927 26.8978 48.2303C26.1997 47.6079 25.9712 48.0398 26.0093 46.9602C26.0346 46.1727 26.4789 45.9314 26.8597 45.652C26.6439 46.884 26.3139 45.7917 26.3012 47.4174L26.9359 47.7858C26.9867 46.757 27.2278 45.436 27.0247 44.5724C26.2885 44.6613 26.0854 44.674 25.8823 44.4454C24.9303 43.4039 25.3999 43.188 25.3111 42.0957L23.9529 41.9305C22.8358 42.0957 24.4098 45.3218 24.7145 46.033C24.9176 46.503 25.2349 46.8713 25.3618 47.1634C25.4507 47.3666 25.438 47.3793 25.438 47.5445L25.3745 48.3954C25.3364 49.0051 24.4733 51.2151 25.5649 52.155C25.5776 52.1677 25.6157 52.2058 25.6157 52.1931C25.6157 52.1677 25.6538 52.2058 25.6665 52.2185C23.6736 55.7113 26.1234 59.1279 27.3039 54.2126L27.3547 54.4412C27.3547 54.4793 27.3674 54.5174 27.3674 54.5555C27.4309 55.3049 27.3801 54.238 27.3674 54.7968C27.342 56.1558 27.2405 55.6732 27.7863 56.2447C28.7002 57.1846 28.5225 57.4641 28.6494 57.9848C29.1953 58.1626 29.5253 58.3277 29.8554 58.6198Z" fill="#F2F2F2"/>
<path fill-rule="evenodd" clip-rule="evenodd" d="M17.1993 19.8306C17.377 19.5258 17.377 19.5639 17.5294 19.221C16.7424 19.005 15.9173 18.7764 15.638 18.0906C15.8919 17.9254 16.2092 17.7984 16.4885 17.6333C17.6182 16.9856 20.1315 15.5249 21.312 15.4106C21.9848 15.3471 21.9974 15.3344 22.5306 15.2201C23.1652 15.0931 23.3049 15.2328 23.9395 15.2201C25.0058 14.8899 26.7194 11.7273 27.2906 11.016C28.725 10.9271 28.4838 10.6985 28.8265 11.7019L30.8321 11.5368C30.8194 11.5368 30.299 11.7527 30.2482 12.3877C30.8702 13.1117 32.0507 12.6164 33.5612 12.6037C36.2141 12.6037 34.564 12.2226 37.3438 12.4258C39.0574 12.5655 39.8444 12.0956 41.1392 12.0067C42.0531 14.0516 41.5581 15.3852 44.4014 15.0804C44.3633 14.4961 44.3252 14.585 44.211 14.1151C44.0206 13.4419 44.084 13.4546 44.1983 13.2133C45.3534 13.0228 47.8413 13.2768 48.6918 13.7341C48.7552 14.1532 47.6255 16.7061 49.6945 17.6333C49.4661 17.0491 48.9837 16.3886 48.8822 15.7281C48.7045 14.585 49.3899 14.6231 49.0472 13.3657C47.8794 12.7053 45.1122 12.375 43.6144 12.9974L43.919 14.6485C41.8881 14.6231 42.2308 13.2006 41.5834 11.3716C41.4692 11.016 41.5707 11.2319 41.4311 11.016C40.7203 11.2827 40.568 12.2099 36.2776 11.8797C35.5033 11.8162 35.6683 11.8416 35.059 12.0194C34.9448 12.0448 30.9971 12.4131 30.7559 12.2734C30.7559 12.248 32.1014 10.9525 30.9717 11.0287L29.9943 11.3081C28.7504 11.5368 29.4104 11.1049 28.8646 10.6858C28.5473 10.4445 27.7603 10.4826 27.3287 10.5842C26.7321 10.7112 26.8083 11.0033 26.4782 11.5876L25.0312 13.7976C22.7464 16.2362 24.2315 12.8831 17.3136 16.7061C15.9681 17.4555 15.1938 17.6206 15.2445 18.2049C15.3461 19.1702 16.5647 18.9796 17.1359 19.7417C17.1486 19.7544 17.1739 19.8052 17.1993 19.8306Z" fill="white"/>
<path fill-rule="evenodd" clip-rule="evenodd" d="M36.0621 53.5775C36.5698 52.8028 36.7348 52.9806 37.8519 53.0187C37.3949 53.387 36.7729 53.4632 36.0621 53.5775ZM37.433 53.5521C37.8899 53.0949 37.9788 53.133 38.6515 52.9552C38.7023 52.9425 40.9871 51.7359 42.2819 52.028L37.433 53.5521ZM41.1268 51.177C41.4568 51.1262 41.6599 51.0627 42.028 51.1008L42.523 51.2659C42.5484 51.2278 42.5865 51.3167 42.6119 51.3421C41.9899 52.0661 42.1803 51.5708 41.2918 51.647C40.8475 51.6851 40.7587 51.9264 40.2763 52.0661C40.7713 51.5581 40.7587 51.8629 41.1268 51.177ZM38.6769 51.774C40.2636 50.9992 40.4283 49.0433 42.5862 50.8849C42.3577 50.8976 41.8754 50.8595 41.7104 50.8849C41.1011 50.9611 41.4187 50.8341 41.1268 51.177L39.0574 52.6123C38.372 53.0441 35.5794 52.5869 35.6048 53.7808C35.6302 54.5683 35.7064 53.26 35.6556 53.9967C35.6175 54.7842 34.6909 54.3015 34.0054 55.7368C33.3454 57.1212 33.485 56.6259 33.2946 56.6004L33.1557 55.5843C33.1557 56.702 33.2949 56.7782 32.9395 57.426L32.6983 57.9213C33.5361 57.3879 33.79 56.5877 34.3104 55.7367C34.6531 55.9146 34.615 55.9654 35.0593 56.2448C35.3259 56.4226 35.4782 56.4988 35.9351 56.6766L35.8844 57.0831C37.8265 56.8925 39.007 55.7367 40.4032 55.4319C40.5556 55.7113 40.4413 55.3684 40.4286 55.5843L40.4159 55.6351C40.4159 55.6351 40.4032 55.6478 40.4032 55.6605C41.406 55.5589 41.5453 55.1779 42.8782 55.2414C44.1094 55.216 44.5283 55.1779 45.0107 54.1872C45.3661 53.4252 44.8837 53.8697 45.4422 52.1169C45.0741 52.1931 45.2138 52.155 44.9218 52.498C44.4902 52.9679 43.9952 53.5903 43.2463 53.73C43.0178 53.9967 43.4116 53.7173 42.9419 54.0094C42.7769 54.111 42.7388 54.111 42.5484 54.1491C42.2565 54.2126 42.0153 54.2126 41.7107 54.2888C39.502 54.5047 37.2172 56.2067 36.3921 56.1051C35.7701 56.0289 34.9831 55.6986 34.3612 55.6224C34.9831 54.5428 39.7178 52.9806 40.4286 52.9933L41.9265 52.4598L43.7667 51.9264C43.6017 51.7994 43.8302 51.8756 43.4494 51.8248C43.2082 51.7994 42.802 51.901 42.5481 51.7232C43.3732 51.4946 43.6525 51.7613 44.0079 51.1898C43.6905 50.9992 43.5128 51.0119 43.2209 50.8595C42.6624 50.5674 41.7484 49.7164 40.9995 49.7926C40.4537 49.8434 38.9689 51.4056 38.6769 51.774Z" fill="black"/>
<path fill-rule="evenodd" clip-rule="evenodd" d="M47.4227 38.8442C47.2831 38.1837 47.1688 38.0821 46.9277 37.4852C46.9404 37.4471 46.9911 37.4217 47.0165 37.409C47.0419 37.3963 47.0927 37.3582 47.1054 37.3455C47.1308 37.3328 47.1815 37.2947 47.1942 37.2947C47.6004 37.0406 47.1181 37.3201 47.3592 37.2311C47.8797 37.7265 47.4227 37.5233 47.9305 38.5013L47.4227 38.8442ZM44.0463 43.315C44.224 43.4039 44.3001 43.3404 44.6048 43.9374C44.8206 44.3692 44.7825 44.4327 45.1125 44.674L47.6893 40.8383C48.1082 40.1143 47.9558 36.4437 47.867 35.1482C48.3239 34.9195 47.7147 35.2752 48.1209 35.1482L48.2351 34.0559C47.1435 33.8653 46.8769 33.6621 45.6329 33.7002C46.1026 34.1575 46.2676 33.7129 46.6484 33.9797C46.3692 34.4623 46.5215 34.1575 46.001 34.4496L46.5976 34.7163C46.2676 35.3387 46.3438 34.8306 46.0772 35.5673C45.8487 36.2278 46.1914 35.961 45.5568 36.4056C46.2549 36.3421 46.1788 36.2786 46.6103 36.7485C46.4326 37.2439 46.6103 36.9263 46.0899 37.193C47.2704 38.0948 45.2394 37.3963 46.8007 38.5267C47.3466 38.9331 47.0165 38.4124 47.2577 39.2379C47.3592 39.5936 47.4227 39.746 47.3719 40.254C47.0419 40.4572 46.5976 40.6097 46.0899 40.6859L45.963 41.5241C43.8432 41.9433 46.9784 41.829 43.31 42.934C43.767 43.0991 43.7543 42.9086 44.0463 43.315Z" fill="#F7F7F7"/>
<path fill-rule="evenodd" clip-rule="evenodd" d="M33.8788 31.4775C31.9875 32.2523 32.8633 34.8052 35.1989 33.8653C36.9125 33.1795 36.2144 30.5249 33.8788 31.4775Z" fill="black"/>
<path fill-rule="evenodd" clip-rule="evenodd" d="M11.7161 23.6155C12.503 23.8949 18.012 24.5173 18.5959 24.2125C18.2913 23.6409 16.3745 23.6409 15.778 23.5901C14.6863 23.4758 13.6708 23.4123 12.5792 23.3107C13.4931 22.2311 16.3999 21.7103 16.9965 20.2243C16.0826 20.6942 15.2829 21.3039 14.2547 21.8119C13.5566 22.1676 11.7795 22.8026 11.7161 23.6155Z" fill="white"/>
<path fill-rule="evenodd" clip-rule="evenodd" d="M39.794 46.5411C40.784 46.4141 41.0125 46.0077 41.863 45.8679C42.523 46.3506 42.9038 47.011 43.1704 47.8747C42.7261 48.2812 42.1676 48.6622 41.6345 48.9924C41.9265 48.713 42.4596 48.205 42.4342 47.5826C40.3779 47.6969 40.2001 47.989 39.4512 49.4243C39.794 49.31 39.502 49.5513 39.8828 49.0686C40.5429 48.205 40.0732 48.7638 41.698 48.3193C41.571 48.6495 41.5583 48.6114 41.3045 48.8781C40.9618 49.2464 41.0506 49.0559 40.8348 49.4624C41.8122 49.3481 42.4342 48.8273 42.98 48.1033C43.3862 48.2177 43.2466 48.1033 43.437 48.3828C43.31 47.5064 42.9419 46.4522 42.3707 45.8679C41.9645 45.4615 41.571 45.5758 41.0379 45.8425L39.8828 46.4649C39.8574 46.4776 39.8193 46.5157 39.794 46.5411Z" fill="black"/>
<path fill-rule="evenodd" clip-rule="evenodd" d="M36.7472 49.818C36.1252 49.7164 35.6175 48.84 34.6147 50.3134C34.7544 50.9865 35.1732 51.266 35.1732 51.266C35.1859 51.2406 35.2367 51.3295 35.2621 51.3422L33.993 51.4692L34.3358 48.4463L35.0847 48.2304C34.907 47.9763 35.1608 47.8493 34.1454 48.2812L33.8661 50.326C33.5996 50.415 33.8788 50.326 33.7011 50.326C33.2568 50.3133 34.0438 50.0847 33.6122 50.3133L33.3073 54.7588C33.3708 54.5556 33.5234 53.6537 33.5615 53.3743C33.6503 52.8409 33.6249 52.3455 33.6757 51.774L35.3766 51.52C35.3386 50.4531 34.9194 50.669 36.341 50.0848C36.7472 49.9196 36.4934 50.0975 36.7472 49.818Z" fill="black"/>
<path fill-rule="evenodd" clip-rule="evenodd" d="M53.1094 33.2557C53.6679 32.6079 53.3632 33.2176 53.5283 32.7857C53.7694 33.5478 53.4648 33.878 53.2744 34.602L53.1475 33.9543C53.1475 34.0051 53.1221 34.3861 53.1094 34.4242C53.0078 34.8179 53.0586 34.5766 52.9063 34.8052L52.754 33.6875L53.1094 33.2557ZM51.7893 34.9703C52.3478 34.7544 52.1828 35.1482 52.4874 34.094C52.5001 34.1321 52.5255 34.1702 52.5382 34.2083C53.0078 35.5038 53.0459 35.6054 52.8301 36.5072C52.6397 37.2693 52.4366 38.1202 52.4239 38.8569C52.8809 37.9678 52.792 36.5453 53.3759 35.7197C53.8329 35.072 54.0106 34.1067 53.9598 33.2557C53.9218 32.3666 53.6679 32.3793 53.6679 32.3793C52.7794 32.6333 52.005 34.2337 51.7893 34.9703Z" fill="black"/>
<path fill-rule="evenodd" clip-rule="evenodd" d="M39.8832 33.751L39.4897 36.2023C39.0708 36.6087 38.9439 36.3928 38.8296 37.2819L40.4798 35.2243C41.2541 34.3606 42.0792 34.3098 42.7392 33.6748C41.838 33.624 40.6575 33.5097 39.8832 33.751Z" fill="#F8F8F8"/>
<path fill-rule="evenodd" clip-rule="evenodd" d="M37.4964 48.4971L36.3413 49.0432L36.9633 49.1702C36.9379 49.2083 36.8618 49.3227 36.8491 49.3481C36.8491 49.3608 36.7602 49.5894 36.7602 49.5894L37.2803 49.9704C37.9912 50.4404 38.6385 49.945 39.0701 49.8053L38.9686 49.5259C38.9686 49.5259 39.0193 49.5259 39.032 49.5005C38.6385 49.1957 39.5652 49.0814 38.3974 49.3989C38.6893 49.31 39.2732 48.9798 38.7528 48.6876C38.5751 48.5987 37.8642 48.9162 37.4834 48.9543C37.8008 48.7638 37.7754 48.8654 38.0039 48.4971L37.4964 48.4971Z" fill="black"/>
<path fill-rule="evenodd" clip-rule="evenodd" d="M36.9248 59.3438C38.0672 58.658 37.5595 58.6961 39.4762 57.8451C40.4663 57.4133 42.9161 57.2227 42.9923 57.1719C41.4437 56.2955 37.661 58.0483 36.9248 59.3438Z" fill="black"/>
<path fill-rule="evenodd" clip-rule="evenodd" d="M51.4338 39.0601C52.2462 39.022 52.0558 37.4979 52.0558 36.7866C51.6496 36.9009 51.51 36.558 51.2815 37.7646C51.0277 39.1998 51.3831 38.9712 51.4338 39.0601Z" fill="black"/>
<path fill-rule="evenodd" clip-rule="evenodd" d="M33.8026 58.8231C35.6178 59.8011 35.9224 59.2169 36.9887 58.4294C37.3187 58.1881 37.7122 57.9467 37.8392 57.5657C37.6107 57.7562 37.0395 58.0229 36.6841 58.2643C34.5008 59.7376 35.7955 58.9628 33.2314 58.3278L33.8026 58.8231Z" fill="black"/>
<path fill-rule="evenodd" clip-rule="evenodd" d="M37.433 53.5521L42.2819 52.028C40.9871 51.7359 38.7023 52.9425 38.6515 52.9552C37.9788 53.133 37.8899 53.0949 37.433 53.5521Z" fill="#E7E7E7"/>
<path fill-rule="evenodd" clip-rule="evenodd" d="M24.9553 45.1948C24.8284 44.2168 24.4476 43.8866 24.3206 42.7435L25.0188 43.0229C25.0569 43.0356 25.1076 43.061 25.1457 43.0864C24.8538 42.4894 24.7014 42.2989 23.9779 42.4894C24.0033 43.442 24.2572 44.7121 24.9553 45.1948Z" fill="#0F0F0F"/>
<path fill-rule="evenodd" clip-rule="evenodd" d="M38.6769 51.774C37.2933 51.7105 36.2271 52.1423 34.9704 52.3455L34.5135 53.2981C34.5769 53.2727 34.6277 53.1838 34.6404 53.2219C34.6912 53.3108 34.9451 52.7266 35.2243 52.5742C35.9986 52.1296 38.1184 52.2947 38.6769 51.774Z" fill="black"/>
<path fill-rule="evenodd" clip-rule="evenodd" d="M37.2045 48.2685C38.1057 48.3574 38.2834 47.7604 38.6262 47.2143C38.9308 46.7316 39.2354 46.3252 39.5401 45.7917C39.3243 45.3726 39.6797 45.6774 39.1974 45.6647C39.1212 46.1601 37.9788 47.735 37.6868 48.1033L36.4048 47.8874L37.2045 48.2685Z" fill="black"/>
<path fill-rule="evenodd" clip-rule="evenodd" d="M52.0939 39.5301C50.6976 38.8696 51.5481 39.0347 50.6976 38.4759C50.7611 38.8569 50.8626 39.1363 51.18 39.3903L51.9162 39.8222C51.7766 41.9687 51.7512 40.4826 51.1419 41.6766L52.0558 41.1304L52.0939 39.5301Z" fill="#0F0F0F"/>
<path fill-rule="evenodd" clip-rule="evenodd" d="M52.754 33.6875L52.9063 34.8052C53.0586 34.5766 53.0078 34.8179 53.1094 34.4242C53.1221 34.3861 53.1475 34.0051 53.1475 33.9543L53.2744 34.602C53.4648 33.878 53.7694 33.5478 53.5283 32.7857C53.3632 33.2176 53.6679 32.6079 53.1094 33.2557L52.754 33.6875Z" fill="white"/>
<path fill-rule="evenodd" clip-rule="evenodd" d="M41.1268 51.177C40.7587 51.8629 40.7713 51.5581 40.2763 52.0661C40.7587 51.9264 40.8475 51.6851 41.2918 51.647C42.1803 51.5708 41.9899 52.0661 42.6119 51.3421C42.5865 51.3167 42.5484 51.2278 42.523 51.2659L42.028 51.1008C41.6599 51.0627 41.4568 51.1262 41.1268 51.177Z" fill="#F4F4F4"/>
<path fill-rule="evenodd" clip-rule="evenodd" d="M37.4964 50.4658L38.055 50.6182L38.0803 51.4564C38.9689 51.3675 38.4231 51.3167 38.4231 50.5039L39.0577 50.1355C39.3116 49.9196 39.1085 50.1355 39.2989 49.8434C38.8673 49.9577 37.8011 50.3006 37.4964 50.4658Z" fill="black"/>
<path fill-rule="evenodd" clip-rule="evenodd" d="M46.9277 37.4852C47.1688 38.0821 47.2831 38.1837 47.4227 38.8442L47.9305 38.5013C47.4227 37.5233 47.8797 37.7265 47.3592 37.2311C47.1181 37.3201 47.6004 37.0406 47.1942 37.2947C47.1815 37.2947 47.1308 37.3328 47.1054 37.3455C47.0927 37.3582 47.0419 37.3963 47.0165 37.409C46.9911 37.4217 46.9404 37.4471 46.9277 37.4852Z" fill="black"/>
<path fill-rule="evenodd" clip-rule="evenodd" d="M40.2636 59.4074C40.6571 59.2169 40.3525 59.4328 40.7206 59.0771C40.8983 58.912 40.7713 59.0009 40.9364 58.8485C40.0224 59.1915 40.3905 59.3439 39.2608 59.1279L39.6416 59.5725C39.3497 59.8519 39.2481 59.8392 39.1212 60.1694C40.0732 59.8011 39.4385 59.509 40.6317 59.7503L40.2636 59.4074Z" fill="black"/>
<path fill-rule="evenodd" clip-rule="evenodd" d="M37.8519 53.0187C37.3949 53.387 36.7729 53.4632 36.0621 53.5775C36.5698 52.8028 36.7348 52.9806 37.8519 53.0187Z" fill="#E4E4E4"/>
</g>
</svg>
