<svg width="50" height="42" viewBox="0 0 50 42" fill="none" xmlns="http://www.w3.org/2000/svg">
<g clip-path="url(#clip0_1_1503)">
<path fill-rule="evenodd" clip-rule="evenodd" d="M21.6521 37.2023L22.456 37.9145L25.7903 40.7553C25.7903 40.7553 25.8918 40.7715 26.425 40.8444C26.9581 40.9172 26.6619 41.1276 27.5082 40.9172C28.3544 40.7149 28.2952 40.8848 28.9722 40.5773C29.4123 40.383 30.1062 40.0026 30.6224 39.6384C31.1555 38.3273 31.8326 36.7086 31.9595 36.482C32.1372 36.1501 33.3643 33.366 33.3643 33.366L21.6859 34.6366L21.6521 37.2023Z" fill="white"/>
<path fill-rule="evenodd" clip-rule="evenodd" d="M26.4172 33.4393C26.0448 33.7711 24.6316 33.6659 24.1154 33.9492C23.9292 34.0463 23.7599 34.4186 23.7261 34.3619C23.7176 34.3376 23.6838 34.3943 23.6415 34.4105L23.9461 33.8035C24.7839 33.674 25.4948 33.3988 26.4172 33.4393ZM25.4355 31.2055C26.0364 31.2621 26.1548 30.8817 26.3833 30.5337C26.5864 30.2261 26.7895 29.9671 26.9926 29.6272C26.8488 29.3601 27.0857 29.5544 26.7641 29.5463C26.7134 29.8619 25.9517 30.8655 25.7571 31.1002L24.9024 30.9627L25.4355 31.2055ZM25.4271 31.2055H25.4355C25.4186 31.2055 25.4186 31.2055 25.4271 31.2055ZM25.6302 31.3511L24.8601 31.6992L25.2747 31.7801C25.2578 31.8044 25.207 31.8772 25.1986 31.8934C25.1986 31.9015 25.1393 32.0472 25.1393 32.0472L25.6302 31.3511ZM36.0391 21.6389C36.4115 21.2262 36.2084 21.6146 36.3184 21.3395C36.4792 21.8251 36.2761 22.0355 36.1491 22.4968L36.0645 22.0841C36.0645 22.1164 36.0476 22.3593 36.0391 22.3835C35.9714 22.6344 36.0053 22.4807 35.9037 22.6263L35.8022 21.9141L36.0391 21.6389ZM23.4637 33.2288L23.2945 33.245L23.523 31.3188L24.0223 31.1812C23.9038 31.0193 24.0731 30.9384 23.396 31.2136L23.2099 32.5166C23.0322 32.5733 23.2183 32.5166 23.0999 32.5166C22.8037 32.5085 23.3283 32.3628 23.0406 32.5085L22.8968 34.5076L22.956 33.6335L21.6866 34.6371V34.629L21.6951 34.6209V34.6128V34.6047V34.5966V34.5885V34.5805V34.5724V34.5643V34.5562L21.7035 34.5481V34.54V34.5319V34.5238V34.5157V34.4995L21.712 34.4914V34.4833V34.4752V34.4671V34.459V34.451L21.7205 34.4348V34.4267V34.4186V34.4024L21.7289 34.3943V34.37V34.3619L21.7374 34.3376L21.7458 34.3134C21.7458 34.3053 21.7458 34.2972 21.7543 34.281C21.8559 33.9087 21.6189 32.5975 21.6443 31.9662C21.712 30.218 22.0505 30.7198 23.0829 29.433C23.303 29.1578 23.3199 28.9393 23.5653 28.7127L23.5738 29.6434C23.396 29.4573 23.6415 29.87 23.5738 29.6434C23.5822 29.6596 23.5991 29.6758 23.6161 29.692C23.6161 29.692 23.6499 29.7163 23.6499 29.7082C23.6499 29.692 23.6753 29.7163 23.6922 29.7243C23.7346 30.7279 23.5822 30.9384 24.0984 30.8979C23.9292 30.3395 24.1069 29.5948 24.0815 28.9797C24.0646 28.219 23.9884 27.9681 23.853 27.272C25.4778 26.5112 24.5808 27.1587 25.884 26.5679L25.9687 27.6362L26.1548 27.9114C26.4087 28.2432 26.3579 28.0571 26.4764 28.4699L26.7811 28.3646L26.7895 27.6767C26.798 27.6767 26.8234 27.6686 26.8318 27.6686L27.585 27.8386C28.0251 28.0409 27.7543 27.96 28.0758 27.9761C28.3043 27.9842 28.499 28.0004 28.7359 28.0085C29.2014 28.0328 29.6668 27.9438 29.9968 28.049L27.4835 30.0481L25.8333 31.3511L23.4637 33.2288ZM25.2493 31.8125L24.877 32.1038L23.4637 33.2288L25.2493 31.8125ZM23.2268 33.4231L24.2169 33.2774L23.0829 33.4393C23.0491 33.8035 23.066 34.1191 23.0068 34.459V34.4914L23.2268 33.4231ZM27.9404 29.6839L27.2211 30.0562C27.2042 30.0643 27.1788 30.0886 27.1619 30.1047C27.822 30.0238 27.9743 29.7648 28.5413 29.6758C28.9813 29.9833 29.2352 30.4042 29.4129 30.9546C29.1167 31.2136 28.7444 31.4564 28.389 31.6668C28.5836 31.4887 28.939 31.165 28.9221 30.7684C27.5512 30.8412 27.4327 31.0274 26.9334 31.942C27.1619 31.8691 26.9672 32.0229 27.2211 31.7153C27.6612 31.165 27.3481 31.5211 28.4313 31.2378C28.3466 31.4483 28.3382 31.424 28.1689 31.5939C27.9404 31.8287 27.9997 31.7073 27.8558 31.9662C28.5074 31.8934 28.9221 31.5616 29.286 31.1002C29.5568 31.1731 29.4637 31.1002 29.5906 31.2783C29.506 30.7198 29.2606 30.0481 28.8798 29.6758C28.609 29.4168 28.3466 29.4896 27.9912 29.6596L27.9404 29.6839ZM32.2479 25.2001C32.1548 24.7792 32.0786 24.7145 31.9178 24.3341C31.9263 24.3098 31.9602 24.2936 31.9771 24.2855C31.994 24.2774 32.0279 24.2531 32.0363 24.245C32.0532 24.2369 32.0871 24.2127 32.0956 24.2127C32.3664 24.0508 32.0448 24.2289 32.2056 24.1722C32.5525 24.4878 32.2479 24.3583 32.5864 24.9815L32.2479 25.2001ZM28.0505 33.0589C28.2705 33.0265 28.4059 32.986 28.6513 33.0103L28.9813 33.1155C28.9983 33.0912 29.0236 33.1479 29.0406 33.1641C28.6259 33.6254 28.7528 33.3098 28.1605 33.3583C27.8643 33.3826 27.805 33.5364 27.4835 33.6254C27.8135 33.3017 27.805 33.4959 28.0505 33.0589ZM28.5497 33.8925L28.5836 33.8763L28.5921 33.8844L28.5497 33.8925ZM17.2692 29.2468C16.8037 28.9393 16.6345 28.1299 16.6175 27.5229C17.0999 27.4015 17.2015 27.5229 17.3961 27.9033C17.3707 27.8871 17.3369 27.8709 17.3115 27.8628L16.846 27.6848C16.9307 28.4132 17.1845 28.6236 17.2692 29.2468ZM29.9968 28.049C29.8022 27.79 29.8107 27.9114 29.506 27.8062C31.9517 27.102 29.8614 27.1749 31.2747 26.9078L31.3593 26.3736C31.6978 26.3251 31.994 26.2279 32.214 26.0985C32.2479 25.7747 32.2056 25.6776 32.1379 25.451C31.9771 24.9249 32.1971 25.2567 31.8332 24.9977C30.7923 24.2774 32.1463 24.7226 31.3593 24.1479C31.7063 23.978 31.5878 24.1803 31.7063 23.8646C31.4185 23.5652 31.4693 23.6057 31.0039 23.6461C31.427 23.3628 31.1985 23.5328 31.3508 23.1119C31.5286 22.6425 31.4778 22.9663 31.6978 22.5697L31.3001 22.3997C31.647 22.2136 31.5455 22.4078 31.7317 22.1003C31.4778 21.9303 31.3678 22.2136 31.0547 21.9222C31.884 21.8979 32.0617 22.0274 32.7895 22.1488L32.7133 22.8449C32.4425 22.9258 32.8487 22.6992 32.5441 22.8449C32.6033 23.6704 32.7049 26.0094 32.4256 26.4708L30.7077 28.915C30.4877 28.7612 30.5131 28.7207 30.3692 28.4456C30.1661 28.0652 30.1153 28.1056 29.9968 28.049C30.3353 28.8826 30.8685 29.7243 31.1985 30.7118L31.207 30.7522V30.7603L31.2239 30.7927V30.8008L31.2324 30.8332V30.8412L31.2493 30.8655V30.8817L31.2578 30.906V30.9141L31.2662 30.9384V30.9465L31.2747 30.9788L31.2831 30.9869L31.2916 31.0193V31.0274L31.3001 31.0436V31.0517L31.3085 31.0841L31.317 31.1164V31.1245L31.3339 31.165V31.1731L31.3424 31.2136L31.3593 31.254L31.3678 31.2945V31.3026L31.3762 31.343L31.3847 31.3511L31.3932 31.3835V31.3997L31.4016 31.424V31.4483H31.4101L31.4185 31.4887V31.4968V31.513L31.427 31.5373V31.5454L31.4355 31.5859H31.4439V31.602L31.4524 31.6344V31.6425L31.4609 31.683V31.6911L31.4693 31.7315H31.4778L31.4862 31.7801L31.4947 31.8206V31.8287L31.5032 31.8691V31.8772L31.5116 31.9096L31.5201 31.9258V31.9582L31.5286 31.9743L31.537 31.9986V32.0229L31.5455 32.0472V32.0715L31.5539 32.0877L31.5624 32.12V32.1362L31.5709 32.1686V32.1767L31.5793 32.2171V32.2252L31.5878 32.2657V32.2738L31.5963 32.3143L31.6047 32.3628L31.6132 32.4033L31.6217 32.4195V32.4519L31.6301 32.468L31.6386 32.4923V32.5166L31.647 32.5409V32.5652L31.6555 32.5894V32.6137L31.664 32.6299V32.6623L31.6724 32.6785V32.7108L31.6809 32.7189L31.6894 32.7594V32.7675L31.6978 32.808V32.8161L31.7063 32.8565L31.7147 32.9051L31.7232 32.9456V32.9537L31.7317 32.9941V33.0103L31.7401 33.0346V33.0589L31.7486 33.0832V33.1074L31.7571 33.1317V33.156L31.7655 33.1722L31.774 33.2046V33.2207L31.7824 33.2531V33.2612L31.7909 33.3017V33.3098L31.7994 33.3502L31.8078 33.3988L31.8163 33.4393V33.4474L31.8248 33.4878V33.4959L31.8332 33.5283L29.9968 28.049ZM25.6302 32.6056C25.8333 32.5004 26.5441 32.2819 26.8318 32.2091C26.7049 32.3952 26.8403 32.2576 26.6711 32.3952L26.2479 32.6299C26.2479 33.1479 26.6118 33.1803 26.0194 33.2369L26.0025 32.7028L25.6302 32.6056ZM34.4312 24.9654C34.9982 25.3215 34.4312 25.2163 35.3621 25.6371L35.3367 26.6569L34.7274 27.0049C35.1336 26.2441 35.1505 27.1911 35.2436 25.8233L34.7528 25.5481C34.5412 25.3862 34.4735 25.2082 34.4312 24.9654ZM34.922 25.3377C34.8882 25.281 34.6512 25.4267 34.8205 24.5121C34.9728 23.7432 35.0659 23.9618 35.3367 23.8889C35.3367 24.3422 35.4636 25.3134 34.922 25.3377ZM35.159 22.7316C35.3029 22.2621 35.8191 21.2423 36.4115 21.0805C36.4115 21.0805 36.5807 21.0724 36.6061 21.6389C36.6399 22.1812 36.5215 22.7963 36.2168 23.2091C35.8275 23.7351 35.8868 24.6416 35.5821 25.2082C35.5906 24.7387 35.726 24.1965 35.8529 23.7109C35.9968 23.1362 35.9714 23.0715 35.6583 22.2459C35.6498 22.2217 35.6329 22.1974 35.6244 22.1731C35.4213 22.8449 35.5313 22.594 35.159 22.7316ZM18.9447 31.683L18.9532 31.7073C18.9532 31.6992 18.9447 31.6911 18.9447 31.683ZM21.7289 37.2675L22.4567 37.915C22.9306 38.4977 22.5329 38.263 23.0914 39.0238C23.303 39.299 23.6245 39.6956 23.98 40.1002L25.791 40.7558H25.7994V40.7639H25.8079H25.8163H25.8248H25.8333H25.8417H25.8502H25.8587L25.8671 40.772H25.8756H25.884H25.8925H25.901H25.9094H25.9179H25.9264V40.7801H25.9348H25.9433H25.9517H25.9602H25.9687H25.9771L25.9856 40.7882H26.0025H26.011H26.0279H26.0364H26.0448L26.0533 40.7963H26.0702H26.0787H26.0871H26.0956H26.1041L26.1125 40.8044H26.1295H26.1464L26.1633 40.8125H26.1802H26.1887H26.2056L26.2225 40.8205H26.2395H26.2649L26.2818 40.8286H26.3072H26.3241L26.3495 40.8367H26.3749L26.4003 40.8448H26.4256C26.9588 40.9177 26.6626 41.1281 27.5088 40.9177C28.3551 40.7153 28.2959 40.8853 28.9729 40.5777L28.9898 40.5696H28.9983L29.0152 40.5616L29.0321 40.5535L29.066 40.5373L29.0744 40.5292L29.0998 40.5211L29.1252 40.5049H29.1337L29.1506 40.4968L29.1675 40.4887H29.176L29.1929 40.4725L29.2098 40.4644H29.2183L29.2437 40.4482L29.2691 40.4402L29.2944 40.424L29.3198 40.4159L29.3452 40.3997L29.3621 40.3916L29.3706 40.3835L29.396 40.3754L29.4214 40.3592L29.4468 40.3511L29.4722 40.3349H29.4806L29.4975 40.3188L29.5229 40.3026L29.5568 40.2945V40.2864L29.5822 40.2783V40.2702L29.6076 40.2621L29.6329 40.2459H29.6414L29.6583 40.2297L29.6922 40.2216L29.7176 40.2054C29.8107 40.1488 29.8953 40.1002 29.9884 40.0436H29.9968L30.0222 40.0274L30.0476 40.0112C30.5469 39.7117 31.0208 39.3718 31.1985 39.1047C31.5201 38.6353 32.0617 37.1866 32.0617 37.1866C32.1379 36.9923 32.214 36.7819 32.2987 36.5715C32.4087 36.3125 32.5271 36.1668 32.6033 35.9321C32.6964 35.6731 32.5948 34.8961 33.3734 34.192C33.4665 34.2648 33.5088 34.2001 33.5257 34.2001H33.5342L33.7204 34.3053C33.6527 34.3619 33.5765 34.4429 33.4919 34.54V34.5481C33.4749 34.5966 33.4665 34.6614 33.458 34.7261L33.7458 34.3215L35.379 34.2243C35.8868 33.852 35.5144 33.9006 35.6329 33.6173C37.7401 33.9492 39.6103 33.4635 40.1096 31.2297C40.4566 31.1488 40.7951 31.0679 41.0912 30.9465C41.6159 30.7198 41.3705 30.8251 41.6752 30.388C41.8952 30.0643 41.9967 30.0481 42.276 29.8457C43.7062 28.8098 44.0447 30.0481 45.0433 29.1497C45.4664 28.7774 46.0165 28.5265 46.2196 28.0328C45.8472 28.138 45.5256 28.2675 45.0602 28.2432C45.0517 28.227 45.0433 28.1947 45.0348 28.1785C44.9332 27.9195 44.6117 27.6929 44.5947 27.6362C44.5863 27.6038 44.5524 27.6038 44.5355 27.5877C44.6794 27.1344 44.8486 27.2801 44.9163 26.8916C45.0094 26.3413 45.204 26.835 45.898 26.8107C46.5157 26.7864 46.3973 26.7864 46.905 26.924C46.685 25.1515 48.039 25.5238 48.4029 24.2208C47.3535 25.1272 48.1067 24.7387 46.7612 25.0301C46.4988 25.0868 46.3126 25.0625 46.1011 25.0139C45.7203 24.1155 46.3888 24.2127 46.7358 23.549C46.1265 23.6137 45.8049 23.7837 45.441 23.4033C45.204 23.0796 45.4241 23.3224 45.3479 23.12C45.3395 23.0958 45.331 23.0715 45.3225 23.0472C45.2379 22.853 45.1025 22.7963 44.8909 22.6506C44.8317 22.2217 44.7978 22.2055 45.0009 21.8655C45.4072 21.8251 45.1279 21.995 45.6103 21.9627C46.4396 21.906 46.1772 21.5742 46.5073 21.0724C46.7865 20.6434 46.6765 20.9591 46.7781 20.3682C46.8966 19.7046 46.7358 19.7531 46.5242 19.0409C45.8303 18.9114 45.5764 18.9114 45.1871 18.2963C45.4325 18.0454 45.4072 18.2397 45.5087 17.9402C45.0009 17.5355 43.5792 16.9204 44.7894 16.1758C45.7626 15.585 45.0686 16.1515 45.5933 15.2693C45.9403 14.6785 45.8557 14.8242 45.6526 14.0067L45.5426 14.9699C45.3564 15.0832 45.2971 15.0508 45.111 15.1803C44.3155 15.7145 45.094 15.4798 43.2831 14.9861C43.3338 13.2783 43.1138 13.0112 44.3747 12.9708C44.0193 12.3314 44.307 12.299 44.5778 11.692C44.4086 11.3116 44.5186 11.7325 44.2901 11.3197L44.4847 10.737C44.1039 10.4942 43.5285 10.0652 43.3423 9.52294C43.1223 8.89165 43.0461 8.46269 42.3606 8.15514L42.3691 8.93212C41.8613 8.99687 41.3874 9.06971 40.8966 8.78644C40.8966 8.34129 41.2859 8.35748 40.9982 7.97708C40.7781 7.67762 40.575 7.87187 40.2111 7.7019C40.2281 7.15964 40.5243 7.25676 40.2281 6.85209C39.1702 5.39525 38.5779 6.37457 38.1294 6.72259C37.2746 6.59309 37.2323 6.90065 36.4961 6.67403C36.3861 6.35029 36.5045 6.14795 36.2845 5.77565L35.9545 5.23338C35.7091 4.73159 34.4312 5.12817 33.9742 4.73159C33.7965 4.5859 33.3649 3.56612 33.2634 3.29094C33.128 4.62637 33.5088 3.93033 33.585 4.75587C33.3311 4.94202 33.2888 4.90964 33.0687 5.04723C32.7726 5.23338 32.8656 5.24957 32.5948 5.42763C31.9602 4.57781 31.5032 5.23338 30.9531 4.81252C30.9362 4.65065 31.097 4.51306 31.08 4.05983C29.5229 3.42044 30.53 3.2181 29.7091 2.55443C28.9729 2.38447 28.7528 2.99958 28.3213 3.21001C27.7289 3.50947 27.2296 2.99958 27.1873 2.48968C27.4327 2.05263 27.5342 2.36019 27.6527 1.8422C27.3481 1.49418 25.6302 1.29184 25.2663 1.30803L25.664 1.61559C25.664 1.8422 25.6217 1.81792 25.4948 2.03645C25.9687 2.1012 26.2056 2.18213 26.3326 2.58681C26.0787 2.98339 25.1139 3.17763 24.6062 3.01576L23.5822 2.05263C23.1252 2.19832 23.0829 2.27925 22.7021 2.48159L21.7712 2.89436C21.7543 2.90245 19.6217 2.99148 19.334 2.99958C19.6048 3.3476 19.5794 2.9672 19.6133 3.54184C19.0886 3.77655 18.437 3.66324 17.65 3.9708C16.7783 4.31072 16.6345 3.90605 15.7628 3.75227C15.9236 4.20551 16.0167 4.01126 16.0759 4.53734C15.9151 4.64256 15.6867 4.74777 15.4497 4.8449L14.8743 5.14436C14.8658 5.12817 14.8404 5.17673 14.8235 5.20101C14.7219 5.65425 15.272 5.89705 14.0788 6.30982C13.5456 6.49597 12.7163 6.40694 12.3693 6.86018C12.5047 7.41054 12.6909 7.07061 12.9448 7.64525C13.1987 8.2037 12.9025 7.85568 13.6641 8.17942C13.6472 8.71359 13.6556 8.2037 13.5795 8.44651L13.5287 9.14255C13.5202 9.13446 13.5202 9.19111 13.5118 9.21539C12.5809 9.701 12.6401 9.23158 11.9293 9.00496C11.2015 8.77025 11.0069 8.3251 10.2706 8.63266L10.3045 8.78644C10.3299 9.03733 10.1268 9.24777 9.96597 9.4501C9.60209 9.91953 9.06894 10.5832 8.55273 10.8907C8.28193 11.0445 7.90111 11.1255 7.588 11.3197C7.86726 11.5949 8.24808 11.522 8.39194 11.951C8.09575 12.1857 7.76571 12.1291 7.53722 12.4123L7.48645 12.4933C7.47798 12.5014 7.46106 12.5256 7.4526 12.5337C6.96177 13.0193 5.55698 12.987 5.33696 13.3755C5.32003 13.3997 5.31157 13.424 5.29465 13.4483C5.21002 13.6021 5.31157 13.4807 5.19309 13.6264C4.94768 13.9177 4.64303 13.8368 4.46531 14.2576C4.94768 14.1848 5.21002 14.1362 5.57391 14.3952C5.44697 14.7999 5.32003 14.549 5.07462 14.9456C6.09013 15.3017 6.45401 15.3422 4.2199 16.8719C3.63598 17.2684 3.88986 17.3089 3.4752 17.7379C3.17901 18.0373 2.94206 18.1911 2.7051 18.5067C3.45827 18.531 4.16913 18.4906 4.21144 19.2352C4.25375 19.8745 3.56828 20.0526 3.10284 20.2711C3.00129 21.6956 2.45123 20.6839 2.45969 22.0517C4.40608 22.3835 3.05207 22.6182 4.83767 22.6344C5.91241 22.6425 6.03089 23.719 5.27772 24.1074C4.64303 24.4312 3.65291 24.5607 3.01822 24.8278C2.62048 24.9896 2.29044 25.8314 1.52881 26.2037V28.9716C2.61202 28.6317 2.59509 29.1416 3.17054 28.9716C4.39761 28.6074 7.03793 29.2468 5.72624 30.6713C5.44697 30.9707 5.42158 31.3188 5.24387 31.6749C5.77701 31.7396 6.32708 31.6425 6.86868 31.7073C7.43567 31.7801 7.21564 32.031 7.9942 32.1605C8.94201 32.3143 10.2876 31.9905 10.6853 32.7028L10.7191 33.8925C10.6768 34.4186 10.3468 34.4186 10.2537 34.9204C10.5753 34.8799 10.9561 34.7828 11.193 34.7342C11.3708 34.7019 11.76 34.718 12.0562 34.6776C12.7586 34.5885 13.2579 34.4671 13.9095 34.3296L13.918 34.37L13.9518 34.3457L14.0534 34.451L13.9942 34.5076L14.0788 34.4995C14.248 34.4833 14.4765 34.4833 14.6712 34.5076C14.8235 34.5157 14.9504 34.54 15.0181 34.5724C14.9843 34.9608 14.8319 34.977 14.595 35.0013C14.4257 35.0175 14.2226 35.0337 13.9688 35.1713L13.8757 35.2198H13.9857C14.2988 35.2198 14.4934 35.1551 14.6458 35.0984C14.9504 34.9932 15.1366 34.9285 15.9659 35.495C15.9067 36.7819 16.4652 36.8709 17.1845 36.9923C17.3369 37.0166 17.4976 37.049 17.6584 37.0813C18.2508 37.227 18.2762 37.3161 18.3185 37.4617C18.3439 37.567 18.3778 37.6884 18.5724 37.8745C18.7332 38.0283 18.9194 38.1254 19.114 38.1821C19.3171 38.2387 19.5287 38.2549 19.7487 38.2549C19.8333 38.2468 19.8925 38.2387 19.9264 38.2225C19.9264 38.2468 19.9349 38.2873 19.9603 38.3277L19.9687 38.3439H19.9856C20.3241 38.2792 20.3749 38.1821 20.5103 37.8907L20.5272 37.8745L20.5526 37.834L21.0011 37.5912L20.9504 37.8988C21.2635 37.6641 20.9758 37.834 21.1535 37.4617C21.2381 37.2675 21.255 37.3242 21.4073 37.1542C21.7628 37.2108 21.6104 37.1299 21.6951 37.4375C21.712 37.3727 21.7205 37.3161 21.7289 37.2675Z" fill="white"/>
<path fill-rule="evenodd" clip-rule="evenodd" d="M25.2494 31.8122C25.2325 31.8445 25.2071 31.885 25.1986 31.8931C25.1986 31.9012 25.1394 32.0469 25.1394 32.0469L25.3679 31.7231L25.2494 31.8122ZM25.2494 31.8122C25.2579 31.796 25.2663 31.7879 25.2748 31.7798L24.8601 31.6988L25.6302 31.3508L25.3679 31.7231L25.8333 31.3508L27.4835 30.0478C27.3904 30.0721 27.2804 30.0882 27.1619 30.1044C27.1789 30.0882 27.2043 30.064 27.2212 30.0559L27.9405 29.6836L29.9969 28.0487C29.6669 27.9435 29.2014 28.0325 28.736 28.0082C28.499 28.0001 28.3044 27.9839 28.0759 27.9758C27.7543 27.9596 28.0251 28.0406 27.5851 27.8382L26.8319 27.6683C26.8234 27.6683 26.798 27.6764 26.7896 27.6764L26.7811 28.3643L26.4765 28.4695C26.358 28.0568 26.4088 28.2429 26.1549 27.9111L25.9687 27.6359L25.8841 26.5676C24.5809 27.1584 25.4779 26.5109 23.8531 27.2717C23.9885 27.9677 24.0646 28.2186 24.0816 28.9794C24.107 29.5945 23.9292 30.3391 24.0985 30.8976C23.5823 30.9381 23.7346 30.7276 23.6923 29.724C23.6754 29.7159 23.65 29.6917 23.65 29.7078C23.65 29.7159 23.6161 29.6917 23.6161 29.6917C23.5992 29.6755 23.5823 29.6593 23.5738 29.6431C23.3961 29.4569 23.6415 29.8697 23.5738 29.6431L23.5654 28.7123C23.3199 28.939 23.303 29.1575 23.083 29.4327C22.0506 30.7195 21.7121 30.2177 21.6444 31.9659C21.619 32.5972 21.8559 33.9084 21.7544 34.2807C21.7459 34.2969 21.7459 34.305 21.7459 34.3131L21.7374 34.3373L21.729 34.3616V34.3697V34.394L21.7205 34.4021V34.4183V34.4264V34.4345L21.7121 34.4506V34.4587V34.4668V34.4749V34.483V34.4911L21.7036 34.4992V34.5154V34.5235V34.5316V34.5397V34.5478L21.6951 34.5559V34.564V34.572V34.5801V34.5882V34.5963V34.6044V34.6125V34.6206L21.6867 34.6287V34.6368L22.9561 33.6332L23.0407 32.5082C23.0576 32.5082 23.0745 32.5163 23.0999 32.5163C23.2184 32.5163 23.0322 32.5729 23.2099 32.5163L23.3961 31.2132C24.0731 30.9381 23.9039 31.019 24.0223 31.1809L23.523 31.3185L23.2946 33.2447L23.4638 33.2285L25.2494 31.8122ZM27.9405 29.6836L27.4835 30.0478C27.8982 29.9345 28.0759 29.7483 28.5413 29.6755C28.9814 29.983 29.2353 30.4039 29.413 30.9542C29.1168 31.2132 28.7444 31.456 28.389 31.6665C28.5836 31.4884 28.9391 31.1647 28.9221 30.7681C27.5512 30.8409 27.4327 31.0271 26.9335 31.9417C27.1619 31.8688 26.9673 32.0226 27.2212 31.715C27.6612 31.1647 27.3481 31.5208 28.4313 31.2375C28.3467 31.448 28.3382 31.4237 28.169 31.5936C27.9405 31.8283 27.9997 31.7069 27.8559 31.9659C28.5075 31.8931 28.9221 31.5613 29.286 31.0999C29.5568 31.1728 29.4638 31.0999 29.5907 31.278C29.5061 30.7195 29.2607 30.0478 28.8798 29.6755C28.609 29.4165 28.3467 29.4893 27.9913 29.6593L27.9405 29.6836ZM29.9969 28.0487L31.8333 33.528L31.8248 33.4956V33.4875L31.8163 33.447V33.439L31.8079 33.3985L31.7994 33.3499L31.791 33.3095V33.3014L31.7825 33.2609V33.2528L31.774 33.2204V33.2042L31.7656 33.1719L31.7571 33.1557V33.1314L31.7486 33.1071V33.0828L31.7402 33.0586V33.0343L31.7317 33.01V32.9938L31.7233 32.9533V32.9453L31.7148 32.9048L31.7063 32.8562L31.6979 32.8158V32.8077L31.6894 32.7672V32.7591L31.6809 32.7186L31.6725 32.7105V32.6782L31.664 32.662V32.6296L31.6556 32.6134V32.5891L31.6471 32.5649V32.5406L31.6386 32.5163V32.492L31.6302 32.4677L31.6217 32.4515V32.4192L31.6132 32.403L31.6048 32.3625L31.5963 32.314L31.5879 32.2735V32.2654L31.5794 32.2249V32.2168L31.5709 32.1764V32.1683L31.5625 32.1359V32.1197L31.554 32.0873L31.5455 32.0712V32.0469L31.5371 32.0226V31.9983L31.5286 31.974L31.5202 31.9578V31.9255L31.5117 31.9093L31.5032 31.8769V31.8688L31.4948 31.8283V31.8203L31.4863 31.7798L31.4778 31.7312H31.4694L31.4609 31.6908V31.6827L31.4525 31.6422V31.6341L31.444 31.6017V31.5855H31.4355L31.4271 31.5451V31.537L31.4186 31.5127V31.4965V31.4884L31.4101 31.448H31.4017V31.4237L31.3932 31.3994V31.3832L31.3848 31.3508L31.3763 31.3427L31.3678 31.3023V31.2942L31.3594 31.2537L31.3424 31.2132L31.334 31.1728V31.1647L31.3171 31.1242V31.1161L31.3086 31.0837L31.3001 31.0514V31.0433L31.2917 31.0271V31.019L31.2832 30.9866L31.2747 30.9785L31.2663 30.9462V30.9381L31.2578 30.9138V30.9057L31.2494 30.8814V30.8652L31.2324 30.8409V30.8328L31.224 30.8005V30.7924L31.207 30.76V30.7519L31.1986 30.7114C30.8685 29.724 30.3354 28.8823 29.9969 28.0487C30.1154 28.1053 30.1661 28.0649 30.3692 28.4453C30.5131 28.7204 30.4877 28.7609 30.7077 28.9147L32.4256 26.4704C32.7049 26.0091 32.6034 23.6701 32.5441 22.8445C32.8488 22.6989 32.4426 22.9255 32.7134 22.8445L32.7895 22.1485C32.0618 22.0271 31.884 21.8976 31.0547 21.9219C31.3678 22.2133 31.4778 21.93 31.7317 22.0999C31.5455 22.4075 31.6471 22.2133 31.3001 22.3994L31.6979 22.5694C31.4778 22.966 31.5286 22.6422 31.3509 23.1116C31.1986 23.5325 31.4271 23.3625 31.0039 23.6458C31.4694 23.6053 31.4186 23.5649 31.7063 23.8643C31.5879 24.18 31.7063 23.9776 31.3594 24.1476C32.1464 24.7222 30.7924 24.2771 31.8333 24.9974C32.1972 25.2564 31.9771 24.9246 32.1379 25.4507C32.2056 25.6773 32.2479 25.7744 32.2141 26.0981C31.9941 26.2276 31.6979 26.3248 31.3594 26.3733L31.2747 26.9075C29.8615 27.1746 31.9517 27.1017 29.5061 27.8059C29.8107 27.9111 29.8023 27.7897 29.9969 28.0487ZM26.4172 33.439C26.0449 33.7708 24.6316 33.6656 24.1154 33.9488C23.9292 34.046 23.76 34.4183 23.7261 34.3616C23.7177 34.3373 23.6838 34.394 23.6415 34.4102L23.9462 33.8032C24.784 33.6737 25.4948 33.3985 26.4172 33.439ZM26.9419 29.4974C26.9335 29.5217 26.8911 29.5541 26.7642 29.546C26.7134 29.8616 25.9518 30.8652 25.7572 31.0999L24.9024 30.9623L25.4356 31.2051C26.0364 31.2618 26.1549 30.8814 26.3834 30.5334C26.5865 30.2258 26.7896 29.9668 26.9927 29.6269C26.9588 29.5541 26.9419 29.5136 26.9419 29.4974ZM23.0407 32.5082C22.8883 32.4839 23.2946 32.3706 23.0407 32.5082V32.5082ZM23.2269 33.4228L23.083 33.439C23.0491 33.8032 23.0661 34.1188 23.0068 34.4587V34.4911L23.2269 33.4228ZM31.9179 24.3338C31.9264 24.3095 31.9602 24.2933 31.9771 24.2852C31.9941 24.2771 32.0279 24.2528 32.0364 24.2447C32.0533 24.2366 32.0871 24.2124 32.0956 24.2124C32.1295 24.1881 32.1548 24.1719 32.1718 24.1638C32.1548 24.18 32.1464 24.1962 32.2056 24.1719C32.5526 24.4875 32.2479 24.358 32.5864 24.9812L32.2479 25.1998C32.1548 24.7789 32.0787 24.7142 31.9179 24.3338ZM32.1718 24.1638C32.1972 24.1476 32.2395 24.1233 32.1718 24.1638V24.1638ZM28.0505 33.0586C28.2705 33.0262 28.4059 32.9857 28.6513 33.01L28.9814 33.1152C28.9983 33.0909 29.0237 33.1476 29.0406 33.1638C28.626 33.6251 28.7529 33.3095 28.1605 33.358C27.8643 33.3823 27.8051 33.5361 27.4835 33.6251C27.8136 33.3014 27.8051 33.4956 28.0505 33.0586ZM25.6302 32.6053C25.8333 32.5001 26.5442 32.2816 26.8319 32.2087C26.705 32.3949 26.8404 32.2573 26.6711 32.3949L26.248 32.6296C26.248 33.1476 26.6119 33.18 26.0195 33.2366L26.0026 32.7024L25.6302 32.6053ZM35.633 33.617C37.7401 33.9488 39.6104 33.4632 40.1096 31.2294C40.4566 31.1485 40.7951 31.0676 41.0913 30.9462C41.616 30.7195 41.3706 30.8248 41.6752 30.3877C41.8952 30.064 41.9968 30.0478 42.2761 29.8454C43.7062 28.8095 44.0447 30.0478 45.0433 29.1494C45.4664 28.7771 46.0165 28.5262 46.2196 28.0325C45.8473 28.1377 45.5257 28.2672 45.0602 28.2429C45.0518 28.2267 45.0433 28.1944 45.0349 28.1782C44.9333 27.9192 44.6117 27.6926 44.5948 27.6359C44.5863 27.6035 44.5525 27.6035 44.5356 27.5873C44.6794 27.1341 44.8487 27.2798 44.9164 26.8913C45.0095 26.3409 45.2041 26.8347 45.898 26.8104C46.5158 26.7861 46.3973 26.7861 46.9051 26.9237C46.685 25.1512 48.0391 25.5235 48.4029 24.2204C47.3536 25.1269 48.1068 24.7384 46.7612 25.0298C46.4989 25.0865 46.3127 25.0622 46.1011 25.0136C45.7203 24.1152 46.3889 24.2124 46.7358 23.5487C46.1265 23.6134 45.8049 23.7834 45.4411 23.403C45.2041 23.0793 45.4241 23.3221 45.348 23.1197C45.3395 23.0954 45.331 23.0712 45.3226 23.0469C45.238 22.8526 45.1026 22.796 44.891 22.6503C44.8317 22.2213 44.7979 22.2052 45.001 21.8652C45.4072 21.8248 45.1279 21.9947 45.6103 21.9624C46.4396 21.9057 46.1773 21.5739 46.5073 21.0721C46.7866 20.6431 46.6766 20.9588 46.7781 20.3679C46.8966 19.7043 46.7358 19.7528 46.5243 19.0406C45.8303 18.9111 45.5765 18.9111 45.1872 18.296C45.4326 18.0451 45.4072 18.2393 45.5088 17.9399C45.001 17.5352 43.5793 16.9201 44.7894 16.1755C45.7626 15.5847 45.0687 16.1512 45.5934 15.269C45.9403 14.6782 45.8557 14.8239 45.6526 14.0064L45.5426 14.9696C45.3564 15.0829 45.2972 15.0505 45.111 15.18C44.3155 15.7142 45.0941 15.4795 43.2831 14.9858C43.3339 13.278 43.1139 13.0109 44.3748 12.9705C44.0193 12.3311 44.3071 12.2987 44.5779 11.6917C44.4086 11.3113 44.5186 11.7322 44.2901 11.3194L44.4848 10.7367C44.104 10.4939 43.5285 10.0649 43.3423 9.52263C43.1223 8.89134 43.0462 8.46238 42.3607 8.15483L42.3691 8.93181C41.8614 8.99655 41.3875 9.0694 40.8967 8.78612C40.8967 8.34098 41.2859 8.35717 40.9982 7.97677C40.7782 7.67731 40.5751 7.87156 40.2112 7.70159C40.2281 7.15933 40.5243 7.25645 40.2281 6.85177C39.1703 5.39494 38.5779 6.37426 38.1294 6.72228C37.2747 6.59278 37.2324 6.90034 36.4961 6.67372C36.3861 6.34998 36.5046 6.14764 36.2846 5.77534L35.9545 5.23307C35.7091 4.73128 34.4313 5.12786 33.9743 4.73128C33.7966 4.58559 33.365 3.56581 33.2634 3.29063C33.128 4.62606 33.5089 3.93002 33.585 4.75556C33.3311 4.94171 33.2888 4.90933 33.0688 5.04692C32.7726 5.23307 32.8657 5.24926 32.5949 5.42732C31.9602 4.5775 31.5032 5.23307 30.9532 4.81221C30.9362 4.65034 31.097 4.51275 31.0801 4.05951C29.523 3.42013 30.53 3.21779 29.7092 2.55412C28.9729 2.38416 28.7529 2.99926 28.3213 3.2097C27.7289 3.50916 27.2296 2.99926 27.1873 2.48937C27.4327 2.05232 27.5343 2.35988 27.6528 1.84189C27.3481 1.49387 25.6302 1.29153 25.2663 1.30772L25.6641 1.61527C25.6641 1.84189 25.6218 1.81761 25.4948 2.03614C25.9687 2.10088 26.2057 2.18182 26.3326 2.5865C26.0787 2.98308 25.114 3.17732 24.6062 3.01545L23.5823 2.05232C23.1253 2.19801 23.083 2.27894 22.7022 2.48128L21.7713 2.89405C21.7544 2.90214 19.6218 2.99117 19.3341 2.99926C19.6049 3.34729 19.5795 2.96689 19.6133 3.54153C19.0887 3.77624 18.437 3.66293 17.65 3.97049C16.7784 4.31041 16.6345 3.90574 15.7629 3.75196C15.9237 4.2052 16.0168 4.01095 16.076 4.53703C15.9152 4.64225 15.6867 4.74746 15.4498 4.84458L14.8743 5.14404C14.8658 5.12786 14.8405 5.17642 14.8235 5.2007C14.722 5.65394 15.2721 5.89674 14.0788 6.30951C13.5457 6.49566 12.7164 6.40663 12.3694 6.85987C12.5048 7.41023 12.691 7.0703 12.9448 7.64494C13.1987 8.20339 12.9025 7.85537 13.6642 8.17911C13.6472 8.71328 13.6557 8.20339 13.5795 8.4462L13.5288 9.14224C13.5203 9.13414 13.5203 9.1908 13.5118 9.21508C12.581 9.70069 12.6402 9.23127 11.9293 9.00465C11.2016 8.76994 11.0069 8.32479 10.2707 8.63235L10.3045 8.78612C10.3299 9.03702 10.1268 9.24745 9.96603 9.44979C9.60214 9.91921 9.069 10.5829 8.55279 10.8904C8.28198 11.0442 7.90117 11.1251 7.58805 11.3194C7.86732 11.5946 8.24813 11.5217 8.392 11.9507C8.09581 12.1854 7.76577 12.1287 7.53728 12.412L7.4865 12.493C7.47804 12.501 7.46112 12.5253 7.45265 12.5334C6.96183 13.019 5.55704 12.9867 5.33702 13.3751C5.32009 13.3994 5.31163 13.4237 5.2947 13.448C5.21008 13.6018 5.31163 13.4804 5.19315 13.626C4.94774 13.9174 4.64309 13.8365 4.46537 14.2573C4.94774 14.1845 5.21008 14.1359 5.57397 14.3949C5.44703 14.7996 5.32009 14.5487 5.07468 14.9453C6.09018 15.3014 6.45407 15.3419 4.21996 16.8715C3.63604 17.2681 3.88992 17.3086 3.47525 17.7375C3.17906 18.037 2.94211 18.1908 2.70516 18.5064C3.45833 18.5307 4.16918 18.4902 4.2115 19.2348C4.25381 19.8742 3.56834 20.0523 3.1029 20.2708C3.00135 21.6953 2.45128 20.6836 2.45975 22.0514C4.40613 22.3832 3.05213 22.6179 4.83772 22.6341C5.91247 22.6422 6.03094 23.7186 5.27778 24.1071C4.64309 24.4309 3.65297 24.5604 3.01828 24.8275C2.62054 24.9893 2.2905 25.8311 1.52887 26.2034V28.9713C2.61207 28.6314 2.59515 29.1413 3.1706 28.9713C4.39767 28.6071 7.03799 29.2465 5.72629 30.671C5.44703 30.9704 5.42164 31.3185 5.24393 31.6746C5.77707 31.7393 6.32713 31.6422 6.86874 31.7069C7.43573 31.7798 7.2157 32.0307 7.99426 32.1602C8.94206 32.314 10.2876 31.9902 10.6853 32.7024L10.7192 33.8922C10.6769 34.4183 10.3468 34.4183 10.2538 34.9201C10.5753 34.8796 10.9562 34.7825 11.1931 34.7339C11.3708 34.7015 11.7601 34.7177 12.0563 34.6773C12.7587 34.5882 13.258 34.4668 13.9096 34.3292L13.918 34.3697L13.9519 34.3454L14.0534 34.4506L13.9942 34.5073L14.0788 34.4992C14.2481 34.483 14.4766 34.483 14.6712 34.5073C14.8235 34.5154 14.9505 34.5397 15.0182 34.572C14.9843 34.9605 14.832 34.9767 14.595 35.001C14.4258 35.0172 14.2227 35.0334 13.9688 35.171L13.8757 35.2195H13.9857C14.2989 35.2195 14.4935 35.1548 14.6458 35.0981C14.9505 34.9929 15.1367 34.9282 15.966 35.4947C15.9067 36.7816 16.4653 36.8706 17.1846 36.992C17.3369 37.0163 17.4977 37.0487 17.6585 37.081C18.2509 37.2267 18.2763 37.3157 18.3186 37.4614C18.344 37.5666 18.3778 37.688 18.5724 37.8742C18.7332 38.028 18.9194 38.1251 19.1141 38.1818C19.3172 38.2384 19.5287 38.2546 19.7487 38.2546C19.8334 38.2465 19.8926 38.2384 19.9265 38.2222C19.9265 38.2465 19.9349 38.287 19.9603 38.3274L19.9688 38.3436H19.9857C20.3242 38.2789 20.375 38.1818 20.5104 37.8904L20.5273 37.8742L20.5527 37.8337L21.0012 37.5909L20.9504 37.8985C21.2635 37.6638 20.9758 37.8337 21.1535 37.4614C21.2382 37.2672 21.2551 37.3238 21.4074 37.1539C21.7628 37.2105 21.6105 37.1296 21.6951 37.4371C21.7121 37.3724 21.7205 37.3157 21.729 37.2672L22.4568 37.9147C22.9307 38.4974 22.5329 38.2627 23.0915 39.0235C23.303 39.2987 23.6246 39.6952 23.98 40.0999L25.791 40.7555H25.7995V40.7636H25.8079H25.8164H25.8249H25.8333H25.8418H25.8502H25.8587L25.8672 40.7717H25.8756H25.8841H25.8926H25.901H25.9095H25.9179H25.9264V40.7798H25.9349H25.9433H25.9518H25.9603H25.9687H25.9772L25.9856 40.7879H26.0026H26.011H26.028H26.0364H26.0449L26.0533 40.796H26.0703H26.0787H26.0872H26.0957H26.1041L26.1126 40.804H26.1295H26.1464L26.1634 40.8121H26.1803H26.1887H26.2057L26.2226 40.8202H26.2395H26.2649L26.2818 40.8283H26.3072H26.3241L26.3495 40.8364H26.3749L26.4003 40.8445H26.4257C26.9588 40.9174 26.6626 41.1278 27.5089 40.9174C28.3552 40.715 28.2959 40.885 28.9729 40.5774L28.9899 40.5693H28.9983L29.0152 40.5612L29.0322 40.5532L29.066 40.537L29.0745 40.5289L29.0999 40.5208L29.1253 40.5046H29.1337L29.1506 40.4965L29.1676 40.4884H29.176L29.193 40.4722L29.2099 40.4641H29.2183L29.2437 40.4479L29.2691 40.4398L29.2945 40.4237L29.3199 40.4156L29.3453 40.3994L29.3622 40.3913L29.3707 40.3832L29.3961 40.3751L29.4214 40.3589L29.4468 40.3508L29.4722 40.3346H29.4807L29.4976 40.3184L29.523 40.3022L29.5568 40.2942V40.2861L29.5822 40.278V40.2699L29.6076 40.2618L29.633 40.2456H29.6415L29.6584 40.2294L29.6922 40.2213L29.7176 40.2051C29.8107 40.1485 29.8953 40.0999 29.9884 40.0433H29.9969L30.0223 40.0271L30.0477 40.0109C30.547 39.7114 31.0209 39.3715 31.1986 39.1044C31.5202 38.635 32.0618 37.1862 32.0618 37.1862C32.1379 36.992 32.2141 36.7816 32.2987 36.5711C32.4087 36.3121 32.5272 36.1665 32.6034 35.9318C32.6964 35.6728 32.5949 34.8958 33.3735 34.1917C33.4665 34.2645 33.5089 34.1997 33.5258 34.1997H33.5342L33.7204 34.305C33.6527 34.3616 33.5766 34.4426 33.4919 34.5397V34.5478C33.475 34.5963 33.4665 34.6611 33.4581 34.7258L33.7458 34.3211L35.3791 34.224C35.8868 33.8517 35.5145 33.9003 35.633 33.617ZM25.8756 29.4327C25.8926 29.3436 25.9179 29.2546 25.9603 29.1737C25.791 29.0604 25.6641 28.8904 25.6133 28.6881C25.5964 28.6476 25.6302 28.6638 25.6556 28.68V28.6719C25.6048 28.6233 25.5371 28.5505 25.4525 28.4372C25.4271 28.4129 25.4102 28.3886 25.3933 28.3643L25.2494 28.1377C25.1563 28.0163 25.0971 27.8706 25.0802 27.7087C25.0717 27.7087 25.0632 27.7087 25.0548 27.7087C25.0209 27.7087 24.9955 27.7168 24.8601 27.7654C24.9194 28.1053 24.9617 28.4129 24.9786 28.9551C24.9871 29.2384 24.9701 29.4893 24.9447 29.7402C24.9363 29.8697 24.9278 29.9911 24.9278 30.1044C24.9701 30.1044 25.004 30.1125 25.0548 30.1206L25.3679 30.1692C25.4779 30.0154 25.6048 29.8454 25.7064 29.6836C25.8079 29.5298 25.8756 29.4489 25.8756 29.4327ZM25.6556 28.68C25.6725 28.6962 25.6895 28.7123 25.6556 28.68V28.68ZM21.7882 38.4893L21.7036 38.4084C21.6613 38.4488 21.619 38.4812 21.5682 38.5217C21.4159 38.6593 21.2212 38.7402 21.0097 38.7564C20.9927 38.7726 20.9758 38.7888 20.9589 38.805C20.7473 39.0073 20.5188 39.1125 20.1549 39.1773L20.138 39.1853C19.9349 39.2177 19.7318 39.1934 19.5541 39.1044C19.4779 39.0963 19.4018 39.0963 19.3256 39.0882C19.1733 39.072 19.021 39.0397 18.8686 38.9992C18.6994 38.9506 18.5301 38.8859 18.3863 38.805C18.2255 38.7159 18.0816 38.6107 17.9378 38.4812C17.7685 38.3112 17.6585 38.1656 17.5908 38.0361C17.5654 37.9956 17.5485 37.9632 17.54 37.9309C17.5146 37.9309 17.4808 37.9228 17.4385 37.9147C17.3538 37.8904 17.1846 37.858 17.0323 37.8337C16.533 37.7528 16.0929 37.68 15.6783 37.3077C15.3398 37.0082 15.1282 36.5954 15.0774 35.9479C15.0266 35.9237 14.9843 35.8994 14.9505 35.8913V35.8994C14.9589 35.8994 14.9589 35.8994 14.9589 35.8994C14.8574 35.9398 14.7474 35.9722 14.5781 36.0127C14.4173 36.0451 14.2227 36.0774 13.9857 36.0774H13.9265C13.5965 36.0855 13.2749 35.9318 13.1056 35.6404C13.0549 35.5595 13.021 35.4785 13.0041 35.3895C12.7502 35.438 12.4794 35.4866 12.1748 35.519C11.9886 35.5433 11.7939 35.5514 11.6162 35.5595C11.4978 35.5595 11.3962 35.5675 11.3708 35.5675C11.3539 35.5756 11.2777 35.5918 11.1593 35.6161C10.9392 35.6728 10.6769 35.7294 10.4061 35.7618C10.3045 35.778 10.203 35.778 10.093 35.7618C9.6106 35.6809 9.28903 35.2357 9.37365 34.7663C9.44982 34.3292 9.61907 34.1269 9.77139 33.9246C9.79678 33.8922 9.81371 33.8679 9.82217 33.8436L9.80524 33.0828C9.64445 33.0667 9.30595 33.0667 8.96745 33.0667C8.58664 33.0586 8.20582 33.0586 7.85039 33.0019C7.19878 32.8967 6.97029 32.7186 6.75872 32.5568C6.75872 32.5568 6.76719 32.5568 6.75026 32.5568C6.54716 32.5325 6.30175 32.5406 6.0648 32.5406C5.75168 32.5487 5.44703 32.5568 5.13391 32.5244C5.03236 32.5082 4.93928 32.4839 4.84619 32.4354C4.40613 32.233 4.21996 31.715 4.43998 31.2942C4.4823 31.2213 4.51615 31.1161 4.55 31.0109C4.66001 30.7114 4.76156 30.4282 5.05775 30.1044C5.10006 30.0559 5.13391 30.0235 5.15084 29.9992C5.08314 29.9507 4.99005 29.9102 4.87157 29.8697C4.39767 29.7078 3.80529 29.6755 3.43294 29.7888C2.8998 29.9426 2.63746 29.8535 2.33281 29.7402C2.24818 29.7159 2.1551 29.6836 1.85044 29.7726C1.74889 29.805 1.63888 29.8292 1.52887 29.8292C1.02958 29.8292 0.631836 29.4489 0.631836 28.9713V26.2034C0.631836 25.8958 0.80955 25.5963 1.12266 25.4426C1.37654 25.3131 1.60503 25.0379 1.79121 24.8032C2.05354 24.4794 2.28203 24.2043 2.66285 24.0424C2.99289 23.9048 3.38217 23.7996 3.77144 23.7025C4.04224 23.6296 4.31305 23.5568 4.54154 23.4758C3.55142 23.4516 3.38217 23.314 3.11983 23.1035C3.06905 23.0631 3.00135 23.0064 2.31588 22.8931C1.89276 22.8203 1.57118 22.4722 1.56272 22.0514C1.56272 20.9183 1.87583 20.6998 2.23126 20.4732C2.23126 20.4651 2.2228 20.4489 2.2228 20.4408C2.21433 20.4084 2.19741 20.3517 2.20587 20.2142C2.23126 19.9147 2.40897 19.6395 2.71362 19.5019C2.81517 19.4534 2.88287 19.421 2.95058 19.3967C3.12829 19.3239 3.32293 19.3158 3.32293 19.2753C3.31447 19.1782 3.1029 19.3724 2.85749 19.3643C2.78132 19.3562 2.70516 19.3562 2.67131 19.3562C2.4936 19.3482 2.32435 19.2996 2.17202 19.1863C1.77428 18.9111 1.68966 18.3688 1.98584 17.9965C2.18048 17.7375 2.34973 17.5838 2.53591 17.4219C2.63746 17.3248 2.74747 17.2357 2.81517 17.1548C2.90826 17.0658 2.93365 17.0172 2.95904 16.9687C3.08598 16.7259 3.18753 16.5316 3.70374 16.1755C4.55846 15.5928 5.32009 16.0784 5.10853 15.8032C5.06621 15.8032 5.0239 15.8032 4.98159 15.7951C4.9562 15.8032 4.92235 15.8032 4.87157 15.787L4.81234 15.7627C4.74464 15.7465 4.6854 15.7142 4.6177 15.6818C4.38075 15.5442 4.22842 15.3176 4.19457 15.0667C4.17765 15.0667 4.16072 15.0586 4.1438 15.0505C3.67835 14.8805 3.45833 14.3787 3.63604 13.9417C3.86453 13.3994 4.15226 13.2537 4.44845 13.1081C4.46537 13.1 4.46537 13.1081 4.47383 13.1081C4.4823 13.0838 4.49922 13.0595 4.51615 13.0352V13.0271C4.52461 13.0109 4.53307 12.9947 4.54154 12.9786C4.83772 12.4444 5.42164 12.3149 6.0648 12.1611C6.35252 12.0964 6.66564 12.0235 6.78411 11.9588V11.9507C6.80104 11.9345 6.8095 11.9183 6.82642 11.894C6.84335 11.8778 6.86027 11.8536 6.8772 11.8374C6.86874 11.8212 6.85181 11.805 6.84335 11.7888C6.57255 11.4003 6.68256 10.8662 7.09723 10.6072C7.34264 10.4534 7.57113 10.3725 7.79116 10.2834C7.90117 10.243 8.01118 10.2025 8.07888 10.162C8.24813 10.0568 8.45123 9.87065 8.64587 9.66022C8.88282 9.40932 9.08593 9.15033 9.24671 8.9399C9.28057 8.89943 9.30595 8.86706 9.33134 8.83468C9.35673 8.8104 9.38212 8.85896 9.39904 8.88325L9.41597 8.89943V8.89134L9.39904 8.79422C9.31441 8.40573 9.52598 8.00915 9.91526 7.84728C10.8207 7.46688 11.2354 7.6935 11.7939 8.00105C11.9209 8.0658 12.0563 8.14674 12.2086 8.1872V8.1953V8.17102C12.1832 8.12246 12.1578 8.04152 12.1324 7.98487C12.124 7.96868 12.1324 7.96868 12.1494 7.97677C11.887 7.823 11.667 7.6935 11.5147 7.11077C11.4301 6.85987 11.4724 6.58469 11.6501 6.35807C12.0986 5.76724 12.7333 5.67822 13.3341 5.58919C13.5118 5.56491 13.6811 5.54063 13.7742 5.50825C13.9096 5.45969 13.9857 5.84009 13.9604 5.7025C13.9265 5.53253 13.8927 5.35448 13.935 5.08739C13.9519 4.9498 14.0027 4.8203 14.0873 4.70699C14.0958 4.6989 14.0958 4.6989 14.1042 4.69081C14.1719 4.59369 14.2481 4.48847 14.4596 4.38325C14.485 4.37516 14.5104 4.35897 14.5273 4.35088L14.9505 4.13236C14.942 4.09998 14.9251 4.05951 14.9166 4.02714C14.8658 3.88955 14.8574 3.74387 14.8828 3.59009C14.9759 3.12876 15.4413 2.82121 15.9237 2.91024C16.3045 2.98308 16.5668 3.0802 16.7868 3.16113C16.9476 3.22588 17.0661 3.27444 17.3115 3.17732C17.7431 3.01545 18.107 2.94261 18.4455 2.90214C18.4963 2.48128 18.8602 2.15754 19.3172 2.14135C19.4272 2.14135 19.9857 2.11707 20.5442 2.10088C21.0266 2.0766 21.3482 2.10898 21.4582 2.09279L22.3044 1.7124C22.3552 1.68812 22.4314 1.64765 22.4906 1.60718C22.7191 1.46959 22.8714 1.38056 23.2946 1.24297C23.6077 1.13776 23.9631 1.2106 24.217 1.44531L24.4624 1.68002C24.4116 1.5829 24.3778 1.46959 24.3778 1.35628C24.3439 0.886858 24.7247 0.482182 25.2156 0.457902C25.4864 0.441715 26.3241 0.514556 26.9927 0.668333C27.5512 0.789736 28.0674 0.992074 28.3382 1.29153C28.4821 1.4615 28.5667 1.68002 28.5413 1.91473C28.8714 1.69621 29.2776 1.57481 29.9123 1.72049C30.0477 1.74477 30.1746 1.80952 30.2846 1.89855C30.8855 2.38416 30.9362 2.75646 30.987 3.09639C30.987 3.09639 30.987 3.08829 31.4271 3.26635C31.7317 3.39585 31.9517 3.67912 31.9687 4.01905C31.9687 4.04333 31.9687 4.0757 31.9687 4.09998C32.1041 4.10807 32.231 4.12426 32.3664 4.16473C32.3326 3.9543 32.3241 3.66293 32.3664 3.25826C32.3833 2.91833 32.6034 2.60268 32.9673 2.48128C33.4327 2.3275 33.9404 2.56221 34.1012 3.00736C34.1605 3.16113 34.3297 3.56581 34.4905 3.88955C34.5582 4.03523 34.5328 4.06761 34.5667 4.09189C34.5921 4.11617 34.7613 4.0757 34.9813 4.08379C35.6922 4.10807 36.3777 4.12426 36.75 4.83649L37.0547 5.34638C37.1816 5.54872 37.2408 5.71868 37.2832 5.86437C37.427 5.84818 37.5963 5.8239 37.8078 5.83199C37.9178 5.72678 38.0448 5.62965 38.1886 5.53253C38.9418 5.03074 39.8642 4.86077 40.9559 6.35807C41.1844 6.67372 41.2775 6.88415 41.2859 7.0703C41.4298 7.15123 41.5737 7.27264 41.726 7.48307C41.7345 7.49926 41.7514 7.50735 41.7598 7.52354C42.0137 7.30501 42.3945 7.24026 42.7246 7.38595C43.6978 7.80681 43.8755 8.33289 44.1209 9.0613C44.1463 9.12605 44.1632 9.1908 44.1886 9.24745C44.2309 9.37695 44.3409 9.51454 44.4763 9.63594C44.6286 9.78972 44.8064 9.91112 44.9587 10.0082C45.2972 10.2106 45.4664 10.6153 45.3395 10.9957L45.2887 11.1332C45.3226 11.2061 45.3649 11.2789 45.3987 11.368C45.4834 11.5703 45.4918 11.805 45.3987 12.0235C45.3057 12.234 45.221 12.3796 45.1449 12.501C45.1364 12.5091 45.1364 12.5172 45.1618 12.5739C45.2295 12.6872 45.2633 12.8167 45.2633 12.9462C45.2718 13.0595 45.2464 13.1647 45.2126 13.2699C45.2803 13.2295 45.3564 13.1971 45.4411 13.1809C45.9234 13.0676 46.4058 13.3509 46.5158 13.8122C46.5496 13.9417 46.592 14.0631 46.6173 14.1602C46.6935 14.4111 46.7358 14.5568 46.7189 14.7834C46.7104 15.1152 46.6089 15.2852 46.3804 15.6818H46.3719C46.2535 15.8841 46.2619 15.8518 46.2619 15.8599C46.245 16.0622 46.2365 16.1755 46.0419 16.394C45.9234 16.5235 45.8557 16.564 45.6865 16.6611C45.6188 16.6935 45.5257 16.7501 45.4072 16.8149C45.4918 16.8796 45.6018 16.9525 45.6949 17.0091C45.8219 17.0901 45.9403 17.171 46.0504 17.26C46.3296 17.4624 46.465 17.8023 46.3804 18.1422C46.4227 18.1503 46.4735 18.1584 46.5327 18.1746C46.6427 18.1908 46.6427 18.1908 46.6935 18.1989C47.0151 18.2636 47.2944 18.4902 47.3874 18.814C47.4382 18.9839 47.489 19.1215 47.5313 19.2268C47.7006 19.6314 47.7767 19.8257 47.6582 20.5055C47.6329 20.6674 47.6244 20.7241 47.6159 20.7645C47.599 20.9021 47.5905 20.9669 47.5482 21.0721C47.4975 21.2097 47.4551 21.2582 47.379 21.3553C47.3621 21.3796 47.3367 21.412 47.2605 21.5253C47.2267 21.582 47.1928 21.671 47.1759 21.7357C47.0066 22.2456 46.8966 22.6017 46.1604 22.7555C46.1688 22.7636 46.1688 22.7717 46.1773 22.7798C46.1858 22.7717 46.2111 22.7636 46.2365 22.7555C46.355 22.7393 46.4819 22.7151 46.6258 22.6989C46.7951 22.6827 46.9728 22.707 47.142 22.7879C47.5228 22.974 47.709 23.3787 47.6075 23.7591C47.6582 23.7106 47.7259 23.6539 47.7936 23.5972C48.0137 23.403 48.3268 23.314 48.6399 23.3949C49.1138 23.5163 49.4015 23.9857 49.2661 24.439C49.0376 25.2645 48.5891 25.6044 48.166 25.9282C47.9375 26.0981 47.7259 26.26 47.7936 26.8104C47.8106 26.9237 47.8021 27.0451 47.7683 27.1584C47.6752 27.4821 47.3959 27.7087 47.0743 27.7654C47.1336 27.9516 47.1336 28.1539 47.0489 28.3481C46.812 28.9147 46.4142 29.206 45.9996 29.5055C45.8811 29.5945 45.7542 29.6917 45.6526 29.7807C44.8487 30.501 44.3155 30.4039 43.7147 30.2987C43.4947 30.2582 43.2493 30.2177 42.8092 30.5253C42.8007 30.5334 42.7246 30.59 42.6315 30.6467C42.5469 30.7033 42.5045 30.7357 42.4115 30.8652C42.3522 30.9462 42.3353 30.9947 42.3184 31.0271C42.1237 31.4399 42.1153 31.448 41.4467 31.7231C41.2436 31.8122 41.0405 31.8769 40.8374 31.9336C40.4905 32.9372 39.8727 33.6251 39.0772 34.046C38.2817 34.4668 37.3339 34.6125 36.3269 34.5478C36.2338 34.6611 36.0984 34.7744 35.9291 34.9039V34.8958C35.7937 35.001 35.616 35.0658 35.4299 35.0819L34.2366 35.1467L34.2028 35.2033V35.1952C34.0589 35.4057 33.8304 35.5433 33.5681 35.5756C33.5596 35.6485 33.5512 35.7213 33.5427 35.7861C33.5173 35.9318 33.5089 36.0532 33.4496 36.2069C33.3904 36.3931 33.3142 36.5226 33.2465 36.6602C33.2042 36.7411 33.1534 36.822 33.128 36.8868C33.0942 36.9839 33.0519 37.081 33.0096 37.1862C32.9842 37.2591 32.9503 37.3319 32.9334 37.3967C32.9165 37.4452 32.8996 37.4938 32.8742 37.5424C32.7641 37.8337 32.2818 39.072 31.9517 39.5657C31.8163 39.7681 31.6048 39.9785 31.3594 40.1728C31.1055 40.367 30.8093 40.5612 30.5216 40.7393L30.4877 40.7555C30.4793 40.7636 30.4708 40.7636 30.4623 40.7717H30.4539C30.3862 40.8121 30.3354 40.8445 30.31 40.8607C30.2508 40.8931 30.2 40.9174 30.1746 40.9335C30.1661 40.9416 30.1492 40.9497 30.1323 40.9578L30.1069 40.974L30.0815 40.9902C30.0731 40.9902 30.0561 40.9983 30.0477 41.0064L30.0223 41.0226C30.0223 41.0226 30.0223 41.0226 30.0138 41.0226L29.9969 41.0388V41.0307C29.9884 41.0388 29.9884 41.0388 29.9884 41.0388H29.98C29.9715 41.0469 29.963 41.0469 29.9546 41.0549L29.9292 41.0711L29.9038 41.0792C29.9038 41.0792 29.9038 41.0792 29.9038 41.0873H29.8953C29.8784 41.0954 29.8615 41.1035 29.8446 41.1116L29.8276 41.1197C29.8107 41.1278 29.7938 41.144 29.7769 41.1521L29.7599 41.1602V41.1521C29.7599 41.1521 29.7599 41.1521 29.7599 41.1602L29.7346 41.1683C29.7176 41.1763 29.7007 41.1844 29.6838 41.1925V41.2006L29.6584 41.2087C29.6415 41.2168 29.633 41.2249 29.6161 41.233L29.5992 41.2411V41.233C29.5992 41.233 29.5992 41.233 29.5992 41.2411H29.5822C29.5738 41.2492 29.5568 41.2573 29.5399 41.2654L29.523 41.2735L29.4976 41.2816C29.4891 41.2897 29.4722 41.2978 29.4638 41.3058H29.4553L29.4299 41.322H29.4214C29.413 41.322 29.3961 41.3301 29.3791 41.3382L29.3707 41.3463L29.3537 41.3544C28.8206 41.5891 28.626 41.6134 28.3128 41.6458C28.1859 41.662 28.0336 41.6781 27.7289 41.751C26.8488 41.9614 26.6626 41.8643 26.3411 41.7024C26.3326 41.7024 26.3326 41.6943 26.2903 41.6943L26.2649 41.6862H26.248L26.2226 41.6781H26.1972H26.1803H26.1718L26.1549 41.6701C26.1464 41.6701 26.138 41.6701 26.1295 41.6701H26.121C26.1126 41.662 26.1041 41.662 26.0872 41.662C26.0787 41.662 26.0618 41.662 26.0533 41.6539C26.0364 41.6539 26.028 41.6539 26.0195 41.6539H26.011C26.0026 41.6539 25.9856 41.6458 25.9687 41.6458C25.9603 41.6458 25.9603 41.6458 25.9603 41.6458C25.9433 41.6458 25.9264 41.6377 25.9095 41.6377C25.901 41.6377 25.8926 41.6377 25.8841 41.6377C25.8756 41.6296 25.8756 41.6296 25.8756 41.6296H25.8672C25.8672 41.6296 25.8672 41.6296 25.8587 41.6296C25.8502 41.6296 25.8418 41.6296 25.8418 41.6296C25.8333 41.6296 25.8333 41.6296 25.8249 41.6296C25.8164 41.6215 25.7995 41.6215 25.7825 41.6215C25.7741 41.6215 25.7741 41.6215 25.7656 41.6215C25.7572 41.6134 25.7402 41.6134 25.7318 41.6134H25.7233H25.7148H25.7064C25.7064 41.6134 25.7064 41.6134 25.6979 41.6134H25.6895C25.681 41.6053 25.681 41.6053 25.681 41.6053C25.6048 41.5972 25.5371 41.581 25.4694 41.5567L23.6669 40.9012C23.523 40.8445 23.3961 40.7636 23.2946 40.6503C23.0999 40.4317 22.9222 40.2213 22.7699 40.0271C22.6175 39.8409 22.4737 39.671 22.3637 39.5172C21.9829 38.9992 21.9236 38.7969 21.8728 38.6107C21.8728 38.6026 21.8644 38.5864 21.7882 38.4893ZM44.764 13.9174C44.7725 13.8527 44.7894 13.7798 44.8148 13.7151C44.6879 13.7798 44.5525 13.8203 44.4002 13.8284C44.1886 13.8284 44.1886 13.9093 44.1886 14.3221V14.3706C44.3325 14.4192 44.4594 14.4678 44.5609 14.5082C44.5694 14.5001 44.5863 14.492 44.6033 14.484C44.6371 14.4516 44.671 14.4273 44.7048 14.4111L44.764 13.9174ZM12.1578 7.97677H12.1494C12.1578 7.97677 12.1663 7.98487 12.1578 7.97677ZM9.39904 8.88325C9.4075 8.89134 9.4075 8.89943 9.41597 8.89943L9.39904 8.88325ZM14.9082 35.8751C14.8489 35.8589 14.942 35.8832 14.9505 35.8994V35.8913C14.9336 35.8832 14.9251 35.8751 14.9082 35.8751Z" fill="white"/>
<path fill-rule="evenodd" clip-rule="evenodd" d="M33.458 34.7261C33.4665 34.6614 33.4749 34.5966 33.4919 34.5481V34.54C33.805 34.1839 33.9573 34.1191 34.0673 34.0706C34.152 34.0301 34.2112 34.0058 34.3127 33.8439C34.4228 33.6659 34.4228 33.6011 34.4228 33.504C34.4228 33.4474 34.4228 33.3826 34.4481 33.2774C34.4905 33.0346 34.4989 33.0346 34.5328 33.0346C34.5412 33.0346 34.5666 33.0346 34.6766 32.7837C34.8543 32.379 34.8036 32.0796 34.7613 31.8368C34.7528 31.772 34.7359 31.7073 34.7359 31.6506C34.702 31.3107 34.7951 31.1812 34.8713 31.0841C34.9305 31.0031 34.9813 30.9465 34.8967 30.7522L34.8459 30.6389L34.939 30.7279C35.0405 30.817 35.1082 30.9303 35.1759 31.0274C35.3113 31.2378 35.4298 31.424 35.836 31.4321C36.1237 31.4402 36.3353 31.3592 36.4792 31.2055C36.6146 31.0598 36.6907 30.8574 36.7076 30.6308C36.733 30.3961 36.6992 30.1371 36.6315 29.8781C36.4707 29.3116 36.1068 28.7693 35.6752 28.5751L35.6498 28.567L36.0391 27.5148C36.1322 26.8754 36.0306 26.5193 35.9545 26.2199C35.8445 25.7909 35.7598 25.4833 36.3184 24.6173C36.6315 24.1398 36.9023 23.2172 36.9361 22.335C36.97 21.6389 36.8515 20.9753 36.4961 20.5463C36.1914 20.5625 35.8868 20.7486 35.616 20.9995C35.269 21.3395 34.9813 21.7846 34.8459 22.1326L34.7951 22.2378C34.7951 22.1974 34.7782 22.0922 34.7866 22.0517C34.7951 21.906 34.3974 22.0031 34.482 21.8575C34.5835 21.6713 34.1858 21.4123 34.3043 21.2828C34.135 21.2343 34.1773 21.4285 34.0081 21.388C33.8219 21.3395 33.9742 21.5256 33.7965 21.469C33.6357 21.4204 33.9996 21.3395 33.8134 21.2909C32.7472 20.9995 35.049 22.0193 33.8388 21.8332C32.6287 21.647 33.585 21.647 32.4848 21.8251C31.774 22.0112 31.0208 21.4528 30.293 21.5985C29.5653 21.7603 28.9306 21.6146 28.1689 21.8655C27.932 21.9384 26.9419 21.6956 26.6541 21.7684C25.1986 22.1326 23.3199 22.4402 22.736 22.853C22.5244 23.0067 19.791 24.4474 19.5287 24.6173C19.5033 25.7585 18.327 24.8278 18.2339 25.9528L18.0816 26.3089C17.9885 26.6893 17.9462 27.3529 18.1154 27.9276C18.2339 28.3161 18.4539 28.656 18.8263 28.8179L18.9363 28.8664L18.6486 28.8826C18.4031 28.9069 18.2508 28.9231 18.1323 28.915C18.0139 28.9069 17.9462 28.8664 17.87 28.7936C17.413 28.3161 17.4384 28.1056 17.4638 27.7738C17.4807 27.6443 17.4892 27.4905 17.4807 27.2963L16.6006 27.1992C16.3806 27.2315 16.3298 27.4663 16.3806 27.7819C16.4737 28.3646 16.8714 29.2064 17.0661 29.6191C17.0914 29.6758 17.1168 29.7324 17.1338 29.7729C17.2099 29.9348 17.303 30.0805 17.3961 30.21C17.4638 30.3152 17.523 30.4123 17.5653 30.4932C17.6161 30.6146 17.6161 30.6308 17.6161 30.7118C17.6161 30.8979 17.5907 31.1002 17.5823 31.2864C17.5738 31.3754 17.54 31.5049 17.5061 31.6668C17.3622 32.2414 17.1338 33.1965 17.6923 33.6659L17.7007 33.674C17.7092 33.674 17.7177 33.674 17.7177 33.674C17.7346 33.6821 17.7431 33.6902 17.7515 33.6902L17.7769 33.7144L17.7684 33.7306C17.2268 34.6452 17.1761 35.5436 17.3707 36.0778C17.4384 36.2639 17.54 36.4096 17.6584 36.4824C17.7769 36.5472 17.9039 36.5472 18.0393 36.4662C18.3101 36.3125 18.5893 35.8592 18.8009 34.9932L18.8263 34.888C18.8517 34.977 18.8855 35.0742 18.9024 35.1632C18.9024 35.1794 18.9024 35.1956 18.9109 35.2117C18.9109 35.2198 18.9109 35.236 18.9109 35.2441C18.9194 35.2603 18.9194 35.2927 18.9278 35.317C18.9278 35.3655 18.9194 35.406 18.9024 35.4141C18.9024 35.5355 18.894 35.6326 18.894 35.7055C18.8855 35.8754 18.8855 35.9483 18.894 35.9968C18.9109 36.0373 18.9363 36.0616 18.9871 36.102C19.0294 36.1344 19.0971 36.183 19.1732 36.2639C19.6641 36.7495 19.6894 36.968 19.7233 37.2028C19.7318 37.2513 19.7402 37.3161 19.7487 37.3727C19.9349 37.4294 20.0787 37.486 20.2057 37.5508C20.3326 37.6155 20.4426 37.6884 20.5526 37.7855L20.5696 37.8017L20.5272 37.8745L20.5103 37.8907C20.3749 38.1821 20.3241 38.2792 19.9856 38.3439H19.9687L19.9603 38.3277C19.9349 38.2873 19.9264 38.2468 19.9264 38.2225C19.8925 38.2387 19.8333 38.2468 19.7487 38.2549C19.5287 38.2549 19.3171 38.2387 19.114 38.1821C18.9194 38.1254 18.7332 38.0283 18.5724 37.8745C18.3778 37.6884 18.3439 37.567 18.3185 37.4617C18.2762 37.3161 18.2508 37.227 17.6584 37.0813C17.4976 37.049 17.3369 37.0166 17.1845 36.9923C16.4652 36.8709 15.9067 36.7819 15.9659 35.495C15.1366 34.9285 14.9504 34.9932 14.6458 35.0984C14.4934 35.1551 14.2988 35.2198 13.9857 35.2198H13.8757L13.9688 35.1713C14.2226 35.0337 14.4257 35.0175 14.595 35.0013C14.8319 34.977 14.9843 34.9608 15.0181 34.5724C14.9504 34.54 14.8235 34.5157 14.6712 34.5076C14.4765 34.4833 14.248 34.4833 14.0788 34.4995L13.9942 34.5076L14.0534 34.451L13.9518 34.3457L13.918 34.37L13.9095 34.3296C13.2579 34.4671 12.7586 34.5885 12.0562 34.6776C11.76 34.718 11.3708 34.7019 11.193 34.7342C10.9561 34.7828 10.5753 34.8799 10.2537 34.9204C10.3468 34.4186 10.6768 34.4186 10.7191 33.8925L10.6853 32.7028C10.2876 31.9905 8.94201 32.3143 7.9942 32.1605C7.21564 32.031 7.43567 31.7801 6.86868 31.7073C6.32708 31.6425 5.77701 31.7396 5.24387 31.6749C5.42158 31.3188 5.44697 30.9707 5.72624 30.6713C7.03793 29.2468 4.39761 28.6074 3.17054 28.9716C2.59509 29.1416 2.61202 28.6317 1.52881 28.9716V26.2037C2.29044 25.8314 2.62048 24.9896 3.01822 24.8278C3.65291 24.5607 4.64303 24.4312 5.27772 24.1074C6.03089 23.719 5.91241 22.6425 4.83767 22.6344C3.05207 22.6182 4.40608 22.3835 2.45969 22.0517C2.45123 20.6839 3.00129 21.6956 3.10284 20.2711C3.56828 20.0526 4.25375 19.8745 4.21144 19.2352C4.16913 18.4906 3.45827 18.531 2.7051 18.5067C2.94206 18.1911 3.17901 18.0373 3.4752 17.7379C3.88986 17.3089 3.63598 17.2684 4.2199 16.8719C6.45401 15.3422 6.09013 15.3017 5.07462 14.9456C5.32003 14.549 5.44697 14.7999 5.57391 14.3952C5.21002 14.1362 4.94768 14.1848 4.46531 14.2576C4.64303 13.8368 4.94768 13.9177 5.19309 13.6264C5.31157 13.4807 5.21002 13.6021 5.29465 13.4483C5.31157 13.424 5.32003 13.3997 5.33696 13.3755C5.55698 12.987 6.96177 13.0193 7.4526 12.5337C7.46106 12.5256 7.47798 12.5014 7.48645 12.4933L7.53722 12.4123C7.76571 12.1291 8.09575 12.1857 8.39194 11.951C8.24808 11.522 7.86726 11.5949 7.588 11.3197C7.90111 11.1255 8.28193 11.0445 8.55273 10.8907C9.06894 10.5832 9.60209 9.91953 9.96597 9.4501C10.1268 9.24777 10.3299 9.03733 10.3045 8.78644L10.2706 8.63266C11.0069 8.3251 11.2015 8.77025 11.9293 9.00496C12.6401 9.23158 12.5809 9.701 13.5118 9.21539C13.5202 9.19111 13.5202 9.13446 13.5287 9.14255L13.5795 8.44651C13.6556 8.2037 13.6472 8.71359 13.6641 8.17942C12.9025 7.85568 13.1987 8.2037 12.9448 7.64525C12.6909 7.07061 12.5047 7.41054 12.3693 6.86018C12.7163 6.40694 13.5456 6.49597 14.0788 6.30982C15.272 5.89705 14.7219 5.65425 14.8235 5.20101C14.8404 5.17673 14.8658 5.12817 14.8743 5.14436L15.4497 4.8449C15.6867 4.74777 15.9151 4.64256 16.0759 4.53734C16.0167 4.01126 15.9236 4.20551 15.7628 3.75227C16.6345 3.90605 16.7783 4.31072 17.65 3.9708C18.437 3.66324 19.0886 3.77655 19.6133 3.54184C19.5794 2.9672 19.6048 3.3476 19.334 2.99958C19.6217 2.99148 21.7543 2.90245 21.7712 2.89436L22.7021 2.48159C23.0829 2.27925 23.1252 2.19832 23.5822 2.05263L24.6062 3.01576C25.1139 3.17763 26.0787 2.98339 26.3326 2.58681C26.2056 2.18213 25.9687 2.1012 25.4948 2.03645C25.6217 1.81792 25.664 1.8422 25.664 1.61559L25.2663 1.30803C25.6302 1.29184 27.3481 1.49418 27.6527 1.8422C27.5342 2.36019 27.4327 2.05263 27.1873 2.48968C27.2296 2.99958 27.7289 3.50947 28.3213 3.21001C28.7528 2.99958 28.9729 2.38447 29.7091 2.55443C30.53 3.2181 29.5229 3.42044 31.08 4.05983C31.097 4.51306 30.9362 4.65065 30.9531 4.81252C31.5032 5.23338 31.9602 4.57781 32.5948 5.42763C32.8656 5.24957 32.7726 5.23338 33.0687 5.04723C33.2888 4.90964 33.3311 4.94202 33.585 4.75587C33.5088 3.93033 33.128 4.62637 33.2634 3.29094C33.3649 3.56612 33.7965 4.5859 33.9742 4.73159C34.4312 5.12817 35.7091 4.73159 35.9545 5.23338L36.2845 5.77565C36.5045 6.14795 36.3861 6.35029 36.4961 6.67403C37.2323 6.90065 37.2746 6.59309 38.1294 6.72259C38.5779 6.37457 39.1702 5.39525 40.2281 6.85209C40.5243 7.25676 40.2281 7.15964 40.2111 7.7019C40.575 7.87187 40.7781 7.67762 40.9982 7.97708C41.2859 8.35748 40.8966 8.34129 40.8966 8.78644C41.3874 9.06971 41.8613 8.99687 42.3691 8.93212L42.3606 8.15514C43.0461 8.46269 43.1223 8.89165 43.3423 9.52294C43.5285 10.0652 44.1039 10.4942 44.4847 10.737L44.2901 11.3197C44.5186 11.7325 44.4086 11.3116 44.5778 11.692C44.307 12.299 44.0193 12.3314 44.3747 12.9708C43.1138 13.0112 43.3338 13.2783 43.2831 14.9861C45.094 15.4798 44.3155 15.7145 45.111 15.1803C45.2971 15.0508 45.3564 15.0832 45.5426 14.9699L45.6526 14.0067C45.8557 14.8242 45.9403 14.6785 45.5933 15.2693C45.0686 16.1515 45.7626 15.585 44.7894 16.1758C43.5792 16.9204 45.0009 17.5355 45.5087 17.9402C45.4072 18.2397 45.4325 18.0454 45.1871 18.2963C45.5764 18.9114 45.8303 18.9114 46.5242 19.0409C46.7358 19.7531 46.8966 19.7046 46.7781 20.3682C46.6765 20.9591 46.7865 20.6434 46.5073 21.0724C46.1772 21.5742 46.4396 21.906 45.6103 21.9627C45.1279 21.995 45.4072 21.8251 45.0009 21.8655C44.7978 22.2055 44.8317 22.2217 44.8909 22.6506C45.1025 22.7963 45.2379 22.853 45.3225 23.0472C45.331 23.0715 45.3395 23.0958 45.3479 23.12C45.4241 23.3224 45.204 23.0796 45.441 23.4033C45.8049 23.7837 46.1265 23.6137 46.7358 23.549C46.3888 24.2127 45.7203 24.1155 46.1011 25.0139C46.3126 25.0625 46.4988 25.0868 46.7612 25.0301C48.1067 24.7387 47.3535 25.1272 48.4029 24.2208C48.039 25.5238 46.685 25.1515 46.905 26.924C46.3973 26.7864 46.5157 26.7864 45.898 26.8107C45.204 26.835 45.0094 26.3413 44.9163 26.8916C44.8486 27.2801 44.6794 27.1344 44.5355 27.5877C44.5524 27.6038 44.5863 27.6038 44.5947 27.6362C44.6117 27.6929 44.9332 27.9195 45.0348 28.1785C45.0433 28.1947 45.0517 28.227 45.0602 28.2432C45.5256 28.2675 45.8472 28.138 46.2196 28.0328C46.0165 28.5265 45.4664 28.7774 45.0433 29.1497C44.0447 30.0481 43.7062 28.8098 42.276 29.8457C41.9967 30.0481 41.8952 30.0643 41.6752 30.388C41.3705 30.8251 41.6159 30.7198 41.0912 30.9465C40.7951 31.0679 40.4566 31.1488 40.1096 31.2297C39.6103 33.4635 37.7401 33.9492 35.6329 33.6173C35.5144 33.9006 35.8868 33.852 35.379 34.2243L33.7458 34.3215L33.458 34.7261Z" fill="black"/>
<path fill-rule="evenodd" clip-rule="evenodd" d="M29.9968 28.0488C29.8022 27.7898 29.8106 27.9112 29.506 27.806C31.9517 27.1018 29.8614 27.1747 31.2746 26.9076L31.3593 26.3734C31.6978 26.3249 31.994 26.2277 32.214 26.0982C32.2478 25.7745 32.2055 25.6774 32.1378 25.4508C31.977 24.9247 32.1971 25.2565 31.8332 24.9975C30.7923 24.2772 32.1463 24.7223 31.3593 24.1477C31.7062 23.9777 31.5878 24.1801 31.7062 23.8644C31.4185 23.565 31.4693 23.6054 31.0038 23.6459C31.427 23.3626 31.1985 23.5326 31.3508 23.1117C31.5285 22.6423 31.4778 22.966 31.6978 22.5695L31.3 22.3995C31.647 22.2133 31.5455 22.4076 31.7316 22.1C31.4778 21.9301 31.3677 22.2133 31.0546 21.922C31.884 21.8977 32.0617 22.0272 32.7894 22.1486L32.7133 22.8446C32.4425 22.9256 32.8487 22.699 32.544 22.8446C32.6033 23.6702 32.7048 26.0092 32.4256 26.4705L30.7077 28.9148C30.4876 28.761 30.513 28.7205 30.3692 28.4453C30.1661 28.065 30.1153 28.1054 29.9968 28.0488ZM27.2211 21.9544C27.7373 21.8006 28.5243 21.8734 29.1252 21.9058C28.6851 22.3105 28.135 22.3428 27.6188 22.8932L26.5187 24.2044C26.5949 23.6378 26.6795 23.7754 26.9587 23.5164L27.2211 21.9544ZM18.2085 25.8635V25.9445C18.9193 25.6288 19.8417 24.6495 21.0519 23.9615C23.0067 22.8527 24.3861 22.2376 26.891 21.9463C26.8064 22.2376 26.6795 22.7799 26.5695 23.1036C26.5272 23.2331 25.5878 24.3419 25.5963 26.6162C24.6569 26.6648 24.1492 26.8186 23.7091 27.3932C23.3875 26.7781 21.4919 25.8959 21.9743 25.2079C22.1012 25.0218 22.1436 25.1027 22.1943 25.0784C22.0928 24.9409 21.712 24.2044 21.1873 23.9696C21.3565 24.3258 21.6527 24.5524 21.8728 24.8923C21.5596 26.2601 21.9658 25.815 22.5244 26.681C21.6189 26.5757 20.4934 26.0659 19.6302 26.1225C19.774 26.341 19.8925 26.3006 20.0956 26.5515C19.6556 26.5596 18.987 26.6243 18.6147 26.859L18.2762 27.118C18.547 27.8788 18.9955 27.5713 18.7078 28.5182L19.2155 28.8662C19.224 29.3761 19.2494 29.3761 19.0801 29.8132C19.1055 29.8293 19.1393 29.8374 19.1563 29.8455C20.2226 30.3554 18.1238 30.3392 20.5018 30.2907L20.5695 30.5092L21.8135 30.5416C21.3481 31.3347 21.585 32.4597 21.5258 33.3257C20.6288 33.2367 19.4694 32.5245 19.114 32.136C18.6908 31.6747 19.0801 29.5623 18.8178 28.8419L18.6485 28.85C18.7839 29.4004 18.6231 30.2421 18.5893 30.8977L18.1662 30.663C18.1746 29.627 18.3946 30.323 18.5385 29.538C18.2846 29.716 17.9884 29.8698 17.9715 30.3716C17.9461 31.0596 18.0985 30.7844 18.5639 31.181C18.6147 32.6863 18.5216 31.9579 18.9786 32.5569C19.2324 32.8968 19.0463 32.913 18.9616 33.3095C18.8178 33.9651 18.987 33.3824 19.1478 33.9975L18.7247 34.5398C18.3269 34.5155 18.2339 34.4184 17.9038 34.2889L18.2423 33.5038C17.5992 33.9813 17.2945 35.5353 17.6753 36.1018C18.3862 36.0856 18.3354 35.2196 18.6316 34.734C19.5625 34.7421 18.8262 35.422 19.0801 35.9966C19.1055 36.0613 19.4863 36.4336 19.5794 36.5308C19.9771 37.0002 19.7317 36.8059 19.8502 37.3239L20.688 37.6396L20.5357 37.8014L20.5018 37.8581L21.0011 37.591L20.9503 37.8986C21.2634 37.6639 20.9757 37.8338 21.1534 37.4615C21.2381 37.2673 21.255 37.3239 21.4073 37.154C21.7627 37.2106 21.6104 37.1297 21.695 37.4372C21.7458 37.1297 21.7458 37.0407 21.932 36.7898L22.3213 36.4013C22.3636 36.3041 22.4228 36.1666 22.4736 36.1018C22.7275 35.7214 22.5328 35.9804 22.7359 35.8671C22.7529 35.8509 22.7698 35.8266 22.7782 35.8185L23.4129 35.2601C23.2352 35.3329 22.6428 35.689 22.5413 35.7862C22.3382 35.9642 22.2451 36.207 21.9574 36.466C21.6697 35.9399 21.5935 34.8716 21.7543 34.2808C21.8558 33.9085 21.6189 32.5973 21.6443 31.966C21.712 30.2178 22.0505 30.7196 23.0829 29.4328C23.3029 29.1576 23.3198 28.9391 23.5653 28.7124L23.5737 29.6432C23.6499 29.886 23.3622 29.4004 23.616 29.6918C23.616 29.6918 23.6499 29.716 23.6499 29.7079C23.6499 29.6918 23.6753 29.716 23.6922 29.7241C23.7345 30.7277 23.5822 30.9382 24.0984 30.8977C23.9292 30.3392 24.1069 29.5946 24.0815 28.9795C24.0646 28.2187 23.9884 27.9678 23.853 27.2718C25.4778 26.511 24.5808 27.1585 25.884 26.5677L25.9686 27.636L26.1548 27.9112C26.4087 28.243 26.3579 28.0569 26.4764 28.4696L26.781 28.3644L26.7895 27.6765C26.798 27.6765 26.8233 27.6684 26.8318 27.6684L27.585 27.8383C28.025 28.0407 27.7542 27.9597 28.0758 27.9759C28.3043 27.984 28.4989 28.0002 28.7359 28.0083C29.2013 28.0326 29.6668 27.9436 29.9968 28.0488C30.3353 28.8824 30.8684 29.7241 31.1985 30.7115C31.5031 31.6504 31.6809 32.7673 31.884 33.779C31.994 33.7142 31.9517 33.7223 32.0363 33.6252L32.2309 33.4148C32.4002 34.0218 32.4509 33.8518 32.5948 33.9408L32.2055 33.1396C32.7302 33.6333 32.0871 33.2934 32.8825 33.6252L32.5694 34.1513C32.5525 34.1432 32.5356 34.127 32.5271 34.127L32.4425 34.0946C32.1801 34.0218 32.6033 33.9894 32.324 34.0946C32.1801 34.216 31.9093 35.1063 31.6893 35.4058C31.6639 35.422 31.6385 35.4381 31.6216 35.4462C31.6047 35.4543 31.5793 35.4786 31.5624 35.4867L31.7486 35.5757C31.6385 36.3851 31.5285 36.1585 31.4524 36.2394C31.3 36.636 31.3424 36.4175 31.2831 36.4498C31.2831 36.4498 31.2323 36.4336 31.2154 36.4175C31.0715 36.6603 30.2761 37.8176 30.3692 37.9957C30.4369 38.1333 30.5215 37.9471 30.403 38.1252L30.1999 38.279C29.726 38.8131 30.4538 39.1207 27.5681 39.5254C27.5427 39.5982 28.4228 39.5416 26.5187 40.0676C25.7571 40.2781 25.3932 40.0434 24.9447 39.663C24.4623 39.2502 22.939 38.0685 22.4567 37.9148C22.9306 38.4975 22.5328 38.2628 23.0914 39.0236C23.3029 39.2987 23.6245 39.6953 23.9799 40.1L25.7909 40.7556C25.7909 40.7556 25.8925 40.7718 26.4256 40.8446C26.9587 40.9174 26.6626 41.1279 27.5088 40.9174C28.3551 40.7151 28.2958 40.8851 28.9728 40.5775C29.6414 40.2781 30.8854 39.582 31.1985 39.1045C31.5201 38.6351 32.0617 37.1863 32.0617 37.1863C32.1378 36.9921 32.214 36.7817 32.2986 36.5712C32.4086 36.3122 32.5271 36.1666 32.6033 35.9318C32.6964 35.6729 32.5948 34.8959 33.3734 34.1917C33.4665 34.2646 33.5088 34.1998 33.5257 34.1998H33.5342L33.7457 34.3212C34.0927 33.9975 34.135 34.1756 34.3381 33.8518C34.5158 33.5685 34.4143 33.5685 34.4735 33.2772C34.5581 32.832 34.482 33.3015 34.702 32.7916C34.9305 32.2736 34.7866 31.9256 34.7612 31.6504C34.702 30.9948 35.1082 31.1567 34.922 30.7439C34.8458 30.5092 34.6766 30.0964 34.7612 29.9022C35.3705 29.9588 34.8374 29.8617 35.2013 30.7034C35.5398 31.4966 36.6738 31.2376 36.0052 29.7322C35.7683 29.2061 35.6752 28.7853 35.3282 28.6153L35.599 29.3356C35.3197 29.6594 35.1336 29.797 34.465 29.716C34.3804 29.5865 34.482 29.5137 34.3719 29.3356C34.2365 29.1171 34.2281 29.2304 33.9911 29.0766C34.0673 28.8096 33.9911 29.0119 34.1519 28.7691C34.3973 28.4211 34.0081 28.6639 34.5327 28.1459C34.4989 27.7493 34.2704 27.6927 34.465 27.3042L34.2027 27.2313C33.9827 26.0011 34.4058 25.6855 34.3719 25.3132C34.2535 24.2044 34.1181 23.4193 34.8205 22.1243L34.812 22.0596L34.6174 22.3186C33.4495 21.833 31.7401 21.7439 30.293 21.5982C30.2845 21.5901 30.293 21.574 30.293 21.574C30.293 21.5659 30.293 21.5416 30.3015 21.5416C30.3015 21.5254 30.3099 21.4768 30.3099 21.4687L30.3015 21.2826C29.7852 21.752 29.379 21.6954 28.5412 21.6873C26.3325 21.6468 25.3424 21.9544 23.2775 22.6423C22.499 22.8932 21.1704 23.6459 20.578 24.0587L18.2085 25.8635Z" fill="black"/>
<path fill-rule="evenodd" clip-rule="evenodd" d="M24.9025 21.4526C24.4794 22.7476 21.8137 22.6019 22.4568 20.9346C22.6853 20.3519 23.1931 20.0929 23.9631 20.1738C24.6655 20.2467 25.1394 20.6999 24.9025 21.4526ZM18.2086 25.8636L20.5781 24.0587C21.1705 23.6459 22.4991 22.8933 23.2777 22.6424C25.3425 21.9544 26.3327 21.6468 28.5414 21.6873C29.3792 21.6954 29.7854 21.7521 30.3016 21.2826L30.3101 21.4688C30.3101 21.4769 30.3016 21.5254 30.3016 21.5416C30.2931 21.5416 30.2931 21.5659 30.2931 21.574C30.2931 21.574 30.2847 21.5902 30.2931 21.5983C31.7402 21.744 33.4497 21.833 34.6175 22.3186L34.8121 22.0596C34.8375 21.7197 35.1083 21.3393 35.3284 21.1046L34.8291 20.8213C34.6514 20.7728 34.4821 20.7242 34.3044 20.6756C33.9574 20.5866 33.6443 20.4814 33.255 20.3762C30.0139 19.1945 25.0379 19.0246 21.2297 20.8456C19.6642 21.5902 17.7347 22.7557 17.0916 24.1963L18.2086 25.8636Z" fill="#FF0000"/>
<path fill-rule="evenodd" clip-rule="evenodd" d="M18.2081 25.9444L18.0558 26.3005C17.895 26.948 17.8696 28.4372 18.8174 28.8418C19.0797 29.5622 18.6905 31.6746 19.1136 32.1359C19.469 32.5244 20.6284 33.2366 21.5254 33.3256C21.5847 32.4596 21.3477 31.3346 21.8132 30.5415L20.5692 30.5091L20.5015 30.2906C18.1235 30.3391 20.2222 30.3553 19.1559 29.8454C19.139 29.8373 19.1051 29.8292 19.0797 29.8131C19.249 29.376 19.2236 29.376 19.2151 28.8661L18.7074 28.5181C18.9951 27.5712 18.5466 27.8787 18.2758 27.1179L18.6143 26.8589C18.9867 26.6242 19.6552 26.5595 20.0953 26.5514C19.8922 26.3005 19.7737 26.3409 19.6298 26.1224C20.493 26.0658 21.6185 26.5757 22.524 26.6809C21.9655 25.8149 21.5593 26.26 21.8724 24.8922C21.6524 24.5523 21.3562 24.3257 21.1869 23.9695C21.7116 24.2043 22.0924 24.9408 22.194 25.0784C22.1432 25.1026 22.1009 25.0217 21.9739 25.2079C21.4916 25.8958 23.3872 26.778 23.7088 27.3931C24.1488 26.8185 24.6566 26.6647 25.5959 26.6161C25.5875 24.3418 26.5268 23.233 26.5691 23.1035C26.6791 22.7798 26.8061 22.2375 26.8907 21.9462C24.3858 22.2375 23.0064 22.8526 21.0515 23.9615C19.8414 24.6494 18.919 25.6287 18.2081 25.9444Z" fill="#FCFCFC"/>
<path fill-rule="evenodd" clip-rule="evenodd" d="M34.4313 24.9651C34.9983 25.3212 34.4313 25.216 35.3621 25.6369L35.3368 26.6566L34.7275 27.0047C35.1337 26.2439 35.1506 27.1908 35.2437 25.823L34.7528 25.5478C34.5413 25.386 34.4736 25.2079 34.4313 24.9651ZM34.9221 25.3374C34.8882 25.2807 34.6513 25.4264 34.8205 24.5119C34.9729 23.743 35.066 23.9615 35.3368 23.8887C35.3368 24.3419 35.4637 25.3131 34.9221 25.3374ZM35.159 22.7313C35.3029 22.2619 35.8191 21.2421 36.4115 21.0802C36.4115 21.0802 36.5808 21.0721 36.6061 21.6387C36.64 22.1809 36.5215 22.796 36.2169 23.2088C35.8276 23.7349 35.8868 24.6414 35.5822 25.2079C35.5906 24.7385 35.726 24.1962 35.853 23.7106C35.9968 23.136 35.9714 23.0712 35.6583 22.2457C35.6499 22.2214 35.6329 22.1971 35.6245 22.1728C35.4214 22.8446 35.5314 22.5937 35.159 22.7313ZM34.8205 22.1243C34.1181 23.4192 34.2536 24.2043 34.372 25.3131C34.4059 25.6854 33.9827 26.0011 34.2028 27.2313L34.4651 27.3041C34.2705 27.6926 34.499 27.7493 34.5328 28.1459C34.0081 28.6638 34.3974 28.421 34.152 28.7691C33.9912 29.0119 34.0674 28.8095 33.9912 29.0766C34.2282 29.2304 34.2366 29.1171 34.372 29.3356C34.482 29.5137 34.3805 29.5865 34.4651 29.716C35.1337 29.7969 35.3198 29.6593 35.5991 29.3356L35.3283 28.6153C35.6753 28.7852 35.7683 29.2061 36.0053 29.7322C36.6738 31.2376 35.5399 31.4966 35.2014 30.7034C34.8375 29.8617 35.3706 29.9588 34.7613 29.9021C34.6767 30.0964 34.8459 30.5092 34.9221 30.7439C35.2352 31.0352 35.2183 31.448 35.836 31.4642C37.3593 31.5047 36.7331 29.0119 35.6837 28.5505L36.0645 27.5227C36.2846 25.9363 35.4045 26.0901 36.3438 24.6333C36.9023 23.7673 37.3424 21.5011 36.5131 20.5137C35.7853 20.5541 35.066 21.5011 34.8205 22.1243Z" fill="white"/>
<path fill-rule="evenodd" clip-rule="evenodd" d="M26.4169 33.4389C26.0445 33.7707 24.6313 33.6655 24.1151 33.9488C23.9289 34.0459 23.7596 34.4182 23.7258 34.3616C23.7173 34.3373 23.6835 34.3939 23.6412 34.4101L23.9458 33.8031C24.7836 33.6736 25.4945 33.3984 26.4169 33.4389ZM27.5847 27.8382L26.8316 27.6682C26.8231 27.6682 26.7977 27.6763 26.7892 27.6763L26.7808 28.3643L26.4761 28.4695C26.3576 28.0567 26.4084 28.2429 26.1545 27.911L25.9684 27.6358L25.8837 26.5675C24.5805 27.1583 25.4775 26.5109 23.8527 27.2716C23.9881 27.9677 24.0643 28.2186 24.0812 28.9794C24.1066 29.5945 23.9289 30.3391 24.0981 30.8975C23.5819 30.938 23.7343 30.7276 23.6919 29.724C23.675 29.7159 23.6496 29.6916 23.6496 29.7078C23.6496 29.7159 23.6158 29.6916 23.6158 29.6916C23.3619 29.4002 23.6496 29.8858 23.5735 29.643L23.565 28.7123C23.3196 28.9389 23.3027 29.1574 23.0826 29.4326C22.0502 30.7195 21.7117 30.2177 21.644 31.9659C21.6186 32.5972 21.8556 33.9083 21.754 34.2806C21.5932 34.8714 21.6694 35.9398 21.9571 36.4659C22.2448 36.2069 22.3379 35.9641 22.541 35.786C22.6426 35.6889 23.235 35.3328 23.4127 35.2599L22.778 35.8184C22.7695 35.8265 22.7526 35.8508 22.7357 35.8669L22.8288 36.5144C22.9557 36.5306 22.8626 36.8463 23.3027 35.9641C23.7596 35.0495 24.3774 35.3571 24.4028 34.8553C24.4366 34.3858 24.3859 35.2195 24.3689 34.7177C24.352 33.9569 26.2138 34.2482 26.6708 33.9731L28.0502 33.0585C28.2448 32.84 28.0332 32.9209 28.4394 32.8723C28.5495 32.8562 28.871 32.8804 29.0234 32.8723C27.5847 31.6988 27.4747 32.9452 26.4169 33.4389C26.6115 33.2042 27.6016 32.2087 27.9655 32.1763C28.4648 32.1277 29.0741 32.67 29.4465 32.8562C29.6411 32.9533 29.7596 32.9452 29.9712 33.0666C29.7342 33.4308 29.548 33.2608 28.998 33.4065C29.1672 33.5198 29.438 33.4551 29.5988 33.4713C29.8527 33.5036 29.7004 33.4551 29.8104 33.536L28.5833 33.8759C28.7441 34.0378 28.7949 33.7545 28.6764 34.0945C28.8033 33.9488 28.6172 34.0702 28.9218 33.9326C29.1588 34.0783 29.6073 34.2887 29.4634 34.6853C29.9627 34.5963 30.2927 34.1997 30.5805 33.9002C30.7751 33.6817 30.682 33.706 30.9274 33.6574C30.5551 34.7743 30.8767 34.4911 30.6397 34.9767C30.3181 35.608 30.0389 35.6322 29.218 35.6484L29.2603 35.7375C30.8005 35.6889 30.7582 36.0369 31.7398 34.1592C31.7737 34.2159 32.0022 34.143 31.7906 34.6853C31.6552 35.0252 31.6637 35.0333 31.6891 35.4056C31.9091 35.1062 32.1799 34.2159 32.3238 34.0945C32.603 33.9893 32.1799 34.0216 32.4422 34.0945L32.5269 34.1268C32.5353 34.1268 32.5522 34.143 32.5692 34.1511L32.8823 33.625C32.0868 33.2932 32.73 33.6331 32.2053 33.1394L32.5946 33.9407C32.4507 33.8517 32.3999 34.0216 32.2307 33.4146L32.036 33.625C31.9514 33.7222 31.9937 33.7141 31.8837 33.7788C31.6806 32.7671 31.5029 31.6502 31.1982 30.7114C30.8682 29.724 30.335 28.8822 29.9965 28.0486C29.6665 27.9434 29.2011 28.0324 28.7356 28.0081C28.4987 28.0001 28.304 27.9839 28.0755 27.9758C27.754 27.9596 28.0248 28.0405 27.5847 27.8382ZM24.022 31.1808L23.5227 31.3184L23.2942 33.2447L24.1405 33.1637C24.1235 33.1556 24.0897 33.099 24.0812 33.1152C24.0812 33.1152 23.802 32.9371 23.7089 32.5081C24.3774 31.5693 24.7159 32.1277 25.1306 32.1925C24.9613 32.3706 25.1306 32.2572 24.8598 32.3625C23.912 32.7348 24.1912 32.5972 24.2166 33.277L23.0826 33.4389C23.0488 33.8031 23.0657 34.1187 23.0065 34.4587C22.9811 34.6367 22.8795 35.2114 22.8372 35.3409L23.0403 32.5081C23.3281 32.3625 22.8034 32.5081 23.0996 32.5162C23.218 32.5162 23.0319 32.5729 23.2096 32.5162L23.3958 31.2132C24.0728 30.938 23.9035 31.0189 24.022 31.1808ZM25.139 32.0468C25.139 32.0468 25.1983 31.9011 25.1983 31.893C25.2067 31.8768 25.2575 31.804 25.2744 31.7797L24.8598 31.6988L25.4522 31.4317L25.139 32.0468ZM26.273 30.509C26.4761 30.1934 26.7892 29.9668 26.9923 29.6269C26.8485 29.3598 27.0854 29.554 26.7639 29.5459C26.7131 29.8616 25.9514 30.8652 25.7568 31.0999L24.9021 30.9623L25.4352 31.2051C25.2914 31.2213 26.2815 31.1242 26.273 30.509ZM25.6299 32.6053C25.833 32.5 26.5438 32.2815 26.8316 32.2087C26.7046 32.3948 26.84 32.2572 26.6708 32.3948L26.2476 32.6295C26.2476 33.1475 26.6115 33.1799 26.0191 33.2366L26.0022 32.7024L25.6299 32.6053ZM29.2857 31.0999C28.9218 31.5612 28.5071 31.893 27.8555 31.9659C27.9994 31.7069 27.9401 31.8283 28.1686 31.5936C28.3379 31.4236 28.3463 31.4479 28.431 31.2375C27.3478 31.5207 27.6609 31.1646 27.2208 31.715C26.967 32.0225 27.1616 31.8688 26.9331 31.9416C27.4324 31.027 27.5509 30.8409 28.9218 30.768C28.9387 31.1646 28.5833 31.4884 28.3887 31.6664C28.7441 31.456 29.1164 31.2132 29.4126 30.9542C29.2349 30.4038 28.981 29.983 28.541 29.6754C27.974 29.7644 27.8217 30.0234 27.1616 30.1044C27.1785 30.0882 27.2039 30.0639 27.2208 30.0558L27.9909 29.6592C28.3463 29.4893 28.6087 29.4164 28.8795 29.6754C29.2603 30.0477 29.5057 30.7195 29.5903 31.2779C29.4634 31.0999 29.5565 31.1727 29.2857 31.0999ZM25.6299 31.3508H25.9684C25.816 31.5855 25.833 31.5207 25.6214 31.6421C25.8753 31.6179 26.3492 31.4155 26.4677 31.4722C26.8146 31.6583 26.4254 31.8688 26.2307 31.9254C27.0093 31.7231 26.3915 31.7959 26.6538 31.9902C26.6454 32.0063 26.6115 32.0063 26.6115 32.0063L26.6792 32.1844C26.3915 32.2734 25.9599 32.5891 25.486 32.2896L25.139 32.0468L25.6299 31.3508Z" fill="#FCFCFC"/>
<path fill-rule="evenodd" clip-rule="evenodd" d="M17.269 29.2467C16.8035 28.9391 16.6343 28.1298 16.6173 27.5227C17.0997 27.4013 17.2013 27.5227 17.3959 27.9031C17.3705 27.8869 17.3367 27.8708 17.3113 27.8627L16.8458 27.6846C16.9305 28.413 17.1843 28.6235 17.269 29.2467ZM20.5355 37.8015L20.6878 37.6396L19.85 37.324C19.7316 36.806 19.977 37.0002 19.5792 36.5308C19.4861 36.4337 19.1053 36.0614 19.0799 35.9966C18.8261 35.422 19.5623 34.7422 18.6314 34.7341C18.3352 35.2197 18.386 36.0857 17.6752 36.1019C17.2943 35.5353 17.599 33.9814 18.2422 33.5038L17.9037 34.2889C18.2337 34.4184 18.3268 34.5155 18.7245 34.5398L19.1476 33.9975C18.9869 33.3824 18.8176 33.9652 18.9615 33.3096C19.0461 32.913 19.2323 32.8968 18.9784 32.5569C18.5214 31.958 18.6145 32.6864 18.5637 31.181C18.0983 30.7844 17.946 31.0596 17.9714 30.3717C17.9883 29.8699 18.2845 29.7161 18.5383 29.538C18.3945 30.3231 18.1745 29.6271 18.166 30.663L18.5891 30.8977C18.623 30.2422 18.7838 29.4004 18.6484 28.8501C18.1575 28.9067 18.0221 28.9148 17.8867 28.7691C17.252 28.1055 17.5651 27.9679 17.5059 27.2718L16.6004 27.1666C15.8557 27.2718 16.9051 29.3276 17.1082 29.7808C17.2436 30.0803 17.4551 30.315 17.5398 30.5012C17.599 30.6306 17.5905 30.6387 17.5905 30.744L17.5482 31.2862C17.5228 31.6747 16.9474 33.083 17.6752 33.6819C17.6836 33.69 17.709 33.7143 17.709 33.7062C17.709 33.69 17.7344 33.7143 17.7429 33.7224C16.4142 35.9481 18.0475 38.1252 18.8345 34.9931L18.8684 35.1387C18.8684 35.163 18.8768 35.1873 18.8768 35.2116C18.9192 35.6891 18.8853 35.0092 18.8768 35.3654C18.8599 36.2314 18.7922 35.9238 19.1561 36.288C19.7654 36.8869 19.6469 37.065 19.7316 37.3968C20.0955 37.5101 20.3155 37.6153 20.5355 37.8015Z" fill="#F2F2F2"/>
<path fill-rule="evenodd" clip-rule="evenodd" d="M12.0985 13.0838C12.217 12.8896 12.217 12.9139 12.3185 12.6954C11.7938 12.5578 11.2438 12.4121 11.0576 11.975C11.2269 11.8698 11.4384 11.7889 11.6246 11.6837C12.3778 11.2709 14.0534 10.3401 14.8404 10.2673C15.2889 10.2268 15.2973 10.2187 15.6528 10.1459C16.0759 10.065 16.169 10.154 16.5921 10.1459C17.303 9.93547 18.4454 7.92019 18.8262 7.46695C19.7825 7.41029 19.6217 7.26461 19.8502 7.904L21.1873 7.79878C21.1788 7.79878 20.8319 7.93637 20.798 8.34105C21.2127 8.80238 21.9997 8.48673 23.0067 8.47864C24.7754 8.47864 23.6753 8.23583 25.5286 8.36533C26.671 8.45436 27.1957 8.1549 28.0589 8.09824C28.6682 9.4013 28.3381 10.2511 30.2338 10.0569C30.2084 9.68457 30.183 9.74123 30.1068 9.44177C29.9799 9.01281 30.0222 9.0209 30.0984 8.86713C30.8684 8.74572 32.5271 8.90759 33.0941 9.19896C33.1364 9.46605 32.3832 11.0928 33.7626 11.6837C33.6103 11.3114 33.2887 10.8905 33.221 10.4696C33.1026 9.74123 33.5595 9.76551 33.331 8.96425C32.5525 8.54339 30.7077 8.33295 29.7091 8.72954L29.9122 9.78169C28.5582 9.76551 28.7867 8.85903 28.3551 7.69357C28.2789 7.46695 28.3466 7.60454 28.2535 7.46695C27.7796 7.63691 27.6781 8.22774 24.8177 8.01731C24.3015 7.97684 24.4115 7.99303 24.0053 8.10634C23.9292 8.12252 21.2973 8.35723 21.1365 8.26821C21.1365 8.25202 22.0335 7.42648 21.2804 7.47504L20.6288 7.6531C19.7994 7.79878 20.2395 7.5236 19.8756 7.25652C19.664 7.10274 19.1393 7.12702 18.8516 7.19177C18.4539 7.2727 18.5047 7.45885 18.2846 7.83116L17.3199 9.23943C15.7966 10.7934 16.7868 8.65669 12.1747 11.0928C11.2776 11.5704 10.7614 11.6756 10.7953 12.0479C10.863 12.663 11.6754 12.5416 12.0562 13.0272C12.0647 13.0353 12.0816 13.0677 12.0985 13.0838Z" fill="white"/>
<path fill-rule="evenodd" clip-rule="evenodd" d="M24.6732 34.5881C25.0117 34.0944 25.1218 34.2078 25.8665 34.232C25.5618 34.4667 25.1471 34.5153 24.6732 34.5881ZM25.5872 34.572C25.8918 34.2806 25.9511 34.3049 26.3996 34.1916C26.4335 34.1835 27.9567 33.4146 28.8199 33.6007L25.5872 34.572ZM28.0498 33.0585C28.2698 33.0261 28.4052 32.9856 28.6506 33.0099L28.9807 33.1151C28.9976 33.0908 29.023 33.1475 29.0399 33.1637C28.6253 33.625 28.7522 33.3094 28.1598 33.3579C27.8636 33.3822 27.8044 33.536 27.4828 33.625C27.8128 33.3013 27.8044 33.4955 28.0498 33.0585ZM26.4165 33.4389C27.4743 32.9452 27.5844 31.6988 29.023 32.8723C28.8707 32.8804 28.5491 32.8561 28.4391 32.8723C28.0329 32.9209 28.2444 32.8399 28.0498 33.0585L26.6704 33.973C26.2134 34.2482 24.3517 33.9569 24.3686 34.7176C24.3855 35.2194 24.4363 34.3858 24.4024 34.8552C24.3771 35.357 23.7593 35.0495 23.3023 35.964C22.8623 36.8462 22.9553 36.5306 22.8284 36.5144L22.7353 35.8669C22.7353 36.5791 22.8284 36.6277 22.5915 37.0405L22.4307 37.3561C22.9892 37.0162 23.1584 36.5063 23.5054 35.964C23.7339 36.0774 23.7085 36.1097 24.0047 36.2878C24.1824 36.4011 24.284 36.4497 24.5886 36.563L24.5548 36.822C25.8495 36.7006 26.6366 35.964 27.5674 35.7698C27.669 35.9479 27.5928 35.7293 27.5844 35.8669L27.5759 35.8993C27.5759 35.8993 27.5674 35.9074 27.5674 35.9155C28.236 35.8507 28.3291 35.6079 29.2176 35.6484C30.0385 35.6322 30.3178 35.6079 30.6393 34.9766C30.8763 34.491 30.5547 34.7743 30.9271 33.6574C30.6817 33.706 30.7747 33.6817 30.5801 33.9002C30.2924 34.1997 29.9623 34.5962 29.463 34.6853C29.3107 34.8552 29.5731 34.6772 29.2599 34.8633C29.1499 34.9281 29.1245 34.9281 28.9976 34.9524C28.803 34.9928 28.6422 34.9928 28.4391 35.0414C26.9666 35.179 25.4433 36.2635 24.8933 36.1988C24.4786 36.1502 23.9539 35.9398 23.5393 35.8912C23.9539 35.2033 27.1105 34.2078 27.5844 34.2158L28.5829 33.8759L29.81 33.536C29.7 33.4551 29.8523 33.5036 29.5984 33.4712C29.4377 33.4551 29.1669 33.5198 28.9976 33.4065C29.5477 33.2608 29.7338 33.4308 29.9708 33.0666C29.7592 32.9452 29.6408 32.9533 29.4461 32.8561C29.0738 32.67 28.4645 32.1277 27.9652 32.1763C27.6013 32.2087 26.6112 33.2042 26.4165 33.4389Z" fill="black"/>
<path fill-rule="evenodd" clip-rule="evenodd" d="M32.2482 25.1999C32.1551 24.779 32.079 24.7143 31.9182 24.3339C31.9266 24.3096 31.9605 24.2934 31.9774 24.2853C31.9943 24.2772 32.0282 24.253 32.0367 24.2449C32.0536 24.2368 32.0874 24.2125 32.0959 24.2125C32.3667 24.0506 32.0451 24.2287 32.2059 24.172C32.5529 24.4877 32.2482 24.3582 32.5867 24.9814L32.2482 25.1999ZM29.9972 28.0488C30.1157 28.1055 30.1664 28.065 30.3695 28.4454C30.5134 28.7206 30.488 28.761 30.708 28.9148L32.4259 26.4706C32.7052 26.0093 32.6036 23.6702 32.5444 22.8447C32.8491 22.699 32.4429 22.9256 32.7137 22.8447L32.7898 22.1486C32.062 22.0272 31.8843 21.8977 31.055 21.922C31.3681 22.2134 31.4781 21.9301 31.732 22.1001C31.5458 22.4076 31.6474 22.2134 31.3004 22.3995L31.6981 22.5695C31.4781 22.9661 31.5289 22.6424 31.3512 23.1118C31.1989 23.5326 31.4273 23.3627 31.0042 23.6459C31.4697 23.6055 31.4189 23.565 31.7066 23.8645C31.5881 24.1801 31.7066 23.9778 31.3596 24.1477C32.1467 24.7224 30.7927 24.2772 31.8335 24.9976C32.1974 25.2566 31.9774 24.9247 32.1382 25.4508C32.2059 25.6774 32.2482 25.7745 32.2144 26.0983C31.9943 26.2278 31.6981 26.3249 31.3596 26.3735L31.275 26.9076C29.8618 27.1747 31.952 27.1019 29.5063 27.806C29.811 27.9112 29.8025 27.7898 29.9972 28.0488Z" fill="#F7F7F7"/>
<path fill-rule="evenodd" clip-rule="evenodd" d="M23.2182 20.5057C21.9573 20.9994 22.5412 22.6262 24.0983 22.0273C25.2407 21.5903 24.7753 19.8987 23.2182 20.5057Z" fill="black"/>
<path fill-rule="evenodd" clip-rule="evenodd" d="M8.44287 15.4957C8.96755 15.6737 12.6403 16.0703 13.0296 15.8761C12.8265 15.5119 11.5486 15.5119 11.1509 15.4795C10.4231 15.4067 9.7461 15.3662 9.01832 15.3014C9.62763 14.6135 11.5656 14.2817 11.9633 13.3347C11.354 13.6342 10.8208 14.0227 10.1354 14.3464C9.66994 14.573 8.48518 14.9777 8.44287 15.4957Z" fill="white"/>
<path fill-rule="evenodd" clip-rule="evenodd" d="M27.1623 30.1047C27.8224 30.0238 27.9747 29.7648 28.5417 29.6757C28.9818 29.9833 29.2357 30.4042 29.4134 30.9545C29.1172 31.2135 28.7448 31.4563 28.3894 31.6668C28.584 31.4887 28.9395 31.165 28.9225 30.7684C27.5516 30.8412 27.4331 31.0274 26.9338 31.9419C27.1623 31.8691 26.9677 32.0229 27.2216 31.7153C27.6616 31.165 27.3485 31.5211 28.4317 31.2378C28.3471 31.4482 28.3386 31.4239 28.1694 31.5939C27.9409 31.8286 28.0001 31.7072 27.8563 31.9662C28.5079 31.8934 28.9225 31.5615 29.2864 31.1002C29.5572 31.173 29.4641 31.1002 29.5911 31.2783C29.5065 30.7198 29.261 30.0481 28.8802 29.6757C28.6094 29.4168 28.3471 29.4896 27.9917 29.6596L27.2216 30.0561C27.2046 30.0642 27.1793 30.0885 27.1623 30.1047Z" fill="black"/>
<path fill-rule="evenodd" clip-rule="evenodd" d="M25.1308 32.1925C24.7161 32.1277 24.3776 31.5693 23.709 32.5081C23.8021 32.9371 24.0814 33.1151 24.0814 33.1151C24.0899 33.099 24.1237 33.1556 24.1406 33.1637L23.2944 33.2446L23.5229 31.3184L24.0222 31.1808C23.9037 31.0189 24.0729 30.938 23.3959 31.2132L23.2098 32.5162C23.032 32.5729 23.2182 32.5162 23.0997 32.5162C22.8036 32.5081 23.3282 32.3625 23.0405 32.5081L22.8374 35.3409C22.8797 35.2114 22.9813 34.6367 23.0067 34.4587C23.0659 34.1187 23.049 33.8031 23.0828 33.4389L24.2168 33.277C24.1914 32.5972 23.9121 32.7348 24.86 32.3625C25.1308 32.2572 24.9615 32.3705 25.1308 32.1925Z" fill="black"/>
<path fill-rule="evenodd" clip-rule="evenodd" d="M36.0393 21.6387C36.4116 21.2259 36.2085 21.6144 36.3185 21.3392C36.4793 21.8248 36.2762 22.0352 36.1493 22.4966L36.0647 22.0838C36.0647 22.1162 36.0477 22.359 36.0393 22.3833C35.9716 22.6342 36.0054 22.4804 35.9039 22.6261L35.8023 21.9138L36.0393 21.6387ZM35.1592 22.7313C35.5315 22.5937 35.4215 22.8446 35.6246 22.1728C35.6331 22.1971 35.65 22.2214 35.6585 22.2457C35.9716 23.0712 35.997 23.136 35.8531 23.7106C35.7262 24.1962 35.5908 24.7385 35.5823 25.2079C35.887 24.6414 35.8277 23.7349 36.217 23.2088C36.5217 22.796 36.6401 22.1809 36.6063 21.6387C36.5809 21.0721 36.4116 21.0802 36.4116 21.0802C35.8193 21.2421 35.303 22.2619 35.1592 22.7313Z" fill="black"/>
<path fill-rule="evenodd" clip-rule="evenodd" d="M27.2205 21.9541L26.9581 23.5162C26.6789 23.7752 26.5942 23.6376 26.5181 24.2041L27.6182 22.893C28.1344 22.3426 28.6845 22.3102 29.1245 21.9056C28.5237 21.8732 27.7367 21.8003 27.2205 21.9541Z" fill="#F8F8F8"/>
<path fill-rule="evenodd" clip-rule="evenodd" d="M25.6297 31.3511L24.8596 31.6991L25.2743 31.78C25.2574 31.8043 25.2066 31.8772 25.1981 31.8933C25.1981 31.9014 25.1389 32.0471 25.1389 32.0471L25.4858 32.2899C25.9598 32.5894 26.3913 32.2737 26.6791 32.1847L26.6114 32.0066C26.6114 32.0066 26.6452 32.0066 26.6537 31.9905C26.3913 31.7962 27.0091 31.7234 26.2306 31.9257C26.4252 31.8691 26.8145 31.6586 26.4675 31.4725C26.349 31.4158 25.8751 31.6182 25.6212 31.6424C25.8328 31.521 25.8159 31.5858 25.9682 31.3511H25.6297Z" fill="black"/>
<path fill-rule="evenodd" clip-rule="evenodd" d="M25.249 38.2627C26.0107 37.8256 25.6722 37.8499 26.95 37.3076C27.6101 37.0324 29.2433 36.911 29.2941 36.8787C28.2617 36.3202 25.7399 37.4371 25.249 38.2627Z" fill="black"/>
<path fill-rule="evenodd" clip-rule="evenodd" d="M34.9224 25.3375C35.464 25.3133 35.3371 24.342 35.3371 23.8888C35.0663 23.9616 34.9732 23.7431 34.8208 24.512C34.6516 25.4266 34.8885 25.2809 34.9224 25.3375Z" fill="black"/>
<path fill-rule="evenodd" clip-rule="evenodd" d="M23.1674 37.9309C24.3776 38.5541 24.5807 38.1818 25.2915 37.68C25.5116 37.5262 25.7739 37.3724 25.8585 37.1296C25.7062 37.251 25.3254 37.421 25.0884 37.5748C23.6329 38.5136 24.4961 38.0199 22.7866 37.6152L23.1674 37.9309Z" fill="black"/>
<path fill-rule="evenodd" clip-rule="evenodd" d="M25.5879 34.5722L28.8206 33.601C27.9574 33.4148 26.4341 34.1837 26.4003 34.1918C25.9518 34.3051 25.8925 34.2808 25.5879 34.5722Z" fill="#E7E7E7"/>
<path fill-rule="evenodd" clip-rule="evenodd" d="M17.2688 29.2467C17.1842 28.6235 16.9303 28.4131 16.8457 27.6847L17.3111 27.8627C17.3365 27.8708 17.3704 27.887 17.3957 27.9032C17.2011 27.5228 17.0996 27.4014 16.6172 27.5228C16.6341 28.1298 16.8034 28.9392 17.2688 29.2467Z" fill="#0F0F0F"/>
<path fill-rule="evenodd" clip-rule="evenodd" d="M26.4171 33.4391C25.4947 33.3986 24.7838 33.6738 23.946 33.8033L23.6414 34.4103C23.6837 34.3941 23.7175 34.3375 23.726 34.3617C23.7598 34.4184 23.9291 34.0461 24.1153 33.949C24.6315 33.6657 26.0447 33.7709 26.4171 33.4391Z" fill="black"/>
<path fill-rule="evenodd" clip-rule="evenodd" d="M25.4355 31.2052C26.0363 31.2618 26.1548 30.8815 26.3833 30.5334C26.5864 30.2259 26.7895 29.9669 26.9926 29.627C26.8487 29.3599 27.0857 29.5541 26.7641 29.546C26.7133 29.8617 25.9517 30.8653 25.7571 31.1L24.9023 30.9624L25.4355 31.2052Z" fill="black"/>
<path fill-rule="evenodd" clip-rule="evenodd" d="M35.3618 25.637C34.4309 25.2161 34.9979 25.3213 34.4309 24.9652C34.4732 25.208 34.5409 25.3861 34.7525 25.5479L35.2433 25.8231C35.1502 27.1909 35.1333 26.244 34.7271 27.0048L35.3364 26.6568L35.3618 25.637Z" fill="#0F0F0F"/>
<path fill-rule="evenodd" clip-rule="evenodd" d="M35.8022 21.9139L35.9038 22.6261C36.0053 22.4804 35.9715 22.6342 36.0392 22.3833C36.0477 22.359 36.0646 22.1162 36.0646 22.0838L36.1492 22.4966C36.2761 22.0353 36.4793 21.8248 36.3185 21.3392C36.2084 21.6144 36.4115 21.2259 36.0392 21.6387L35.8022 21.9139Z" fill="white"/>
<path fill-rule="evenodd" clip-rule="evenodd" d="M28.0506 33.0587C27.8052 33.4957 27.8137 33.3015 27.4836 33.6252C27.8052 33.5362 27.8645 33.3824 28.1606 33.3581C28.753 33.3096 28.6261 33.6252 29.0408 33.1639C29.0238 33.1477 28.9984 33.091 28.9815 33.1153L28.6515 33.0101C28.4061 32.9858 28.2707 33.0263 28.0506 33.0587Z" fill="#F4F4F4"/>
<path fill-rule="evenodd" clip-rule="evenodd" d="M25.6301 32.6054L26.0025 32.7026L26.0194 33.2367C26.6118 33.1801 26.2479 33.1477 26.2479 32.6297L26.671 32.395C26.8403 32.2574 26.7049 32.395 26.8318 32.2089C26.5441 32.2817 25.8332 32.5002 25.6301 32.6054Z" fill="black"/>
<path fill-rule="evenodd" clip-rule="evenodd" d="M31.918 24.3338C32.0788 24.7142 32.1549 24.779 32.248 25.1998L32.5865 24.9813C32.248 24.3581 32.5527 24.4876 32.2057 24.172C32.0449 24.2286 32.3665 24.0506 32.0957 24.2124C32.0872 24.2124 32.0534 24.2367 32.0364 24.2448C32.028 24.2529 31.9941 24.2772 31.9772 24.2853C31.9603 24.2934 31.9264 24.3095 31.918 24.3338Z" fill="black"/>
<path fill-rule="evenodd" clip-rule="evenodd" d="M27.475 38.3033C27.7373 38.1819 27.5342 38.3194 27.7797 38.0928C27.8981 37.9876 27.8135 38.0443 27.9235 37.9471C27.3142 38.1657 27.5596 38.2628 26.8065 38.1252L27.0603 38.4085C26.8657 38.5865 26.798 38.5784 26.7134 38.7889C27.3481 38.5542 26.9249 38.368 27.7204 38.5218L27.475 38.3033Z" fill="black"/>
<path fill-rule="evenodd" clip-rule="evenodd" d="M24.6736 34.5882C25.1475 34.5154 25.5622 34.4668 25.8668 34.2321C25.1221 34.2078 25.0121 34.0945 24.6736 34.5882Z" fill="#E4E4E4"/>
</g>
<defs>
<clipPath id="clip0_1_1503">
<rect width="48.6681" height="41.4197" fill="white" transform="translate(0.631836 0.447266)"/>
</clipPath>
</defs>
</svg>
