<svg width="115" height="102" viewBox="0 0 115 102" fill="none" xmlns="http://www.w3.org/2000/svg">
<g clip-path="url(#clip0_1_176)">
<path fill-rule="evenodd" clip-rule="evenodd" d="M49.6709 90.5132L51.5706 92.2672L59.4492 99.263C59.4492 99.263 59.6892 99.3028 60.9489 99.4822C62.2087 99.6616 61.5088 100.18 63.5085 99.6616C65.5081 99.1633 65.3682 99.5819 66.9679 98.8245C68.0077 98.3461 69.6474 97.4094 70.8672 96.5125C72.127 93.2837 73.7267 89.2974 74.0267 88.7394C74.4466 87.9222 77.3461 81.0659 77.3461 81.0659L49.7509 84.1951L49.6709 90.5132Z" fill="white"/>
<path fill-rule="evenodd" clip-rule="evenodd" d="M60.9299 81.2454C60.05 82.0626 56.7106 81.8035 55.4908 82.5011C55.0509 82.7403 54.651 83.6571 54.571 83.5176C54.551 83.4578 54.471 83.5973 54.371 83.6372L55.0909 82.1423C57.0706 81.8234 58.7503 81.1458 60.9299 81.2454ZM58.6103 75.7445C60.0301 75.884 60.31 74.9472 60.8499 74.0902C61.3298 73.3328 61.8097 72.695 62.2897 71.8579C61.9497 71.2002 62.5096 71.6785 61.7498 71.6586C61.6298 72.4359 59.8301 74.9074 59.3702 75.4854L57.3505 75.1465L58.6103 75.7445ZM58.5903 75.7445H58.6103C58.5703 75.7445 58.5703 75.7445 58.5903 75.7445ZM59.0702 76.1032L57.2505 76.9603L58.2304 77.1596C58.1904 77.2194 58.0704 77.3987 58.0504 77.4386C58.0504 77.4585 57.9104 77.8173 57.9104 77.8173L59.0702 76.1032ZM83.6659 52.186C84.5458 51.1695 84.0659 52.1262 84.3258 51.4485C84.7058 52.6444 84.2258 53.1626 83.9259 54.2987L83.7259 53.2822C83.7259 53.3619 83.6859 53.9598 83.6659 54.0196C83.506 54.6375 83.586 54.2588 83.346 54.6176L83.106 52.8636L83.6659 52.186ZM53.9511 80.7272L53.5512 80.7671L54.0911 76.0235L55.2709 75.6847C54.9909 75.286 55.3909 75.0867 53.7911 75.7644L53.3512 78.9733C52.9313 79.1128 53.3712 78.9733 53.0913 78.9733C52.3914 78.9534 53.6312 78.5946 52.9513 78.9534L52.6113 83.8763L52.7513 81.7238L49.7518 84.1952V84.1753L49.7718 84.1554V84.1354V84.1155V84.0956V84.0757V84.0557V84.0358V84.0159V83.9959L49.7918 83.976V83.9561V83.9361V83.9162V83.8963V83.8564L49.8118 83.8365V83.8165V83.7966V83.7767V83.7568V83.7368L49.8318 83.697V83.677V83.6571V83.6172L49.8518 83.5973V83.5375V83.5176L49.8718 83.4578L49.8918 83.398C49.8918 83.3781 49.8918 83.3581 49.9118 83.3183C50.1518 82.4014 49.5919 79.1726 49.6519 77.618C49.8118 73.3129 50.6117 74.5486 53.0513 71.3796C53.5712 70.7019 53.6112 70.1638 54.1911 69.6057L54.2111 71.8978C53.7911 71.4394 54.371 72.4558 54.2111 71.8978C54.2311 71.9376 54.271 71.9775 54.311 72.0174C54.311 72.0174 54.391 72.0772 54.391 72.0572C54.391 72.0174 54.451 72.0772 54.491 72.0971C54.591 74.5685 54.2311 75.0867 55.4508 74.9871C55.0509 73.6118 55.4708 71.7782 55.4109 70.2634C55.3709 68.3899 55.1909 67.772 54.8709 66.058C58.7103 64.1845 56.5906 65.7789 59.6701 64.324L59.8701 66.9549L60.31 67.6325C60.9099 68.4497 60.7899 67.9913 61.0699 69.0078L61.7897 68.7487L61.8097 67.0545C61.8297 67.0545 61.8897 67.0346 61.9097 67.0346L63.6894 67.4531C64.7292 67.9514 64.0893 67.7521 64.8492 67.792C65.3891 67.8119 65.849 67.8518 66.4089 67.8717C67.5088 67.9315 68.6086 67.7122 69.3884 67.9714L63.4495 72.8943L59.5501 76.1032L53.9511 80.7272ZM58.1704 77.2393L57.2905 77.9568L53.9511 80.7272L58.1704 77.2393ZM53.3912 81.2056L55.7308 80.8468L53.0513 81.2454C52.9713 82.1423 53.0113 82.9196 52.8713 83.7568V83.8365L53.3912 81.2056ZM64.5293 71.9974L62.8296 72.9143C62.7896 72.9342 62.7296 72.994 62.6896 73.0338C64.2493 72.8345 64.6093 72.1967 65.949 71.9775C66.9888 72.7349 67.5887 73.7713 68.0087 75.1266C67.3088 75.7644 66.4289 76.3623 65.5891 76.8805C66.049 76.4421 66.8889 75.6448 66.8489 74.6682C63.6094 74.8476 63.3295 75.306 62.1497 77.5582C62.6896 77.3788 62.2297 77.7575 62.8296 77.0001C63.8694 75.6448 63.1295 76.5218 65.6891 75.8242C65.4891 76.3424 65.4691 76.2826 65.0692 76.7012C64.5293 77.2792 64.6692 76.9802 64.3293 77.618C65.869 77.4386 66.8489 76.6214 67.7087 75.4854C68.3486 75.6647 68.1286 75.4854 68.4286 75.9238C68.2286 74.5486 67.6487 72.8943 66.7489 71.9775C66.109 71.3397 65.4891 71.5191 64.6492 71.9376L64.5293 71.9974ZM74.7075 60.9556C74.4875 59.9192 74.3076 59.7598 73.9276 58.823C73.9476 58.7632 74.0276 58.7234 74.0676 58.7034C74.1076 58.6835 74.1876 58.6237 74.2076 58.6038C74.2476 58.5838 74.3276 58.524 74.3476 58.524C74.9874 58.1254 74.2276 58.5639 74.6075 58.4244C75.4274 59.2017 74.7075 58.8828 75.5074 60.4175L74.7075 60.9556ZM64.7892 80.3087C65.3091 80.229 65.6291 80.1293 66.209 80.1891L66.9888 80.4482C67.0288 80.3884 67.0888 80.5279 67.1288 80.5678C66.149 81.7038 66.4489 80.9265 65.0492 81.0461C64.3493 81.1059 64.2093 81.4846 63.4495 81.7038C64.2293 80.9066 64.2093 81.385 64.7892 80.3087ZM65.969 82.3616L66.049 82.3217L66.069 82.3416L65.969 82.3616ZM39.3137 70.9212C38.2138 70.1638 37.8139 68.1707 37.7739 66.6758C38.9137 66.3769 39.1537 66.6758 39.6136 67.6126C39.5536 67.5727 39.4736 67.5329 39.4136 67.5129L38.3138 67.0745C38.5138 68.8683 39.1137 69.3865 39.3137 70.9212ZM69.3884 67.9714C68.9285 67.3336 68.9485 67.6325 68.2286 67.3734C74.0076 65.6394 69.0685 65.8188 72.4079 65.1611L72.6079 63.8456C73.4077 63.726 74.1076 63.4869 74.6275 63.168C74.7075 62.3707 74.6075 62.1316 74.4475 61.5735C74.0676 60.278 74.5875 61.0951 73.7277 60.4574C71.2681 58.6835 74.4675 59.7797 72.6079 58.3646C73.4277 57.946 73.1478 58.4443 73.4277 57.667C72.7478 56.9296 72.8678 57.0292 71.768 57.1289C72.7678 56.4313 72.2279 56.8498 72.5879 55.8134C73.0078 54.6574 72.8878 55.4547 73.4077 54.478L72.4679 54.0595C73.2877 53.6011 73.0478 54.0794 73.4877 53.322C72.8878 52.9035 72.6279 53.6011 71.888 52.8836C73.8476 52.8238 74.2676 53.1427 75.9873 53.4416L75.8073 55.1557C75.1674 55.355 76.1273 54.7969 75.4074 55.1557C75.5474 57.1887 75.7873 62.9487 75.1274 64.0848L71.0681 70.104C70.5482 69.7253 70.6082 69.6256 70.2683 68.948C69.7884 68.0112 69.6684 68.1109 69.3884 67.9714C70.1883 70.0243 71.4481 72.0971 72.2279 74.5287L72.2479 74.6283V74.6483L72.2879 74.728V74.7479L72.3079 74.8276V74.8476L72.3479 74.9074V74.9472L72.3679 75.007V75.0269L72.3879 75.0867V75.1067L72.4079 75.1864L72.4279 75.2063L72.4479 75.286V75.306L72.4679 75.3458V75.3658L72.4879 75.4455L72.5079 75.5252V75.5452L72.5479 75.6448V75.6647L72.5679 75.7644L72.6079 75.8641L72.6279 75.9637V75.9836L72.6479 76.0833L72.6679 76.1032L72.6879 76.1829V76.2228L72.7078 76.2826V76.3424H72.7278L72.7478 76.4421V76.462V76.5018L72.7678 76.5616V76.5816L72.7878 76.6812H72.8078V76.7211L72.8278 76.8008V76.8207L72.8478 76.9204V76.9403L72.8678 77.04H72.8878L72.9078 77.1596L72.9278 77.2592V77.2792L72.9478 77.3788V77.3987L72.9678 77.4785L72.9878 77.5183V77.5981L73.0078 77.6379L73.0278 77.6977V77.7575L73.0478 77.8173V77.8771L73.0678 77.917L73.0878 77.9967V78.0365L73.1078 78.1163V78.1362L73.1278 78.2358V78.2558L73.1478 78.3554V78.3754L73.1678 78.475L73.1878 78.5946L73.2078 78.6943L73.2278 78.7341V78.8139L73.2477 78.8537L73.2677 78.9135V78.9733L73.2877 79.0331V79.0929L73.3077 79.1527V79.2125L73.3277 79.2523V79.3321L73.3477 79.3719V79.4516L73.3677 79.4716L73.3877 79.5712V79.5912L73.4077 79.6908V79.7107L73.4277 79.8104L73.4477 79.93L73.4677 80.0296V80.0496L73.4877 80.1492V80.1891L73.5077 80.2489V80.3087L73.5277 80.3685V80.4283L73.5477 80.4881V80.5479L73.5677 80.5877L73.5877 80.6674V80.7073L73.6077 80.787V80.807L73.6277 80.9066V80.9265L73.6477 81.0262L73.6677 81.1458L73.6877 81.2454V81.2654L73.7077 81.365V81.385L73.7277 81.4647L69.3884 67.9714ZM59.0702 79.1925C59.5501 78.9334 61.2298 78.3953 61.9097 78.2159C61.6098 78.6743 61.9297 78.3355 61.5298 78.6743L60.53 79.2523C60.53 80.5279 61.3898 80.6076 59.9901 80.7472L59.9501 79.4317L59.0702 79.1925ZM79.8666 60.3776C81.2064 61.2546 79.8666 60.9955 82.0662 62.0319L82.0062 64.5432L80.5665 65.4002C81.5263 63.5267 81.5663 65.8587 81.7863 62.4903L80.6265 61.8127C80.1266 61.414 79.9666 60.9756 79.8666 60.3776ZM81.0264 61.2945C80.9464 61.1549 80.3865 61.5137 80.7864 59.2615C81.1464 57.368 81.3663 57.9062 82.0062 57.7268C82.0062 58.8429 82.3062 61.2347 81.0264 61.2945ZM81.5863 54.8767C81.9262 53.7207 83.146 51.2093 84.5458 50.8107C84.5458 50.8107 84.9457 50.7908 85.0057 52.186C85.0857 53.5213 84.8057 55.0361 84.0859 56.0526C83.166 57.3481 83.306 59.5804 82.5861 60.9756C82.6061 59.8196 82.9261 58.4842 83.226 57.2883C83.566 55.8732 83.506 55.7138 82.7661 53.6808C82.7461 53.621 82.7061 53.5612 82.6861 53.5014C82.2062 55.1557 82.4661 54.5378 81.5863 54.8767ZM43.273 76.9204L43.293 76.9802C43.293 76.9603 43.273 76.9403 43.273 76.9204ZM49.8518 90.6728L51.5715 92.2673C52.6913 93.7023 51.7515 93.1243 53.0713 94.9979C53.5712 95.6755 54.331 96.6521 55.1709 97.6487L59.4501 99.2631H59.4701V99.283H59.4901H59.5101H59.5301H59.5501H59.5701H59.5901H59.6101L59.6301 99.303H59.6501H59.6701H59.6901H59.7101H59.7301H59.7501H59.7701V99.3229H59.7901H59.8101H59.8301H59.8501H59.8701H59.8901L59.9101 99.3428H59.9501H59.9701H60.0101H60.0301H60.05L60.07 99.3628H60.11H60.13H60.15H60.17H60.19L60.21 99.3827H60.25H60.29L60.33 99.4026H60.37H60.39H60.43L60.47 99.4226H60.51H60.57L60.61 99.4425H60.6699H60.7099L60.7699 99.4624H60.8299L60.8899 99.4824H60.9499C62.2097 99.6617 61.5098 100.18 63.5094 99.6617C65.5091 99.1635 65.3691 99.582 66.9688 98.8246L67.0088 98.8047H67.0288L67.0688 98.7848L67.1088 98.7648L67.1888 98.725L67.2088 98.705L67.2688 98.6851L67.3288 98.6452H67.3488L67.3888 98.6253L67.4288 98.6054H67.4488L67.4888 98.5655L67.5287 98.5456H67.5487L67.6087 98.5057L67.6687 98.4858L67.7287 98.4459L67.7887 98.426L67.8487 98.3861L67.8887 98.3662L67.9087 98.3463L67.9687 98.3263L68.0287 98.2865L68.0886 98.2666L68.1486 98.2267H68.1686L68.2086 98.1868L68.2686 98.147L68.3486 98.127V98.1071L68.4086 98.0872V98.0672L68.4686 98.0473L68.5286 98.0075H68.5486L68.5886 97.9676L68.6685 97.9477L68.7285 97.9078C68.9485 97.7683 69.1485 97.6487 69.3684 97.5092H69.3884L69.4484 97.4693L69.5084 97.4295C70.6882 96.692 71.808 95.8549 72.2279 95.1972C72.9878 94.0412 74.2676 90.4735 74.2676 90.4735C74.4475 89.9952 74.6275 89.477 74.8275 88.9588C75.0874 88.321 75.3674 87.9622 75.5474 87.3842C75.7673 86.7464 75.5274 84.833 77.367 83.099C77.587 83.2784 77.687 83.119 77.727 83.119H77.747L78.1869 83.3781C78.0269 83.5176 77.847 83.7169 77.647 83.9561V83.976C77.607 84.0956 77.587 84.255 77.567 84.4145L78.2469 83.4179L82.1062 83.1787C83.306 82.2619 82.4262 82.3815 82.7061 81.6839C87.6852 82.5011 92.1045 81.3052 93.2843 75.8043C94.1041 75.6049 94.904 75.4056 95.6039 75.1067C96.8437 74.5486 96.2637 74.8077 96.9836 73.7314C97.5035 72.9342 97.7435 72.8943 98.4034 72.396C101.783 69.8449 102.583 72.8943 104.942 70.682C105.942 69.7652 107.242 69.1473 107.722 67.9315C106.842 68.1906 106.082 68.5095 104.982 68.4497C104.962 68.4098 104.942 68.3301 104.922 68.2903C104.682 67.6525 103.922 67.0944 103.882 66.9549C103.862 66.8751 103.782 66.8751 103.742 66.8353C104.082 65.7191 104.482 66.0779 104.642 65.1212C104.862 63.7659 105.322 64.9817 106.962 64.9219C108.422 64.8621 108.142 64.8621 109.341 65.2009C108.822 60.836 112.021 61.7529 112.881 58.544C110.401 60.7762 112.181 59.8196 109.002 60.5371C108.382 60.6766 107.942 60.6168 107.442 60.4972C106.542 58.2849 108.122 58.524 108.942 56.8897C107.502 57.0491 106.742 57.4677 105.882 56.5309C105.322 55.7337 105.842 56.3316 105.662 55.8333C105.642 55.7736 105.622 55.7138 105.602 55.654C105.402 55.1756 105.082 55.0361 104.582 54.6773C104.442 53.621 104.362 53.5811 104.842 52.744C105.802 52.6444 105.142 53.0629 106.282 52.9832C108.242 52.8437 107.622 52.0265 108.402 50.7908C109.062 49.7344 108.802 50.5118 109.042 49.0568C109.321 47.4224 108.942 47.542 108.442 45.7881C106.802 45.4692 106.202 45.4692 105.282 43.9544C105.862 43.3366 105.802 43.8149 106.042 43.0775C104.842 42.0809 101.483 40.5662 104.342 38.7325C106.642 37.2775 105.002 38.6727 106.242 36.5002C107.062 35.0453 106.862 35.404 106.382 33.391L106.122 35.7628C105.682 36.0418 105.542 35.9621 105.102 36.281C103.223 37.5964 105.062 37.0184 100.783 35.8026C100.903 31.5972 100.383 30.9395 103.363 30.8398C102.523 29.2653 103.203 29.1855 103.842 27.6907C103.443 26.7539 103.702 27.7904 103.163 26.7739L103.622 25.3388C102.723 24.7409 101.363 23.6846 100.923 22.3492C100.403 20.7946 100.223 19.7382 98.6033 18.9808L98.6233 20.8942C97.4236 21.0537 96.3037 21.233 95.1439 20.5355C95.1439 19.4392 96.0638 19.4791 95.3839 18.5424C94.864 17.8049 94.3841 18.2832 93.5242 17.8647C93.5642 16.5293 94.2641 16.7685 93.5642 15.7719C91.0647 12.1843 89.6649 14.596 88.6051 15.453C86.5854 15.1341 86.4855 15.8915 84.7458 15.3335C84.4858 14.5362 84.7657 14.0379 84.2458 13.1211L83.466 11.7857C82.8861 10.55 79.8666 11.5266 78.7868 10.55C78.3669 10.1912 77.347 7.67993 77.1071 7.00227C76.7871 10.2909 77.687 8.57683 77.867 10.6098C77.2671 11.0682 77.1671 10.9885 76.6472 11.3273C75.9473 11.7857 76.1672 11.8256 75.5274 12.2641C74.0276 10.1713 72.9478 11.7857 71.648 10.7493C71.608 10.3507 71.988 10.0119 71.948 8.89572C68.2686 7.32117 70.6482 6.8229 68.7085 5.18855C66.9688 4.77 66.4489 6.28476 65.4291 6.80296C64.0294 7.54041 62.8496 6.28476 62.7496 5.0291C63.3295 3.95282 63.5694 4.7102 63.8494 3.43462C63.1295 2.57758 59.0702 2.07931 58.2104 2.11917L59.1502 2.87655C59.1502 3.43462 59.0502 3.37482 58.7503 3.91296C59.8701 4.07241 60.43 4.27172 60.7299 5.26827C60.13 6.24489 57.8504 6.72324 56.6506 6.32462L54.2311 3.95282C53.1512 4.31158 53.0513 4.51089 52.1514 5.00917L49.9518 6.02565C49.9118 6.04558 44.8727 6.26483 44.1928 6.28476C44.8327 7.14179 44.7727 6.20503 44.8527 7.62014C43.6129 8.19814 42.0732 7.9191 40.2135 8.67648C38.1539 9.51359 37.8139 8.51703 35.7543 8.13834C36.1342 9.25448 36.3542 8.77614 36.4941 10.0717C36.1142 10.3308 35.5743 10.5899 35.0144 10.829L33.6546 11.5665C33.6346 11.5266 33.5746 11.6462 33.5347 11.706C33.2947 12.8221 34.5945 13.4201 31.775 14.4366C30.5152 14.895 28.5555 14.6757 27.7357 15.7919C28.0556 17.1472 28.4955 16.3101 29.0954 17.7252C29.6953 19.1004 28.9954 18.2434 30.7951 19.0406C30.7551 20.3561 30.7751 19.1004 30.5952 19.6984L30.4752 21.4124C30.4552 21.3925 30.4552 21.532 30.4352 21.5918C28.2356 22.7877 28.3756 21.6317 26.6958 21.0736C24.9761 20.4956 24.5162 19.3994 22.7765 20.1568L22.8565 20.5355C22.9165 21.1533 22.4366 21.6715 22.0567 22.1698C21.1968 23.3258 19.937 24.9601 18.7172 25.7175C18.0773 26.0962 17.1775 26.2955 16.4376 26.7739C17.0975 27.4515 17.9974 27.2722 18.3373 28.3285C17.6374 28.9065 16.8576 28.767 16.3176 29.4646L16.1977 29.6639C16.1777 29.6838 16.1377 29.7436 16.1177 29.7635C14.9579 30.9594 11.6385 30.8797 11.1186 31.8364C11.0786 31.8962 11.0586 31.9559 11.0186 32.0157C10.8186 32.3944 11.0586 32.0955 10.7786 32.4542C10.1987 33.1717 9.47884 32.9724 9.05891 34.0088C10.1987 33.8295 10.8186 33.7099 11.6785 34.3477C11.3785 35.3442 11.0786 34.7264 10.4987 35.703C12.8982 36.58 13.7581 36.6796 8.47901 40.4466C7.09925 41.4232 7.69915 41.5229 6.71932 42.5792C6.01944 43.3166 5.45954 43.6953 4.89963 44.4726C6.67932 44.5324 8.35903 44.4328 8.45902 46.2664C8.559 47.841 6.93928 48.2795 5.83947 48.8176C5.59951 52.3255 4.29974 49.8341 4.31973 53.2024C8.91894 54.0196 5.71949 54.5976 9.93876 54.6375C12.4783 54.6574 12.7583 57.3082 10.9786 58.2649C9.47884 59.0622 7.13924 59.3811 5.63951 60.0388C4.69967 60.4374 3.9198 62.5103 2.12012 63.4271V70.2435C4.67967 69.4064 4.63968 70.662 5.99944 70.2435C8.89894 69.3466 15.1379 70.9212 12.0384 74.429C11.3785 75.1665 11.3185 76.0235 10.8986 76.9005C12.1584 77.0599 13.4581 76.8207 14.7379 76.9802C16.0777 77.1596 15.5578 77.7774 17.3975 78.0963C19.6371 78.475 22.8165 77.6778 23.7564 79.4317L23.8363 82.3616C23.7364 83.6571 22.9565 83.6571 22.7365 84.8928C23.4964 84.7932 24.3962 84.554 24.9561 84.4344C25.3761 84.3547 26.2959 84.3945 26.9958 84.2949C28.6555 84.0757 29.8353 83.7767 31.375 83.4379L31.395 83.5375L31.475 83.4777L31.715 83.7368L31.575 83.8763L31.775 83.8564C32.1749 83.8165 32.7148 83.8165 33.1747 83.8763C33.5347 83.8963 33.8346 83.9561 33.9946 84.0358C33.9146 84.9925 33.5547 85.0323 32.9948 85.0921C32.5948 85.132 32.1149 85.1719 31.515 85.5107L31.295 85.6303H31.555C32.2949 85.6303 32.7548 85.4708 33.1147 85.3313C33.8346 85.0722 34.2745 84.9128 36.2342 86.3079C36.0942 89.477 37.414 89.6962 39.1137 89.9952C39.4736 90.055 39.8536 90.1347 40.2335 90.2144C41.6332 90.5732 41.6932 90.7924 41.7932 91.1512C41.8532 91.4103 41.9332 91.7092 42.3931 92.1677C42.773 92.5463 43.213 92.7855 43.6729 92.925C44.1528 93.0646 44.6527 93.1044 45.1726 93.1044C45.3726 93.0845 45.5126 93.0646 45.5926 93.0247C45.5926 93.0845 45.6126 93.1841 45.6725 93.2838L45.6925 93.3237H45.7325C46.5324 93.1642 46.6524 92.925 46.9723 92.2075L47.0123 92.1677L47.0723 92.068L48.1321 91.4701L48.0121 92.2274C48.752 91.6495 48.0721 92.068 48.4921 91.1512C48.692 90.6728 48.732 90.8123 49.092 90.3938C49.9318 90.5333 49.5719 90.334 49.7718 91.0914C49.8118 90.9319 49.8318 90.7924 49.8518 90.6728Z" fill="white"/>
<path fill-rule="evenodd" clip-rule="evenodd" d="M58.1699 77.2391C58.1299 77.3188 58.0699 77.4185 58.0499 77.4384C58.0499 77.4583 57.9099 77.8171 57.9099 77.8171L58.4498 77.0199L58.1699 77.2391ZM58.1699 77.2391C58.1899 77.1992 58.2099 77.1793 58.2299 77.1594L57.25 76.9601L59.0697 76.103L58.4498 77.0199L59.5496 76.103L63.449 72.8941C63.229 72.9539 62.969 72.9938 62.6891 73.0336C62.7291 72.9938 62.7891 72.934 62.8291 72.9141L64.5288 71.9972L69.3879 67.9712C68.6081 67.7121 67.5083 67.9313 66.4084 67.8715C65.8485 67.8516 65.3886 67.8117 64.8487 67.7918C64.0889 67.7519 64.7287 67.9512 63.6889 67.4529L61.9092 67.0344C61.8892 67.0344 61.8292 67.0543 61.8092 67.0543L61.7893 68.7485L61.0694 69.0076C60.7894 67.9911 60.9094 68.4495 60.3095 67.6323L59.8696 66.9547L59.6696 64.3238C56.5902 65.7787 58.7098 64.1842 54.8705 66.0578C55.1904 67.7718 55.3704 68.3897 55.4104 70.2632C55.4704 71.778 55.0504 73.6116 55.4504 74.9869C54.2306 75.0865 54.5905 74.5683 54.4905 72.0969C54.4505 72.077 54.3905 72.0172 54.3905 72.057C54.3905 72.077 54.3106 72.0172 54.3106 72.0172C54.2706 71.9773 54.2306 71.9374 54.2106 71.8976C53.7906 71.4392 54.3705 72.4556 54.2106 71.8976L54.1906 69.6055C53.6107 70.1636 53.5707 70.7017 53.0508 71.3794C50.6112 74.5484 49.8113 73.3127 49.6514 77.6178C49.5914 79.1724 50.1513 82.4012 49.9113 83.3181C49.8913 83.3579 49.8913 83.3779 49.8913 83.3978L49.8713 83.4576L49.8513 83.5174V83.5373V83.5971L49.8313 83.617V83.6569V83.6768V83.6967L49.8113 83.7366V83.7565V83.7765V83.7964V83.8163V83.8363L49.7913 83.8562V83.8961V83.916V83.9359V83.9559V83.9758L49.7713 83.9957V84.0156V84.0356V84.0555V84.0754V84.0954V84.1153V84.1352V84.1552L49.7513 84.1751V84.195L52.7508 81.7236L52.9508 78.9532C52.9908 78.9532 53.0308 78.9731 53.0908 78.9731C53.3707 78.9731 52.9308 79.1126 53.3507 78.9731L53.7906 75.7642C55.3904 75.0865 54.9904 75.2859 55.2704 75.6845L54.0906 76.0233L53.5507 80.7669L53.9506 80.727L58.1699 77.2391ZM64.5288 71.9972L63.449 72.8941C64.4288 72.6151 64.8487 72.1567 65.9485 71.9773C66.9883 72.7347 67.5882 73.7711 68.0082 75.1264C67.3083 75.7642 66.4284 76.3621 65.5886 76.8803C66.0485 76.4418 66.8884 75.6446 66.8484 74.668C63.6089 74.8474 63.329 75.3058 62.1492 77.558C62.6891 77.3786 62.2292 77.7573 62.8291 76.9999C63.8689 75.6446 63.129 76.5216 65.6886 75.824C65.4886 76.3422 65.4686 76.2824 65.0687 76.701C64.5288 77.279 64.6688 76.98 64.3288 77.6178C65.8685 77.4384 66.8484 76.6212 67.7082 75.4852C68.3481 75.6645 68.1282 75.4852 68.4281 75.9236C68.2281 74.5484 67.6482 72.8941 66.7484 71.9773C66.1085 71.3395 65.4886 71.5189 64.6488 71.9374L64.5288 71.9972ZM69.3879 67.9712L73.7272 81.4645L73.7072 81.3848V81.3648L73.6872 81.2652V81.2452L73.6672 81.1456L73.6472 81.026L73.6272 80.9263V80.9064L73.6072 80.8067V80.7868L73.5872 80.7071V80.6672L73.5672 80.5875L73.5472 80.5476V80.4879L73.5272 80.4281V80.3683L73.5072 80.3085V80.2487L73.4872 80.1889V80.149L73.4672 80.0494V80.0294L73.4472 79.9298L73.4272 79.8102L73.4072 79.7105V79.6906L73.3872 79.591V79.571L73.3672 79.4714L73.3472 79.4514V79.3717L73.3272 79.3318V79.2521L73.3073 79.2123V79.1525L73.2873 79.0927V79.0329L73.2673 78.9731V78.9133L73.2473 78.8535L73.2273 78.8136V78.7339L73.2073 78.6941L73.1873 78.5944L73.1673 78.4748L73.1473 78.3752V78.3552L73.1273 78.2556V78.2356L73.1073 78.136V78.1161L73.0873 78.0363V77.9965L73.0673 77.9167L73.0473 77.8769V77.8171L73.0273 77.7573V77.6975L73.0073 77.6377L72.9873 77.5978V77.5181L72.9673 77.4783L72.9473 77.3985V77.3786L72.9273 77.279V77.259L72.9073 77.1594L72.8873 77.0398H72.8673L72.8473 76.9401V76.9202L72.8273 76.8205V76.8006L72.8073 76.7209V76.681H72.7873L72.7673 76.5814V76.5614L72.7473 76.5016V76.4618V76.4418L72.7273 76.3422H72.7074V76.2824L72.6874 76.2226V76.1827L72.6674 76.103L72.6474 76.0831L72.6274 75.9834V75.9635L72.6074 75.8638L72.5674 75.7642L72.5474 75.6645V75.6446L72.5074 75.545V75.525L72.4874 75.4453L72.4674 75.3656V75.3456L72.4474 75.3058V75.2859L72.4274 75.2061L72.4074 75.1862L72.3874 75.1065V75.0865L72.3674 75.0267V75.0068L72.3474 74.947V74.9072L72.3074 74.8474V74.8274L72.2874 74.7477V74.7278L72.2474 74.6481V74.6281L72.2274 74.5285C71.4476 72.0969 70.1878 70.024 69.3879 67.9712C69.6679 68.1107 69.7879 68.011 70.2678 68.9478C70.6077 69.6254 70.5477 69.7251 71.0676 70.1038L75.1269 64.0846C75.7868 62.9485 75.5469 57.1885 75.4069 55.1555C76.1268 54.7967 75.1669 55.3548 75.8068 55.1555L75.9868 53.4414C74.2671 53.1424 73.8472 52.8236 71.8875 52.8833C72.6274 53.6009 72.8873 52.9033 73.4872 53.3218C73.0473 54.0792 73.2873 53.6009 72.4674 54.0593L73.4072 54.4778C72.8873 55.4545 73.0073 54.6572 72.5874 55.8132C72.2274 56.8496 72.7673 56.4311 71.7675 57.1287C72.8673 57.029 72.7473 56.9293 73.4272 57.6668C73.1473 58.4441 73.4272 57.9458 72.6074 58.3644C74.467 59.7795 71.2676 58.6833 73.7272 60.4571C74.587 61.0949 74.0671 60.2778 74.4471 61.5733C74.607 62.1314 74.707 62.3705 74.627 63.1678C74.1071 63.4867 73.4072 63.7258 72.6074 63.8454L72.4074 65.1609C69.068 65.8186 74.0071 65.6392 68.2281 67.3732C68.948 67.6323 68.928 67.3334 69.3879 67.9712ZM60.9294 81.2452C60.0496 82.0624 56.7101 81.8033 55.4903 82.5009C55.0504 82.7401 54.6505 83.6569 54.5705 83.5174C54.5505 83.4576 54.4705 83.5971 54.3705 83.637L55.0904 82.1421C57.0701 81.8232 58.7498 81.1456 60.9294 81.2452ZM62.1692 71.5388C62.1492 71.5986 62.0492 71.6783 61.7493 71.6584C61.6293 72.4357 59.8296 74.9072 59.3697 75.4852L57.35 75.1463L58.6098 75.7443C60.0296 75.8838 60.3095 74.947 60.8494 74.09C61.3293 73.3326 61.8092 72.6948 62.2892 71.8577C62.2092 71.6783 62.1692 71.5787 62.1692 71.5388ZM52.9508 78.9532C52.5909 78.8934 53.5507 78.6143 52.9508 78.9532V78.9532ZM53.3907 81.2054L53.0508 81.2452C52.9708 82.1421 53.0108 82.9194 52.8708 83.7565V83.8363L53.3907 81.2054ZM73.9271 58.8228C73.9471 58.763 74.0271 58.7231 74.0671 58.7032C74.1071 58.6833 74.1871 58.6235 74.2071 58.6036C74.2471 58.5836 74.3271 58.5238 74.3471 58.5238C74.4271 58.464 74.487 58.4242 74.527 58.4042C74.487 58.4441 74.467 58.484 74.607 58.4242C75.4269 59.2015 74.707 58.8826 75.5069 60.4173L74.707 60.9554C74.487 59.919 74.3071 59.7596 73.9271 58.8228ZM74.527 58.4042C74.587 58.3644 74.687 58.3046 74.527 58.4042V58.4042ZM64.7887 80.3085C65.3086 80.2287 65.6286 80.1291 66.2085 80.1889L66.9883 80.448C67.0283 80.3882 67.0883 80.5277 67.1283 80.5676C66.1485 81.7036 66.4484 80.9263 65.0487 81.0459C64.3488 81.1057 64.2088 81.4844 63.449 81.7036C64.2288 80.9064 64.2088 81.3848 64.7887 80.3085ZM59.0697 79.1923C59.5496 78.9332 61.2294 78.3951 61.9092 78.2157C61.6093 78.6741 61.9292 78.3353 61.5293 78.6741L60.5295 79.2521C60.5295 80.5277 61.3893 80.6074 59.9896 80.747L59.9496 79.4315L59.0697 79.1923ZM82.7056 81.6837C87.6847 82.5009 92.104 81.305 93.2838 75.8041C94.1036 75.6047 94.9035 75.4054 95.6034 75.1065C96.8432 74.5484 96.2633 74.8075 96.9831 73.7312C97.503 72.934 97.743 72.8941 98.4029 72.3958C101.782 69.8447 102.582 72.8941 104.942 70.6818C105.942 69.7649 107.241 69.1471 107.721 67.9313C106.841 68.1904 106.082 68.5093 104.982 68.4495C104.962 68.4096 104.942 68.3299 104.922 68.29C104.682 67.6523 103.922 67.0942 103.882 66.9547C103.862 66.8749 103.782 66.8749 103.742 66.8351C104.082 65.7189 104.482 66.0777 104.642 65.121C104.862 63.7657 105.322 64.9815 106.961 64.9217C108.421 64.8619 108.141 64.8619 109.341 65.2007C108.821 60.8358 112.021 61.7527 112.88 58.5438C110.401 60.776 112.18 59.8194 109.001 60.5369C108.381 60.6764 107.941 60.6166 107.441 60.497C106.541 58.2847 108.121 58.5238 108.941 56.8895C107.501 57.0489 106.741 57.4675 105.882 56.5307C105.322 55.7335 105.842 56.3314 105.662 55.8331C105.642 55.7733 105.622 55.7136 105.602 55.6538C105.402 55.1754 105.082 55.0359 104.582 54.6771C104.442 53.6208 104.362 53.5809 104.842 52.7438C105.802 52.6442 105.142 53.0627 106.282 52.983C108.241 52.8435 107.621 52.0263 108.401 50.7906C109.061 49.7342 108.801 50.5116 109.041 49.0566C109.321 47.4222 108.941 47.5418 108.441 45.7879C106.801 45.469 106.202 45.469 105.282 43.9542C105.862 43.3364 105.802 43.8147 106.042 43.0773C104.842 42.0807 101.482 40.566 104.342 38.7323C106.641 37.2773 105.002 38.6725 106.242 36.5C107.061 35.0451 106.861 35.4038 106.382 33.3908L106.122 35.7626C105.682 36.0416 105.542 35.9619 105.102 36.2808C103.222 37.5962 105.062 37.0182 100.782 35.8024C100.902 31.597 100.383 30.9393 103.362 30.8396C102.522 29.2651 103.202 29.1853 103.842 27.6905C103.442 26.7537 103.702 27.7902 103.162 26.7737L103.622 25.3386C102.722 24.7407 101.362 23.6844 100.922 22.349C100.403 20.7944 100.223 19.738 98.6029 18.9806L98.6228 20.894C97.4231 21.0535 96.3033 21.2328 95.1434 20.5353C95.1434 19.439 96.0633 19.4789 95.3834 18.5421C94.8635 17.8047 94.3836 18.283 93.5237 17.8645C93.5637 16.5291 94.2636 16.7683 93.5637 15.7717C91.0642 12.1841 89.6644 14.5958 88.6046 15.4528C86.5849 15.1339 86.485 15.8913 84.7453 15.3332C84.4853 14.536 84.7653 14.0377 84.2453 13.1209L83.4655 11.7855C82.8856 10.5498 79.8661 11.5264 78.7863 10.5498C78.3664 10.191 77.3465 7.67973 77.1066 7.00207C76.7866 10.2907 77.6865 8.57662 77.8665 10.6096C77.2666 11.068 77.1666 10.9883 76.6467 11.3271C75.9468 11.7855 76.1668 11.8254 75.5269 12.2639C74.0271 10.1711 72.9473 11.7855 71.6475 10.7491C71.6075 10.3505 71.9875 10.0117 71.9475 8.89552C68.2681 7.32097 70.6477 6.82269 68.708 5.18834C66.9684 4.76979 66.4484 6.28455 65.4286 6.80276C64.0289 7.54021 62.8491 6.28455 62.7491 5.0289C63.329 3.95262 63.5689 4.71 63.8489 3.43441C63.129 2.57738 59.0697 2.0791 58.2099 2.11896L59.1497 2.87634C59.1497 3.43441 59.0497 3.37462 58.7498 3.91276C59.8696 4.07221 60.4295 4.27152 60.7294 5.26807C60.1295 6.24469 57.8499 6.72304 56.6501 6.32441L54.2306 3.95262C53.1508 4.31138 53.0508 4.51069 52.1509 5.00897L49.9513 6.02545C49.9113 6.04538 44.8722 6.26462 44.1923 6.28455C44.8322 7.14159 44.7722 6.20483 44.8522 7.61993C43.6124 8.19793 42.0727 7.9189 40.213 8.67628C38.1534 9.51338 37.8134 8.51683 35.7538 8.13814C36.1337 9.25428 36.3537 8.77593 36.4937 10.0715C36.1137 10.3306 35.5738 10.5897 35.0139 10.8288L33.6541 11.5663C33.6342 11.5264 33.5742 11.646 33.5342 11.7058C33.2942 12.8219 34.594 13.4199 31.7745 14.4364C30.5147 14.8948 28.555 14.6755 27.7352 15.7917C28.0551 17.147 28.495 16.3099 29.0949 17.725C29.6948 19.1002 28.995 18.2432 30.7946 19.0404C30.7547 20.3559 30.7746 19.1002 30.5947 19.6981L30.4747 21.4122C30.4547 21.3923 30.4547 21.5318 30.4347 21.5916C28.2351 22.7875 28.3751 21.6315 26.6954 21.0734C24.9757 20.4954 24.5157 19.3992 22.776 20.1566L22.856 20.5353C22.916 21.1531 22.4361 21.6713 22.0562 22.1696C21.1963 23.3256 19.9365 24.9599 18.7167 25.7173C18.0769 26.096 17.177 26.2953 16.4371 26.7737C17.097 27.4513 17.9969 27.2719 18.3368 28.3283C17.6369 28.9063 16.8571 28.7668 16.3172 29.4644L16.1972 29.6637C16.1772 29.6836 16.1372 29.7434 16.1172 29.7633C14.9574 30.9592 11.638 30.8795 11.1181 31.8362C11.0781 31.896 11.0581 31.9557 11.0181 32.0155C10.8181 32.3942 11.0581 32.0953 10.7781 32.454C10.1982 33.1715 9.47835 32.9722 9.05842 34.0086C10.1982 33.8293 10.8181 33.7097 11.678 34.3475C11.378 35.344 11.0781 34.7262 10.4982 35.7028C12.8978 36.5797 13.7576 36.6794 8.47853 40.4464C7.09877 41.423 7.69866 41.5226 6.71883 42.579C6.01895 43.3164 5.45905 43.6951 4.89915 44.4724C6.67884 44.5322 8.35855 44.4326 8.45853 46.2662C8.55851 47.8408 6.93879 48.2793 5.83898 48.8174C5.59903 52.3253 4.29925 49.8339 4.31925 53.2022C8.91845 54.0194 5.71901 54.5974 9.93827 54.6373C12.4778 54.6572 12.7578 57.308 10.9781 58.2647C9.47835 59.062 7.13876 59.3809 5.63902 60.0386C4.69918 60.4372 3.91932 62.51 2.11963 63.4269V70.2433C4.67919 69.4062 4.63919 70.6618 5.99896 70.2433C8.89845 69.3464 15.1374 70.9209 12.0379 74.4288C11.378 75.1663 11.318 76.0233 10.8981 76.9003C12.1579 77.0597 13.4577 76.8205 14.7374 76.98C16.0772 77.1594 15.5573 77.7772 17.397 78.0961C19.6366 78.4748 22.816 77.6776 23.7559 79.4315L23.8359 82.3614C23.7359 83.6569 22.956 83.6569 22.736 84.8926C23.4959 84.793 24.3958 84.5538 24.9557 84.4342C25.3756 84.3545 26.2954 84.3943 26.9953 84.2947C28.655 84.0754 29.8348 83.7765 31.3745 83.4376L31.3945 83.5373L31.4745 83.4775L31.7145 83.7366L31.5745 83.8761L31.7745 83.8562C32.1744 83.8163 32.7143 83.8163 33.1742 83.8761C33.5342 83.8961 33.8341 83.9559 33.9941 84.0356C33.9141 84.9923 33.5542 85.0321 32.9943 85.0919C32.5943 85.1318 32.1144 85.1716 31.5145 85.5105L31.2946 85.6301H31.5545C32.2944 85.6301 32.7543 85.4706 33.1142 85.3311C33.8341 85.072 34.274 84.9125 36.2337 86.3077C36.0937 89.4768 37.4135 89.696 39.1132 89.995C39.4731 90.0548 39.8531 90.1345 40.233 90.2142C41.6328 90.573 41.6927 90.7922 41.7927 91.151C41.8527 91.4101 41.9327 91.709 42.3926 92.1674C42.7726 92.5461 43.2125 92.7853 43.6724 92.9248C44.1523 93.0643 44.6522 93.1042 45.1721 93.1042C45.3721 93.0843 45.5121 93.0643 45.5921 93.0245C45.5921 93.0843 45.6121 93.1839 45.6721 93.2836L45.6921 93.3234H45.732C46.5319 93.164 46.6519 92.9248 46.9718 92.2073L47.0118 92.1674L47.0718 92.0678L48.1316 91.4699L48.0117 92.2272C48.7515 91.6492 48.0716 92.0678 48.4916 91.151C48.6915 90.6726 48.7315 90.8121 49.0915 90.3936C49.9313 90.5331 49.5714 90.3338 49.7713 91.0912C49.8113 90.9317 49.8313 90.7922 49.8513 90.6726L51.571 92.2671C52.6908 93.7021 51.751 93.1241 53.0708 94.9977C53.5707 95.6753 54.3306 96.6519 55.1704 97.6485L59.4497 99.2629H59.4697V99.2828H59.4897H59.5097H59.5296H59.5496H59.5696H59.5896H59.6096L59.6296 99.3028H59.6496H59.6696H59.6896H59.7096H59.7296H59.7496H59.7696V99.3227H59.7896H59.8096H59.8296H59.8496H59.8696H59.8896L59.9096 99.3426H59.9496H59.9696H60.0096H60.0296H60.0496L60.0696 99.3626H60.1095H60.1295H60.1495H60.1695H60.1895L60.2095 99.3825H60.2495H60.2895L60.3295 99.4024H60.3695H60.3895H60.4295L60.4695 99.4223H60.5095H60.5695L60.6095 99.4423H60.6694H60.7094L60.7694 99.4622H60.8294L60.8894 99.4821H60.9494C62.2092 99.6615 61.5093 100.18 63.509 99.6615C65.5086 99.1632 65.3686 99.5818 66.9684 98.8244L67.0083 98.8045H67.0283L67.0683 98.7846L67.1083 98.7646L67.1883 98.7248L67.2083 98.7048L67.2683 98.6849L67.3283 98.645H67.3483L67.3883 98.6251L67.4283 98.6052H67.4483L67.4883 98.5653L67.5283 98.5454H67.5482L67.6082 98.5055L67.6682 98.4856L67.7282 98.4457L67.7882 98.4258L67.8482 98.3859L67.8882 98.366L67.9082 98.3461L67.9682 98.3261L68.0282 98.2863L68.0882 98.2663L68.1481 98.2265H68.1681L68.2081 98.1866L68.2681 98.1468L68.3481 98.1268V98.1069L68.4081 98.087V98.067L68.4681 98.0471L68.5281 98.0072H68.5481L68.5881 97.9674L68.6681 97.9474L68.728 97.9076C68.948 97.7681 69.148 97.6485 69.3679 97.509H69.3879L69.4479 97.4691L69.5079 97.4292C70.6877 96.6918 71.8075 95.8547 72.2274 95.197C72.9873 94.041 74.2671 90.4733 74.2671 90.4733C74.4471 89.995 74.627 89.4768 74.827 88.9585C75.0869 88.3208 75.3669 87.962 75.5469 87.384C75.7668 86.7462 75.5269 84.8328 77.3665 83.0988C77.5865 83.2782 77.6865 83.1188 77.7265 83.1188H77.7465L78.1864 83.3779C78.0264 83.5174 77.8465 83.7167 77.6465 83.9559V83.9758C77.6065 84.0954 77.5865 84.2548 77.5665 84.4143L78.2464 83.4177L82.1057 83.1785C83.3055 82.2617 82.4257 82.3813 82.7056 81.6837ZM59.6496 71.3794C59.6896 71.1601 59.7496 70.9409 59.8496 70.7416C59.4497 70.4625 59.1497 70.044 59.0297 69.5457C58.9897 69.4461 59.0697 69.4859 59.1297 69.5258V69.5058C59.0097 69.3863 58.8498 69.2069 58.6498 68.9278C58.5898 68.868 58.5498 68.8083 58.5098 68.7485L58.1699 68.1904C57.9499 67.8914 57.8099 67.5327 57.77 67.134C57.75 67.134 57.73 67.134 57.71 67.134C57.63 67.134 57.57 67.154 57.25 67.2736C57.39 68.1107 57.49 68.868 57.53 70.2034C57.55 70.901 57.51 71.5189 57.45 72.1367C57.43 72.4556 57.41 72.7546 57.41 73.0336C57.51 73.0336 57.59 73.0536 57.71 73.0735L58.4498 73.1931C58.7098 72.8144 59.0097 72.3958 59.2497 71.9972C59.4897 71.6185 59.6496 71.4192 59.6496 71.3794ZM59.1297 69.5258C59.1697 69.5656 59.2097 69.6055 59.1297 69.5258V69.5258ZM49.9913 93.6822L49.7913 93.4829C49.6914 93.5826 49.5914 93.6623 49.4714 93.7619C49.1115 94.1008 48.6515 94.3001 48.1516 94.3399C48.1116 94.3798 48.0716 94.4197 48.0316 94.4595C47.5317 94.9578 46.9918 95.2169 46.132 95.3763L46.092 95.3963C45.6121 95.476 45.1321 95.4162 44.7122 95.197C44.5323 95.177 44.3523 95.177 44.1723 95.1571C43.8124 95.1172 43.4524 95.0375 43.0925 94.9379C42.6926 94.8183 42.2926 94.6588 41.9527 94.4595C41.5728 94.2403 41.2328 93.9812 40.8929 93.6623C40.493 93.2437 40.233 92.885 40.073 92.5661C40.013 92.4664 39.973 92.3867 39.9531 92.307C39.8931 92.307 39.8131 92.287 39.7131 92.2671C39.5131 92.2073 39.1132 92.1276 38.7533 92.0678C37.5735 91.8685 36.5336 91.6891 35.5538 90.7723C34.754 90.0348 34.254 89.0183 34.1341 87.4239C34.0141 87.3641 33.9141 87.3043 33.8341 87.2843V87.3043C33.8541 87.3043 33.8541 87.3043 33.8541 87.3043C33.6142 87.4039 33.3542 87.4837 32.9543 87.5833C32.5743 87.663 32.1144 87.7428 31.5545 87.7428H31.4145C30.6347 87.7627 29.8748 87.384 29.4749 86.6665C29.3549 86.4672 29.2749 86.2679 29.2349 86.0486C28.635 86.1682 27.9951 86.2878 27.2753 86.3675C26.8353 86.4273 26.3754 86.4472 25.9555 86.4672C25.6755 86.4672 25.4356 86.4871 25.3756 86.4871C25.3356 86.507 25.1556 86.5469 24.8757 86.6067C24.3558 86.7462 23.7359 86.8857 23.096 86.9654C22.856 87.0053 22.6161 87.0053 22.3561 86.9654C21.2163 86.7661 20.4564 85.6699 20.6564 84.5139C20.8364 83.4376 21.2363 82.9394 21.5962 82.4411C21.6562 82.3614 21.6962 82.3016 21.7162 82.2418L21.6762 80.3683C21.2963 80.3284 20.4964 80.3284 19.6966 80.3284C18.7967 80.3085 17.8969 80.3085 17.057 80.169C15.5173 79.9099 14.9774 79.4714 14.4775 79.0727C14.4775 79.0727 14.4975 79.0727 14.4575 79.0727C13.9776 79.013 13.3977 79.0329 12.8378 79.0329C12.0979 79.0528 11.378 79.0727 10.6381 78.993C10.3982 78.9532 10.1782 78.8934 9.95827 78.7738C8.91845 78.2755 8.47853 76.9999 8.99844 75.9635C9.09842 75.7841 9.1784 75.525 9.25839 75.2659C9.51834 74.5285 9.7583 73.8309 10.4582 73.0336C10.5582 72.9141 10.6381 72.8343 10.6781 72.7745C10.5182 72.6549 10.2982 72.5553 10.0183 72.4556C8.89845 72.057 7.4987 71.9773 6.61885 72.2563C5.35907 72.635 4.73918 72.4158 4.0193 72.1367C3.81934 72.077 3.59937 71.9972 2.8795 72.2165C2.63954 72.2962 2.37959 72.356 2.11963 72.356C0.939837 72.356 0 71.4192 0 70.2433V63.4269C0 62.6695 0.419927 61.932 1.1598 61.5534C1.75969 61.2345 2.2996 60.5568 2.73952 59.9788C3.35942 59.1816 3.89932 58.5039 4.79917 58.1053C5.57903 57.7665 6.49887 57.5074 7.41871 57.2682C8.0586 57.0888 8.69849 56.9094 9.23839 56.7101C6.8988 56.6503 6.49887 56.3115 5.87898 55.7933C5.759 55.6936 5.59903 55.5541 3.97931 55.2751C2.97948 55.0957 2.21961 54.2387 2.19962 53.2022C2.19962 50.4119 2.93949 49.8738 3.77934 49.3157C3.77934 49.2958 3.75935 49.2559 3.75935 49.236C3.73935 49.1562 3.69936 49.0167 3.71935 48.6779C3.77934 47.9404 4.19927 47.2628 4.91914 46.924C5.1591 46.8044 5.31907 46.7247 5.47905 46.6649C5.89897 46.4855 6.35889 46.4655 6.35889 46.3659C6.3389 46.1267 5.83898 46.6051 5.25909 46.5851C5.07912 46.5652 4.89915 46.5652 4.81916 46.5652C4.39923 46.5453 3.9993 46.4257 3.63937 46.1467C2.69953 45.469 2.49957 44.1336 3.19944 43.2168C3.65936 42.579 4.05929 42.2003 4.49922 41.8017C4.73918 41.5625 4.99913 41.3433 5.1591 41.144C5.37906 40.9247 5.43905 40.8051 5.49904 40.6855C5.79899 40.0876 6.03895 39.6093 7.25874 38.7323C9.27839 37.2973 11.0781 38.4931 10.5782 37.8155C10.4782 37.8155 10.3782 37.8155 10.2782 37.7955C10.2182 37.8155 10.1382 37.8155 10.0183 37.7756L9.87828 37.7158C9.71831 37.676 9.57833 37.5962 9.41836 37.5165C8.85846 37.1777 8.49852 36.6196 8.41854 36.0017C8.37854 36.0017 8.33855 35.9818 8.29856 35.9619C7.19875 35.5433 6.67884 34.3076 7.09877 33.2313C7.63867 31.896 8.31855 31.5372 9.01843 31.1784C9.05842 31.1585 9.05842 31.1784 9.07842 31.1784C9.09842 31.1186 9.13841 31.0588 9.1784 30.9991V30.9791C9.1984 30.9393 9.2184 30.8994 9.23839 30.8595C9.93827 29.5441 11.318 29.2252 12.8378 28.8465C13.5176 28.6871 14.2575 28.5077 14.5375 28.3482V28.3283C14.5775 28.2884 14.5975 28.2486 14.6375 28.1888C14.6774 28.1489 14.7174 28.0891 14.7574 28.0493C14.7374 28.0094 14.6974 27.9695 14.6774 27.9297C14.0376 26.973 14.2975 25.6575 15.2773 25.0197C15.8572 24.641 16.3971 24.4417 16.9171 24.2225C17.177 24.1228 17.437 24.0232 17.5969 23.9235C17.9969 23.6644 18.4768 23.206 18.9367 22.6878C19.4966 22.0699 19.9765 21.4321 20.3565 20.9139C20.4364 20.8143 20.4964 20.7346 20.5564 20.6548C20.6164 20.595 20.6764 20.7146 20.7164 20.7744L20.7564 20.8143V20.7944L20.7164 20.5552C20.5164 19.5985 21.0163 18.6219 21.9362 18.2233C24.0758 17.2865 25.0556 17.8446 26.3754 18.6019C26.6754 18.7614 26.9953 18.9607 27.3552 19.0604V19.0803V19.0205C27.2953 18.9009 27.2353 18.7016 27.1753 18.5621C27.1553 18.5222 27.1753 18.5222 27.2153 18.5421C26.5954 18.1635 26.0755 17.8446 25.7155 16.4095C25.5156 15.7917 25.6155 15.114 26.0355 14.5559C27.0953 13.101 28.595 12.8817 30.0148 12.6625C30.4347 12.6027 30.8346 12.5429 31.0546 12.4632C31.3745 12.3436 31.5545 13.2804 31.4945 12.9415C31.4145 12.523 31.3346 12.0845 31.4345 11.4268C31.4745 11.0879 31.5945 10.769 31.7945 10.49C31.8145 10.4701 31.8145 10.4701 31.8345 10.4501C31.9944 10.211 32.1744 9.95187 32.6743 9.69276C32.7343 9.67283 32.7943 9.63297 32.8343 9.61304L33.8341 9.0749C33.8141 8.99518 33.7741 8.89552 33.7541 8.8158C33.6342 8.47697 33.6142 8.11821 33.6741 7.73952C33.8941 6.60345 34.9939 5.84607 36.1337 6.06531C37.0336 6.24469 37.6535 6.48386 38.1734 6.68317C38.5533 6.84262 38.8332 6.96221 39.4131 6.72304C40.433 6.32441 41.2928 6.14504 42.0927 6.04538C42.2127 5.00897 43.0725 4.21172 44.1523 4.17186C44.4123 4.17186 45.732 4.11207 47.0518 4.07221C48.1916 4.01241 48.9515 4.09214 49.2114 4.05227L51.2111 3.11552C51.3311 3.05572 51.511 2.95607 51.651 2.85641C52.1909 2.51758 52.5509 2.29834 53.5507 1.95951C54.2906 1.70041 55.1304 1.87979 55.7303 2.45779L56.3102 3.03579C56.1902 2.79662 56.1102 2.51758 56.1102 2.23855C56.0303 1.08255 56.9301 0.0859959 58.0899 0.0262028C58.7298 -0.0136593 60.7094 0.16572 62.2892 0.54441C63.6089 0.843376 64.8287 1.34165 65.4686 2.0791C65.8086 2.49765 66.0085 3.03579 65.9485 3.61379C66.7284 3.07565 67.6882 2.77669 69.188 3.13545C69.5079 3.19524 69.8079 3.35469 70.0678 3.57393C71.4876 4.76979 71.6075 5.68662 71.7275 6.52373C71.7275 6.52373 71.7275 6.50379 72.7673 6.94228C73.4872 7.26117 74.0071 7.95876 74.0471 8.79587C74.0471 8.85566 74.0471 8.93538 74.0471 8.99518C74.3671 9.01511 74.667 9.05497 74.987 9.15462C74.907 8.63642 74.887 7.9189 74.987 6.92235C75.0269 6.08524 75.5469 5.30793 76.4067 5.00897C77.5065 4.63028 78.7063 5.20828 79.0862 6.30448C79.2262 6.68317 79.6262 7.67973 80.0061 8.47697C80.1661 8.83573 80.1061 8.91545 80.1861 8.97524C80.246 9.03504 80.646 8.93538 81.1659 8.95531C82.8456 9.01511 84.4653 9.05497 85.3452 10.8089L86.065 12.0646C86.365 12.5628 86.505 12.9814 86.6049 13.3401C86.9449 13.3003 87.3448 13.2405 87.8447 13.2604C88.1047 13.0013 88.4046 12.7621 88.7446 12.523C90.5243 11.2872 92.7039 10.8687 95.2834 14.5559C95.8233 15.3332 96.0433 15.8515 96.0633 16.3099C96.4032 16.5092 96.7432 16.8081 97.1031 17.3264C97.1231 17.3662 97.1631 17.3861 97.1831 17.426C97.783 16.8879 98.6828 16.7284 99.4627 17.0872C101.762 18.1236 102.182 19.4191 102.762 21.2129C102.822 21.3724 102.862 21.5318 102.922 21.6713C103.022 21.9902 103.282 22.329 103.602 22.628C103.962 23.0067 104.382 23.3057 104.742 23.5448C105.542 24.0431 105.942 25.0397 105.642 25.9764L105.522 26.3153C105.602 26.4946 105.702 26.674 105.782 26.8933C105.982 27.3915 106.002 27.9695 105.782 28.5077C105.562 29.0259 105.362 29.3846 105.182 29.6836C105.162 29.7035 105.162 29.7235 105.222 29.863C105.382 30.142 105.462 30.4609 105.462 30.7798C105.482 31.0588 105.422 31.318 105.342 31.5771C105.502 31.4774 105.682 31.3977 105.882 31.3578C107.021 31.0788 108.161 31.7764 108.421 32.9124C108.501 33.2313 108.601 33.5303 108.661 33.7695C108.841 34.3873 108.941 34.7461 108.901 35.3042C108.881 36.1213 108.641 36.5399 108.101 37.5165H108.081C107.801 38.0148 107.821 37.9351 107.821 37.955C107.781 38.4533 107.761 38.7323 107.301 39.2704C107.021 39.5893 106.861 39.689 106.461 39.9282C106.302 40.0079 106.082 40.1474 105.802 40.3069C106.002 40.4663 106.262 40.6457 106.481 40.7852C106.781 40.9845 107.061 41.1838 107.321 41.4031C107.981 41.9013 108.301 42.7384 108.101 43.5755C108.201 43.5955 108.321 43.6154 108.461 43.6553C108.721 43.6951 108.721 43.6951 108.841 43.7151C109.601 43.8745 110.261 44.4326 110.481 45.2298C110.601 45.6484 110.721 45.9872 110.821 46.2463C111.221 47.2429 111.401 47.7212 111.121 49.3954C111.061 49.794 111.041 49.9336 111.021 50.0332C110.981 50.372 110.961 50.5315 110.861 50.7906C110.741 51.1294 110.641 51.249 110.461 51.4882C110.421 51.548 110.361 51.6277 110.181 51.9067C110.101 52.0462 110.021 52.2655 109.981 52.4249C109.581 53.6806 109.321 54.5576 107.581 54.9362C107.601 54.9562 107.601 54.9761 107.621 54.996C107.641 54.9761 107.701 54.9562 107.761 54.9362C108.041 54.8964 108.341 54.8366 108.681 54.7967C109.081 54.7569 109.501 54.8167 109.901 55.016C110.801 55.4744 111.241 56.4709 111.001 57.4077C111.121 57.2881 111.281 57.1486 111.441 57.0091C111.961 56.5307 112.7 56.3115 113.44 56.5108C114.56 56.8098 115.24 57.9658 114.92 59.0819C114.38 61.1149 113.32 61.952 112.32 62.7492C111.781 63.1678 111.281 63.5664 111.441 64.9217C111.481 65.2007 111.461 65.4997 111.381 65.7787C111.161 66.576 110.501 67.134 109.741 67.2736C109.881 67.732 109.881 68.2303 109.681 68.7086C109.121 70.1038 108.181 70.8213 107.201 71.5587C106.921 71.778 106.621 72.0172 106.382 72.2364C104.482 74.0103 103.222 73.7711 101.802 73.512C101.282 73.4123 100.702 73.3127 99.6627 74.0701C99.6427 74.09 99.4627 74.2295 99.2427 74.369C99.0428 74.5085 98.9428 74.5883 98.7228 74.9072C98.5829 75.1065 98.5429 75.2261 98.5029 75.3058C98.0429 76.3223 98.0229 76.3422 96.4432 77.0199C95.9633 77.2391 95.4834 77.3985 95.0035 77.5381C94.1836 80.0095 92.7239 81.7036 90.8442 82.7401C88.9645 83.7765 86.7249 84.1352 84.3453 83.9758C84.1254 84.2548 83.8054 84.5339 83.4055 84.8528V84.8328C83.0855 85.0919 82.6656 85.2514 82.2257 85.2912L79.4062 85.4507L79.3262 85.5902V85.5703C78.9863 86.0885 78.4464 86.4273 77.8265 86.507C77.8065 86.6864 77.7865 86.8658 77.7665 87.0252C77.7065 87.384 77.6865 87.683 77.5465 88.0617C77.4065 88.5201 77.2266 88.839 77.0666 89.1778C76.9666 89.3771 76.8466 89.5764 76.7866 89.7359C76.7067 89.975 76.6067 90.2142 76.5067 90.4733C76.4467 90.6527 76.3667 90.8321 76.3267 90.9915C76.2867 91.1111 76.2467 91.2307 76.1868 91.3503C75.9268 92.0678 74.787 95.1172 74.0071 96.333C73.6872 96.8313 73.1873 97.3495 72.6074 97.8279C72.0075 98.3062 71.3076 98.7846 70.6277 99.223L70.5477 99.2629C70.5277 99.2828 70.5077 99.2828 70.4877 99.3028H70.4677C70.3078 99.4024 70.1878 99.4821 70.1278 99.522C69.9878 99.6017 69.8679 99.6615 69.8079 99.7014C69.7879 99.7213 69.7479 99.7412 69.7079 99.7612L69.6479 99.801L69.5879 99.8409C69.5679 99.8409 69.5279 99.8608 69.5079 99.8808L69.4479 99.9206C69.4479 99.9206 69.4479 99.9206 69.4279 99.9206L69.3879 99.9605V99.9406C69.3679 99.9605 69.3679 99.9605 69.3679 99.9605H69.3479C69.3279 99.9804 69.3079 99.9804 69.2879 100L69.228 100.04L69.168 100.06C69.168 100.06 69.168 100.06 69.168 100.08H69.148C69.108 100.1 69.068 100.12 69.028 100.14L68.988 100.16C68.948 100.18 68.908 100.22 68.868 100.24L68.828 100.259V100.24C68.828 100.24 68.828 100.24 68.828 100.259L68.768 100.279C68.728 100.299 68.688 100.319 68.6481 100.339V100.359L68.5881 100.379C68.5481 100.399 68.5281 100.419 68.4881 100.439L68.4481 100.459V100.439C68.4481 100.439 68.4481 100.439 68.4481 100.459H68.4081C68.3881 100.479 68.3481 100.499 68.3081 100.519L68.2681 100.538L68.2081 100.558C68.1881 100.578 68.1481 100.598 68.1282 100.618H68.1082L68.0482 100.658H68.0282C68.0082 100.658 67.9682 100.678 67.9282 100.698L67.9082 100.718L67.8682 100.738C66.6084 101.316 66.1485 101.376 65.4086 101.455C65.1087 101.495 64.7487 101.535 64.0289 101.714C61.9492 102.233 61.5093 101.993 60.7494 101.595C60.7294 101.595 60.7294 101.575 60.6295 101.575L60.5695 101.555H60.5295L60.4695 101.535H60.4095H60.3695H60.3495L60.3095 101.515C60.2895 101.515 60.2695 101.515 60.2495 101.515H60.2295C60.2095 101.495 60.1895 101.495 60.1495 101.495C60.1295 101.495 60.0896 101.495 60.0696 101.475C60.0296 101.475 60.0096 101.475 59.9896 101.475H59.9696C59.9496 101.475 59.9096 101.455 59.8696 101.455C59.8496 101.455 59.8496 101.455 59.8496 101.455C59.8096 101.455 59.7696 101.435 59.7296 101.435C59.7096 101.435 59.6896 101.435 59.6696 101.435C59.6496 101.415 59.6496 101.415 59.6496 101.415H59.6296C59.6296 101.415 59.6296 101.415 59.6096 101.415C59.5896 101.415 59.5696 101.415 59.5696 101.415C59.5496 101.415 59.5496 101.415 59.5296 101.415C59.5097 101.396 59.4697 101.396 59.4297 101.396C59.4097 101.396 59.4097 101.396 59.3897 101.396C59.3697 101.376 59.3297 101.376 59.3097 101.376H59.2897H59.2697H59.2497C59.2497 101.376 59.2497 101.376 59.2297 101.376H59.2097C59.1897 101.356 59.1897 101.356 59.1897 101.356C59.0097 101.336 58.8498 101.296 58.6898 101.236L54.4305 99.6217C54.0906 99.4821 53.7906 99.2828 53.5507 99.0038C53.0908 98.4657 52.6708 97.9474 52.3109 97.4691C51.951 97.0107 51.611 96.5921 51.3511 96.2134C50.4512 94.9379 50.3112 94.4396 50.1913 93.9812C50.1913 93.9612 50.1713 93.9214 49.9913 93.6822ZM104.282 33.1715C104.302 33.0121 104.342 32.8327 104.402 32.6733C104.102 32.8327 103.782 32.9324 103.422 32.9523C102.922 32.9523 102.922 33.1516 102.922 34.1681V34.2877C103.262 34.4073 103.562 34.5268 103.802 34.6265C103.822 34.6066 103.862 34.5866 103.902 34.5667C103.982 34.487 104.062 34.4272 104.142 34.3873L104.282 33.1715ZM27.2353 18.5421H27.2153C27.2353 18.5421 27.2553 18.5621 27.2353 18.5421ZM20.7164 20.7744C20.7364 20.7944 20.7364 20.8143 20.7564 20.8143L20.7164 20.7744ZM33.7341 87.2445C33.5942 87.2046 33.8141 87.2644 33.8341 87.3043V87.2843C33.7941 87.2644 33.7741 87.2445 33.7341 87.2445Z" fill="white"/>
<path fill-rule="evenodd" clip-rule="evenodd" d="M77.567 84.4145C77.587 84.255 77.607 84.0956 77.647 83.976V83.9561C78.3869 83.0791 78.7468 82.9196 79.0068 82.8001C79.2067 82.7004 79.3467 82.6406 79.5866 82.242C79.8466 81.8035 79.8466 81.6441 79.8466 81.4049C79.8466 81.2654 79.8466 81.1059 79.9066 80.8468C80.0066 80.2489 80.0266 80.2489 80.1066 80.2489C80.1266 80.2489 80.1865 80.2489 80.4465 79.631C80.8664 78.6345 80.7465 77.897 80.6465 77.2991C80.6265 77.1396 80.5865 76.9802 80.5865 76.8407C80.5065 76.0036 80.7265 75.6847 80.9064 75.4455C81.0464 75.2462 81.1664 75.1067 80.9664 74.6283L80.8464 74.3493L81.0664 74.5685C81.3064 74.7878 81.4663 75.0668 81.6263 75.306C81.9462 75.8242 82.2262 76.2826 83.186 76.3025C83.8659 76.3225 84.3658 76.1232 84.7058 75.7445C85.0257 75.3857 85.2057 74.8874 85.2457 74.3294C85.3057 73.7514 85.2257 73.1136 85.0657 72.4758C84.6858 71.0806 83.8259 69.7452 82.8061 69.2669L82.7461 69.2469L83.6659 66.6559C83.8859 65.0814 83.6459 64.2044 83.466 63.4669C83.206 62.4106 83.0061 61.6532 84.3258 59.5206C85.0657 58.3447 85.7056 56.0725 85.7856 53.9C85.8656 52.186 85.5856 50.5516 84.7458 49.4953C84.0259 49.5351 83.306 49.9935 82.6661 50.6114C81.8463 51.4485 81.1664 52.5447 80.8464 53.4018L80.7265 53.6609C80.7265 53.5612 80.6865 53.3021 80.7065 53.2024C80.7265 52.8437 79.7866 53.0829 79.9866 52.7241C80.2265 52.2657 79.2867 51.6279 79.5667 51.309C79.1667 51.1894 79.2667 51.6678 78.8668 51.5681C78.4268 51.4485 78.7868 51.9069 78.3669 51.7674C77.9869 51.6478 78.8468 51.4485 78.4069 51.3289C75.8873 50.6114 81.3263 53.1227 78.4668 52.6643C75.6073 52.2059 77.867 52.2059 75.2674 52.6444C73.5877 53.1028 71.808 51.7276 70.0883 52.0863C68.3686 52.4849 66.8689 52.1262 65.0692 52.744C64.5093 52.9234 62.1697 52.3255 61.4898 52.5049C58.0504 53.4018 53.6112 54.1591 52.2314 55.1756C51.7315 55.5543 45.2726 59.102 44.6527 59.5206C44.5927 62.3309 41.8132 60.0388 41.5933 62.8092L41.2333 63.6862C41.0134 64.6229 40.9134 66.2573 41.3133 67.6724C41.5933 68.6291 42.1132 69.4662 42.993 69.8648L43.253 69.9844L42.5731 70.0243C41.9932 70.084 41.6332 70.1239 41.3533 70.104C41.0733 70.084 40.9134 69.9844 40.7334 69.805C39.6536 68.6291 39.7136 68.1109 39.7736 67.2937C39.8136 66.9748 39.8336 66.5961 39.8136 66.1178L37.7339 65.8786C37.214 65.9583 37.094 66.5363 37.214 67.3136C37.434 68.7487 38.3738 70.8215 38.8337 71.838C38.8937 71.9775 38.9537 72.117 38.9937 72.2167C39.1737 72.6153 39.3936 72.9741 39.6136 73.2929C39.7736 73.552 39.9135 73.7912 40.0135 73.9905C40.1335 74.2895 40.1335 74.3294 40.1335 74.5287C40.1335 74.9871 40.0735 75.4854 40.0535 75.9438C40.0335 76.163 39.9535 76.4819 39.8736 76.8805C39.5336 78.2956 38.9937 80.6475 40.3135 81.8035L40.3335 81.8234C40.3535 81.8234 40.3735 81.8234 40.3735 81.8234C40.4135 81.8434 40.4335 81.8633 40.4535 81.8633L40.5134 81.9231L40.4934 81.963C39.2137 84.2152 39.0937 86.4275 39.5536 87.743C39.7136 88.2014 39.9535 88.5601 40.2335 88.7395C40.5134 88.899 40.8134 88.899 41.1333 88.6997C41.7732 88.321 42.4331 87.2048 42.933 85.0722L42.993 84.8131C43.053 85.0323 43.133 85.2715 43.173 85.4908C43.173 85.5306 43.173 85.5705 43.193 85.6103C43.193 85.6303 43.193 85.6701 43.193 85.6901C43.213 85.7299 43.213 85.8097 43.233 85.8694C43.233 85.989 43.213 86.0887 43.173 86.1086C43.173 86.4076 43.153 86.6468 43.153 86.8261C43.133 87.2447 43.133 87.4241 43.153 87.5437C43.193 87.6433 43.253 87.7031 43.3729 87.8028C43.4729 87.8825 43.6329 88.0021 43.8129 88.2014C44.9727 89.3972 45.0327 89.9354 45.1126 90.5134C45.1326 90.633 45.1526 90.7924 45.1726 90.9319C45.6126 91.0714 45.9525 91.211 46.2524 91.3704C46.5524 91.5299 46.8123 91.7092 47.0723 91.9484L47.1123 91.9883L47.0123 92.1677L46.9723 92.2075C46.6524 92.925 46.5324 93.1642 45.7325 93.3237H45.6925L45.6725 93.2838C45.6126 93.1841 45.5926 93.0845 45.5926 93.0247C45.5126 93.0646 45.3726 93.0845 45.1726 93.1044C44.6527 93.1044 44.1528 93.0646 43.6729 92.925C43.213 92.7855 42.773 92.5463 42.3931 92.1677C41.9332 91.7092 41.8532 91.4103 41.7932 91.1512C41.6932 90.7924 41.6332 90.5732 40.2335 90.2144C39.8536 90.1347 39.4736 90.055 39.1137 89.9952C37.414 89.6962 36.0942 89.477 36.2342 86.3079C34.2745 84.9128 33.8346 85.0722 33.1147 85.3313C32.7548 85.4708 32.2949 85.6303 31.555 85.6303H31.295L31.515 85.5107C32.1149 85.1719 32.5948 85.132 32.9948 85.0921C33.5547 85.0323 33.9146 84.9925 33.9946 84.0358C33.8346 83.9561 33.5347 83.8963 33.1747 83.8763C32.7148 83.8165 32.1749 83.8165 31.775 83.8564L31.575 83.8763L31.715 83.7368L31.475 83.4777L31.395 83.5375L31.375 83.4379C29.8353 83.7767 28.6555 84.0757 26.9958 84.2949C26.2959 84.3945 25.3761 84.3547 24.9561 84.4344C24.3962 84.554 23.4964 84.7932 22.7365 84.8928C22.9565 83.6571 23.7364 83.6571 23.8363 82.3616L23.7564 79.4317C22.8165 77.6778 19.6371 78.475 17.3975 78.0963C15.5578 77.7774 16.0777 77.1596 14.7379 76.9802C13.4581 76.8207 12.1584 77.0599 10.8986 76.9005C11.3185 76.0235 11.3785 75.1665 12.0384 74.429C15.1379 70.9212 8.89894 69.3466 5.99944 70.2435C4.63968 70.662 4.67967 69.4064 2.12012 70.2435V63.4271C3.9198 62.5103 4.69967 60.4374 5.63951 60.0388C7.13924 59.3811 9.47884 59.0622 10.9786 58.2649C12.7583 57.3082 12.4783 54.6574 9.93876 54.6375C5.71949 54.5976 8.91894 54.0196 4.31973 53.2024C4.29974 49.8341 5.59951 52.3255 5.83947 48.8176C6.93928 48.2795 8.559 47.841 8.45902 46.2664C8.35903 44.4328 6.67932 44.5324 4.89963 44.4726C5.45954 43.6953 6.01944 43.3166 6.71932 42.5792C7.69915 41.5229 7.09925 41.4232 8.47901 40.4466C13.7581 36.6796 12.8982 36.58 10.4987 35.703C11.0786 34.7264 11.3785 35.3442 11.6785 34.3477C10.8186 33.7099 10.1987 33.8295 9.05891 34.0088C9.47884 32.9724 10.1987 33.1717 10.7786 32.4542C11.0586 32.0955 10.8186 32.3944 11.0186 32.0157C11.0586 31.9559 11.0786 31.8962 11.1186 31.8364C11.6385 30.8797 14.9579 30.9594 16.1177 29.7635C16.1377 29.7436 16.1777 29.6838 16.1977 29.6639L16.3176 29.4646C16.8576 28.767 17.6374 28.9065 18.3373 28.3285C17.9974 27.2722 17.0975 27.4515 16.4376 26.7739C17.1775 26.2955 18.0773 26.0962 18.7172 25.7175C19.937 24.9601 21.1968 23.3258 22.0567 22.1698C22.4366 21.6715 22.9165 21.1533 22.8565 20.5355L22.7765 20.1568C24.5162 19.3994 24.9761 20.4956 26.6958 21.0736C28.3756 21.6317 28.2356 22.7877 30.4352 21.5918C30.4552 21.532 30.4552 21.3925 30.4752 21.4124L30.5952 19.6984C30.7751 19.1004 30.7551 20.3561 30.7951 19.0406C28.9954 18.2434 29.6953 19.1004 29.0954 17.7252C28.4955 16.3101 28.0556 17.1472 27.7357 15.7919C28.5555 14.6757 30.5152 14.895 31.775 14.4366C34.5945 13.4201 33.2947 12.8221 33.5347 11.706C33.5746 11.6462 33.6346 11.5266 33.6546 11.5665L35.0144 10.829C35.5743 10.5899 36.1142 10.3308 36.4941 10.0717C36.3542 8.77614 36.1342 9.25448 35.7543 8.13834C37.8139 8.51703 38.1539 9.51359 40.2135 8.67648C42.0732 7.9191 43.6129 8.19814 44.8527 7.62014C44.7727 6.20503 44.8327 7.14179 44.1928 6.28476C44.8727 6.26483 49.9118 6.04558 49.9518 6.02565L52.1514 5.00917C53.0513 4.51089 53.1512 4.31158 54.2311 3.95282L56.6506 6.32462C57.8504 6.72324 60.13 6.24489 60.7299 5.26827C60.43 4.27172 59.8701 4.07241 58.7503 3.91296C59.0502 3.37482 59.1502 3.43462 59.1502 2.87655L58.2104 2.11917C59.0702 2.07931 63.1295 2.57758 63.8494 3.43462C63.5694 4.7102 63.3295 3.95282 62.7496 5.0291C62.8496 6.28476 64.0294 7.54041 65.4291 6.80296C66.4489 6.28476 66.9688 4.77 68.7085 5.18855C70.6482 6.8229 68.2686 7.32117 71.948 8.89572C71.988 10.0119 71.608 10.3507 71.648 10.7493C72.9478 11.7857 74.0276 10.1713 75.5274 12.2641C76.1672 11.8256 75.9473 11.7857 76.6472 11.3273C77.1671 10.9885 77.2671 11.0682 77.867 10.6098C77.687 8.57683 76.7871 10.2909 77.1071 7.00227C77.347 7.67993 78.3669 10.1912 78.7868 10.55C79.8666 11.5266 82.8861 10.55 83.466 11.7857L84.2458 13.1211C84.7657 14.0379 84.4858 14.5362 84.7458 15.3335C86.4855 15.8915 86.5854 15.1341 88.6051 15.453C89.6649 14.596 91.0647 12.1843 93.5642 15.7719C94.2641 16.7685 93.5642 16.5293 93.5242 17.8647C94.3841 18.2832 94.864 17.8049 95.3839 18.5424C96.0638 19.4791 95.1439 19.4392 95.1439 20.5355C96.3037 21.233 97.4236 21.0537 98.6233 20.8942L98.6033 18.9808C100.223 19.7382 100.403 20.7946 100.923 22.3492C101.363 23.6846 102.723 24.7409 103.622 25.3388L103.163 26.7739C103.702 27.7904 103.443 26.7539 103.842 27.6907C103.203 29.1855 102.523 29.2653 103.363 30.8398C100.383 30.9395 100.903 31.5972 100.783 35.8026C105.062 37.0184 103.223 37.5964 105.102 36.281C105.542 35.9621 105.682 36.0418 106.122 35.7628L106.382 33.391C106.862 35.404 107.062 35.0453 106.242 36.5002C105.002 38.6727 106.642 37.2775 104.342 38.7325C101.483 40.5662 104.842 42.0809 106.042 43.0775C105.802 43.8149 105.862 43.3366 105.282 43.9544C106.202 45.4692 106.802 45.4692 108.442 45.7881C108.942 47.542 109.321 47.4224 109.042 49.0568C108.802 50.5118 109.062 49.7344 108.402 50.7908C107.622 52.0265 108.242 52.8437 106.282 52.9832C105.142 53.0629 105.802 52.6444 104.842 52.744C104.362 53.5811 104.442 53.621 104.582 54.6773C105.082 55.0361 105.402 55.1756 105.602 55.654C105.622 55.7138 105.642 55.7736 105.662 55.8333C105.842 56.3316 105.322 55.7337 105.882 56.5309C106.742 57.4677 107.502 57.0491 108.942 56.8897C108.122 58.524 106.542 58.2849 107.442 60.4972C107.942 60.6168 108.382 60.6766 109.002 60.5371C112.181 59.8196 110.401 60.7762 112.881 58.544C112.021 61.7529 108.822 60.836 109.341 65.2009C108.142 64.8621 108.422 64.8621 106.962 64.9219C105.322 64.9817 104.862 63.7659 104.642 65.1212C104.482 66.0779 104.082 65.7191 103.742 66.8353C103.782 66.8751 103.862 66.8751 103.882 66.9549C103.922 67.0944 104.682 67.6525 104.922 68.2903C104.942 68.3301 104.962 68.4098 104.982 68.4497C106.082 68.5095 106.842 68.1906 107.722 67.9315C107.242 69.1473 105.942 69.7652 104.942 70.682C102.583 72.8943 101.783 69.8449 98.4034 72.396C97.7435 72.8943 97.5035 72.9342 96.9836 73.7314C96.2637 74.8077 96.8437 74.5486 95.6039 75.1067C94.904 75.4056 94.1041 75.6049 93.2843 75.8043C92.1045 81.3052 87.6852 82.5011 82.7061 81.6839C82.4262 82.3815 83.306 82.2619 82.1062 83.1787L78.2469 83.4179L77.567 84.4145Z" fill="black"/>
<path fill-rule="evenodd" clip-rule="evenodd" d="M69.3875 67.9714C68.9276 67.3336 68.9476 67.6326 68.2277 67.3735C74.0067 65.6395 69.0676 65.8189 72.407 65.1612L72.607 63.8457C73.4068 63.7261 74.1067 63.487 74.6266 63.1681C74.7066 62.3708 74.6066 62.1316 74.4467 61.5736C74.0667 60.2781 74.5866 61.0952 73.7268 60.4574C71.2672 58.6836 74.4667 59.7798 72.607 58.3647C73.4268 57.9461 73.1469 58.4444 73.4268 57.6671C72.747 56.9296 72.8669 57.0293 71.7671 57.1289C72.767 56.4314 72.227 56.8499 72.587 55.8135C73.0069 54.6575 72.8869 55.4547 73.4068 54.4781L72.467 54.0596C73.2869 53.6012 73.0469 54.0795 73.4868 53.3221C72.8869 52.9036 72.627 53.6012 71.8871 52.8836C73.8468 52.8238 74.2667 53.1427 75.9864 53.4417L75.8064 55.1558C75.1665 55.3551 76.1264 54.797 75.4065 55.1558C75.5465 57.1887 75.7864 62.9488 75.1265 64.0849L71.0672 70.1041C70.5473 69.7254 70.6073 69.6257 70.2674 68.9481C69.7875 68.0113 69.6675 68.111 69.3875 67.9714ZM62.8287 52.9634C64.0485 52.5847 65.9081 52.764 67.3279 52.8438C66.2881 53.8403 64.9883 53.92 63.7685 55.2754L61.169 58.5042C61.3489 57.109 61.5489 57.4478 62.2088 56.8101L62.8287 52.9634ZM41.5324 62.5901V62.7894C43.2121 62.0121 45.3917 59.6004 48.2512 57.9063C52.8704 55.1757 56.1298 53.6609 62.0488 52.9434C61.8489 53.6609 61.5489 54.9963 61.2889 55.7936C61.189 56.1125 58.9694 58.843 58.9893 64.4436C56.7697 64.5632 55.5699 64.9419 54.5301 66.357C53.7703 64.8423 49.291 62.6698 50.4308 60.9756C50.7308 60.5172 50.8308 60.7165 50.9507 60.6567C50.7108 60.3179 49.8109 58.5042 48.5712 57.9262C48.9711 58.8032 49.671 59.3612 50.1909 60.1983C49.451 63.5667 50.4108 62.4705 51.7306 64.6031C49.591 64.344 46.9314 63.0883 44.8918 63.2278C45.2317 63.766 45.5117 63.6663 45.9916 64.2842C44.9518 64.3041 43.3721 64.4636 42.4922 65.0416L41.6924 65.6794C42.3322 67.5529 43.3921 66.7955 42.7122 69.1274L43.912 69.9845C43.932 71.2401 43.992 71.2401 43.592 72.3164C43.652 72.3563 43.732 72.3762 43.772 72.3961C46.2916 73.6518 41.3324 73.6119 46.9514 73.4923L47.1114 74.0305L50.0509 74.1102C48.9511 76.0634 49.511 78.8339 49.371 80.9665C47.2514 80.7472 44.5119 78.9933 43.672 78.0366C42.6722 76.9006 43.592 71.6985 42.9721 69.9247L42.5722 69.9446C42.8921 71.2999 42.5122 73.3728 42.4322 74.9872L41.4324 74.4092C41.4524 71.858 41.9723 73.5721 42.3122 71.6388C41.7124 72.0772 41.0125 72.4559 40.9725 73.6917C40.9125 75.3858 41.2724 74.7081 42.3722 75.6848C42.4922 79.3919 42.2723 77.5981 43.3521 79.073C43.952 79.9101 43.512 79.95 43.3121 80.9266C42.9721 82.541 43.3721 81.106 43.752 82.6208L42.7522 83.9561C41.8123 83.8963 41.5924 83.6572 40.8125 83.3383L41.6124 81.405C40.0926 82.5809 39.3728 86.4077 40.2726 87.8028C41.9523 87.763 41.8323 85.6304 42.5322 84.4345C44.7318 84.4544 42.9921 86.1286 43.592 87.5437C43.652 87.7032 44.5519 88.62 44.7718 88.8592C45.7117 90.0152 45.1318 89.5368 45.4117 90.8124L47.3914 91.5897L47.0314 91.9884L46.9514 92.1279L48.1312 91.4701L48.0113 92.2275C48.7511 91.6495 48.0712 92.0681 48.4912 91.1513C48.6911 90.6729 48.7311 90.8124 49.0911 90.3939C49.9309 90.5334 49.571 90.3341 49.771 91.0915C49.8909 90.3341 49.8909 90.1148 50.3309 89.497L51.2507 88.5403C51.3507 88.3011 51.4907 87.9623 51.6106 87.8028C52.2105 86.8661 51.7506 87.5039 52.2305 87.2248C52.2705 87.185 52.3105 87.1252 52.3305 87.1052L53.8302 85.73C53.4103 85.9094 52.0106 86.7864 51.7706 87.0255C51.2907 87.464 51.0707 88.0619 50.3908 88.6997C49.711 87.4042 49.531 84.7733 49.9109 83.3183C50.1509 82.4015 49.591 79.1727 49.651 77.6181C49.8109 73.313 50.6108 74.5487 53.0504 71.3797C53.5703 70.702 53.6103 70.1639 54.1902 69.6058L54.2102 71.8979C54.3901 72.4958 53.7103 71.2999 54.3102 72.0174C54.3102 72.0174 54.3901 72.0772 54.3901 72.0573C54.3901 72.0174 54.4501 72.0772 54.4901 72.0972C54.5901 74.5686 54.2302 75.0868 55.45 74.9872C55.05 73.6119 55.47 71.7783 55.41 70.2635C55.37 68.39 55.19 67.7721 54.8701 66.0581C58.7094 64.1845 56.5898 65.779 59.6692 64.3241L59.8692 66.955L60.3091 67.6326C60.909 68.4498 60.789 67.9914 61.069 69.0079L61.7889 68.7488L61.8089 67.0546C61.8289 67.0546 61.8888 67.0347 61.9088 67.0347L63.6885 67.4532C64.7284 67.9515 64.0885 67.7522 64.8483 67.7921C65.3882 67.812 65.8482 67.8519 66.4081 67.8718C67.5079 67.9316 68.6077 67.7123 69.3875 67.9714C70.1874 70.0243 71.4472 72.0972 72.227 74.5288C72.9469 76.8408 73.3668 79.5912 73.8468 82.0826C74.1067 81.9232 74.0067 81.9431 74.2067 81.7039L74.6666 81.1857C75.0666 82.6806 75.1865 82.262 75.5265 82.4812L74.6066 80.5081C75.8464 81.7239 74.3267 80.8868 76.2064 81.7039L75.4665 82.9995C75.4265 82.9795 75.3865 82.9397 75.3665 82.9397L75.1665 82.8599C74.5466 82.6806 75.5465 82.6008 74.8866 82.8599C74.5466 83.1589 73.9068 85.3513 73.3868 86.0888C73.3269 86.1286 73.2669 86.1685 73.2269 86.1884C73.1869 86.2084 73.1269 86.2681 73.0869 86.2881L73.5268 86.5073C73.2669 88.5004 73.0069 87.9424 72.8269 88.1417C72.467 89.1183 72.567 88.5801 72.427 88.6599C72.427 88.6599 72.307 88.62 72.267 88.5801C71.9271 89.1781 70.0474 92.0282 70.2674 92.4667C70.4274 92.8055 70.6273 92.3471 70.3474 92.7856L69.8675 93.1643C68.7477 94.4797 70.4674 95.2371 63.6485 96.2337C63.5885 96.413 65.6682 96.2735 61.169 97.569C59.3693 98.0873 58.5094 97.5093 57.4496 96.5725C56.3098 95.556 52.7104 92.6461 51.5706 92.2674C52.6904 93.7024 51.7506 93.1244 53.0704 94.9979C53.5703 95.6756 54.3302 96.6522 55.17 97.6488L59.4493 99.2632C59.4493 99.2632 59.6892 99.3031 60.949 99.4824C62.2088 99.6618 61.5089 100.18 63.5086 99.6618C65.5082 99.1635 65.3682 99.5821 66.968 98.8247C68.5477 98.0873 71.4872 96.3732 72.227 95.1973C72.9869 94.0413 74.2667 90.4736 74.2667 90.4736C74.4467 89.9953 74.6266 89.477 74.8266 88.9588C75.0866 88.321 75.3665 87.9623 75.5465 87.3843C75.7664 86.7465 75.5265 84.8331 77.3662 83.0991C77.5861 83.2785 77.6861 83.119 77.7261 83.119H77.7461L78.246 83.418C79.0659 82.6208 79.1658 83.0592 79.6458 82.262C80.0657 81.5644 79.8257 81.5644 79.9657 80.8469C80.1657 79.7507 79.9857 80.9067 80.5056 79.651C81.0455 78.3754 80.7056 77.5184 80.6456 76.8408C80.5056 75.2263 81.4654 75.625 81.0255 74.6085C80.8456 74.0305 80.4456 73.014 80.6456 72.5357C82.0853 72.6752 80.8256 72.436 81.6854 74.5088C82.4853 76.4621 85.1648 75.8243 83.5851 72.1171C83.0252 70.8216 82.8052 69.7852 81.9854 69.3666L82.6252 71.1405C81.9654 71.9377 81.5254 72.2765 79.9457 72.0772C79.7457 71.7583 79.9857 71.579 79.7257 71.1405C79.4058 70.6023 79.3858 70.8814 78.8259 70.5027C79.0059 69.845 78.8259 70.3432 79.2058 69.7453C79.7857 68.8883 78.8659 69.4862 80.1057 68.2106C80.0257 67.234 79.4858 67.0945 79.9457 66.1378L79.3258 65.9584C78.8059 62.9289 79.8057 62.1516 79.7257 61.2347C79.4458 58.5042 79.1258 56.5709 80.7856 53.3819L80.7656 53.2225L80.3056 53.8603C77.5461 52.6644 73.5068 52.4452 70.0874 52.0864C70.0674 52.0665 70.0874 52.0266 70.0874 52.0266C70.0874 52.0067 70.0874 51.9469 70.1074 51.9469C70.1074 51.907 70.1274 51.7874 70.1274 51.7675L70.1074 51.3091C68.8876 52.4651 67.9278 52.3256 65.9481 52.3056C60.729 52.206 58.3895 52.9634 53.5103 54.6575C51.6706 55.2754 48.5312 57.1289 47.1314 58.1454L41.5324 62.5901Z" fill="black"/>
<path fill-rule="evenodd" clip-rule="evenodd" d="M57.3503 51.7277C56.3505 54.9166 50.0516 54.5579 51.5714 50.4521C52.1113 49.017 53.311 48.3793 55.1307 48.5786C56.7904 48.7579 57.9102 49.8741 57.3503 51.7277ZM41.5331 62.5901L47.1321 58.1455C48.5319 57.129 51.6713 55.2754 53.511 54.6575C58.3902 52.9634 60.7298 52.206 65.9488 52.3057C67.9285 52.3256 68.8883 52.4651 70.1081 51.3091L70.1281 51.7675C70.1281 51.7875 70.1081 51.907 70.1081 51.9469C70.0881 51.9469 70.0881 52.0067 70.0881 52.0266C70.0881 52.0266 70.0681 52.0665 70.0881 52.0864C73.5075 52.4452 77.5468 52.6644 80.3064 53.8603L80.7663 53.2225C80.8263 52.3854 81.4661 51.4486 81.9861 50.8706L80.8063 50.173C80.3863 50.0535 79.9864 49.9339 79.5665 49.8143C78.7466 49.595 78.0068 49.3359 77.0869 49.0768C69.4282 46.1669 57.6703 45.7484 48.6719 50.2328C44.9725 52.0665 40.4133 54.9366 38.8936 58.4843L41.5331 62.5901Z" fill="#FF0000"/>
<path fill-rule="evenodd" clip-rule="evenodd" d="M41.5328 62.7893L41.1729 63.6663C40.793 65.2607 40.733 68.9281 42.9726 69.9246C43.5925 71.6985 42.6726 76.9005 43.6725 78.0366C44.5123 78.9932 47.2518 80.7472 49.3715 80.9664C49.5114 78.8338 48.9515 76.0634 50.0513 74.1101L47.1119 74.0304L46.9519 73.4923C41.3329 73.6119 46.292 73.6517 43.7724 72.3961C43.7324 72.3761 43.6525 72.3562 43.5925 72.3163C43.9924 71.2401 43.9324 71.2401 43.9124 69.9844L42.7126 69.1274C43.3925 66.7954 42.3327 67.5528 41.6928 65.6793L42.4927 65.0415C43.3725 64.4635 44.9522 64.3041 45.992 64.2841C45.5121 63.6663 45.2322 63.7659 44.8922 63.2278C46.9319 63.0883 49.5914 64.3439 51.7311 64.603C50.4113 62.4704 49.4514 63.5666 50.1913 60.1983C49.6714 59.3612 48.9715 58.8031 48.5716 57.9261C49.8114 58.5041 50.7112 60.3178 50.9512 60.6567C50.8312 60.7165 50.7312 60.5172 50.4313 60.9756C49.2915 62.6697 53.7707 64.8422 54.5306 66.357C55.5704 64.9419 56.7702 64.5632 58.9898 64.4436C58.9698 58.843 61.1894 56.1124 61.2894 55.7935C61.5493 54.9963 61.8493 53.6609 62.0493 52.9434C56.1303 53.6609 52.8709 55.1756 48.2517 57.9062C45.3922 59.6003 43.2125 62.012 41.5328 62.7893Z" fill="#FCFCFC"/>
<path fill-rule="evenodd" clip-rule="evenodd" d="M79.866 60.3776C81.2058 61.2546 79.866 60.9955 82.0656 62.0319L82.0056 64.5432L80.5659 65.4002C81.5257 63.5267 81.5657 65.8586 81.7857 62.4903L80.6259 61.8126C80.1259 61.414 79.966 60.9755 79.866 60.3776ZM81.0258 61.2944C80.9458 61.1549 80.3859 61.5137 80.7858 59.2615C81.1458 57.368 81.3657 57.9062 82.0056 57.7268C82.0056 58.8429 82.3056 61.2346 81.0258 61.2944ZM81.5857 54.8766C81.9256 53.7206 83.1454 51.2093 84.5452 50.8107C84.5452 50.8107 84.9451 50.7908 85.0051 52.1859C85.0851 53.5213 84.8051 55.0361 84.0853 56.0526C83.1654 57.3481 83.3054 59.5804 82.5855 60.9755C82.6055 59.8195 82.9255 58.4842 83.2254 57.2883C83.5653 55.8732 83.5054 55.7137 82.7655 53.6808C82.7455 53.621 82.7055 53.5612 82.6855 53.5014C82.2056 55.1557 82.4655 54.5378 81.5857 54.8766ZM80.7858 53.3818C79.1261 56.5708 79.4461 58.5041 79.726 61.2346C79.806 62.1515 78.8062 62.9288 79.3261 65.9583L79.946 66.1377C79.4861 67.0944 80.026 67.2339 80.1059 68.2105C78.8662 69.4861 79.786 68.8882 79.2061 69.7452C78.8262 70.3431 79.0061 69.8449 78.8262 70.5026C79.3861 70.8813 79.4061 70.6022 79.726 71.1404C79.986 71.5789 79.746 71.7582 79.946 72.0771C81.5257 72.2764 81.9656 71.9376 82.6255 71.1404L81.9856 69.3665C82.8055 69.7851 83.0254 70.8215 83.5853 72.117C85.1651 75.8242 82.4855 76.462 81.6857 74.5087C80.8258 72.4359 82.0856 72.6751 80.6459 72.5355C80.4459 73.0139 80.8458 74.0304 81.0258 74.6084C81.7657 75.3259 81.7257 76.3424 83.1854 76.3822C86.7848 76.4819 85.305 70.3431 82.8255 69.2071L83.7253 66.6758C84.2452 62.7693 82.1656 63.148 84.3852 59.5604C85.705 57.4278 86.7448 51.8471 84.7851 49.4155C83.0654 49.5152 81.3657 51.8471 80.7858 53.3818Z" fill="white"/>
<path fill-rule="evenodd" clip-rule="evenodd" d="M60.9291 81.2454C60.0492 82.0626 56.7098 81.8035 55.49 82.5011C55.0501 82.7403 54.6501 83.6571 54.5702 83.5176C54.5502 83.4578 54.4702 83.5973 54.3702 83.6372L55.0901 82.1423C57.0697 81.8234 58.7494 81.1458 60.9291 81.2454ZM63.6886 67.4531L61.9089 67.0346C61.8889 67.0346 61.8289 67.0545 61.8089 67.0545L61.7889 68.7487L61.069 69.0078C60.7891 67.9913 60.9091 68.4497 60.3092 67.6325L59.8692 66.9549L59.6693 64.324C56.5898 65.7789 58.7094 64.1845 54.8701 66.058C55.1901 67.772 55.37 68.3899 55.41 70.2634C55.47 71.7782 55.0501 73.6118 55.45 74.9871C54.2302 75.0867 54.5902 74.5685 54.4902 72.0971C54.4502 72.0772 54.3902 72.0174 54.3902 72.0572C54.3902 72.0772 54.3102 72.0174 54.3102 72.0174C53.7103 71.2998 54.3902 72.4957 54.2102 71.8978L54.1902 69.6057C53.6103 70.1638 53.5703 70.7019 53.0504 71.3796C50.6108 74.5486 49.811 73.3129 49.651 77.618C49.591 79.1726 50.1509 82.4014 49.911 83.3183C49.531 84.7732 49.711 87.4041 50.3909 88.6996C51.0708 88.0619 51.2907 87.4639 51.7706 87.0254C52.0106 86.7863 53.4104 85.9093 53.8303 85.7299L52.3305 87.1052C52.3106 87.1251 52.2706 87.1849 52.2306 87.2247L52.4505 88.8192C52.7505 88.8591 52.5305 89.6364 53.5703 87.4639C54.6501 85.2117 56.1099 85.9691 56.1699 84.7334C56.2499 83.5774 56.1299 85.6303 56.0899 84.3945C56.0499 82.521 60.4491 83.2385 61.5289 82.5609L64.7884 80.3087C65.2483 79.7705 64.7484 79.9698 65.7082 79.8503C65.9682 79.8104 66.728 79.8702 67.088 79.8503C63.6886 76.9603 63.4286 80.0296 60.9291 81.2454C61.389 80.6674 63.7286 78.2159 64.5884 78.1362C65.7682 78.0166 67.208 79.352 68.0878 79.8104C68.5477 80.0496 68.8277 80.0296 69.3276 80.3286C68.7677 81.2255 68.3278 80.807 67.028 81.1657C67.4279 81.4447 68.0678 81.2853 68.4477 81.3252C69.0476 81.4049 68.6877 81.2853 68.9477 81.4846L66.0482 82.3217C66.4281 82.7203 66.5481 82.0227 66.2681 82.8598C66.5681 82.5011 66.1282 82.8001 66.848 82.4612C67.4079 82.82 68.4677 83.3382 68.1278 84.3148C69.3076 84.0956 70.0875 83.119 70.7673 82.3815C71.2273 81.8434 71.0073 81.9032 71.5872 81.7836C70.7074 84.5341 71.4672 83.8365 70.9073 85.0323C70.1475 86.587 69.4876 86.6467 67.5479 86.6866L67.6479 86.9059C71.2873 86.7863 71.1873 87.6433 73.5069 83.0193C73.5869 83.1588 74.1268 82.9794 73.6268 84.3148C73.3069 85.1519 73.3269 85.1719 73.3869 86.0887C73.9068 85.3512 74.5467 83.1588 74.8866 82.8598C75.5465 82.6007 74.5467 82.6805 75.1666 82.8598L75.3665 82.9396C75.3865 82.9396 75.4265 82.9794 75.4665 82.9994L76.2064 81.7038C74.3267 80.8867 75.8465 81.7238 74.6067 80.508L75.5265 82.4812C75.1866 82.2619 75.0666 82.6805 74.6667 81.1856L74.2067 81.7038C74.0068 81.943 74.1068 81.9231 73.8468 82.0825C73.3669 79.5912 72.947 76.8407 72.2271 74.5287C71.4472 72.0971 70.1874 70.0243 69.3876 67.9714C68.6077 67.7123 67.5079 67.9315 66.4081 67.8717C65.8482 67.8518 65.3883 67.8119 64.8484 67.792C64.0885 67.7521 64.7284 67.9514 63.6886 67.4531ZM55.27 75.6847L54.0902 76.0235L53.5503 80.7671L55.55 80.5678C55.51 80.5478 55.43 80.4083 55.41 80.4482C55.41 80.4482 54.7501 80.0097 54.5302 78.9534C56.1099 76.6414 56.9098 78.0166 57.8896 78.1761C57.4897 78.6145 57.8896 78.3355 57.2497 78.5946C55.0101 79.5114 55.67 79.1726 55.73 80.8468L53.0504 81.2454C52.9704 82.1423 53.0104 82.9196 52.8705 83.7567C52.8105 84.1952 52.5705 85.6103 52.4705 85.9292L52.9504 78.9534C53.6303 78.5946 52.3905 78.9534 53.0904 78.9733C53.3704 78.9733 52.9304 79.1128 53.3504 78.9733L53.7903 75.7644C55.39 75.0867 54.9901 75.2861 55.27 75.6847ZM57.9096 77.8173C57.9096 77.8173 58.0496 77.4585 58.0496 77.4386C58.0696 77.3987 58.1895 77.2194 58.2295 77.1596L57.2497 76.9603L58.6495 76.3025L57.9096 77.8173ZM60.5891 74.0304C61.069 73.2531 61.8089 72.695 62.2888 71.8579C61.9489 71.2002 62.5088 71.6785 61.7489 71.6586C61.6289 72.4359 59.8292 74.9074 59.3693 75.4854L57.3497 75.1465L58.6095 75.7445C58.2695 75.7843 60.6091 75.5452 60.5891 74.0304ZM59.0694 79.1925C59.5493 78.9334 61.229 78.3953 61.9089 78.2159C61.6089 78.6743 61.9289 78.3355 61.5289 78.6743L60.5291 79.2523C60.5291 80.5279 61.389 80.6076 59.9892 80.7472L59.9492 79.4317L59.0694 79.1925ZM67.7079 75.4854C66.848 76.6214 65.8682 77.4386 64.3285 77.618C64.6684 76.9802 64.5284 77.2792 65.0683 76.7012C65.4683 76.2826 65.4883 76.3424 65.6882 75.8242C63.1287 76.5218 63.8685 75.6448 62.8287 77.0001C62.2288 77.7575 62.6887 77.3788 62.1488 77.5582C63.3286 75.306 63.6086 74.8476 66.848 74.6682C66.888 75.6448 66.0482 76.4421 65.5882 76.8805C66.4281 76.3623 67.3079 75.7644 68.0078 75.1266C67.5879 73.7713 66.988 72.7349 65.9482 71.9775C64.6084 72.1967 64.2485 72.8345 62.6887 73.0338C62.7287 72.994 62.7887 72.9342 62.8287 72.9143L64.6484 71.9376C65.4883 71.5191 66.1082 71.3397 66.748 71.9775C67.6479 72.8943 68.2278 74.5486 68.4278 75.9238C68.1278 75.4854 68.3478 75.6647 67.7079 75.4854ZM59.0694 76.1032H59.8692C59.5093 76.6812 59.5493 76.5218 59.0494 76.8207C59.6493 76.7609 60.7691 76.2627 61.049 76.4022C61.8689 76.8606 60.9491 77.3788 60.4891 77.5183C62.3288 77.0201 60.8691 77.1994 61.489 77.6778C61.469 77.7176 61.389 77.7176 61.389 77.7176L61.5489 78.1561C60.8691 78.3754 59.8492 79.1527 58.7294 78.4152L57.9096 77.8173L59.0694 76.1032Z" fill="#FCFCFC"/>
<path fill-rule="evenodd" clip-rule="evenodd" d="M39.3127 70.9211C38.2129 70.1637 37.813 68.1706 37.773 66.6758C38.9128 66.3768 39.1527 66.6758 39.6127 67.6126C39.5527 67.5727 39.4727 67.5328 39.4127 67.5129L38.3129 67.0744C38.5129 68.8682 39.1128 69.3864 39.3127 70.9211ZM47.0314 91.9882L47.3913 91.5896L45.4117 90.8123C45.1317 89.5367 45.7116 90.0151 44.7718 88.8591C44.5518 88.6199 43.652 87.7031 43.592 87.5436C42.9921 86.1285 44.7318 84.4543 42.5322 84.4344C41.8323 85.6302 41.9523 87.7628 40.2726 87.8027C39.3727 86.4075 40.0926 82.5808 41.6123 81.4048L40.8125 83.3382C41.5923 83.657 41.8123 83.8962 42.7521 83.956L43.7519 82.6206C43.372 81.1059 42.9721 82.5409 43.312 80.9265C43.512 79.9499 43.9519 79.91 43.352 79.0729C42.2722 77.598 42.4922 79.3918 42.3722 75.6846C41.2724 74.708 40.9124 75.3857 40.9724 73.6915C41.0124 72.4558 41.7123 72.0771 42.3122 71.6386C41.9723 73.5719 41.4523 71.8579 41.4324 74.409L42.4322 74.987C42.5122 73.3726 42.8921 71.2998 42.5722 69.9445C41.4124 70.084 41.0924 70.1039 40.7725 69.7452C39.2727 68.1108 40.0126 67.772 39.8726 66.0579L37.733 65.7988C35.9733 66.0579 38.4529 71.1204 38.9328 72.2366C39.2527 72.974 39.7526 73.552 39.9526 74.0104C40.0926 74.3293 40.0726 74.3492 40.0726 74.6084L39.9726 75.9437C39.9126 76.9004 38.5529 80.3684 40.2726 81.8433C40.2926 81.8633 40.3525 81.923 40.3525 81.9031C40.3525 81.8633 40.4125 81.923 40.4325 81.943C37.2931 87.424 41.1524 92.7855 43.0121 85.0722L43.0921 85.4309C43.0921 85.4907 43.1121 85.5505 43.1121 85.6103C43.212 86.7862 43.1321 85.112 43.1121 85.989C43.0721 88.1216 42.9121 87.3642 43.7719 88.2611C45.2117 89.736 44.9317 90.1745 45.1317 90.9917C45.9916 91.2707 46.5115 91.5298 47.0314 91.9882Z" fill="#F2F2F2"/>
<path fill-rule="evenodd" clip-rule="evenodd" d="M27.0949 31.1188C27.3748 30.6404 27.3748 30.7002 27.6148 30.1621C26.375 29.8232 25.0752 29.4645 24.6353 28.3882C25.0352 28.1291 25.5352 27.9298 25.9751 27.6707C27.7548 26.6542 31.7141 24.3621 33.5738 24.1827C34.6336 24.0831 34.6536 24.0632 35.4934 23.8838C36.4933 23.6845 36.7132 23.9037 37.713 23.8838C39.3927 23.3656 42.0923 18.4027 42.9921 17.2866C45.2517 17.1471 44.8718 16.7883 45.4117 18.3629L48.5711 18.1038C48.5512 18.1038 47.7313 18.4426 47.6513 19.4392C48.6311 20.5752 50.4908 19.7979 52.8704 19.778C57.0497 19.778 54.4501 19.1801 58.8294 19.499C61.5289 19.7182 62.7687 18.9807 64.8083 18.8412C66.2481 22.0501 65.4682 24.1429 69.9474 23.6645C69.8874 22.7477 69.8275 22.8872 69.6475 22.1498C69.3475 21.0934 69.4475 21.1134 69.6275 20.7347C71.4472 20.4357 75.3665 20.8343 76.7063 21.5519C76.8062 22.2096 75.0266 26.2157 78.286 27.6707C77.926 26.7539 77.1662 25.7174 77.0062 24.681C76.7263 22.8872 77.8061 22.947 77.2662 20.9739C75.4265 19.9374 71.0672 19.4192 68.7076 20.3958L69.1876 22.9869C65.9881 22.947 66.528 20.7147 65.5082 17.8447C65.3282 17.2866 65.4882 17.6254 65.2682 17.2866C64.1484 17.7052 63.9085 19.1601 57.1497 18.6419C55.9299 18.5423 56.1898 18.5821 55.23 18.8612C55.05 18.901 48.8311 19.479 48.4512 19.2598C48.4512 19.2199 50.5708 17.187 48.7911 17.3065L47.2514 17.745C45.2917 18.1038 46.3315 17.4261 45.4717 16.7684C44.9718 16.3897 43.732 16.4495 43.0521 16.609C42.1123 16.8083 42.2323 17.2667 41.7123 18.1835L39.4327 21.6515C35.8334 25.4783 38.173 20.2165 27.2749 26.2157C25.1552 27.3916 23.9354 27.6508 24.0154 28.5676C24.1754 30.0823 26.0951 29.7834 26.9949 30.9792C27.0149 30.9992 27.0549 31.0789 27.0949 31.1188Z" fill="white"/>
<path fill-rule="evenodd" clip-rule="evenodd" d="M56.8098 84.0757C57.6097 82.8599 57.8696 83.1389 59.6293 83.1987C58.9095 83.7767 57.9296 83.8963 56.8098 84.0757ZM58.9694 84.0358C59.6893 83.3183 59.8293 83.3781 60.8891 83.099C60.9691 83.0791 64.5685 81.1857 66.6081 81.6441L58.9694 84.0358ZM64.7884 80.3087C65.3083 80.229 65.6283 80.1293 66.2082 80.1891L66.9881 80.4482C67.028 80.3884 67.088 80.5279 67.128 80.5678C66.1482 81.7039 66.4481 80.9266 65.0484 81.0461C64.3485 81.1059 64.2085 81.4846 63.4487 81.7039C64.2285 80.9066 64.2085 81.385 64.7884 80.3087ZM60.9291 81.2454C63.4287 80.0297 63.6886 76.9603 67.088 79.8503C66.7281 79.8702 65.9682 79.8104 65.7083 79.8503C64.7484 79.9699 65.2484 79.7706 64.7884 80.3087L61.529 82.5609C60.4492 83.2386 56.05 82.521 56.0899 84.3946C56.1299 85.6303 56.2499 83.5774 56.1699 84.7334C56.1099 85.9691 54.6502 85.2117 53.5704 87.4639C52.5306 89.6364 52.7505 88.8591 52.4506 88.8192L52.2306 87.2248C52.2306 88.9787 52.4506 89.0983 51.8907 90.1148L51.5107 90.8921C52.8305 90.055 53.2304 88.7993 54.0503 87.4639C54.5902 87.743 54.5302 87.8227 55.2301 88.2612C55.65 88.5402 55.89 88.6598 56.6099 88.9388L56.5299 89.5766C59.5893 89.2777 61.449 87.4639 63.6486 86.9856C63.8886 87.4241 63.7086 86.8859 63.6886 87.2248L63.6686 87.3045C63.6686 87.3045 63.6486 87.3244 63.6486 87.3443C65.2284 87.1849 65.4483 86.587 67.548 86.6866C69.4876 86.6468 70.1475 86.587 70.9074 85.0323C71.4673 83.8365 70.7074 84.5341 71.5873 81.7836C71.0074 81.9032 71.2273 81.8434 70.7674 82.3815C70.0875 83.119 69.3076 84.0956 68.1279 84.3148C67.7679 84.7334 68.3878 84.2949 67.6479 84.7533C67.388 84.9128 67.328 84.9128 67.028 84.9726C66.5681 85.0722 66.1882 85.0722 65.7083 85.1918C62.2289 85.5306 58.6295 88.2014 57.3297 88.0419C56.3499 87.9223 55.1101 87.4041 54.1303 87.2846C55.1101 85.5904 62.5688 83.1389 63.6886 83.1588L66.0482 82.3217L68.9477 81.4846C68.6878 81.2853 69.0477 81.4049 68.4478 81.3252C68.0679 81.2853 67.428 81.4448 67.028 81.1657C68.3278 80.807 68.7677 81.2255 69.3276 80.3286C68.8277 80.0297 68.5478 80.0496 68.0879 79.8104C67.208 79.352 65.7683 78.0166 64.5885 78.1362C63.7286 78.2159 61.389 80.6674 60.9291 81.2454Z" fill="black"/>
<path fill-rule="evenodd" clip-rule="evenodd" d="M74.7074 60.9556C74.4874 59.9192 74.3075 59.7597 73.9275 58.823C73.9475 58.7632 74.0275 58.7233 74.0675 58.7034C74.1075 58.6834 74.1875 58.6237 74.2075 58.6037C74.2475 58.5838 74.3275 58.524 74.3475 58.524C74.9873 58.1254 74.2275 58.5639 74.6074 58.4243C75.4273 59.2017 74.7074 58.8828 75.5072 60.4174L74.7074 60.9556ZM69.3883 67.9713C69.6683 68.1108 69.7882 68.0112 70.2682 68.9479C70.6081 69.6256 70.5481 69.7252 71.068 70.1039L75.1273 64.0848C75.7872 62.9487 75.5472 57.1886 75.4073 55.1557C76.1271 54.7969 75.1673 55.355 75.8072 55.1557L75.9872 53.4416C74.2675 53.1426 73.8475 52.8237 71.8879 52.8835C72.6278 53.601 72.8877 52.9034 73.4876 53.322C73.0477 54.0794 73.2876 53.601 72.4678 54.0594L73.4076 54.478C72.8877 55.4546 73.0077 54.6574 72.5878 55.8134C72.2278 56.8498 72.7677 56.4312 71.7679 57.1288C72.8677 57.0292 72.7477 56.9295 73.4276 57.667C73.1477 58.4443 73.4276 57.946 72.6078 58.3645C74.4674 59.7797 71.268 58.6834 73.7276 60.4573C74.5874 61.0951 74.0675 60.2779 74.4474 61.5734C74.6074 62.1315 74.7074 62.3707 74.6274 63.1679C74.1075 63.4868 73.4076 63.726 72.6078 63.8456L72.4078 65.161C69.0684 65.8188 74.0075 65.6394 68.2285 67.3734C68.9484 67.6325 68.9284 67.3335 69.3883 67.9713Z" fill="#F7F7F7"/>
<path fill-rule="evenodd" clip-rule="evenodd" d="M53.3707 49.3956C50.3913 50.6114 51.771 54.6175 55.4504 53.1426C58.1499 52.0663 57.0501 47.9007 53.3707 49.3956Z" fill="black"/>
<path fill-rule="evenodd" clip-rule="evenodd" d="M18.4568 37.0584C19.6966 37.4969 28.3751 38.4735 29.2949 37.9952C28.815 37.0983 25.7955 37.0983 24.8557 37.0185C23.136 36.8392 21.5363 36.7395 19.8166 36.5801C21.2563 34.8859 25.8355 34.0687 26.7753 31.7368C25.3356 32.4743 24.0758 33.431 22.4561 34.2282C21.3563 34.7863 18.5568 35.7828 18.4568 37.0584Z" fill="white"/>
<path fill-rule="evenodd" clip-rule="evenodd" d="M62.6891 73.0339C64.2488 72.8346 64.6087 72.1968 65.9485 71.9776C66.9883 72.735 67.5882 73.7714 68.0082 75.1267C67.3083 75.7645 66.4284 76.3624 65.5886 76.8806C66.0485 76.4421 66.8883 75.6449 66.8484 74.6683C63.6089 74.8477 63.329 75.3061 62.1492 77.5583C62.6891 77.3789 62.2292 77.7576 62.8291 77.0002C63.8689 75.6449 63.129 76.5219 65.6886 75.8243C65.4886 76.3425 65.4686 76.2827 65.0687 76.7012C64.5288 77.2792 64.6687 76.9803 64.3288 77.6181C65.8685 77.4387 66.8484 76.6215 67.7082 75.4854C68.3481 75.6648 68.1281 75.4854 68.4281 75.9239C68.2281 74.5487 67.6482 72.8944 66.7484 71.9776C66.1085 71.3398 65.4886 71.5192 64.6487 71.9377L62.8291 72.9143C62.7891 72.9343 62.7291 72.9941 62.6891 73.0339Z" fill="black"/>
<path fill-rule="evenodd" clip-rule="evenodd" d="M57.89 78.1762C56.9102 78.0167 56.1103 76.6415 54.5306 78.9535C54.7506 80.0098 55.4104 80.4483 55.4104 80.4483C55.4304 80.4085 55.5104 80.548 55.5504 80.5679L53.5508 80.7672L54.0907 76.0236L55.2705 75.6848C54.9905 75.2862 55.3904 75.0869 53.7907 75.7645L53.3508 78.9734C52.9309 79.1129 53.3708 78.9734 53.0908 78.9734C52.391 78.9535 53.6307 78.5947 52.9509 78.9535L52.4709 85.9294C52.5709 85.6105 52.8109 84.1954 52.8709 83.7569C53.0109 82.9198 52.9709 82.1425 53.0508 81.2456L55.7304 80.8469C55.6704 79.1727 55.0105 79.5116 57.2501 78.5947C57.89 78.3356 57.4901 78.6147 57.89 78.1762Z" fill="black"/>
<path fill-rule="evenodd" clip-rule="evenodd" d="M83.6656 52.186C84.5454 51.1696 84.0655 52.1263 84.3255 51.4486C84.7054 52.6445 84.2255 53.1627 83.9255 54.2987L83.7256 53.2823C83.7256 53.362 83.6856 53.9599 83.6656 54.0197C83.5056 54.6376 83.5856 54.2589 83.3456 54.6176L83.1057 52.8637L83.6656 52.186ZM81.5859 54.8767C82.4658 54.5379 82.2058 55.1558 82.6857 53.5015C82.7057 53.5613 82.7457 53.6211 82.7657 53.6809C83.5056 55.7138 83.5656 55.8733 83.2257 57.2884C82.9257 58.4843 82.6058 59.8196 82.5858 60.9756C83.3056 59.5805 83.1657 57.3482 84.0855 56.0527C84.8054 55.0362 85.0853 53.5214 85.0053 52.186C84.9454 50.7909 84.5454 50.8108 84.5454 50.8108C83.1457 51.2094 81.9259 53.7207 81.5859 54.8767Z" fill="black"/>
<path fill-rule="evenodd" clip-rule="evenodd" d="M62.8287 52.9634L62.2088 56.8101C61.5489 57.4479 61.3489 57.109 61.1689 58.5042L63.7685 55.2754C64.9883 53.9201 66.2881 53.8403 67.3279 52.8438C65.9081 52.7641 64.0484 52.5847 62.8287 52.9634Z" fill="#F8F8F8"/>
<path fill-rule="evenodd" clip-rule="evenodd" d="M59.0697 76.1033L57.25 76.9603L58.2298 77.1596C58.1898 77.2194 58.0699 77.3988 58.0499 77.4387C58.0499 77.4586 57.9099 77.8173 57.9099 77.8173L58.7297 78.4153C59.8495 79.1527 60.8694 78.3754 61.5493 78.1562L61.3893 77.7177C61.3893 77.7177 61.4693 77.7177 61.4893 77.6778C60.8694 77.1995 62.3291 77.0201 60.4894 77.5184C60.9494 77.3789 61.8692 76.8607 61.0493 76.4022C60.7694 76.2627 59.6496 76.761 59.0497 76.8208C59.5496 76.5218 59.5096 76.6813 59.8695 76.1033H59.0697Z" fill="black"/>
<path fill-rule="evenodd" clip-rule="evenodd" d="M58.1699 93.1243C59.9696 92.048 59.1697 92.1078 62.1892 90.7724C63.749 90.0948 67.6083 89.7958 67.7283 89.7161C65.2887 88.3408 59.3297 91.0913 58.1699 93.1243Z" fill="black"/>
<path fill-rule="evenodd" clip-rule="evenodd" d="M81.0259 61.2945C82.3056 61.2347 82.0057 58.8429 82.0057 57.7268C81.3658 57.9062 81.1458 57.368 80.7859 59.2615C80.386 61.5137 80.9459 61.1549 81.0259 61.2945Z" fill="black"/>
<path fill-rule="evenodd" clip-rule="evenodd" d="M53.2504 92.3072C56.1099 93.8418 56.5898 92.925 58.2696 91.6893C58.7895 91.3106 59.4094 90.9319 59.6093 90.334C59.2494 90.633 58.3495 91.0515 57.7896 91.4302C54.3502 93.7422 56.3899 92.5264 52.3506 91.5298L53.2504 92.3072Z" fill="black"/>
<path fill-rule="evenodd" clip-rule="evenodd" d="M58.9697 84.0358L66.6084 81.6441C64.5688 81.1856 60.9694 83.0791 60.8894 83.099C59.8296 83.3781 59.6896 83.3183 58.9697 84.0358Z" fill="#E7E7E7"/>
<path fill-rule="evenodd" clip-rule="evenodd" d="M39.3132 70.9213C39.1132 69.3866 38.5133 68.8684 38.3133 67.0746L39.4132 67.5131C39.4731 67.533 39.5531 67.5728 39.6131 67.6127C39.1532 66.676 38.9132 66.377 37.7734 66.676C37.8134 68.1708 38.2134 70.1639 39.3132 70.9213Z" fill="#0F0F0F"/>
<path fill-rule="evenodd" clip-rule="evenodd" d="M60.929 81.2455C58.7494 81.1458 57.0696 81.8235 55.09 82.1424L54.3701 83.6372C54.4701 83.5974 54.5501 83.4578 54.5701 83.5176C54.6501 83.6572 55.05 82.7403 55.4899 82.5012C56.7097 81.8036 60.0491 82.0627 60.929 81.2455Z" fill="black"/>
<path fill-rule="evenodd" clip-rule="evenodd" d="M58.6094 75.7446C60.0291 75.8841 60.3091 74.9473 60.849 74.0903C61.3289 73.3329 61.8088 72.6951 62.2888 71.858C61.9488 71.2003 62.5087 71.6786 61.7488 71.6587C61.6289 72.436 59.8292 74.9075 59.3693 75.4855L57.3496 75.1466L58.6094 75.7446Z" fill="black"/>
<path fill-rule="evenodd" clip-rule="evenodd" d="M82.0658 62.032C79.8662 60.9955 81.206 61.2547 79.8662 60.3777C79.9662 60.9756 80.1262 61.4141 80.6261 61.8127L81.7859 62.4904C81.5659 65.8587 81.5259 63.5268 80.5661 65.4003L82.0058 64.5433L82.0658 62.032Z" fill="#0F0F0F"/>
<path fill-rule="evenodd" clip-rule="evenodd" d="M83.1055 52.8636L83.3454 54.6175C83.5854 54.2588 83.5054 54.6375 83.6654 54.0196C83.6854 53.9598 83.7254 53.3619 83.7254 53.2821L83.9253 54.2986C84.2253 53.1626 84.7052 52.6443 84.3253 51.4485C84.0653 52.1261 84.5452 51.1695 83.6654 52.1859L83.1055 52.8636Z" fill="white"/>
<path fill-rule="evenodd" clip-rule="evenodd" d="M64.789 80.3087C64.2091 81.385 64.2291 80.9067 63.4492 81.7039C64.2091 81.4847 64.3491 81.106 65.0489 81.0462C66.4487 80.9266 66.1487 81.7039 67.1286 80.5678C67.0886 80.528 67.0286 80.3884 66.9886 80.4482L66.2087 80.1891C65.6288 80.1293 65.3089 80.229 64.789 80.3087Z" fill="#F4F4F4"/>
<path fill-rule="evenodd" clip-rule="evenodd" d="M59.0693 79.1924L59.9492 79.4316L59.9892 80.7471C61.3889 80.6075 60.5291 80.5278 60.5291 79.2522L61.5289 78.6742C61.9288 78.3354 61.6089 78.6742 61.9088 78.2158C61.229 78.3952 59.5493 78.9333 59.0693 79.1924Z" fill="black"/>
<path fill-rule="evenodd" clip-rule="evenodd" d="M73.9268 58.823C74.3067 59.7598 74.4867 59.9192 74.7066 60.9556L75.5065 60.4175C74.7066 58.8828 75.4265 59.2017 74.6066 58.4244C74.2267 58.5639 74.9866 58.1254 74.3467 58.5241C74.3267 58.5241 74.2467 58.5839 74.2067 58.6038C74.1867 58.6237 74.1067 58.6835 74.0667 58.7034C74.0267 58.7234 73.9468 58.7632 73.9268 58.823Z" fill="black"/>
<path fill-rule="evenodd" clip-rule="evenodd" d="M63.4286 93.2241C64.0485 92.9252 63.5686 93.264 64.1485 92.7059C64.4284 92.4468 64.2285 92.5863 64.4884 92.3472C63.0487 92.8853 63.6286 93.1245 61.8489 92.7857L62.4488 93.4832C61.9888 93.9217 61.8289 93.9018 61.6289 94.42C63.1286 93.842 62.1288 93.3836 64.0085 93.7623L63.4286 93.2241Z" fill="black"/>
<path fill-rule="evenodd" clip-rule="evenodd" d="M56.8105 84.0758C57.9304 83.8964 58.9102 83.7768 59.6301 83.1988C57.8704 83.139 57.6104 82.86 56.8105 84.0758Z" fill="#E4E4E4"/>
</g>
<defs>
<clipPath id="clip0_1_176">
<rect width="115" height="102" fill="white"/>
</clipPath>
</defs>
</svg>
