<svg width="137" height="137" viewBox="0 0 137 137" fill="none" xmlns="http://www.w3.org/2000/svg">
<mask id="mask0_1_10139" style="mask-type:alpha" maskUnits="userSpaceOnUse" x="0" y="0" width="137" height="137">
<rect width="136.014" height="136.014" fill="#D9D9D9"/>
</mask>
<g mask="url(#mask0_1_10139)">
</g>
<g clip-path="url(#clip0_1_10139)">
<path fill-rule="evenodd" clip-rule="evenodd" d="M17.2757 106.834L10.0847 108.984L7.94263 125.107L11.462 126.565L51.1661 135.011H60.1785L67.6218 137.007L75.2172 135.011H82.8632L122.567 126.565L126.087 125.107L123.945 108.984L116.754 106.834L67.5379 102.7V102.612L67.0146 102.655L66.4913 102.612V102.7L17.2757 106.834Z" fill="black"/>
<path fill-rule="evenodd" clip-rule="evenodd" d="M60.5519 6.5852C60.8531 6.26033 60.2996 6.4075 61.3143 6.0615C61.593 5.96677 61.8174 5.96364 62.0946 5.9292C61.819 6.58912 61.3205 6.56563 60.5527 6.5852H60.5519Z" fill="#101314"/>
<path fill-rule="evenodd" clip-rule="evenodd" d="M60.5519 6.5852C60.8531 6.26033 60.2996 6.4075 61.3143 6.0615C61.593 5.96677 61.8174 5.96364 62.0946 5.9292C61.819 6.58912 61.3205 6.56563 60.5527 6.5852H60.5519Z" fill="#101314"/>
<path fill-rule="evenodd" clip-rule="evenodd" d="M82.9937 17.1111C84.253 17.6105 83.9331 17.8532 84.7933 18.5703L84.6761 21.7493L83.6683 20.2267C84.5791 18.3753 83.6955 18.3354 82.9937 17.1111Z" fill="#101314"/>
<path fill-rule="evenodd" clip-rule="evenodd" d="M82.9937 17.1111C84.253 17.6105 83.9331 17.8532 84.7933 18.5703L84.6761 21.7493L83.6683 20.2267C84.5791 18.3753 83.6955 18.3354 82.9937 17.1111Z" fill="#101314"/>
<path fill-rule="evenodd" clip-rule="evenodd" d="M60.3975 17.3044C60.854 17.4939 60.7181 17.0023 60.8027 17.6043C60.8804 18.1569 60.8159 17.7765 60.6172 18.0927C60.1692 17.7514 59.9984 17.9142 60.3975 17.3044Z" fill="#101314"/>
<path fill-rule="evenodd" clip-rule="evenodd" d="M60.3975 17.3044C60.854 17.4939 60.7181 17.0023 60.8027 17.6043C60.8804 18.1569 60.8159 17.7765 60.6172 18.0927C60.1692 17.7514 59.9984 17.9142 60.3975 17.3044Z" fill="#101314"/>
<path fill-rule="evenodd" clip-rule="evenodd" d="M60.6067 18.9373C62.4863 18.4762 64.0019 19.3045 63.4071 21.3093C62.7162 19.2669 62.4522 19.6974 60.6067 18.9373Z" fill="#101314"/>
<path fill-rule="evenodd" clip-rule="evenodd" d="M60.6067 18.9373C62.4863 18.4762 64.0019 19.3045 63.4071 21.3093C62.7162 19.2669 62.4522 19.6974 60.6067 18.9373Z" fill="#101314"/>
<path fill-rule="evenodd" clip-rule="evenodd" d="M72.0635 22.687L72.2545 25.2335C71.6637 24.2065 71.4579 23.7196 72.0635 22.687Z" fill="#101314"/>
<path fill-rule="evenodd" clip-rule="evenodd" d="M72.0635 22.687L72.2545 25.2335C71.6637 24.2065 71.4579 23.7196 72.0635 22.687Z" fill="#101314"/>
<path fill-rule="evenodd" clip-rule="evenodd" d="M55.1284 26.3333C55.3582 26.7036 55.3031 26.6105 55.1284 26.9635C54.7464 26.4883 54.6439 27.7213 54.9289 26.6496C55.2076 25.6014 54.3031 26.7991 55.1284 26.3333Z" fill="#101314"/>
<path fill-rule="evenodd" clip-rule="evenodd" d="M55.1284 26.3333C55.3582 26.7036 55.3031 26.6105 55.1284 26.9635C54.7464 26.4883 54.6439 27.7213 54.9289 26.6496C55.2076 25.6014 54.3031 26.7991 55.1284 26.3333Z" fill="#101314"/>
<path fill-rule="evenodd" clip-rule="evenodd" d="M79.3158 26.7381C82.3282 26.5753 83.7436 29.2157 83.8996 32.2163C83.6046 31.8648 83.2715 31.4319 82.9416 31.1838C82.9291 29.1602 83.2211 29.503 81.8903 28.2176C81.0324 27.3894 80.5495 27.2039 79.3158 26.7381Z" fill="#101314"/>
<path fill-rule="evenodd" clip-rule="evenodd" d="M79.3158 26.7381C82.3282 26.5753 83.7436 29.2157 83.8996 32.2163C83.6046 31.8648 83.2715 31.4319 82.9416 31.1838C82.9291 29.1602 83.2211 29.503 81.8903 28.2176C81.0324 27.3894 80.5495 27.2039 79.3158 26.7381Z" fill="#101314"/>
<path fill-rule="evenodd" clip-rule="evenodd" d="M78.6182 27.8569C78.9684 28.3564 78.8954 28.3251 78.6182 28.736C78.0514 28.3 77.8861 28.3705 78.6182 27.8569Z" fill="#101314"/>
<path fill-rule="evenodd" clip-rule="evenodd" d="M78.6182 27.8569C78.9684 28.3564 78.8954 28.3251 78.6182 28.736C78.0514 28.3 77.8861 28.3705 78.6182 27.8569Z" fill="#101314"/>
<path fill-rule="evenodd" clip-rule="evenodd" d="M57.0248 28.8713C57.8842 29.0741 57.2647 28.7046 57.628 29.4287C56.8346 29.1712 57.413 29.3888 57.0248 28.8713Z" fill="#101314"/>
<path fill-rule="evenodd" clip-rule="evenodd" d="M57.0248 28.8713C57.8842 29.0741 57.2647 28.7046 57.628 29.4287C56.8346 29.1712 57.413 29.3888 57.0248 28.8713Z" fill="#101314"/>
<path fill-rule="evenodd" clip-rule="evenodd" d="M87.7727 31.0719C88.0592 30.5396 87.4513 30.639 88.3698 30.747C88.3348 31.4539 88.4412 31.5118 87.7727 31.0719Z" fill="#101314"/>
<path fill-rule="evenodd" clip-rule="evenodd" d="M87.7727 31.0719C88.0592 30.5396 87.4513 30.639 88.3698 30.747C88.3348 31.4539 88.4412 31.5118 87.7727 31.0719Z" fill="#101314"/>
<path fill-rule="evenodd" clip-rule="evenodd" d="M106.456 41.6432C105.971 41.5015 104.51 39.8278 102.951 38.6403C98.6531 35.3673 93.7735 33.9324 89.678 31.8203C90.8954 31.9291 100.829 35.4996 103.294 38.0625C103.638 38.4203 103.647 38.5346 103.971 38.9275C104.299 39.326 104.495 39.4544 104.862 39.8043C105.363 40.2834 106.211 41.0388 106.456 41.6432Z" fill="#101314"/>
<path fill-rule="evenodd" clip-rule="evenodd" d="M106.456 41.6432C105.971 41.5015 104.51 39.8278 102.951 38.6403C98.6531 35.3673 93.7735 33.9324 89.678 31.8203C90.8954 31.9291 100.829 35.4996 103.294 38.0625C103.638 38.4203 103.647 38.5346 103.971 38.9275C104.299 39.326 104.495 39.4544 104.862 39.8043C105.363 40.2834 106.211 41.0388 106.456 41.6432Z" fill="#101314"/>
<path fill-rule="evenodd" clip-rule="evenodd" d="M60.7057 44.0049C60.7103 43.9071 60.4953 43.6041 61.1016 43.6589C61.8322 43.7255 61.2856 43.6675 61.5931 43.9094L60.7057 44.0041V44.0049Z" fill="#101314"/>
<path fill-rule="evenodd" clip-rule="evenodd" d="M60.7057 44.0049C60.7103 43.9071 60.4953 43.6041 61.1016 43.6589C61.8322 43.7255 61.2856 43.6675 61.5931 43.9094L60.7057 44.0041V44.0049Z" fill="#101314"/>
<path fill-rule="evenodd" clip-rule="evenodd" d="M62.1365 45.0163C61.6404 45.4695 62.0852 45.3913 61.3818 45.1486C61.454 44.8957 61.3415 44.83 61.614 44.7321C62.121 44.5497 62.1311 45.0108 62.1365 45.0171V45.0163Z" fill="#101314"/>
<path fill-rule="evenodd" clip-rule="evenodd" d="M62.1365 45.0163C61.6404 45.4695 62.0852 45.3913 61.3818 45.1486C61.454 44.8957 61.3415 44.83 61.614 44.7321C62.121 44.5497 62.1311 45.0108 62.1365 45.0171V45.0163Z" fill="#101314"/>
<path fill-rule="evenodd" clip-rule="evenodd" d="M46.9436 51.5576C48.1354 52.151 48.3046 54.4862 48.3613 55.8639C47.8442 55.2643 47.8341 54.9347 47.5577 53.9671C47.3186 53.1311 47.0624 52.4258 46.9436 51.5576Z" fill="#101314"/>
<path fill-rule="evenodd" clip-rule="evenodd" d="M46.9436 51.5576C48.1354 52.151 48.3046 54.4862 48.3613 55.8639C47.8442 55.2643 47.8341 54.9347 47.5577 53.9671C47.3186 53.1311 47.0624 52.4258 46.9436 51.5576Z" fill="#101314"/>
<path fill-rule="evenodd" clip-rule="evenodd" d="M89.0303 56.3649C88.8114 56.1238 88.5039 56.408 88.8207 55.1226C88.9286 54.6858 89.0474 54.2897 89.1398 53.8685C89.3564 52.879 89.2446 52.1424 90.2042 51.8989C90.0746 53.4153 89.5482 55.233 89.0303 56.3649Z" fill="#101314"/>
<path fill-rule="evenodd" clip-rule="evenodd" d="M89.0303 56.3649C88.8114 56.1238 88.5039 56.408 88.8207 55.1226C88.9286 54.6858 89.0474 54.2897 89.1398 53.8685C89.3564 52.879 89.2446 52.1424 90.2042 51.8989C90.0746 53.4153 89.5482 55.233 89.0303 56.3649Z" fill="#101314"/>
<path fill-rule="evenodd" clip-rule="evenodd" d="M53.5584 68.6221L57.5491 69.5576C56.4986 70.0578 54.7556 69.6593 53.6555 69.5897C54.2129 70.0398 54.9544 70.3952 55.7541 70.4461C64.3278 70.8046 64.1811 65.4509 66.584 63.8477C68.3798 62.65 70.0475 63.4508 70.5009 65.1417C70.49 65.1331 68.5902 62.585 66.6065 64.5569C65.6741 65.4838 65.1197 67.0604 64.0576 68.1916C63.0196 69.2961 61.8185 69.9623 60.4443 70.5267C59.2541 71.016 56.4699 71.6908 55.4435 70.6214C53.0615 70.3921 49.0173 68.5603 48.2743 66.7488C46.4102 64.6446 46.1322 60.35 45.8411 56.9401C47.0367 57.4497 47.2052 58.2482 47.1229 59.687C48.1485 60.3837 48.1516 60.1097 48.199 61.7575L48.4684 61.4217C48.4723 61.4162 48.7293 60.9575 48.7479 60.9121C49.067 60.1441 49.3418 56.9213 53.7595 56.832C50.7199 57.1444 49.3519 59.3003 49.1361 62.4926C48.8861 66.1954 50.5515 67.923 53.5577 68.6213L53.5584 68.6221Z" fill="#101314"/>
<path fill-rule="evenodd" clip-rule="evenodd" d="M53.5584 68.6221L57.5491 69.5576C56.4986 70.0578 54.7556 69.6593 53.6555 69.5897C54.2129 70.0398 54.9544 70.3952 55.7541 70.4461C64.3278 70.8046 64.1811 65.4509 66.584 63.8477C68.3798 62.65 70.0475 63.4508 70.5009 65.1417C70.49 65.1331 68.5902 62.585 66.6065 64.5569C65.6741 65.4838 65.1197 67.0604 64.0576 68.1916C63.0196 69.2961 61.8185 69.9623 60.4443 70.5267C59.2541 71.016 56.4699 71.6908 55.4435 70.6214C53.0615 70.3921 49.0173 68.5603 48.2743 66.7488C46.4102 64.6446 46.1322 60.35 45.8411 56.9401C47.0367 57.4497 47.2052 58.2482 47.1229 59.687C48.1485 60.3837 48.1516 60.1097 48.199 61.7575L48.4684 61.4217C48.4723 61.4162 48.7293 60.9575 48.7479 60.9121C49.067 60.1441 49.3418 56.9213 53.7595 56.832C50.7199 57.1444 49.3519 59.3003 49.1361 62.4926C48.8861 66.1954 50.5515 67.923 53.5577 68.6213L53.5584 68.6221Z" fill="#101314"/>
<path fill-rule="evenodd" clip-rule="evenodd" d="M51.208 63.1669L55.1637 64.3669L51.2142 64.3074C50.5263 63.0197 50.4292 61.0204 51.1792 59.771C50.944 60.9977 50.7041 61.8783 51.208 63.1669Z" fill="#101314"/>
<path fill-rule="evenodd" clip-rule="evenodd" d="M51.208 63.1669L55.1637 64.3669L51.2142 64.3074C50.5263 63.0197 50.4292 61.0204 51.1792 59.771C50.944 60.9977 50.7041 61.8783 51.208 63.1669Z" fill="#101314"/>
<path fill-rule="evenodd" clip-rule="evenodd" d="M71.9125 64.4993L71.9288 64.1212C70.9568 64.4257 71.6656 64.2926 71.4156 63.7446C71.3092 63.5113 71.3457 63.051 71.3962 62.8037C71.8706 60.4591 72.3582 60.4059 74.5546 59.9988C75.7401 59.7789 77.1609 59.8016 78.3892 59.9135C82.0514 60.2454 84.1493 66.9605 74.4412 66.1299C73.8085 66.0759 73.362 65.9545 72.8582 65.7032C72.1741 65.3627 72.0088 65.3306 71.9125 64.4993Z" fill="#101314"/>
<path fill-rule="evenodd" clip-rule="evenodd" d="M71.9125 64.4993L71.9288 64.1212C70.9568 64.4257 71.6656 64.2926 71.4156 63.7446C71.3092 63.5113 71.3457 63.051 71.3962 62.8037C71.8706 60.4591 72.3582 60.4059 74.5546 59.9988C75.7401 59.7789 77.1609 59.8016 78.3892 59.9135C82.0514 60.2454 84.1493 66.9605 74.4412 66.1299C73.8085 66.0759 73.362 65.9545 72.8582 65.7032C72.1741 65.3627 72.0088 65.3306 71.9125 64.4993Z" fill="#101314"/>
<path fill-rule="evenodd" clip-rule="evenodd" d="M42.8832 80.9736C45.7326 84.7499 43.9197 86.0283 52.7077 94.3911C53.4569 95.1043 54.0618 95.6217 54.8482 96.2128C55.6013 96.7795 56.4546 97.2735 57.1075 97.9084C52.8187 96.1165 47.8397 90.3056 45.3164 86.5543C44.3529 85.1225 43.2862 83.1256 42.5269 81.3627C42.287 80.68 41.1014 77.9362 41.096 77.3209C41.0913 76.8019 42.4624 74.8707 42.8033 73.5258C43.745 69.8145 42.2147 69.7041 46.4174 67.6515C46.4694 67.6257 46.856 67.4582 46.8716 67.4558C47.9484 67.2891 47.0486 67.3462 47.4539 67.5928C47.0781 68.4203 46.8327 68.169 45.2062 69.1005C44.106 69.7307 43.9453 70.0916 43.7295 71.568C43.5758 72.6232 43.4166 73.7818 43.0517 74.6617C41.4904 78.4192 41.0238 75.5369 42.8832 80.9728V80.9736Z" fill="#101314"/>
<path fill-rule="evenodd" clip-rule="evenodd" d="M42.8832 80.9736C45.7326 84.7499 43.9197 86.0283 52.7077 94.3911C53.4569 95.1043 54.0618 95.6217 54.8482 96.2128C55.6013 96.7795 56.4546 97.2735 57.1075 97.9084C52.8187 96.1165 47.8397 90.3056 45.3164 86.5543C44.3529 85.1225 43.2862 83.1256 42.5269 81.3627C42.287 80.68 41.1014 77.9362 41.096 77.3209C41.0913 76.8019 42.4624 74.8707 42.8033 73.5258C43.745 69.8145 42.2147 69.7041 46.4174 67.6515C46.4694 67.6257 46.856 67.4582 46.8716 67.4558C47.9484 67.2891 47.0486 67.3462 47.4539 67.5928C47.0781 68.4203 46.8327 68.169 45.2062 69.1005C44.106 69.7307 43.9453 70.0916 43.7295 71.568C43.5758 72.6232 43.4166 73.7818 43.0517 74.6617C41.4904 78.4192 41.0238 75.5369 42.8832 80.9728V80.9736Z" fill="#101314"/>
<path fill-rule="evenodd" clip-rule="evenodd" d="M81.0709 95.3688C80.8605 95.7352 81.0833 95.628 80.5157 96.1023L78.6066 97.4785C77.8154 97.9756 76.6998 98.8054 75.7805 99.0559C76.5802 98.0923 78.6291 96.9024 79.5126 96.1391C80.2362 95.5137 79.862 95.4463 80.9296 95.2209C81.9102 94.294 82.6881 93.6224 83.7906 92.5084C84.8768 91.4109 85.5538 90.693 86.532 89.5157C89.3084 86.1723 91.2447 82.8547 92.8037 78.5625C93.2121 77.4368 93.0972 77.4125 92.5367 76.5764C90.4342 73.4444 91.1966 71.3127 90.4769 70.0195C90.2401 69.5929 89.48 69.1381 88.869 68.7795C86.6314 67.4683 87.2385 68.5259 87.1392 67.372C87.9249 67.0902 90.4567 68.7106 90.8441 69.2116C91.6764 70.2857 91.4691 72.5653 92.0041 74.0479C93.091 77.0594 95.0079 76.0895 91.8069 82.2245C88.626 88.3211 85.4878 91.8211 81.0701 95.3696L81.0709 95.3688Z" fill="#101314"/>
<path fill-rule="evenodd" clip-rule="evenodd" d="M81.0709 95.3688C80.8605 95.7352 81.0833 95.628 80.5157 96.1023L78.6066 97.4785C77.8154 97.9756 76.6998 98.8054 75.7805 99.0559C76.5802 98.0923 78.6291 96.9024 79.5126 96.1391C80.2362 95.5137 79.862 95.4463 80.9296 95.2209C81.9102 94.294 82.6881 93.6224 83.7906 92.5084C84.8768 91.4109 85.5538 90.693 86.532 89.5157C89.3084 86.1723 91.2447 82.8547 92.8037 78.5625C93.2121 77.4368 93.0972 77.4125 92.5367 76.5764C90.4342 73.4444 91.1966 71.3127 90.4769 70.0195C90.2401 69.5929 89.48 69.1381 88.869 68.7795C86.6314 67.4683 87.2385 68.5259 87.1392 67.372C87.9249 67.0902 90.4567 68.7106 90.8441 69.2116C91.6764 70.2857 91.4691 72.5653 92.0041 74.0479C93.091 77.0594 95.0079 76.0895 91.8069 82.2245C88.626 88.3211 85.4878 91.8211 81.0701 95.3696L81.0709 95.3688Z" fill="#101314"/>
<path fill-rule="evenodd" clip-rule="evenodd" d="M65.2259 68.9204C66.6094 69.0418 66.2709 71.0748 67.194 70.681C68.1047 69.1114 69.0667 67.6687 71.3741 67.3501C72.5869 68.774 73.0721 69.6915 74.7841 70.5706C76.1932 71.2947 78.7344 72.1707 80.0892 71.1601C80.6117 71.0145 80.1303 71.5632 81.2375 70.9143C81.9067 70.5244 81.8438 70.335 82.9572 69.877L82.9168 70.4211L83.4479 71.0889C83.8578 70.6591 83.621 70.8008 84.3042 70.472C84.5635 70.3968 84.5472 70.3968 84.7211 70.2818C85.1194 69.2931 85.6303 68.5322 86.5604 68.1768L86.6148 70.6199C86.6831 72.4424 86.5255 72.6944 85.7188 73.864C85.1963 74.6225 84.5053 75.8046 83.7569 76.1694C83.6466 76.5451 83.8368 76.2249 83.517 76.7385C83.4005 76.9248 83.26 77.0782 83.1194 77.2293C82.7219 77.6583 82.4688 77.9088 82.1047 78.2423C81.3081 79.2983 80.1528 79.9167 79.3066 81.1231C78.5729 82.1697 77.9541 83.6774 77.2677 84.8219C75.8306 87.2181 74.1272 89.691 72.2577 91.2128C73.281 89.4358 74.9727 87.4851 75.7421 85.3025C73.5403 87.9743 71.5574 92.5616 67.0574 92.7159C66.552 90.8206 65.1164 87.5641 66.0131 85.2102C66.4665 84.0195 69.767 82.4805 70.9091 81.3C69.295 81.6014 67.7196 82.6159 66.0659 81.538C66.9541 79.7304 71.8539 79.3969 74.0092 78.4192L72.9782 78.3112L66.4828 78.2C66.6412 77.9158 72.0255 74.318 70.9929 73.0874C70.7569 72.9559 70.9378 72.941 70.5022 72.9598L67.8252 74.1708C67.0993 74.4534 68.2515 74.1904 67.1637 74.4362L66.3058 73.6698C66.2328 73.6776 65.8501 73.7418 65.8369 73.7379C65.295 73.6009 65.8291 73.8898 65.4223 73.496C64.5457 73.0952 65.0613 73.2643 64.1715 72.2169C63.5574 71.4936 63.8315 72.6842 63.6708 71.4114C63.618 70.9072 63.7678 71.1186 63.2833 70.4665C63.9464 69.7487 64.1902 69.3134 65.2259 68.9197V68.9204Z" fill="#101314"/>
<path fill-rule="evenodd" clip-rule="evenodd" d="M65.2259 68.9204C66.6094 69.0418 66.2709 71.0748 67.194 70.681C68.1047 69.1114 69.0667 67.6687 71.3741 67.3501C72.5869 68.774 73.0721 69.6915 74.7841 70.5706C76.1932 71.2947 78.7344 72.1707 80.0892 71.1601C80.6117 71.0145 80.1303 71.5632 81.2375 70.9143C81.9067 70.5244 81.8438 70.335 82.9572 69.877L82.9168 70.4211L83.4479 71.0889C83.8578 70.6591 83.621 70.8008 84.3042 70.472C84.5635 70.3968 84.5472 70.3968 84.7211 70.2818C85.1194 69.2931 85.6303 68.5322 86.5604 68.1768L86.6148 70.6199C86.6831 72.4424 86.5255 72.6944 85.7188 73.864C85.1963 74.6225 84.5053 75.8046 83.7569 76.1694C83.6466 76.5451 83.8368 76.2249 83.517 76.7385C83.4005 76.9248 83.26 77.0782 83.1194 77.2293C82.7219 77.6583 82.4688 77.9088 82.1047 78.2423C81.3081 79.2983 80.1528 79.9167 79.3066 81.1231C78.5729 82.1697 77.9541 83.6774 77.2677 84.8219C75.8306 87.2181 74.1272 89.691 72.2577 91.2128C73.281 89.4358 74.9727 87.4851 75.7421 85.3025C73.5403 87.9743 71.5574 92.5616 67.0574 92.7159C66.552 90.8206 65.1164 87.5641 66.0131 85.2102C66.4665 84.0195 69.767 82.4805 70.9091 81.3C69.295 81.6014 67.7196 82.6159 66.0659 81.538C66.9541 79.7304 71.8539 79.3969 74.0092 78.4192L72.9782 78.3112L66.4828 78.2C66.6412 77.9158 72.0255 74.318 70.9929 73.0874C70.7569 72.9559 70.9378 72.941 70.5022 72.9598L67.8252 74.1708C67.0993 74.4534 68.2515 74.1904 67.1637 74.4362L66.3058 73.6698C66.2328 73.6776 65.8501 73.7418 65.8369 73.7379C65.295 73.6009 65.8291 73.8898 65.4223 73.496C64.5457 73.0952 65.0613 73.2643 64.1715 72.2169C63.5574 71.4936 63.8315 72.6842 63.6708 71.4114C63.618 70.9072 63.7678 71.1186 63.2833 70.4665C63.9464 69.7487 64.1902 69.3134 65.2259 68.9197V68.9204Z" fill="#101314"/>
<path fill-rule="evenodd" clip-rule="evenodd" d="M53.7795 72.3093C55.434 72.6326 56.0877 74.9498 56.8206 76.5937L55.9914 73.2111C57.2375 73.68 56.5792 73.3458 57.6397 72.9951L57.1288 74.1482C57.2445 74.2147 57.3152 74.1975 57.3284 74.2468C57.545 75.039 56.7181 74.0495 57.5543 74.3494L57.958 74.455C57.5194 75.4336 58.3299 76.5107 58.6094 77.5284C59.0675 77.5284 58.8082 76.5279 58.8144 75.9048C59.0023 76.1162 58.9922 75.9502 59.26 76.5162C59.3206 76.6446 59.4177 77.0023 59.4829 77.2106C59.6964 77.8932 59.7639 77.9378 59.875 78.6032L60.6164 81.9615C60.5465 81.938 60.3532 81.5842 60.3486 81.5771L59.8951 81.0644C61.6645 87.161 66.6769 92.2783 66.8881 92.6815C65.2554 92.4889 63.7274 91.4853 62.8998 90.7072L63.7414 91.8305L61.9976 90.9037C61.3493 90.2344 60.2593 89.3208 59.9363 88.6288C59.531 88.1638 59.2787 87.9329 58.9122 87.46C58.4666 86.8862 58.3757 86.6968 57.9868 86.1684C57.3649 85.3237 56.5869 84.3319 56.163 83.2727C55.5683 82.4782 55.1063 81.2108 54.6118 80.4256C53.222 79.1167 51.6987 77.3812 50.4612 75.6183C48.531 72.8706 48.146 72.9794 48.413 68.5627L49.3191 69.4105C50.7337 70.1636 51.8998 71.1187 52.7523 72.7712L52.4371 71.6071C53.3649 71.8318 53.2453 71.5805 53.7803 72.3078L53.7795 72.3093Z" fill="#101314"/>
<path fill-rule="evenodd" clip-rule="evenodd" d="M53.7795 72.3093C55.434 72.6326 56.0877 74.9498 56.8206 76.5937L55.9914 73.2111C57.2375 73.68 56.5792 73.3458 57.6397 72.9951L57.1288 74.1482C57.2445 74.2147 57.3152 74.1975 57.3284 74.2468C57.545 75.039 56.7181 74.0495 57.5543 74.3494L57.958 74.455C57.5194 75.4336 58.3299 76.5107 58.6094 77.5284C59.0675 77.5284 58.8082 76.5279 58.8144 75.9048C59.0023 76.1162 58.9922 75.9502 59.26 76.5162C59.3206 76.6446 59.4177 77.0023 59.4829 77.2106C59.6964 77.8932 59.7639 77.9378 59.875 78.6032L60.6164 81.9615C60.5465 81.938 60.3532 81.5842 60.3486 81.5771L59.8951 81.0644C61.6645 87.161 66.6769 92.2783 66.8881 92.6815C65.2554 92.4889 63.7274 91.4853 62.8998 90.7072L63.7414 91.8305L61.9976 90.9037C61.3493 90.2344 60.2593 89.3208 59.9363 88.6288C59.531 88.1638 59.2787 87.9329 58.9122 87.46C58.4666 86.8862 58.3757 86.6968 57.9868 86.1684C57.3649 85.3237 56.5869 84.3319 56.163 83.2727C55.5683 82.4782 55.1063 81.2108 54.6118 80.4256C53.222 79.1167 51.6987 77.3812 50.4612 75.6183C48.531 72.8706 48.146 72.9794 48.413 68.5627L49.3191 69.4105C50.7337 70.1636 51.8998 71.1187 52.7523 72.7712L52.4371 71.6071C53.3649 71.8318 53.2453 71.5805 53.7803 72.3078L53.7795 72.3093Z" fill="#101314"/>
<path fill-rule="evenodd" clip-rule="evenodd" d="M98.5945 80.5776C98.4695 80.3162 98.374 80.5753 98.4276 80.0422C98.4586 79.7337 98.7762 79.477 98.9462 78.5149C99.0961 78.7012 99.3655 78.7114 99.3088 79.6876C99.2638 80.4633 99.4804 80.2575 98.5953 80.5776H98.5945Z" fill="#101314"/>
<path fill-rule="evenodd" clip-rule="evenodd" d="M98.5945 80.5776C98.4695 80.3162 98.374 80.5753 98.4276 80.0422C98.4586 79.7337 98.7762 79.477 98.9462 78.5149C99.0961 78.7012 99.3655 78.7114 99.3088 79.6876C99.2638 80.4633 99.4804 80.2575 98.5953 80.5776H98.5945Z" fill="#101314"/>
<path fill-rule="evenodd" clip-rule="evenodd" d="M83.683 82.8664C83.3383 83.019 83.2125 83.2492 82.7894 83.4864L81.6318 84.4962C81.3942 84.8845 81.4268 84.8344 81.1434 85.1961L76.9043 88.9379C77.2009 88.1606 80.3825 84.1917 80.9672 83.6758L81.6209 82.8531L82.6822 81.1778C83.4912 79.7844 84.4229 77.7906 85.0891 76.311C85.2568 79.9167 86.2568 82.745 82.7793 84.8477L83.683 82.8679V82.8664Z" fill="#101314"/>
<path fill-rule="evenodd" clip-rule="evenodd" d="M83.683 82.8664C83.3383 83.019 83.2125 83.2492 82.7894 83.4864L81.6318 84.4962C81.3942 84.8845 81.4268 84.8344 81.1434 85.1961L76.9043 88.9379C77.2009 88.1606 80.3825 84.1917 80.9672 83.6758L81.6209 82.8531L82.6822 81.1778C83.4912 79.7844 84.4229 77.7906 85.0891 76.311C85.2568 79.9167 86.2568 82.745 82.7793 84.8477L83.683 82.8679V82.8664Z" fill="#101314"/>
<path fill-rule="evenodd" clip-rule="evenodd" d="M50.8606 78.2869C54.1393 84.4986 55.6657 85.4066 58.4491 89.9454C57.3528 89.4217 54.2449 86.5511 53.04 85.4215C52.3932 84.8148 51.7962 84.2684 51.0563 83.8473L50.9887 83.9099L50.9375 84.6661C50.3474 83.5678 49.3932 83.1357 49.387 81.3235C49.3824 79.8768 49.6448 78.0544 49.7512 76.5952C50.3381 77.0892 50.488 77.5612 50.8606 78.2869Z" fill="#101314"/>
<path fill-rule="evenodd" clip-rule="evenodd" d="M50.8606 78.2869C54.1393 84.4986 55.6657 85.4066 58.4491 89.9454C57.3528 89.4217 54.2449 86.5511 53.04 85.4215C52.3932 84.8148 51.7962 84.2684 51.0563 83.8473L50.9887 83.9099L50.9375 84.6661C50.3474 83.5678 49.3932 83.1357 49.387 81.3235C49.3824 79.8768 49.6448 78.0544 49.7512 76.5952C50.3381 77.0892 50.488 77.5612 50.8606 78.2869Z" fill="#101314"/>
<path fill-rule="evenodd" clip-rule="evenodd" d="M48.0791 85.7574C48.8206 86.2599 49.3788 86.8698 50.0667 87.5195L56.3865 92.6579C59.4277 94.7222 63.0992 96.8272 67.8632 96.6989C72.4882 96.5736 78.7793 92.4223 81.8624 89.4531C82.3895 88.945 82.5176 89.017 83.0083 88.6021C83.7117 88.008 85.7311 85.7574 86.9835 84.8845C86.2032 87.1093 81.2816 91.3131 79.204 92.7848C70.7483 98.771 65.0969 99.0802 56.4253 93.3022C54.3842 91.9424 49.0597 87.7614 48.0791 85.7589V85.7574Z" fill="#101314"/>
<path fill-rule="evenodd" clip-rule="evenodd" d="M48.0791 85.7574C48.8206 86.2599 49.3788 86.8698 50.0667 87.5195L56.3865 92.6579C59.4277 94.7222 63.0992 96.8272 67.8632 96.6989C72.4882 96.5736 78.7793 92.4223 81.8624 89.4531C82.3895 88.945 82.5176 89.017 83.0083 88.6021C83.7117 88.008 85.7311 85.7574 86.9835 84.8845C86.2032 87.1093 81.2816 91.3131 79.204 92.7848C70.7483 98.771 65.0969 99.0802 56.4253 93.3022C54.3842 91.9424 49.0597 87.7614 48.0791 85.7589V85.7574Z" fill="#101314"/>
<path fill-rule="evenodd" clip-rule="evenodd" d="M28.7524 94.4483L29.601 94.5532C32.3378 89.9886 30.2726 91.3077 31.2019 88.8707L31.6561 88.1216C32.0334 90.8904 32.257 90.1976 32.6087 91.6576C32.8091 92.4905 32.6507 92.9766 32.7594 93.7023C32.91 94.7106 33.24 94.3685 33.7073 95.2288C33.7407 95.2695 33.7958 95.2774 33.809 95.3494C33.8222 95.4206 33.8906 95.4464 33.9069 95.4715C33.9092 95.4746 34.1444 95.8574 34.16 95.8848L34.2772 96.4813L32.9923 96.2426C33.4969 96.5948 33.889 97.1397 34.4767 97.4755C34.3059 98.6811 34.6056 97.4473 34.0389 98.4047L35.2019 99.1899C33.2322 98.8063 28.8852 96.7076 28.16 95.3697L27.639 95.3854L27.8797 94.3027C28.0125 93.1418 29.2105 90.6352 29.8844 90.0113C29.7834 91.0532 29.2066 93.718 28.7516 94.4499L28.7524 94.4483Z" fill="#101314"/>
<path fill-rule="evenodd" clip-rule="evenodd" d="M28.7524 94.4483L29.601 94.5532C32.3378 89.9886 30.2726 91.3077 31.2019 88.8707L31.6561 88.1216C32.0334 90.8904 32.257 90.1976 32.6087 91.6576C32.8091 92.4905 32.6507 92.9766 32.7594 93.7023C32.91 94.7106 33.24 94.3685 33.7073 95.2288C33.7407 95.2695 33.7958 95.2774 33.809 95.3494C33.8222 95.4206 33.8906 95.4464 33.9069 95.4715C33.9092 95.4746 34.1444 95.8574 34.16 95.8848L34.2772 96.4813L32.9923 96.2426C33.4969 96.5948 33.889 97.1397 34.4767 97.4755C34.3059 98.6811 34.6056 97.4473 34.0389 98.4047L35.2019 99.1899C33.2322 98.8063 28.8852 96.7076 28.16 95.3697L27.639 95.3854L27.8797 94.3027C28.0125 93.1418 29.2105 90.6352 29.8844 90.0113C29.7834 91.0532 29.2066 93.718 28.7516 94.4499L28.7524 94.4483Z" fill="#101314"/>
<path fill-rule="evenodd" clip-rule="evenodd" d="M44.5307 26.5245C44.3847 27.6283 44.2442 28.61 44.1502 29.7701C43.9165 29.8703 43.7263 29.9533 43.5516 30.0715L42.7426 33.0039L35.7512 36.0068L25.0765 42.1449C23.1814 44.2085 21.4337 46.3291 21.4151 48.3386C21.3933 50.6644 20.8118 51.0848 21.3033 52.2809C22.0571 52.6066 23.7901 56.3539 25.6883 57.3395C34.172 61.746 29.5874 58.8911 31.5439 59.5862C30.3669 60.5843 39.9763 63.1934 38.783 63.5246C41.2737 64.9063 43.6805 62.9782 44.2737 63.2279C44.9158 63.498 45.8001 64.024 45.9561 64.7536L45.6844 65.2076C46.1262 65.199 46.1929 65.448 46.3692 65.6006C46.0881 66.2989 45.9344 66.2183 44.1533 66.6222L38.0346 68.62C37.9996 68.6669 37.9398 68.674 37.9197 68.7515C37.9002 68.8282 37.8304 68.8532 37.8024 68.8783C36.5711 69.9868 33.8622 70.4392 35.1169 75.3859C36.5998 81.2351 40.7224 87.6222 44.4305 92.1038C45.1394 92.961 46.4779 94.1579 46.9165 94.7983C47.439 95.0887 47.2923 94.983 47.748 95.4073C48.0765 95.7126 48.2333 95.8473 48.557 96.1377C48.9157 96.4594 48.9825 96.6262 49.2969 96.9252L53.5337 100.112C52.6743 99.8475 50.3917 98.3985 49.6665 97.881C48.8125 97.2712 46.6161 95.9991 46.1696 95.1239C45.0516 94.8304 42.908 92.6737 41.5788 91.9629C42.1774 92.8577 40.1549 92.0162 40.9057 92.896C41.6363 93.7524 42.5012 96.4101 42.9569 97.0841C44.0322 97.2783 42.9678 97.1421 42.1665 98.0815C43.4833 97.9249 43.1588 98.696 43.245 99.6839C43.6401 100.235 50.0454 101.819 50.8171 102.109L49.9546 102.659C48.7861 102.961 40.5835 100.565 38.4841 99.4279C35.5594 97.8443 36.8343 98.1793 36.6992 97.3542C36.6891 97.2924 36.4958 96.8164 36.443 96.6489C36.1642 93.4057 32.686 84.6334 31.0587 83.2266L30.7512 84.8408C30.5548 86.1591 30.5952 86.6523 29.9189 87.7545C29.398 88.603 29.0525 89.2528 28.6503 90.2493C28.0043 91.851 26.6945 94.5337 27.6953 96.0445C30.4865 98.786 38.3242 103.096 42.1184 103.559C39.0291 103.324 33.1736 100.683 30.1371 99.2275L27.8902 97.7722L28.5874 97.4912L21.8731 89.2168L10.912 95.5819L9.59678 97.9484C9.43296 98.1699 9.24508 98.3789 8.91821 98.5864L9.17753 99.0498C9.25594 99.1657 9.34523 99.3042 9.44849 99.4686C10.4361 101.045 10.2303 100.589 11.2179 101.751C12.2055 102.914 12.5766 102.747 13.2761 103.951C13.9756 105.154 13.6465 104.822 14.3056 106.026C14.964 107.229 15.1286 106.524 15.9935 108.143C16.8576 109.762 16.5696 109.886 17.4749 110.426C18.3801 110.965 17.516 110.384 18.9981 111.505C20.4803 112.625 22.1674 113.083 22.7023 113.124C23.2373 113.166 29.658 112.336 30.7287 112.211C31.7986 112.087 43.0361 109.348 44.5175 109.431C45.9988 109.514 52.9142 108.642 54.2729 109.182C55.6315 109.721 56.2488 109.472 58.9242 110.178C61.5997 110.883 66.2922 111.672 67.6913 111.672C69.0911 111.672 86.7075 112.627 88.0251 112.627C89.3418 112.627 88.4366 112.046 92.9645 112.212C97.4924 112.378 95.928 111.465 98.7269 112.544C101.526 113.623 101.855 113.291 103.749 112.71C105.642 112.129 107.124 111.299 107.124 111.299C107.124 111.299 108.235 115.263 108.564 115.387C108.893 115.512 111.199 115.899 111.714 116.045C114.988 116.969 125.837 98.8157 125.595 98.9253C124.714 98.3343 124.054 97.0481 123.244 96.3099C122.533 95.6618 121.492 94.8515 120.445 94.4108L115.81 91.9692C116.645 92.6909 118.002 94.1806 119.014 94.5674L119.86 95.1803C118.318 94.6034 116.582 93.5481 114.978 92.6878C113.887 92.1015 110.794 90.1131 110.31 90.0278C110.269 89.9769 110.217 89.9111 110.184 89.8783L109.256 89.1549C108.874 88.9154 108.735 88.8254 108.374 88.6367C108.211 88.4559 108.04 88.3024 107.852 88.1467C107.702 88.0261 107.637 88.0089 107.496 87.9016C107.19 87.0194 106.088 86.1606 104.471 85.59C104.412 85.5352 104.028 85.1892 104 85.1704C103.564 84.8651 103.67 83.4106 103.135 83.2243C102.389 83.3401 102.233 83.9578 101.436 84.2083C100.99 84.3484 101.513 85.179 100.992 85.359C99.7812 86.0597 97.5227 94.1212 97.0887 94.8907C96.9171 95.1944 96.9365 95.1545 96.7766 95.3384C96.893 93.2984 97.3845 91.5245 98.0561 89.854C98.4839 88.7886 99.9777 85.8452 100.042 85.3348L100.154 84.5152C100.164 84.4862 100.196 84.4298 100.207 84.4024C100.218 84.375 100.256 84.3226 100.267 84.2967C100.607 83.4936 100.394 84.0486 100.33 82.8806L99.4846 82.9111L99.0429 82.735C99.2184 82.4383 100.06 81.3807 99.5413 81.9303C99.4257 81.2578 99.9699 82.0305 99.0669 81.6766L98.6943 81.542C99.5623 79.8026 99.3954 81.7894 99.8115 80.3866L100.119 79.3399C100.02 79.343 99.9575 79.4323 99.9225 79.4339L99.4614 79.3798C99.4156 79.372 99.3201 79.3587 99.2556 79.329C99.3069 78.5994 99.4078 78.0694 99.6935 77.3782L99.3837 75.8775C99.3309 76.8474 98.6982 78.3645 98.258 79.1951C97.7844 80.0891 96.89 81.2891 96.0095 81.7056C96.1105 80.8656 98.3325 76.7496 99.0864 75.6395L99.7455 74.8567L100.039 72.2217C99.7696 70.1958 98.5965 69.4505 96.7859 68.7546C95.7238 68.346 92.4032 67.3385 91.7898 66.958C90.8706 66.778 90.1307 66.4101 89.2821 66.3592L88.8713 65.217L89.2634 64.6941C97.9062 62.8944 108.98 62.2149 114.231 53.4912C114.337 53.3142 114.441 53.1342 114.543 52.9502C114.996 53.0997 115.25 50.684 114.717 48.9046C113.749 45.6778 111.324 41.9508 110.817 41.0302C110.748 40.9511 110.681 40.8744 110.614 40.7969L109.767 40.9261L105.275 36.2425L99.1205 32.3816L94.3605 32.5546L90.4265 10.0618L80.3753 4.76444L71.1618 1.15642L63.0143 0.92627L49.1075 9.95846L44.5345 26.5292L44.5307 26.5245ZM85.4746 67.4739C84.3768 68.2849 82.8007 69.3018 79.6493 69.3957L83.1136 67.9232C83.4342 67.7714 83.7316 67.6164 84.0088 67.4583L85.4746 67.4739ZM87.2153 63.9215C87.7999 62.4357 88.0212 60.5945 88.3799 58.1716L89.5328 57.4491L88.8434 59.4563L87.324 63.9426L87.2161 63.9222L87.2153 63.9215Z" fill="black"/>
<path fill-rule="evenodd" clip-rule="evenodd" d="M24.5865 109.795C24.543 109.797 24.0018 109.824 23.9351 109.801C23.0453 109.494 23.6602 109.676 23.4281 109.358C22.1028 108.632 20.5306 107.345 19.7651 106.262C20.1152 105.62 21.571 104.32 22.2705 103.924C22.491 103.593 22.5345 103.376 22.984 103.151C23.3202 102.982 23.5911 102.995 23.9258 103.026C26.5608 101.16 25.8745 101.524 28.2611 100.775C29.2844 100.454 29.0267 100.427 29.9847 100.874C29.5034 101.249 29.5973 101.021 28.661 100.942C28.6261 101.777 28.668 102.004 28.9677 102.574C30.449 102.962 30.2549 102.208 30.7875 105.668C29.5554 106.436 27.6556 106.123 24.5865 109.795ZM19.1672 106.461C20.0624 106.866 19.7488 106.749 20.887 108.44C19.3559 107.684 19.3613 106.994 19.1672 106.461ZM31.1354 101.732C32.0919 102.022 33.1354 102.698 33.5616 103.285C33.0484 103.103 32.6672 102.937 32.1222 102.705C31.2906 102.35 31.324 102.593 31.1354 101.732Z" fill="#DD8D52"/>
<path fill-rule="evenodd" clip-rule="evenodd" d="M67.1939 70.681C66.7553 71.9038 66.9882 72.6357 66.1823 73.3136L66.3057 73.6698L67.1637 74.4362C68.2506 74.1904 67.0992 74.4526 67.8251 74.1708L70.5022 72.9598C70.9385 72.941 70.7568 72.9559 70.9928 73.0874C72.0254 74.3188 66.6411 77.9166 66.4828 78.2L72.9781 78.3112L74.277 77.7726L73.1139 76.8676L76.1644 77.1847C76.0402 78.3245 75.4959 80.1297 74.586 80.7833C74.7855 78.6454 75.1877 78.0881 74.0091 78.4192C71.8546 79.3962 66.9548 79.7296 66.0658 81.538C67.7196 82.6159 69.2949 81.6014 70.909 81.3C69.7669 82.4805 66.4672 84.0195 66.013 85.2102C65.1163 87.5641 66.5519 90.8206 67.0573 92.7159C71.5573 92.5624 73.5394 87.9751 75.742 85.3025C74.9726 87.4851 73.2801 89.4358 72.2576 91.2128C74.1271 89.691 75.8306 87.2173 77.2677 84.8219C77.954 83.6782 78.572 82.1705 79.3065 81.1231C80.1527 79.9167 81.308 79.2983 82.1046 78.2423C82.4687 77.9088 82.7211 77.6583 83.1194 77.2293C83.2599 77.0782 83.4004 76.9248 83.5169 76.7385C83.8375 76.2249 83.6465 76.5451 83.7568 76.1694C84.5052 75.8038 85.1962 74.6217 85.7187 73.864C86.5254 72.6944 86.683 72.4424 86.6147 70.6199L86.5603 68.1768C85.6302 68.5329 85.1193 69.2931 84.721 70.2818C84.5464 70.3968 84.5634 70.3961 84.3041 70.472C83.6209 70.8016 83.8577 70.6591 83.4478 71.0889L82.9167 70.4211L82.9571 69.877C81.8437 70.335 81.9066 70.5244 81.2374 70.9143C80.1302 71.5632 80.6116 71.0145 80.0891 71.1601C78.7343 72.1707 76.1939 71.294 74.784 70.5706C73.072 69.6915 72.5876 68.774 71.374 67.3501C69.0666 67.6687 68.1046 69.1114 67.1939 70.681Z" fill="#D3DEE5"/>
<path fill-rule="evenodd" clip-rule="evenodd" d="M101.942 89.1447L102.263 88.5466L103.042 94.4742C102.02 94.1657 102.154 94.0146 102.123 92.8381C102.103 92.0842 102.055 91.2701 102.119 90.546C101.321 92.5508 102.139 91.5425 101.052 92.0936C101.124 91.2716 101.214 91.22 101.356 90.5538C101.811 88.412 101.463 89.6246 101.943 89.1447H101.942ZM94.2727 104.677L97.9886 103.044C99.1353 102.59 100.62 101.784 101.669 101.709L102.534 102.695C101.349 103.033 100.581 103.427 99.6928 103.704L99.6873 102.96C99.6881 102.953 99.7021 102.914 99.6928 102.893C98.7184 103.875 95.8504 104.578 94.2727 104.677ZM98.4133 101.199C98.3682 101.246 98.3061 101.255 98.2797 101.339C98.2549 101.42 98.1788 101.443 98.1431 101.466L96.6788 102.009C95.154 102.45 92.1214 103.416 90.8752 103.503C90.9203 103.466 90.9855 103.347 91.0088 103.391L98.0499 100.775C100.698 99.7864 104.801 97.8058 106.726 96.147C106.882 94.5775 105.376 92.611 105.107 90.7957C105.304 90.9796 105.263 90.9076 105.464 91.1894C105.596 91.3765 105.61 91.4149 105.721 91.6169L107.078 94.4648C107.961 96.4813 107.443 96.958 106.047 97.9107C104.72 98.8165 100.205 100.936 98.4133 101.2V101.199Z" fill="#E6E6E6"/>
<path fill-rule="evenodd" clip-rule="evenodd" d="M35.054 81.8889C35.349 81.9022 35.439 81.8294 35.7139 82.0556C36.3661 82.591 35.9453 81.8536 36.0656 82.8862C35.3816 82.6498 35.0897 82.7265 35.054 81.8889Z" fill="#DD8D52"/>
<path fill-rule="evenodd" clip-rule="evenodd" d="M35.054 81.8889C35.349 81.9022 35.439 81.8294 35.7139 82.0556C36.3661 82.591 35.9453 81.8536 36.0656 82.8862C35.3816 82.6498 35.0897 82.7265 35.054 81.8889Z" fill="#DD8D52"/>
<path fill-rule="evenodd" clip-rule="evenodd" d="M34.596 82.5557C34.2474 83.3729 34.6829 82.8132 33.884 83.1866C34.2388 82.3349 33.5843 82.7028 34.596 82.5557Z" fill="#DD8D52"/>
<path fill-rule="evenodd" clip-rule="evenodd" d="M34.596 82.5557C34.2474 83.3729 34.6829 82.8132 33.884 83.1866C34.2388 82.3349 33.5843 82.7028 34.596 82.5557Z" fill="#DD8D52"/>
<path fill-rule="evenodd" clip-rule="evenodd" d="M37.8393 87.2582C37.1809 86.949 37.2982 87.0813 37.5614 86.4558C38.0738 86.7822 38.1506 86.5333 37.8393 87.2582Z" fill="#DD8D52"/>
<path fill-rule="evenodd" clip-rule="evenodd" d="M37.8393 87.2582C37.1809 86.949 37.2982 87.0813 37.5614 86.4558C38.0738 86.7822 38.1506 86.5333 37.8393 87.2582Z" fill="#DD8D52"/>
<path fill-rule="evenodd" clip-rule="evenodd" d="M40.6827 97.2071C39.2029 97.0615 39.036 96.3937 39.4824 94.9784C41.6105 94.3036 42.0957 95.9593 40.6827 97.2071Z" fill="#DD8D52"/>
<path fill-rule="evenodd" clip-rule="evenodd" d="M40.6827 97.2071C39.2029 97.0615 39.036 96.3937 39.4824 94.9784C41.6105 94.3036 42.0957 95.9593 40.6827 97.2071Z" fill="#DD8D52"/>
<path fill-rule="evenodd" clip-rule="evenodd" d="M46.1688 95.1246C46.6152 96.0006 48.8116 97.2719 49.6657 97.8817C50.3908 98.3999 52.6742 99.8481 53.5329 100.113L49.2961 96.9259C48.9817 96.626 48.9157 96.4601 48.5562 96.1383C48.2324 95.8479 48.0756 95.7133 47.7472 95.408C47.2907 94.9837 47.4382 95.0894 46.9157 94.7989C46.4778 94.1586 45.1385 92.9609 44.4297 92.1045C40.7216 87.6228 36.5989 81.2358 35.116 75.3865C33.8614 70.4399 36.5702 69.9874 37.8016 68.8789C37.8295 68.8539 37.8994 68.8288 37.9188 68.7521C37.939 68.6746 37.9988 68.6668 38.0337 68.6206C34.5221 69.0527 34.1758 72.231 33.2674 73.2181C31.9414 74.6601 29.6564 76.329 28.4895 77.9965C30.6727 80.8467 31.3878 79.9676 34.2659 85.7628C35.1797 87.6025 37.6898 94.2909 36.4413 96.6495C36.4941 96.8178 36.6875 97.293 36.6975 97.3548C36.8319 98.1799 35.5578 97.8449 38.4825 99.4285C40.5818 100.565 48.7837 102.961 49.9529 102.659L50.8155 102.11C50.0438 101.819 48.7425 100.733 48.3473 100.182L47.1377 99.1138C46.7107 98.6731 46.9429 98.9283 46.7123 98.5533L46.4871 98.58C45.4359 97.5913 44.8326 97.1521 44.4188 96.0092C45.1129 96.4092 45.4677 96.7975 46.1657 97.1677C45.7099 96.4945 44.4335 95.4549 43.703 94.5985C42.9522 93.7194 42.1758 92.8591 41.5772 91.9643C42.9064 92.6744 45.05 94.8318 46.168 95.1254L46.1688 95.1246Z" fill="#DD8D52"/>
<path fill-rule="evenodd" clip-rule="evenodd" d="M44.0636 97.6602C45.0667 97.902 44.6381 97.6414 44.8974 98.3334C43.5815 97.9154 44.399 98.0007 44.0636 97.6602Z" fill="#DD8D52"/>
<path fill-rule="evenodd" clip-rule="evenodd" d="M44.0636 97.6602C45.0667 97.902 44.6381 97.6414 44.8974 98.3334C43.5815 97.9154 44.399 98.0007 44.0636 97.6602Z" fill="#DD8D52"/>
<path fill-rule="evenodd" clip-rule="evenodd" d="M46.8987 33.8203C46.6937 32.3807 46.9499 32.484 47.665 32.1865L48.1727 33.3858L46.8987 33.8203Z" fill="#E4935A"/>
<path fill-rule="evenodd" clip-rule="evenodd" d="M46.8987 33.8203C46.6937 32.3807 46.9499 32.484 47.665 32.1865L48.1727 33.3858L46.8987 33.8203Z" fill="#E4935A"/>
<path fill-rule="evenodd" clip-rule="evenodd" d="M46.1944 35.5514C45.7519 34.4108 45.3637 35.0449 45.7092 33.5474L45.9025 33.7806C46.2744 34.1423 46.3839 33.9098 46.7635 34.1736L46.1944 35.5514Z" fill="#E4935A"/>
<path fill-rule="evenodd" clip-rule="evenodd" d="M46.1944 35.5514C45.7519 34.4108 45.3637 35.0449 45.7092 33.5474L45.9025 33.7806C46.2744 34.1423 46.3839 33.9098 46.7635 34.1736L46.1944 35.5514Z" fill="#E4935A"/>
<path fill-rule="evenodd" clip-rule="evenodd" d="M48.1653 35.6975L48.9719 36.1633C48.7134 36.8866 48.8795 36.6118 47.8811 36.9915L48.1653 35.6975Z" fill="#E4935A"/>
<path fill-rule="evenodd" clip-rule="evenodd" d="M48.1653 35.6975L48.9719 36.1633C48.7134 36.8866 48.8795 36.6118 47.8811 36.9915L48.1653 35.6975Z" fill="#E4935A"/>
<path fill-rule="evenodd" clip-rule="evenodd" d="M43.1487 39.2281C43.2387 38.9275 43.172 38.8124 43.4748 38.587C44.1363 38.0946 43.8762 38.594 43.9336 38.6261C44.1526 39.2336 43.8125 39.2884 43.1487 39.2281Z" fill="#E4935A"/>
<path fill-rule="evenodd" clip-rule="evenodd" d="M43.1487 39.2281C43.2387 38.9275 43.172 38.8124 43.4748 38.587C44.1363 38.0946 43.8762 38.594 43.9336 38.6261C44.1526 39.2336 43.8125 39.2884 43.1487 39.2281Z" fill="#E4935A"/>
<path fill-rule="evenodd" clip-rule="evenodd" d="M41.7383 40.2678C41.1249 40.0666 41.5589 40.0431 41.7383 39.7637C41.9114 40.0384 41.9347 39.8999 41.7383 40.2678Z" fill="#E4935A"/>
<path fill-rule="evenodd" clip-rule="evenodd" d="M41.7383 40.2678C41.1249 40.0666 41.5589 40.0431 41.7383 39.7637C41.9114 40.0384 41.9347 39.8999 41.7383 40.2678Z" fill="#E4935A"/>
<path fill-rule="evenodd" clip-rule="evenodd" d="M38.8843 40.5691C38.9938 40.6733 39.1949 40.3946 39.2329 41.0412C39.2741 41.7316 39.0512 41.3394 38.8843 41.4623C38.5551 41.1054 38.7127 41.5907 38.6654 41.024C38.6025 40.2701 38.7531 40.7594 38.8843 40.5684V40.5691Z" fill="#E4935A"/>
<path fill-rule="evenodd" clip-rule="evenodd" d="M38.8843 40.5691C38.9938 40.6733 39.1949 40.3946 39.2329 41.0412C39.2741 41.7316 39.0512 41.3394 38.8843 41.4623C38.5551 41.1054 38.7127 41.5907 38.6654 41.024C38.6025 40.2701 38.7531 40.7594 38.8843 40.5684V40.5691Z" fill="#E4935A"/>
<path fill-rule="evenodd" clip-rule="evenodd" d="M45.1487 25.9685C45.0952 26.8234 44.7015 27.8559 44.5447 28.8994C44.3933 29.9053 44.2481 30.7883 44.1511 31.8381C43.6379 32.0315 43.3374 32.1497 42.9422 32.689C42.797 32.8879 42.6961 33.1165 42.5369 33.3137C42.1084 33.846 42.4415 33.4993 42.0633 33.7646L41.7831 34.65C40.8964 34.6265 41.1192 34.6555 40.3413 34.9576C40.3079 34.9702 39.7342 35.2144 39.7326 35.2152C39.2443 35.497 39.4422 35.3389 39.1061 35.7146C38.5377 36.1139 36.1092 36.9217 35.1938 37.2983C31.1286 38.9735 27.7389 40.7231 25.3879 43.9687C33.0735 41.6617 49.7202 51.4932 56.6572 53.1684C54.9981 52.0709 50.3529 50.5742 49.2722 49.5659C51.7667 50.3526 54.606 51.7695 57.3288 52.2877L56.5757 51.7304C56.2162 51.5143 56.0881 51.465 55.7613 51.2865C55.2271 50.9953 54.7504 50.7307 54.2527 50.481C53.1844 49.9455 52.1293 49.3764 51.0066 48.8864C43.4717 45.5993 37.0867 43.0661 28.2094 42.4172C31.4073 42.1134 32.707 42.3326 35.7994 42.9189C41.766 44.0509 39.9888 43.8286 41.9663 42.1252C46.6744 38.0686 49.0998 38.4835 50.2512 37.7868C50.5719 37.5926 50.8847 37.1589 51.3576 36.8294C51.8816 36.4646 52.2729 36.3926 52.4181 35.9174L49.8537 36.146C50.2823 34.0793 50.165 35.1784 49.4049 33.7592C49.8972 33.1305 50.4538 32.8088 50.7465 32.17L46.6612 33.0851C47.4313 32.4041 48.1728 31.0717 49.7419 29.7683C50.5307 29.1131 51.1192 29.1687 51.1953 29.0935C52.4321 26.0617 52.009 27.715 54.3886 26.5901C52.1743 26.2887 49.4306 27.9264 47.856 29.0622C47.5059 29.3151 47.3444 29.4286 46.9973 29.6775L46.1076 30.1605C46.7233 29.5922 47.134 29.0035 47.686 28.3342C48.2108 27.6986 48.7334 27.1153 49.2698 26.4319C49.7722 25.7916 50.1743 24.8921 50.8809 24.5563C52.2364 23.9113 52.2652 24.5281 53.0563 23.1778C55.4034 19.1721 55.0749 18.6523 58.1184 14.7131L57.3902 14.9018C56.9825 15.4826 56.6355 15.6736 56.0183 15.8826C56.0221 15.867 56.0253 15.8505 56.0276 15.8349C56.0012 15.8372 55.9748 15.8404 55.9484 15.8435C55.9748 15.4255 55.9662 15.5609 55.9624 15.5672C53.7667 16.2287 49.922 19.3357 48.45 21.6207C47.9608 22.3801 47.297 23.7813 46.7908 24.4264C46.811 21.955 47.2753 18.5114 47.731 16.0791C48.3413 12.8187 48.8413 11.8503 51.4616 10.4867C55.6899 8.28537 62.0928 7.15184 64.2861 3.84833C62.4453 3.87025 61.5012 4.40022 59.8676 4.64133L62.9002 2.42986L64.9546 1.41846C63.9701 1.45838 63.0609 1.82318 62.2628 1.9954L60.6774 2.9113C59.9825 3.3716 59.7683 3.55008 59.0749 4.01507C58.0276 4.71805 56.9313 5.53923 55.9624 6.11617C54.0493 7.25517 50.3964 8.6893 49.1052 9.95356C47.5121 11.5137 47.0167 15.1006 46.4849 17.5524C45.9422 20.0512 45.1022 23.3625 45.1495 25.9685H45.1487Z" fill="#E4935A"/>
<path fill-rule="evenodd" clip-rule="evenodd" d="M40.8871 41.3057C40.7567 42.018 41.037 41.6525 40.4034 41.8928C40.3297 40.955 40.2652 41.4928 40.8871 41.3057Z" fill="#E4935A"/>
<path fill-rule="evenodd" clip-rule="evenodd" d="M40.8871 41.3057C40.7567 42.018 41.037 41.6525 40.4034 41.8928C40.3297 40.955 40.2652 41.4928 40.8871 41.3057Z" fill="#E4935A"/>
<path fill-rule="evenodd" clip-rule="evenodd" d="M51.0858 20.7605C51.0602 19.7828 51.04 19.8556 51.7015 19.901C51.7061 19.9112 52.2985 19.7616 51.7729 20.5672C51.606 20.8231 51.3443 20.7785 51.0858 20.7605Z" fill="#E4935A"/>
<path fill-rule="evenodd" clip-rule="evenodd" d="M51.0858 20.7605C51.0602 19.7828 51.04 19.8556 51.7015 19.901C51.7061 19.9112 52.2985 19.7616 51.7729 20.5672C51.606 20.8231 51.3443 20.7785 51.0858 20.7605Z" fill="#E4935A"/>
<path fill-rule="evenodd" clip-rule="evenodd" d="M26.7026 97.0027L30.1374 99.2275C33.1739 100.683 39.0302 103.324 42.1187 103.559C38.3237 103.096 30.486 98.7868 27.6956 96.0446C26.6956 94.5337 28.0054 91.851 28.6506 90.2493C29.052 89.2528 29.3983 88.6038 29.9192 87.7545C30.5955 86.6523 30.5551 86.1591 30.7515 84.8408L15.0101 93.9223L15.2019 94.1196C15.2019 94.1196 17.153 93.4973 16.6367 94.3075C16.1204 95.1177 16.4643 94.6543 16.6367 95.2336C16.809 95.8121 16.292 95.87 16.0055 96.2747C15.7182 96.6794 16.1778 96.6223 17.4977 97.4896C18.8176 98.3578 18.4736 97.6055 19.5637 97.3738C20.3773 97.2008 20.552 97.2219 21.2314 97.2673C23.5839 96.4814 24.6071 96.7295 26.7026 97.0012V97.0027Z" fill="#DD8D52"/>
<path fill-rule="evenodd" clip-rule="evenodd" d="M100.897 59.994C98.9641 61.9112 105.648 58.6852 106.018 58.5497C104.828 59.7725 100.668 61.5894 99.1768 62.0364C95.7102 63.0752 93.3329 62.9672 89.5542 63.0635L89.1023 64.77C94.1807 64.6933 97.5021 64.9704 102.108 63.5277C105.718 62.3965 109.048 60.8176 111.227 58.7901C113.114 57.0358 116.458 54.2442 116.164 50.2182C115.805 45.2903 108.388 36.9282 103.553 34.3911C99.5976 32.3158 94.6792 30.7964 94.5907 30.5952L92.7118 14.1309C91.0192 5.12063 87.8702 8.22138 78.027 3.02658C76.9479 2.45747 76.0775 2.20932 75.5667 1.57914L74.0076 0.920009C72.3788 0.585744 71.4929 0.224081 69.6195 0.069082L67.1653 0.000976562L67.1738 1.29811C69.3842 1.85939 71.3881 1.54313 73.7864 2.488C75.5302 3.17532 77.2895 4.26031 78.8857 5.06348C81.614 6.43655 87.7568 8.23234 89.3787 9.93498C91.6691 12.3382 93.0705 29.2339 94.1201 33.2623C91.954 32.4317 90.1536 31.8634 89.6784 31.8203C93.7739 33.9324 98.6535 35.3665 102.952 38.6403C104.511 39.8278 105.972 41.5015 106.456 41.6432C106.212 41.0388 105.364 40.2834 104.862 39.8043C104.496 39.4544 104.299 39.326 103.971 38.9275C103.647 38.5346 103.637 38.4203 103.294 38.0625C101.821 36.5305 97.6815 34.6393 94.329 33.3421L94.3593 32.5499C104.254 34.9132 103.695 36.3646 110.816 43.1634C112.016 45.1588 115.902 49.624 113.575 52.5666C113.555 52.6261 113.536 52.6559 113.516 52.7459C113.497 52.8336 113.466 52.8806 113.439 52.9142C113.213 53.1968 113.283 53.1146 113.038 53.2939C111.143 56.4087 98.6302 60.4763 92.9874 59.9682C93.4059 60.2931 92.9594 60.0723 93.558 60.2469L95.0868 60.3033C95.711 60.2751 96.3305 60.243 96.9439 60.1976C97.9051 60.1263 100.082 59.8304 100.898 59.994H100.897ZM106.463 59.9032C106.837 59.4453 107.336 59.2159 107.98 58.8214C108.555 58.4699 108.901 58.0926 109.656 57.7716C109.146 58.686 107.535 59.5925 106.463 59.9032Z" fill="#38DBFA"/>
<path fill-rule="evenodd" clip-rule="evenodd" d="M35.8245 61.9096C35.8928 61.8274 35.7725 61.288 36.8781 61.7014C37.4262 61.9057 37.7104 62.0544 38.3175 62.2047C39.2701 62.4396 40.5955 62.4403 41.2305 62.9304C39.7329 62.903 37.1141 62.4834 35.8237 61.9104L35.8245 61.9096ZM60.6187 0.974008C60.458 1.24565 58.4611 2.51617 57.9215 2.90131C56.9603 3.58707 56.0861 4.26108 55.0791 4.92256C54.2266 5.48228 49.6412 7.98574 48.8369 8.12743L48.1428 8.8398C45.7282 10.9605 46.1777 12.7492 45.4169 13.6988L45.458 14.2303C45.236 15.8351 42.517 31.4579 42.0341 31.8007C35.4417 36.4804 25.2151 38.5933 20.7423 46.6884C19.2182 49.4463 19.0288 53.1279 24.5551 57.7395C25.1553 58.2405 26.1475 59.2355 26.8509 59.392C28.7166 61.8916 35.8921 63.6381 37.295 64.2197L37.6133 64.3857C38.8051 64.2753 40.274 64.6698 41.5132 64.7575C43.0388 64.8655 44.4215 64.8319 45.9565 64.7606C45.8012 64.0968 45.6016 62.0137 44.9596 61.7687C44.3664 61.5424 36.8198 60.5029 34.3292 59.2472C35.5225 58.9466 43.8454 61.0062 45.0225 60.0989C43.0659 59.4672 36.6483 60.2485 28.1638 56.2428C26.2655 55.3464 24.5707 53.9992 23.8168 53.7033C23.3246 52.6159 21.889 51.9552 21.9107 49.8416C21.976 43.3787 37.4425 35.9262 42.2461 33.6482L42.0621 34.9571C42.4402 34.6823 42.1071 35.0408 42.5357 34.4905C42.6948 34.2862 42.7958 34.0498 42.9409 33.8439C43.3361 33.2857 43.6366 33.1636 44.1498 32.9632C44.2468 31.8767 44.392 30.9631 44.5434 29.922C44.7003 28.8424 45.0939 27.7739 45.1475 26.8893C45.1001 24.1925 45.9402 20.7669 46.4829 18.1804C47.0155 15.6433 47.51 11.9319 49.1032 10.3178C50.3943 9.00967 54.0473 7.52622 55.9603 6.34729C56.9292 5.75 58.0263 4.90064 59.0729 4.1734C59.7654 3.69196 59.9805 3.508 60.6754 3.03126L62.2607 2.08405C63.0589 1.90557 63.968 1.52825 64.9525 1.48676L67.1714 1.37481L67.1629 0.0792436C63.9385 0.06437 63.3182 0.159091 60.6171 0.974791L60.6187 0.974008Z" fill="#ECC29B"/>
<path fill-rule="evenodd" clip-rule="evenodd" d="M36.7973 67.4581C36.0986 68.3458 34.5333 68.4703 33.7298 69.2617C32.7562 70.2207 32.9899 71.4567 31.9743 72.2521C31.5768 74.0549 27.0124 75.7537 27.1242 78.2884L30.4728 82.2659C30.868 82.9447 30.6413 82.089 30.8346 83.2327L31.059 83.2273C32.6871 84.634 36.1653 93.4071 36.4433 96.6503C37.6917 94.2916 35.1816 87.6032 34.2678 85.7636C31.3897 79.9684 30.6747 80.8475 28.4914 77.9972C29.6576 76.3298 31.9433 74.6608 33.2694 73.2189C34.1778 72.2317 34.524 69.0543 38.0357 68.6214L44.1537 66.6236C44.4968 66.0412 44.3749 66.1766 44.7328 65.8337L44.3516 65.6725C42.4502 65.3805 38.6661 67.3939 36.7965 67.4581H36.7973Z" fill="#F5C9A8"/>
<path fill-rule="evenodd" clip-rule="evenodd" d="M103.554 84.9558C104.089 85.1421 103.563 84.8619 104 85.1664C104.028 85.186 104.411 85.5312 104.47 85.586C104.827 85.9187 105.093 86.1606 105.304 86.3532C106.326 86.7078 105.623 86.4612 106.434 87.1446C106.761 87.4201 107.172 87.6628 107.497 87.8977C107.637 88.0049 107.702 88.0221 107.852 88.1427L108.112 88.3572C108.15 88.3916 108.212 88.4605 108.243 88.4903C108.276 88.5216 108.332 88.5842 108.375 88.632C108.735 88.8206 108.875 88.9106 109.257 89.1502L110.184 89.8735C110.217 89.9072 110.269 89.9729 110.31 90.023C110.794 90.1084 113.888 92.0967 114.979 92.6831C116.582 93.5442 118.317 94.5986 119.861 95.1756L119.014 94.5626C118.003 94.1759 116.645 92.6862 115.81 91.9644L120.445 94.406C121.492 94.8476 122.534 95.657 123.244 96.3052C124.053 97.0426 124.713 98.3288 125.595 98.9206C125.41 94.6612 118.938 92.0294 115.427 90.0168C113.385 88.8464 104.719 83.6994 103.135 83.2188L103.555 84.9543L103.554 84.9558Z" fill="#38DBFA"/>
<path fill-rule="evenodd" clip-rule="evenodd" d="M99.81 80.3817C99.3946 81.7845 99.5607 79.7977 98.6927 81.5372C99.2533 81.7399 99.209 82.1955 99.0413 82.7302L99.4831 82.9063L100.329 82.8758C100.393 84.0438 100.607 83.4887 100.266 84.2919C100.255 84.3185 100.218 84.371 100.206 84.3984C100.194 84.4266 100.162 84.4821 100.152 84.5111L100.041 85.3307C99.9753 85.8411 98.4823 88.7845 98.0538 89.8499C97.3829 91.5205 96.8907 93.2936 96.7743 95.3344C96.935 95.1504 96.9156 95.1911 97.0864 94.8866C97.5211 94.1163 100.458 86.2216 101.669 85.5202C102.318 83.7776 105.076 80.9336 106.183 79.667C107.331 78.355 107.846 78.1671 106.55 76.6195C105.645 75.5384 104.98 75.0264 104.023 74.069C100.568 70.616 101.913 69.2758 99.5926 68.3419C98.1322 67.754 93.3286 65.9997 91.8317 66.1109L91.0406 65.6999C90.8643 65.6475 90.5173 65.5919 90.3185 65.5488C89.8434 65.4463 89.362 65.3429 88.8675 65.2114L88.3713 65.8557C88.3853 65.8674 88.6865 66.1203 88.6873 66.1211L88.9288 66.3512C89.9311 66.3011 90.7432 66.7481 91.7859 66.9524C92.3993 67.3329 95.7207 68.3404 96.782 68.749C98.5926 69.4449 99.7657 70.1902 100.035 72.2161L99.7416 74.8511L99.0825 75.6331C98.3286 76.7432 96.1066 80.8592 96.0056 81.6992C96.817 81.3148 97.6407 80.2659 98.1353 79.4032C98.5188 78.7354 100.077 79.4596 99.8068 80.3802L99.81 80.3817Z" fill="#29D9F9"/>
<path fill-rule="evenodd" clip-rule="evenodd" d="M21.1041 88.4097C20.882 88.8043 19.625 89.3875 19.0924 89.6865C18.6274 89.9472 18.417 90.0646 17.962 90.3261C17.2516 90.7347 17.594 90.6643 16.9247 90.7339C16.7322 90.9586 16.83 90.8944 16.5482 91.1112C16.351 91.2631 16.3378 91.2474 16.1483 91.3711C15.4496 91.8275 15.7369 91.6968 14.9581 91.9481C14.4519 92.799 8.8347 94.8743 8.70349 98.7093C9.66001 98.1981 9.6274 97.6932 10.3378 97.0215C10.8821 96.5064 11.3394 96.2372 11.9923 95.7103C12.0389 95.6657 12.1103 95.5373 12.1359 95.5811L30.7531 84.8401L31.0606 83.2251L30.8362 83.2306C27.9177 84.177 24.1227 87.3122 21.1056 88.4082L21.1041 88.4097Z" fill="#F1CEB3"/>
<path fill-rule="evenodd" clip-rule="evenodd" d="M112.062 113.641C113.99 112.972 117.865 108.663 119.118 107.018C120.09 105.742 121.059 104.358 121.952 103.004C122.732 101.822 124.451 99.7441 122.454 98.8579C122.028 99.3934 121.659 100.33 121.285 100.974L117.686 106.799C115.361 110.159 112.465 113.061 112.062 113.641Z" fill="#38DBFA"/>
<path fill-rule="evenodd" clip-rule="evenodd" d="M21.8746 111.558C19.9468 110.889 16.071 106.58 14.8187 104.935C13.8474 103.659 12.8777 102.275 11.9841 100.921C11.2046 99.7394 9.48488 97.6611 11.4825 96.7749C11.908 97.3104 12.2776 98.2482 12.651 98.8917L16.2504 104.717C18.5749 108.076 21.4709 110.979 21.8746 111.558V111.558Z" fill="#DD8D52"/>
<path fill-rule="evenodd" clip-rule="evenodd" d="M28.5528 95.1607C29.2779 96.4986 33.625 98.5973 35.5947 98.9809L34.4316 98.1957C34.9976 97.2383 34.6987 98.4729 34.8695 97.2665C34.2818 96.9307 33.8897 96.3866 33.3851 96.0336L34.67 96.2723L34.5528 95.6758C34.538 95.6492 34.302 95.2656 34.2997 95.2625C34.2826 95.2375 34.2142 95.2116 34.2018 95.1404C34.1886 95.0691 34.1335 95.0613 34.1001 95.0198C33.6327 94.1595 33.3035 94.5016 33.1521 93.4933C33.0434 92.7669 33.2018 92.2815 33.0015 91.4486C32.6498 89.9886 32.427 90.6814 32.0489 87.9126L31.5947 88.6618C30.6653 91.0987 32.7306 89.7796 29.9938 94.3443L29.1452 94.2394C29.6009 93.5082 30.1778 90.8427 30.2779 89.8008C29.6032 90.4247 28.406 92.9313 28.2733 94.0922L28.0326 95.1748L28.5536 95.1592L28.5528 95.1607Z" fill="#DD8D52"/>
<path fill-rule="evenodd" clip-rule="evenodd" d="M113.037 52.1586C113.283 51.9621 113.213 52.0529 113.439 51.7414C113.466 51.7038 113.497 51.6529 113.516 51.5558C113.535 51.4572 113.555 51.4243 113.575 51.3586C111.83 50.4513 112.021 50.1374 109.308 49.724C107.423 49.4367 105.571 49.3522 103.645 49.3866C99.8178 49.4555 96.3069 49.526 92.56 50.2258C88.0934 51.0603 78.4157 54.756 75.3528 56.4853C79.5112 55.9514 91.706 49.1275 99.5569 50.1593L103.42 49.9918C106.124 49.8806 112.923 49.3068 113.038 52.1586H113.037Z" fill="#17718D"/>
<path fill-rule="evenodd" clip-rule="evenodd" d="M50.9894 83.9101L51.0569 83.8475C51.7968 84.2679 52.3931 84.8151 53.0406 85.4217C54.2456 86.5514 57.3535 89.4212 58.4498 89.9457C55.6656 85.4069 54.14 84.4988 50.8613 78.2871C50.9653 79.9984 50.4319 82.0415 50.8318 83.5171C50.8504 83.5868 50.8884 83.6596 50.9063 83.7152C50.9242 83.7708 50.9552 83.8483 50.9894 83.9101Z" fill="#E38E58"/>
<path fill-rule="evenodd" clip-rule="evenodd" d="M50.9894 83.9101L51.0569 83.8475C51.7968 84.2679 52.3931 84.8151 53.0406 85.4217C54.2456 86.5514 57.3535 89.4212 58.4498 89.9457C55.6656 85.4069 54.14 84.4988 50.8613 78.2871C50.9653 79.9984 50.4319 82.0415 50.8318 83.5171C50.8504 83.5868 50.8884 83.6596 50.9063 83.7152C50.9242 83.7708 50.9552 83.8483 50.9894 83.9101Z" fill="#E38E58"/>
<path fill-rule="evenodd" clip-rule="evenodd" d="M81.0701 95.3689C85.4878 91.8204 88.626 88.3204 91.8069 82.2238C95.0079 76.0888 93.091 77.0587 92.0041 74.0472C91.4691 72.5645 91.6764 70.2849 90.8441 69.2109C90.4559 68.7099 87.9249 67.0895 87.1392 67.3713C87.2385 68.5259 86.6314 67.4684 88.869 68.7788C89.48 69.1373 90.2401 69.5914 90.4769 70.0188C91.1958 71.3128 90.4342 73.4436 92.5367 76.5757C93.098 77.4118 93.2129 77.436 92.8037 78.5617C91.2447 82.8547 89.3092 86.1723 86.532 89.515C85.5538 90.6931 84.8768 91.4109 83.7906 92.5077C82.6881 93.6216 81.9109 94.2933 80.9296 95.2202C79.862 95.4456 80.2362 95.5129 79.5126 96.1384C78.6291 96.9017 76.5794 98.0923 75.7805 99.0552C76.6998 98.8047 77.8154 97.9749 78.6066 97.4778L80.5157 96.1016C81.0833 95.6272 80.8605 95.7337 81.0709 95.3681L81.0701 95.3689Z" fill="#2FB1CF"/>
<path fill-rule="evenodd" clip-rule="evenodd" d="M47.1234 59.6872C47.7484 61.8846 48.3191 64.042 48.8245 66.2652C48.583 66.486 49.0605 66.3725 48.2748 66.749C49.0178 68.5605 53.0621 70.3923 55.444 70.6216L55.7538 70.4463C54.9549 70.3946 54.2127 70.04 53.6552 69.5899C53.7585 68.5385 53.4961 69.4693 53.5582 68.6223C50.552 67.9232 48.8866 66.1963 49.1366 62.4936C49.3524 59.3012 50.7205 57.1454 53.76 56.833C49.3423 56.9222 49.0667 60.1451 48.7484 60.9131C48.7298 60.9585 48.4728 61.4164 48.4689 61.4227L48.1995 61.7585C48.1521 60.1099 48.149 60.3847 47.1234 59.688V59.6872Z" fill="#D4946A"/>
<path fill-rule="evenodd" clip-rule="evenodd" d="M54.6106 80.4265C54.0477 78.8061 52.6067 76.6009 51.779 75.1832C50.4794 72.9592 50.3233 71.9823 49.3179 69.4122L48.4118 68.5645C48.1447 72.9811 48.5298 72.8715 50.4599 75.62C51.6983 77.3829 53.2216 79.1185 54.6106 80.4273V80.4265Z" fill="#F7D3B5"/>
<path fill-rule="evenodd" clip-rule="evenodd" d="M86.7397 66.619C87.1426 65.6045 87.881 64.7942 88.4136 63.3006C88.8212 62.1577 88.8064 60.2915 89.4617 59.4554L89.5339 57.4482L88.381 58.1708C87.617 63.3335 87.478 65.8542 83.1147 67.9224L79.6504 69.3949C84.1869 69.2602 85.4594 67.2124 86.7397 66.619Z" fill="#29D9F9"/>
<path fill-rule="evenodd" clip-rule="evenodd" d="M48.2753 66.7489C49.061 66.3724 48.5843 66.4859 48.8249 66.2652C48.3195 64.0412 47.7489 61.8845 47.1239 59.6871C47.2054 58.2491 47.0377 57.4498 45.842 56.9402C46.1332 60.3502 46.4111 64.6447 48.2753 66.7489Z" fill="#ECC29B"/>
<path fill-rule="evenodd" clip-rule="evenodd" d="M42.5276 81.3634C43.2869 83.1271 44.3537 85.1233 45.3172 86.5551C47.8405 90.3056 52.8187 96.1165 57.1083 97.9091C56.4546 97.2743 55.6021 96.7795 54.849 96.2136C54.0617 95.6217 53.4569 95.1043 52.7085 94.3919C43.9204 86.029 45.7333 84.7499 42.884 80.9744C42.8436 81.4699 42.9849 81.3642 42.5284 81.3642L42.5276 81.3634Z" fill="#BA845A"/>
<path fill-rule="evenodd" clip-rule="evenodd" d="M42.5276 81.3636C42.9842 81.3636 42.8428 81.4693 42.8832 80.9738C41.0245 75.5379 41.4904 78.4194 43.0517 74.6627C43.4174 73.7836 43.5758 72.6242 43.7295 71.569C43.9446 70.0926 44.106 69.7317 45.2062 69.1015C46.8327 68.17 47.0781 68.4212 47.4539 67.5938C47.0486 67.3472 47.9484 67.2901 46.8716 67.4568C46.856 67.4592 46.4686 67.6267 46.4174 67.6525C42.2147 69.7059 43.745 69.8155 42.8033 73.5268C42.4624 74.8717 41.0913 76.8029 41.096 77.3219C41.1014 77.938 42.287 80.6818 42.5269 81.3636H42.5276Z" fill="#E2B79C"/>
<path fill-rule="evenodd" clip-rule="evenodd" d="M50.9887 83.9099C50.9546 83.8481 50.9235 83.7706 50.9057 83.715C50.8878 83.6594 50.8497 83.5866 50.8311 83.5169C50.4305 82.0413 50.9639 79.9981 50.8606 78.2869C50.488 77.562 50.3381 77.0892 49.7512 76.5952C49.6448 78.0544 49.3824 79.8768 49.387 81.3235C49.3932 83.1357 50.3474 83.5678 50.9375 84.6661L50.9887 83.9099Z" fill="#F1CEB3"/>
<path fill-rule="evenodd" clip-rule="evenodd" d="M50.9887 83.9099C50.9546 83.8481 50.9235 83.7706 50.9057 83.715C50.8878 83.6594 50.8497 83.5866 50.8311 83.5169C50.4305 82.0413 50.9639 79.9981 50.8606 78.2869C50.488 77.562 50.3381 77.0892 49.7512 76.5952C49.6448 78.0544 49.3824 79.8768 49.387 81.3235C49.3932 83.1357 50.3474 83.5678 50.9375 84.6661L50.9887 83.9099Z" fill="#F1CEB3"/>
<path fill-rule="evenodd" clip-rule="evenodd" d="M80.9664 83.6752C80.3826 84.1911 77.2001 88.16 76.9036 88.9373L81.1427 85.1954C81.4261 84.8338 81.3942 84.8839 81.631 84.4956L82.7886 83.4857C83.211 83.2485 83.3376 83.0184 83.6823 82.8658L82.7785 84.8455C86.256 82.7428 85.256 79.9145 85.0883 76.3088C84.4222 77.7892 83.4905 79.7822 82.6815 81.1756L81.6202 82.8509L80.9664 83.6736V83.6752Z" fill="#29D9F9"/>
<path fill-rule="evenodd" clip-rule="evenodd" d="M51.208 63.1669C50.7041 61.8783 50.944 60.9969 51.1792 59.771C50.4292 61.0204 50.5263 63.0197 51.2142 64.3074L55.1637 64.3669L51.208 63.1669Z" fill="#E4935A"/>
<path fill-rule="evenodd" clip-rule="evenodd" d="M84.9983 63.1669C85.5022 61.8783 85.2623 60.9969 85.027 59.771C85.777 61.0204 85.68 63.0197 84.9921 64.3074L81.0433 64.3669L84.9991 63.1669H84.9983Z" fill="#29D9F9"/>
<path fill-rule="evenodd" clip-rule="evenodd" d="M29.38 58.7408L30.1043 58.8848C29.7977 57.8413 28.9887 57.5987 28.0228 57.0742C27.262 56.6608 26.2767 55.9641 25.5422 55.687C25.8854 56.7219 28.5438 58.019 29.38 58.7408Z" fill="#372A24"/>
<path fill-rule="evenodd" clip-rule="evenodd" d="M89.0303 56.3649C89.5482 55.233 90.0746 53.4145 90.2042 51.8989C89.2446 52.1424 89.3564 52.8798 89.1398 53.8685C89.0474 54.2897 88.9286 54.6858 88.8207 55.1226C88.5039 56.408 88.8114 56.1238 89.0303 56.3649Z" fill="#1FAED6"/>
<path fill-rule="evenodd" clip-rule="evenodd" d="M53.6552 69.5899C54.7554 69.6596 56.4984 70.058 57.5488 69.5578L53.5582 68.6223C53.4953 69.4693 53.7585 68.5386 53.6552 69.5899Z" fill="#C6794D"/>
<path fill-rule="evenodd" clip-rule="evenodd" d="M53.6552 69.5899C54.7554 69.6596 56.4984 70.058 57.5488 69.5578L53.5582 68.6223C53.4953 69.4693 53.7585 68.5386 53.6552 69.5899Z" fill="#C6794D"/>
<path fill-rule="evenodd" clip-rule="evenodd" d="M59.9354 88.6288C60.2374 88.1865 58.5581 86.2631 58.2001 85.7535L56.2716 83.2437C56.2607 83.2007 56.1877 83.2453 56.1621 83.2727C56.586 84.3319 57.364 85.3237 57.9859 86.1684C58.3748 86.6968 58.4657 86.8862 58.9113 87.46C59.2778 87.9321 59.5301 88.163 59.9354 88.6288Z" fill="#D6C4B4"/>
<path fill-rule="evenodd" clip-rule="evenodd" d="M36.878 61.6991C35.7717 61.2834 35.8928 61.8267 35.8245 61.9089C37.1141 62.4859 39.7336 62.9086 41.2313 62.936C40.5962 62.4428 39.2709 62.4428 38.3182 62.2056C37.7111 62.0545 37.4269 61.905 36.8788 61.6991H36.878Z" fill="#563B29"/>
<path fill-rule="evenodd" clip-rule="evenodd" d="M48.3613 55.8629C48.3046 54.4852 48.1354 52.15 46.9436 51.5566C47.0624 52.4248 47.3186 53.1301 47.5577 53.9662C47.8341 54.9337 47.845 55.2625 48.3613 55.8629Z" fill="#CC936E"/>
<path fill-rule="evenodd" clip-rule="evenodd" d="M44.1537 66.623C45.9347 66.2183 46.0885 66.2989 46.3695 65.6014C46.1032 65.3697 46.0885 64.9211 44.6482 65.4676L44.3517 65.6719L44.7329 65.8331C44.375 66.176 44.4969 66.0406 44.1537 66.623Z" fill="#E8B088"/>
<path fill-rule="evenodd" clip-rule="evenodd" d="M65.2259 68.9204C64.1902 69.3142 63.9456 69.7494 63.2833 70.4673C63.7678 71.1194 63.618 70.908 63.6708 71.4121C63.8315 72.685 63.5574 71.4935 64.1715 72.2177C65.0605 73.2651 64.5457 73.096 65.4223 73.4968C65.8291 73.8905 65.295 73.6017 65.8369 73.7387C65.8501 73.7418 66.2336 73.6784 66.3058 73.6706L66.1824 73.3144C66.9875 72.6365 66.7554 71.9045 67.194 70.6818C66.2717 71.0755 66.6102 69.0425 65.2259 68.9212V68.9204Z" fill="#E4935A"/>
<path fill-rule="evenodd" clip-rule="evenodd" d="M106.414 59.9135C107.498 59.6058 109.126 58.7079 109.641 57.803C108.878 58.1208 108.528 58.4942 107.948 58.8418C107.296 59.2324 106.792 59.4594 106.414 59.9127V59.9135Z" fill="#17718D"/>
<path fill-rule="evenodd" clip-rule="evenodd" d="M61.996 90.9037L63.7397 91.8305L62.8981 90.7072C63.7265 91.4853 65.2537 92.4889 66.8865 92.6815C66.6761 92.2783 61.6637 87.161 59.8935 81.0644L60.3469 81.5771C60.3523 81.5842 60.5449 81.938 60.6147 81.9615L59.8733 78.6032C59.7623 77.9378 59.6947 77.8932 59.4812 77.2106C59.416 77.0023 59.3189 76.6446 59.2584 76.5162C58.9905 75.9502 59.0006 76.1154 58.8127 75.9048C58.8065 76.528 59.0658 77.5284 58.6078 77.5284C58.3283 76.5107 57.5177 75.4336 57.9564 74.455L57.5526 74.3494C56.7172 74.0495 57.5441 75.039 57.3267 74.2468C57.3127 74.1967 57.2421 74.2147 57.1272 74.1482L57.638 72.9951C56.5775 73.3458 57.2359 73.68 55.9898 73.2111L56.819 76.5937C56.086 74.9498 55.4323 72.6326 53.7778 72.3093C53.2429 71.5821 53.3624 71.8334 52.4346 71.6087L52.7499 72.7728C51.8974 71.1202 50.7312 70.1652 49.3167 69.4121C50.3229 71.9829 50.4789 72.9591 51.7778 75.1831C52.6062 76.6008 54.0472 78.806 54.6093 80.4264C55.1039 81.2108 55.5658 82.4782 56.1606 83.2735C56.1862 83.2453 56.2592 83.2015 56.27 83.2446L58.1986 85.7543C58.5565 86.2647 60.2359 88.1873 59.9338 88.6296C60.2568 89.3224 61.3469 90.2352 61.9952 90.9045L61.996 90.9037Z" fill="#E38E58"/>
<path fill-rule="evenodd" clip-rule="evenodd" d="M79.2651 75.0945C80.4413 74.9551 80.9064 75.1829 81.5198 75.8773C82.4949 76.9811 82.3311 79.4493 79.2038 78.362C77.6735 77.8304 75.0943 75.6902 73.3358 74.8072C71.9119 74.0925 69.9934 73.629 68.1339 74.206C67.8265 75.2041 67.9018 76.9185 68.2349 77.807C68.797 79.3084 69.7993 79.2254 70.6906 79.3945C72.8342 79.8 75.2504 80.4576 77.4903 80.5461C78.9926 80.6055 81.2107 80.438 82.2022 79.2787C82.3606 79.0931 82.8878 78.3581 82.9724 78.0582C83.0873 77.6543 83.0368 76.4934 82.9017 76.1223C82.7092 75.5931 82.366 75.2941 82.0221 75.0146C80.8583 74.069 79.4988 74.5168 79.2651 75.0929V75.0945Z" fill="black"/>
<path fill-rule="evenodd" clip-rule="evenodd" d="M80.2685 76.0951C80.0814 76.0254 79.8065 76.0191 79.3757 76.07L77.7398 76.2641L78.3663 74.7228C78.4246 74.5795 78.5038 74.4456 78.6008 74.3235C78.8951 73.9556 79.3951 73.6566 79.9851 73.5415C80.51 73.4389 81.1342 73.4726 81.7623 73.7317C82.0573 73.8531 82.35 74.0237 82.6311 74.2515C82.8353 74.4175 83.0426 74.5928 83.2491 74.8308C83.4758 75.0915 83.6738 75.3968 83.8151 75.7851C83.9176 76.0653 83.9843 76.5757 84.0022 77.0626C84.0193 77.5354 83.9929 78.0325 83.909 78.3277C83.8477 78.5437 83.6963 78.8247 83.5247 79.0972C83.3135 79.4314 83.0495 79.7884 82.937 79.9207C82.3718 80.5814 81.5558 80.9893 80.6645 81.2288C79.5915 81.5177 78.3904 81.5631 77.4517 81.5263C75.7204 81.4582 73.9479 81.0793 72.2584 80.7192C71.6443 80.5884 71.0418 80.4593 70.5116 80.3591C70.4238 80.3426 70.2996 80.3238 70.1746 80.3058C69.1505 80.1555 68.0954 79.9998 67.4052 78.3574C67.156 79.0142 66.8547 79.4338 66.4029 79.7563C65.9161 80.1047 65.3718 80.2471 64.5683 80.4319V80.4327L63.7957 80.6143C60.5776 81.3736 55.8136 82.497 52.7321 80.972C51.6219 80.4225 50.8967 79.3547 50.6312 78.2361C50.4922 77.6505 50.4759 77.0462 50.5932 76.4896C50.7197 75.8853 50.9984 75.331 51.441 74.8973C52.0512 74.2993 52.9355 73.9525 54.1087 74.0558L55.3206 74.163L54.9534 75.3302C54.7872 75.8579 54.4969 76.023 54.1211 76.236C53.9355 76.3409 53.6801 76.4865 53.4976 76.9444C53.4767 76.9976 53.4611 77.0391 53.4518 77.0697C53.3905 77.2708 53.3843 77.4431 53.4293 77.5652C53.4511 77.6247 53.4953 77.6717 53.5598 77.6975L53.5939 77.7108C54.5745 78.013 55.8556 77.1613 56.7267 76.5827C56.9021 76.4661 57.0652 76.3581 57.1451 76.3072C57.3307 76.1898 57.6568 75.9745 58 75.7483C59.6265 74.675 61.6273 73.3536 63.5356 73.1681C63.9029 73.1321 64.7647 73.0953 65.4999 73.107C66.0838 73.1164 66.6273 73.161 66.9168 73.2683L67.2903 73.4068L67.3338 73.5008L67.3586 73.4202L67.8493 73.2675C68.8376 72.9606 69.8314 72.9051 70.7732 73.0139C71.8749 73.1415 72.9067 73.4922 73.7709 73.9259C74.5814 74.3329 75.5434 74.9842 76.5061 75.6355C77.6396 76.4027 78.7739 77.1706 79.5208 77.4305C80.1893 77.663 80.6264 77.6959 80.8873 77.6075H80.8912C80.9603 77.584 81.0045 77.5511 81.0263 77.5135C81.0635 77.4517 81.0791 77.3593 81.0775 77.2513C81.0728 76.9961 80.9665 76.7237 80.7933 76.5272C80.5899 76.297 80.43 76.1514 80.2693 76.0911L80.2685 76.0951Z" fill="black"/>
<path fill-rule="evenodd" clip-rule="evenodd" d="M66.5818 74.1919C66.1392 74.0283 64.2099 74.0886 63.6268 74.1457C61.633 74.3398 59.3108 76.0957 57.6633 77.1392C56.6633 77.7725 54.9281 79.1472 53.3132 78.6501C52.4987 78.3996 52.2177 77.5322 52.5966 76.5819C53.0935 75.3333 53.8931 75.4593 54.0259 75.0366C50.7394 74.7461 50.8574 78.9546 53.1594 80.0936C56.1703 81.5833 61.3085 80.1781 64.3527 79.4775C65.7285 79.1605 66.1936 79.0055 66.6066 77.6888C66.9001 76.7525 67.0026 75.1 66.5825 74.1927L66.5818 74.1919Z" fill="black"/>
<path fill-rule="evenodd" clip-rule="evenodd" d="M79.2654 75.0946C80.4416 74.9552 80.9067 75.183 81.52 75.8774C82.4952 76.9812 82.3313 79.4494 79.204 78.3621C77.6738 77.8305 75.0946 75.6903 73.3368 74.8073C71.9129 74.0926 69.9937 73.6284 68.135 74.2061C67.8275 75.2042 67.9028 76.9186 68.2351 77.8071C68.7972 79.3085 69.7996 79.2255 70.6909 79.3946C72.8345 79.8001 75.2506 80.4577 77.4905 80.5462C78.9929 80.6056 81.211 80.4381 82.2025 79.2788C82.3609 79.0932 82.888 78.3582 82.9734 78.0583C83.0883 77.6544 83.0379 76.4935 82.9028 76.1224C82.7102 75.5932 82.3671 75.2942 82.0231 75.0147C80.8593 74.0691 79.4998 74.5169 79.2661 75.093L79.2654 75.0946Z" fill="#D3DEE5"/>
<path fill-rule="evenodd" clip-rule="evenodd" d="M67.9447 76.0464C67.9664 76.7118 68.0689 77.3631 68.2351 77.8078C68.7972 79.3092 69.7995 79.2263 70.6908 79.3953C72.8344 79.8008 75.2506 80.4584 77.4905 80.5469C77.6667 80.5539 77.8538 80.5578 78.0471 80.5571C74.7661 77.0179 72.4392 76.686 68.3003 76.0965L67.9455 76.0457L67.9447 76.0464Z" fill="#D3DEE5"/>
<path fill-rule="evenodd" clip-rule="evenodd" d="M79.2654 75.0947C80.4416 74.9554 80.9067 75.1832 81.5201 75.8776C82.4952 76.9813 82.3314 79.4496 79.2041 78.3622C77.6738 77.8307 75.0946 75.6905 73.3361 74.8074C71.9122 74.0927 69.9937 73.6293 68.1342 74.2062C68.0116 74.6055 67.9495 75.119 67.9409 75.649L68.3524 75.7077C72.68 76.3238 75.0674 76.6635 78.5643 80.5439C79.9083 80.4837 81.4284 80.1831 82.2025 79.2781C82.3609 79.0926 82.8881 78.3575 82.9727 78.0577C83.0876 77.6538 83.0371 76.4928 82.902 76.1218C82.7095 75.5926 82.3663 75.2936 82.0224 75.0141C80.8586 74.0684 79.4991 74.5162 79.2654 75.0924V75.0947Z" fill="#ABBBC7"/>
<path fill-rule="evenodd" clip-rule="evenodd" d="M55.1121 75.0946C53.9359 74.9552 53.4708 75.183 52.8575 75.8774C51.8823 76.9812 52.0462 79.4494 55.1735 78.3621C56.7037 77.8305 59.2829 75.6903 61.0415 74.8073C62.4654 74.0926 64.3838 73.6284 66.2433 74.2061C66.5508 75.2042 66.4755 76.9186 66.1432 77.8071C65.581 79.3085 64.5787 79.2255 63.6874 79.3946C61.5438 79.8001 59.1277 80.4577 56.8878 80.5462C55.3854 80.6056 53.1673 80.4381 52.1758 79.2788C52.0174 79.0932 51.4903 78.3582 51.4049 78.0583C51.2899 77.6544 51.3404 76.4935 51.4755 76.1224C51.6681 75.5932 52.0112 75.2942 52.3552 75.0147C53.519 74.0691 54.8784 74.5169 55.1121 75.093V75.0946Z" fill="#D3DEE5"/>
<path fill-rule="evenodd" clip-rule="evenodd" d="M66.4328 76.0467C66.411 76.7121 66.3093 77.3634 66.1424 77.808C65.5803 79.3095 64.578 79.2265 63.6867 79.3956C61.543 79.8011 59.1269 80.4587 56.887 80.5471C56.7108 80.5542 56.5236 80.5581 56.3303 80.5573C59.6114 77.0182 61.9382 76.6862 66.0772 76.0968L66.432 76.0459L66.4328 76.0467Z" fill="#ABBBC7"/>
<path fill-rule="evenodd" clip-rule="evenodd" d="M55.1117 75.0947C53.9355 74.9554 53.4704 75.1832 52.857 75.8776C51.8819 76.9813 52.0457 79.4496 55.173 78.3622C56.7033 77.8307 59.2825 75.6905 61.0402 74.8074C62.4642 74.0927 64.3826 73.6293 66.2421 74.2062C66.3648 74.6055 66.4269 75.119 66.4354 75.649L66.0239 75.7077C61.6963 76.3238 59.3089 76.6635 55.812 80.5439C54.4681 80.4837 52.9479 80.1831 52.1746 79.2781C52.0162 79.0926 51.489 78.3575 51.4036 78.0577C51.2887 77.6538 51.3392 76.4928 51.4743 76.1218C51.6668 75.5926 52.01 75.2936 52.3539 75.0141C53.5178 74.0684 54.8772 74.5162 55.1109 75.0924L55.1117 75.0947Z" fill="#D3DEE5"/>
<path d="M37.1724 120.53V121.677H39.4425V126.298H40.7414V121.677H43.0349V120.53H37.1724ZM44.9681 120.53H43.6692V126.298H45.8998L49.1638 121.677H49.3439V126.298H50.6436V120.53H48.4596L45.149 125.151H44.9689V120.53H44.9681ZM51.6909 120.53V126.298H52.9906V121.677H53.163L55.0256 126.298H56.8726L58.7352 121.677H58.9075V126.298H60.2064V120.53H57.788L55.9875 125.151H55.9091L54.1086 120.53H51.6902H51.6909ZM61.5915 120.53V124.046C61.5915 124.886 61.4665 125.151 60.8012 125.151V126.298H61.3493C62.3198 126.298 62.8912 125.683 62.8912 124.203V121.677H65.944V126.298H67.2429V120.53H61.5923H61.5915ZM68.166 126.298H73.7149V125.209H69.4649V123.888H73.5822V122.882H69.4649V121.619H73.7149V120.53H68.166V126.298ZM79.6085 124.304C79.6085 125.002 79.3422 125.151 78.5674 125.151H76.9005C76.1567 125.151 75.8516 124.985 75.8516 124.104V122.675C75.8516 121.769 76.0317 121.611 76.9005 121.611H78.5674C79.319 121.611 79.6085 121.868 79.6085 122.475H80.9074C80.9074 120.854 80.1016 120.463 78.8182 120.463H76.6582C75.0612 120.463 74.5527 120.937 74.5527 122.625V124.262C74.5527 125.808 75.0301 126.299 76.5325 126.299H78.9509C80.5557 126.299 80.9075 125.842 80.9152 124.304H79.6085V124.304ZM86.7312 124.304C86.7312 125.002 86.4649 125.151 85.69 125.151H84.0231C83.2793 125.151 82.9742 124.985 82.9742 124.104V122.675C82.9742 121.769 83.1543 121.611 84.0231 121.611H85.69C86.4416 121.611 86.7312 121.868 86.7312 122.475H88.0301C88.0301 120.854 87.2242 120.463 85.9408 120.463H83.7809C82.1838 120.463 81.6753 120.937 81.6753 122.625V124.262C81.6753 125.808 82.1528 126.299 83.6559 126.299H86.0744C87.6792 126.299 88.0309 125.842 88.0386 124.304H86.732L86.7312 124.304ZM89.9874 126.298L90.6916 124.844H93.9082L94.6046 126.298H96.131L93.2739 120.53H91.3484L88.468 126.298H89.9866H89.9874ZM91.2164 123.755L92.2886 121.61H92.3515L93.3849 123.755H91.2172H91.2164Z" fill="white"/>
<path d="M14.278 121.5L14.837 118.724L20.4853 117.118L22.3867 119.196L25.0668 118.434L17.3626 110.242L13.9822 111.203L11.6127 122.256L14.2788 121.499L14.278 121.5ZM15.2501 116.647L16.1336 112.537L16.2439 112.506L19.0575 115.565L15.2509 116.647H15.2501ZM33.6343 109.687L36.0047 109.317C37.4014 109.1 37.9177 109.354 38.1374 110.791L38.2679 111.644C38.4728 112.982 38.2003 113.374 36.705 113.607L34.2919 113.983L33.6336 109.686L33.6343 109.687ZM30.8735 107.32L30.9915 108.088L27.9581 108.561C25.5311 108.939 24.5272 109.838 24.9527 112.613L25.16 113.965C25.5373 116.426 26.4806 117.212 29.2182 116.785L32.2523 116.312L32.3874 117.195L34.7298 116.83L34.5947 115.948L37.6002 115.48C40.3377 115.053 41.0264 113.984 40.6491 111.523L40.4441 110.186C40.0186 107.412 38.7671 106.879 36.3401 107.257L33.3346 107.725L33.2166 106.956L30.8742 107.321L30.8735 107.32ZM31.2919 110.052L31.9503 114.349L29.5513 114.723C28.0552 114.956 27.667 114.681 27.462 113.343L27.3292 112.475C27.1087 111.038 27.5389 110.636 28.9356 110.419L31.2919 110.051V110.052ZM43.0652 115.696L53.1591 114.92L53.017 113.039L45.2865 113.634L45.1133 111.352L52.6017 110.776L52.4704 109.038L44.9821 109.615L44.8167 107.433L52.5473 106.838L52.4052 104.958L42.3113 105.734L43.0652 115.696ZM57.0419 111.826L61.451 111.674C63.8912 111.59 64.8702 110.548 64.7848 108.016C64.6994 105.499 63.6816 104.554 61.1847 104.64L54.4347 104.872L54.7724 114.858L57.1412 114.777L57.0411 111.827L57.0419 111.826ZM56.871 106.776L60.8237 106.64C62.0651 106.597 62.3827 107.119 62.4161 108.097C62.4525 109.176 62.1257 109.663 60.9277 109.705L56.9751 109.841L56.871 106.776ZM68.9075 104.604L66.5379 104.554L66.3353 114.543L70.4036 114.627L76.5185 106.747L76.8469 106.754L76.6846 114.757L79.0542 114.805L79.2568 104.817L75.2739 104.734L69.0736 112.613L68.7452 112.606L68.9075 104.603V104.604ZM90.1667 112.312C90.058 113.517 89.551 113.731 88.1434 113.602L85.1147 113.324C83.7638 113.2 83.2351 112.863 83.3725 111.342L83.5946 108.876C83.7359 107.314 84.0868 107.071 85.6652 107.216L88.6939 107.494C90.0588 107.619 90.5448 108.112 90.4509 109.158L92.8111 109.374C93.0635 106.579 91.659 105.77 89.3274 105.556L85.4028 105.196C82.5022 104.93 81.5037 105.663 81.2413 108.573L80.9866 111.398C80.746 114.065 81.5371 114.99 84.2677 115.24L88.6613 115.643C91.5767 115.91 92.2871 115.18 92.5409 112.529L90.166 112.311L90.1667 112.312ZM94.9276 106.207L94.6271 108.17L98.7195 108.808L97.5075 116.718L99.8499 117.083L101.062 109.172L105.196 109.817L105.497 107.853L94.9284 106.207H94.9276ZM107.621 108.174L105.162 117.853L111.705 119.543C113.987 120.133 115.27 119.84 115.89 117.399C116.518 114.931 115.459 114.048 113.191 113.462L109 112.38L109.917 108.768L107.622 108.175L107.621 108.174ZM108.511 114.304L112.563 115.35C113.753 115.657 113.789 116.038 113.601 116.777C113.386 117.628 113.149 117.864 111.917 117.546L107.948 116.521L108.511 114.303L108.511 114.304ZM122.145 111.925L119.849 111.332L117.39 121.011L119.686 121.604L122.145 111.925Z" fill="white"/>
<path fill-rule="evenodd" clip-rule="evenodd" d="M13.9407 124.07L28.5097 120.549L23.2139 124.788L47.977 132.708L13.9407 124.07Z" fill="#DD8D52"/>
<path fill-rule="evenodd" clip-rule="evenodd" d="M119.146 124.07L104.577 120.549L109.872 124.788L85.1096 132.708L119.146 124.07Z" fill="#38DBFA"/>
<path fill-rule="evenodd" clip-rule="evenodd" d="M67.6213 135.241V134.09L75.3496 132.17L67.6213 135.241Z" fill="#38DBFA"/>
<path fill-rule="evenodd" clip-rule="evenodd" d="M67.6217 135.241V134.09L59.8927 132.17L67.6217 135.241Z" fill="#DD8D52"/>
</g>
<defs>
<clipPath id="clip0_1_10139">
<rect width="118.144" height="137.007" fill="white" transform="translate(7.94263)"/>
</clipPath>
</defs>
</svg>
