<svg width="116" height="117" viewBox="0 0 116 117" fill="none" xmlns="http://www.w3.org/2000/svg">
<mask id="mask0_1_16308" style="mask-type:alpha" maskUnits="userSpaceOnUse" x="0" y="0" width="116" height="117">
<rect width="115.533" height="116.195" fill="#D9D9D9"/>
</mask>
<g mask="url(#mask0_1_16308)">
<path fill-rule="evenodd" clip-rule="evenodd" d="M47.0459 22.6908C47.4077 22.6714 47.8001 22.6495 48.2174 22.6257C48.7706 22.5942 49.4226 22.5551 50.1315 22.5117C51.6509 22.236 53.1861 22.0522 54.7291 21.9598C57.091 21.8183 59.6304 21.8982 62.0239 21.895C62.815 21.894 63.5636 21.9062 64.3049 21.9206C65.2325 21.7911 66.4433 21.7218 67.779 21.6453C69.2742 21.5597 70.9406 21.4642 72.4734 21.2525L76.591 20.8498L72.7001 25.9757C72.607 28.4729 72.3256 28.3435 74.3682 28.3276C75.0092 28.1383 75.6955 28.0657 76.3696 28.088C77.0924 28.112 77.8239 28.2443 78.4781 28.4565C82.6371 28.7764 86.1794 29.6519 89.3956 30.9673C92.6586 32.3018 95.5441 34.0752 98.3768 36.172L101.229 38.2834L49.7417 63.5396H49.7332L49.7178 63.5472L49.7194 63.5505L15.2197 80.4737L14.2562 76.5402L14.2193 76.5307C12.9891 76.3416 11.8905 75.8248 10.9812 75.0761C10.2148 74.4451 9.58165 73.6471 9.11899 72.7431L9.05746 72.7042C7.90143 72.5817 6.68615 71.8903 5.6736 70.839C4.64806 69.7741 3.72975 68.2702 3.31164 66.6599C3.24775 66.4138 3.19385 66.1548 3.15131 65.8835C3.09455 65.521 3.05215 65.1362 3.03573 64.762C3.01988 64.3998 3.02552 64.0307 3.061 63.6741C3.13282 62.9532 3.28237 62.4162 3.47697 62.0121C3.09534 60.6502 3.17015 58.8941 3.23511 57.3704C3.26267 56.7235 3.28815 56.1275 3.26916 55.7296L3.14738 53.1808L5.68245 53.4782C9.15397 53.8854 11.575 54.0929 13.6527 53.8589C15.3517 53.6677 16.92 53.1572 18.819 52.1791L18.8702 51.7819L20.2722 47.623C21.138 45.7609 22.0037 43.8988 22.8707 42.0372L27.231 35.0211C26.6934 34.4118 26.2365 33.6655 25.9937 32.8915L25.6858 32.3361L25.6179 32.2006C24.8167 30.3639 24.4037 29.1952 24.1203 27.1666C23.9854 26.2016 23.928 25.2036 23.9409 23.8383C23.9409 21.4969 24.0136 19.128 24.05 16.7837C27.8177 18.7884 27.6858 19.0766 32.0814 19.3743C33.6065 19.4777 35.141 19.5817 36.6522 19.6139H36.7541C37.4533 19.6617 38.149 19.7118 38.883 19.7919C39.6579 19.8764 40.4096 19.9857 41.1254 20.1427C41.7346 20.2763 42.3478 20.493 42.9532 20.7069C44.7317 21.3351 45.3928 21.7301 47.0461 22.6909L47.0459 22.6908Z" fill="#CDA97A"/>
<path fill-rule="evenodd" clip-rule="evenodd" d="M90.5284 28.2205C92.3178 28.9523 93.9806 29.7909 95.566 30.7232C97.1228 31.6386 95.5714 32.7799 97.0847 33.9V42.3072L17.1696 83.5743L11.7758 78.9436C11.6084 78.8791 11.443 78.81 11.2794 78.7365C10.4767 78.376 9.73882 77.9138 9.07621 77.3682C8.53967 76.9265 8.0461 76.4221 7.60229 75.8662C7.45581 75.6828 7.31589 75.4952 7.18268 75.3039C6.7463 75.1518 6.31456 74.9574 5.89238 74.7248C5.0336 74.2514 4.22765 73.6299 3.5232 72.8984C2.81562 72.1637 2.15444 71.2861 1.6134 70.3288C1.1117 69.4412 0.69716 68.4518 0.425106 67.4042C0.380561 67.2326 0.339157 67.0547 0.301251 66.8712C0.270626 66.7229 0.23893 66.5449 0.206378 66.3369C0.162547 66.0567 0.12871 65.8099 0.108222 65.6109C0.0849498 65.3847 0.0668891 65.1436 0.0558242 64.8896C0.0459015 64.6616 0.0433315 64.4122 0.0495422 64.1417C0.166973 59.0798 0.242428 54.8884 0 49.8157L6.02073 50.5219C7.73943 50.7235 9.17265 50.8743 10.3533 50.9411C11.4854 51.0051 12.4526 51.0009 13.3251 50.9027C13.9681 50.8303 14.5909 50.6961 15.2373 50.4858C15.5801 50.3743 15.9313 50.2412 16.2964 50.0846L17.5072 46.4934L17.7849 45.8959C18.576 44.1944 19.3673 42.4927 20.1595 40.7917L20.2194 40.6633L23.6861 35.0849C23.5203 34.7645 23.374 34.4343 23.2516 34.098L23.0682 33.767L23.0215 33.6623L22.8835 33.3872C22.4405 32.3717 22.1015 31.53 21.8237 30.6279C21.5353 29.6915 21.3279 28.7476 21.1639 27.5736C21.0863 27.0184 21.0305 26.4451 20.9954 25.8035C20.9652 25.2509 20.9539 24.6103 20.9609 23.8379H20.9494C20.9494 22.7852 20.9877 20.9242 21.0259 19.0684C21.0427 18.2505 21.0596 17.4327 21.0702 16.7484L21.1458 11.874L25.4517 14.1649C26.4607 14.7017 26.703 14.8345 26.9122 14.9493C28.8274 15.9996 29.1876 16.197 32.2796 16.4065L32.3066 16.4067L32.3064 16.4083C33.8315 16.5117 35.3649 16.6152 36.6518 16.6447V16.6343H36.7537L36.9523 16.646C37.4257 16.6783 37.8545 16.708 38.0388 16.7229C38.3333 16.7466 38.6988 16.7812 39.1981 16.8356C39.7249 16.8929 40.1648 16.9467 40.4817 16.9954C40.9154 17.062 41.3444 17.1401 41.7677 17.2329C42.1059 17.307 42.5127 17.4258 42.9517 17.5663C43.4243 17.7175 43.686 17.81 43.946 17.9019C45.6977 18.5205 46.4872 18.9261 47.7843 19.673L48.0535 19.6578L49.8178 19.5522C50.6429 19.4058 51.3931 19.2921 52.0678 19.2112C52.8481 19.1175 53.6772 19.0444 54.5535 18.992C56.2976 18.8875 58.2013 18.9026 60.0724 18.9175C60.7353 18.9228 61.394 18.928 62.0236 18.9272C62.4422 18.9266 62.8369 18.9295 63.2178 18.9341C63.5438 18.9381 63.8335 18.9429 64.1058 18.9479C64.6052 18.8839 65.1293 18.8357 65.6782 18.7952C66.0996 18.7642 66.8391 18.7219 67.615 18.6775C68.2508 18.6411 68.9239 18.6025 69.8897 18.5284C70.6602 18.4692 71.4072 18.3986 72.064 18.3079C75.7358 17.942 79.4094 17.5892 83.0818 17.23L77.0664 25.1548C77.3794 25.1807 77.675 25.2183 77.951 25.2665C78.0384 25.2818 78.1258 25.2968 78.2131 25.3115C80.4803 25.6944 82.7143 25.9127 84.9677 26.4405C86.9131 26.8961 88.755 27.4952 90.5284 28.2205H90.5284Z" fill="#CDA97A"/>
<path fill-rule="evenodd" clip-rule="evenodd" d="M89.3958 30.9673C92.6588 32.3018 95.5443 34.0752 98.377 36.172L101.23 38.2834L49.7419 63.5396H49.7334L49.718 63.5472L49.7196 63.5505L15.2199 80.4737L14.2564 76.5402L14.2195 76.5307C12.9893 76.3416 11.8907 75.8248 10.9815 75.0761C10.2151 74.4451 9.58186 73.6471 9.1192 72.7431L9.05767 72.7042C7.90164 72.5817 6.68636 71.8903 5.67381 70.839C4.64827 69.7741 3.72996 68.2702 3.31185 66.6599C3.24796 66.4138 3.19406 66.1548 3.15152 65.8835C3.09476 65.521 3.05236 65.1362 3.03594 64.762C2.90388 61.7385 3.40822 58.6385 3.26937 55.7296L3.14759 53.1808L5.68266 53.4782C9.15418 53.8854 11.5752 54.0929 13.653 53.8589C15.3519 53.6677 16.9202 53.1572 18.8192 52.1791L18.8704 51.7819L20.2724 47.623C21.1382 45.7609 22.0039 43.8988 22.8709 42.0372L27.2312 35.0211C26.6936 34.4118 26.2367 33.6655 25.9939 32.8915L25.6861 32.3361L25.6181 32.2006C24.8169 30.3639 24.404 29.1952 24.1205 27.1666C23.9856 26.2016 23.9282 25.2036 23.9411 23.8383C23.9411 21.4969 24.0138 19.128 24.0502 16.7837C27.8179 18.7884 27.686 19.0766 32.0816 19.3743C33.6067 19.4777 35.1413 19.5817 36.6524 19.6139H36.7543C37.4535 19.6617 38.1492 19.7118 38.8832 19.7919C39.6582 19.8764 40.4099 19.9857 41.1256 20.1427C41.7349 20.2763 42.348 20.493 42.9534 20.7069C44.7319 21.3351 45.393 21.7301 47.0463 22.6909C47.4081 22.6715 47.8005 22.6496 48.2177 22.6258C48.7709 22.5943 49.423 22.5552 50.1319 22.5118C51.6512 22.2361 53.1864 22.0523 54.7295 21.9599C57.0914 21.8184 59.6307 21.8983 62.0243 21.8951C62.8153 21.8941 63.564 21.9063 64.3052 21.9207C65.2329 21.7912 66.4436 21.7218 67.7793 21.6454C69.2746 21.5598 70.9409 21.4643 72.4738 21.2526L76.5914 20.8498L72.7005 25.9757C72.6073 28.4729 72.3259 28.3435 74.3686 28.3277C75.0095 28.1383 75.6958 28.0658 76.3699 28.0881C77.0927 28.112 77.8242 28.2444 78.4784 28.4566C82.6375 28.7765 86.1797 29.652 89.3959 30.9674L89.3958 30.9673Z" fill="#0F0F0F"/>
<path d="M89.4987 30.7172C91.1446 31.3902 92.6933 32.173 94.1857 33.0506C95.6758 33.9269 97.1133 34.8999 98.5384 35.9547L101.748 38.33C72.8431 52.5064 43.9395 66.6847 15.0366 80.8643L14.0348 76.7743C13.4586 76.6734 12.9102 76.5027 12.3953 76.2715C11.8202 76.0132 11.2885 75.6796 10.8081 75.2841C9.58992 74.2812 6.07921 71.6498 5.47821 71.0258C4.93054 70.4571 4.41313 69.7679 3.98274 69.0064C3.58319 68.2995 3.25702 67.5271 3.04936 66.7271C3.01602 66.5986 2.98526 66.4666 2.95734 66.3316C2.9305 66.2014 2.90588 66.0655 2.88375 65.9243C2.85312 65.7286 2.82685 65.5307 2.80679 65.3358C2.78773 65.1498 2.77324 64.9611 2.76503 64.7732C2.69828 63.2451 2.7918 61.708 2.88432 60.1855C2.97605 58.6757 3.06707 57.1799 2.99846 55.7418L2.86147 52.8745L5.71336 53.209C7.44783 53.4125 8.91754 53.566 10.2052 53.6388C11.4887 53.7115 12.5992 53.705 13.6231 53.5898C14.4538 53.4963 15.2531 53.3246 16.077 53.0566C16.8676 52.7995 17.6816 52.4536 18.5686 52.003L18.6052 51.7197C19.075 50.3194 19.5467 48.9191 20.0208 47.5203L20.2497 47.0279C21.0407 45.3263 21.832 43.6246 22.6243 41.9236L22.6297 41.9121L26.8963 35.0467C26.6591 34.7613 26.4393 34.4496 26.2484 34.1211C26.0398 33.7621 25.8663 33.3836 25.743 32.998L25.448 32.4657C25.4246 32.4133 25.3953 32.3599 25.3694 32.3081C24.9649 31.3808 24.658 30.621 24.4158 29.8345C24.1726 29.0448 23.9953 28.2321 23.8516 27.2033C23.7833 26.7143 23.7344 26.2158 23.7044 25.6659C23.6748 25.1241 23.6636 24.5286 23.6701 23.8378H23.669C23.669 22.3221 23.7021 20.7198 23.7349 19.1211C23.7511 18.3355 23.7673 17.5504 23.7792 16.78L23.7861 16.3369L24.1775 16.5451C24.766 16.8582 25.2135 17.1035 25.6062 17.3189C27.9621 18.611 28.4052 18.8539 32.0995 19.104L32.1052 19.1043C33.6295 19.2077 35.1632 19.3116 36.6522 19.3435V19.3425H36.7542L36.7722 19.3436C37.1331 19.3682 37.4893 19.3933 37.8268 19.4204C38.175 19.4485 38.5334 19.4813 38.9117 19.5225C39.3115 19.566 39.6985 19.615 40.0678 19.6718C40.4477 19.7301 40.8203 19.7979 41.1838 19.8775C41.4913 19.9449 41.8062 20.0355 42.1235 20.1369C42.4442 20.2394 42.7448 20.3457 43.0434 20.4513C44.8019 21.0724 45.4804 21.4667 47.0561 22.3826L47.1136 22.416L48.2026 22.3553L49.1002 22.3028L50.1028 22.2421C50.869 22.1035 51.6308 21.9888 52.3868 21.8981C53.1551 21.8058 53.9311 21.7362 54.7133 21.6894C56.4362 21.5863 58.2594 21.6007 60.0516 21.615C60.7159 21.6203 61.3762 21.6255 62.024 21.6247C62.4215 21.6241 62.8075 21.6269 63.1863 21.6316C63.5613 21.6363 63.9257 21.6428 64.2863 21.6498C64.7545 21.5851 65.2882 21.5355 65.8698 21.4927C66.4403 21.4507 67.0864 21.4137 67.7641 21.375C68.5015 21.3328 69.2813 21.2881 70.0919 21.2259C70.8846 21.165 71.6797 21.0887 72.4362 20.9842C74.0168 20.8236 75.5998 20.6747 77.1811 20.5202L72.9676 26.0711C72.9563 26.3551 72.9436 26.592 72.9325 26.8004C72.8965 27.473 72.8774 27.8294 72.9683 27.9576C73.0492 28.0717 73.3772 28.068 74.0745 28.0603L74.3269 28.0577C74.6454 27.9658 74.9727 27.9013 75.3022 27.8618C75.6559 27.8195 76.0174 27.8058 76.378 27.8178C76.7521 27.8301 77.1243 27.8696 77.484 27.9325C77.8432 27.9952 78.1956 28.082 78.5303 28.1888C80.6121 28.3503 82.5407 28.6505 84.352 29.0747C86.1719 29.5009 87.8755 30.0534 89.4985 30.7172H89.4987ZM93.9096 33.5161C92.4356 32.6493 90.9097 31.8779 89.2926 31.2165C87.6997 30.565 86.0238 30.0219 84.229 29.6016C82.4346 29.1814 80.5229 28.8847 78.4581 28.7259L78.4258 28.7235L78.3943 28.7132C78.0769 28.6103 77.7387 28.5266 77.3908 28.4658C77.0484 28.4059 76.7016 28.3686 76.3612 28.3574C76.033 28.3466 75.6988 28.3597 75.3661 28.3995C75.0513 28.4371 74.7418 28.4987 74.4448 28.5865L74.4102 28.5968L74.0789 28.6C73.1886 28.6098 72.7696 28.6146 72.5244 28.2688C72.3259 27.9888 72.3484 27.5678 72.391 26.7731C72.4037 26.5349 72.4185 26.2607 72.4295 25.9658L72.4328 25.8796L76.0012 21.1784L72.5098 21.5199C71.7338 21.6271 70.9295 21.7044 70.1326 21.7657C69.353 21.8255 68.5519 21.8715 67.7941 21.9148C67.1362 21.9524 66.509 21.9884 65.9084 22.0325C65.3266 22.0753 64.7973 22.1244 64.3424 22.1879L64.3239 22.1906L64.2999 22.1901C63.9272 22.1828 63.554 22.1761 63.1802 22.1714C62.8018 22.1667 62.4176 22.164 62.0243 22.1645C61.373 22.1653 60.7124 22.1601 60.0477 22.1548C58.2714 22.1407 56.4641 22.1264 54.7454 22.2292C53.9828 22.2749 53.2174 22.3437 52.4508 22.4358C51.6819 22.5281 50.9244 22.6419 50.1796 22.777L50.1607 22.7804L49.1323 22.8427L48.2326 22.8952L46.9788 22.9647L46.7824 22.8505C45.2353 21.9512 44.5691 21.5641 42.8633 20.9615C42.5565 20.8531 42.2478 20.744 41.9582 20.6514C41.6655 20.5578 41.369 20.473 41.0674 20.4068C40.7152 20.3296 40.3539 20.264 39.9853 20.2074C39.6062 20.1491 39.2297 20.1011 38.8547 20.0603C38.4991 20.0215 38.1424 19.9892 37.7846 19.9602C37.422 19.931 37.0854 19.9072 36.7523 19.8844H36.6525L36.6471 19.8834C35.1188 19.8508 33.5882 19.7471 32.0672 19.644L32.0615 19.6437C28.2487 19.3853 27.7887 19.1331 25.3452 17.7931C25.0291 17.6197 24.6807 17.4287 24.3139 17.2309C24.3029 17.8675 24.2899 18.4995 24.2769 19.1319C24.2451 20.6778 24.2131 22.2269 24.2131 23.8379L24.2121 23.8401C24.2057 24.5136 24.2169 25.0994 24.2463 25.6385C24.2754 26.17 24.3228 26.6534 24.3894 27.1293C24.529 28.1289 24.7003 28.9152 24.9345 29.676C25.1698 30.4399 25.47 31.1829 25.8667 32.092L25.9238 32.2059L26.2452 32.7847L26.2534 32.8109C26.3651 33.1671 26.525 33.5177 26.7183 33.8504C26.9242 34.2048 27.1692 34.5403 27.4354 34.842L27.5679 34.9921L23.1121 42.1618C22.3217 43.8589 21.5322 45.5568 20.7429 47.2544L20.524 47.7251L19.1357 51.8435L19.0699 52.354L18.9437 52.4189C17.981 52.9148 17.1009 53.2926 16.2452 53.5709C15.3856 53.8504 14.5511 54.0297 13.6829 54.1274C12.6291 54.2461 11.4899 54.2528 10.1758 54.1785C8.86578 54.1044 7.38908 53.9503 5.65211 53.7466L3.43385 53.4864L3.54043 55.7165C3.6106 57.1866 3.5188 58.6949 3.42628 60.2173C3.33441 61.7284 3.24161 63.254 3.307 64.75C3.31463 64.9239 3.32834 65.1023 3.34669 65.2809C3.36667 65.4749 3.39145 65.6631 3.41943 65.8419C3.43942 65.9698 3.46269 66.0972 3.48882 66.2238C3.5148 66.3497 3.54343 66.4725 3.57441 66.5919C3.76929 67.3424 4.07775 68.0714 4.45674 68.7421C4.86486 69.4643 5.35357 70.1158 5.86948 70.6515C6.36362 71.1645 6.90508 71.5874 7.46111 71.8939C7.99822 72.1899 8.55011 72.3784 9.08651 72.4353L9.14911 72.442L9.36156 72.6202C9.58593 73.0586 9.8512 73.4705 10.1524 73.8479C10.4513 74.2222 10.7869 74.5646 11.1548 74.8675C11.5987 75.233 12.0892 75.5408 12.6187 75.7787C13.1303 76.0085 13.68 76.1736 14.2611 76.2629C14.3275 76.273 14.4159 76.3023 14.4815 76.3193L15.4033 80.0825L49.3583 63.4265L49.3568 63.4233L49.6729 63.2685H49.6802L100.712 38.2361L98.2158 36.3887C96.8082 35.3469 95.3864 34.3846 93.9099 33.5163L93.9096 33.5161Z" fill="#0F0F0F"/>
<path fill-rule="evenodd" clip-rule="evenodd" d="M0.62319 77.9133C9.97409 84.2243 19.5269 89.9687 29.3371 93.9206C39.0796 97.8453 48.7847 100.532 57.9857 102.081C73.2239 104.647 86.1539 105.295 101.159 104.049C102.641 103.926 114.184 102.548 115.535 101.867C115.142 100.458 115.162 93.9238 115.009 92.0398C114.125 81.2327 113.189 73.897 110.185 62.6728C107.349 52.0709 104.224 43.4392 99.592 33.3092C98.9873 31.9869 95.1143 24.3326 94.4761 23.5576C92.5357 23.8193 90.532 24.3493 88.4849 24.761C84.1326 25.6366 78.566 26.6657 74.3275 28.0093L84.8228 30.219L84.5999 31.6405L12.1398 75.846L5.90778 72.3825C3.23993 75.0643 1.17258 77.1985 0.623047 77.9133H0.62319Z" fill="#CDA97A"/>
<path fill-rule="evenodd" clip-rule="evenodd" d="M7.63679 77.322C9.00034 78.5467 18.4177 84.2085 20.5042 85.3734C36.1571 94.1128 56.3446 99.4076 73.7865 100.562L91.5446 100.979L101.3 100.348C102.534 100.235 110.244 99.1815 111.023 98.8769C110.804 96.7206 110.818 92.1564 110.613 90.1807L109.729 81.3472C108.121 68.1051 102.398 49.3116 96.7182 37.287C95.3502 34.3907 93.5769 31.4034 92.2806 28.5549C91.152 28.5834 83.2101 30.4299 81.6651 30.8448C58.0861 37.1773 35.7707 51.0328 17.835 67.2126C14.2397 70.4558 11.052 73.9087 7.63672 77.3221L7.63679 77.322Z" fill="#0F0F0F"/>
<mask id="mask1_1_16308" style="mask-type:luminance" maskUnits="userSpaceOnUse" x="7" y="28" width="105" height="73">
<path d="M7.63679 77.322C9.00034 78.5467 18.4177 84.2085 20.5042 85.3734C36.1571 94.1128 56.3446 99.4076 73.7865 100.562L91.5446 100.979L101.3 100.348C102.534 100.235 110.244 99.1815 111.023 98.8769C110.804 96.7206 110.818 92.1564 110.613 90.1807L109.729 81.3472C108.121 68.1051 102.398 49.3116 96.7182 37.287C95.3502 34.3907 93.5769 31.4034 92.2806 28.5549C91.152 28.5834 83.2101 30.4299 81.6651 30.8448C58.0861 37.1773 35.7707 51.0328 17.835 67.2126C14.2397 70.4558 11.052 73.9087 7.63672 77.3221L7.63679 77.322Z" fill="white"/>
</mask>
<g mask="url(#mask1_1_16308)">
<path fill-rule="evenodd" clip-rule="evenodd" d="M32.6489 104.365L39.4125 104.946L52.8563 105.345L60.5336 107.045L63.2873 106.493C75.19 105.173 87.1478 104.319 99.1345 104.242L105.154 96.915L105.543 94.0173L108.698 89.0371C110.449 84.8754 112.2 80.7139 113.951 76.5523L116.634 67.0151C116.13 63.2432 115.625 59.4714 115.121 55.6997C113.923 53.7567 112.726 51.8139 111.528 49.871C97.2352 38.4184 91.0306 29.1328 70.6271 30.6444C70.4319 29.7593 70.2366 28.8743 70.0414 27.9892C70.0239 26.5503 70.0111 25.4957 69.9936 24.0568C66.2689 24.2564 63.178 23.9191 59.4533 24.1187C55.3014 24.3248 50.5111 24.6836 46.3591 24.8896C45.6623 24.3578 44.9654 23.826 44.2687 23.2942C38.4547 22.7941 32.6405 22.2941 26.8266 21.7939C26.5869 22.4809 26.3473 23.1679 26.1077 23.8549C26.3834 25.0169 26.6592 26.179 26.9348 27.341C27.9932 29.7238 29.0515 32.1065 30.1099 34.4893C28.3395 37.338 26.569 40.1867 24.7986 43.0355C23.96 44.8383 23.1214 46.6411 22.2827 48.4438C21.8523 49.7209 21.4218 50.998 20.9913 52.275C20.9362 52.7023 20.8811 53.1296 20.826 53.5569C20.1398 54.1636 19.4537 54.7704 18.7675 55.3771C16.7683 55.7843 14.7692 56.1916 12.7699 56.5988C10.5163 56.4187 8.26274 56.2386 6.00914 56.0584C5.9631 58.2909 5.91712 60.5235 5.87108 62.756C5.77671 63.6023 5.68226 64.4486 5.58789 65.295C5.86244 66.1861 6.13692 67.0773 6.4114 67.9684C7.39682 68.7598 8.38217 69.5513 9.36766 70.3427C9.85473 70.6499 10.3418 70.9571 10.8289 71.2642C11.2553 71.795 11.6817 72.3258 12.1081 72.8566C12.9558 73.3747 13.8033 73.8928 14.6509 74.4109C15.119 74.5317 15.5869 74.6525 16.055 74.7733L17.9894 82.67L21.0446 92.6479L25.1831 97.2988L31.5338 104.34L32.6489 104.365V104.365Z" fill="#0F0F0F"/>
<path fill-rule="evenodd" clip-rule="evenodd" d="M95.5495 65.9733C93.5633 65.1152 92.659 63.8984 92.1141 61.3494C91.4527 58.2557 89.993 57.0691 89.6339 55.7621C92.1725 56.906 95.4388 62.485 95.5495 65.9733V65.9733ZM93.7327 49.8391C93.9922 50.0199 94.6733 50.6298 94.8924 50.7295L94.15 51.3239C93.731 50.5861 85.4905 46.207 83.142 44.5308C81.381 43.2738 79.5408 42.2971 77.2842 41.4407C73.8791 40.1484 73.0991 41.4337 71.0597 42.8573C73.085 42.5852 75.4844 42.2334 77.0959 43.5315C75.1103 43.8643 72.0861 44.3383 70.8221 45.4096C72.2091 46.3594 74.7074 46.9018 75.5883 48.1413L73.0581 47.8688C73.5723 48.7325 74.0699 49.0596 74.7531 49.7742C75.8524 50.924 75.881 51.2937 76.2989 51.7613C75.0323 50.7776 73.0288 49.1581 71.0624 48.6122C72.7358 51.6655 72.5799 50.4928 74.3226 54.7766L76.834 62.0895C77.2728 59.5193 77.0937 58.3379 77.0589 55.7381C78.0319 56.9157 77.905 58.2401 81.6497 62.2284C82.7421 63.392 84.0819 64.5816 84.2851 66.3694C83.4396 65.2981 82.6532 64.7687 81.7874 63.9505C80.8132 63.0297 81.2424 63.1446 80.6408 62.6132C80.2928 62.3057 79.6279 61.962 79.1223 61.6369C79.7752 64.322 81.9566 66.0161 82.6836 67.1754L79.6116 66.0183C80.2951 67.1231 81.9878 70.095 82.2113 71.6087C81.4308 71.0081 80.5528 69.8563 79.7903 68.9669C79.8884 72.5829 79.95 74.8169 78.7982 78.1068C77.9573 80.5088 76.869 84.1214 77.1672 86.8613L79.0983 81.6665L78.9598 88.1407C79.5631 87.6119 81.3737 84.1477 81.5135 83.2771C81.6428 85.9088 80.2668 92.3604 81.0094 94.6163C81.3002 94.1761 81.5287 93.5423 81.8293 92.9862C82.1854 92.3274 82.4187 91.9699 82.8715 91.3151C85.6092 87.3564 86.7021 85.0531 87.3594 79.9397C87.7476 82.1066 87.8407 83.0336 87.7179 85.3372C88.4963 84.1659 88.9095 82.7752 89.5645 81.6984L89.6228 83.8919C91.735 81.0535 93.0647 77.94 93.3069 74.0878C93.5853 69.6628 92.5273 66.4725 91.1188 62.9436C91.2963 63.3551 91.6244 63.646 91.9018 64.0553C95.8042 69.8127 94.709 68.8508 96.775 74.8941C97.987 69.5408 98.503 67.3913 96.3787 61.0773C95.9733 59.8722 94.8801 57.9783 94.7027 57.0112C96.602 58.0925 98.5974 61.6693 99.8926 63.3644C101.68 65.7031 103.006 66.1163 104.417 69.0345L105.073 69.9489C105.777 68.9175 106.237 69.0395 107.093 68.0546C107.177 65.1904 105.494 62.994 104.595 60.9926C106.04 61.0125 108.251 62.0121 108.698 62.769C106.979 58.923 104.217 52.9233 100.869 50.4371C102.321 50.8238 104.795 51.8029 105.772 52.5402C105.464 52.0102 105.408 51.8987 104.969 51.4635C104.051 50.5537 104.165 50.3247 103.431 49.6598C101.627 48.0277 102.064 48.0311 99.0882 45.8875C94.8375 42.8261 88.3198 39.0726 82.2618 40.418L86.4654 43.9313C87.8726 45.4913 88.8036 46.2656 90.5905 47.6924C91.3355 48.2872 92.7792 49.5592 93.7327 49.8388L93.7327 49.8391Z" fill="#3D3533"/>
<path fill-rule="evenodd" clip-rule="evenodd" d="M36.1136 56.0126L35.2266 56.0748C33.9965 56.5873 34.0516 57.8988 33.9987 58.8137C32.5982 57.9167 29.7072 55.5716 29.4727 53.2814C30.3162 53.3063 32.4022 53.5649 33.0291 53.2875C33.5742 53.0462 33.9872 52.0246 34.5363 51.2272L34.7489 50.9363C34.8988 51.6683 35.0735 52.3264 35.5379 52.8652C36.1073 52.4609 35.9724 52.4754 36.3444 52.0241C38.7496 49.1055 43.1086 50.85 45.0003 51.2467C44.5765 52.4199 43.0445 54.5947 42.3655 55.3212C39.4673 58.4222 39.1565 56.7283 36.1136 56.0126H36.1136ZM35.0445 49.6266C35.6103 48.2955 37.1793 47.0965 38.7296 46.515C40.8476 45.7208 42.2852 45.9664 44.5216 46.2646C43.2924 47.1036 41.1258 47.2911 39.5176 47.7148C37.4214 48.2669 36.7001 48.8811 35.0445 49.6266ZM44.4006 39.093C43.4225 39.6405 42.7506 40.021 41.9218 40.5436C40.5178 41.4291 40.9576 41.7882 39.9681 42.5552C38.5465 43.6572 36.1449 44.431 35.0428 45.3414C34.6982 46.5116 35.672 45.9329 34.4823 47.0421C32.4302 48.9556 32.2768 51.1694 31.1576 51.4722C29.6571 51.4641 29.8642 50.7339 28.8597 50.0865L27.31 50.7892C26.431 51.3541 25.5647 51.688 24.6913 52.2695C23.9213 52.7822 22.9852 53.1363 22.2484 53.7362C21.4295 54.3546 25.2067 54.3118 27.1394 55.4492L27.6711 55.8266C25.3425 55.8456 24.5062 55.9746 22.4429 56.6675C20.7783 57.2265 19.0042 57.1452 17.2051 57.5115C17.6922 58.0063 19.9981 59.8634 20.8748 60.0435C19.2724 60.253 19.1529 60.3095 17.4942 60.1466C17.8138 61.3049 18.1609 62.2396 18.6519 63.2596C20.4836 67.0658 20.1802 63.5462 27.3735 66.6351C27.0861 65.3293 26.2694 65.1019 25.3114 64.5511C29.3228 64.4465 28.0979 66.3419 32.5544 66.5443C32.2911 64.0151 31.6246 64.1886 30.0062 63.2065C33.1882 62.5939 33.6737 63.4789 35.5587 64.497C36.3638 64.9319 37.2554 65.0441 38.1633 65.4277C39.0507 65.8025 39.6709 66.1398 40.4902 66.5544C40.3287 65.4119 38.9466 63.4783 38.3325 63.1641C41.9545 64.4164 44.3401 64.8766 46.1901 68.2443C46.7146 69.199 46.9608 70.6036 47.6355 71.4572L47.7984 71.1406C48.1506 70.2407 47.7222 71.4876 47.9246 70.8189C48.573 68.6782 47.9418 67.4809 46.8651 66.2033C48.1858 66.2833 48.9713 66.9097 49.5551 67.5977C49.9284 68.0376 51.0666 69.5006 51.3194 70.0348C51.859 66.7242 50.2649 65.304 49.5236 64.0061L51.8328 64.8143C51.5295 64.168 51.8468 64.7201 51.3787 64.1144C50.3836 62.8267 48.2049 60.8384 46.6684 60.4849L49.5025 60.2569C47.7597 58.8115 46.3213 59.0205 43.883 58.3382C46.1853 57.7859 47.436 58.1185 49.5336 58.502C47.3519 56.7314 45.7449 57.3057 42.7408 57.1302C43.8648 56.438 49.1427 53.5919 49.7962 52.9584C50.1054 52.6586 50.1265 52.5282 50.5045 52.1851C50.5168 53.479 49.8648 54.2475 49.3273 54.9167L54.0597 54.1245C53.1185 55.1198 52.2903 55.3078 51.2361 56.2129C52.0192 56.8268 53.614 57.3073 54.6289 57.9599C55.7302 58.668 56.6609 59.7123 57.6799 60.3356L56.2053 60.4351C58.4671 63.5393 59.709 66.7802 60.1988 67.3074L59.8168 64.5075C60.2847 64.798 59.9323 64.4836 60.3457 64.9562L61.3007 66.5043C62.5272 68.8334 62.7123 72.1659 63.5391 74.8977C64.7602 70.729 63.8541 62.1887 61.1098 58.5733C60.4104 57.6518 58.8048 55.7463 57.7084 55.4846C59.8596 55.3758 61.6873 57.3377 62.9236 58.8541C64.4319 60.7039 64.9682 61.7322 65.9093 64.5012C66.5746 61.5133 66.0055 58.3395 64.6819 56.058C64.3588 55.5009 63.9939 55.0129 63.6683 54.5714C62.7021 53.2605 60.9669 51.9155 59.1197 51.2775C60.4235 51.1257 61.7645 51.2498 62.7658 51.8025C58.1217 48.9906 60.1648 50.5717 57.1882 49.1803C57.4534 49.1347 57.9678 49.0786 58.145 49.0368C58.2406 49.0142 58.4326 48.9623 58.4948 48.9406C58.8762 48.8074 58.7759 48.8601 59.0076 48.6937C56.9393 48.0907 55.6929 47.2168 52.4602 47.6941C49.9818 48.0602 48.882 48.7713 47.1222 49.7316C49.9115 47.1801 50.6852 45.8614 55.6801 45.4799C54.5269 45.544 52.1451 44.0036 51.5698 43.3498C50.3938 42.0134 50.1263 40.8657 49.6719 38.8119C48.9251 38.9814 48.6562 39.2731 47.9567 39.6486L49.074 37.1128C48.9419 37.0831 48.9356 37.2748 48.4575 36.934L47.5324 36.8821C47.5574 36.9031 48.5369 36.8664 46.3553 38.0893C44.042 39.386 46.0121 38.9317 44.4003 39.0932L44.4006 39.093Z" fill="#3D3636"/>
<path fill-rule="evenodd" clip-rule="evenodd" d="M114.038 81.6651C110.772 81.5267 107.444 82.2258 104.586 83.8377C100.02 86.412 100.466 87.9 99.2695 88.5249C104.089 89.4544 106.722 90.9185 111.647 88.8052C114.668 87.509 117.715 84.624 119.796 82.2005L114.038 81.665V81.6651Z" fill="#498A34"/>
<path fill-rule="evenodd" clip-rule="evenodd" d="M60.5343 107.045C60.6723 102.041 58.9884 98.0945 56.8605 94.8204C56.2879 93.9397 55.8669 93.42 55.2292 92.5109C53.2244 89.6529 51.8942 88.4503 49.5293 86.1992C50.6509 90.0299 48.9056 93.2349 52.5086 99.151C54.5634 102.525 60.0439 106.396 60.5344 107.045H60.5343Z" fill="#4B8C3A"/>
<path fill-rule="evenodd" clip-rule="evenodd" d="M39.9459 33.1902C39.0145 33.4807 39.0101 33.6763 38.5007 34.2111C38.6763 34.1606 39.0567 34.0415 39.1422 34.0379C39.7038 34.0139 39.4471 33.9941 39.7128 34.191C39.0076 35.1231 38.2349 35.1692 37.5281 36.1744C36.0808 38.2326 35.7517 40.3466 32.1105 42.6086C29.0371 44.5179 29.9088 43.688 27.8705 46.503C26.0855 48.9682 24.1247 49.5999 23.3301 50.5721C23.1825 50.7526 23.3582 51.0312 24.009 51.6185L24.268 51.987C25.1504 51.8625 28.4556 49.9641 28.8051 49.3004C29.7165 48.7614 30.6398 47.2597 31.3119 46.3864C32.4977 44.8458 33.8754 43.7698 35.3809 42.5515C36.2148 41.8767 37.316 40.143 38.0583 39.8425C39.4613 39.2747 39.6785 40.1351 41.2494 37.7872C42.1094 36.5019 42.6617 36.1208 43.2567 34.4033C43.8379 32.7252 44.0919 32.0072 45.0628 30.7977C45.5051 30.2465 45.8653 29.8882 46.3554 29.3823C46.5946 29.1354 46.7254 28.9849 46.9702 28.7483L47.8025 28.1579C48.9078 26.5797 53.463 24.6105 54.2217 24.7453C52.1545 24.8242 47.5978 26.6071 45.7264 27.5292C43.3333 28.7084 43.9042 28.1757 42.7598 30.3725C42.1911 31.4644 40.8896 32.442 39.946 33.1903L39.9459 33.1902Z" fill="#3D3636"/>
<path fill-rule="evenodd" clip-rule="evenodd" d="M20.379 95.3442C31.1034 101.853 27.3561 100.792 39.782 99.6039C38.596 98.1205 38.2088 90.2592 34.4496 88.3723C35.3912 90.8984 35.5616 93.282 36.153 95.2079C31.3704 92.7858 25.3597 94.5933 20.3789 95.3441L20.379 95.3442Z" fill="#4B8C3A"/>
<path fill-rule="evenodd" clip-rule="evenodd" d="M85.0029 99.8854C85.8177 99.5006 88.0766 96.7561 88.8569 95.8074C89.5011 95.0242 90.0389 94.3975 90.7405 93.741L92.7893 91.6313C93.8833 90.6273 95.0329 88.3944 95.7589 86.6874C96.6039 84.7005 97.0465 82.2783 96.9788 79.9504C93.711 85.8141 92.6691 84.4959 89.1968 88.0574C86.256 91.0737 84.8699 94.1529 85.0029 99.8854Z" fill="#4B8C3A"/>
<path fill-rule="evenodd" clip-rule="evenodd" d="M63.2871 106.493L69.8039 101.341C73.4587 97.8107 75.4147 94.0776 76.4926 88.105C76.4398 88.1397 76.3623 88.1289 76.3358 88.2118L72.1442 91.6234C67.5704 96.019 65.2121 99.3575 63.2871 106.493Z" fill="#468A35"/>
<path fill-rule="evenodd" clip-rule="evenodd" d="M48.0137 29.6898C46.7013 32.1197 45.1879 30.6543 43.5195 36.4766L44.2033 37.0024L44.9071 36.8014C44.5773 36.498 45.4773 36.2209 43.8066 36.3719C44.9392 35.8577 45.4236 34.877 46.076 34.3017C47.2624 33.2559 48.854 31.3756 50.2892 30.9658L48.661 34.6304C49.5834 34.2872 51.0103 32.8649 51.9072 32.2075L58.8762 27.95C59.7412 27.4925 61.989 26.7357 62.3555 25.9957C57.1284 25.6889 56.8587 26.2998 54.3111 26.2549C54.2928 26.1882 54.6066 26.0738 54.1014 25.7502C51.0813 26.2491 49.515 28.9673 48.0137 29.6897L48.0137 29.6898Z" fill="#443734"/>
<path fill-rule="evenodd" clip-rule="evenodd" d="M42.3655 55.3213C43.0444 54.5948 44.5764 52.42 45.0003 51.2467C43.1086 50.85 38.7495 49.1055 36.3444 52.0241C35.9724 52.4755 36.1073 52.461 35.5379 52.8653C35.0734 52.3264 34.8987 51.6684 34.7489 50.9363L34.5362 51.2273C33.9871 52.0246 33.5742 53.0462 33.0291 53.2875C32.4022 53.5649 30.3162 53.3064 29.4727 53.2815C29.7072 55.5717 32.5982 57.9168 33.9986 58.8138C34.0515 57.8987 33.9965 56.5873 35.2266 56.0748C38.7383 55.8286 38.9762 58.9476 42.3654 55.3213H42.3655Z" fill="#0F0F0F"/>
<path fill-rule="evenodd" clip-rule="evenodd" d="M43.9542 87.9927C42.1117 81.3673 33.5008 74.7851 26.623 75.5653C27.2482 76.201 36.6755 79.2899 43.9542 87.9927Z" fill="#4A8535"/>
<path fill-rule="evenodd" clip-rule="evenodd" d="M39.9456 33.1902C40.8892 32.442 42.1907 31.4642 42.7594 30.3724C43.9038 28.1755 43.3329 28.7083 45.726 27.5291C47.5974 26.607 52.1541 24.8241 54.2213 24.7453C53.4627 24.6104 48.9074 26.5796 47.8021 28.1578L46.9698 28.7482C46.725 28.9848 46.5941 29.1353 46.355 29.3822C45.865 29.8881 45.5047 30.2464 45.0624 30.7976C44.0915 32.0071 43.8375 32.7252 43.2563 34.4032C42.6613 36.1207 42.109 36.5018 41.249 37.7871C39.6781 40.135 39.4609 39.2746 38.0579 39.8425C37.3156 40.1429 36.2144 41.8766 35.3805 42.5515C33.875 43.7697 32.4973 44.8457 31.3115 46.3863C28.5883 49.9245 28.1566 49.8291 24.0086 51.6184C23.1694 52.0729 22.5065 52.4973 21.7236 53.0377C15.9269 56.4831 13.0805 56.5245 5.43577 55.6278C5.50723 57.1241 5.09819 60.1141 5.62024 61.6061C6.07097 62.8948 7.66453 66.0566 8.72697 66.5498C8.24283 63.9773 5.9696 63.1537 6.12544 60.0902C6.19133 58.7954 6.43997 57.2823 6.48987 56.6095C7.76297 56.7717 9.0203 57.2268 10.2043 57.1547L17.4951 60.1466C19.1537 60.3096 19.2733 60.2531 20.8757 60.0435C19.999 59.8635 17.6931 58.0064 17.206 57.5116C19.005 57.1452 20.7791 57.2265 22.4438 56.6675C24.5071 55.9747 25.3434 55.8456 27.672 55.8267L27.1403 55.4492C25.2075 54.3118 21.4303 54.3546 22.2493 53.7362C22.986 53.1362 23.9221 52.7823 24.6922 52.2695C25.5657 51.6881 26.4319 51.3541 27.3109 50.7892L28.8606 50.0865C29.8651 50.7339 29.658 51.4641 31.1585 51.4722C32.2776 51.1694 32.431 48.9556 34.4832 47.0422C35.6729 45.9328 34.6991 46.5116 35.0437 45.3414C36.1458 44.4311 38.5475 43.6572 39.969 42.5552C40.9585 41.7882 40.5187 41.4291 41.9227 40.5437C42.7515 40.021 43.4234 39.6405 44.4015 39.093C46.0132 38.9315 44.0431 39.3858 46.3565 38.0891C48.538 36.8662 47.5585 36.9029 47.5336 36.882L45.1723 37.7099L45.2117 37.9496C43.6989 38.4022 42.4086 39.3413 40.8152 39.599L42.3447 38.0641C43.454 37.2439 43.3182 37.1004 44.2033 37.0022L43.5196 36.4763C45.188 30.654 46.7014 32.1194 48.0138 29.6896C49.5151 28.9672 51.0814 26.2489 54.1015 25.7501C54.7623 25.3365 58.5188 24.3201 59.4534 24.1188C49.3562 23.5207 39.6214 26.8072 32.6569 34.1494C29.3417 37.6443 25.0236 43.275 24.4411 45.9464C25.3132 45.4506 25.7032 43.9214 26.9884 41.8822C27.0205 41.8313 27.115 41.6807 27.1413 41.6326C27.3375 41.2738 27.2389 41.4275 27.3019 41.268C27.4459 41.4483 27.5954 41.3626 27.2257 42.2935C26.2501 44.7502 26.5023 45.6035 26.1094 46.3907C25.8668 46.8768 24.0553 49.0615 23.2867 50.6606C25.4008 49.3946 26.4034 48.5289 27.8704 46.503C29.9087 43.688 29.037 44.5179 32.1104 42.6086C35.7516 40.3466 36.0807 38.2326 37.528 36.1744C38.2348 35.1693 39.0075 35.1231 39.7127 34.191C39.447 33.994 39.7037 34.0138 39.1421 34.0379C39.0565 34.0415 38.6762 34.1606 38.5006 34.2111C39.01 33.6763 39.0144 33.4807 39.9458 33.1902L39.9456 33.1902ZM33.516 34.8536C34.2305 35.1947 33.6578 36.8543 33.2336 37.2971C32.8357 37.7123 32.0515 38.3824 31.5043 38.7627C31.366 39.4077 31.1545 40.0543 30.9554 40.6334C30.6479 41.5282 30.6839 41.5424 29.891 41.8954L30.0781 40.3508C30.2805 39.5315 30.6437 38.7458 31.2769 38.4146L33.516 34.8536H33.516Z" fill="#D39C65"/>
<path fill-rule="evenodd" clip-rule="evenodd" d="M63.541 96.4381C64.1081 95.5599 65.6949 94.2433 66.6562 93.0173L69.9395 89.4357C70.9603 88.0657 74.5629 82.454 74.9253 80.875C73.4982 81.8373 72.1449 82.4462 70.8239 83.4618C67.334 86.1446 63.9718 92.1349 63.541 96.4381Z" fill="#4B8C3A"/>
<path fill-rule="evenodd" clip-rule="evenodd" d="M72.9348 65.2196C73.5933 59.2431 72.1269 54.948 68.1424 50.9555C66.2916 49.101 66.2851 49.3079 64.3438 48.2036C67.7569 56.597 68.2171 54.6821 70.9658 60.6154L72.8282 65.0818C72.8511 65.1153 72.8966 65.1758 72.9347 65.2196H72.9348Z" fill="#3D3636"/>
<path fill-rule="evenodd" clip-rule="evenodd" d="M52.4235 38.1863C52.7846 40.4424 54.373 41.2942 55.9026 39.7161C56.8973 38.6899 57.5985 36.6677 58.3725 35.3368L63.2761 29.8196C63.7523 29.4763 64.7266 28.5985 64.7399 27.9956C64.9555 27.6313 68.6782 25.5494 69.3689 25.3265L69.3424 27.9897C69.2778 28.0703 69.2518 28.0585 69.1253 28.3677L68.6287 30.387C68.1127 32.6485 67.2196 35.6977 65.7744 37.2909C63.9685 39.2816 64.058 37.255 62.9072 40.8841C62.0939 43.4486 61.3988 43.5757 60.2117 44.6762C60.1846 44.7013 60.1322 44.7537 60.0912 44.7913L61.0403 44.8676C63.3118 44.4776 64.4243 44.61 65.9873 43.3224C67.009 42.4806 68.3023 41.1148 69.0316 39.7158C70.5129 36.8744 71.8323 30.8997 70.5247 28.5624C70.7641 27.5 70.3333 26.1678 70.6494 25.1176C70.8198 24.5517 71.0246 24.4577 71.553 24.1449L72.7714 23.394C69.0012 23.9151 64.6841 23.7553 63.333 24.375C63.2921 24.3937 63.2233 24.4297 63.1719 24.4626L69.085 24.4721C66.0791 25.6844 58.3341 30.4106 55.2893 32.4584C54.0214 33.3112 52.6925 34.8652 52.3223 37.1651L52.4236 38.1863H52.4235Z" fill="#D9A568"/>
<path fill-rule="evenodd" clip-rule="evenodd" d="M11.2604 61.8233L10.752 64.2023C10.9158 65.0337 11.4281 65.2323 12.0969 65.6557C12.6258 65.9906 13.3092 66.4977 14.0953 66.5569C15.9674 66.6978 16.8611 64.7661 16.152 63.3332C15.9792 63.1509 12.2631 61.4221 11.6846 61.2356L11.2604 61.8233Z" fill="#0F0F0F"/>
<path fill-rule="evenodd" clip-rule="evenodd" d="M14.2649 79.875C18.4002 93.0211 21.2293 92.502 32.8969 92.3107C32.3692 82.0907 19.853 79.7442 15.5485 79.7343C14.4231 79.7316 13.8235 79.7663 14.2648 79.8749L14.2649 79.875Z" fill="#56A13B"/>
<path fill-rule="evenodd" clip-rule="evenodd" d="M57.7707 94.9723C57.6558 91.6322 55.4963 86.9379 53.3137 85.0504L50.4141 83.0415C52.7496 85.669 53.6065 88.9731 55.7577 92.1576C56.4172 93.134 57.1671 94.0155 57.7706 94.9722L57.7707 94.9723Z" fill="#45843A"/>
<path fill-rule="evenodd" clip-rule="evenodd" d="M95.5504 65.9734C95.4397 62.4852 92.1734 56.9061 89.6348 55.7622C89.994 57.0691 91.4537 58.2558 92.1149 61.3495C92.6598 63.8985 93.5642 65.1152 95.5504 65.9734V65.9734Z" fill="#0F0F0F"/>
<path fill-rule="evenodd" clip-rule="evenodd" d="M99.8926 84.1444C100.055 83.8369 100.297 83.8029 100.655 83.4855C104.172 80.3664 102.537 79.2285 102.259 76.4133C102.196 75.7748 102.234 75.3109 101.868 74.793C100.499 78.983 99.8867 77.7063 99.8926 84.1444Z" fill="#4A8535"/>
<path fill-rule="evenodd" clip-rule="evenodd" d="M105.074 96.9153L104.754 97.3143C104.444 97.6376 104.683 97.4042 104.326 97.702C101.858 99.5171 101.084 100.257 99.3534 102.738C98.9521 103.313 99.0583 103.27 98.4832 103.593C95.8521 103.334 92.8636 102.419 90.397 102.409C86.9899 102.395 85.6914 103.45 83.0781 104.112C85.5989 108.035 97.8652 104.984 101.277 103.981L101.876 103.766C101.549 103.117 101.945 103.618 101.043 103.248C102.865 102.446 105.065 98.9562 105.626 96.4889L105.58 96.4894C107.593 95.3938 109.522 94.0798 112.005 92.5058C109.787 92.5342 107.139 92.749 104.98 92.3783C100.209 91.5597 95.6857 92.8247 92.8523 94.4959C84.8836 99.1954 94.3626 100.187 98.3452 99.235C101.106 98.575 103.178 97.7526 105.127 96.7313C105.129 96.7812 105.115 96.8417 105.074 96.9152L105.074 96.9153Z" fill="#3B7B34"/>
<path fill-rule="evenodd" clip-rule="evenodd" d="M43.6602 102.4C43.6567 99.5453 43.8459 94.6874 41.7058 92.4067C41.6294 93.5755 41.0781 97.6857 41.1657 98.3734C41.3309 99.6709 43.0106 101.792 43.6602 102.4V102.4Z" fill="#4A853B"/>
<path fill-rule="evenodd" clip-rule="evenodd" d="M38.8811 22.8077C40.0082 22.8894 41.9056 23.1635 42.896 23.4742C43.1911 23.5271 43.3156 23.6017 43.6632 23.5528C44.2462 23.4709 43.9561 23.6628 44.27 23.2944C43.2238 23.2229 41.8552 22.5208 40.6592 22.2585C39.3343 21.9678 37.9884 21.8662 36.6109 21.772C33.6539 21.709 31.1696 21.4333 28.3681 21.3273C27.8459 21.2762 26.6592 20.6219 26.1631 20.3584L26.109 23.8551C26.0856 26.3303 26.3167 27.4709 26.8552 29.7035L27.5905 31.2949L28.0245 32.0778C28.1927 32.8536 28.9202 33.8364 29.6599 34.287C30.1953 34.613 30.9968 34.7584 30.4086 33.7193C29.9217 32.8591 29.3576 32.6553 29.0821 31.0797C29.5499 31.3949 29.6197 31.4633 30.4568 31.3985C30.2908 29.9341 29.3777 29.3027 28.9152 27.9384C28.6409 27.1291 28.8619 27.2163 28.2053 26.7014C27.9689 25.1577 27.5171 24.3216 27.6483 22.4556C28.2914 22.8244 28.0706 22.5962 28.4602 23.3619C28.674 23.7823 28.9389 24.3383 29.0364 24.7981C30.3974 24.8908 30.8163 24.0989 32.9294 23.4965C35.0419 22.8941 36.6281 22.6446 38.881 22.8077L38.8811 22.8077Z" fill="#E5B473"/>
<path fill-rule="evenodd" clip-rule="evenodd" d="M49.4529 94.1315C48.0845 90.4643 47.5019 88.2668 44.3105 86.147C44.8523 88.3355 45.9073 90.9492 47.4101 92.5828C48.3235 93.5756 48.1822 93.4183 49.4529 94.1315Z" fill="#3D3636"/>
<path fill-rule="evenodd" clip-rule="evenodd" d="M72.2324 34.2224C74.5897 33.4362 75.7678 31.6847 78.9316 31.0831C77.9716 30.307 75.8072 29.9134 74.4964 30.5898C73.4458 31.1319 72.4931 32.5454 72.2325 34.2224H72.2324Z" fill="#403635"/>
<path fill-rule="evenodd" clip-rule="evenodd" d="M46.8148 86.6002C47.3314 85.0348 46.1774 82.7623 45.3765 81.5473C44.3568 80.0006 43.2661 79.2645 41.6543 78.262C41.9912 79.161 43.4126 81.4984 44.0514 82.4126C44.9796 83.7415 46.0877 85.1074 46.8148 86.6002Z" fill="#45763A"/>
<path fill-rule="evenodd" clip-rule="evenodd" d="M35.0449 49.6269C36.7006 48.8814 37.4219 48.2673 39.5181 47.7151C41.1263 47.2914 43.2928 47.1039 44.522 46.2649C42.2857 45.9667 40.8481 45.7211 38.73 46.5154C37.1797 47.0968 35.6108 48.2958 35.0449 49.6269Z" fill="#C38B5C"/>
<path fill-rule="evenodd" clip-rule="evenodd" d="M115.833 64.4523C110.914 65.7922 100.344 71.5138 103.88 77.4821L104.788 78.6577L105.718 78.7768C108.386 79.119 112.529 77.861 113.951 76.5522C117.864 72.9512 117.936 69.4119 119.386 64.1322L119.648 63.1329L117.945 63.8452C117.367 60.6699 117.006 58.6349 115.956 55.6995C115.34 53.9786 113.366 50.1289 112.297 49.1382L110.759 50.6033C113.115 54.1205 115.681 59.0182 115.833 64.4522V64.4523Z" fill="#4A8535"/>
<path fill-rule="evenodd" clip-rule="evenodd" d="M70.2406 75.7739C71.4312 72.8146 71.4805 68.7189 69.8026 66.0156C69.2058 69.0245 69.8748 72.7424 70.2406 75.7739Z" fill="#3A3639"/>
<path fill-rule="evenodd" clip-rule="evenodd" d="M74.2482 37.9355C76.9833 38.3648 77.2159 37.9895 79.7462 37.686C81.8553 37.4329 83.2761 37.6013 85.3048 37.6186C82.4787 37.0084 80.1678 36.1931 76.6242 36.8549C75.5755 37.0508 75.1793 37.223 74.3799 37.8297C74.3494 37.8529 74.2914 37.8996 74.248 37.9355H74.2482Z" fill="#3D3836"/>
<path fill-rule="evenodd" clip-rule="evenodd" d="M75.586 78.1135C76.7496 75.7603 76.2739 71.3378 74.8047 69.3804C74.6178 71.9843 74.9617 75.7829 75.586 78.1135Z" fill="#3D3636"/>
<path fill-rule="evenodd" clip-rule="evenodd" d="M80.3946 33.2674C83.5175 33.5457 85.5792 33.2051 88.5429 33.1294C87.6026 32.4721 85.6828 32.149 84.3492 32.0995C82.3005 32.0236 81.7943 32.5551 80.3945 33.2674H80.3946Z" fill="#3C3A3B"/>
<path fill-rule="evenodd" clip-rule="evenodd" d="M9.81384 70.4853C9.33697 69.9374 8.75153 69.7457 8.20064 69.3019C7.79731 68.9768 7.06325 68.1812 6.82917 67.7754C5.75573 65.9149 6.02686 64.9474 5.87124 62.7563C5.72775 62.8535 5.33912 62.6837 5.21941 63.8856C5.1663 64.4183 5.20991 65.0257 5.29265 65.5534C5.74074 68.4119 8.45071 71.0759 9.81384 70.4854V70.4853Z" fill="#B69977"/>
<path fill-rule="evenodd" clip-rule="evenodd" d="M61.3129 80.0246C61.7919 79.3455 61.7928 78.6239 61.6878 77.7171C61.6158 77.0954 61.3138 76.0337 61.1178 75.4136C60.7045 74.1057 59.8079 72.5405 58.9395 71.7744C59.2222 73.0792 59.8675 74.2527 60.2732 75.6084C60.7242 77.1156 61.0032 78.5172 61.3129 80.0246Z" fill="#353234"/>
<path fill-rule="evenodd" clip-rule="evenodd" d="M16.1516 63.333C16.8607 64.7659 15.967 66.6976 14.0949 66.5567C13.3089 66.4975 12.6255 65.9903 12.0966 65.6555C11.4277 65.232 10.9154 65.0335 10.7516 64.202L11.2601 61.8231L11.6843 61.2354C12.2627 61.4219 15.9789 63.1507 16.1516 63.333ZM10.2812 64.1332C10.3746 64.9509 10.4138 65.223 11.8655 66.0671C17.1335 69.1299 17.7667 63.8549 16.7312 63.1088C16.2817 62.3797 16.4966 62.6298 15.7039 62.2361C13.9897 61.385 10.8927 59.2527 10.822 61.7066C10.2059 62.2519 10.3456 63.2029 10.2812 64.1331V64.1332Z" fill="#504E4B"/>
<path fill-rule="evenodd" clip-rule="evenodd" d="M45.2109 37.9499L45.1715 37.7101L44.9459 37.6596C44.6051 37.5614 44.2995 37.5012 44.2025 37.0024C43.3174 37.1006 43.4532 37.2441 42.344 38.0644L40.8145 39.5992C42.4078 39.3415 43.6982 38.4024 45.2109 37.9499Z" fill="#362C2A"/>
<path fill-rule="evenodd" clip-rule="evenodd" d="M37.5019 53.3509C37.5524 53.6326 37.138 53.9552 38.2008 53.8993C39.1917 53.5946 39.083 53.8137 39.0653 52.8044C38.925 52.7193 38.9811 52.4586 38.2525 52.457C37.2466 52.5202 36.4911 53.3543 36.5523 54.1232C36.9221 58.7681 45.6098 52.7208 40.6432 52.5071C40.3723 52.8529 39.0869 54.7358 39.0446 54.9204C38.4521 54.9846 37.8193 54.9724 37.4912 54.6862C37.4252 54.6288 37.1896 54.3024 37.1766 54.1092C37.0843 52.7431 37.0479 53.7203 37.5019 53.3509V53.3509Z" fill="#B9C469"/>
</g>
<path d="M7.8351 77.3145C8.48321 77.8484 10.2246 78.9836 12.2355 80.2419C15.4362 82.2447 19.3187 84.5573 20.5697 85.2557C28.1648 89.4963 36.8298 92.9251 45.7306 95.4624C55.1521 98.148 64.8362 99.8345 73.7941 100.427L91.5383 100.844L101.29 100.214C102.028 100.146 105.059 99.7443 107.557 99.3664C109.101 99.1327 110.435 98.9092 110.877 98.7825C110.772 97.683 110.723 96.0241 110.674 94.3953C110.626 92.7652 110.578 91.1653 110.477 90.1946L109.594 81.3632C108.806 74.879 107.03 67.061 104.756 59.36C102.391 51.3497 99.4868 43.4674 96.5946 37.3444C95.9555 35.9912 95.2231 34.61 94.4929 33.2326C93.6829 31.705 92.8754 30.1818 92.1945 28.6949C91.661 28.7368 90.1986 29.0262 88.5176 29.3887C87.3092 29.6494 85.99 29.9477 84.8214 30.2194L84.2207 30.0818C85.5128 29.7785 87.0611 29.4261 88.4603 29.1243C90.2573 28.7367 91.8131 28.432 92.2765 28.4202L92.3663 28.418L92.4034 28.4996C93.0894 30.0068 93.91 31.5546 94.733 33.1067C95.4625 34.4828 96.1942 35.8627 96.84 37.2301C99.7385 43.3666 102.648 51.2623 105.017 59.2838C107.295 66.9993 109.074 74.8329 109.863 81.3315L110.747 90.167C110.848 91.1443 110.896 92.751 110.945 94.3879C110.995 96.065 111.046 97.7742 111.157 98.8638L111.167 98.9654L111.071 99.0028C110.746 99.13 109.295 99.3771 107.597 99.634C105.1 100.012 102.053 100.415 101.311 100.483C92.5088 101.753 82.5067 100.697 73.7772 100.697C64.7991 100.103 55.0951 98.413 45.6563 95.7225C36.7362 93.1798 28.0511 89.7428 20.437 85.4916C19.1871 84.7938 15.3006 82.4785 12.0912 80.4703C9.94278 79.1261 8.09716 77.9185 7.5452 77.4227L7.43933 77.3275L7.53991 77.2269C8.47243 76.295 9.13833 75.6155 10.0481 74.6845L10.2944 74.8215C9.41195 75.7246 8.73507 76.4137 7.83524 77.3144L7.8351 77.3145Z" fill="#CDA97A"/>
<path fill-rule="evenodd" clip-rule="evenodd" d="M83.323 44.6572C83.2597 44.6136 83.1987 44.5713 83.142 44.5308C81.381 43.2738 79.5408 42.2971 77.2842 41.4408C73.8791 40.1485 73.0991 41.4337 71.0597 42.8573C73.085 42.5852 75.4844 42.2334 77.0959 43.5315C75.1103 43.8644 72.0861 44.3383 70.8221 45.4097C72.2091 46.3594 74.7074 46.9019 75.5883 48.1413L73.0581 47.8689C73.4039 48.4498 73.7421 48.7879 74.1345 49.1645L82.1532 48.2036L83.323 44.6572ZM73.2581 49.5944C72.5485 49.1757 71.8029 48.8179 71.0623 48.6123C71.4629 49.3433 71.7586 49.8317 72.0007 50.2112L74.0705 51.2437L73.258 49.5944H73.2581ZM90.4454 41.1635C87.789 40.2377 84.9792 39.8149 82.2617 40.4185L85.8501 43.4176L89.7539 43.9119L90.4453 41.1635H90.4454Z" fill="#3D3533"/>
<path fill-rule="evenodd" clip-rule="evenodd" d="M36.1136 56.0125L35.2267 56.0747C33.9966 56.5872 34.0516 57.8987 33.9987 58.8136C32.5983 57.9166 29.7074 55.5715 29.4728 53.2813C30.3163 53.3062 32.4024 53.5648 33.0292 53.2874C33.5743 53.0461 33.9872 52.0244 34.5363 51.2271L34.749 50.9362C34.8988 51.6682 35.0736 52.3263 35.538 52.8651C36.1074 52.4608 35.9725 52.4753 36.3445 52.024C38.7496 49.1054 43.1087 50.8499 45.0004 51.2466C44.5765 52.4198 43.0445 54.5946 42.3656 55.3211C39.4674 58.4222 39.1566 56.7282 36.1137 56.0125H36.1136ZM35.0445 49.6265C35.6104 48.2954 37.1793 47.0964 38.7297 46.515C40.8477 45.7207 42.2853 45.9664 44.5216 46.2647C43.2925 47.1035 41.1259 47.291 39.5176 47.7147C37.4215 48.2669 36.7002 48.8811 35.0445 49.6265V49.6265ZM44.4006 39.093C43.4226 39.6405 42.7507 40.0209 41.9218 40.5435C40.5179 41.429 40.9577 41.788 39.9682 42.5552C38.5466 43.6571 36.145 44.431 35.0429 45.3413C34.6982 46.5115 35.672 45.9327 34.4823 47.042C32.4302 48.9555 32.2768 51.1694 31.1577 51.4721C29.6571 51.464 29.8643 50.7338 28.8598 50.0865L27.31 50.7891C26.4311 51.354 25.5648 51.6879 24.6913 52.2695C23.9213 52.7821 22.9852 53.1361 22.2484 53.7362C21.4295 54.3546 25.2067 54.3118 27.1394 55.4491L27.6712 55.8266C25.3425 55.8455 24.5062 55.9746 22.4429 56.6674C20.7783 57.2265 19.0041 57.145 17.2051 57.5114C17.6923 58.0062 19.9981 59.8633 20.8749 60.0434C19.2725 60.2529 19.1529 60.3094 17.4943 60.1465C17.8138 61.3048 18.1609 62.2395 18.6518 63.2595C20.4836 67.0656 20.1801 63.5461 27.3735 66.635C27.0862 65.3292 26.2693 65.1018 25.3114 64.551C29.3228 64.4464 28.0978 66.3418 32.5544 66.5442C32.2911 64.0151 31.6246 64.1885 30.0063 63.2064C33.1881 62.5938 33.6737 63.4789 35.5586 64.4969C36.3638 64.9318 37.2554 65.044 38.1633 65.4276C38.7083 65.6578 39.1525 65.8738 39.604 66.1024L40.1801 66.1709L40.2578 65.7817C39.7996 64.6941 38.8219 63.4145 38.3324 63.1639C39.9409 63.7201 41.3053 64.1201 42.4876 64.6878L46.8797 64.9426L48.7803 61.6011C48.0527 61.0591 47.3054 60.6313 46.6684 60.4848L49.5024 60.2568C47.7597 58.8114 46.3212 59.0204 43.8829 58.3381C46.1852 57.7858 47.4359 58.1184 49.5335 58.502C47.3519 56.7314 45.7449 57.3056 42.7408 57.1301C43.8647 56.4379 49.1426 53.5918 49.7962 52.9583C50.1054 52.6585 50.1265 52.5282 50.5045 52.185C50.5168 53.4789 49.8648 54.2474 49.3274 54.9166L54.0597 54.1245C53.1185 55.1198 52.2903 55.3078 51.2361 56.2128C52.0193 56.8267 53.6141 57.3072 54.629 57.9597C54.8487 58.101 55.0616 58.2557 55.2697 58.4177L58.9639 59.0149L59.2358 56.4723C58.7064 55.9851 58.1635 55.5932 57.7084 55.4845C58.5169 55.4437 59.2798 55.6953 59.9827 56.1059L63.5163 56.3632V54.3725C62.5268 53.1263 60.8738 51.8831 59.1198 51.2774C60.4237 51.1255 61.7647 51.2497 62.7659 51.8023C58.1217 48.9904 60.1648 50.5716 57.1882 49.1801C57.4535 49.1346 57.9678 49.0785 58.1451 49.0366C58.2406 49.014 58.4328 48.9621 58.4949 48.9403C58.8763 48.8071 58.7761 48.8599 59.0077 48.6935C56.9394 48.0904 55.693 47.2165 52.4603 47.6939C49.9818 48.0599 48.882 48.7711 47.1222 49.7313C49.9116 47.1799 50.6852 45.8612 55.6801 45.4797C54.5269 45.5438 52.1451 44.0034 51.5698 43.3496C50.3938 42.0132 50.1263 40.8654 49.6719 38.8116C48.9252 38.9811 48.6562 39.2729 47.9568 39.6484L49.074 37.1126C48.942 37.0828 48.9357 37.2745 48.4575 36.9337L47.5324 36.8818C47.5574 36.9029 48.5368 36.8661 46.3553 38.089C44.042 39.3857 46.012 38.9314 44.4002 39.0929L44.4006 39.093Z" fill="#3D3636"/>
<path fill-rule="evenodd" clip-rule="evenodd" d="M39.9459 33.1902C39.0145 33.4807 39.01 33.6763 38.5007 34.2111C38.6763 34.1606 39.0568 34.0416 39.1422 34.0379C39.7037 34.0139 39.4472 33.9941 39.7128 34.191C39.0076 35.1231 38.2348 35.1692 37.5281 36.1744C36.0808 38.2326 35.7517 40.3466 32.1104 42.6086C29.037 44.5179 29.9088 43.688 27.8705 46.503C26.0855 48.9681 24.1247 49.5999 23.3301 50.572C23.1825 50.7526 23.3583 51.0312 24.009 51.6185L24.2681 51.987C25.1504 51.8625 28.4556 49.9641 28.8052 49.3004C29.7167 48.7613 30.6398 47.2597 31.3119 46.3863C32.4977 44.8457 33.8754 43.7697 35.381 42.5515C36.2148 41.8766 37.316 40.143 38.0584 39.8425C39.4613 39.2747 39.6786 40.135 41.2494 37.7871C42.1093 36.5019 42.6617 36.1207 43.2567 34.4032C43.8379 32.7252 44.0919 32.0072 45.0626 30.7976C45.5051 30.2465 45.8653 29.8882 46.3553 29.3823C46.5945 29.1355 46.7253 28.9849 46.9701 28.7483L47.8024 28.1579C48.9078 26.5797 53.4629 24.6105 54.2216 24.7453C52.1544 24.8242 47.5976 26.6071 45.7263 27.5291C43.3332 28.7084 43.9041 28.1756 42.7597 30.3725C42.1911 31.4644 40.8894 32.442 39.9459 33.1903V33.1902Z" fill="#3D3636"/>
<path fill-rule="evenodd" clip-rule="evenodd" d="M48.0139 29.6896C46.7013 32.1194 45.188 30.654 43.5195 36.4762L44.2033 37.0021L44.9071 36.8011C44.5773 36.4976 45.4773 36.2207 43.8067 36.3715C44.9393 35.8574 45.4237 34.8766 46.0762 34.3014C47.2625 33.2555 48.8541 31.3753 50.2893 30.9654L48.6611 34.6301C49.5836 34.2868 51.0105 32.8646 51.9074 32.2072L58.8764 27.9497C59.7413 27.4922 61.9891 26.7354 62.3558 25.9954C57.1286 25.6886 56.8589 26.2995 54.3113 26.2546C54.293 26.1878 54.6068 26.0734 54.1016 25.75C51.0815 26.2488 49.5151 28.9671 48.0139 29.6894L48.0139 29.6896Z" fill="#443734"/>
<path fill-rule="evenodd" clip-rule="evenodd" d="M42.3655 55.3213C43.0444 54.5948 44.5764 52.42 45.0003 51.2467C43.1086 50.85 38.7495 49.1055 36.3445 52.0241C35.9724 52.4755 36.1073 52.461 35.5379 52.8653C35.0735 52.3264 34.8987 51.6684 34.7489 50.9363L34.5362 51.2273C33.9871 52.0245 33.5742 53.0462 33.0291 53.2875C32.4023 53.565 30.3162 53.3063 29.4727 53.2815C29.7073 55.5717 32.5982 57.9167 33.9986 58.8138C34.0515 57.8987 33.9965 56.5873 35.2266 56.0748C38.7383 55.8286 38.9762 58.9476 42.3654 55.3213H42.3655Z" fill="#0F0F0F"/>
<path fill-rule="evenodd" clip-rule="evenodd" d="M39.9455 33.1904C40.8891 32.4421 42.1906 31.4643 42.7593 30.3725C43.9036 28.1756 43.3328 28.7084 45.7258 27.5292C47.5972 26.6071 52.154 24.8242 54.2212 24.7454C53.4625 24.6105 48.9072 26.5797 47.802 28.1579L46.9697 28.7483C46.7249 28.9849 46.594 29.1355 46.3549 29.3823C45.8648 29.8882 45.5046 30.2465 45.0622 30.7976C44.0914 32.0072 43.8375 32.7253 43.2562 34.4032C42.6612 36.1208 42.1089 36.5019 41.2489 37.7871C39.6781 40.1351 39.4608 39.2747 38.0579 39.8426C37.3155 40.143 36.2144 41.8767 35.3805 42.5515C33.875 43.7698 32.4972 44.8458 31.3115 46.3863C28.5883 49.9245 28.1566 49.8291 24.0087 51.6185C23.1694 52.073 22.5065 52.4973 21.7237 53.0377C15.9269 56.4831 13.0805 56.5246 5.43579 55.6278C5.50725 57.1242 5.0982 60.1141 5.62018 61.6062C6.07099 62.8949 7.66454 66.0566 8.72699 66.5499C8.24284 63.9775 5.96969 63.1538 6.12545 60.0903C6.19134 58.7954 6.44005 57.2824 6.48988 56.6095C7.76299 56.7717 9.02031 57.2268 10.2043 57.1547L17.4951 60.1467C19.1538 60.3096 19.2733 60.2531 20.8757 60.0436C19.999 59.8635 17.6931 58.0064 17.2059 57.5116C19.0049 57.1452 20.7791 57.2266 22.4437 56.6675C24.507 55.9747 25.3433 55.8457 27.672 55.8268L27.1403 55.4493C25.2075 54.3119 21.4303 54.3547 22.2492 53.7363C22.9859 53.1363 23.922 52.7823 24.6921 52.2696C25.5656 51.6881 26.4318 51.3541 27.3109 50.7892L28.8606 50.0867C29.8651 50.734 29.658 51.4641 31.1585 51.4722C32.2776 51.1695 32.4311 48.9556 34.4831 47.0422C35.6729 45.9328 34.6991 46.5116 35.0437 45.3415C36.1458 44.4312 38.5475 43.6573 39.969 42.5553C40.9585 41.7882 40.5187 41.4291 41.9227 40.5437C42.7515 40.021 43.4234 39.6407 44.4014 39.0931C46.0132 38.9316 44.0431 39.3859 46.3565 38.0892C48.538 36.8664 47.5585 36.9031 47.5336 36.8821L45.1724 37.71L45.2117 37.9498C43.699 38.4023 42.4087 39.3414 40.8152 39.5992L42.3448 38.0643C43.454 37.2441 43.3183 37.1006 44.2033 37.0024L43.5196 36.4765C45.1881 30.6543 46.7013 32.1196 48.0139 29.6898C49.5151 28.9674 51.0815 26.2491 54.1016 25.7504C54.7624 25.3367 58.5189 24.3204 59.4534 24.119C49.3563 23.521 39.6214 26.8074 32.6571 34.1496C29.3419 37.6446 25.0237 43.2752 24.4412 45.9466C25.3132 45.4508 25.7032 43.9216 26.9885 41.8824C27.0205 41.8315 27.1151 41.681 27.1415 41.6329C27.3376 41.2741 27.239 41.4277 27.302 41.2682C27.446 41.4486 27.5955 41.3628 27.2257 42.2938C26.2502 44.7504 26.5023 45.6038 26.1095 46.391C25.8669 46.877 24.0553 49.0618 23.2867 50.6608C25.4008 49.3948 26.4034 48.5292 27.8704 46.5032C29.9087 43.6882 29.037 44.5182 32.1103 42.6089C35.7516 40.3469 36.0807 38.2329 37.528 36.1747C38.2348 35.1696 39.0075 35.1233 39.7127 34.1913C39.4471 33.9942 39.7036 34.0141 39.1422 34.0381C39.0567 34.0418 38.6762 34.1608 38.5006 34.2114C39.0099 33.6766 39.0145 33.481 39.9458 33.1904L39.9455 33.1904ZM33.5159 34.8537C34.2304 35.1948 33.6577 36.8544 33.2334 37.2972C32.8356 37.7124 32.0513 38.3825 31.5041 38.7628C31.3658 39.4078 31.1544 40.0543 30.9553 40.6335C30.6477 41.5283 30.6839 41.5425 29.8908 41.8954L30.0779 40.3508C30.2803 39.5316 30.6437 38.7458 31.2769 38.4146L33.5159 34.8537V34.8537Z" fill="#D39C65"/>
<path fill-rule="evenodd" clip-rule="evenodd" d="M68.8877 51.7388C68.6498 51.476 68.4015 51.2152 68.1424 50.9554C66.2916 49.1009 66.285 49.3078 64.3438 48.2036C65.2169 50.3508 65.8965 51.8224 66.4708 52.9242L68.6276 54.2756L68.8878 51.7387L68.8877 51.7388Z" fill="#3D3636"/>
<path fill-rule="evenodd" clip-rule="evenodd" d="M33.5737 23.3135C33.3899 23.3802 33.1354 23.4375 32.9281 23.4966C30.8148 24.099 30.3961 24.891 29.0352 24.7982C29.3808 27.1921 31.8032 27.7577 33.8709 27.7011C36.1481 27.6389 34.6583 25.5236 40.7625 24.2441C41.5803 24.0727 42.3828 23.9968 42.8947 23.4742C41.9043 23.1634 40.007 22.8893 38.8798 22.8077C37.71 22.723 34.6076 22.7966 33.5737 23.3134V23.3135Z" fill="#423837"/>
<path fill-rule="evenodd" clip-rule="evenodd" d="M52.4218 38.1859C52.7828 40.4419 54.3713 41.2938 55.9011 39.7156C56.8957 38.6894 57.5968 36.6673 58.3708 35.3364L63.2746 29.8191C63.7506 29.4758 64.7249 28.598 64.7382 27.995C64.9538 27.6308 68.6766 25.5489 69.3671 25.326L69.3406 27.9892C69.2761 28.0698 69.25 28.058 69.1236 28.3672L68.627 30.3865C68.111 32.648 67.2179 35.6972 65.7726 37.2904C63.9668 39.2811 64.0563 37.2545 62.9054 40.8836C62.0921 43.4482 61.397 43.5752 60.2099 44.6757C60.1828 44.7008 60.1303 44.7533 60.0894 44.7908L61.0386 44.867C63.31 44.4771 64.4224 44.6095 65.9854 43.3219C67.0072 42.4801 68.3004 41.1143 69.0298 39.7152C70.5111 36.8739 71.8305 30.8992 70.5229 28.5619C70.7622 27.4995 70.3315 26.1673 70.6476 25.1172C70.818 24.5513 71.0228 24.4572 71.5512 24.1444L72.7695 23.3936C68.9994 23.9147 64.6823 23.7548 63.3312 24.3745C63.2903 24.3933 63.2214 24.4292 63.17 24.4622L69.0831 24.4716C66.0773 25.6839 58.3322 30.4101 55.2874 32.4579C54.0195 33.3107 52.6906 34.8647 52.3203 37.1646L52.4217 38.1859H52.4218Z" fill="#D9A568"/>
<path fill-rule="evenodd" clip-rule="evenodd" d="M11.2604 61.8231L10.752 64.2021C10.9158 65.0335 11.4281 65.232 12.0969 65.6555C12.6258 65.9903 13.3093 66.4975 14.0953 66.5567C15.9673 66.6976 16.8611 64.7659 16.152 63.3329C15.9791 63.1506 12.2631 61.4219 11.6846 61.2354L11.2604 61.8231Z" fill="#0F0F0F"/>
<path fill-rule="evenodd" clip-rule="evenodd" d="M38.8811 22.8077C40.0082 22.8894 41.9056 23.1635 42.896 23.4742C43.1911 23.5271 43.3156 23.6017 43.6632 23.5528C44.2463 23.4709 43.9561 23.6628 44.27 23.2944C43.2239 23.2229 41.8552 22.5208 40.6594 22.2585C39.3344 21.9678 37.9884 21.8662 36.611 21.7721C33.654 21.709 31.1697 21.4333 28.3681 21.3273C27.846 21.2762 26.6594 20.6219 26.1631 20.3584L26.109 23.8551C26.0856 26.3303 26.3167 27.4709 26.8552 29.7035L27.5906 31.2949L28.0245 32.0778C28.1928 32.8536 28.9202 33.8365 29.66 34.287C30.1953 34.613 30.9969 34.7584 30.4086 33.7193C29.9219 32.8591 29.3577 32.6554 29.082 31.0797C29.5499 31.3949 29.6196 31.4633 30.4568 31.3985C30.2908 29.9341 29.3777 29.3027 28.9152 27.9384C28.6409 27.1291 28.8619 27.2163 28.2053 26.7014C27.9689 25.1577 27.5171 24.3216 27.6483 22.4556C28.2914 22.8244 28.0706 22.5962 28.4602 23.3618C28.674 23.7823 28.9389 24.3382 29.0364 24.7981C30.3974 24.8908 30.8161 24.0989 32.9294 23.4965C35.0419 22.8941 36.6281 22.6446 38.881 22.8077L38.8811 22.8077Z" fill="#E5B473"/>
<path fill-rule="evenodd" clip-rule="evenodd" d="M72.2305 34.2224C74.5878 33.4362 75.766 31.6848 78.9297 31.0831C77.9697 30.307 75.8052 29.9134 74.4945 30.5898C73.4438 31.1318 72.4912 32.5454 72.2305 34.2224Z" fill="#403635"/>
<path fill-rule="evenodd" clip-rule="evenodd" d="M35.0449 49.6266C36.7006 48.8812 37.4219 48.267 39.518 47.7148C41.1262 47.2911 43.2929 47.1036 44.522 46.2647C42.2857 45.9665 40.8482 45.7209 38.7301 46.5151C37.1797 47.0965 35.6109 48.2955 35.0449 49.6265V49.6266Z" fill="#C38B5C"/>
<path fill-rule="evenodd" clip-rule="evenodd" d="M74.2481 37.9353C76.9832 38.3645 77.2158 37.9892 79.7462 37.6856C81.8551 37.4326 83.2761 37.6011 85.3048 37.6184C82.4787 37.0081 80.1678 36.1928 76.6242 36.8547C75.5755 37.0506 75.1793 37.2228 74.3799 37.8295C74.3494 37.8527 74.2914 37.8994 74.248 37.9353L74.2481 37.9353Z" fill="#3D3836"/>
<path fill-rule="evenodd" clip-rule="evenodd" d="M80.3946 33.2671C83.5175 33.5455 85.5792 33.2049 88.5429 33.1292C87.6026 32.4718 85.6828 32.1487 84.3492 32.0993C82.3005 32.0234 81.7943 32.5549 80.3945 33.2671H80.3946Z" fill="#3C3A3B"/>
<path fill-rule="evenodd" clip-rule="evenodd" d="M16.1516 63.3334C16.8608 64.7663 15.967 66.698 14.0949 66.5571C13.3089 66.4979 12.6255 65.9907 12.0965 65.6559C11.4276 65.2325 10.9154 65.0339 10.7516 64.2025L11.2601 61.8235L11.6843 61.2358C12.2627 61.4224 15.9788 63.1511 16.1516 63.3334ZM10.2812 64.1336C10.3746 64.9513 10.4138 65.2234 11.8655 66.0676C17.1335 69.1304 17.7667 63.8553 16.7312 63.1093C16.2817 62.3801 16.4966 62.6302 15.7039 62.2366C13.9897 61.3855 10.8927 59.2532 10.822 61.7071C10.2059 62.2523 10.3456 63.2034 10.2812 64.1336Z" fill="#504E4B"/>
<path fill-rule="evenodd" clip-rule="evenodd" d="M45.2109 37.9495L45.1716 37.7097L44.9459 37.6591C44.6051 37.561 44.2996 37.5007 44.2025 37.002C43.3174 37.1001 43.4532 37.2436 42.344 38.0639L40.8145 39.5988C42.4078 39.341 43.6982 38.402 45.2109 37.9494V37.9495Z" fill="#362C2A"/>
<path fill-rule="evenodd" clip-rule="evenodd" d="M37.5019 53.3507C37.5525 53.6324 37.138 53.955 38.2007 53.8991C39.1917 53.5944 39.083 53.8135 39.0653 52.8043C38.925 52.7191 38.9811 52.4584 38.2525 52.4568C37.2466 52.5199 36.4911 53.3541 36.5523 54.1229C36.9221 58.7678 45.6098 52.7206 40.6432 52.5068C40.3723 52.8527 39.0869 54.7355 39.0446 54.9201C38.4521 54.9844 37.8193 54.9721 37.4912 54.686C37.4252 54.6285 37.1897 54.3021 37.1766 54.1091C37.0843 52.743 37.0479 53.7201 37.5019 53.3506V53.3507Z" fill="#B9C469"/>
<path fill-rule="evenodd" clip-rule="evenodd" d="M25.9299 69.2833C29.3039 66.1448 29.7076 64.403 27.2381 58.5273C26.1936 62.8201 25.6453 65.0178 21.9151 67.4995C21.4558 67.7562 20.9964 68.0128 20.5371 68.2696C20.6544 69.9734 21.5671 70.6665 22.718 71.7607C23.6813 71.5641 25.1697 69.9903 25.9299 69.2833Z" fill="white"/>
</g>
</svg>
