<svg width="69" height="73" viewBox="0 0 69 73" fill="none" xmlns="http://www.w3.org/2000/svg">
<g clip-path="url(#clip0_1_319)">
<path fill-rule="evenodd" clip-rule="evenodd" d="M16.7953 11.2523C15.5575 12.203 13.0144 15.3414 12.2397 16.5151C11.1492 18.1726 9.40185 21.454 8.68608 23.3261C6.99771 27.7433 6.01669 35.6901 5.8988 41.1423C4.59357 40.873 2.61048 39.2912 1.51998 38.4583L0.357915 37.903C0.328442 37.8987 0.223182 37.8903 0.155816 37.9114C-0.614687 39.8507 1.67577 49.657 2.58521 51.5627C5.81459 58.3148 4.77462 56.4596 9.19133 61.8444C10.2018 63.077 11.966 64.4779 13.5659 65.7568C17.469 68.8741 26.5087 72.9884 31.6791 72.9884C41.1019 72.9884 46.5039 71.8484 54.5584 66.392C61.2824 61.8402 66.6548 53.3969 68.0653 45.4038C68.3179 43.9735 68.2337 43.0774 68.5369 41.7943C68.8821 40.3556 69.2484 39.4048 68.7727 37.7978C67.6948 37.7515 68.5916 37.579 67.5474 38.3152C66.958 38.7359 66.9327 38.8243 66.1201 39.3375C65.198 39.9265 64.3812 40.8478 62.9707 41.1591C62.8065 35.4335 62.4234 34.2808 61.7581 29.5396C60.874 23.2293 55.3331 12.6111 51.7037 11.1429C51.7121 13.3852 50.7732 17.449 48.2049 17.9959C44.7271 18.7321 43.464 15.1058 42.4408 13.1664L34.4369 0.0114746C34.2179 0.238647 34.1969 0.259681 33.9316 0.604646C33.6832 0.928577 33.6201 1.01692 33.3548 1.4292L24.5888 16.4268C23.7383 17.3986 22.2099 18.3535 20.6731 18.0254C19.3721 17.7477 18.6479 16.351 18.13 15.3498C17.2879 13.7344 17.3553 12.7079 16.7953 11.2523Z" fill="#FE0C3B"/>
<path fill-rule="evenodd" clip-rule="evenodd" d="M17.1362 24.5798C12.0122 32.7075 13.1869 35.4798 13.2542 43.0733L9.10279 42.6736C9.13647 46.4808 10.4922 47.5241 11.848 50.124C9.64172 50.145 7.83546 49.4888 9.05647 52.2779C11.3006 57.3935 19.2835 64.2928 24.677 66.0387C32.2263 68.4829 36.904 68.4366 44.4575 65.9588C49.9015 64.175 54.2425 59.7662 57.6192 55.6056C62.7938 49.2321 58.8192 50.1577 57.0761 50.0819C57.716 48.3697 59.7202 46.8973 59.7918 42.7073L55.855 42.8629C55.8214 38.6518 56.1877 35.8626 55.2109 32.0722C54.6298 29.7963 52.8909 25.9975 51.3331 24.5671C49.6447 25.3286 45.5227 29.3167 44.3691 31.05C41.4807 35.3789 43.0723 33.0314 34.4368 33.0272C31.1316 33.0272 29.4601 33.3974 26.5044 33.8602L25.4349 32.5182C23.6287 30.0908 20.0751 24.9752 17.1362 24.5798Z" fill="black"/>
<path fill-rule="evenodd" clip-rule="evenodd" d="M48.9079 46.645C50.6805 52.3285 43.7459 57.2884 40.0955 54.3983C36.062 51.2053 43.3923 44.5794 48.9079 46.645Z" fill="black"/>
<path fill-rule="evenodd" clip-rule="evenodd" d="M20.4033 46.6198C21.4474 45.8121 25.4389 46.1192 27.5693 48.3026C36.0659 57.0234 19.2622 57.6545 19.7212 48.3236C19.7464 47.8146 19.7549 47.7935 19.898 47.3728C20.2096 46.4599 19.7001 47.1583 20.4033 46.6198Z" fill="black"/>
<path fill-rule="evenodd" clip-rule="evenodd" d="M32.0244 59.3583C33.1907 58.1552 36.159 57.7892 36.7695 59.7033C36.7274 60.9401 32.7444 62.0423 32.0244 59.3583Z" fill="black"/>
<path fill-rule="evenodd" clip-rule="evenodd" d="M48.9079 46.645C43.3923 44.5794 36.062 51.2053 40.0955 54.3983C43.7459 57.2884 50.6805 52.3285 48.9079 46.645Z" fill="#FEFEFE"/>
<path fill-rule="evenodd" clip-rule="evenodd" d="M20.4033 46.6198C19.7001 47.1583 20.2096 46.4599 19.898 47.3728C19.7549 47.7935 19.7464 47.8146 19.7212 48.3236C19.2622 57.6545 36.0659 57.0234 27.5693 48.3026C25.4389 46.1192 21.4474 45.8121 20.4033 46.6198Z" fill="#FEFEFE"/>
<path fill-rule="evenodd" clip-rule="evenodd" d="M32.0244 59.3583C32.7444 62.0423 36.7274 60.9401 36.7695 59.7033C36.159 57.7892 33.1907 58.1552 32.0244 59.3583Z" fill="#FCFBFC"/>
<path d="M37.4071 25.1104L34.8076 15.105L32.2082 25.1104L34.8076 35.1159L37.4071 25.1104Z" fill="white"/>
<path d="M29.8691 25.1099L28.6787 18.4004L27.4883 25.1099L28.6787 31.8194L29.8691 25.1099Z" fill="white"/>
<path d="M41.6484 25.1099L40.458 18.4004L39.2676 25.1099L40.458 31.8194L41.6484 25.1099Z" fill="white"/>
</g>
<defs>
<clipPath id="clip0_1_319">
<rect width="69" height="73" fill="white"/>
</clipPath>
</defs>
</svg>
