<svg width="49" height="52" viewBox="0 0 49 52" fill="none" xmlns="http://www.w3.org/2000/svg">
<g style="mix-blend-mode:luminosity" opacity="0.3" clip-path="url(#clip0_1_748)">
<path fill-rule="evenodd" clip-rule="evenodd" d="M11.9271 8.01509C11.048 8.69234 9.24209 10.9279 8.69193 11.764C7.91752 12.9446 6.67668 15.2821 6.16838 16.6156C4.96939 19.7621 4.27272 25.4229 4.189 29.3066C3.2621 29.1148 1.85382 27.988 1.07941 27.3947L0.254171 26.9991C0.233241 26.9961 0.158492 26.9901 0.110652 27.0051C-0.436517 28.3866 1.19004 35.3719 1.83588 36.7294C4.1292 41.5391 3.39067 40.2175 6.52718 44.0533C7.24477 44.9313 8.49758 45.9292 9.63378 46.8402C12.4055 49.0608 18.825 51.9915 22.4967 51.9915C29.1883 51.9915 33.0245 51.1794 38.7443 47.2927C43.5194 44.0503 47.3346 38.0359 48.3362 32.3422C48.5156 31.3233 48.4558 30.6851 48.6711 29.7711C48.9163 28.7462 49.1764 28.0689 48.8386 26.9242C48.0731 26.8912 48.71 26.7684 47.9685 27.2928C47.5499 27.5925 47.5319 27.6554 46.9549 28.021C46.3001 28.4405 45.72 29.0968 44.7183 29.3186C44.6017 25.2401 44.3297 24.419 43.8572 21.0417C43.2293 16.5467 39.2945 8.98302 36.7171 7.93718C36.7231 9.53441 36.0563 12.4292 34.2324 12.8188C31.7627 13.3432 30.8657 10.7601 30.1391 9.37858L24.4552 0.00793457C24.2997 0.169756 24.2847 0.184739 24.0964 0.430468C23.92 0.661213 23.8751 0.724144 23.6867 1.01782L17.4616 11.701C16.8576 12.3933 15.7722 13.0735 14.6809 12.8398C13.757 12.642 13.2427 11.6471 12.8749 10.9339C12.2769 9.78314 12.3248 9.05195 11.9271 8.01509Z" fill="#FE0C3B"/>
<path fill-rule="evenodd" clip-rule="evenodd" d="M12.1692 17.5089C8.5304 23.2985 9.36461 25.2733 9.41245 30.6823L6.46431 30.3976C6.48823 33.1096 7.45101 33.8528 8.41379 35.7048C6.84703 35.7198 5.56433 35.2523 6.43142 37.2391C8.02509 40.8831 13.6941 45.7976 17.5243 47.0412C22.8854 48.7823 26.2072 48.7494 31.5713 46.9843C35.4373 45.7137 38.52 42.5732 40.918 39.6095C44.5927 35.0695 41.7701 35.7287 40.5323 35.6748C40.9868 34.4552 42.41 33.4063 42.4608 30.4216L39.6652 30.5325C39.6413 27.5328 39.9014 25.546 39.2077 22.846C38.7951 21.2248 37.5602 18.5188 36.4539 17.4999C35.255 18.0423 32.3277 20.8831 31.5085 22.1178C29.4574 25.2014 30.5876 23.5292 24.4551 23.5262C22.108 23.5262 20.9209 23.7899 18.822 24.1196L18.0625 23.1636C16.7798 21.4345 14.2562 17.7906 12.1692 17.5089Z" fill="black"/>
<path fill-rule="evenodd" clip-rule="evenodd" d="M34.7316 33.2266C35.9904 37.2751 31.0659 40.8082 28.4736 38.7495C25.6092 36.475 30.8147 31.7552 34.7316 33.2266Z" fill="black"/>
<path fill-rule="evenodd" clip-rule="evenodd" d="M14.489 33.2086C15.2305 32.6332 18.065 32.852 19.578 34.4072C25.6118 40.6194 13.6787 41.0689 14.0046 34.4222C14.0226 34.0596 14.0285 34.0446 14.1302 33.745C14.3515 33.0947 13.9897 33.5921 14.489 33.2086Z" fill="black"/>
<path fill-rule="evenodd" clip-rule="evenodd" d="M22.7422 42.2825C23.5704 41.4254 25.6784 41.1647 26.1119 42.5282C26.082 43.4092 23.2535 44.1944 22.7422 42.2825Z" fill="black"/>
<path fill-rule="evenodd" clip-rule="evenodd" d="M34.7316 33.2266C30.8147 31.7552 25.6092 36.475 28.4736 38.7495C31.0659 40.8082 35.9904 37.2751 34.7316 33.2266Z" fill="#FEFEFE"/>
<path fill-rule="evenodd" clip-rule="evenodd" d="M14.489 33.2086C13.9897 33.5921 14.3515 33.0947 14.1302 33.745C14.0285 34.0446 14.0226 34.0596 14.0046 34.4222C13.6787 41.0689 25.6118 40.6194 19.578 34.4072C18.065 32.852 15.2305 32.6332 14.489 33.2086Z" fill="#FEFEFE"/>
<path fill-rule="evenodd" clip-rule="evenodd" d="M22.7422 42.2825C23.2535 44.1944 26.082 43.4092 26.1119 42.5282C25.6784 41.1647 23.5704 41.4254 22.7422 42.2825Z" fill="#FCFBFC"/>
<path d="M26.5647 17.8869L24.7188 10.7598L22.8728 17.8869L24.7188 25.0141L26.5647 17.8869Z" fill="white"/>
<path d="M21.2116 17.8866L20.3662 13.1072L19.5208 17.8866L20.3662 22.666L21.2116 17.8866Z" fill="white"/>
<path d="M29.5768 17.8866L28.7314 13.1072L27.8861 17.8866L28.7314 22.666L29.5768 17.8866Z" fill="white"/>
</g>
<defs>
<clipPath id="clip0_1_748">
<rect width="49" height="52" fill="white"/>
</clipPath>
</defs>
</svg>
