<svg width="114" height="120" viewBox="0 0 114 120" fill="none" xmlns="http://www.w3.org/2000/svg">
<g clip-path="url(#clip0_1_160)">
<path fill-rule="evenodd" clip-rule="evenodd" d="M27.7036 18.4971C25.6618 20.06 21.467 25.2189 20.1891 27.1483C18.3904 29.873 15.5082 35.267 14.3276 38.3444C11.5426 45.6056 9.92444 58.6689 9.72998 67.6313C7.57703 67.1887 4.30594 64.5885 2.50719 63.2192L0.590375 62.3064C0.54176 62.2995 0.368135 62.2857 0.257015 62.3202C-1.01392 65.5082 2.76416 81.6281 4.26427 84.7608C9.59108 95.8601 7.87566 92.8104 15.161 101.662C16.8278 103.688 19.7377 105.991 22.3768 108.094C28.8148 113.218 43.7257 119.981 52.2541 119.981C67.797 119.981 76.7074 118.107 89.9932 109.138C101.084 101.655 109.946 87.776 112.273 74.6366C112.689 72.2854 112.55 70.8124 113.051 68.7032C113.62 66.3381 114.224 64.7752 113.439 62.1335C111.662 62.0574 113.141 61.7739 111.418 62.9841C110.446 63.6757 110.404 63.8209 109.064 64.6646C107.543 65.6327 106.196 67.1472 103.869 67.659C103.598 58.247 102.966 56.3522 101.869 48.5585C100.411 38.1853 91.2711 20.7308 85.2845 18.3173C85.2984 22.0032 83.7496 28.6835 79.5132 29.5825C73.7766 30.7927 71.6931 24.8316 70.0055 21.6436L56.8031 0.019043C56.4419 0.392477 56.4072 0.427054 55.9697 0.99412C55.5599 1.52661 55.4558 1.67183 55.0182 2.34955L40.5588 27.0031C39.1559 28.6006 36.6348 30.1704 34.0999 29.631C31.9539 29.1745 30.7594 26.8786 29.9052 25.2327C28.5162 22.5772 28.6273 20.8898 27.7036 18.4971Z" fill="#FE0C3B"/>
<path fill-rule="evenodd" clip-rule="evenodd" d="M28.266 40.4053C19.814 53.7659 21.7516 58.3232 21.8627 70.8055L15.015 70.1486C15.0705 76.407 17.3068 78.1221 19.5431 82.3958C15.9039 82.4304 12.9245 81.3516 14.9386 85.9365C18.6403 94.3457 31.808 105.687 40.7045 108.557C53.1568 112.575 60.8727 112.499 73.332 108.426C82.3119 105.493 89.4722 98.246 95.0421 91.4066C103.577 80.9297 97.0214 82.4511 94.1461 82.3267C95.2018 79.5121 98.5076 77.0917 98.6257 70.2039L92.1321 70.4598C92.0765 63.5374 92.6808 58.9525 91.0695 52.7217C90.1111 48.9804 87.2428 42.7358 84.6732 40.3845C81.8883 41.6362 75.0891 48.1921 73.1862 51.0412C68.4219 58.1572 71.0471 54.2984 56.803 54.2915C51.3511 54.2915 48.594 54.9 43.7186 55.6607L41.9546 53.4547C38.9752 49.4645 33.1136 41.0553 28.266 40.4053Z" fill="black"/>
<path fill-rule="evenodd" clip-rule="evenodd" d="M80.6731 76.6766C83.597 86.0194 72.1586 94.1727 66.1373 89.4218C59.484 84.173 71.5752 73.2812 80.6731 76.6766Z" fill="black"/>
<path fill-rule="evenodd" clip-rule="evenodd" d="M33.655 76.6353C35.3774 75.3075 41.9612 75.8123 45.4754 79.4014C59.4903 93.7371 31.7729 94.7745 32.5299 79.436C32.5716 78.5992 32.5855 78.5647 32.8216 77.8731C33.3355 76.3725 32.4952 77.5204 33.655 76.6353Z" fill="black"/>
<path fill-rule="evenodd" clip-rule="evenodd" d="M52.8232 97.5751C54.747 95.5973 59.6432 94.9957 60.6502 98.1422C60.5808 100.175 54.0108 101.987 52.8232 97.5751Z" fill="black"/>
<path fill-rule="evenodd" clip-rule="evenodd" d="M80.6731 76.6766C71.5752 73.2812 59.484 84.173 66.1373 89.4218C72.1586 94.1727 83.597 86.0194 80.6731 76.6766Z" fill="#FEFEFE"/>
<path fill-rule="evenodd" clip-rule="evenodd" d="M33.655 76.6353C32.4952 77.5204 33.3355 76.3725 32.8216 77.8731C32.5855 78.5647 32.5716 78.5992 32.5299 79.436C31.7729 94.7745 59.4903 93.7371 45.4754 79.4014C41.9612 75.8123 35.3774 75.3075 33.655 76.6353Z" fill="#FEFEFE"/>
<path fill-rule="evenodd" clip-rule="evenodd" d="M52.8232 97.5751C54.0108 101.987 60.5808 100.175 60.6502 98.1422C59.6432 94.9957 54.747 95.5973 52.8232 97.5751Z" fill="#FCFBFC"/>
<path d="M61.7028 41.2776L57.415 24.8303L53.1273 41.2776L57.415 57.7249L61.7028 41.2776Z" fill="white"/>
<path d="M49.2683 41.2767L47.3047 30.2473L45.3411 41.2767L47.3047 52.306L49.2683 41.2767Z" fill="white"/>
<path d="M68.6979 41.2767L66.7344 30.2473L64.7708 41.2767L66.7344 52.306L68.6979 41.2767Z" fill="white"/>
</g>
<defs>
<clipPath id="clip0_1_160">
<rect width="113.814" height="120" fill="white"/>
</clipPath>
</defs>
</svg>
