<svg width="142" height="111" viewBox="0 0 142 111" fill="none" xmlns="http://www.w3.org/2000/svg">
<path fill-rule="evenodd" clip-rule="evenodd" d="M69.4864 55.6455L69.6661 55.0894L71.7083 53.7727L73.8098 55.0894L73.9895 55.6455L78.1179 58.5525L71.7083 55.5138L65.2968 58.5525L69.4864 55.6455ZM75.7631 59.5628V58.3915L71.5778 56.3615L69.7109 57.2678L69.7092 57.4234L68.3718 58.0884L67.1361 60.0189V58.7042L65.8725 59.3324L66.0692 59.343L65.4699 59.7347L66.1249 59.5353V61.45L66.4106 61.8046L63.1897 60.4724L62.8645 60.327L58.3738 58.2095L58.2667 59.0915L55.4667 57.1583L58.4465 61.7933L59.1082 60.1319L67.2194 62.7347L67.1526 62.6975L67.1361 61.5894L67.5776 60.8994L68.728 62.6958L70.2142 63.1334L68.1473 60.0153L69.7076 57.5674L69.6938 58.8243L74.7172 61.2571V61.6263L73.4657 61.9868L70.5834 60.5875V59.9126H69.57V61.1016L73.3437 62.9337L75.744 62.2447L75.7669 60.584L70.7244 58.1371V57.7802L71.5778 57.3668L74.7496 58.9056V59.5628H75.7631ZM77.8903 59.569L76.2121 58.7516L76.1951 62.7347V62.7348L76.1954 62.7346L84.4417 60.182L85.0423 61.7027L87.9478 57.1583L85.2176 59.0529L85.1131 58.1903L78.3957 61.1911L78.3384 61.2312L77.1135 61.7346L77.3101 61.5693V59.7149L77.1211 59.4969L77.8903 59.569ZM70.5238 63.0559L69.57 61.54L70.4659 62.173L70.4995 61.8852L72.989 63.1332L70.7352 62.5128L70.5238 63.0559ZM65.5126 60.9423L63.9649 58.4797L63.6205 59.3629L59.9567 58.3533L64.0019 60.3832L64.0574 59.9149L65.5126 60.9423ZM79.2409 58.4797L77.6913 60.9423L79.1464 59.9167L79.2038 60.385L83.2471 58.3533L79.5852 59.3629L79.2409 58.4797ZM70.8524 62.7351L72.7774 63.1744L71.6703 63.5317L70.6405 63.2011L71.3178 63.1888L70.8524 62.7351ZM64.4413 68.7098L65.6934 63.8529L64.9774 63.0996L64.9224 62.7351L67.7372 63.4711L68.9287 68.3279L67.3982 68.4616L67.2296 67.4149L66.1916 67.6318L66.0457 68.5796L64.4413 68.7098ZM67.0837 66.5574L66.7106 64.3633L66.345 66.6615L67.0837 66.5574ZM61.6223 70.3468L60.5974 74.6842H62.001L62.1482 73.6671H63.1013L63.2539 74.6842H64.6575L63.48 69.5061L60.9259 69.743L60.9385 69.9407L61.6223 70.3468ZM62.6077 70.5838L62.9559 72.7515H62.2846L62.6077 70.5838ZM83.0316 74.6842L81.9528 70.3468L82.6726 69.9407L82.6858 69.743L79.9973 69.5061L78.7579 74.6842H80.2353L80.3959 73.6671H81.3992L81.5541 74.6842H83.0316ZM80.549 72.7515L80.9155 70.5838L81.2556 72.7515H80.549ZM64.4637 69.9532L64.4413 69.3955L67.6455 69.1078L68.2479 69.7423L68.3281 71.9818L67.8152 72.425L68.6937 74.316L68.9268 74.4161L68.9287 74.6788H67.5691L66.8025 72.6627H66.159V74.6842L64.9766 74.6788V70.282L64.4637 69.9532ZM66.0565 70.4232L66.0471 71.6833L66.7894 71.6958L67.1065 71.4027L67.0897 69.9514L65.6405 70.1176L66.0565 70.4232ZM79.83 62.3444V68.8038L85.3705 69.3067L85.3858 68.7843L84.487 67.5884L81.6909 67.6523L81.6889 66.0868L83.2413 66.0139L83.3582 64.6688L81.7407 64.7754V63.6008L80.9703 63.4586L83.2988 63.0712L83.9312 61.7793L83.7741 61.3404L79.83 62.3444ZM69.3573 74.6845V69.1039L71.6955 68.909L72.99 69.0239L72.9528 69.3337L72.4235 70.1222L71.5822 69.9986L69.9219 70.1222L70.6778 70.345L70.6796 71.3216H72.1709V72.3137H70.687V73.5757H72.366L72.9528 74.3886V74.6845H69.3573ZM73.8583 74.6845L73.9851 69.6511L73.6327 69.28L73.6663 68.909L75.5418 69.0631L76.8617 72.2682L76.8803 69.9218L76.349 69.5848V69.151L78.1201 69.3105L78.1164 74.6845L76.4926 74.6827L75.1204 71.2303V74.6845H73.8583ZM59.5444 61.6912L59.627 61.3404L63.292 62.3259L64.0139 63.105L63.6796 64.9525L63.044 65.5096L63.6796 66.1142V68.249L62.8327 68.9453L58.6718 69.3067L60.0385 62.3805L59.5444 61.6912ZM61.6809 67.9123L60.2241 67.9599L60.6907 66.0578L62.0299 66.0402L61.9987 67.6162L61.6809 67.9123ZM62.2044 64.9084L60.8891 64.882L61.1389 63.611L60.8597 63.0698L62.5039 63.3818L62.2044 64.9084ZM69.3522 65.2605V64.6339L68.6838 64.476L68.6029 64.6304L68.2889 64.6996L68.3178 63.5317L71.7079 64.4405V65.4309L71.3786 65.28L71.2919 65.0865L70.6447 64.9357V65.2409V65.6492L70.6427 67.8713L70.87 67.937V68.1606L69.1211 68.3115V68.0861L69.3503 67.9832L69.3522 65.2605ZM74.2794 64.6339V65.2605L74.2814 67.9832L74.5106 68.0861V68.3115L72.7616 68.1606V67.937L72.9908 67.8713L72.987 65.6492V65.2409V64.9357L72.3398 65.0865L72.2531 65.28L71.9237 65.4309V64.4405L75.3138 63.5317L75.3427 64.6996L75.0287 64.6304L74.9498 64.476L74.2794 64.6339ZM75.7675 63.6258V63.4173L77.6083 62.9338L77.5649 67.6443L79.3737 67.6601L79.4001 68.7094L76.3018 68.4414V63.8167L75.7675 63.6258ZM59.6671 73.5743L54.4004 77.0293L58.2827 76.224L58.0419 76.9502L67.9452 76.53L68.0261 77.0522L68.201 77.6095L71.7071 79.9427L75.3186 77.6095L75.4991 77.0328L75.5781 76.53L85.3742 76.9467L85.1353 76.224L89.0176 77.0293L83.7509 73.5743L83.8769 75.6596H59.5411L59.6671 73.5743ZM71.5492 77.6465L71.5492 77.6464L71.5354 77.6282L71.5312 77.6227C71.5016 77.5829 71.464 77.5324 71.4658 77.5139C71.4658 77.5029 71.5033 77.447 71.5315 77.4051L71.541 77.3909L71.5598 77.3645L71.5674 77.3504H71.778L71.7874 77.3627C71.7917 77.3696 71.803 77.3871 71.8161 77.4072L71.8476 77.4559C71.8608 77.4788 71.8721 77.4999 71.874 77.5069L71.8758 77.5087C71.8777 77.5192 71.8664 77.5473 71.8495 77.5755C71.8269 77.6124 71.7968 77.6581 71.7893 77.6669L71.7818 77.6757L71.5711 77.6775L71.5617 77.6634C71.5606 77.6612 71.5558 77.655 71.5492 77.6465ZM70.8545 77.2186C70.8426 77.2269 70.8212 77.2375 70.8007 77.2476L70.7849 77.2555L70.7623 77.2678L70.719 77.2906L70.6871 77.3065C70.6852 77.3276 70.6852 77.3662 70.6852 77.3926L70.7172 77.4084C70.7585 77.4278 70.7623 77.4295 70.7924 77.4137C70.83 77.3961 70.8658 77.3768 70.9015 77.3557L70.9278 77.3416L70.9711 77.317L70.9862 77.3088C71.0032 77.2995 71.0142 77.2934 71.0275 77.2906C71.0501 77.2854 71.0633 77.2924 71.0915 77.3082L71.1197 77.3223L71.1418 77.334L71.1419 77.3341C71.1815 77.355 71.2326 77.3821 71.242 77.3909L71.2608 77.4137L71.2344 77.4295C71.2224 77.4385 71.2082 77.4468 71.1935 77.4552L71.1935 77.4552C71.1852 77.46 71.1768 77.4649 71.1686 77.47L71.131 77.4911C71.1197 77.4981 71.1103 77.5034 71.0971 77.5104L71.0877 77.5175C71.0915 77.5192 71.0954 77.5212 71.0993 77.5233C71.1022 77.5248 71.1051 77.5264 71.108 77.5279L71.108 77.5279C71.1168 77.5327 71.1254 77.5373 71.1329 77.5403L71.1611 77.5544L71.1749 77.5617L71.1749 77.5617C71.1997 77.5747 71.2297 77.5904 71.2438 77.6036C71.2532 77.6124 71.2645 77.6282 71.272 77.6388L71.2382 77.6511C71.225 77.6564 71.2062 77.6669 71.1893 77.6775C71.1851 77.6804 71.1808 77.6828 71.1759 77.6856C71.1721 77.6878 71.1679 77.6902 71.1629 77.6933L71.1272 77.7126L71.1131 77.72C71.0882 77.7332 71.0733 77.741 71.0557 77.7425C71.0332 77.7425 71.02 77.7355 70.9918 77.7197L70.9673 77.7056L70.9157 77.6777C70.8755 77.656 70.8358 77.6346 70.7962 77.6124C70.7774 77.6018 70.7774 77.6019 70.7491 77.6142L70.7435 77.6177C70.7247 77.6265 70.6908 77.6423 70.6889 77.644V77.6898V77.732L70.7849 77.7759L70.7882 77.7774L70.7882 77.7774C70.8226 77.7926 70.8529 77.806 70.862 77.8128L70.8846 77.8287L70.8676 77.8498C70.8545 77.8656 70.8207 77.8814 70.7981 77.8919L70.798 77.892L70.7849 77.8972L70.7604 77.9095L70.7218 77.9292L70.7216 77.9292C70.672 77.9544 70.6219 77.9798 70.5742 78.0062V78.0291V78.0783C70.5754 78.0919 70.5758 78.0967 70.5785 78.0994C70.58 78.1009 70.5821 78.1017 70.5855 78.103C70.5867 78.1041 70.5897 78.1053 70.5926 78.1065L70.5968 78.1082C70.6028 78.1106 70.6085 78.1131 70.6137 78.1153C70.6199 78.118 70.6255 78.1204 70.6306 78.1223C70.6645 78.1381 70.6701 78.1399 70.7059 78.1223C70.7316 78.1109 70.7563 78.0977 70.7808 78.0846L70.7808 78.0846L70.8093 78.0695L70.8394 78.0537C70.8733 78.0344 70.9391 77.9975 70.9636 77.9992L70.9918 78.001L70.9937 78.1961C70.9969 78.1992 71.0014 78.2016 71.0061 78.2042C71.0082 78.2053 71.0104 78.2065 71.0124 78.2078C71.0137 78.2085 71.015 78.2093 71.0162 78.2102C71.02 78.212 71.035 78.2208 71.0369 78.2243C71.0402 78.2258 71.0435 78.2287 71.0465 78.2313C71.0503 78.2347 71.0536 78.2376 71.0557 78.2366C71.0663 78.2333 71.0999 78.2131 71.1257 78.1976L71.131 78.1944L71.1385 78.1909L71.1423 77.8955L71.1535 77.8884C71.1648 77.8814 71.225 77.8462 71.2739 77.8216C71.3097 77.804 71.3398 77.79 71.351 77.79L71.3774 77.7917V77.8164V77.8709C71.3755 77.9078 71.3755 77.9482 71.3774 77.9834C71.389 77.9769 71.402 77.9684 71.4155 77.9595C71.424 77.954 71.4327 77.9484 71.4413 77.943C71.4808 77.9166 71.5203 77.892 71.5448 77.8884L71.5768 77.8832L71.5786 78.117L71.5636 78.1241C71.5485 78.1328 71.4545 78.1856 71.3811 78.2243C71.351 78.2419 71.3228 78.2559 71.304 78.2647L71.3059 78.3491C71.3147 78.3561 71.3251 78.3616 71.3356 78.3671C71.3408 78.3698 71.346 78.3725 71.351 78.3755L71.3623 78.3808C71.3691 78.3839 71.3725 78.3865 71.3745 78.388C71.3759 78.389 71.3766 78.3895 71.3774 78.3895C71.378 78.389 71.3782 78.3886 71.3784 78.3882C71.3788 78.3874 71.3793 78.3866 71.383 78.3843L71.415 78.3667C71.4526 78.3456 71.5297 78.3034 71.5467 78.3016L71.5786 78.2964L71.5805 78.3262C71.5833 78.371 71.583 78.4168 71.5826 78.4628V78.4629L71.5824 78.5091V78.5742C71.5824 78.5882 71.5824 78.6076 71.5843 78.6146C71.5843 78.6155 71.5868 78.6169 71.591 78.6192C71.595 78.6214 71.6005 78.6244 71.6069 78.6287C71.6351 78.6462 71.667 78.6638 71.6689 78.6638C71.6689 78.6638 71.7084 78.6392 71.7272 78.6287C71.7291 78.6287 71.7385 78.6234 71.7404 78.6216C71.746 78.6181 71.7498 78.6146 71.7517 78.6111C71.7529 78.6041 71.7525 78.5948 71.7521 78.5853V78.5852V78.5852C71.7519 78.5803 71.7517 78.5754 71.7517 78.5706V78.5583V78.5582C71.7517 78.502 71.7517 78.4475 71.7536 78.3931L71.7555 78.2981L71.7874 78.3016C71.8037 78.3033 71.8529 78.3293 71.8951 78.3517L71.8952 78.3517L71.9003 78.3544C71.9247 78.3684 71.9454 78.379 71.9567 78.3843C71.9642 78.3878 71.968 78.386 71.9755 78.3825L71.9962 78.3737L72.0112 78.3669C72.0239 78.3613 72.0305 78.3583 72.032 78.3544C72.0357 78.3509 72.0357 78.3368 72.0357 78.3087V78.2999C72.0375 78.2675 72.0323 78.2649 72.0132 78.2551L72.0113 78.2542L71.9642 78.2278L71.9266 78.2084L71.9041 78.1964C71.8934 78.1907 71.8821 78.1846 71.8702 78.1786C71.8363 78.1592 71.7987 78.1381 71.7724 78.1276L71.7555 78.1205L71.7592 77.8832L71.7931 77.8884C71.8096 77.8913 71.8503 77.9144 71.8775 77.9298L71.8946 77.9394L71.8984 77.943C71.9054 77.9462 71.9169 77.9529 71.929 77.9601C71.9364 77.9644 71.944 77.9689 71.9511 77.9728L71.9567 77.7847L71.9906 77.7953C72.0037 77.797 72.0376 77.8146 72.0733 77.8339C72.1222 77.8586 72.1768 77.8884 72.1918 77.899L72.2031 77.906L72.205 77.9201V78.0783V78.1153C72.205 78.124 72.2044 78.1316 72.2039 78.1385C72.2035 78.1441 72.2031 78.1492 72.2031 78.1539C72.2012 78.1979 72.2012 78.1997 72.2558 78.226L72.2577 78.2278L72.2599 78.2288C72.2767 78.2367 72.2792 78.2379 72.299 78.2278L72.3254 78.2137L72.3395 78.2061C72.3489 78.2011 72.3536 78.1986 72.3536 78.1961C72.3574 78.1891 72.3574 78.1733 72.3574 78.1487C72.3555 78.1205 72.3555 78.0836 72.3592 78.0291L72.3611 77.9939L72.395 78.0045C72.4093 78.009 72.425 78.0172 72.4398 78.025L72.4398 78.025L72.4476 78.0291C72.4698 78.0409 72.4924 78.0526 72.5151 78.0643L72.5156 78.0645C72.5602 78.0875 72.6054 78.1108 72.6489 78.1364C72.6507 78.1375 72.652 78.1383 72.6533 78.1385C72.6561 78.1392 72.6594 78.1376 72.6696 78.1328C72.6778 78.1298 72.6854 78.1267 72.6922 78.1239C72.7009 78.1203 72.7084 78.1172 72.7147 78.1153C72.743 78.1047 72.7486 78.1012 72.7505 78.0766V78.0027V77.9975C72.743 77.9922 72.6846 77.964 72.6508 77.9482L72.6 77.9201C72.5605 77.899 72.4984 77.8656 72.4871 77.8515L72.4683 77.8287L72.4909 77.8128C72.5172 77.7953 72.5473 77.7794 72.5774 77.7654L72.5981 77.7548C72.6132 77.7478 72.6282 77.739 72.6395 77.732C72.6451 77.7284 72.6451 77.7197 72.6451 77.7073V77.695C72.6451 77.6476 72.6433 77.6458 72.6056 77.6212H72.6038C72.5769 77.6028 72.5756 77.6035 72.5642 77.6097L72.5624 77.6106C72.5593 77.6121 72.5562 77.6139 72.5525 77.6159C72.5503 77.6172 72.5479 77.6185 72.5452 77.62C72.5416 77.6219 72.5374 77.6241 72.5323 77.6265L72.5015 77.6419C72.4789 77.6532 72.4558 77.6649 72.4326 77.6757C72.4166 77.6845 72.4002 77.6933 72.3837 77.7021C72.3672 77.7109 72.3508 77.7197 72.3348 77.7284C72.2972 77.7495 72.2896 77.746 72.2633 77.732L72.252 77.7249L72.2201 77.7109L72.2076 77.7051C72.1701 77.6876 72.1317 77.6697 72.0978 77.6476L72.0752 77.6335L72.0903 77.6106C72.1044 77.5925 72.1384 77.5759 72.1752 77.5579L72.1824 77.5544C72.1966 77.5466 72.2108 77.5396 72.2235 77.5333L72.2445 77.5227L72.2295 77.5122C72.2182 77.5069 72.205 77.4999 72.1918 77.4911L72.1865 77.4882C72.1519 77.4695 72.112 77.4479 72.0959 77.4295L72.0771 77.4102L72.0978 77.3926C72.1053 77.3856 72.1599 77.3504 72.2069 77.3223C72.2445 77.2977 72.2821 77.2783 72.2915 77.2783L72.2972 77.2766L72.3028 77.2783C72.3186 77.2832 72.3572 77.3049 72.3852 77.3207L72.3912 77.324C72.4307 77.3451 72.4702 77.3662 72.5097 77.3891C72.5304 77.4014 72.5737 77.426 72.5774 77.4278L72.6038 77.4155L72.6196 77.4063C72.6245 77.4035 72.6293 77.4008 72.6338 77.3981C72.6395 77.3948 72.6447 77.3917 72.6489 77.3891L72.647 77.3047C72.6263 77.2942 72.5906 77.2748 72.5586 77.2572C72.5266 77.2414 72.4966 77.2238 72.4871 77.2168L72.4646 77.1992L72.4834 77.1799C72.4984 77.164 72.5831 77.1201 72.6376 77.092L72.679 77.0709C72.6934 77.0628 72.7066 77.0558 72.718 77.0498L72.7279 77.0445C72.7448 77.0374 72.7542 77.0322 72.7561 77.0287C72.758 77.0269 72.758 77.0164 72.758 76.9935V76.9706V76.9531C72.7599 76.9443 72.7599 76.9355 72.758 76.9355C72.7524 76.932 72.7223 76.9144 72.6978 76.9003C72.6899 76.8961 72.6854 76.8925 72.6826 76.8903L72.6826 76.8903C72.6808 76.8888 72.6797 76.888 72.679 76.888C72.6748 76.888 72.6346 76.9092 72.5934 76.9309L72.5511 76.9531L72.5273 76.9653C72.5145 76.972 72.5045 76.9772 72.4984 76.9794L72.4877 76.9852C72.4831 76.9876 72.4783 76.9901 72.4735 76.9929C72.4711 76.9942 72.4688 76.9956 72.4665 76.997L72.4664 76.997C72.442 77.0093 72.4175 77.0216 72.395 77.0287L72.3592 77.041L72.3574 77.0058C72.3555 76.9847 72.3555 76.9654 72.3555 76.946V76.8845V76.8616C72.3574 76.8388 72.3574 76.8265 72.3404 76.8194L72.2953 76.8001C72.2727 76.7913 72.2652 76.7948 72.2501 76.8036L72.2391 76.8091C72.2293 76.8141 72.2172 76.8203 72.2012 76.8265L72.1956 77.1517L72.1787 77.157C72.1655 77.1623 72.1298 77.1799 72.0959 77.1992L72.0825 77.206C72.0386 77.2281 71.9984 77.2484 71.983 77.2484H71.9567L71.9492 77.0515C71.9429 77.0557 71.935 77.0603 71.9264 77.0652L71.9263 77.0653C71.9168 77.0707 71.9064 77.0767 71.8965 77.0832L71.8965 77.0832C71.8551 77.1078 71.8138 77.1324 71.7893 77.1359L71.7573 77.1377V76.9038L72.0414 76.7561V76.6805C72.0282 76.6717 72.0113 76.6612 71.9962 76.6524L71.9755 76.6383C71.9714 76.6364 71.9707 76.635 71.9702 76.6341C71.9699 76.6334 71.9697 76.6331 71.968 76.6331C71.9673 76.6331 71.9671 76.6333 71.9668 76.6338C71.9664 76.6344 71.9658 76.6355 71.9624 76.6366L71.9229 76.6577C71.8815 76.6805 71.8119 76.7174 71.7893 76.7227L71.7555 76.7298L71.7536 76.4502V76.4344L71.7538 76.4249C71.7542 76.417 71.7544 76.411 71.7517 76.4098L71.7329 76.3974C71.7251 76.3926 71.7158 76.3866 71.7068 76.3807L71.7068 76.3806C71.6895 76.3694 71.6733 76.3588 71.6708 76.3588C71.6672 76.3613 71.661 76.3646 71.6536 76.3686C71.6457 76.3729 71.6364 76.3779 71.6275 76.3834C71.6106 76.3922 71.5937 76.4027 71.5824 76.4115L71.5805 76.7245L71.5485 76.7227C71.5316 76.721 71.447 76.6752 71.4112 76.6559L71.4018 76.6506C71.3743 76.6352 71.3719 76.6365 71.3526 76.6463L71.351 76.6471L71.3444 76.6513C71.3344 76.6576 71.3223 76.6653 71.304 76.6752L71.3021 76.7561C71.3285 76.7702 71.368 76.7913 71.3981 76.8089L71.4263 76.8247C71.4391 76.8319 71.4519 76.8383 71.4653 76.8449L71.4846 76.8546L71.5013 76.8634L71.5014 76.8635C71.5226 76.8746 71.5443 76.886 71.5636 76.8985L71.5768 76.9056L71.5786 76.9355L71.5788 76.9696C71.5791 77.0174 71.5794 77.0692 71.5749 77.1131L71.5711 77.1447L71.5391 77.1359C71.5089 77.127 71.4799 77.1117 71.4512 77.0966L71.4512 77.0966L71.4357 77.0884C71.415 77.0761 71.3943 77.0638 71.3736 77.055C71.3717 77.0779 71.3717 77.1078 71.3717 77.1359C71.3717 77.1658 71.3717 77.1975 71.3699 77.2221L71.3642 77.2555L71.3304 77.2449C71.3081 77.2371 71.2765 77.2196 71.2455 77.2025L71.2451 77.2023C71.2344 77.1964 71.2238 77.1905 71.2137 77.1851L71.1855 77.1693L71.1517 77.1517H71.1329V77.1271L71.131 77.1236V76.8405L71.0915 76.8194C71.0849 76.8159 71.0792 76.8124 71.0743 76.8093L71.0742 76.8093C71.0693 76.8062 71.0651 76.8036 71.0614 76.8018C71.0539 76.7966 71.0501 76.7948 71.0444 76.7983L70.9843 76.8353L70.9805 77.041L70.9485 77.0375C70.9308 77.0358 70.8181 76.975 70.7642 76.9458L70.7548 76.9407L70.7266 76.9267C70.7209 76.9232 70.7148 76.9196 70.7087 76.9161L70.7086 76.9161C70.7025 76.9126 70.6964 76.9091 70.6908 76.9056L70.6795 76.9003L70.6763 76.8988C70.6704 76.8959 70.6655 76.8935 70.6607 76.895C70.6493 76.8998 70.6379 76.9053 70.627 76.9106L70.6118 76.9179L70.578 76.9355V77.0339C70.6325 77.0656 70.719 77.1078 70.7849 77.1394L70.815 77.1535C70.8413 77.1676 70.8601 77.1799 70.8827 77.1957L70.8545 77.2186Z" fill="#D8C283"/>
<path fill-rule="evenodd" clip-rule="evenodd" d="M13.676 50.4703C12.9864 50.295 7.74635 47.42 2.81387 47.0298C4.17859 52.5923 10.0438 56.9735 16.8946 53.5288C18.4826 55.7841 20.1204 56.0791 22.1247 57.7348C13.4327 57.0469 15.7302 57.7348 10.0552 57.7348C12.4943 61.1957 17.2509 63.7418 21.727 61.9474C23.7355 61.1426 23.8613 60.5894 25.3433 59.6459L29.7308 61.212C30.087 61.3424 30.2 61.3642 30.5948 61.5368C31.3802 61.8795 30.9282 61.6429 31.3774 61.9392C27.9197 61.9392 22.8842 64.1889 20.5152 65.3811C21.7527 66.9864 25.7783 68.2534 29.2745 67.5886C31.9696 67.0775 34.2069 64.851 35.4014 62.7046C36.5659 63.2361 39.9706 63.4698 41.8388 63.4698C41.6214 60.985 40.919 62.3076 35.8034 61.1767C35.6846 56.1266 33.0382 51.846 28.562 50.855C28.562 57.2399 29.8238 57.2535 31.7793 60.0293C30.592 59.9355 27.163 58.5816 26.1473 58.118C27.2602 53.5778 26.4505 47.6443 22.5266 46.6492C22.3935 48.1608 21.5767 49.8206 21.395 51.3444C21.1348 53.5356 22.1118 54.1324 22.5266 55.8235C20.6741 54.891 19.2406 53.9992 18.1006 52.3816C18.7629 49.6792 22.2677 46.2278 19.308 40.9127C17.7615 41.3043 16.9489 42.7357 16.2079 44.0828C15.2581 45.8105 15.2853 46.8368 15.2853 49.323C14.1179 48.5115 12.8534 46.3067 12.4685 44.7352C14.7216 41.5394 19.142 39.9163 17.6985 34.0303C13.6731 34.9221 12.0379 37.755 11.1653 40.8217L10.8592 41.6767C10.7948 40.9372 9.86496 35.9809 9.65324 35.5596C14.8318 32.9565 16.9547 32.7008 18.504 26.3853C15.7302 26.4438 12.9177 27.7678 11.151 29.7198L9.93506 31.6228C9.89929 31.6881 9.82347 31.8186 9.79486 31.8717C9.76626 31.9246 9.71046 32.0416 9.65467 32.1204C9.65467 29.4452 10.0567 28.4652 10.0567 26.0033C14.7503 25.6322 19.873 23.6095 20.9186 19.8862C18.3566 19.8319 18.1578 19.0801 15.2609 19.8617C12.7875 20.5279 12.9249 21.1218 11.2626 22.1808C12.2897 17.9927 12.7446 19.8577 16.0048 16.7462C18.3924 14.4678 17.9045 12.7292 19.3093 9.94662C16.6629 9.94662 16.2108 9.81068 14.4527 10.6847C7.72632 14.0261 12.7489 17.3986 9.25127 22.1808C9.25127 16.9501 7.42876 15.1475 6.43454 11.0939H5.63057C5.20285 12.6123 2.59785 15.4384 3.35318 19.3574C4.01837 22.8048 5.99537 24.0621 8.4473 25.6214C8.4473 27.8955 8.04533 29.3841 8.04533 32.1204C7.67338 31.612 3.78519 23.702 0.80396 22.9447C0.489243 26.5417 -0.258927 28.2679 1.52924 31.4313C2.63362 33.3833 5.28296 35.3434 8.04533 35.5609C8.10112 37.9085 9.07387 40.0251 9.2527 42.06C7.4116 40.0468 8.34287 40.146 5.1771 37.9058C3.954 37.0399 1.4434 35.164 0 34.797C0 38.5134 0.826848 40.5048 2.56352 42.6826C4.33881 44.9092 6.87086 45.5006 10.862 45.5006C11.3398 46.3569 11.6474 47.1113 12.1982 48.0548C12.9864 49.406 13.3154 49.1763 13.6788 50.4703H13.676Z" fill="url(#paint0_linear_1_3309)"/>
<path fill-rule="evenodd" clip-rule="evenodd" d="M126.535 49.0468C126.535 46.2926 125.681 41.5608 122.474 40.7673C119.47 46.0291 123.009 49.3451 123.691 52.0576C122.541 53.6487 121.093 54.5279 119.224 55.4459C119.643 53.7813 120.629 53.1937 120.365 51.0365C120.183 49.5365 119.357 47.9025 119.224 46.4144C115.263 47.394 114.446 53.2339 115.568 57.7048C114.544 58.1612 111.082 59.4939 109.882 59.5863C111.858 56.8538 113.132 56.8403 113.132 50.5549C108.611 51.5304 105.94 55.7443 105.821 60.7158C100.745 61.8104 99.9494 60.5164 99.7285 62.9733C101.615 62.9733 105.05 62.7431 106.227 62.2199C107.433 64.3329 109.692 66.5248 112.412 67.028C115.942 67.6824 120.005 66.4352 121.255 64.8548C118.863 63.6825 113.78 61.4665 110.289 61.4665L111.656 60.8522C112.317 60.6073 112.626 60.5243 113.133 60.3397C114.15 59.9703 115.288 59.4457 116.381 59.209C117.793 60.0854 117.802 60.5418 119.749 61.3581C124.474 63.3386 129.313 60.7907 131.814 57.3275C126.085 57.3275 128.405 56.6503 119.63 57.3275L122.479 55.4527C123.466 54.8076 124.238 54.1157 124.91 53.1871C131.827 56.5793 137.748 52.2664 139.125 46.7892C137.456 46.9176 134.877 47.659 133.28 48.1461C130.226 49.0775 129.057 49.954 128.159 50.1761L131.001 45.2837C138.514 45.2837 141.968 41.8833 141.968 34.7454C140.51 35.1067 137.976 36.9535 136.741 37.8058C135.882 38.4001 135.282 38.768 134.551 39.5388C133.972 40.1491 134.165 39.9778 133.68 40.6134L132.627 41.8968C132.808 39.8935 133.791 37.8099 133.845 35.4988C136.529 35.2927 139.148 33.458 140.277 31.6743C142.237 28.5777 141.486 26.7578 141.155 23.0791C139.068 23.5956 135.674 28.6446 134.669 30.6185L133.99 31.8723C133.96 31.9232 133.899 32.0369 133.843 32.1118C133.843 29.4168 133.437 27.9528 133.437 25.714C142.803 19.9021 137.146 14.4196 136.279 11.4127H135.468C134.464 15.4031 132.624 17.1776 132.624 22.327C129.157 17.7036 134.116 14.4718 127.638 11.141C125.744 10.1682 125.219 10.2833 122.471 10.2833C123.889 13.0225 123.396 14.7341 125.807 16.9769C129.093 20.0373 129.557 18.2054 130.594 22.327C124.595 18.6041 127.413 19.933 120.846 20.0681C121.902 23.7322 127.076 25.7246 131.811 26.09C131.811 28.5134 132.217 29.4796 132.217 32.1118C132.161 32.0356 132.096 31.8121 132.074 31.8669L131.794 31.3745C130.132 28.3983 126.952 26.5423 123.281 26.466C124.843 32.6846 126.986 32.9349 132.216 35.4975C132.001 35.9137 131.063 40.7928 130.998 41.5193L130.688 40.6776C129.911 37.8982 129.753 37.3709 126.823 35.2258C125.908 34.5541 125.316 34.2569 124.092 33.992C122.637 39.7864 127.098 41.3829 129.372 44.5303C128.982 46.0773 127.707 48.2477 126.529 49.0468H126.535Z" fill="url(#paint1_linear_1_3309)"/>
<path fill-rule="evenodd" clip-rule="evenodd" d="M76.6787 46.9873H77.7591V0H65.2793V9.88674V46.9873H76.6787Z" fill="url(#paint2_linear_1_3309)"/>
<path d="M15.6215 110.479C14.6842 110.479 13.7626 110.362 12.8566 110.128C11.9662 109.878 11.1695 109.526 10.4666 109.073L11.1461 107.363C11.7397 107.738 12.4192 108.034 13.1846 108.253C13.95 108.456 14.7233 108.558 15.5043 108.558C16.2229 108.558 16.8399 108.472 17.3554 108.3C17.8865 108.128 18.2926 107.894 18.5738 107.597C18.855 107.285 18.9956 106.925 18.9956 106.519C18.9956 105.941 18.7378 105.496 18.2224 105.184C17.7069 104.871 16.9883 104.715 16.0667 104.715H13.8172V103.098H15.9261C16.4728 103.098 16.9492 103.036 17.3554 102.911C17.7615 102.786 18.074 102.598 18.2926 102.348C18.527 102.083 18.6441 101.778 18.6441 101.435C18.6441 101.06 18.5113 100.739 18.2458 100.474C17.9802 100.208 17.6053 100.005 17.1211 99.8646C16.6524 99.724 16.0979 99.6537 15.4574 99.6537C14.8326 99.6694 14.1921 99.7553 13.5361 99.9115C12.8956 100.068 12.2395 100.31 11.5678 100.638L10.9586 98.8805C11.7084 98.5212 12.4426 98.2478 13.1612 98.0604C13.8953 97.8573 14.6217 97.748 15.3403 97.7324C16.4181 97.7011 17.3788 97.8261 18.2224 98.1073C19.0659 98.3728 19.7298 98.7633 20.214 99.2788C20.7139 99.7943 20.9638 100.404 20.9638 101.106C20.9638 101.7 20.7764 102.231 20.4015 102.7C20.0266 103.153 19.5267 103.512 18.9019 103.778C18.277 104.043 17.5585 104.176 16.7462 104.176L16.8399 103.637C18.2302 103.637 19.3236 103.91 20.1203 104.457C20.917 105.004 21.3153 105.746 21.3153 106.683C21.3153 107.433 21.0654 108.097 20.5655 108.675C20.0656 109.237 19.3861 109.682 18.527 110.01C17.6834 110.323 16.7149 110.479 15.6215 110.479Z" fill="#D9C585"/>
<path d="M24.735 110.315V97.8964H26.9844V106.941L34.5996 97.8964H36.6382V110.315H34.3887V101.271L26.797 110.315H24.735Z" fill="#D9C585"/>
<path d="M41.0043 110.315V97.8964H43.324L48.6663 107.081H47.7291L53.212 97.8964H55.3209V110.315H53.2823V100.427L53.6572 100.638L48.6429 108.909H47.6588L42.621 100.474L43.0662 100.38V110.315H41.0043Z" fill="#D9C585"/>
<path d="M67.3143 110.315V107.691L67.1971 107.199V102.723C67.1971 101.77 66.9159 101.036 66.3536 100.521C65.8069 99.9896 64.9789 99.724 63.8699 99.724C63.1357 99.724 62.4171 99.849 61.7142 100.099C61.0112 100.333 60.4176 100.653 59.9334 101.06L58.9961 99.3726C59.6366 98.8571 60.402 98.4665 61.2924 98.201C62.1984 97.9198 63.1435 97.7792 64.1276 97.7792C65.8303 97.7792 67.1424 98.1932 68.0641 99.0211C68.9857 99.849 69.4465 101.114 69.4465 102.817V110.315H67.3143ZM63.2372 110.456C62.3156 110.456 61.5033 110.299 60.8003 109.987C60.113 109.675 59.5819 109.245 59.207 108.698C58.8321 108.136 58.6446 107.503 58.6446 106.8C58.6446 106.129 58.8009 105.519 59.1133 104.973C59.4413 104.426 59.9646 103.989 60.6832 103.661C61.4174 103.332 62.4015 103.168 63.6355 103.168H67.572V104.785H63.7293C62.6046 104.785 61.8469 104.973 61.4564 105.348C61.0659 105.722 60.8706 106.175 60.8706 106.707C60.8706 107.316 61.1128 107.808 61.597 108.183C62.0813 108.542 62.753 108.722 63.6121 108.722C64.4556 108.722 65.1898 108.534 65.8147 108.159C66.4551 107.784 66.9159 107.238 67.1971 106.519L67.6423 108.066C67.3455 108.8 66.8222 109.386 66.0724 109.823C65.3226 110.245 64.3775 110.456 63.2372 110.456Z" fill="#D9C585"/>
<path d="M78.4775 110.315V108.722L85.1555 102.278C85.7491 101.716 86.1864 101.224 86.4676 100.802C86.7644 100.364 86.9597 99.9662 87.0534 99.6069C87.1628 99.232 87.2174 98.8727 87.2174 98.529C87.2174 97.6855 86.9206 97.0216 86.327 96.5374C85.7334 96.0531 84.8665 95.811 83.7261 95.811C82.8514 95.811 82.0625 95.9594 81.3596 96.2562C80.6566 96.5374 80.0474 96.9826 79.5319 97.5918L77.9386 96.2093C78.5634 95.4126 79.3991 94.8034 80.4458 94.3817C81.508 93.9443 82.6717 93.7256 83.937 93.7256C85.0774 93.7256 86.0693 93.913 86.9128 94.2879C87.7563 94.6472 88.4046 95.1705 88.8576 95.8578C89.3263 96.5452 89.5606 97.3575 89.5606 98.2947C89.5606 98.8258 89.4903 99.3491 89.3497 99.8646C89.2091 100.38 88.9435 100.927 88.553 101.505C88.1625 102.083 87.6001 102.731 86.866 103.45L80.9144 109.19L80.352 108.276H90.2635V110.315H78.4775Z" fill="#D9C585"/>
<path d="M98.8685 110.502C97.5876 110.502 96.4395 110.174 95.4241 109.518C94.4244 108.862 93.6277 107.909 93.0341 106.66C92.4561 105.41 92.1671 103.895 92.1671 102.114C92.1671 100.333 92.4561 98.818 93.0341 97.5683C93.6277 96.3187 94.4244 95.3658 95.4241 94.7097C96.4395 94.0536 97.5876 93.7256 98.8685 93.7256C100.134 93.7256 101.274 94.0536 102.289 94.7097C103.305 95.3658 104.102 96.3187 104.68 97.5683C105.257 98.818 105.546 100.333 105.546 102.114C105.546 103.895 105.257 105.41 104.68 106.66C104.102 107.909 103.305 108.862 102.289 109.518C101.274 110.174 100.134 110.502 98.8685 110.502ZM98.8685 108.417C99.7277 108.417 100.477 108.183 101.118 107.714C101.774 107.246 102.282 106.543 102.641 105.605C103.016 104.668 103.203 103.504 103.203 102.114C103.203 100.724 103.016 99.56 102.641 98.6228C102.282 97.6855 101.774 96.9826 101.118 96.5139C100.477 96.0453 99.7277 95.811 98.8685 95.811C98.0094 95.811 97.2517 96.0453 96.5957 96.5139C95.9396 96.9826 95.4241 97.6855 95.0492 98.6228C94.6899 99.56 94.5103 100.724 94.5103 102.114C94.5103 103.504 94.6899 104.668 95.0492 105.605C95.4241 106.543 95.9396 107.246 96.5957 107.714C97.2517 108.183 98.0094 108.417 98.8685 108.417Z" fill="#D9C585"/>
<path d="M107.538 110.315V108.722L114.216 102.278C114.81 101.716 115.247 101.224 115.528 100.802C115.825 100.364 116.02 99.9662 116.114 99.6069C116.223 99.232 116.278 98.8727 116.278 98.529C116.278 97.6855 115.981 97.0216 115.387 96.5374C114.794 96.0531 113.927 95.811 112.787 95.811C111.912 95.811 111.123 95.9594 110.42 96.2562C109.717 96.5374 109.108 96.9826 108.592 97.5918L106.999 96.2093C107.624 95.4126 108.46 94.8034 109.506 94.3817C110.568 93.9443 111.732 93.7256 112.997 93.7256C114.138 93.7256 115.13 93.913 115.973 94.2879C116.817 94.6472 117.465 95.1705 117.918 95.8578C118.387 96.5452 118.621 97.3575 118.621 98.2947C118.621 98.8258 118.551 99.3491 118.41 99.8646C118.27 100.38 118.004 100.927 117.613 101.505C117.223 102.083 116.661 102.731 115.926 103.45L109.975 109.19L109.412 108.276H119.324V110.315H107.538Z" fill="#D9C585"/>
<path d="M126.265 110.502C125.109 110.502 123.984 110.323 122.891 109.964C121.813 109.604 120.93 109.12 120.243 108.511L121.321 106.66C121.867 107.175 122.578 107.597 123.453 107.925C124.328 108.253 125.265 108.417 126.265 108.417C127.483 108.417 128.428 108.159 129.1 107.644C129.787 107.113 130.131 106.402 130.131 105.512C130.131 104.652 129.803 103.965 129.147 103.45C128.506 102.919 127.483 102.653 126.077 102.653H124.765V101.013L129.639 95.0143L129.967 95.9516H120.993V93.913H131.818V95.5064L126.968 101.481L125.749 100.755H126.523C128.506 100.755 129.99 101.2 130.975 102.091C131.974 102.981 132.474 104.114 132.474 105.488C132.474 106.41 132.248 107.253 131.795 108.019C131.342 108.784 130.654 109.393 129.733 109.846C128.827 110.284 127.671 110.502 126.265 110.502Z" fill="#D9C585"/>
<defs>
<linearGradient id="paint0_linear_1_3309" x1="21.1197" y1="9.93896" x2="21.1197" y2="67.7694" gradientUnits="userSpaceOnUse">
<stop stop-color="#D1A460"/>
<stop offset="1" stop-color="#D9C586"/>
</linearGradient>
<linearGradient id="paint1_linear_1_3309" x1="120.848" y1="10.2791" x2="120.848" y2="67.2059" gradientUnits="userSpaceOnUse">
<stop stop-color="#D1A460"/>
<stop offset="1" stop-color="#D9C586"/>
</linearGradient>
<linearGradient id="paint2_linear_1_3309" x1="71.5191" y1="0" x2="71.5191" y2="46.9873" gradientUnits="userSpaceOnUse">
<stop stop-color="#D1A460"/>
<stop offset="1" stop-color="#D9C586"/>
</linearGradient>
</defs>
</svg>
