<svg width="141" height="109" viewBox="0 0 141 109" fill="none" xmlns="http://www.w3.org/2000/svg">
<path fill-rule="evenodd" clip-rule="evenodd" d="M68.5883 55.5513L68.7487 55.0316L70.5712 53.8013L72.4465 55.0316L72.6069 55.5513L76.291 58.2679L70.5712 55.4283L64.8496 58.2679L68.5883 55.5513ZM74.1907 59.2121V58.1175L70.4558 56.2205L68.7899 57.0675L68.7884 57.2107L67.5921 57.8334L66.4894 59.6374V58.4089L65.3619 58.9959L65.5374 59.0058L65.0026 59.3719L65.5871 59.1856V60.9747L65.842 61.3062L62.9677 60.0612L62.6667 59.9203L58.6724 57.948L58.5768 58.7722L56.0781 56.9656L58.7372 61.297L59.3278 59.7444L66.5661 62.1767L66.5041 62.1406L66.4894 61.105L66.8835 60.4603L67.91 62.1389L69.2363 62.5479L67.3918 59.6341L68.787 57.3421L68.7746 58.522L73.2574 60.7953V61.1404L72.1405 61.4772L69.5684 60.1696V59.539H68.6641V60.6501L72.0317 62.3621L74.1737 61.7182L74.1941 60.1663L69.6942 57.8797V57.5462L70.4558 57.1599L73.2863 58.5979V59.2121H74.1907ZM76.089 59.2173L74.5914 58.4535L74.5762 62.1757L74.5816 62.1727L74.5762 62.1767L81.9354 59.7912L82.4713 61.2123L85.0641 56.9656L82.6277 58.7362L82.5345 57.93L76.54 60.7342L76.4924 60.7691L75.3958 61.241L75.5712 61.0866V59.3536L75.4026 59.15L76.089 59.2173ZM69.5153 62.4756L68.6641 61.059L69.4635 61.6505L69.4936 61.3816L71.7151 62.5479L69.7039 61.9681L69.5153 62.4756ZM65.0419 60.5015L63.6608 58.2003L63.3535 59.0256L60.084 58.0821L63.6938 59.979L63.7434 59.5414L65.0419 60.5015ZM77.2949 58.2003L75.9121 60.5015L77.2107 59.5431L77.2619 59.9807L80.8701 58.0821L77.6022 59.0256L77.2949 58.2003ZM69.8082 62.1767L71.526 62.5873L70.5381 62.9211L69.6191 62.6122L70.2236 62.6007L69.8082 62.1767ZM64.0898 67.7599L65.2072 63.2213L64.5682 62.5173L64.5192 62.1767L67.0311 62.8644L68.0943 67.4031L66.7285 67.528L66.5781 66.5498L65.6517 66.7526L65.5216 67.6383L64.0898 67.7599ZM66.4479 65.7485L66.1149 63.6982L65.7887 65.8459L66.4479 65.7485ZM61.5689 69.2899L60.6543 73.343H61.9068L62.0382 72.3926H62.8887L63.0249 73.343H64.2774L63.2267 68.5042L60.9474 68.7256L60.9586 68.9104L61.5689 69.2899ZM62.4482 69.5113L62.759 71.537H62.1599L62.4482 69.5113ZM80.6732 73.343L79.7105 69.2899L80.3528 68.9104L80.3646 68.7256L77.9654 68.5042L76.8594 73.343H78.1779L78.3212 72.3926H79.2164L79.3547 73.343H80.6732ZM78.4577 71.537L78.7848 69.5113L79.0883 71.537H78.4577ZM64.1098 68.9217L64.0898 68.4006L66.9492 68.1316L67.4868 68.7246L67.5584 70.8173L67.1007 71.2315L67.8846 72.9986L68.0927 73.0922L68.0943 73.3377H66.881L66.1969 71.4537H65.6227V73.3427L64.5675 73.3377V69.229L64.1098 68.9217ZM65.5312 69.3609L65.5229 70.5384L66.1853 70.5501L66.4682 70.2762L66.4532 68.92L65.16 69.0753L65.5312 69.3609ZM77.8203 61.8121V67.8483L82.7646 68.3182L82.7783 67.83L81.9762 66.7125L79.4809 66.7722L79.4792 65.3093L80.8645 65.2412L80.9688 63.9841L79.5254 64.0838V62.9861L78.8379 62.8533L80.9158 62.4913L81.4802 61.2841L81.34 60.8739L77.8203 61.8121ZM68.4746 73.3425V68.1276L70.5612 67.9454L71.7163 68.0527L71.6832 68.3423L71.2109 69.0791L70.4601 68.9636L68.9784 69.0791L69.653 69.2873L69.6546 70.1999H70.9855V71.1271H69.6613V72.3064H71.1595L71.6832 73.066V73.3425H68.4746ZM72.4904 73.3425L72.6035 68.6389L72.2891 68.2921L72.319 67.9454L73.9927 68.0894L75.1706 71.0845L75.1872 68.8918L74.7131 68.5769V68.1715L76.2936 68.3206L76.2902 73.3425L74.8412 73.3408L73.6167 70.1146V73.3425H72.4904ZM59.7162 61.2017L59.79 60.8739L63.0605 61.7948L63.7048 62.5229L63.4064 64.2493L62.8392 64.7699L63.4064 65.3349V67.3298L62.6506 67.9805L58.9375 68.3182L60.1572 61.8458L59.7162 61.2017ZM61.6228 67.0152L60.3228 67.0597L60.7392 65.2822L61.9342 65.2657L61.9064 66.7384L61.6228 67.0152ZM62.09 64.2081L60.9162 64.1834L61.1392 62.9957L60.89 62.4899L62.3572 62.7815L62.09 64.2081ZM68.4703 64.5361V63.9506L67.8739 63.803L67.8017 63.9473L67.5215 64.012L67.5473 62.9206L70.5725 63.7698V64.6953L70.2786 64.5543L70.2012 64.3735L69.6237 64.2325V64.5178V64.8993L69.622 66.9759L69.8248 67.0372V67.2462L68.264 67.3872V67.1766L68.4686 67.0804L68.4703 64.5361ZM72.8639 63.9506V64.5361L72.8656 67.0804L73.0702 67.1766V67.3872L71.5094 67.2462V67.0372L71.714 66.9759L71.7105 64.8993V64.5178V64.2325L71.133 64.3735L71.0556 64.5543L70.7617 64.6953V63.7698L73.787 62.9206L73.8128 64.012L73.5326 63.9473L73.4621 63.803L72.8639 63.9506ZM74.1934 63.0084V62.8136L75.8362 62.3618L75.7974 66.7636L77.4115 66.7784L77.4351 67.7589L74.6702 67.5085V63.1868L74.1934 63.0084ZM59.8249 72.3054L55.125 75.5339L58.5895 74.7814L58.3746 75.46L67.2121 75.0673L67.2843 75.5553L67.4404 76.0762L70.5692 78.2565L73.792 76.0762L73.9532 75.5372L74.0237 75.0673L82.7655 75.4567L82.5523 74.7814L86.0168 75.5339L81.3169 72.3054L81.4294 74.254H59.7124L59.8249 72.3054ZM70.4418 76.1276C70.4407 76.1256 70.4365 76.1198 70.4306 76.1118L70.4183 76.0948L70.4146 76.0896C70.3882 76.0525 70.3546 76.0052 70.3562 75.988C70.3562 75.9777 70.3897 75.9255 70.4148 75.8863L70.4233 75.873L70.4401 75.8483L70.4468 75.8352H70.6348L70.6432 75.8467C70.647 75.8531 70.6571 75.8694 70.6688 75.8883L70.6969 75.9338C70.7087 75.9551 70.7187 75.9748 70.7204 75.9814L70.7221 75.9831C70.7238 75.9929 70.7137 76.0192 70.6986 76.0455C70.6785 76.08 70.6516 76.1227 70.6449 76.1309L70.6382 76.1391L70.4502 76.1408L70.4418 76.1276ZM69.8106 75.712C69.8 75.7198 69.781 75.7296 69.7627 75.7391L69.7485 75.7465L69.7284 75.758L69.6898 75.7793L69.6613 75.7941C69.6596 75.8138 69.6596 75.85 69.6596 75.8746L69.6881 75.8894C69.725 75.9075 69.7284 75.9091 69.7553 75.8943C69.7888 75.8779 69.8207 75.8598 69.8526 75.8401L69.8761 75.827L69.9147 75.804L69.9282 75.7963C69.9433 75.7876 69.9532 75.7819 69.9651 75.7793C69.9852 75.7744 69.997 75.781 70.0221 75.7957L70.0473 75.8089L70.0671 75.8199C70.1024 75.8395 70.148 75.8648 70.1564 75.873L70.1732 75.8943L70.1497 75.9091C70.139 75.9175 70.1262 75.9252 70.1132 75.9331C70.1104 75.9348 70.1076 75.9365 70.1048 75.9382C70.1002 75.941 70.0955 75.9439 70.091 75.9469L70.0574 75.9666C70.0473 75.9732 70.0389 75.9781 70.0272 75.9847L70.0188 75.9913C70.0246 75.9941 70.0308 75.9976 70.0369 76.001C70.0447 76.0055 70.0524 76.0098 70.0591 76.0126L70.0843 76.0258L70.0966 76.0326C70.1187 76.0447 70.1455 76.0594 70.1581 76.0718C70.1665 76.08 70.1766 76.0948 70.1833 76.1046L70.1531 76.1161C70.1413 76.1211 70.1245 76.1309 70.1094 76.1408C70.1057 76.1436 70.1019 76.1458 70.0975 76.1484C70.0941 76.1504 70.0903 76.1527 70.0859 76.1556L70.054 76.1736L70.0414 76.1806C70.0192 76.1928 70.0059 76.2002 69.9903 76.2016C69.9701 76.2016 69.9584 76.195 69.9332 76.1802L69.9114 76.1671L69.8654 76.1411L69.8653 76.141C69.8293 76.1207 69.794 76.1008 69.7586 76.08C69.7418 76.0701 69.7418 76.0701 69.7167 76.0816L69.7116 76.0849C69.6948 76.0931 69.6646 76.1079 69.6629 76.1096V76.1523V76.1917L69.7485 76.2328L69.7515 76.2342C69.7822 76.2484 69.8092 76.2609 69.8174 76.2673L69.8375 76.2821L69.8224 76.3018C69.8107 76.3166 69.7804 76.3314 69.7603 76.3412L69.7485 76.3462L69.7267 76.3577L69.6923 76.376C69.6479 76.3995 69.6032 76.4233 69.5605 76.448V76.4694V76.5154C69.5616 76.5282 69.562 76.5327 69.5645 76.5352C69.5658 76.5365 69.5677 76.5373 69.5706 76.5384C69.5713 76.539 69.5724 76.5397 69.5738 76.5403C69.5748 76.5408 69.5759 76.5412 69.577 76.5417L69.5807 76.5433L69.5958 76.55C69.6013 76.5524 69.6064 76.5547 69.6109 76.5565C69.6411 76.5713 69.6462 76.5729 69.678 76.5565C69.701 76.5458 69.723 76.5335 69.7448 76.5213L69.7449 76.5213L69.7704 76.5072L69.7972 76.4924C69.8274 76.4743 69.8862 76.4398 69.908 76.4415L69.9332 76.4431L69.9349 76.6255C69.9378 76.6283 69.9418 76.6306 69.946 76.633C69.949 76.6348 69.9522 76.6366 69.955 76.6386C69.9584 76.6403 69.9718 76.6485 69.9735 76.6518C69.9764 76.6532 69.9794 76.6559 69.982 76.6584C69.9854 76.6615 69.9884 76.6642 69.9903 76.6633C69.9997 76.6602 70.0296 76.6413 70.0527 76.6268L70.0574 76.6238L70.0641 76.6206L70.0675 76.3445L70.0775 76.338C70.0876 76.3314 70.1413 76.2985 70.185 76.2755C70.2169 76.2591 70.2437 76.2459 70.2538 76.2459L70.2773 76.2476V76.2706V76.3215C70.2756 76.356 70.2756 76.3938 70.2773 76.4267C70.2876 76.4206 70.2992 76.4127 70.3113 76.4044C70.3189 76.3992 70.3266 76.3939 70.3344 76.3889C70.3696 76.3642 70.4049 76.3412 70.4267 76.338L70.4552 76.333L70.4569 76.5515L70.4435 76.5581C70.43 76.5663 70.3461 76.6156 70.2806 76.6518C70.2538 76.6682 70.2286 76.6814 70.2118 76.6896L70.2135 76.7684C70.2213 76.775 70.2307 76.7801 70.24 76.7852L70.2401 76.7853C70.2447 76.7878 70.2493 76.7904 70.2538 76.7931L70.2639 76.798C70.268 76.8001 70.2708 76.8018 70.2727 76.8032C70.2735 76.8038 70.2742 76.8043 70.2747 76.8047C70.2759 76.8057 70.2766 76.8062 70.2773 76.8062C70.2777 76.8058 70.2779 76.8055 70.278 76.8053C70.2781 76.8052 70.2782 76.8051 70.2782 76.8049C70.2785 76.8045 70.2787 76.804 70.2798 76.8031C70.2804 76.8026 70.2812 76.802 70.2823 76.8013L70.3109 76.7849C70.3444 76.7651 70.4132 76.7257 70.4284 76.7241L70.4569 76.7191L70.4586 76.7471C70.4611 76.7889 70.4608 76.8317 70.4605 76.8748L70.4602 76.9179V76.9787C70.4602 76.9919 70.4602 77.01 70.4619 77.0165C70.4619 77.0174 70.4642 77.0187 70.4679 77.0208C70.4715 77.0229 70.4764 77.0257 70.4821 77.0297C70.5072 77.0461 70.5358 77.0625 70.5375 77.0625C70.5375 77.0625 70.5727 77.0395 70.5895 77.0297C70.5912 77.0297 70.5996 77.0247 70.6012 77.0231C70.6063 77.0198 70.6096 77.0165 70.6113 77.0132C70.6124 77.0067 70.6121 76.998 70.6117 76.9891C70.6115 76.9845 70.6113 76.9799 70.6113 76.9755V76.964V76.9639C70.6113 76.9113 70.6113 76.8604 70.613 76.8095L70.6147 76.7208L70.6432 76.7241C70.6577 76.7256 70.7017 76.75 70.7394 76.7708L70.7439 76.7734C70.7657 76.7865 70.7842 76.7964 70.7943 76.8013C70.801 76.8046 70.8043 76.8029 70.8111 76.7996L70.8295 76.7914L70.8429 76.7851L70.8429 76.7851C70.8542 76.7798 70.8602 76.777 70.8614 76.7734C70.8648 76.7701 70.8648 76.7569 70.8648 76.7306V76.7224C70.8664 76.6922 70.8617 76.6897 70.8446 76.6806L70.8429 76.6797L70.801 76.6551L70.7674 76.637L70.7473 76.6258L70.7471 76.6257C70.7376 76.6203 70.7276 76.6147 70.7171 76.6091C70.6868 76.591 70.6533 76.5713 70.6298 76.5614L70.6147 76.5548L70.618 76.333L70.6482 76.338C70.663 76.3406 70.6993 76.3622 70.7235 76.3766L70.7389 76.3856L70.7422 76.3889C70.7485 76.392 70.7587 76.3982 70.7696 76.4049C70.7734 76.4072 70.7772 76.4096 70.7811 76.4119C70.7838 76.4136 70.7866 76.4153 70.7892 76.4168L70.7943 76.241L70.8245 76.2509C70.8362 76.2525 70.8664 76.2689 70.8983 76.287C70.942 76.31 70.9907 76.338 71.0041 76.3478L71.0142 76.3544L71.0158 76.3675V76.5154V76.5499C71.0158 76.558 71.0153 76.5652 71.0149 76.5716L71.0149 76.5717C71.0145 76.5769 71.0142 76.5816 71.0142 76.5861C71.0125 76.6271 71.0125 76.6288 71.0612 76.6534L71.0628 76.6551L71.0648 76.656C71.0798 76.6634 71.0821 76.6645 71.0998 76.6551L71.1233 76.6419L71.1359 76.6348C71.1442 76.6301 71.1484 76.6278 71.1484 76.6255C71.1518 76.6189 71.1518 76.6041 71.1518 76.5811C71.1501 76.5548 71.1501 76.5203 71.1535 76.4694L71.1552 76.4365L71.1854 76.4464C71.1982 76.4506 71.2122 76.4583 71.2254 76.4656L71.2324 76.4694C71.2523 76.4805 71.2726 76.4915 71.293 76.5025C71.3328 76.524 71.3731 76.5457 71.412 76.5696C71.417 76.5729 71.417 76.5729 71.4304 76.5663C71.4377 76.5635 71.4444 76.5606 71.4505 76.558L71.4506 76.558L71.4507 76.5579C71.4584 76.5546 71.4651 76.5517 71.4707 76.5499C71.4959 76.54 71.5009 76.5368 71.5026 76.5138V76.4447V76.4398C71.4959 76.4349 71.4439 76.4086 71.4137 76.3938L71.3683 76.3675C71.3331 76.3478 71.2777 76.3166 71.2676 76.3034L71.2508 76.2821L71.271 76.2673C71.2945 76.2509 71.3213 76.2361 71.3482 76.2229L71.3667 76.2131C71.3801 76.2065 71.3935 76.1983 71.4036 76.1917C71.4086 76.1884 71.4086 76.1802 71.4086 76.1687V76.1572C71.4086 76.1129 71.4069 76.1112 71.3734 76.0882H71.3717C71.3477 76.071 71.3466 76.0717 71.3364 76.0774L71.3348 76.0784C71.332 76.0797 71.3292 76.0814 71.3259 76.0833C71.3213 76.086 71.3158 76.0893 71.3079 76.0931L71.2804 76.1075C71.2603 76.1181 71.2396 76.129 71.2189 76.1391C71.2047 76.1474 71.19 76.1556 71.1753 76.1638L71.1751 76.1639C71.1605 76.1721 71.1459 76.1802 71.1317 76.1884C71.0981 76.2082 71.0914 76.2049 71.0679 76.1917L71.0578 76.1851L71.0293 76.172L71.0182 76.1666C70.9847 76.1503 70.9504 76.1336 70.9202 76.1129L70.9 76.0997L70.9134 76.0784C70.926 76.0614 70.9564 76.0459 70.9892 76.0291L70.9957 76.0258C71.0083 76.0186 71.021 76.012 71.0324 76.0061L71.0511 75.9962L71.0377 75.9863C71.0276 75.9814 71.0158 75.9748 71.0041 75.9666L70.9994 75.9639C70.9685 75.9465 70.9328 75.9263 70.9185 75.9091L70.9017 75.891L70.9202 75.8746C70.9269 75.868 70.9756 75.8352 71.0175 75.8089C71.0511 75.7859 71.0847 75.7678 71.0931 75.7678L71.0981 75.7662L71.1031 75.7678C71.1172 75.7724 71.1516 75.7926 71.1766 75.8073L71.182 75.8105C71.2173 75.8302 71.2525 75.85 71.2878 75.8713C71.3062 75.8828 71.3448 75.9058 71.3482 75.9075L71.3717 75.896L71.3859 75.8874C71.3956 75.8815 71.4053 75.8757 71.412 75.8713L71.4103 75.7925C71.3918 75.7826 71.3599 75.7645 71.3314 75.7481C71.3029 75.7333 71.276 75.7169 71.2676 75.7103L71.2475 75.6939L71.2643 75.6758C71.2777 75.661 71.3532 75.6199 71.4019 75.5937L71.4388 75.5739C71.4516 75.5664 71.4635 75.5598 71.4736 75.5542L71.4825 75.5493C71.4976 75.5427 71.506 75.5378 71.5077 75.5345C71.5093 75.5329 71.5093 75.523 71.5093 75.5016V75.4803V75.4639C71.511 75.4556 71.511 75.4474 71.5093 75.4474C71.5043 75.4441 71.4774 75.4277 71.4556 75.4146C71.4513 75.4121 71.4481 75.4099 71.4457 75.4081C71.4442 75.407 71.443 75.406 71.442 75.4052C71.4404 75.4038 71.4395 75.4031 71.4388 75.4031C71.4351 75.4031 71.3992 75.4228 71.3625 75.4431L71.3247 75.4639L71.3035 75.4753C71.292 75.4815 71.2831 75.4864 71.2777 75.4885L71.2681 75.4939C71.2643 75.496 71.2603 75.4982 71.2562 75.5006C71.2539 75.5019 71.2515 75.5034 71.2492 75.5049L71.2491 75.5049C71.2273 75.5164 71.2055 75.5279 71.1854 75.5345L71.1535 75.546L71.1518 75.5131C71.1501 75.4934 71.1501 75.4754 71.1501 75.4573V75.3998V75.3784C71.1518 75.3571 71.1518 75.3456 71.1367 75.339L71.0964 75.3209C71.0763 75.3127 71.0696 75.316 71.0561 75.3242L71.0463 75.3293C71.0376 75.334 71.0267 75.3398 71.0125 75.3456L71.0074 75.6495L70.9923 75.6544C70.9806 75.6594 70.9487 75.6758 70.9185 75.6939L70.9065 75.7002C70.8674 75.7209 70.8315 75.7399 70.8178 75.7399H70.7943L70.7876 75.5559C70.782 75.5598 70.7749 75.564 70.7672 75.5687L70.7672 75.5687C70.7586 75.5738 70.7494 75.5794 70.7406 75.5854C70.7036 75.6084 70.6667 75.6314 70.6449 75.6347L70.6163 75.6364V75.4178L70.8698 75.2798V75.2092C70.8581 75.201 70.8429 75.1911 70.8295 75.1829L70.8111 75.1697C70.8073 75.1679 70.8067 75.1666 70.8063 75.1658C70.806 75.1651 70.8058 75.1648 70.8043 75.1648C70.8037 75.1648 70.8035 75.1651 70.8033 75.1655C70.803 75.1661 70.8024 75.1671 70.7993 75.1681L70.7641 75.1878C70.7271 75.2092 70.665 75.2437 70.6449 75.2486L70.6147 75.2552L70.613 74.9939V74.9792L70.6132 74.9703C70.6135 74.9629 70.6138 74.9573 70.6113 74.9561L70.5945 74.9446C70.5876 74.9401 70.5793 74.9345 70.5713 74.929C70.5559 74.9184 70.5413 74.9085 70.5391 74.9085C70.5359 74.9109 70.5304 74.914 70.5238 74.9177L70.5238 74.9177C70.5202 74.9197 70.5164 74.9219 70.5124 74.9242C70.5085 74.9265 70.5044 74.9289 70.5005 74.9315C70.4854 74.9397 70.4703 74.9496 70.4602 74.9578L70.4586 75.2503L70.43 75.2486C70.4149 75.247 70.3394 75.2042 70.3075 75.1862L70.2991 75.1812C70.2746 75.1668 70.2723 75.168 70.2552 75.1772L70.2538 75.178L70.2478 75.1819C70.239 75.1878 70.2282 75.1949 70.2118 75.2042L70.2101 75.2798C70.2336 75.293 70.2689 75.3127 70.2957 75.3291L70.3209 75.3439C70.3324 75.3506 70.3438 75.3566 70.3558 75.3628L70.373 75.3718L70.3879 75.3801C70.4069 75.3906 70.4262 75.4012 70.4435 75.4129L70.4552 75.4195L70.4569 75.4474L70.457 75.4793C70.4573 75.524 70.4576 75.5724 70.4535 75.6134L70.4502 75.6429L70.4216 75.6347C70.3946 75.6264 70.3688 75.6121 70.3431 75.598L70.3293 75.5904C70.3109 75.5789 70.2924 75.5674 70.2739 75.5591C70.2722 75.5805 70.2722 75.6084 70.2722 75.6347V75.6348C70.2722 75.6627 70.2722 75.6922 70.2706 75.7152L70.2655 75.7465L70.2353 75.7366C70.2154 75.7293 70.1872 75.713 70.1596 75.697C70.15 75.6914 70.1404 75.6858 70.1312 75.6807L70.1061 75.6659L70.0759 75.6495H70.0591V75.6265L70.0574 75.6232V75.3587L70.0221 75.339C70.0163 75.3357 70.0112 75.3324 70.0068 75.3295L70.0068 75.3295C70.0024 75.3266 69.9986 75.3242 69.9953 75.3225C69.9886 75.3176 69.9852 75.316 69.9802 75.3193L69.9265 75.3538L69.9231 75.546L69.8946 75.5427C69.8788 75.5412 69.7783 75.4844 69.7301 75.4571L69.7301 75.4571L69.7217 75.4523L69.6965 75.4392C69.6915 75.4359 69.6861 75.4327 69.6807 75.4294L69.6806 75.4293C69.6762 75.4267 69.6718 75.424 69.6676 75.4214C69.6666 75.4208 69.6656 75.4201 69.6646 75.4195L69.6545 75.4146L69.6517 75.4131C69.6463 75.4104 69.6421 75.4082 69.6378 75.4096C69.6276 75.4141 69.6174 75.4193 69.6077 75.4242L69.6077 75.4242L69.5941 75.431L69.5639 75.4474V75.5394C69.6126 75.569 69.6898 75.6084 69.7485 75.638L69.7754 75.6512C69.7989 75.6643 69.8157 75.6758 69.8358 75.6906L69.8106 75.712Z" fill="#BABABA"/>
<path fill-rule="evenodd" clip-rule="evenodd" d="M13.6344 49.4373C12.9476 49.2644 7.72512 46.4113 2.80651 46.0237C4.16648 51.5444 10.0123 55.8915 16.8429 52.4724C18.426 54.7087 20.0591 55.0035 22.0558 56.6466C13.392 55.9643 15.6811 56.6466 10.0257 56.6466C12.4571 60.0821 17.1968 62.6077 21.6596 60.8263C23.662 60.0275 23.7871 59.478 25.2644 58.5427L29.6367 60.0966C29.9925 60.2258 30.1041 60.2477 30.4984 60.4187C31.2813 60.759 30.8312 60.5242 31.2775 60.819C27.8324 60.819 22.8118 63.0517 20.4516 64.2344C21.6846 65.8266 25.6972 67.084 29.1827 66.4253C31.87 65.9176 34.0994 63.7086 35.2901 61.5796C36.4519 62.1073 39.8451 62.3384 41.7072 62.3384C41.4898 59.8728 40.7896 61.1848 35.6921 60.062C35.5729 55.0508 32.9356 50.8038 28.4748 49.8194C28.4748 56.1553 29.7329 56.1681 31.6814 58.923C30.4984 58.8302 27.0802 57.4855 26.0684 57.0269C27.1783 52.5215 26.3704 46.6351 22.4598 45.647C22.327 47.1482 21.5114 48.7931 21.3326 50.3052C21.0729 52.4797 22.0462 53.0729 22.4598 54.7506C20.6131 53.8262 19.1839 52.9401 18.049 51.3351C18.7107 48.653 22.202 45.2285 19.2512 39.9552C17.7104 40.3446 16.8987 41.7639 16.162 43.1014C15.2156 44.8154 15.2425 45.8326 15.2425 48.3C14.0787 47.4939 12.8188 45.3067 12.4341 43.7473C14.6789 40.5757 19.0858 38.9654 17.647 33.1262C13.6344 34.0105 12.0051 36.8219 11.1356 39.8643L10.8298 40.714C10.7663 39.9807 9.83914 35.0623 9.62754 34.6438C14.7885 32.0617 16.9064 31.807 18.4491 25.5402C15.683 25.5984 12.8803 26.9122 11.1202 28.8483L9.90839 30.737C9.87376 30.8025 9.79682 30.9317 9.76796 30.9845C9.73911 31.0373 9.68333 31.1537 9.62754 31.2302C9.62754 28.5772 10.0276 27.6037 10.0276 25.1599C14.7058 24.7923 19.8129 22.7835 20.8555 19.0896C18.3029 19.0369 18.1029 18.2908 15.2156 19.066C12.7495 19.7265 12.888 20.3161 11.2299 21.3678C12.2532 17.2118 12.7072 19.0624 15.9561 15.9745C18.3356 13.7127 17.8489 11.9877 19.2493 9.2273C16.6102 9.2273 16.16 9.09265 14.4096 9.95879C7.70588 13.2741 12.711 16.6204 9.22551 21.366C9.22551 16.1746 7.40965 14.3859 6.41708 10.3646H5.61494C5.18983 11.8712 2.59107 14.6752 3.34511 18.5638C4.00875 21.9847 5.9785 23.2311 8.42338 24.7796C8.42338 27.0359 8.02135 28.5135 8.02135 31.2283C7.65202 30.7243 3.77407 22.8745 0.802135 22.1248C0.48859 25.6949 -0.25776 27.4071 1.5254 30.5442C2.62569 32.4821 5.26678 34.4254 8.02135 34.6419C8.07713 36.9711 9.04662 39.0709 9.22359 41.0907C7.38849 39.0927 8.31566 39.191 5.16098 36.9674C3.94143 36.1086 1.43884 34.2471 0 33.8832C0 37.5697 0.823294 39.5476 2.55452 41.7075C4.32422 43.9166 6.84796 44.5043 10.8259 44.5043C11.303 45.3541 11.6088 46.1037 12.1571 47.039C12.9438 48.3801 13.2708 48.1508 13.6324 49.4355L13.6344 49.4373Z" fill="url(#paint0_linear_1_3274)"/>
<path fill-rule="evenodd" clip-rule="evenodd" d="M125.086 46.4023C125.086 43.6256 124.243 38.8582 121.075 38.0575C118.109 43.3617 121.604 46.7025 122.277 49.4374C121.142 51.0423 119.713 51.9267 117.867 52.8529C118.28 51.1752 119.253 50.582 118.994 48.4075C118.815 46.8954 117.999 45.2487 117.867 43.7493C113.956 44.7355 113.148 50.6238 114.256 55.1292C113.244 55.5896 109.826 56.9325 108.643 57.0253C110.593 54.2704 111.851 54.2576 111.851 47.9217C107.389 48.9043 104.752 53.1531 104.634 58.1643C99.6233 59.2688 98.8365 57.9642 98.6191 60.4407C100.481 60.4407 103.874 60.2096 105.034 59.6819C106.225 61.8109 108.454 64.0217 111.142 64.5276C114.627 65.1863 118.64 63.9289 119.873 62.3367C117.511 61.154 112.492 58.9213 109.045 58.9213L110.395 58.3008C111.047 58.0533 111.353 57.9696 111.853 57.784C112.858 57.411 113.981 56.8833 115.06 56.645C116.455 57.5275 116.462 57.9878 118.384 58.8103C123.051 60.8064 127.827 58.2371 130.297 54.7471C124.641 54.7471 126.93 54.0647 118.267 54.7471L121.081 52.8565C122.054 52.2069 122.818 51.51 123.48 50.5729C130.308 53.9919 136.156 49.6449 137.514 44.1241C135.866 44.2533 133.321 45.0012 131.743 45.4925C128.727 46.4314 127.573 47.3158 126.688 47.5378L129.495 42.6066C136.912 42.6066 140.322 39.1802 140.322 31.9855C138.884 32.3494 136.381 34.2109 135.161 35.0697C134.313 35.6684 133.721 36.0396 132.997 36.8165C132.426 37.4316 132.617 37.2587 132.138 37.8992L131.099 39.193C131.278 37.1732 132.247 35.0734 132.301 32.7442C134.952 32.5368 137.539 30.6881 138.653 28.8903C140.588 25.7696 139.845 23.9336 139.52 20.2271C137.46 20.7475 134.109 25.837 133.117 27.8258L132.447 29.0886C132.418 29.1396 132.357 29.2542 132.301 29.3306C132.301 26.6139 131.901 25.1382 131.901 22.8819C141.148 17.0245 135.564 11.4965 134.708 8.46686H133.905C132.915 12.4882 131.099 14.2769 131.099 19.4683C127.675 14.8082 132.572 11.5511 126.176 8.19209C124.307 7.21132 123.789 7.32778 121.075 7.32778C122.475 10.0881 121.989 11.8131 124.368 14.0749C127.613 17.1592 128.071 15.3123 129.094 19.4683C123.172 15.7162 125.953 17.0555 119.471 17.1919C120.513 20.8858 125.622 22.8928 130.299 23.2622C130.299 25.7059 130.699 26.6776 130.699 29.3324C130.643 29.256 130.58 29.0304 130.558 29.0868L130.281 28.59C128.641 25.5895 125.501 23.7189 121.875 23.6425C123.418 29.9093 125.534 30.1622 130.697 32.7461C130.485 33.1646 129.558 38.083 129.495 38.8163L129.189 37.9665C128.423 35.1643 128.265 34.633 125.374 32.4713C124.47 31.7944 123.885 31.4942 122.677 31.2285C121.241 37.0695 125.646 38.678 127.89 41.8496C127.506 43.409 126.246 45.5962 125.084 46.4023H125.086Z" fill="url(#paint1_linear_1_3274)"/>
<path fill-rule="evenodd" clip-rule="evenodd" d="M65.8937 45.8126H66.9344V0H54.9023V9.63853V45.8126H65.8937Z" fill="url(#paint2_linear_1_3274)"/>
<path fill-rule="evenodd" clip-rule="evenodd" d="M86.048 45.8126H87.0867V0H75.0547V9.63853V45.8126H86.048Z" fill="url(#paint3_linear_1_3274)"/>
<path d="M15.2942 108.149C14.3767 108.149 13.4746 108.034 12.5876 107.805C11.716 107.56 10.9362 107.216 10.248 106.773L10.9132 105.098C11.4943 105.465 12.1595 105.756 12.9088 105.97C13.658 106.169 14.415 106.268 15.1796 106.268C15.883 106.268 16.487 106.184 16.9916 106.016C17.5115 105.848 17.9091 105.618 18.1843 105.328C18.4596 105.022 18.5972 104.67 18.5972 104.273C18.5972 103.707 18.3449 103.271 17.8403 102.965C17.3357 102.66 16.6322 102.507 15.73 102.507H13.5281V100.924H15.5924C16.1276 100.924 16.594 100.863 16.9916 100.74C17.3892 100.618 17.695 100.435 17.9091 100.19C18.1385 99.93 18.2531 99.6318 18.2531 99.2954C18.2531 98.9284 18.1232 98.6149 17.8632 98.3549C17.6033 98.095 17.2363 97.8962 16.7622 97.7586C16.3035 97.621 15.7606 97.5521 15.1337 97.5521C14.522 97.5674 13.8951 97.6515 13.2528 97.8045C12.6259 97.9574 11.9836 98.1944 11.3261 98.5155L10.7297 96.7952C11.4637 96.4435 12.1824 96.1759 12.8858 95.9924C13.6045 95.7936 14.3156 95.6866 15.019 95.6713C16.0741 95.6407 17.0145 95.763 17.8403 96.0383C18.666 96.2982 19.3159 96.6805 19.7899 97.1851C20.2793 97.6898 20.5239 98.2861 20.5239 98.9743C20.5239 99.5553 20.3404 100.075 19.9734 100.534C19.6064 100.977 19.1171 101.329 18.5055 101.589C17.8938 101.849 17.1904 101.979 16.3952 101.979L16.487 101.451C17.8479 101.451 18.9183 101.719 19.6982 102.254C20.4781 102.789 20.868 103.516 20.868 104.433C20.868 105.167 20.6233 105.817 20.134 106.383C19.6447 106.933 18.9795 107.369 18.1385 107.69C17.3127 107.996 16.3646 108.149 15.2942 108.149Z" fill="#E0E0E0"/>
<path d="M24.2156 107.989V95.8319H26.4175V104.686L33.8721 95.8319H35.8677V107.989H33.6657V99.1348L26.234 107.989H24.2156Z" fill="#E0E0E0"/>
<path d="M40.1417 107.989V95.8319H42.4125L47.6422 104.823H46.7247L52.092 95.8319H54.1564V107.989H52.1608V98.3091L52.5278 98.5155L47.6193 106.612H46.6559L41.7244 98.3549L42.1602 98.2632V107.989H40.1417Z" fill="#E0E0E0"/>
<path d="M65.8968 107.989V105.42L65.7821 104.938V100.557C65.7821 99.6241 65.5069 98.9054 64.9564 98.4008C64.4212 97.8809 63.6107 97.621 62.5251 97.621C61.8064 97.621 61.1029 97.7433 60.4148 97.988C59.7267 98.2173 59.1456 98.5308 58.6716 98.9284L57.7541 97.2769C58.3811 96.7723 59.1303 96.39 60.002 96.13C60.8889 95.8548 61.814 95.7172 62.7774 95.7172C64.4441 95.7172 65.7286 96.1224 66.6308 96.9328C67.533 97.7433 67.9841 98.9819 67.9841 100.649V107.989H65.8968ZM61.9057 108.126C61.0036 108.126 60.2084 107.973 59.5203 107.667C58.8474 107.362 58.3275 106.941 57.9605 106.406C57.5935 105.855 57.41 105.236 57.41 104.548C57.41 103.89 57.563 103.294 57.8688 102.759C58.1899 102.224 58.7022 101.796 59.4056 101.474C60.1243 101.153 61.0877 100.993 62.2957 100.993H66.1491V102.575H62.3874C61.2864 102.575 60.5448 102.759 60.1625 103.126C59.7802 103.493 59.5891 103.936 59.5891 104.456C59.5891 105.053 59.8261 105.534 60.3001 105.901C60.7742 106.253 61.4317 106.429 62.2727 106.429C63.0985 106.429 63.8172 106.245 64.4288 105.878C65.0558 105.511 65.5069 104.976 65.7821 104.273L66.2179 105.787C65.9274 106.505 65.4151 107.079 64.6812 107.507C63.9472 107.92 63.022 108.126 61.9057 108.126Z" fill="#E0E0E0"/>
<path d="M76.8246 107.989V106.429L83.3617 100.121C83.9428 99.5706 84.371 99.0889 84.6462 98.6761C84.9368 98.2479 85.1279 97.858 85.2197 97.5063C85.3267 97.1393 85.3802 96.7876 85.3802 96.4512C85.3802 95.6254 85.0897 94.9755 84.5086 94.5015C83.9275 94.0275 83.0788 93.7904 81.9626 93.7904C81.1062 93.7904 80.334 93.9357 79.6459 94.2262C78.9578 94.5015 78.3614 94.9373 77.8568 95.5337L76.2971 94.1804C76.9087 93.4005 77.7268 92.8041 78.7514 92.3913C79.7912 91.9631 80.9304 91.749 82.169 91.749C83.2853 91.749 84.2563 91.9325 85.082 92.2995C85.9078 92.6512 86.5424 93.1635 86.9858 93.8363C87.4446 94.5091 87.6739 95.3043 87.6739 96.2218C87.6739 96.7417 87.6051 97.254 87.4675 97.7586C87.3299 98.2632 87.0699 98.7984 86.6876 99.3642C86.3054 99.93 85.7549 100.565 85.0362 101.268L79.2101 106.888L78.6596 105.993H88.3621V107.989H76.8246Z" fill="#E0E0E0"/>
<path d="M96.7856 108.172C95.5317 108.172 94.4077 107.851 93.4138 107.209C92.4351 106.566 91.6553 105.634 91.0742 104.41C90.5084 103.187 90.2255 101.704 90.2255 99.9606C90.2255 98.2173 90.5084 96.734 91.0742 95.5107C91.6553 94.2874 92.4351 93.3546 93.4138 92.7124C94.4077 92.0701 95.5317 91.749 96.7856 91.749C98.0242 91.749 99.1405 92.0701 100.134 92.7124C101.128 93.3546 101.908 94.2874 102.474 95.5107C103.04 96.734 103.323 98.2173 103.323 99.9606C103.323 101.704 103.04 103.187 102.474 104.41C101.908 105.634 101.128 106.566 100.134 107.209C99.1405 107.851 98.0242 108.172 96.7856 108.172ZM96.7856 106.131C97.6266 106.131 98.3606 105.901 98.9875 105.443C99.6298 104.984 100.127 104.296 100.478 103.378C100.845 102.461 101.029 101.321 101.029 99.9606C101.029 98.5996 100.845 97.4604 100.478 96.5429C100.127 95.6254 99.6298 94.9373 98.9875 94.4786C98.3606 94.0198 97.6266 93.7904 96.7856 93.7904C95.9445 93.7904 95.2029 94.0198 94.5607 94.4786C93.9184 94.9373 93.4138 95.6254 93.0468 96.5429C92.6951 97.4604 92.5192 98.5996 92.5192 99.9606C92.5192 101.321 92.6951 102.461 93.0468 103.378C93.4138 104.296 93.9184 104.984 94.5607 105.443C95.2029 105.901 95.9445 106.131 96.7856 106.131Z" fill="#E0E0E0"/>
<path d="M105.272 107.989V106.429L111.809 100.121C112.39 99.5706 112.819 99.0889 113.094 98.6761C113.384 98.2479 113.575 97.858 113.667 97.5063C113.774 97.1393 113.828 96.7876 113.828 96.4512C113.828 95.6254 113.537 94.9755 112.956 94.5015C112.375 94.0275 111.526 93.7904 110.41 93.7904C109.554 93.7904 108.782 93.9357 108.093 94.2262C107.405 94.5015 106.809 94.9373 106.304 95.5337L104.745 94.1804C105.356 93.4005 106.174 92.8041 107.199 92.3913C108.239 91.9631 109.378 91.749 110.617 91.749C111.733 91.749 112.704 91.9325 113.53 92.2995C114.355 92.6512 114.99 93.1635 115.433 93.8363C115.892 94.5091 116.121 95.3043 116.121 96.2218C116.121 96.7417 116.053 97.254 115.915 97.7586C115.777 98.2632 115.517 98.7984 115.135 99.3642C114.753 99.93 114.202 100.565 113.484 101.268L107.658 106.888L107.107 105.993H116.81V107.989H105.272Z" fill="#E0E0E0"/>
<path d="M123.604 108.172C122.472 108.172 121.371 107.996 120.301 107.645C119.246 107.293 118.382 106.819 117.709 106.222L118.764 104.41C119.299 104.915 119.995 105.328 120.852 105.649C121.708 105.97 122.625 106.131 123.604 106.131C124.797 106.131 125.722 105.878 126.379 105.374C127.052 104.854 127.389 104.158 127.389 103.286C127.389 102.445 127.068 101.773 126.425 101.268C125.798 100.748 124.797 100.488 123.421 100.488H122.136V98.8825L126.907 93.0106L127.228 93.9281H118.443V91.9325H129.04V93.4923L124.292 99.3412L123.099 98.6302H123.856C125.798 98.6302 127.251 99.066 128.214 99.9376C129.193 100.809 129.682 101.918 129.682 103.264C129.682 104.166 129.461 104.991 129.017 105.741C128.574 106.49 127.901 107.086 126.999 107.53C126.112 107.958 124.98 108.172 123.604 108.172Z" fill="#E0E0E0"/>
<defs>
<linearGradient id="paint0_linear_1_3274" x1="21.0517" y1="9.21973" x2="21.0517" y2="66.6041" gradientUnits="userSpaceOnUse">
<stop stop-color="#E1E1E1"/>
<stop offset="1" stop-color="#B6B6B6"/>
</linearGradient>
<linearGradient id="paint1_linear_1_3274" x1="119.471" y1="7.32349" x2="119.471" y2="64.7064" gradientUnits="userSpaceOnUse">
<stop stop-color="#E1E1E1"/>
<stop offset="1" stop-color="#B6B6B6"/>
</linearGradient>
<linearGradient id="paint2_linear_1_3274" x1="60.9184" y1="0" x2="60.9184" y2="45.8126" gradientUnits="userSpaceOnUse">
<stop stop-color="#E1E1E1"/>
<stop offset="1" stop-color="#B6B6B6"/>
</linearGradient>
<linearGradient id="paint3_linear_1_3274" x1="81.0707" y1="0" x2="81.0707" y2="45.8126" gradientUnits="userSpaceOnUse">
<stop stop-color="#E1E1E1"/>
<stop offset="1" stop-color="#B6B6B6"/>
</linearGradient>
</defs>
</svg>
