<svg width="141" height="109" viewBox="0 0 141 109" fill="none" xmlns="http://www.w3.org/2000/svg">
<path fill-rule="evenodd" clip-rule="evenodd" d="M68.5884 55.5513L68.7488 55.0316L70.5713 53.8013L72.4466 55.0316L72.607 55.5513L76.2912 58.2679L70.5713 55.4283L64.8496 58.2679L68.5884 55.5513ZM74.1925 59.2121V58.1175L70.4576 56.2205L68.7916 57.0675L68.7901 57.2118L67.5962 57.8333L66.4934 59.6373V58.4088L65.3659 58.9959L65.5414 59.0058L65.0066 59.3719L65.591 59.1855V60.9747L65.846 61.3061L62.9717 60.0611L62.5948 59.8847L58.6724 57.948L58.5768 58.7722L56.0781 56.9656L58.7373 61.297L59.3278 59.7444L66.5663 62.1767L66.5082 62.1428L66.4934 61.1049L66.8875 60.4602L67.9141 62.1389L69.2403 62.5478L67.3958 59.634L68.7887 57.3459L68.7763 58.522L73.2592 60.7953V61.1404L72.1423 61.4772L69.5702 60.1696V59.5389H68.6658V60.65L72.0335 62.3621L74.1755 61.7182L74.1959 60.1663L69.696 57.8797V57.5462L70.4576 57.1599L73.2881 58.5979V59.2121H74.1925ZM76.089 59.2173L74.5914 58.4535L74.5762 62.1757L74.5816 62.1727L74.5762 62.1767L81.9355 59.7912L82.4714 61.2123L85.0643 56.9656L82.6278 58.7362L82.5347 57.93L76.54 60.7342L76.4925 60.7691L75.3958 61.241L75.5712 61.0866V59.3536L75.4026 59.15L76.089 59.2173ZM69.517 62.4756L68.6658 61.059L69.4653 61.6505L69.4953 61.3816L71.7169 62.5479L69.7056 61.9681L69.517 62.4756ZM65.0401 60.5015L63.6589 58.2002L63.3516 59.0255L60.082 58.0821L63.6919 59.979L63.7415 59.5414L65.0401 60.5015ZM77.2929 58.2002L75.9101 60.5015L77.2087 59.543L77.2599 59.9807L80.8681 58.0821L77.6002 59.0255L77.2929 58.2002ZM69.8082 62.1767L71.5261 62.5873L70.5381 62.9211L69.6191 62.6122L70.2236 62.6007L69.8082 62.1767ZM64.0879 67.7599L65.2052 63.2213L64.5663 62.5173L64.5173 62.1767L67.0292 62.8644L68.0925 67.4031L66.7266 67.528L66.5762 66.5498L65.6498 66.7526L65.5197 67.6383L64.0879 67.7599ZM66.446 65.7485L66.113 63.6982L65.7867 65.8458L66.446 65.7485ZM61.5728 69.2898L60.6582 73.343H61.9108L62.0421 72.3925H62.8927L63.0288 73.343H64.2814L63.2306 68.5042L60.9513 68.7255L60.9625 68.9103L61.5728 69.2898ZM62.4522 69.5112L62.7629 71.5369H62.1639L62.4522 69.5112ZM80.6772 73.343L79.7144 69.2898L80.3568 68.9103L80.3686 68.7255L77.9693 68.5042L76.8633 73.343H78.1818L78.3251 72.3925H79.2204L79.3587 73.343H80.6772ZM78.4617 71.5369L78.7888 69.5112L79.0923 71.5369H78.4617ZM64.1079 68.9216L64.0879 68.4005L66.9473 68.1316L67.4849 68.7245L67.5565 70.8173L67.0988 71.2315L67.8827 72.9986L68.0908 73.0921L68.0925 73.3376H66.8791L66.195 71.4536H65.6208V73.3426L64.5656 73.3376V69.2289L64.1079 68.9216ZM65.5293 69.3609L65.5209 70.5384L66.1834 70.55L66.4663 70.2761L66.4513 68.9199L65.1581 69.0753L65.5293 69.3609ZM77.8184 61.8122V67.8484L82.7627 68.3183L82.7764 67.8301L81.9743 66.7125L79.479 66.7723L79.4773 65.3093L80.8626 65.2413L80.9669 63.9842L79.5235 64.0838V62.9862L78.836 62.8534L80.9139 62.4914L81.4783 61.2841L81.3381 60.874L77.8184 61.8122ZM68.4727 73.3425V68.1275L70.5593 67.9453L71.7144 68.0527L71.6813 68.3422L71.209 69.0791L70.4582 68.9636L68.9765 69.0791L69.651 69.2873L69.6527 70.1998H70.9836V71.127H69.6593V72.3063H71.1576L71.6813 73.0659V73.3425H68.4727ZM72.4906 73.3425L72.6037 68.6388L72.2893 68.2921L72.3192 67.9453L73.9929 68.0894L75.1708 71.0844L75.1874 68.8918L74.7133 68.5768V68.1715L76.2938 68.3205L76.2905 73.3425L74.8414 73.3408L73.6169 70.1146V73.3425H72.4906ZM59.7182 61.2018L59.7919 60.874L63.0625 61.7948L63.7068 62.523L63.4084 64.2494L62.8412 64.7699L63.4084 65.335V67.3299L62.6527 67.9806L58.9395 68.3183L60.1592 61.8459L59.7182 61.2018ZM61.6248 67.0153L60.3247 67.0597L60.7411 65.2823L61.9363 65.2658L61.9084 66.7385L61.6248 67.0153ZM62.092 64.2082L60.9182 64.1835L61.1412 62.9957L60.892 62.49L62.3592 62.7816L62.092 64.2082ZM68.4683 64.536V63.9505L67.8718 63.8029L67.7996 63.9472L67.5194 64.0119L67.5452 62.9206L70.5705 63.7698V64.6953L70.2766 64.5543L70.1993 64.3735L69.6217 64.2325V64.5178V64.8993L69.62 66.9758L69.8228 67.0372V67.2462L68.262 67.3872V67.1765L68.4666 67.0803L68.4683 64.536ZM72.864 63.9506V64.536L72.8657 67.0803L73.0702 67.1765V67.3872L71.5095 67.2462V67.0372L71.714 66.9758L71.7106 64.8993V64.5178V64.2325L71.133 64.3735L71.0557 64.5543L70.7617 64.6953V63.7698L73.787 62.9206L73.8128 64.0119L73.5326 63.9472L73.4622 63.8029L72.864 63.9506ZM74.1914 63.0083V62.8135L75.8342 62.3617L75.7955 66.7636L77.4096 66.7783L77.4332 67.7589L74.6682 67.5084V63.1868L74.1914 63.0083ZM59.825 72.3053L55.125 75.5339L58.5896 74.7814L58.3747 75.46L67.2124 75.0673L67.2845 75.5553L67.4407 76.0761L70.5695 78.2564L73.7924 76.0761L73.9535 75.5372L74.024 75.0673L82.766 75.4567L82.5528 74.7814L86.0174 75.5339L81.3174 72.3053L81.4298 74.254H59.7125L59.825 72.3053ZM70.4398 76.1276C70.4388 76.1256 70.4346 76.1198 70.4287 76.1118L70.4163 76.0948L70.4126 76.0896C70.3862 76.0524 70.3526 76.0052 70.3542 75.988C70.3542 75.9777 70.3877 75.9255 70.4128 75.8863L70.4128 75.8863L70.4214 75.8729L70.4382 75.8483L70.4449 75.8352H70.6329L70.6413 75.8467C70.645 75.8531 70.6552 75.8694 70.6669 75.8883L70.695 75.9337C70.7067 75.9551 70.7168 75.9748 70.7185 75.9814L70.7202 75.983C70.7218 75.9929 70.7118 76.0192 70.6967 76.0455C70.6765 76.08 70.6497 76.1227 70.6429 76.1309L70.6362 76.1391L70.4482 76.1408L70.4398 76.1276ZM69.8087 75.7119C69.7981 75.7197 69.779 75.7296 69.7607 75.7391L69.7466 75.7464L69.7265 75.7579L69.6878 75.7793L69.6593 75.7941C69.6576 75.8138 69.6576 75.8499 69.6576 75.8746L69.6862 75.8894C69.7231 75.9074 69.7265 75.9091 69.7533 75.8943C69.7869 75.8779 69.8188 75.8598 69.8507 75.8401L69.8742 75.8269L69.9128 75.8039L69.9262 75.7963C69.9414 75.7875 69.9512 75.7819 69.9631 75.7793C69.9833 75.7744 69.995 75.7809 70.0202 75.7957L70.0454 75.8089L70.0651 75.8198C70.1005 75.8395 70.1461 75.8647 70.1545 75.8729L70.1713 75.8943L70.1478 75.9091C70.1371 75.9175 70.1243 75.9252 70.1112 75.9331C70.1055 75.9366 70.0998 75.94 70.0941 75.9436C70.0924 75.9447 70.0907 75.9458 70.089 75.9469L70.0554 75.9666C70.0517 75.969 70.0483 75.9712 70.0447 75.9734C70.0387 75.977 70.0327 75.9805 70.0252 75.9847L70.0168 75.9912C70.0227 75.9941 70.0288 75.9976 70.0349 76.001L70.0349 76.001C70.0428 76.0055 70.0505 76.0098 70.0571 76.0126L70.0823 76.0257L70.0946 76.0326C70.1168 76.0447 70.1435 76.0594 70.1562 76.0717C70.1646 76.08 70.1746 76.0948 70.1813 76.1046L70.1511 76.1161C70.1394 76.121 70.1226 76.1309 70.1075 76.1408C70.1037 76.1435 70.0999 76.1458 70.0956 76.1484L70.0955 76.1484C70.0921 76.1504 70.0884 76.1527 70.084 76.1555L70.0521 76.1736L70.0395 76.1806C70.0173 76.1928 70.004 76.2002 69.9883 76.2016C69.9682 76.2016 69.9564 76.195 69.9312 76.1802L69.9094 76.167L69.8634 76.141C69.8274 76.1207 69.7921 76.1007 69.7567 76.08C69.7399 76.0701 69.7399 76.0701 69.7147 76.0816L69.7097 76.0849C69.6929 76.0931 69.6627 76.1079 69.661 76.1095V76.1523V76.1917L69.7466 76.2328L69.7495 76.2341L69.7496 76.2341C69.7802 76.2484 69.8073 76.2609 69.8154 76.2673L69.8356 76.2821L69.8204 76.3018C69.8087 76.3166 69.7785 76.3313 69.7583 76.3412L69.7466 76.3461L69.7248 76.3576L69.6903 76.376C69.646 76.3995 69.6012 76.4232 69.5586 76.448V76.4694V76.5154C69.5597 76.5282 69.5601 76.5327 69.5625 76.5351C69.5638 76.5365 69.5657 76.5372 69.5687 76.5384C69.5698 76.5395 69.5724 76.5406 69.575 76.5417L69.575 76.5417L69.5787 76.5433L69.5938 76.5499C69.5967 76.5512 69.5995 76.5525 69.6021 76.5536C69.6045 76.5546 69.6068 76.5556 69.609 76.5564C69.6392 76.5712 69.6442 76.5729 69.6761 76.5564C69.699 76.5458 69.7211 76.5335 69.7429 76.5213L69.743 76.5212L69.7684 76.5072L69.7953 76.4924C69.8255 76.4743 69.8842 76.4398 69.9061 76.4414L69.9312 76.4431L69.9329 76.6255C69.9348 76.6273 69.9371 76.6289 69.9396 76.6304C69.9411 76.6313 69.9425 76.6321 69.944 76.633C69.9471 76.6347 69.9502 76.6365 69.9531 76.6386C69.9564 76.6402 69.9698 76.6485 69.9715 76.6517C69.9733 76.6526 69.975 76.6539 69.9767 76.6553C69.9779 76.6563 69.979 76.6573 69.9801 76.6583C69.9835 76.6615 69.9864 76.6642 69.9883 76.6632C69.9977 76.6602 70.0277 76.6413 70.0507 76.6268L70.0507 76.6268L70.0554 76.6238L70.0622 76.6205L70.0655 76.3445L70.0756 76.3379C70.0857 76.3314 70.1394 76.2985 70.183 76.2755C70.2149 76.2591 70.2418 76.2459 70.2518 76.2459L70.2753 76.2476V76.2706V76.3215C70.2737 76.356 70.2737 76.3938 70.2753 76.4266C70.2857 76.4206 70.2973 76.4126 70.3094 76.4044C70.3169 76.3992 70.3247 76.3939 70.3324 76.3889C70.3677 76.3642 70.4029 76.3412 70.4247 76.3379L70.4533 76.333L70.4549 76.5515L70.4415 76.5581C70.4281 76.5663 70.3442 76.6156 70.2787 76.6517C70.2518 76.6682 70.2267 76.6813 70.2099 76.6895L70.2116 76.7684C70.2194 76.775 70.2287 76.7801 70.238 76.7852C70.2427 76.7878 70.2474 76.7903 70.2518 76.793L70.2619 76.798C70.268 76.8009 70.271 76.8033 70.2728 76.8047C70.274 76.8057 70.2747 76.8062 70.2753 76.8062C70.2759 76.8056 70.2761 76.8053 70.2763 76.8049C70.2764 76.8048 70.2764 76.8046 70.2766 76.8044C70.277 76.8038 70.2778 76.803 70.2804 76.8013L70.3089 76.7848C70.3425 76.7651 70.4113 76.7257 70.4264 76.724L70.4549 76.7191L70.4566 76.747C70.4591 76.7889 70.4588 76.8317 70.4585 76.8747L70.4583 76.9179V76.9787C70.4583 76.9919 70.4583 77.0099 70.46 77.0165C70.46 77.0169 70.4605 77.0174 70.4614 77.018C70.4624 77.0188 70.464 77.0197 70.466 77.0208C70.4695 77.0228 70.4744 77.0257 70.4801 77.0296C70.5053 77.0461 70.5338 77.0625 70.5355 77.0625C70.5355 77.0625 70.5708 77.0395 70.5876 77.0296C70.5892 77.0296 70.5976 77.0247 70.5993 77.0231C70.6043 77.0198 70.6077 77.0165 70.6094 77.0132C70.6105 77.0067 70.6101 76.998 70.6098 76.9891C70.6096 76.9845 70.6094 76.9799 70.6094 76.9754V76.9639V76.9638C70.6094 76.9113 70.6094 76.8604 70.6111 76.8095L70.6127 76.7208L70.6413 76.724C70.6558 76.7256 70.6997 76.7499 70.7374 76.7708L70.7374 76.7708L70.742 76.7733C70.7638 76.7865 70.7823 76.7963 70.7923 76.8013C70.7991 76.8045 70.8024 76.8029 70.8091 76.7996L70.8276 76.7914L70.841 76.785C70.8523 76.7798 70.8582 76.777 70.8595 76.7733C70.8628 76.77 70.8628 76.7569 70.8628 76.7306V76.7224C70.8645 76.6922 70.8598 76.6897 70.8427 76.6806L70.841 76.6797L70.7991 76.655L70.7655 76.637L70.7453 76.6257C70.7397 76.6225 70.7338 76.6192 70.7277 76.6159C70.7236 76.6136 70.7194 76.6113 70.7151 76.609C70.6849 76.591 70.6513 76.5712 70.6278 76.5614L70.6127 76.5548L70.6161 76.333L70.6463 76.3379C70.6611 76.3406 70.6974 76.3621 70.7216 76.3766L70.7369 76.3856L70.7403 76.3889C70.7466 76.3919 70.7568 76.3982 70.7676 76.4049L70.7676 76.4049L70.7677 76.4049C70.7742 76.4089 70.781 76.4131 70.7873 76.4168L70.7923 76.241L70.8226 76.2508C70.8343 76.2525 70.8645 76.2689 70.8964 76.287C70.9401 76.31 70.9887 76.3379 71.0022 76.3478L71.0122 76.3544L71.0139 76.3675V76.5154V76.5499C71.0139 76.558 71.0134 76.5652 71.0129 76.5716C71.0127 76.5746 71.0125 76.5775 71.0124 76.5802C71.0123 76.5822 71.0122 76.5841 71.0122 76.586C71.0106 76.6271 71.0106 76.6287 71.0592 76.6534L71.0609 76.655L71.0629 76.656C71.0779 76.6634 71.0801 76.6645 71.0978 76.655L71.1213 76.6419L71.1339 76.6348C71.1423 76.6301 71.1465 76.6278 71.1465 76.6255C71.1499 76.6189 71.1499 76.6041 71.1499 76.5811C71.1482 76.5548 71.1482 76.5203 71.1516 76.4694L71.1532 76.4365L71.1834 76.4464C71.1963 76.4505 71.2103 76.4583 71.2234 76.4655L71.2304 76.4694C71.2503 76.4805 71.2705 76.4913 71.2908 76.5023L71.2911 76.5025L71.2911 76.5025C71.3309 76.524 71.3712 76.5457 71.4101 76.5696C71.4117 76.5707 71.4128 76.5714 71.414 76.5716C71.4165 76.5722 71.4194 76.5707 71.4285 76.5663C71.4359 76.5634 71.4426 76.5605 71.4487 76.5579C71.4564 76.5546 71.4632 76.5517 71.4688 76.5499C71.494 76.54 71.499 76.5367 71.5007 76.5137V76.4447V76.4398C71.494 76.4349 71.4419 76.4086 71.4117 76.3938L71.3664 76.3675C71.3312 76.3478 71.2758 76.3166 71.2657 76.3034L71.2489 76.2821L71.2691 76.2673C71.2926 76.2508 71.3194 76.2361 71.3463 76.2229L71.3647 76.2131C71.3782 76.2065 71.3916 76.1983 71.4017 76.1917C71.4067 76.1884 71.4067 76.1802 71.4067 76.1687V76.1572C71.4067 76.1128 71.405 76.1112 71.3714 76.0882H71.3698C71.3458 76.071 71.3446 76.0716 71.3345 76.0774L71.3328 76.0783C71.3301 76.0797 71.3273 76.0813 71.324 76.0833L71.324 76.0833C71.3194 76.086 71.3138 76.0893 71.306 76.0931L71.2785 76.1075C71.2584 76.1181 71.2377 76.129 71.217 76.1391C71.2028 76.1473 71.1882 76.1555 71.1735 76.1637L71.1734 76.1638C71.1587 76.172 71.144 76.1802 71.1297 76.1884C71.0962 76.2081 71.0894 76.2048 71.0659 76.1917L71.0559 76.1851L71.0273 76.172L71.0163 76.1666C70.9828 76.1502 70.9485 76.1335 70.9182 76.1128L70.8981 76.0997L70.9115 76.0783C70.9241 76.0614 70.9545 76.0458 70.9873 76.0291L70.9938 76.0257C71.0064 76.0185 71.019 76.012 71.0304 76.0061L71.0305 76.006L71.0492 75.9962L71.0357 75.9863C71.0257 75.9814 71.0139 75.9748 71.0022 75.9666L70.9974 75.9639L70.9974 75.9639C70.9665 75.9464 70.9309 75.9263 70.9166 75.9091L70.8998 75.891L70.9182 75.8746C70.9249 75.868 70.9736 75.8352 71.0156 75.8089C71.0492 75.7859 71.0827 75.7678 71.0911 75.7678L71.0962 75.7661L71.1012 75.7678C71.1153 75.7724 71.1497 75.7926 71.1747 75.8073L71.1801 75.8105C71.2153 75.8302 71.2506 75.8499 71.2858 75.8713C71.3043 75.8828 71.3429 75.9058 71.3463 75.9074L71.3698 75.8959L71.3839 75.8874C71.3936 75.8815 71.4033 75.8757 71.4101 75.8713L71.4084 75.7924C71.3899 75.7826 71.358 75.7645 71.3295 75.7481C71.3009 75.7333 71.2741 75.7169 71.2657 75.7103L71.2456 75.6938L71.2623 75.6758C71.2758 75.661 71.3513 75.6199 71.4 75.5936L71.4369 75.5739C71.4497 75.5664 71.4616 75.5598 71.4717 75.5542L71.4806 75.5493C71.4957 75.5427 71.5041 75.5378 71.5057 75.5345C71.5074 75.5328 71.5074 75.523 71.5074 75.5016V75.4803V75.4638C71.5091 75.4556 71.5091 75.4474 71.5074 75.4474C71.5024 75.4441 71.4755 75.4277 71.4537 75.4145C71.4495 75.4122 71.4464 75.4101 71.4441 75.4083C71.4424 75.4071 71.4411 75.406 71.4401 75.4052C71.4385 75.4038 71.4376 75.403 71.4369 75.403C71.4332 75.403 71.3974 75.4228 71.3607 75.443L71.3605 75.4431L71.3228 75.4638L71.3015 75.4753C71.2901 75.4815 71.2812 75.4864 71.2758 75.4885L71.2662 75.4939C71.2601 75.4971 71.2537 75.5007 71.2472 75.5049L71.2472 75.5049C71.2254 75.5164 71.2036 75.5279 71.1834 75.5345L71.1516 75.546L71.1499 75.5131C71.1482 75.4934 71.1482 75.4753 71.1482 75.4573V75.3997V75.3784C71.1499 75.357 71.1499 75.3455 71.1348 75.339L71.0945 75.3209C71.0743 75.3127 71.0676 75.3159 71.0542 75.3242L71.0443 75.3293C71.0356 75.3339 71.0248 75.3397 71.0106 75.3455L71.0055 75.6495L70.9904 75.6544C70.9787 75.6593 70.9468 75.6758 70.9166 75.6938L70.9046 75.7002C70.8654 75.7209 70.8296 75.7399 70.8158 75.7399H70.7923L70.7856 75.5558C70.7834 75.5574 70.781 75.559 70.7784 75.5606C70.7743 75.5632 70.7699 75.5658 70.7652 75.5686C70.7567 75.5738 70.7474 75.5794 70.7386 75.5854C70.7017 75.6084 70.6648 75.6314 70.6429 75.6347L70.6144 75.6363V75.4178L70.8679 75.2798V75.2091C70.8561 75.2009 70.841 75.1911 70.8276 75.1829L70.8091 75.1697C70.8054 75.1679 70.8048 75.1666 70.8044 75.1658C70.8041 75.1651 70.8039 75.1648 70.8024 75.1648C70.8018 75.1648 70.8016 75.165 70.8014 75.1654C70.801 75.1661 70.8004 75.1671 70.7974 75.1681L70.7621 75.1878C70.7252 75.2092 70.6631 75.2437 70.6429 75.2486L70.6127 75.2552L70.6111 74.9939V74.9791L70.6113 74.9703C70.6116 74.9629 70.6118 74.9573 70.6094 74.9561L70.5926 74.9446C70.5857 74.9401 70.5774 74.9344 70.5693 74.9289L70.5693 74.9289C70.5539 74.9184 70.5394 74.9085 70.5372 74.9085C70.534 74.9108 70.5284 74.914 70.5219 74.9177C70.5148 74.9217 70.5064 74.9263 70.4986 74.9315C70.4835 74.9397 70.4684 74.9495 70.4583 74.9578L70.4566 75.2502L70.4281 75.2486C70.413 75.2469 70.3374 75.2042 70.3056 75.1861L70.2972 75.1812C70.2726 75.1668 70.2704 75.168 70.2532 75.1772L70.2518 75.1779L70.2459 75.1818C70.237 75.1877 70.2262 75.1949 70.2099 75.2042L70.2082 75.2798C70.2317 75.2929 70.2669 75.3127 70.2938 75.3291L70.319 75.3439C70.3304 75.3506 70.3419 75.3565 70.3538 75.3628L70.371 75.3718L70.386 75.3801C70.4049 75.3905 70.4243 75.4012 70.4415 75.4129L70.4533 75.4195L70.4549 75.4474L70.4551 75.4793C70.4553 75.524 70.4556 75.5724 70.4516 75.6133L70.4482 75.6429L70.4197 75.6347C70.3927 75.6263 70.3668 75.6121 70.3412 75.5979L70.3274 75.5903C70.3089 75.5788 70.2904 75.5673 70.272 75.5591C70.2703 75.5805 70.2703 75.6084 70.2703 75.6347V75.6347C70.2703 75.6627 70.2703 75.6922 70.2686 75.7152L70.2636 75.7464L70.2334 75.7366C70.2135 75.7293 70.1853 75.7129 70.1577 75.6969C70.148 75.6914 70.1384 75.6858 70.1293 75.6807L70.1041 75.6659L70.0739 75.6495H70.0571V75.6265L70.0554 75.6232V75.3587L70.0202 75.339C70.0143 75.3357 70.0093 75.3324 70.0049 75.3295C70.0005 75.3266 69.9967 75.3242 69.9933 75.3225C69.9866 75.3176 69.9833 75.3159 69.9782 75.3192L69.9245 75.3537L69.9212 75.546L69.8926 75.5427C69.8768 75.5411 69.7763 75.4843 69.7281 75.4571L69.7197 75.4523L69.6946 75.4392C69.6895 75.4359 69.6841 75.4326 69.6786 75.4293C69.6732 75.426 69.6677 75.4227 69.6627 75.4195L69.6526 75.4145L69.6497 75.4131C69.6444 75.4104 69.6401 75.4082 69.6358 75.4096C69.6256 75.414 69.6154 75.4192 69.6057 75.4242L69.5922 75.431L69.562 75.4474V75.5394C69.6106 75.569 69.6878 75.6084 69.7466 75.638L69.7734 75.6511C69.797 75.6643 69.8137 75.6758 69.8339 75.6906L69.8087 75.7119Z" fill="#CC9A57"/>
<path fill-rule="evenodd" clip-rule="evenodd" d="M13.6337 49.446C12.9476 49.2734 7.72431 46.4198 2.80508 46.0309C4.16505 51.5517 10.0112 55.8988 16.8402 52.4791C18.4216 54.716 20.0564 55.0105 22.0538 56.6537C13.388 55.9725 15.6797 56.6537 10.0234 56.6537C12.4562 60.0895 17.1954 62.614 21.6573 60.8328C23.6595 60.0343 23.7836 59.4842 25.2628 58.5499L29.637 60.1033C29.9922 60.2322 30.1041 60.2552 30.4983 60.4255C31.2816 60.7661 30.8316 60.5313 31.2768 60.8259C27.8294 60.8259 22.8104 63.0582 20.4506 64.241C21.684 65.8335 25.6958 67.09 29.1821 66.4319C31.868 65.9256 34.0989 63.714 35.2885 61.5853C36.449 62.1123 39.8428 62.3448 41.7064 62.3448C41.4899 59.8801 40.7892 61.1918 35.69 60.0688C35.5708 55.0565 32.9335 50.8107 28.4717 49.8257C28.4717 56.1612 29.7295 56.175 31.6782 58.9296C30.4958 58.8376 27.0777 57.4936 26.0656 57.0334C27.175 52.5274 26.3673 46.6407 22.4552 45.6535C22.3239 47.1539 21.5089 48.7993 21.3288 50.3136C21.0685 52.4883 22.0441 53.0797 22.4552 54.7574C20.6087 53.8323 19.1806 52.9463 18.0445 51.3423C18.7062 48.6613 22.1974 45.2346 19.2487 39.9624C17.7087 40.3513 16.8962 41.7712 16.159 43.1082C15.2126 44.8227 15.2394 45.8399 15.2394 48.3069C14.0765 47.5014 12.8163 45.3129 12.4319 43.7549C14.6774 40.5837 19.0833 38.9728 17.6455 33.1321C13.6337 34.0158 12.0037 36.828 11.1327 39.8703L10.8262 40.7195C10.7629 39.9854 9.83603 35.0675 9.62437 34.6487C14.7869 32.0666 16.9035 31.8135 18.4459 25.5447C15.6797 25.6023 12.8771 26.9163 11.1157 28.854L9.90415 30.7434C9.87009 30.8078 9.79224 30.939 9.76304 30.9896C9.73385 31.0425 9.68033 31.1599 9.62194 31.2358C9.62194 28.5824 10.0234 27.609 10.0234 25.165C14.7017 24.7968 19.8083 22.7901 20.852 19.0965C18.2975 19.0436 18.1004 18.298 15.2126 19.0735C12.7482 19.734 12.8844 20.3254 11.2276 21.3748C12.2519 17.2186 12.7044 19.0689 15.9547 15.9828C18.334 13.7207 17.8474 11.997 19.2487 9.23545C16.6091 9.23545 16.159 9.10197 14.4074 9.96726C7.70242 13.2834 12.7092 16.6295 9.22295 21.3748C9.22295 16.1831 7.40561 14.395 6.41544 10.3723H5.61503C5.18928 11.8796 2.59099 14.6826 3.34517 18.5718C4.00934 21.9938 5.97752 23.2411 8.42254 24.7876C8.42254 27.0429 8.02112 28.5203 8.02112 31.2358C7.65133 30.7319 3.77336 22.8821 0.802842 22.1319C0.489003 25.7012 -0.25545 27.4134 1.5254 30.5524C2.62505 32.49 5.26713 34.4346 8.02112 34.6487C8.07708 36.9776 9.04535 39.0787 9.22295 41.0969C7.38614 39.0994 8.31549 39.1983 5.16008 36.9753C3.94122 36.1169 1.43782 34.2551 0 33.8915C0 37.5782 0.824737 39.555 2.5545 41.7159C4.32561 43.9252 6.84848 44.512 10.8262 44.512C11.303 45.3612 11.6096 46.1114 12.157 47.0457C12.9428 48.3874 13.2712 48.1573 13.6337 49.4437V49.446Z" fill="url(#paint0_linear_1_3238)"/>
<path fill-rule="evenodd" clip-rule="evenodd" d="M125.087 47.9275C125.087 45.1522 124.245 40.3816 121.077 39.583C118.112 44.8875 121.608 48.229 122.279 50.9629C121.145 52.5669 119.715 53.4529 117.868 54.3781C118.282 52.7004 119.255 52.109 118.995 49.9342C118.815 48.4223 118 46.7746 117.868 45.2741C113.956 46.2614 113.149 52.1481 114.258 56.654C113.246 57.1143 109.828 58.4583 108.643 58.5503C110.594 55.7957 111.852 55.7818 111.852 49.4464C107.388 50.429 104.75 54.6772 104.634 59.6894C99.622 60.7941 98.8361 59.4892 98.6172 61.9654C100.478 61.9654 103.872 61.733 105.033 61.206C106.225 63.3347 108.453 65.5439 111.139 66.0525C114.625 66.713 118.637 65.4542 119.871 63.8617C117.508 62.6788 112.489 60.4466 109.042 60.4466L110.392 59.8275C111.044 59.5813 111.351 59.4961 111.852 59.312C112.854 58.9392 113.978 58.4099 115.058 58.1729C116.452 59.0566 116.462 59.5168 118.384 60.3384C123.05 62.3336 127.828 59.7654 130.298 56.2766C124.641 56.2766 126.931 55.5954 118.267 56.2766L121.08 54.3873C122.053 53.736 122.817 53.0387 123.479 52.1044C130.308 55.5241 136.156 51.177 137.514 45.6561C135.864 45.785 133.319 46.5329 131.743 47.0231C128.726 47.962 127.573 48.8457 126.687 49.069L129.495 44.1373C136.913 44.1373 140.324 40.7107 140.324 33.5145C138.883 33.8781 136.382 35.7399 135.164 36.5982C134.314 37.1966 133.723 37.5694 133.001 38.3449C132.429 38.9594 132.619 38.7891 132.139 39.4288L131.101 40.7222C131.278 38.7016 132.249 36.6028 132.302 34.2739C134.952 34.0668 137.54 32.2166 138.655 30.4193C140.589 27.2987 139.849 25.4646 139.521 21.7572C137.46 22.2773 134.11 27.3677 133.117 29.3561L132.448 30.6195C132.419 30.6701 132.358 30.7852 132.302 30.8611C132.302 28.1456 131.901 26.6681 131.901 24.4129C141.148 18.5538 135.562 13.0284 134.709 9.99755H133.908C132.918 14.0202 131.101 15.8083 131.101 21C127.678 16.3399 132.575 13.0836 126.177 9.72369C124.308 8.74334 123.787 8.85841 121.075 8.85841C122.474 11.62 121.99 13.3436 124.369 15.6058C127.614 18.6895 128.072 16.8439 129.096 20.9977C123.172 17.2443 125.955 18.5837 119.472 18.7218C120.513 22.4153 125.622 24.4244 130.3 24.7903C130.3 27.2343 130.702 28.2077 130.702 30.8611C130.646 30.7829 130.582 30.5596 130.561 30.6149L130.286 30.1178C128.643 27.1169 125.505 25.2459 121.88 25.17C123.423 31.4364 125.539 31.6896 130.702 34.2739C130.49 34.6928 129.563 39.6106 129.5 40.3447L129.193 39.4956C128.427 36.6949 128.271 36.1633 125.379 34.0001C124.474 33.3235 123.89 33.0243 122.683 32.7574C121.245 38.5981 125.651 40.2067 127.897 43.3802C127.512 44.9381 126.252 47.1267 125.089 47.9321L125.087 47.9275Z" fill="url(#paint1_linear_1_3238)"/>
<path fill-rule="evenodd" clip-rule="evenodd" d="M55.8276 45.8119H56.8688V0H44.8359V9.64013V45.8119H55.8276Z" fill="url(#paint2_linear_1_3238)"/>
<path fill-rule="evenodd" clip-rule="evenodd" d="M75.9784 45.8119H77.0173V0H64.9844V9.64013V45.8119H75.9784Z" fill="url(#paint3_linear_1_3238)"/>
<path fill-rule="evenodd" clip-rule="evenodd" d="M96.1284 45.8119H97.1696V0H85.1367V9.64013V45.8119H96.1284Z" fill="url(#paint4_linear_1_3238)"/>
<path d="M15.6204 108.149C14.7029 108.149 13.8007 108.034 12.9138 107.805C12.0422 107.56 11.2623 107.216 10.5742 106.773L11.2394 105.098C11.8205 105.465 12.4857 105.756 13.2349 105.97C13.9842 106.169 14.7411 106.268 15.5057 106.268C16.2091 106.268 16.8131 106.184 17.3178 106.016C17.8377 105.848 18.2353 105.618 18.5105 105.328C18.7857 105.022 18.9234 104.67 18.9234 104.273C18.9234 103.707 18.6711 103.271 18.1664 102.965C17.6618 102.66 16.9584 102.507 16.0562 102.507H13.8542V100.924H15.9186C16.4538 100.924 16.9202 100.863 17.3178 100.74C17.7153 100.618 18.0212 100.435 18.2353 100.19C18.4646 99.93 18.5793 99.6318 18.5793 99.2954C18.5793 98.9284 18.4493 98.6149 18.1894 98.3549C17.9294 98.095 17.5624 97.8962 17.0884 97.7586C16.6296 97.621 16.0868 97.5521 15.4599 97.5521C14.8482 97.5674 14.2212 97.6515 13.579 97.8045C12.952 97.9574 12.3098 98.1944 11.6523 98.5155L11.0559 96.7952C11.7899 96.4435 12.5086 96.1759 13.212 95.9924C13.9307 95.7936 14.6418 95.6866 15.3452 95.6713C16.4003 95.6407 17.3407 95.763 18.1664 96.0383C18.9922 96.2982 19.6421 96.6805 20.1161 97.1851C20.6054 97.6898 20.8501 98.2861 20.8501 98.9743C20.8501 99.5553 20.6666 100.075 20.2996 100.534C19.9326 100.977 19.4433 101.329 18.8316 101.589C18.22 101.849 17.5166 101.979 16.7214 101.979L16.8131 101.451C18.1741 101.451 19.2445 101.719 20.0244 102.254C20.8042 102.789 21.1942 103.516 21.1942 104.433C21.1942 105.167 20.9495 105.817 20.4602 106.383C19.9708 106.933 19.3057 107.369 18.4646 107.69C17.6389 107.996 16.6908 108.149 15.6204 108.149Z" fill="#CF9D59"/>
<path d="M24.5417 107.989V95.8319H26.7437V104.686L34.1983 95.8319H36.1939V107.989H33.9919V99.1348L26.5602 107.989H24.5417Z" fill="#CF9D59"/>
<path d="M40.4679 107.989V95.8319H42.7387L47.9684 104.823H47.0509L52.4182 95.8319H54.4825V107.989H52.487V98.3091L52.854 98.5155L47.9454 106.612H46.9821L42.0506 98.3549L42.4864 98.2632V107.989H40.4679Z" fill="#CF9D59"/>
<path d="M66.223 107.989V105.42L66.1083 104.938V100.557C66.1083 99.6241 65.8331 98.9054 65.2826 98.4008C64.7474 97.8809 63.9369 97.621 62.8512 97.621C62.1325 97.621 61.4291 97.7433 60.741 97.988C60.0529 98.2173 59.4718 98.5308 58.9978 98.9284L58.0803 97.2769C58.7072 96.7723 59.4565 96.39 60.3281 96.13C61.215 95.8548 62.1402 95.7172 63.1035 95.7172C64.7703 95.7172 66.0548 96.1224 66.957 96.9328C67.8592 97.7433 68.3103 98.9819 68.3103 100.649V107.989H66.223ZM62.2319 108.126C61.3297 108.126 60.5346 107.973 59.8464 107.667C59.1736 107.362 58.6537 106.941 58.2867 106.406C57.9197 105.855 57.7362 105.236 57.7362 104.548C57.7362 103.89 57.8891 103.294 58.195 102.759C58.5161 102.224 59.0284 101.796 59.7318 101.474C60.4505 101.153 61.4138 100.993 62.6218 100.993H66.4753V102.575H62.7136C61.6126 102.575 60.871 102.759 60.4887 103.126C60.1064 103.493 59.9153 103.936 59.9153 104.456C59.9153 105.053 60.1523 105.534 60.6263 105.901C61.1003 106.253 61.7579 106.429 62.5989 106.429C63.4247 106.429 64.1434 106.245 64.755 105.878C65.382 105.511 65.8331 104.976 66.1083 104.273L66.5441 105.787C66.2536 106.505 65.7413 107.079 65.0073 107.507C64.2733 107.92 63.3482 108.126 62.2319 108.126Z" fill="#CF9D59"/>
<path d="M77.1508 107.989V106.429L83.6879 100.121C84.269 99.5706 84.6972 99.0889 84.9724 98.6761C85.2629 98.2479 85.4541 97.858 85.5458 97.5063C85.6529 97.1393 85.7064 96.7876 85.7064 96.4512C85.7064 95.6254 85.4158 94.9755 84.8348 94.5015C84.2537 94.0275 83.405 93.7904 82.2887 93.7904C81.4324 93.7904 80.6602 93.9357 79.9721 94.2262C79.284 94.5015 78.6876 94.9373 78.183 95.5337L76.6232 94.1804C77.2349 93.4005 78.053 92.8041 79.0775 92.3913C80.1173 91.9631 81.2566 91.749 82.4952 91.749C83.6115 91.749 84.5825 91.9325 85.4082 92.2995C86.2339 92.6512 86.8685 93.1635 87.312 93.8363C87.7707 94.5091 88.0001 95.3043 88.0001 96.2218C88.0001 96.7417 87.9313 97.254 87.7937 97.7586C87.6561 98.2632 87.3961 98.7984 87.0138 99.3642C86.6315 99.93 86.081 100.565 85.3623 101.268L79.5363 106.888L78.9858 105.993H88.6882V107.989H77.1508Z" fill="#CF9D59"/>
<path d="M97.1118 108.172C95.8578 108.172 94.7339 107.851 93.74 107.209C92.7613 106.566 91.9815 105.634 91.4004 104.41C90.8346 103.187 90.5517 101.704 90.5517 99.9606C90.5517 98.2173 90.8346 96.734 91.4004 95.5107C91.9815 94.2874 92.7613 93.3546 93.74 92.7124C94.7339 92.0701 95.8578 91.749 97.1118 91.749C98.3504 91.749 99.4666 92.0701 100.461 92.7124C101.455 93.3546 102.234 94.2874 102.8 95.5107C103.366 96.734 103.649 98.2173 103.649 99.9606C103.649 101.704 103.366 103.187 102.8 104.41C102.234 105.634 101.455 106.566 100.461 107.209C99.4666 107.851 98.3504 108.172 97.1118 108.172ZM97.1118 106.131C97.9528 106.131 98.6868 105.901 99.3137 105.443C99.956 104.984 100.453 104.296 100.805 103.378C101.172 102.461 101.355 101.321 101.355 99.9606C101.355 98.5996 101.172 97.4604 100.805 96.5429C100.453 95.6254 99.956 94.9373 99.3137 94.4786C98.6868 94.0198 97.9528 93.7904 97.1118 93.7904C96.2707 93.7904 95.5291 94.0198 94.8868 94.4786C94.2446 94.9373 93.74 95.6254 93.373 96.5429C93.0213 97.4604 92.8454 98.5996 92.8454 99.9606C92.8454 101.321 93.0213 102.461 93.373 103.378C93.74 104.296 94.2446 104.984 94.8868 105.443C95.5291 105.901 96.2707 106.131 97.1118 106.131Z" fill="#CF9D59"/>
<path d="M105.598 107.989V106.429L112.135 100.121C112.717 99.5706 113.145 99.0889 113.42 98.6761C113.71 98.2479 113.902 97.858 113.993 97.5063C114.1 97.1393 114.154 96.7876 114.154 96.4512C114.154 95.6254 113.863 94.9755 113.282 94.5015C112.701 94.0275 111.853 93.7904 110.736 93.7904C109.88 93.7904 109.108 93.9357 108.42 94.2262C107.732 94.5015 107.135 94.9373 106.631 95.5337L105.071 94.1804C105.682 93.4005 106.501 92.8041 107.525 92.3913C108.565 91.9631 109.704 91.749 110.943 91.749C112.059 91.749 113.03 91.9325 113.856 92.2995C114.681 92.6512 115.316 93.1635 115.76 93.8363C116.218 94.5091 116.448 95.3043 116.448 96.2218C116.448 96.7417 116.379 97.254 116.241 97.7586C116.104 98.2632 115.844 98.7984 115.461 99.3642C115.079 99.93 114.529 100.565 113.81 101.268L107.984 106.888L107.433 105.993H117.136V107.989H105.598Z" fill="#CF9D59"/>
<path d="M123.93 108.172C122.799 108.172 121.698 107.996 120.627 107.645C119.572 107.293 118.708 106.819 118.035 106.222L119.09 104.41C119.626 104.915 120.321 105.328 121.178 105.649C122.034 105.97 122.952 106.131 123.93 106.131C125.123 106.131 126.048 105.878 126.706 105.374C127.378 104.854 127.715 104.158 127.715 103.286C127.715 102.445 127.394 101.773 126.751 101.268C126.125 100.748 125.123 100.488 123.747 100.488H122.462V98.8825L127.233 93.0106L127.554 93.9281H118.769V91.9325H129.366V93.4923L124.618 99.3412L123.426 98.6302H124.183C126.125 98.6302 127.577 99.066 128.541 99.9376C129.519 100.809 130.009 101.918 130.009 103.264C130.009 104.166 129.787 104.991 129.343 105.741C128.9 106.49 128.227 107.086 127.325 107.53C126.438 107.958 125.306 108.172 123.93 108.172Z" fill="#CF9D59"/>
<defs>
<linearGradient id="paint0_linear_1_3238" x1="21.0551" y1="9.22803" x2="21.0551" y2="66.6106" gradientUnits="userSpaceOnUse">
<stop stop-color="#D3A15C"/>
<stop offset="1" stop-color="#8D5B29"/>
</linearGradient>
<linearGradient id="paint1_linear_1_3238" x1="119.47" y1="8.85425" x2="119.47" y2="66.2321" gradientUnits="userSpaceOnUse">
<stop stop-color="#D3A15C"/>
<stop offset="1" stop-color="#8D5B29"/>
</linearGradient>
<linearGradient id="paint2_linear_1_3238" x1="50.8524" y1="0" x2="50.8524" y2="45.8119" gradientUnits="userSpaceOnUse">
<stop stop-color="#D3A15C"/>
<stop offset="1" stop-color="#8D5B29"/>
</linearGradient>
<linearGradient id="paint3_linear_1_3238" x1="71.0008" y1="0" x2="71.0008" y2="45.8119" gradientUnits="userSpaceOnUse">
<stop stop-color="#D3A15C"/>
<stop offset="1" stop-color="#8D5B29"/>
</linearGradient>
<linearGradient id="paint4_linear_1_3238" x1="91.1532" y1="0" x2="91.1532" y2="45.8119" gradientUnits="userSpaceOnUse">
<stop stop-color="#D3A15C"/>
<stop offset="1" stop-color="#8D5B29"/>
</linearGradient>
</defs>
</svg>
