<svg width="174" height="141" viewBox="0 0 174 141" fill="none" xmlns="http://www.w3.org/2000/svg">
<path fill-rule="evenodd" clip-rule="evenodd" d="M75.4191 10.0443L76.3176 7.06167L86.526 0L97.0307 7.06167L97.9292 10.0443L118.566 25.6357L86.526 9.33812L54.4766 25.6357L75.4191 10.0443ZM106.795 31.0557V24.7734L85.8745 13.886L76.5426 18.747L76.5341 19.5703L69.8328 23.145L63.6559 33.4989V26.448L57.34 29.8173L58.3231 29.8741L55.3274 31.9751L58.6013 30.9057V41.1744L60.0296 43.0767L43.929 35.9312L42.5245 35.2574L19.8716 23.7966L19.3362 28.5271L5.33984 18.1586L20.2349 43.0179L23.5428 34.1071L64.0883 48.0669L63.7382 47.8579L63.6559 41.922L65.8633 38.2215L71.6135 47.8561L79.0424 50.2033L68.7105 33.4799L76.5264 20.324L76.4568 27.095L101.568 40.1428V42.1232L95.3113 44.0562L80.9038 36.5516V32.9319H75.8379V39.309L94.7018 49.1351L106.7 45.4396L106.814 36.5326L81.6085 23.409V21.4949L85.8745 19.2776L101.729 27.5308V31.0557H106.795ZM117.427 31.0877L109.038 26.7039L108.953 48.0669L150.176 34.3759L153.178 42.5319L167.702 18.1586L154.054 28.3204L153.532 23.6937L119.953 39.788L119.668 40.0024L113.544 42.7026L114.527 41.8164V31.8702L113.582 30.7012L117.427 31.0877ZM80.606 49.7885L75.8379 41.658L80.3162 45.053L80.4845 43.5098L92.9284 50.2033L81.6625 46.8758L80.606 49.7885ZM55.5436 38.4536L47.807 25.2456L46.0857 29.9825L27.7715 24.5676L47.9921 35.4548L48.2697 32.9431L55.5436 38.4536ZM124.174 25.2456L116.428 38.4536L123.702 32.9526L123.989 35.4644L144.2 24.5676L125.895 29.9825L124.174 25.2456ZM82.2389 48.0669L91.8612 50.4235L86.3274 52.3396L81.1797 50.5666L84.5653 50.5006L82.2389 48.0669ZM50.2031 80.1116L56.4619 54.0625L52.8828 50.022L52.6082 48.0669L66.6786 52.0143L72.6344 78.0634L64.9837 78.7803L64.141 73.1664L58.9522 74.3301L58.2231 79.4133L50.2031 80.1116ZM63.4119 68.5673L61.5466 56.7996L59.7191 69.1259L63.4119 68.5673ZM36.0996 88.8935L30.9766 112.156H37.9928L38.7285 106.701H43.4927L44.2553 112.156H51.2715L45.3858 84.3842L32.6185 85.6548L32.6813 86.7153L36.0996 88.8935ZM41.0253 90.1641L42.7659 101.791H39.4104L41.0253 90.1641ZM143.131 112.156L137.738 88.8935L141.336 86.7153L141.402 85.6548L127.963 84.3842L121.768 112.156H129.153L129.956 106.701H134.971L135.745 112.156H143.131ZM130.721 101.791L132.553 90.1641L134.253 101.791H130.721ZM50.315 86.7821L50.2031 83.7912L66.2201 82.2479L69.2315 85.6509L69.6323 97.6622L67.0685 100.04L71.4597 110.182L72.625 110.718L72.6344 112.127H65.8379L62.0061 101.314H58.7896V112.156L52.8788 112.127V88.5459L50.315 86.7821ZM58.2769 89.3032L58.2303 96.0613L61.9408 96.1284L63.5258 94.5563L63.4418 86.7725L56.1978 87.664L58.2769 89.3032ZM127.109 45.9747V80.6188L154.805 83.316L154.881 80.514L150.388 74.0998L136.411 74.4429L136.402 66.0464L144.162 65.6556L144.746 58.4409L136.66 59.0127V52.7129L132.809 51.9505L144.449 49.8728L147.61 42.9439L146.825 40.5899L127.109 45.9747ZM74.7715 112.156V82.2254L86.4595 81.1797L92.9301 81.7959L92.7444 83.4577L90.0986 87.6869L85.8932 87.024L77.5937 87.6869L81.3721 88.8819L81.3814 94.1193H88.8361V99.4407H81.4185V106.209H89.8108L92.7444 110.569V112.156H74.7715ZM97.2604 112.156L97.8941 85.16L96.1328 83.1699L96.3006 81.1797L105.676 82.0066L112.274 99.1965L112.367 86.6117L109.711 84.8043V82.4776L118.564 83.3333L118.545 112.156L110.428 112.147L103.57 93.63V112.156H97.2604ZM25.7232 42.4714L26.1364 40.5899L44.4563 45.8751L48.0652 50.0541L46.3939 59.9627L43.2166 62.9504L46.3939 66.1934V77.6432L42.1606 81.3778L21.3613 83.316L28.1934 46.1682L25.7232 42.4714ZM36.4029 75.8373L29.1209 76.0926L31.4533 65.8909L38.1477 65.7963L37.9916 74.2489L36.4029 75.8373ZM39.02 59.7263L32.4451 59.5845L33.694 52.7676L32.2982 49.865L40.5168 51.5385L39.02 59.7263ZM74.7447 61.6114V58.2511L71.4037 57.4039L70.9993 58.2321L69.4298 58.6033L69.5743 52.3396L86.5203 57.2135V62.5253L84.8738 61.7162L84.4406 60.6785L81.2054 59.8694V61.5067V63.6962L81.1958 75.6145L82.3319 75.9667V77.1661L73.5893 77.9753V76.7663L74.7351 76.2142L74.7447 61.6114ZM99.3635 58.2511V61.6114L99.3731 76.2142L100.519 76.7663V77.9753L91.7763 77.1661V75.9667L92.922 75.6144L92.9028 63.6962V61.5067V59.8694L89.6676 60.6785L89.2344 61.7161L87.5879 62.5253V57.2135L104.534 52.3396L104.678 58.6033L103.109 58.2321L102.714 57.4039L99.3635 58.2511ZM106.815 52.8463V51.7282L116.017 49.1351L115.8 74.3992L124.841 74.4838L124.973 80.1116L109.486 78.6741V53.8704L106.815 52.8463ZM26.3266 106.202L0 124.733L19.4065 120.414L18.203 124.308L67.7064 122.054L68.1107 124.855L68.9851 127.844L86.5111 140.358L104.564 127.844L105.466 124.751L105.861 122.054L154.829 124.289L153.635 120.414L173.041 124.733L146.714 106.202L147.344 117.386H25.6966L26.3266 106.202ZM85.7956 128.137C85.7898 128.125 85.766 128.092 85.7331 128.046L85.732 128.044C85.7119 128.016 85.6886 127.983 85.664 127.948L85.6433 127.918C85.4953 127.705 85.3071 127.434 85.3161 127.335C85.3161 127.276 85.5036 126.977 85.6441 126.752L85.6442 126.752L85.6922 126.675L85.7862 126.534L85.8238 126.458H86.8769L86.9239 126.524C86.945 126.561 87.0018 126.655 87.0675 126.764C87.1187 126.848 87.1754 126.941 87.2248 127.024C87.2906 127.147 87.347 127.26 87.3564 127.298L87.3658 127.307C87.3752 127.364 87.3188 127.514 87.2342 127.665C87.1213 127.863 86.9709 128.109 86.9333 128.156L86.8957 128.203L85.8426 128.212L85.7956 128.137ZM82.2603 125.751C82.2008 125.796 82.0941 125.852 81.9915 125.907L81.9895 125.908C81.9632 125.922 81.9373 125.936 81.9124 125.949L81.7996 126.015L81.5834 126.138L81.4235 126.222C81.4141 126.336 81.4141 126.543 81.4141 126.685L81.574 126.769C81.7808 126.873 81.7996 126.883 81.9501 126.798C82.1381 126.703 82.3167 126.6 82.4954 126.487L82.627 126.411L82.8433 126.279C82.8711 126.263 82.896 126.248 82.9187 126.235C83.0036 126.185 83.0586 126.152 83.1253 126.138C83.2382 126.109 83.304 126.147 83.445 126.232L83.5861 126.307L83.6966 126.37L83.6968 126.37C83.8949 126.483 84.1503 126.628 84.1972 126.675L84.2912 126.798L84.1596 126.883C84.0996 126.931 84.0281 126.975 83.9549 127.02C83.9134 127.046 83.8713 127.072 83.8305 127.099L83.6425 127.213C83.5861 127.25 83.539 127.279 83.4732 127.316L83.4262 127.354C83.459 127.371 83.4935 127.391 83.5275 127.41C83.5715 127.436 83.6147 127.461 83.6519 127.477L83.7929 127.552C83.8138 127.564 83.8363 127.577 83.8597 127.59L83.862 127.591C83.9861 127.661 84.1358 127.745 84.2066 127.816C84.2536 127.863 84.31 127.948 84.3476 128.005L84.1784 128.071C84.1126 128.099 84.0186 128.156 83.9339 128.212C83.9206 128.222 83.9072 128.231 83.8929 128.24C83.8847 128.245 83.8762 128.251 83.8673 128.256L83.8671 128.256C83.848 128.268 83.827 128.281 83.8023 128.297L83.6237 128.401C83.5983 128.415 83.5749 128.428 83.5529 128.441C83.4286 128.511 83.3543 128.553 83.2664 128.561C83.1535 128.561 83.0877 128.523 82.9467 128.439L82.8245 128.363C82.7378 128.313 82.652 128.263 82.5667 128.214C82.3653 128.097 82.1671 127.983 81.9689 127.863C81.8748 127.807 81.8748 127.807 81.7339 127.873L81.7338 127.873L81.7056 127.892L81.7053 127.892C81.6112 127.939 81.4423 128.024 81.4329 128.033V128.278V128.505L81.9124 128.74L81.9289 128.748C82.1009 128.83 82.2524 128.902 82.2979 128.938L82.4108 129.023L82.3261 129.136C82.2603 129.221 82.0911 129.306 81.9783 129.363L81.9124 129.391L81.7902 129.457C81.7573 129.475 81.7242 129.493 81.6911 129.511C81.6599 129.528 81.6286 129.545 81.5973 129.562C81.3489 129.697 81.0982 129.833 80.8594 129.976V130.098V130.362C80.8655 130.436 80.8676 130.462 80.8815 130.476C80.8888 130.484 80.8994 130.488 80.9156 130.494L80.9158 130.494C80.9221 130.501 80.9367 130.507 80.9513 130.513C80.9586 130.516 80.9659 130.52 80.9722 130.523C81.0024 130.536 81.0306 130.549 81.0568 130.561L81.0579 130.561C81.0885 130.575 81.1163 130.588 81.1414 130.598C81.3107 130.683 81.3389 130.692 81.5175 130.598C81.6462 130.537 81.7699 130.466 81.8923 130.396C81.9399 130.369 81.9873 130.342 82.0347 130.315L82.1851 130.23C82.3544 130.127 82.6834 129.929 82.8057 129.938L82.9467 129.947L82.9561 130.994C82.9723 131.01 82.9948 131.024 83.0181 131.037L83.0184 131.037C83.0229 131.04 83.0275 131.043 83.0321 131.045C83.0447 131.053 83.0573 131.061 83.0689 131.07C83.0877 131.079 83.1629 131.126 83.1724 131.145C83.1888 131.153 83.2053 131.169 83.2202 131.183C83.2393 131.201 83.2558 131.216 83.2664 131.211C83.3191 131.193 83.4869 131.085 83.616 131.002L83.6425 130.985L83.6801 130.966L83.6989 129.382L83.7553 129.344C83.8117 129.306 84.1126 129.118 84.3571 128.986C84.5357 128.891 84.6861 128.816 84.7425 128.816L84.8742 128.825V128.957V129.25C84.8648 129.448 84.8648 129.664 84.8742 129.853C84.932 129.818 84.9968 129.773 85.0645 129.725L85.0649 129.725C85.1072 129.696 85.1505 129.665 85.1939 129.636C85.3913 129.495 85.5888 129.363 85.711 129.344L85.8708 129.316L85.8802 130.57L85.805 130.608C85.7298 130.655 85.2597 130.938 84.893 131.145C84.7426 131.239 84.6015 131.315 84.5075 131.362L84.5169 131.815C84.5608 131.852 84.613 131.882 84.6652 131.911C84.6913 131.926 84.7175 131.94 84.7425 131.956L84.799 131.984C84.8328 132.001 84.8497 132.015 84.8599 132.023C84.8667 132.028 84.8704 132.031 84.8742 132.031C84.8773 132.028 84.8784 132.026 84.8794 132.024C84.8815 132.02 84.8836 132.016 84.9024 132.003L85.0622 131.909C85.2503 131.796 85.6358 131.569 85.7204 131.56L85.8802 131.532L85.8896 131.692C85.9037 131.932 85.902 132.178 85.9002 132.425C85.8996 132.507 85.899 132.59 85.899 132.673V133.022C85.899 133.097 85.899 133.201 85.9084 133.239C85.9084 133.243 85.9209 133.251 85.9421 133.263C85.9619 133.275 85.9894 133.291 86.0213 133.314C86.1623 133.408 86.3221 133.503 86.3316 133.503C86.3316 133.503 86.529 133.371 86.623 133.314C86.6324 133.314 86.6794 133.286 86.6888 133.276C86.717 133.257 86.7358 133.239 86.7453 133.22C86.7515 133.182 86.7495 133.132 86.7474 133.081C86.7466 133.062 86.7458 133.042 86.7455 133.023C86.7453 133.016 86.7453 133.01 86.7453 133.003V132.937V132.936C86.7453 132.635 86.7453 132.342 86.7547 132.05L86.7641 131.541L86.9239 131.56C87.0052 131.569 87.2515 131.709 87.4625 131.828L87.4626 131.828L87.488 131.843C87.6103 131.918 87.7137 131.975 87.7701 132.003C87.8077 132.022 87.8265 132.013 87.8641 131.994L87.9676 131.947C87.9961 131.932 88.021 131.92 88.0425 131.91C88.1059 131.88 88.1392 131.864 88.1462 131.843C88.165 131.824 88.165 131.749 88.165 131.598V131.598V131.551C88.1741 131.377 88.1479 131.363 88.0523 131.311L88.0428 131.305L87.8077 131.164L87.6197 131.06C87.5837 131.04 87.5461 131.018 87.5068 130.996C87.4535 130.965 87.3971 130.932 87.3376 130.9C87.1684 130.796 86.9803 130.683 86.8487 130.626L86.7641 130.589L86.7829 129.316L86.9521 129.344C87.0349 129.359 87.2382 129.483 87.3739 129.566C87.4077 129.586 87.4373 129.604 87.4598 129.617L87.4786 129.636C87.5137 129.654 87.5704 129.689 87.6309 129.728L87.6318 129.728C87.6685 129.751 87.7065 129.775 87.7419 129.797L87.7701 128.787L87.9393 128.844C88.0052 128.854 88.1744 128.948 88.3531 129.052C88.5975 129.184 88.8702 129.344 88.9454 129.4L89.0018 129.438L89.0112 129.514V130.362V130.56C89.0112 130.607 89.0084 130.648 89.0058 130.685C89.0037 130.715 89.0018 130.742 89.0018 130.768C88.9924 131.004 88.9924 131.013 89.2651 131.154L89.2745 131.164L89.2857 131.17C89.3694 131.212 89.3822 131.218 89.4813 131.164L89.613 131.088C89.6275 131.08 89.641 131.072 89.6533 131.065C89.6643 131.058 89.6743 131.053 89.6835 131.047C89.7305 131.021 89.754 131.007 89.754 130.994C89.7728 130.956 89.7728 130.872 89.7728 130.74C89.7634 130.589 89.7634 130.391 89.7822 130.098L89.7916 129.91L89.9609 129.966C90.0326 129.99 90.1112 130.035 90.185 130.076L90.2241 130.098C90.3356 130.162 90.4493 130.225 90.5636 130.288L90.5643 130.289C90.7872 130.412 91.0128 130.536 91.2302 130.674C91.2394 130.68 91.2456 130.684 91.2523 130.685C91.2664 130.688 91.2829 130.68 91.3336 130.655C91.3748 130.638 91.4124 130.622 91.4464 130.607C91.49 130.587 91.5276 130.571 91.5593 130.56C91.7003 130.504 91.7285 130.485 91.7379 130.353V129.957V129.929C91.7003 129.9 91.4088 129.749 91.2396 129.664L90.9857 129.514C90.7883 129.4 90.478 129.221 90.4216 129.146L90.3276 129.023L90.4404 128.938C90.572 128.844 90.7225 128.759 90.8729 128.684L90.9763 128.627C91.0515 128.589 91.1268 128.542 91.1832 128.505C91.2114 128.486 91.2114 128.439 91.2114 128.373V128.307C91.2114 128.052 91.202 128.043 91.0139 127.91H91.0045C90.8703 127.812 90.8638 127.816 90.8068 127.849L90.7977 127.854C90.7821 127.862 90.7665 127.871 90.7483 127.882C90.7224 127.898 90.6913 127.917 90.6472 127.939C90.5984 127.965 90.5486 127.992 90.4982 128.019L90.4933 128.021C90.3805 128.082 90.2647 128.145 90.1489 128.203C90.069 128.25 89.9867 128.297 89.9045 128.344C89.8222 128.391 89.7399 128.439 89.66 128.486C89.4719 128.599 89.4343 128.58 89.3027 128.505L89.2463 128.467L89.0864 128.391L89.0243 128.36C88.8367 128.267 88.6446 128.171 88.4753 128.052L88.3625 127.977L88.4377 127.854C88.5083 127.757 88.6782 127.668 88.862 127.571L88.8984 127.552C88.9692 127.511 89.04 127.473 89.1038 127.439L89.1044 127.439C89.1421 127.419 89.1773 127.4 89.2087 127.382L89.1335 127.326C89.077 127.298 89.0112 127.26 88.9454 127.213L88.9189 127.197C88.7459 127.097 88.5464 126.981 88.4659 126.883L88.3719 126.779L88.4753 126.685C88.5129 126.647 88.7856 126.458 89.0206 126.307C89.2087 126.175 89.3967 126.072 89.4437 126.072L89.4719 126.062L89.5001 126.072C89.5789 126.098 89.7717 126.214 89.9118 126.299L89.9421 126.317C90.1395 126.43 90.337 126.543 90.5344 126.666C90.6378 126.732 90.8541 126.864 90.8729 126.873L91.0045 126.807C91.0296 126.791 91.0568 126.775 91.084 126.758L91.0844 126.758C91.1386 126.724 91.1927 126.691 91.2302 126.666L91.2208 126.213C91.1173 126.156 90.9387 126.053 90.7789 125.958C90.619 125.874 90.4686 125.779 90.4216 125.742L90.3087 125.647L90.4028 125.544C90.478 125.459 90.9011 125.223 91.1738 125.072L91.3806 124.959C91.4524 124.916 91.5187 124.878 91.5754 124.846L91.6251 124.817C91.7097 124.78 91.7567 124.751 91.7661 124.733C91.7755 124.723 91.7755 124.667 91.7755 124.544V124.421V124.327C91.7849 124.28 91.7849 124.233 91.7755 124.233C91.7583 124.221 91.6959 124.182 91.6221 124.136C91.5746 124.106 91.5225 124.074 91.4746 124.044C91.435 124.021 91.4124 124.002 91.3986 123.99C91.3896 123.983 91.3844 123.978 91.3806 123.978C91.3597 123.978 91.1587 124.092 90.9527 124.208L90.9502 124.21C90.8786 124.25 90.8065 124.291 90.7413 124.327C90.6978 124.351 90.6579 124.373 90.6224 124.393L90.622 124.393C90.5579 124.429 90.5082 124.456 90.478 124.468C90.4611 124.479 90.443 124.489 90.4242 124.499C90.3905 124.518 90.3543 124.539 90.3181 124.563L90.318 124.563C90.1958 124.629 90.0736 124.695 89.9609 124.733L89.7822 124.799L89.7728 124.61C89.7634 124.497 89.7634 124.393 89.7634 124.289V123.959V123.837C89.7728 123.714 89.7728 123.648 89.6882 123.61L89.4625 123.507C89.3497 123.459 89.3121 123.478 89.2369 123.525C89.2203 123.534 89.202 123.544 89.1816 123.555C89.1329 123.582 89.072 123.615 88.9924 123.648L88.9642 125.393L88.8796 125.421C88.8138 125.449 88.6351 125.544 88.4659 125.647L88.399 125.683C88.1796 125.802 87.9786 125.911 87.9017 125.911H87.7701L87.7325 124.855C87.7012 124.878 87.6615 124.902 87.6183 124.929C87.58 124.952 87.5389 124.978 87.4987 125.005C87.4888 125.011 87.479 125.018 87.4692 125.025C87.2624 125.157 87.0555 125.289 86.9333 125.308L86.7735 125.317V124.063L88.1932 123.271V122.865C88.1274 122.818 88.0428 122.762 87.9676 122.714L87.8641 122.639C87.8433 122.629 87.8398 122.621 87.8376 122.616C87.8358 122.613 87.8349 122.611 87.8265 122.611C87.8229 122.611 87.8221 122.612 87.8208 122.614C87.8194 122.617 87.8176 122.62 87.8116 122.624C87.8085 122.626 87.8042 122.628 87.7983 122.63L87.6009 122.743C87.394 122.865 87.0461 123.063 86.9333 123.092L86.7641 123.129L86.7547 121.63V121.545C86.7547 121.527 86.7553 121.51 86.756 121.494C86.7577 121.452 86.759 121.42 86.7453 121.413L86.6512 121.347C86.6128 121.321 86.5667 121.289 86.5219 121.258L86.5211 121.257C86.4347 121.197 86.3533 121.14 86.341 121.14C86.3305 121.147 86.3158 121.157 86.2981 121.167C86.2851 121.175 86.2706 121.183 86.2551 121.192C86.227 121.209 86.1956 121.227 86.1641 121.246C86.1509 121.255 86.1377 121.263 86.1247 121.272C86.0401 121.319 85.9555 121.375 85.899 121.423L85.8896 123.101L85.7298 123.092C85.6452 123.082 85.2221 122.837 85.0434 122.733L84.9964 122.705C84.859 122.622 84.8465 122.629 84.7504 122.682L84.7425 122.686L84.7093 122.709C84.6596 122.742 84.599 122.784 84.5075 122.837L84.4981 123.271C84.6297 123.346 84.8272 123.459 84.9776 123.554L85.1186 123.639C85.1827 123.677 85.2467 123.711 85.3137 123.747L85.3151 123.748C85.346 123.764 85.3776 123.781 85.4101 123.799C85.4266 123.808 85.4432 123.818 85.4599 123.827L85.4937 123.846L85.4939 123.847C85.6001 123.906 85.7084 123.968 85.805 124.035L85.8708 124.072L85.8802 124.233C85.8802 124.292 85.8806 124.353 85.881 124.416V124.416C85.8825 124.673 85.8841 124.95 85.8614 125.185L85.8426 125.355L85.6828 125.308C85.5314 125.26 85.3867 125.178 85.2431 125.097C85.2173 125.082 85.1915 125.068 85.1657 125.053C85.0622 124.987 84.9588 124.921 84.8554 124.874C84.846 124.997 84.846 125.157 84.846 125.308V125.308C84.846 125.468 84.846 125.638 84.8366 125.77L84.8084 125.949L84.6391 125.892C84.5276 125.851 84.3697 125.757 84.215 125.665L84.2145 125.665C84.1606 125.633 84.1071 125.601 84.0562 125.572L83.9151 125.487L83.7459 125.393H83.6519V125.261L83.6425 125.242V123.723L83.445 123.61C83.4121 123.591 83.3839 123.573 83.3592 123.556C83.3345 123.54 83.3134 123.525 83.2946 123.516C83.257 123.488 83.2382 123.478 83.21 123.497L82.9091 123.695L82.8903 124.799L82.7304 124.78C82.642 124.771 82.0787 124.445 81.809 124.288L81.762 124.261L81.621 124.186C81.5928 124.167 81.5623 124.148 81.5318 124.129L81.5316 124.129C81.5011 124.11 81.4705 124.091 81.4423 124.072L81.3859 124.044L81.3699 124.036C81.34 124.02 81.3159 124.008 81.2919 124.016C81.2347 124.041 81.1776 124.071 81.1233 124.099C81.1059 124.108 81.0888 124.117 81.0721 124.126C81.0638 124.13 81.0555 124.134 81.0474 124.138L80.8782 124.233V124.761C81.1508 124.931 81.5834 125.157 81.9124 125.327L82.0629 125.402C82.1945 125.478 82.2885 125.544 82.4014 125.628L82.2603 125.751Z" fill="url(#paint0_linear_1_3211)"/>
<defs>
<linearGradient id="paint0_linear_1_3211" x1="86.5205" y1="0" x2="86.5205" y2="140.358" gradientUnits="userSpaceOnUse">
<stop stop-color="#D1A460"/>
<stop offset="1" stop-color="#D9C485"/>
</linearGradient>
</defs>
</svg>
