<svg width="47" height="50" viewBox="0 0 47 50" fill="none" xmlns="http://www.w3.org/2000/svg">
<path fill-rule="evenodd" clip-rule="evenodd" d="M0 14.4404C6.70653 20.6808 8.00982 26.8695 8.93299 35.5338C11.2952 37.803 14.2548 39.737 16.617 42.032C19.2507 44.5591 21.3143 47.4471 23.948 50C26.2559 43.1924 26.7447 39.4533 26.3917 34.8891C25.4142 22.5374 17.9203 13.0995 9.23166 0C14.119 11.8876 17.16 17.1738 16.7799 30.4023C10.9151 20.7065 10.0734 19.7267 0 14.4404ZM26.0116 20.4229C27.6407 23.3883 28.7267 25.5028 29.8671 30.067C31.1433 22.1506 34.0214 10.8819 37.2525 3.48118C32.528 7.83909 28.944 15.0593 26.0116 20.4229ZM31.0347 43.0892C34.2929 27.54 34.0485 25.2192 47 14.5178C40.7279 22.3311 40.022 26.6374 38.7187 36.6426C37.4968 37.1068 36.3836 37.8546 35.6505 38.4734C33.8042 40.0206 32.175 41.5162 31.0618 43.0892H31.0347Z" fill="#9D9D9D"/>
</svg>
