<svg width="51" height="41" viewBox="0 0 51 41" fill="none" xmlns="http://www.w3.org/2000/svg">
<path fill-rule="evenodd" clip-rule="evenodd" d="M24.197 14.81L19.8535 36.416L25.5395 41L31.3992 36.416L27.0557 14.6818L25.5869 15.8839L24.197 14.81ZM51 9.1681C45.4088 9.1681 39.8176 9.1681 34.2264 9.1681C32.8049 10.6106 31.3834 12.0532 29.9619 13.4957C30.8306 16.7654 31.6835 20.0352 32.5522 23.3049C34.9371 22.2952 37.3221 21.3014 39.6912 20.2916C38.2224 18.3843 36.7693 16.4769 35.3004 14.5536C37.5748 14.5055 39.4701 14.6016 41.0338 14.3612C44.7296 13.7842 47.162 12.0211 50.9684 9.1681H51ZM25.5869 11.6845L18.511 2.99726L19.9799 0H31.1939L32.7575 3.02932L25.5869 11.6685V11.6845ZM0 9.1681C5.5912 9.1681 11.1824 9.1681 16.7736 9.1681C18.1951 10.6106 19.6166 12.0532 21.0381 13.4957C20.1694 16.7654 19.3165 20.0352 18.4478 23.3049C16.0629 22.2952 13.6779 21.3014 11.3088 20.2916C12.7776 18.3843 14.2307 16.4769 15.6996 14.5536C13.4252 14.5055 11.5299 14.6016 9.96624 14.3612C6.27036 13.7842 3.83803 12.0211 0.0315887 9.1681H0Z" fill="#9D9D9D"/>
</svg>
