<svg width="169" height="175" viewBox="0 0 169 175" fill="none" xmlns="http://www.w3.org/2000/svg">
<g clip-path="url(#clip0_1_2966)">
<path fill-rule="evenodd" clip-rule="evenodd" d="M168.414 124.44C168.414 131.466 167.796 139.256 166.561 150.514L166.392 151.986L165.157 152.75C160.085 155.937 143.37 163.765 123.138 169.207C110.41 172.618 96.2228 175.115 82.5033 174.985C67.9604 174.817 53.8479 172.264 41.5509 168.89C22.0854 163.523 6.99968 156.049 1.85255 152.75L0.448791 151.855V150.197C0.467508 144.326 0.33649 138.772 0.205472 133.535C-0.468333 104.46 -0.936254 84.1638 22.31 55.8533C23.2272 54.7165 24.4063 53.505 25.6042 52.3495C27.2139 50.8212 28.8422 49.4234 30.0775 48.417C32.2487 46.6277 33.877 45.5281 35.7487 44.2794C36.3102 43.888 36.9092 43.4966 37.4707 43.1052C39.099 30.4503 44.19 19.6219 52.3505 11.9619C60.3801 4.41366 71.3481 -0.0034421 84.8242 0.0151955C98.1693 0.033833 109.418 4.61867 117.672 12.3346C125.87 20.0319 131.055 30.7858 132.29 43.2171L139.122 48.5101L139.234 48.6406C146.234 55.5924 152.336 64.1657 157.071 73.6522C161.713 82.9151 165.026 93.0539 166.598 103.379C167.796 111.244 168.414 117.357 168.414 124.44Z" fill="#FDA66B"/>
<path fill-rule="evenodd" clip-rule="evenodd" d="M62.0642 13.2851C62.6257 12.7073 61.8771 13.0987 63.337 12.2414C64.2728 11.6636 63.8611 11.9246 65.0776 11.5332L69.4012 9.44577L72.7703 8.45798L79.1714 7.09744C85.1795 5.17777 97.5139 8.04795 102.661 10.2658C116.474 16.1926 123.605 28.3629 125.72 42.6393C128.453 61.0718 123.661 61.9478 122.52 66.2903C123.792 65.2653 124.728 64.1843 126.169 63.0288C127.816 61.7241 128.883 61.3328 130.437 60.1959L133.581 58.4253C133.375 65.3585 133.45 72.4967 130.923 78.5725C127.611 86.5121 127.18 92.2525 121.883 91.4883C121.209 89.6059 122.052 87.2017 122.819 85.8411C124.279 83.2692 130.231 82.3559 130.399 69.7383C127.629 71.5461 127.798 75.0686 124.915 77.1561C124.167 75.5905 123.867 75.4228 124.036 73.8758C123.025 73.2981 123.343 74.3977 123.081 73.2794L123.175 75.1805C124.504 80.5108 121.209 81.219 119.656 86.7358C116.736 97.1542 120.929 105.56 114.415 115.382L109.043 122.352C107.883 123.452 107.958 123.023 107.041 124.272C106.161 125.241 108.164 124.924 105.899 125.092L106.517 123.862C107.19 120.507 108.351 118.364 109.923 115.494C111.252 113.052 112.188 110.573 113.386 108.467C113.498 107.032 113.61 107.852 111.046 111.505C104.158 121.327 97.2893 134.243 85.2731 134.15C80.6313 133.777 76.1954 132.789 75.428 127.943C74.3986 121.383 76.888 119.65 77.88 115.307C84.8052 117.022 80.2008 118.401 90.2705 115.549C90.9069 114.748 91.4309 114.673 92.2358 113.816C92.9844 113.033 93.0593 112.586 94.0139 111.468C95.4738 109.753 98.0005 109.231 100.434 110.424C102.998 111.058 101.968 111.859 104.383 112.046C105.862 108.057 101.837 103.882 99.8161 102.745C94.5192 99.7634 92.0299 102.895 88.5485 103.659L88.0058 104.33C87.9309 104.423 87.8186 104.553 87.7437 104.646L86.6207 105.709C85.8346 106.268 85.8533 106.324 84.8239 106.417C80.3693 105.168 80.0698 104.236 79.1714 99.2788C78.4976 95.6818 78.273 92.4389 78.0484 88.5809C76.5136 92.2897 76.8505 98.291 77.6928 102.429C67.5295 100.658 68.69 105.131 65.7889 106.193C64.2915 103.211 67.1926 101.18 58.8824 92.6439L58.7139 93.5012L59.4439 96.6882L57.3663 97.7133C58.9947 100.043 60.1177 99.1856 59.6685 102.783C59.4439 104.553 58.976 106.79 58.0776 108.15L56.5241 105.951C56.3369 105.578 56.0374 104.87 55.7941 104.516C55.1764 103.584 55.6631 104.199 54.9144 103.547L54.8957 106.119L56.1684 113.891L58.6391 118.83C57.1791 117.749 55.869 115.81 55.3262 114.096C51.7513 106.454 51.6015 103.808 50.8529 94.1162C50.5721 90.426 50.4598 86.7358 49.2432 83.4183C46.8662 76.8765 45.8368 81.8341 46.5667 74.4909L46.2111 73.149C45.9116 73.7081 45.6121 74.6213 45.2752 75.2177C44.564 76.5224 45.3688 75.721 44.0587 76.6715L39.3607 68.7132C38.7244 72.2916 39.473 74.0995 40.1468 77.3238C41.0452 79.318 41.4383 80.4363 42.8608 82.1136C44.1522 83.6419 45.4437 84.2756 46.0052 86.0275C47.0908 86.8103 47.0721 86.6426 47.2592 88.5809C47.3528 89.6805 47.2779 90.3887 47.1656 91.4511C43.0667 92.0475 41.8688 88.9909 40.9142 85.487C36.7778 78.8521 35.6361 67.9491 35.9917 58.7608C36.7965 58.2016 36.1602 58.1644 36.9275 58.7608L39.3607 60.7177C41.0827 61.4819 41.9811 62.041 43.3287 63.1965C44.0399 63.8116 44.5079 64.4825 44.9009 64.8366C46.7352 66.4208 45.556 66.4954 46.3608 64.9112C41.195 57.2511 43.3287 42.4343 46.3047 33.7305C47.8956 29.1084 50.3662 24.8963 52.762 21.7093C54.7834 19.0441 58.9385 14.5897 62.0642 13.2851Z" fill="#00111A"/>
<path fill-rule="evenodd" clip-rule="evenodd" d="M62.0642 13.2851C62.6257 12.7073 61.8771 13.0987 63.337 12.2414C64.2728 11.6636 63.8611 11.9246 65.0776 11.5332L69.4012 9.44577L72.7703 8.45798L79.1714 7.09744C85.1795 5.17777 97.5139 8.04795 102.661 10.2658C116.474 16.1926 123.605 28.3629 125.72 42.6393C128.453 61.0718 123.661 61.9478 122.52 66.2903C123.792 65.2653 124.728 64.1843 126.169 63.0288C127.816 61.7241 128.883 61.3328 130.437 60.1959L133.581 58.4253C133.375 65.3585 133.45 72.4967 130.923 78.5725C127.611 86.5121 127.18 92.2525 121.883 91.4883C121.209 89.6059 122.052 87.2017 122.819 85.8411C124.279 83.2692 130.231 82.3559 130.399 69.7383C127.629 71.5461 127.798 75.0686 124.915 77.1561C124.167 75.5905 123.867 75.4228 124.036 73.8758C123.025 73.2981 123.343 74.3977 123.081 73.2794L123.175 75.1805C124.504 80.5108 121.209 81.219 119.656 86.7358C116.736 97.1542 120.929 105.56 114.415 115.382L109.043 122.352C107.883 123.452 107.958 123.023 107.041 124.272C106.161 125.241 108.164 124.924 105.899 125.092L106.517 123.862C107.19 120.507 108.351 118.364 109.923 115.494C111.252 113.052 112.188 110.573 113.386 108.467C113.498 107.032 113.61 107.852 111.046 111.505C104.158 121.327 97.2893 134.243 85.2731 134.15C80.6313 133.777 76.1954 132.789 75.428 127.943C74.3986 121.383 76.888 119.65 77.88 115.307C84.8052 117.022 80.2008 118.401 90.2705 115.549C90.9069 114.748 91.4309 114.673 92.2358 113.816C92.9844 113.033 93.0593 112.586 94.0139 111.468C95.4738 109.753 98.0005 109.231 100.434 110.424C102.998 111.058 101.968 111.859 104.383 112.046C105.862 108.057 101.837 103.882 99.8161 102.745C94.5192 99.7634 92.0299 102.895 88.5485 103.659L88.0058 104.33C87.9309 104.423 87.8186 104.553 87.7437 104.646L86.6207 105.709C85.8346 106.268 85.8533 106.324 84.8239 106.417C80.3693 105.168 80.0698 104.236 79.1714 99.2788C78.4976 95.6818 78.273 92.4389 78.0484 88.5809C76.5136 92.2897 76.8505 98.291 77.6928 102.429C67.5295 100.658 68.69 105.131 65.7889 106.193C64.2915 103.211 67.1926 101.18 58.8824 92.6439L58.7139 93.5012L59.4439 96.6882L57.3663 97.7133C58.9947 100.043 60.1177 99.1856 59.6685 102.783C59.4439 104.553 58.976 106.79 58.0776 108.15L56.5241 105.951C56.3369 105.578 56.0374 104.87 55.7941 104.516C55.1764 103.584 55.6631 104.199 54.9144 103.547L54.8957 106.119L56.1684 113.891L58.6391 118.83C57.1791 117.749 55.869 115.81 55.3262 114.096C51.7513 106.454 51.6015 103.808 50.8529 94.1162C50.5721 90.426 50.4598 86.7358 49.2432 83.4183C46.8662 76.8765 45.8368 81.8341 46.5667 74.4909L46.2111 73.149C45.9116 73.7081 45.6121 74.6213 45.2752 75.2177C44.564 76.5224 45.3688 75.721 44.0587 76.6715L39.3607 68.7132C38.7244 72.2916 39.473 74.0995 40.1468 77.3238C41.0452 79.318 41.4383 80.4363 42.8608 82.1136C44.1522 83.6419 45.4437 84.2756 46.0052 86.0275C47.0908 86.8103 47.0721 86.6426 47.2592 88.5809C47.3528 89.6805 47.2779 90.3887 47.1656 91.4511C43.0667 92.0475 41.8688 88.9909 40.9142 85.487C36.7778 78.8521 35.6361 67.9491 35.9917 58.7608C36.7965 58.2016 36.1602 58.1644 36.9275 58.7608L39.3607 60.7177C41.0827 61.4819 41.9811 62.041 43.3287 63.1965C44.0399 63.8116 44.5079 64.4825 44.9009 64.8366C46.7352 66.4208 45.556 66.4954 46.3608 64.9112C41.195 57.2511 43.3287 42.4343 46.3047 33.7305C47.8956 29.1084 50.3662 24.8963 52.762 21.7093C54.7834 19.0441 58.9385 14.5897 62.0642 13.2851Z" fill="#00111A"/>
<path fill-rule="evenodd" clip-rule="evenodd" d="M15.1416 119.221C14.8421 108.896 16.1336 98.813 19.3903 89.8856C21.8984 82.9897 28.0375 72.124 32.3423 69.3284L33.4841 72.5899C34.345 77.2307 32.9787 75.7211 29.9279 80.4364C21.2245 93.9859 21.0935 104.87 20.7192 120.526C19.7272 120.544 19.0347 120.395 18.0801 120.209L15.1416 119.221Z" fill="#00111A"/>
<path fill-rule="evenodd" clip-rule="evenodd" d="M15.1416 119.221C14.8421 108.896 16.1336 98.813 19.3903 89.8856C21.8984 82.9897 28.0375 72.124 32.3423 69.3284L33.4841 72.5899C34.345 77.2307 32.9787 75.7211 29.9279 80.4364C21.2245 93.9859 21.0935 104.87 20.7192 120.526C19.7272 120.544 19.0347 120.395 18.0801 120.209L15.1416 119.221Z" fill="#00111A"/>
<path fill-rule="evenodd" clip-rule="evenodd" d="M148.349 120.619C147.862 109.157 148.33 102.112 144.512 91.5071C142.977 87.2204 141.274 84.3316 138.953 80.6973C134.33 73.41 135.21 79.5231 135.996 69.2166C140.095 70.8007 147.151 83.6234 149.416 89.7738C152.354 97.6948 154.451 110.424 153.683 119.65L148.349 120.619Z" fill="#00111A"/>
<path fill-rule="evenodd" clip-rule="evenodd" d="M148.349 120.619C147.862 109.157 148.33 102.112 144.512 91.5071C142.977 87.2204 141.274 84.3316 138.953 80.6973C134.33 73.41 135.21 79.5231 135.996 69.2166C140.095 70.8007 147.151 83.6234 149.416 89.7738C152.354 97.6948 154.451 110.424 153.683 119.65L148.349 120.619Z" fill="#00111A"/>
<path fill-rule="evenodd" clip-rule="evenodd" d="M29.8908 114.096C29.8721 105.224 31.7625 97.8811 35.8241 90.3888L37.2652 88.1337C37.3027 87.9659 37.4337 87.9286 37.5086 87.8354C36.4043 93.3149 34.9818 94.8059 33.5967 104.125C32.6422 110.461 30.9577 114.767 30.7705 121.364C30.7144 121.253 30.6395 121.085 30.6208 120.992L29.9844 118.14C29.8721 116.817 29.8908 115.419 29.8908 114.096Z" fill="#00111A"/>
<path fill-rule="evenodd" clip-rule="evenodd" d="M29.8908 114.096C29.8721 105.224 31.7625 97.8811 35.8241 90.3888L37.2652 88.1337C37.3027 87.9659 37.4337 87.9286 37.5086 87.8354C36.4043 93.3149 34.9818 94.8059 33.5967 104.125C32.6422 110.461 30.9577 114.767 30.7705 121.364C30.7144 121.253 30.6395 121.085 30.6208 120.992L29.9844 118.14C29.8721 116.817 29.8908 115.419 29.8908 114.096Z" fill="#00111A"/>
<path fill-rule="evenodd" clip-rule="evenodd" d="M133.506 91.2461C138.054 101.497 139.664 105.69 138.897 118.96C138.597 118.513 138.579 118.606 138.242 117.767L137.661 114.804C137.437 113.462 137.193 112.213 136.95 110.983C136.464 108.616 136.014 105.728 135.546 103.1C134.461 97.0424 131.766 89.8297 131.541 87.8354C131.84 88.1523 131.953 88.2455 132.308 88.786C133.132 90.0347 131.541 87.3136 132.701 89.4569C133.001 89.9788 133.226 90.6124 133.506 91.2461Z" fill="#00111A"/>
<path fill-rule="evenodd" clip-rule="evenodd" d="M133.506 91.2461C138.054 101.497 139.664 105.69 138.897 118.96C138.597 118.513 138.579 118.606 138.242 117.767L137.661 114.804C137.437 113.462 137.193 112.213 136.95 110.983C136.464 108.616 136.014 105.728 135.546 103.1C134.461 97.0424 131.766 89.8297 131.541 87.8354C131.84 88.1523 131.953 88.2455 132.308 88.786C133.132 90.0347 131.541 87.3136 132.701 89.4569C133.001 89.9788 133.226 90.6124 133.506 91.2461Z" fill="#00111A"/>
<path fill-rule="evenodd" clip-rule="evenodd" d="M37.0775 121.775C33.7647 113.518 35.5989 97.2102 39.5482 91.8799C41.9065 94.0418 41.2701 95.1787 45.2006 97.0425C45.1071 102.596 45.9493 106.287 43.5349 110.89C42.7487 109.101 44.0215 106.361 44.5456 104.535C41.7193 104.516 39.361 108.542 38.1257 111.114C35.861 115.792 37.9011 118.643 37.0775 121.775Z" fill="#00111A"/>
<path fill-rule="evenodd" clip-rule="evenodd" d="M37.0775 121.775C33.7647 113.518 35.5989 97.2102 39.5482 91.8799C41.9065 94.0418 41.2701 95.1787 45.2006 97.0425C45.1071 102.596 45.9493 106.287 43.5349 110.89C42.7487 109.101 44.0215 106.361 44.5456 104.535C41.7193 104.516 39.361 108.542 38.1257 111.114C35.861 115.792 37.9011 118.643 37.0775 121.775Z" fill="#00111A"/>
<path fill-rule="evenodd" clip-rule="evenodd" d="M124.448 97.0796C128.098 95.1786 126.9 93.7621 129.651 92.0288C132.047 99.5397 134.031 104.646 134.05 113.592C134.05 118.997 132.534 120.227 131.991 123.004C132.197 117.991 133.544 116.593 131.186 111.486C129.801 108.467 127.63 104.833 124.879 104.33L126.151 110.592C124.71 109.25 124.167 106.231 124.092 104.33C124.018 102 124.411 99.5397 124.448 97.0796Z" fill="#00111A"/>
<path fill-rule="evenodd" clip-rule="evenodd" d="M124.448 97.0796C128.098 95.1786 126.9 93.7621 129.651 92.0288C132.047 99.5397 134.031 104.646 134.05 113.592C134.05 118.997 132.534 120.227 131.991 123.004C132.197 117.991 133.544 116.593 131.186 111.486C129.801 108.467 127.63 104.833 124.879 104.33L126.151 110.592C124.71 109.25 124.167 106.231 124.092 104.33C124.018 102 124.411 99.5397 124.448 97.0796Z" fill="#00111A"/>
<path fill-rule="evenodd" clip-rule="evenodd" d="M41.832 119.463C42.1877 117.674 41.9443 117.544 43.5914 116.761C43.4604 118.047 43.8347 117.283 43.2358 118.233C41.963 120.302 43.1235 118.513 41.832 119.463Z" fill="#00111A"/>
<path fill-rule="evenodd" clip-rule="evenodd" d="M41.832 119.463C42.1877 117.674 41.9443 117.544 43.5914 116.761C43.4604 118.047 43.8347 117.283 43.2358 118.233C41.963 120.302 43.1235 118.513 41.832 119.463Z" fill="#00111A"/>
<path fill-rule="evenodd" clip-rule="evenodd" d="M125.814 116.63C127.555 117.432 127.443 117.32 127.349 119.966L125.814 116.63Z" fill="#00111A"/>
<path fill-rule="evenodd" clip-rule="evenodd" d="M125.814 116.63C127.555 117.432 127.443 117.32 127.349 119.966L125.814 116.63Z" fill="#00111A"/>
<path fill-rule="evenodd" clip-rule="evenodd" d="M163.547 150.197C165.999 127.832 165.961 119.352 163.603 103.826C160.515 83.5861 150.501 64.0912 137.1 50.7653L129.37 44.7826C127.554 20.7029 110.26 3.07176 84.8238 3.03448C58.77 2.99721 42.9543 20.442 40.3152 44.8013C37.021 47.131 35.0745 48.2306 32.0049 50.7467C29.9086 52.4799 26.7081 55.2756 24.6492 57.773C-2.04099 90.2956 3.53662 112.139 3.48047 150.197C11.6784 155.434 45.7805 171.574 82.5216 171.965C117.241 172.32 155.517 155.229 163.547 150.197Z" fill="#00111A"/>
<path fill-rule="evenodd" clip-rule="evenodd" d="M72.7703 8.45795C73.781 9.31528 73.3505 8.94253 75.4281 8.79343C74.9415 10.2285 75.0163 11.3468 75.9148 12.8005L80.8934 13.1173C80.4817 13.5087 80.6501 13.4715 79.9389 13.9001C79.2276 14.3288 79.3961 14.1238 78.7597 14.3288C73.6687 15.2979 69.7756 19.4168 67.3424 21.8584C64.5162 24.7099 62.1766 29.4998 60.9039 34.3642C57.3102 48.0255 64.329 54.9214 63.8798 68.0609C67.5671 69.496 69.5697 71.1175 72.1901 72.888C76.0832 75.5346 79.4148 75.3295 80.3694 70.8938L81.0619 68.8437C81.5298 69.3096 81.6608 68.7878 82.0164 70.577C82.4095 72.5339 82.1662 71.7884 81.7918 72.478C82.709 73.4285 82.11 71.863 82.709 74.1554C83.1207 75.665 83.2705 103.025 84.824 106.417C85.8534 106.324 85.8347 106.268 86.6208 105.709L87.7438 104.646C87.8187 104.553 87.931 104.423 88.0058 104.33L88.5486 103.659L87.6876 103.696C89.9337 101.049 90.2331 96.4273 90.9444 92.9234C91.9738 87.8726 88.8106 83.7724 90.1583 80.9954C90.0834 80.8835 89.9337 80.5853 89.8962 80.6599L88.586 77.2119C87.1261 74.2113 88.0245 72.9067 88.324 69.701C89.2224 70.4465 88.0245 70.4651 89.0914 72.1052C89.9711 73.4472 89.7465 71.0056 90.2144 72.478C92.7973 77.0628 96.7653 73.298 99.5167 71.3411C103.372 68.6387 105.862 67.2595 112.038 68.0236C111.308 67.5204 110.691 67.0172 109.062 66.924C107.658 66.8308 106.423 67.2968 105.113 67.6322C106.142 65.023 105.787 61.8546 106.348 59.1149C106.872 56.4497 107.696 54.2132 108.445 51.6039C111.907 39.6386 109.699 28.307 100.378 20.2369C98.8616 18.9136 99.4605 18.9695 97.645 17.8886C95.2118 16.4348 93.6396 15.8943 91.3187 14.7015C95.0059 12.67 102.324 19.3982 104.364 20.8519L99.3295 15.6521C99.9097 12.8191 99.0487 12.7073 100.284 10.7877C96.6156 9.79986 95.0433 8.64433 90.4764 8.12248C85.8534 7.58199 82.241 7.95474 77.7303 7.86155C80.4629 8.45795 78.2918 7.86155 79.1715 7.09741L72.7703 8.45795Z" fill="#FFD3AE"/>
<path fill-rule="evenodd" clip-rule="evenodd" d="M72.7703 8.45795C73.781 9.31528 73.3505 8.94253 75.4281 8.79343C74.9415 10.2285 75.0163 11.3468 75.9148 12.8005L80.8934 13.1173C80.4817 13.5087 80.6501 13.4715 79.9389 13.9001C79.2276 14.3288 79.3961 14.1238 78.7597 14.3288C73.6687 15.2979 69.7756 19.4168 67.3424 21.8584C64.5162 24.7099 62.1766 29.4998 60.9039 34.3642C57.3102 48.0255 64.329 54.9214 63.8798 68.0609C67.5671 69.496 69.5697 71.1175 72.1901 72.888C76.0832 75.5346 79.4148 75.3295 80.3694 70.8938L81.0619 68.8437C81.5298 69.3096 81.6608 68.7878 82.0164 70.577C82.4095 72.5339 82.1662 71.7884 81.7918 72.478C82.709 73.4285 82.11 71.863 82.709 74.1554C83.1207 75.665 83.2705 103.025 84.824 106.417C85.8534 106.324 85.8347 106.268 86.6208 105.709L87.7438 104.646C87.8187 104.553 87.931 104.423 88.0058 104.33L88.5486 103.659L87.6876 103.696C89.9337 101.049 90.2331 96.4273 90.9444 92.9234C91.9738 87.8726 88.8106 83.7724 90.1583 80.9954C90.0834 80.8835 89.9337 80.5853 89.8962 80.6599L88.586 77.2119C87.1261 74.2113 88.0245 72.9067 88.324 69.701C89.2224 70.4465 88.0245 70.4651 89.0914 72.1052C89.9711 73.4472 89.7465 71.0056 90.2144 72.478C92.7973 77.0628 96.7653 73.298 99.5167 71.3411C103.372 68.6387 105.862 67.2595 112.038 68.0236C111.308 67.5204 110.691 67.0172 109.062 66.924C107.658 66.8308 106.423 67.2968 105.113 67.6322C106.142 65.023 105.787 61.8546 106.348 59.1149C106.872 56.4497 107.696 54.2132 108.445 51.6039C111.907 39.6386 109.699 28.307 100.378 20.2369C98.8616 18.9136 99.4605 18.9695 97.645 17.8886C95.2118 16.4348 93.6396 15.8943 91.3187 14.7015C95.0059 12.67 102.324 19.3982 104.364 20.8519L99.3295 15.6521C99.9097 12.8191 99.0487 12.7073 100.284 10.7877C96.6156 9.79986 95.0433 8.64433 90.4764 8.12248C85.8534 7.58199 82.241 7.95474 77.7303 7.86155C80.4629 8.45795 78.2918 7.86155 79.1715 7.09741L72.7703 8.45795Z" fill="#FFD3AE"/>
<path fill-rule="evenodd" clip-rule="evenodd" d="M107.977 106.883C106.929 105.038 107.097 101.571 107.509 99.1856C108.931 98.1419 109.849 97.6387 112.188 97.1728C111.084 99.372 110.204 99.0552 109.212 100.956C108.145 102.988 108.669 105.206 107.977 106.883ZM79.1717 7.09744C78.292 7.86158 80.4631 8.45798 77.7305 7.86158C82.2412 7.95477 85.8536 7.58201 90.4766 8.1225C95.0435 8.64436 96.6157 9.79988 100.284 10.7877C99.0489 12.7073 99.9099 12.8192 99.3297 15.6521L104.365 20.852C102.324 19.3982 95.0061 12.6701 91.3189 14.7016C93.6398 15.8944 95.212 16.4349 97.6452 17.8886C99.4607 18.9696 98.8618 18.9137 100.378 20.2369C109.699 28.307 111.907 39.6386 108.445 51.6039C107.696 54.2132 106.873 56.4497 106.348 59.1149C105.787 61.8546 106.143 65.023 105.113 67.6323C106.423 67.2968 107.659 66.8308 109.062 66.924C110.691 67.0172 111.308 67.5204 112.038 68.0236C114.079 69.4401 115.071 68.881 116.212 71.5834L111.252 70.9684C111.159 71.0802 111.028 71.2107 110.953 71.2666C110.878 71.3411 110.747 71.4902 110.653 71.5648C103.541 78.5539 105.094 77.2492 97.2334 79.8585L94.6318 80.5481C98.8243 83.586 91.5809 80.8277 90.1584 80.9954C88.8108 83.7724 91.974 87.8726 90.9445 92.9234C90.2333 96.4273 89.9338 101.049 87.6878 103.696L88.5488 103.659C92.0301 102.895 94.5195 99.7634 99.8163 102.745C101.838 103.882 105.862 108.057 104.383 112.046C101.969 111.859 102.998 111.058 100.434 110.424C98.5623 110.834 99.1425 110.778 98.0569 111.915C97.2708 112.772 96.8029 113.182 95.9232 113.872C94.22 115.251 92.7039 116.425 90.4953 117.134C88.8483 119.146 86.4525 118.326 85.3295 122.632C84.6183 125.353 85.0487 131.205 85.2733 134.15C97.2895 134.243 104.159 121.327 111.046 111.505C113.611 107.852 113.498 107.032 113.386 108.467C115.202 106.231 116.923 99.8752 115.52 97.5083C115.501 97.471 115.407 97.3778 115.407 97.3033L113.629 99.0738L114.94 94.1162C114.546 93.5944 115.501 90.4446 115.913 89.6805L117.279 87.4626C117.99 86.2325 117.897 86.6239 118.477 85.1143C119.17 83.3251 120.498 77.3611 123.175 75.1805L123.081 73.2794C123.343 74.3977 123.025 73.2981 124.036 73.8758L125.477 74.7704C126.095 73.149 127.049 72.4221 127.817 71.3225C129.052 69.5333 128.341 69.701 130.138 68.0423C132.234 66.0853 131.953 62.7678 131.597 61.7801L130.437 60.1959C128.884 61.3328 127.817 61.7241 126.17 63.0288C124.728 64.1843 123.793 65.2653 122.52 66.2903C123.662 61.9478 128.453 61.0718 125.72 42.6393C123.605 28.3629 116.474 16.1926 102.661 10.2658C97.5142 8.04795 85.1798 5.17777 79.1717 7.09744Z" fill="#FDECCA"/>
<path fill-rule="evenodd" clip-rule="evenodd" d="M107.977 106.883C106.929 105.038 107.097 101.571 107.509 99.1856C108.931 98.1419 109.849 97.6387 112.188 97.1728C111.084 99.372 110.204 99.0552 109.212 100.956C108.145 102.988 108.669 105.206 107.977 106.883ZM79.1717 7.09744C78.292 7.86158 80.4631 8.45798 77.7305 7.86158C82.2412 7.95477 85.8536 7.58201 90.4766 8.1225C95.0435 8.64436 96.6157 9.79988 100.284 10.7877C99.0489 12.7073 99.9099 12.8192 99.3297 15.6521L104.365 20.852C102.324 19.3982 95.0061 12.6701 91.3189 14.7016C93.6398 15.8944 95.212 16.4349 97.6452 17.8886C99.4607 18.9696 98.8618 18.9137 100.378 20.2369C109.699 28.307 111.907 39.6386 108.445 51.6039C107.696 54.2132 106.873 56.4497 106.348 59.1149C105.787 61.8546 106.143 65.023 105.113 67.6323C106.423 67.2968 107.659 66.8308 109.062 66.924C110.691 67.0172 111.308 67.5204 112.038 68.0236C114.079 69.4401 115.071 68.881 116.212 71.5834L111.252 70.9684C111.159 71.0802 111.028 71.2107 110.953 71.2666C110.878 71.3411 110.747 71.4902 110.653 71.5648C103.541 78.5539 105.094 77.2492 97.2334 79.8585L94.6318 80.5481C98.8243 83.586 91.5809 80.8277 90.1584 80.9954C88.8108 83.7724 91.974 87.8726 90.9445 92.9234C90.2333 96.4273 89.9338 101.049 87.6878 103.696L88.5488 103.659C92.0301 102.895 94.5195 99.7634 99.8163 102.745C101.838 103.882 105.862 108.057 104.383 112.046C101.969 111.859 102.998 111.058 100.434 110.424C98.5623 110.834 99.1425 110.778 98.0569 111.915C97.2708 112.772 96.8029 113.182 95.9232 113.872C94.22 115.251 92.7039 116.425 90.4953 117.134C88.8483 119.146 86.4525 118.326 85.3295 122.632C84.6183 125.353 85.0487 131.205 85.2733 134.15C97.2895 134.243 104.159 121.327 111.046 111.505C113.611 107.852 113.498 107.032 113.386 108.467C115.202 106.231 116.923 99.8752 115.52 97.5083C115.501 97.471 115.407 97.3778 115.407 97.3033L113.629 99.0738L114.94 94.1162C114.546 93.5944 115.501 90.4446 115.913 89.6805L117.279 87.4626C117.99 86.2325 117.897 86.6239 118.477 85.1143C119.17 83.3251 120.498 77.3611 123.175 75.1805L123.081 73.2794C123.343 74.3977 123.025 73.2981 124.036 73.8758L125.477 74.7704C126.095 73.149 127.049 72.4221 127.817 71.3225C129.052 69.5333 128.341 69.701 130.138 68.0423C132.234 66.0853 131.953 62.7678 131.597 61.7801L130.437 60.1959C128.884 61.3328 127.817 61.7241 126.17 63.0288C124.728 64.1843 123.793 65.2653 122.52 66.2903C123.662 61.9478 128.453 61.0718 125.72 42.6393C123.605 28.3629 116.474 16.1926 102.661 10.2658C97.5142 8.04795 85.1798 5.17777 79.1717 7.09744Z" fill="#FDECCA"/>
<path fill-rule="evenodd" clip-rule="evenodd" d="M65.0776 11.5332C66.4253 14.0306 65.1899 10.9368 64.6284 14.2543C64.0482 17.7395 64.8905 16.3976 65.4707 17.4786L59.9867 24.7845C53.3235 34.6065 51.2833 43.2171 55.6818 54.9028L52.8368 53.915C50.4785 53.8405 51.2272 54.7537 48.663 53.3932C47.9892 53.0391 49.5427 52.2563 47.7459 53.1136C46.4357 53.7473 46.941 53.915 46.8662 55.872C46.5293 55.5551 46.0052 55.4806 45.6683 55.0333C46.417 60.3077 49.0935 64.0539 48.3822 66.4022C47.7833 68.3778 49.2245 66.2158 47.4651 67.8L46.3608 64.9112C45.556 66.4954 46.7352 66.4208 44.9009 64.8366C44.5079 64.4825 44.0399 63.8116 43.3287 63.1965C41.9811 62.041 41.0827 61.4819 39.3607 60.7177C38.6682 62.3019 38.6308 63.6625 38.9302 65.6194C39.6602 70.4652 37.9757 69.5892 36.9837 69.6824C36.834 67.7627 36.6094 65.8244 36.4409 63.8861C36.366 63.1406 36.1789 61.4446 36.2163 60.7737C36.3473 57.7916 35.8981 59.3199 36.9275 58.7608C36.1602 58.1644 36.7965 58.2017 35.9917 58.7608C35.6361 67.9491 36.7778 78.8521 40.9142 85.4871C43.5346 85.5057 41.2324 89.6805 45.7244 90.687C46.1924 88.9909 46.1737 89.1587 45.4811 87.1272C45.1442 85.9716 45.9303 87.034 44.826 85.8039C44.0025 84.872 40.2966 81.8714 39.8848 78.5353C39.7538 77.417 39.8848 77.8457 40.1468 77.3238C39.473 74.0995 38.7244 72.2917 39.3607 68.7133L44.0587 76.6715C45.3688 75.721 44.564 76.5224 45.2752 75.2178C45.6121 74.6214 45.9116 73.7081 46.2111 73.149L46.5667 74.4909C48.3822 75.4787 47.1844 74.8637 48.3448 77.1561C48.9625 78.3489 49.4117 78.8707 50.0293 80.0822C50.909 81.7968 51.4892 84.9093 52.5374 86.2512L52.5748 85.0398C54.2593 88.0777 55.6631 89.3264 57.7594 91.3393L58.8824 92.6439C67.1926 101.18 64.2915 103.211 65.7889 106.193C68.69 105.131 67.5295 100.658 77.6928 102.429C76.8505 98.2911 76.5136 92.2898 78.0484 88.5809C78.273 92.4389 78.4976 95.6818 79.1714 99.2789C80.0698 104.236 80.3693 105.168 84.8239 106.417C83.2704 103.025 83.1207 75.6651 82.7089 74.1554C82.1099 71.863 82.7089 73.4286 81.7918 72.4781C81.511 75.9633 81.9976 78.6098 81.0244 79.1689C75.6714 82.2441 76.5511 85.4312 69.9066 87.649L68.8772 85.6175C66.2755 85.6362 65.2461 85.2634 63.5803 84.667C66.5563 82.9151 69.9253 81.7968 71.9093 79.579C66.1258 78.7216 63.6739 76.2801 60.2487 73.0185C58.246 71.0989 57.9653 72.3103 55.1577 71.8257L52.4812 72.1239C54.016 67.8373 58.8824 67.3154 63.8798 68.0609C64.329 54.9215 57.3102 48.0256 60.9038 34.3642C62.1765 29.4998 64.5161 24.71 67.3424 21.8584C69.7756 19.4169 73.6687 15.298 78.7596 14.3288C78.0858 13.6579 79.4334 13.5647 76.7382 13.6765C75.5778 13.7138 72.8638 15.3353 72.0029 15.2048L71.6098 14.4966C71.067 13.2479 70.4868 12.1482 72.0029 10.0236C67.7729 10.6945 70.3184 10.4895 69.4012 9.4458L65.0776 11.5332Z" fill="#EE988F"/>
<path fill-rule="evenodd" clip-rule="evenodd" d="M65.0776 11.5331C66.4253 14.0305 65.1899 10.9367 64.6284 14.2542C64.0482 17.7394 64.8905 16.3975 65.4707 17.4785L59.9867 24.7844C53.3235 34.6064 51.2833 43.2169 55.6818 54.9027L52.8368 53.9149C50.4785 53.8404 51.2272 54.7536 48.663 53.3931C47.9892 53.0389 49.5427 52.2562 47.7459 53.1135C46.4357 53.7472 46.941 53.9149 46.8662 55.8718C46.5293 55.555 46.0052 55.4805 45.6683 55.0332C46.417 60.3076 49.0935 64.0537 48.3822 66.4021C47.7833 68.3777 49.2245 66.2157 47.4651 67.7999L46.3608 64.9111C45.556 66.4953 46.7352 66.4207 44.9009 64.8365C44.5079 64.4824 44.0399 63.8115 43.3287 63.1964C41.9811 62.0409 41.0827 61.4818 39.3607 60.7176C38.6682 62.3018 38.6308 63.6624 38.9302 65.6193C39.6602 70.4651 37.9757 69.5891 36.9837 69.6823C36.834 67.7626 36.6094 65.8243 36.4409 63.886C36.366 63.1405 36.1789 61.4445 36.2163 60.7735C36.3473 57.7915 35.8981 59.3198 36.9275 58.7607C36.1602 58.1643 36.7965 58.2015 35.9917 58.7607C35.6361 67.949 36.7778 78.852 40.9142 85.4869C43.5346 85.5056 41.2324 89.6804 45.7244 90.6868C46.1924 88.9908 46.1737 89.1585 45.4811 87.127C45.1442 85.9715 45.9303 87.0339 44.826 85.8038C44.0025 84.8719 40.2966 81.8713 39.8848 78.5351C39.7538 77.4169 39.8848 77.8455 40.1468 77.3237C39.473 74.0994 38.7244 72.2915 39.3607 68.7131L44.0587 76.6714C45.3688 75.7209 44.564 76.5223 45.2752 75.2176C45.6121 74.6212 45.9116 73.708 46.2111 73.1489L46.5667 74.4908C48.3822 75.4786 47.1844 74.8635 48.3448 77.156C48.9625 78.3488 49.4117 78.8706 50.0293 80.082C50.909 81.7967 51.4892 84.9092 52.5374 86.2511L52.5748 85.0396C54.2593 88.0776 55.6631 89.3263 57.7594 91.3391L58.8824 92.6438C67.1926 101.18 64.2915 103.211 65.7889 106.193C68.69 105.131 67.5295 100.658 77.6928 102.428C76.8505 98.2909 76.5136 92.2896 78.0484 88.5808C78.273 92.4388 78.4976 95.6817 79.1714 99.2787C80.0698 104.236 80.3693 105.168 84.8239 106.417C83.2704 103.025 83.1207 75.6649 82.7089 74.1553C82.1099 71.8629 82.7089 73.4284 81.7918 72.4779C81.511 75.9631 81.9976 78.6097 81.0244 79.1688C75.6714 82.244 76.5511 85.431 69.9066 87.6489L68.8772 85.6174C66.2755 85.636 65.2461 85.2633 63.5803 84.6669C66.5563 82.915 69.9253 81.7967 71.9093 79.5788C66.1258 78.7215 63.6739 76.28 60.2487 73.0184C58.246 71.0987 57.9653 72.3102 55.1577 71.8256L52.4812 72.1238C54.016 67.8372 58.8824 67.3153 63.8798 68.0608C64.329 54.9213 57.3102 48.0254 60.9038 34.3641C62.1765 29.4997 64.5161 24.7098 67.3424 21.8583C69.7756 19.4168 73.6687 15.2979 78.7596 14.3287C78.0858 13.6578 79.4334 13.5646 76.7382 13.6764C75.5778 13.7137 72.8638 15.3351 72.0029 15.2047L71.6098 14.4965C71.067 13.2477 70.4868 12.1481 72.0029 10.0234C67.7354 10.6944 70.3558 8.97973 65.0776 11.5331Z" fill="#EE988F"/>
<path fill-rule="evenodd" clip-rule="evenodd" d="M62.0642 13.2851C62.1204 13.5088 59.4626 15.5403 58.6391 16.3044C49.9544 24.2999 43.3848 43.4221 45.6683 55.0333C46.0052 55.4806 46.5293 55.5551 46.8662 55.872C46.941 53.915 46.4357 53.7473 47.7459 53.1136C49.5427 52.2563 47.9892 53.0391 48.663 53.3932C51.2272 54.7537 50.4785 53.8405 52.8368 53.915L55.6818 54.9028C51.2833 43.2171 53.3235 34.6065 59.9867 24.7845L65.4707 17.4786C64.8905 16.3976 64.0482 17.7395 64.6284 14.2543C65.1899 10.9368 66.4253 14.0306 65.0776 11.5332C64.6284 11.8314 64.2915 11.9991 63.9359 12.1855C63.468 12.4278 62.9439 12.6887 62.0642 13.2851Z" fill="#D38C87"/>
<path fill-rule="evenodd" clip-rule="evenodd" d="M58.6391 16.3044C49.9544 24.2999 43.3848 43.4221 45.6683 55.0333C46.0052 55.4806 46.5293 55.5551 46.8662 55.872C46.941 53.915 46.4357 53.7473 47.7459 53.1136C49.5427 52.2563 47.9892 53.0391 48.663 53.3932C51.2272 54.7537 50.4785 53.8405 52.8368 53.915L55.6818 54.9028C51.2833 43.2171 53.3235 34.6065 59.9867 24.7845L65.4707 17.4786C64.8905 16.3976 64.0482 17.7395 64.6284 14.2543C65.1899 10.9368 66.4253 14.0306 65.0776 11.5332C62.2701 12.4464 60.7915 14.3102 58.6391 16.3044Z" fill="#D38C87"/>
<path fill-rule="evenodd" clip-rule="evenodd" d="M15.1416 119.221L18.0801 120.209C19.0347 120.395 19.7272 120.544 20.7192 120.526C21.0935 104.87 21.2245 93.9859 29.9279 80.4364C32.9787 75.7211 34.345 77.2307 33.4841 72.5899L32.3423 69.3284C28.0375 72.124 21.8984 82.9897 19.3903 89.8856C16.1336 98.813 14.8421 108.896 15.1416 119.221Z" fill="#FDA66B"/>
<path fill-rule="evenodd" clip-rule="evenodd" d="M15.1416 119.221L18.0801 120.209C19.0347 120.395 19.7272 120.544 20.7192 120.526C21.0935 104.87 21.2245 93.9859 29.9279 80.4364C32.9787 75.7211 34.345 77.2307 33.4841 72.5899L32.3423 69.3284C28.0375 72.124 21.8984 82.9897 19.3903 89.8856C16.1336 98.813 14.8421 108.896 15.1416 119.221Z" fill="#FDA66B"/>
<path fill-rule="evenodd" clip-rule="evenodd" d="M148.349 120.619L153.683 119.65C154.451 110.424 152.354 97.6948 149.416 89.7738C147.151 83.6234 140.095 70.8007 135.996 69.2166C135.21 79.5231 134.33 73.41 138.953 80.6973C141.274 84.3316 142.977 87.2204 144.512 91.5071C148.33 102.112 147.862 109.157 148.349 120.619Z" fill="#FDA66B"/>
<path fill-rule="evenodd" clip-rule="evenodd" d="M148.349 120.619L153.683 119.65C154.451 110.424 152.354 97.6948 149.416 89.7738C147.151 83.6234 140.095 70.8007 135.996 69.2166C135.21 79.5231 134.33 73.41 138.953 80.6973C141.274 84.3316 142.977 87.2204 144.512 91.5071C148.33 102.112 147.862 109.157 148.349 120.619Z" fill="#FDA66B"/>
<path fill-rule="evenodd" clip-rule="evenodd" d="M85.2734 134.15C85.0487 131.205 84.6183 125.353 85.3295 122.632C86.4525 118.326 88.8483 119.146 90.4953 117.134C90.7387 116.183 90.8884 117.245 90.2707 115.549C80.2011 118.401 84.8054 117.022 77.8802 115.307C76.8882 119.65 74.3989 121.383 75.4283 127.943C76.1957 132.789 80.6316 133.777 85.2734 134.15Z" fill="#D38C87"/>
<path fill-rule="evenodd" clip-rule="evenodd" d="M85.2734 134.15C85.0487 131.205 84.6183 125.353 85.3295 122.632C86.4525 118.326 88.8483 119.146 90.4953 117.134C90.7387 116.183 90.8884 117.245 90.2707 115.549C80.2011 118.401 84.8054 117.022 77.8802 115.307C76.8882 119.65 74.3989 121.383 75.4283 127.943C76.1957 132.789 80.6316 133.777 85.2734 134.15Z" fill="#D38C87"/>
<path fill-rule="evenodd" clip-rule="evenodd" d="M114.94 94.1162C115.314 93.613 115.67 93.0725 116.044 92.4947L116.998 91.2274C117.036 91.041 117.204 91.041 117.466 91.0224L115.408 97.3032C115.408 97.3778 115.501 97.4896 115.52 97.5082C116.924 99.8752 115.202 106.231 113.386 108.467C112.188 110.573 111.252 113.052 109.924 115.493C108.351 118.364 107.191 120.507 106.517 123.862L105.899 125.092C108.164 124.924 106.161 125.241 107.041 124.272C107.958 123.023 107.883 123.452 109.044 122.352L114.416 115.382C120.929 105.56 116.736 97.1541 119.656 86.7357C121.21 81.219 124.504 80.5108 123.175 75.1804C120.499 77.361 119.17 83.325 118.477 85.1142C117.897 86.6239 117.99 86.2325 117.279 87.4626L115.913 89.6804C115.501 90.4446 114.547 93.5943 114.94 94.1162Z" fill="#FDFCEC"/>
<path fill-rule="evenodd" clip-rule="evenodd" d="M114.94 94.1162C115.314 93.613 115.67 93.0725 116.044 92.4947L116.998 91.2274C117.036 91.041 117.204 91.041 117.466 91.0224L115.408 97.3032C115.408 97.3778 115.501 97.4896 115.52 97.5082C116.924 99.8752 115.202 106.231 113.386 108.467C112.188 110.573 111.252 113.052 109.924 115.493C108.351 118.364 107.191 120.507 106.517 123.862L105.899 125.092C108.164 124.924 106.161 125.241 107.041 124.272C107.958 123.023 107.883 123.452 109.044 122.352L114.416 115.382C120.929 105.56 116.736 97.1541 119.656 86.7357C121.21 81.219 124.504 80.5108 123.175 75.1804C120.499 77.361 119.17 83.325 118.477 85.1142C117.897 86.6239 117.99 86.2325 117.279 87.4626L115.913 89.6804C115.501 90.4446 114.547 93.5943 114.94 94.1162Z" fill="#FDFCEC"/>
<path fill-rule="evenodd" clip-rule="evenodd" d="M37.0775 121.775C37.9011 118.643 35.861 115.792 38.1257 111.114C39.361 108.542 41.7193 104.516 44.5456 104.535C44.0215 106.361 42.7487 109.101 43.5349 110.89C45.9493 106.287 45.1071 102.596 45.2006 97.0425C41.2701 95.1787 41.9065 94.0418 39.5482 91.8799C35.5989 97.2102 33.7647 113.518 37.0775 121.775Z" fill="#F3966E"/>
<path fill-rule="evenodd" clip-rule="evenodd" d="M37.0775 121.775C37.9011 118.643 35.861 115.792 38.1257 111.114C39.361 108.542 41.7193 104.516 44.5456 104.535C44.0215 106.361 42.7487 109.101 43.5349 110.89C45.9493 106.287 45.1071 102.596 45.2006 97.0425C41.2701 95.1787 41.9065 94.0418 39.5482 91.8799C35.5989 97.2102 33.7647 113.518 37.0775 121.775Z" fill="#F3966E"/>
<path fill-rule="evenodd" clip-rule="evenodd" d="M124.448 97.0796C124.411 99.5397 124.018 102 124.092 104.33C124.167 106.231 124.71 109.25 126.151 110.592L124.879 104.33C127.63 104.833 129.801 108.467 131.186 111.486C133.544 116.593 132.197 117.991 131.991 123.004C132.534 120.227 134.05 118.997 134.05 113.592C134.031 104.646 132.047 99.5397 129.651 92.0288C126.9 93.7621 128.098 95.1786 124.448 97.0796Z" fill="#F3966E"/>
<path fill-rule="evenodd" clip-rule="evenodd" d="M124.448 97.0796C124.411 99.5397 124.018 102 124.092 104.33C124.167 106.231 124.71 109.25 126.151 110.592L124.879 104.33C127.63 104.833 129.801 108.467 131.186 111.486C133.544 116.593 132.197 117.991 131.991 123.004C132.534 120.227 134.05 118.997 134.05 113.592C134.031 104.646 132.047 99.5397 129.651 92.0288C126.9 93.7621 128.098 95.1786 124.448 97.0796Z" fill="#FDA66B"/>
<path fill-rule="evenodd" clip-rule="evenodd" d="M55.158 71.8256C61.1473 67.0731 75.185 86.1952 80.4069 75.4227C81.3802 73.4471 81.5861 71.9747 80.3695 70.8938C79.415 75.3295 76.0834 75.5345 72.1903 72.888C69.5699 71.1174 67.5672 69.4959 63.88 68.0608C58.8826 67.3153 54.0162 67.8372 52.4814 72.1238L55.158 71.8256Z" fill="#010C1C"/>
<path fill-rule="evenodd" clip-rule="evenodd" d="M55.158 71.8256C61.1473 67.0731 75.185 86.1952 80.4069 75.4227C81.3802 73.4471 81.5861 71.9747 80.3695 70.8938C79.415 75.3295 76.0834 75.5345 72.1903 72.888C69.5699 71.1174 67.5672 69.4959 63.88 68.0608C58.8826 67.3153 54.0162 67.8372 52.4814 72.1238L55.158 71.8256Z" fill="#010C1C"/>
<path fill-rule="evenodd" clip-rule="evenodd" d="M80.3695 70.8939C81.5861 71.9749 81.3802 73.4472 80.407 75.4228C75.185 86.1953 61.1473 67.0732 55.158 71.8258C57.9655 72.3103 58.2462 71.0989 60.2489 73.0186C63.6741 76.2801 66.126 78.7217 71.9095 79.579C69.9255 81.7969 66.5565 82.9151 63.5805 84.667C65.2463 85.2634 66.2758 85.6362 68.8774 85.6176L69.9068 87.6491C76.5513 85.4312 75.6716 82.2442 81.0246 79.169C83.9819 77.417 82.9899 76.597 82.0166 70.577C81.661 68.7878 81.53 69.3097 81.062 68.8438L80.3695 70.8939Z" fill="#B1716B"/>
<path fill-rule="evenodd" clip-rule="evenodd" d="M80.3695 70.8939C81.5861 71.9749 81.3802 73.4472 80.407 75.4228C75.185 86.1953 61.1473 67.0732 55.158 71.8258C57.9655 72.3103 58.2462 71.0989 60.2489 73.0186C63.6741 76.2801 66.126 78.7217 71.9095 79.579C69.9255 81.7969 66.5565 82.9151 63.5805 84.667C65.2463 85.2634 66.2758 85.6362 68.8774 85.6176L69.9068 87.6491C76.5513 85.4312 75.6716 82.2442 81.0246 79.169C83.9819 77.417 82.9899 76.597 82.0166 70.577C81.661 68.7878 81.53 69.3097 81.062 68.8438L80.3695 70.8939Z" fill="#B1716B"/>
<path fill-rule="evenodd" clip-rule="evenodd" d="M90.4951 77.212C92.086 77.3984 92.7785 78.9826 95.3802 78.5539C96.8026 78.3116 99.6476 76.802 100.752 76.1683C103.69 74.4909 107.321 71.4344 111.252 70.9684L116.212 71.5835C115.07 68.881 114.078 69.4401 112.038 68.0237C105.862 67.2595 103.372 68.6387 99.5166 71.3412C96.7652 73.2981 92.7972 77.0629 90.2143 72.4781C89.6154 70.6143 89.8961 71.0057 88.3239 69.7011C88.0245 72.9067 87.126 74.2113 88.586 77.212L89.709 77.9202C90.5512 78.498 89.9336 78.1252 90.4951 78.498V77.212Z" fill="#010C1C"/>
<path fill-rule="evenodd" clip-rule="evenodd" d="M90.4951 77.212C92.086 77.3984 92.7785 78.9826 95.3802 78.5539C96.8026 78.3116 99.6476 76.802 100.752 76.1683C103.69 74.4909 107.321 71.4344 111.252 70.9684L116.212 71.5835C115.07 68.881 114.078 69.4401 112.038 68.0237C105.862 67.2595 103.372 68.6387 99.5166 71.3412C96.7652 73.2981 92.7972 77.0629 90.2143 72.4781C89.6154 70.6143 89.8961 71.0057 88.3239 69.7011C88.0245 72.9067 87.126 74.2113 88.586 77.212L89.709 77.9202C90.5512 78.498 89.9336 78.1252 90.4951 78.498V77.212Z" fill="#010C1C"/>
<path fill-rule="evenodd" clip-rule="evenodd" d="M130.437 60.1959L131.598 61.7801C131.953 62.7678 132.234 66.0853 130.138 68.0423C128.341 69.701 129.052 69.5333 127.817 71.3225C127.05 72.4221 126.095 73.149 125.477 74.7704L124.036 73.8758C123.868 75.4228 124.167 75.5905 124.916 77.156C127.798 75.0686 127.63 71.5461 130.4 69.7383C130.232 82.3559 124.28 83.2692 122.82 85.8412C122.052 87.2017 121.21 89.6059 121.884 91.4883C127.181 92.2525 127.611 86.5121 130.924 78.5725C133.451 72.4967 133.376 65.3585 133.582 58.4253L130.437 60.1959Z" fill="#F8F5E6"/>
<path fill-rule="evenodd" clip-rule="evenodd" d="M130.437 60.1959L131.598 61.7801C131.953 62.7678 132.234 66.0853 130.138 68.0423C128.341 69.701 129.052 69.5333 127.817 71.3225C127.05 72.4221 126.095 73.149 125.477 74.7704L124.036 73.8758C123.868 75.4228 124.167 75.5905 124.916 77.156C127.798 75.0686 127.63 71.5461 130.4 69.7383C130.232 82.3559 124.28 83.2692 122.82 85.8412C122.052 87.2017 121.21 89.6059 121.884 91.4883C127.181 92.2525 127.611 86.5121 130.924 78.5725C133.451 72.4967 133.376 65.3585 133.582 58.4253L130.437 60.1959Z" fill="#F8F5E6"/>
<path fill-rule="evenodd" clip-rule="evenodd" d="M56.1689 113.891L54.8961 106.119L54.0164 97.3406L52.3881 90.7802C53.2303 91.8985 54.3533 93.2963 55.102 94.7127C56.6555 96.036 55.3079 95.2905 57.1234 95.7751C56.5806 94.5636 56.6181 94.6382 56.225 93.5945C55.3266 91.358 53.0806 88.991 52.5378 86.2513C51.4897 84.9094 50.9094 81.7969 50.0298 80.0822C49.4121 78.8708 48.9629 78.3489 48.3452 77.1561C47.1848 74.8637 48.3827 75.4788 46.5671 74.491C45.8372 81.8342 46.8666 76.8766 49.2436 83.4184C50.4602 86.7358 50.5725 90.4261 50.8533 94.1163C51.602 103.808 51.7517 106.454 55.3266 114.096C55.8694 115.81 57.1796 117.749 58.6395 118.83L56.1689 113.891Z" fill="#F5F8F5"/>
<path fill-rule="evenodd" clip-rule="evenodd" d="M56.1689 113.891L54.8961 106.119L54.0164 97.3406L52.3881 90.7802C53.2303 91.8985 54.3533 93.2963 55.102 94.7127C56.6555 96.036 55.3079 95.2905 57.1234 95.7751C56.5806 94.5636 56.6181 94.6382 56.225 93.5945C55.3266 91.358 53.0806 88.991 52.5378 86.2513C51.4897 84.9094 50.9094 81.7969 50.0298 80.0822C49.4121 78.8708 48.9629 78.3489 48.3452 77.1561C47.1848 74.8637 48.3827 75.4788 46.5671 74.491C45.8372 81.8342 46.8666 76.8766 49.2436 83.4184C50.4602 86.7358 50.5725 90.4261 50.8533 94.1163C51.602 103.808 51.7517 106.454 55.3266 114.096C55.8694 115.81 57.1796 117.749 58.6395 118.83L56.1689 113.891Z" fill="#F5F8F5"/>
<path fill-rule="evenodd" clip-rule="evenodd" d="M46.3608 64.9112L47.4651 67.8C49.2245 66.2158 47.7833 68.3778 48.3823 66.4022C49.0935 64.0539 46.417 60.3077 45.6683 55.0333C43.3849 43.4221 49.9545 24.3 58.6391 16.3044C59.4626 15.5403 62.1204 13.5088 62.0643 13.2852C58.9385 14.5898 54.7834 19.0442 52.762 21.7093C50.3662 24.8964 47.8956 29.1084 46.3047 33.7306C43.3287 42.4343 41.195 57.2512 46.3608 64.9112Z" fill="#FCFCF4"/>
<path fill-rule="evenodd" clip-rule="evenodd" d="M46.3608 64.9112L47.4651 67.8C49.2245 66.2158 47.7833 68.3778 48.3823 66.4022C49.0935 64.0539 46.417 60.3077 45.6683 55.0333C43.3849 43.4221 49.9545 24.3 58.6391 16.3044C59.4626 15.5403 62.1204 13.5088 62.0643 13.2852C58.9385 14.5898 54.7834 19.0442 52.762 21.7093C50.3662 24.8964 47.8956 29.1084 46.3047 33.7306C43.3287 42.4343 41.195 57.2512 46.3608 64.9112Z" fill="#FCFCF4"/>
<path fill-rule="evenodd" clip-rule="evenodd" d="M90.4951 77.2121V78.4981C89.9335 78.1253 90.5512 78.4981 89.7089 77.9203L88.5859 77.2121L89.8961 80.66C89.9335 80.5855 90.0833 80.8837 90.1582 80.9955C92.0673 81.4615 94.3694 85.1331 96.709 86.6054L97.4016 86.6986C96.0539 85.5244 95.9604 85.6176 95.324 83.4743C98.8428 83.3998 97.4951 83.7352 100.022 84.6671C101.538 85.2076 103.129 85.394 104.888 85.4126C103.821 83.5861 105.6 84.1639 103.765 83.7352C100.976 83.1947 98.6369 82.2442 96.6529 80.7905L97.3828 80.4737C105.244 77.8458 103.541 78.554 110.653 71.5649C110.747 71.4904 110.878 71.3413 110.953 71.2667C111.027 71.2108 111.158 71.0803 111.252 70.9685C107.321 71.4344 103.69 74.491 100.752 76.1684C99.6476 76.8021 96.8026 78.3117 95.3801 78.554C92.7785 78.9827 92.086 77.3985 90.4951 77.2121Z" fill="#C47A83"/>
<path fill-rule="evenodd" clip-rule="evenodd" d="M90.4951 77.2121V78.4981C89.9335 78.1253 90.5512 78.4981 89.7089 77.9203L88.5859 77.2121L89.8961 80.66C89.9335 80.5855 90.0833 80.8837 90.1582 80.9955C92.0673 81.4615 94.3694 85.1331 96.709 86.6054L97.4016 86.6986C96.0539 85.5244 95.9604 85.6176 95.324 83.4743C98.8428 83.3998 97.4951 83.7352 100.022 84.6671C101.538 85.2076 103.129 85.394 104.888 85.4126C103.821 83.5861 105.6 84.1639 103.765 83.7352C100.976 83.1947 98.6369 82.2442 96.6529 80.7905L97.3828 80.4737C105.244 77.8458 103.541 78.554 110.653 71.5649C110.747 71.4904 110.878 71.3413 110.953 71.2667C111.027 71.2108 111.158 71.0803 111.252 70.9685C107.321 71.4344 103.69 74.491 100.752 76.1684C99.6476 76.8021 96.8026 78.3117 95.3801 78.554C92.7785 78.9827 92.086 77.3985 90.4951 77.2121Z" fill="#C47A83"/>
<path fill-rule="evenodd" clip-rule="evenodd" d="M29.8908 114.096C29.8908 115.419 29.8721 116.817 29.9844 118.14L30.6208 120.992C30.6395 121.085 30.7144 121.253 30.7705 121.364C30.9577 114.767 32.6422 110.461 33.5967 104.125C34.9818 94.8059 36.4043 93.3149 37.5086 87.8354C37.4337 87.9286 37.3027 87.9659 37.2652 88.1337L35.8241 90.3888C31.7625 97.8811 29.8721 105.224 29.8908 114.096Z" fill="#F3966E"/>
<path fill-rule="evenodd" clip-rule="evenodd" d="M29.8908 114.096C29.8908 115.419 29.8721 116.817 29.9844 118.14L30.6208 120.992C30.6395 121.085 30.7144 121.253 30.7705 121.364C30.9577 114.767 32.6422 110.461 33.5967 104.125C34.9818 94.8059 36.4043 93.3149 37.5086 87.8354C37.4337 87.9286 37.3027 87.9659 37.2652 88.1337L35.8241 90.3888C31.7625 97.8811 29.8721 105.224 29.8908 114.096Z" fill="#F3966E"/>
<path fill-rule="evenodd" clip-rule="evenodd" d="M138.897 118.96C139.664 105.69 138.054 101.497 133.506 91.2461C133.226 90.6124 133.001 89.9788 132.701 89.4569C131.541 87.3136 133.132 90.0347 132.308 88.786C131.953 88.2455 131.84 88.1523 131.541 87.8354C131.766 89.8297 134.461 97.0424 135.546 103.1C136.014 105.728 136.464 108.616 136.95 110.983C137.193 112.213 137.437 113.462 137.661 114.804L138.242 117.767C138.579 118.606 138.597 118.513 138.897 118.96Z" fill="#FDA66B"/>
<path fill-rule="evenodd" clip-rule="evenodd" d="M138.897 118.96C139.664 105.69 138.054 101.497 133.506 91.2461C133.226 90.6124 133.001 89.9788 132.701 89.4569C131.541 87.3136 133.132 90.0347 132.308 88.786C131.953 88.2455 131.84 88.1523 131.541 87.8354C131.766 89.8297 134.461 97.0424 135.546 103.1C136.014 105.728 136.464 108.616 136.95 110.983C137.193 112.213 137.437 113.462 137.661 114.804L138.242 117.767C138.579 118.606 138.597 118.513 138.897 118.96Z" fill="#FDA66B"/>
<path fill-rule="evenodd" clip-rule="evenodd" d="M56.2252 93.5944C56.6182 94.6381 56.5808 94.5635 57.1236 95.775C55.3081 95.2904 56.6557 96.0359 55.1022 94.7126L55.2706 98.6265C53.3054 95.9613 55.3081 101.124 54.3535 97.7692C54.2786 97.5269 54.0915 97.5082 54.0166 97.3405L54.8963 106.119L54.915 103.547C55.6637 104.199 55.177 103.584 55.7947 104.516C56.038 104.87 56.3375 105.578 56.5247 105.951L58.0782 108.15C58.9766 106.79 59.4445 104.553 59.6691 102.783C60.1183 99.1856 58.9953 100.043 57.3669 97.7133L59.4445 96.6882L58.7145 93.5012C57.4979 92.5507 58.1717 94.5821 57.4979 92.1406C57.4605 92.2525 57.4043 92.3829 57.3669 92.4388L56.5995 93.3148C56.5434 93.203 56.3375 93.5012 56.2252 93.5944Z" fill="#E69588"/>
<path fill-rule="evenodd" clip-rule="evenodd" d="M56.2252 93.5944C56.6182 94.6381 56.5808 94.5635 57.1236 95.775C55.3081 95.2904 56.6557 96.0359 55.1022 94.7126L55.2706 98.6265C53.3054 95.9613 55.3081 101.124 54.3535 97.7692C54.2786 97.5269 54.0915 97.5082 54.0166 97.3405L54.8963 106.119L54.915 103.547C55.6637 104.199 55.177 103.584 55.7947 104.516C56.038 104.87 56.3375 105.578 56.5247 105.951L58.0782 108.15C58.9766 106.79 59.4445 104.553 59.6691 102.783C60.1183 99.1856 58.9953 100.043 57.3669 97.7133L59.4445 96.6882L58.7145 93.5012C57.4979 92.5507 58.1717 94.5821 57.4979 92.1406C57.4605 92.2525 57.4043 92.3829 57.3669 92.4388L56.5995 93.3148C56.5434 93.203 56.3375 93.5012 56.2252 93.5944Z" fill="#E69588"/>
<path fill-rule="evenodd" clip-rule="evenodd" d="M69.4016 9.4458C70.3187 10.4895 67.7732 10.6945 72.0033 10.0236C70.4872 12.1482 71.0674 13.2479 71.6102 14.4966L72.0033 15.2048C72.8642 15.3353 75.5782 13.7138 76.7386 13.6765C79.4338 13.5647 78.0862 13.6579 78.76 14.3288C79.3964 14.1238 79.2279 14.3288 79.9392 13.9002C80.6504 13.4715 80.482 13.5088 80.8937 13.1174L75.9151 12.8006C75.0167 11.3468 74.9418 10.2286 75.4284 8.79348C73.3509 8.94258 73.7813 9.31534 72.7706 8.45801L69.4016 9.4458Z" fill="#F5B79A"/>
<path fill-rule="evenodd" clip-rule="evenodd" d="M69.4016 9.4458C70.3187 10.4895 67.7732 10.6945 72.0033 10.0236C70.4872 12.1482 71.0674 13.2479 71.6102 14.4966L72.0033 15.2048C72.8642 15.3353 75.5782 13.7138 76.7386 13.6765C79.4338 13.5647 78.0862 13.6579 78.76 14.3288C79.3964 14.1238 79.2279 14.3288 79.9392 13.9002C80.6504 13.4715 80.482 13.5088 80.8937 13.1174L75.9151 12.8006C75.0167 11.3468 74.9418 10.2286 75.4284 8.79348C73.3509 8.94258 73.7813 9.31534 72.7706 8.45801L69.4016 9.4458Z" fill="#F5B79A"/>
<path fill-rule="evenodd" clip-rule="evenodd" d="M90.2705 115.549C90.8882 117.245 90.7384 116.183 90.4951 117.134C92.7037 116.425 94.2198 115.251 95.923 113.872C96.8027 113.182 97.2706 112.772 98.0567 111.915C99.1423 110.778 98.5621 110.834 100.434 110.424C98.0006 109.231 95.4738 109.753 94.0139 111.468C93.0593 112.586 92.9844 113.033 92.2358 113.816C91.431 114.673 90.9069 114.748 90.2705 115.549Z" fill="#E69588"/>
<path fill-rule="evenodd" clip-rule="evenodd" d="M90.2705 115.549C90.8882 117.245 90.7384 116.183 90.4951 117.134C92.7037 116.425 94.2198 115.251 95.923 113.872C96.8027 113.182 97.2706 112.772 98.0567 111.915C99.1423 110.778 98.5621 110.834 100.434 110.424C98.0006 109.231 95.4738 109.753 94.0139 111.468C93.0593 112.586 92.9844 113.033 92.2358 113.816C91.431 114.673 90.9069 114.748 90.2705 115.549Z" fill="#E69588"/>
<path fill-rule="evenodd" clip-rule="evenodd" d="M39.361 60.7177L36.9278 58.7607C35.8984 59.3199 36.3476 57.7916 36.2166 60.7736C36.1791 61.4446 36.3663 63.1406 36.4412 63.8861C36.6096 65.8244 36.8342 67.7627 36.984 69.6824C37.9759 69.5892 39.6605 70.4651 38.9305 65.6194C38.631 63.6624 38.6685 62.3019 39.361 60.7177Z" fill="#FCFCF4"/>
<path fill-rule="evenodd" clip-rule="evenodd" d="M39.361 60.7177L36.9278 58.7607C35.8984 59.3199 36.3476 57.7916 36.2166 60.7736C36.1791 61.4446 36.3663 63.1406 36.4412 63.8861C36.6096 65.8244 36.8342 67.7627 36.984 69.6824C37.9759 69.5892 39.6605 70.4651 38.9305 65.6194C38.631 63.6624 38.6685 62.3019 39.361 60.7177Z" fill="#FCFCF4"/>
<path fill-rule="evenodd" clip-rule="evenodd" d="M107.977 106.883C108.67 105.206 108.145 102.988 109.212 100.956C110.204 99.0552 111.084 99.3721 112.188 97.1729C109.849 97.6388 108.932 98.142 107.509 99.1857C107.097 101.571 106.929 105.038 107.977 106.883Z" fill="#020A0D"/>
<path fill-rule="evenodd" clip-rule="evenodd" d="M107.977 106.883C108.67 105.206 108.145 102.988 109.212 100.956C110.204 99.0552 111.084 99.3721 112.188 97.1729C109.849 97.6388 108.932 98.142 107.509 99.1857C107.097 101.571 106.929 105.038 107.977 106.883Z" fill="#020A0D"/>
<path fill-rule="evenodd" clip-rule="evenodd" d="M52.5381 86.2512C53.0809 88.991 55.3269 91.3579 56.2253 93.5944C56.3376 93.5013 56.5435 93.203 56.5996 93.3149L57.367 92.4389C57.4045 92.383 57.4606 92.2525 57.498 92.1407C58.1718 94.5822 57.498 92.5507 58.7146 93.5013L58.8831 92.6439L57.7601 91.3393C55.6638 89.3264 54.26 88.0777 52.5755 85.0398L52.5381 86.2512Z" fill="#8F554D"/>
<path fill-rule="evenodd" clip-rule="evenodd" d="M52.5381 86.2512C53.0809 88.991 55.3269 91.3579 56.2253 93.5944C56.3376 93.5013 56.5435 93.203 56.5996 93.3149L57.367 92.4389C57.4045 92.383 57.4606 92.2525 57.498 92.1407C58.1718 94.5822 57.498 92.5507 58.7146 93.5013L58.8831 92.6439L57.7601 91.3393C55.6638 89.3264 54.26 88.0777 52.5755 85.0398L52.5381 86.2512Z" fill="#8F554D"/>
<path fill-rule="evenodd" clip-rule="evenodd" d="M46.006 86.0275C46.8108 88.0218 46.4927 86.5867 45.4819 87.1272C46.1745 89.1587 46.1932 88.9909 45.7253 90.6869C41.2332 89.6805 43.5354 85.5057 40.915 85.4871C41.8696 88.9909 43.0675 92.0475 47.1665 91.4511C47.2788 90.3887 47.3536 89.6805 47.26 88.5809C47.0729 86.6426 47.0916 86.8103 46.006 86.0275Z" fill="#F5B79A"/>
<path fill-rule="evenodd" clip-rule="evenodd" d="M46.006 86.0275C46.8108 88.0218 46.4927 86.5867 45.4819 87.1272C46.1745 89.1587 46.1932 88.9909 45.7253 90.6869C41.2332 89.6805 43.5354 85.5057 40.915 85.4871C41.8696 88.9909 43.0675 92.0475 47.1665 91.4511C47.2788 90.3887 47.3536 89.6805 47.26 88.5809C47.0729 86.6426 47.0916 86.8103 46.006 86.0275Z" fill="#F5B79A"/>
<path fill-rule="evenodd" clip-rule="evenodd" d="M45.4817 87.1271C46.4924 86.5866 46.8106 88.0217 46.0058 86.0275C45.4443 84.2755 44.1528 83.6419 42.8614 82.1136C41.4389 80.4362 41.0458 79.318 40.1474 77.3237C39.8854 77.8456 39.7544 77.4169 39.8854 78.5352C40.2972 81.8713 44.0031 84.8719 44.8266 85.8038C45.9309 87.0339 45.1448 85.9716 45.4817 87.1271Z" fill="#F7E7CA"/>
<path fill-rule="evenodd" clip-rule="evenodd" d="M45.4817 87.1271C46.4924 86.5866 46.8106 88.0217 46.0058 86.0275C45.4443 84.2755 44.1528 83.6419 42.8614 82.1136C41.4389 80.4362 41.0458 79.318 40.1474 77.3237C39.8854 77.8456 39.7544 77.4169 39.8854 78.5352C40.2972 81.8713 44.0031 84.8719 44.8266 85.8038C45.9309 87.0339 45.1448 85.9716 45.4817 87.1271Z" fill="#F7E7CA"/>
<path fill-rule="evenodd" clip-rule="evenodd" d="M114.94 94.1163L113.63 99.0739L115.408 97.3033L117.467 91.0225C117.205 91.0411 117.036 91.0411 116.999 91.2275L116.044 92.4948C115.67 93.0726 115.314 93.6131 114.94 94.1163Z" fill="#4F514F"/>
<path fill-rule="evenodd" clip-rule="evenodd" d="M114.94 94.1163L113.63 99.0739L115.408 97.3033L117.467 91.0225C117.205 91.0411 117.036 91.0411 116.999 91.2275L116.044 92.4948C115.67 93.0726 115.314 93.6131 114.94 94.1163Z" fill="#4F514F"/>
<path fill-rule="evenodd" clip-rule="evenodd" d="M54.0161 97.3407C54.0909 97.5084 54.2781 97.5271 54.353 97.7694C55.3075 101.124 53.3048 95.9615 55.2701 98.6267L55.1016 94.7128C54.353 93.2963 53.23 91.8985 52.3877 90.7803L54.0161 97.3407Z" fill="#AD564D"/>
<path fill-rule="evenodd" clip-rule="evenodd" d="M54.0161 97.3407C54.0909 97.5084 54.2781 97.5271 54.353 97.7694C55.3075 101.124 53.3048 95.9615 55.2701 98.6267L55.1016 94.7128C54.353 93.2963 53.23 91.8985 52.3877 90.7803L54.0161 97.3407Z" fill="#AD564D"/>
<path fill-rule="evenodd" clip-rule="evenodd" d="M41.832 119.463C43.1235 118.513 41.963 120.302 43.2358 118.233C43.8347 117.283 43.4604 118.047 43.5914 116.761C41.9443 117.544 42.1877 117.674 41.832 119.463Z" fill="#908A75"/>
<path fill-rule="evenodd" clip-rule="evenodd" d="M41.832 119.463C43.1235 118.513 41.963 120.302 43.2358 118.233C43.8347 117.283 43.4604 118.047 43.5914 116.761C41.9443 117.544 42.1877 117.674 41.832 119.463Z" fill="#FDA66B"/>
<path fill-rule="evenodd" clip-rule="evenodd" d="M127.349 119.966C127.443 117.32 127.555 117.432 125.814 116.63L127.349 119.966Z" fill="#B28A73"/>
<path fill-rule="evenodd" clip-rule="evenodd" d="M127.349 119.966C127.443 117.32 127.555 117.432 125.814 116.63L127.349 119.966Z" fill="#FDA66B"/>
<path d="M29.8338 135.156L28.8231 137.411L34.1761 139.517L33.5585 140.878C33.1654 141.791 32.529 142.015 30.9007 141.362L25.5851 139.256C23.4327 138.418 23.1519 137.859 23.9193 136.144L25.3792 132.92C26.2402 131.019 27.176 130.72 29.1226 131.485L33.8954 133.386C35.8606 134.15 36.2911 134.802 35.8606 135.771L39.0986 137.039C40.5211 133.889 39.1548 132.472 35.8793 131.186L29.3846 128.614C25.8471 127.217 23.8444 127.85 22.3096 131.242L20.5503 135.156C19.1652 138.231 20.2882 140.151 23.6011 141.456L30.1707 144.046C33.652 145.425 35.5237 144.978 36.9088 141.94L38.4248 138.548L29.8338 135.156ZM38.743 147.14L53.2111 150.905L53.9598 148.407L42.8794 145.519L43.7778 142.462L54.5026 145.276L55.1951 142.947L44.4704 140.151L45.3313 137.244L56.4117 140.132L57.1417 137.635L42.6735 133.852L38.743 147.14ZM59.2566 138.231L57.1791 151.874L60.6604 152.34L62.3262 141.418L62.8128 141.474L69.8878 153.57L75.8585 154.371L77.936 140.729L74.4547 140.263L72.7889 151.203L72.3023 151.129L65.115 139.014L59.2566 138.231ZM80.1446 154.427L95.1555 153.943L95.0432 151.352L83.5511 151.725L83.4388 148.575L94.5753 148.202L94.4817 145.798L83.3452 146.171L83.2329 143.152L94.725 142.779L94.6314 140.17L79.6206 140.673L80.1446 154.427ZM100.19 141.903L107.396 140.561C108.931 140.263 109.511 140.822 109.811 142.257C110.129 143.711 109.755 144.4 108.276 144.68L101.07 146.04L100.19 141.903ZM115.388 150.308L114.789 147.513C114.471 146.059 113.442 145.705 111.907 145.519C112.843 144.736 113.704 143.674 113.255 141.605C112.431 137.765 110.11 137.244 107.116 137.821L96.1662 139.871L99.0486 153.384L102.511 152.731L101.65 148.724L108.332 147.476C110.335 147.084 111.196 147.531 111.477 148.855L111.926 150.961L115.388 150.308ZM121.808 148.538L122.426 144.68L130.699 142.089L133.656 144.829L137.568 143.599L125.57 132.826L120.629 134.373L117.896 149.749L121.808 148.538ZM122.894 141.791L123.923 136.069L124.073 136.013L128.471 140.039L122.894 141.791ZM140.02 142.574L151.456 137.616L150.22 135.138L141.985 138.716L137.044 128.689L133.843 130.068L140.02 142.574Z" fill="white"/>
<path fill-rule="evenodd" clip-rule="evenodd" d="M76.7952 59.4691C74.7363 57.4935 72.9769 55.872 70.7871 54.5488C68.8779 53.3932 66.8752 52.2191 64.3672 51.1567C66.5758 51.1567 69.0277 52.4614 71.2175 53.9337C74.3245 56.0211 74.755 56.4684 76.7952 59.4691Z" fill="#F0A996"/>
<path fill-rule="evenodd" clip-rule="evenodd" d="M90.4392 59.4691C92.4981 57.4935 94.2574 55.872 96.4473 54.5488C98.3564 53.3932 100.34 52.2191 102.867 51.1567C100.64 51.1567 98.2067 52.4614 95.9981 53.9337C92.9098 56.0211 92.4793 56.4684 90.4392 59.4691Z" fill="#F0A996"/>
<path d="M46.81 154.502L46.1549 156.813L42.6362 155.825L43.2725 153.533L41.9436 153.16L40.334 158.919L41.6629 159.292L42.3367 156.85L45.8742 157.82L45.2004 160.28L46.5293 160.634L48.1389 154.875L46.81 154.502ZM52.6309 155.937L51.3208 161.789L52.6684 162.088L53.9785 156.254L52.6309 155.937ZM64.5723 160.839L61.222 160.298L61.0535 161.342L63.0001 161.659C62.8316 162.255 62.2701 162.982 60.8851 162.759C59.4439 162.516 58.8262 161.473 59.0134 160.336C59.2005 159.217 60.0054 158.416 61.4091 158.64C62.4386 158.807 62.9065 159.311 63.0936 159.926L64.5161 160.149C64.3477 158.696 63.0936 157.857 61.5776 157.615C59.8743 157.335 57.9839 157.969 57.6283 160.112C57.2727 162.274 58.8262 163.467 60.7166 163.784C62.7755 164.119 64.3477 163.243 64.5723 160.839ZM74.1927 159.329L73.9494 161.696L70.2996 161.342L70.5429 158.975L69.1579 158.826L68.5777 164.79L69.9627 164.92L70.206 162.404L73.8558 162.759L73.5938 165.275L74.9788 165.424L75.559 159.46L74.1927 159.329ZM89.0539 161.976C87.987 161.864 86.995 161.864 86.9763 161.305C86.9576 160.895 87.2383 160.559 88.4736 160.503C89.5779 160.466 90.0833 160.839 90.1582 161.267L91.4871 161.212C91.4309 160.168 90.5699 159.385 88.4549 159.46C86.2463 159.534 85.61 160.466 85.6474 161.454C85.6848 162.386 86.2089 162.87 87.856 163.075C89.5031 163.299 90.4389 163.206 90.4576 163.821C90.4763 164.268 89.9897 164.585 88.848 164.622C87.7624 164.66 87.0325 164.38 86.9763 163.746L85.5351 163.802C85.5725 165.014 86.6956 165.759 88.7731 165.685C90.9068 165.61 91.955 164.883 91.9175 163.579C91.8614 162.255 90.7197 162.143 89.0539 161.976ZM101.201 164.324L102.829 164.119L99.6663 160.857L101.894 158.192L100.116 158.435L97.4764 161.659L97.1021 158.845L95.7358 159.031L96.5406 164.976L97.9069 164.79L97.701 163.206L98.8241 161.864L101.201 164.324ZM105.993 157.484L107.172 163.355L108.538 163.094L107.359 157.223L105.993 157.484ZM118.252 159.851L114.471 160.746L113.311 155.956L111.963 156.273L113.348 162.088L118.495 160.876L118.252 159.851ZM127.779 157.167L124.036 158.248L122.669 153.514L121.34 153.906L123.006 159.646L128.078 158.192L127.779 157.167Z" fill="white"/>
</g>
<defs>
<clipPath id="clip0_1_2966">
<rect width="168.414" height="175" fill="white"/>
</clipPath>
</defs>
</svg>
