<svg width="70" height="73" viewBox="0 0 70 73" fill="none" xmlns="http://www.w3.org/2000/svg">
<g clip-path="url(#clip0_1_350)">
<path fill-rule="evenodd" clip-rule="evenodd" d="M69.9993 51.9091C69.9993 54.8401 69.7426 58.0899 69.2292 62.7857L69.1592 63.3999L68.6457 63.7186C66.5375 65.0481 59.5904 68.3134 51.1807 70.5835C45.8906 72.0063 39.9938 73.048 34.2914 72.9936C28.2467 72.9237 22.381 71.8586 17.2698 70.4514C9.17915 68.2123 2.90887 65.0947 0.769505 63.7186L0.186042 63.3454V62.6535C0.193822 60.2045 0.139365 57.8877 0.0849087 55.7031C-0.195154 43.5748 -0.389641 35.1084 9.27251 23.2989C9.6537 22.8246 10.1438 22.3193 10.6417 21.8372C11.3107 21.1997 11.9876 20.6166 12.501 20.1968C13.4034 19.4505 14.0802 18.9918 14.8582 18.4709C15.0916 18.3076 15.3405 18.1443 15.5739 17.9811C16.2507 12.7022 18.3668 8.18517 21.7586 4.98984C25.096 1.84116 29.6548 -0.00140237 35.2561 0.00637216C40.8029 0.0141467 45.4783 1.92668 48.9091 5.14533C52.3165 8.35621 54.4714 12.8421 54.9849 18.0277L57.8244 20.2357L57.8711 20.2901C60.7806 23.19 63.3167 26.7663 65.285 30.7235C67.2143 34.5875 68.5912 38.8168 69.2447 43.1239C69.7426 46.4047 69.9993 48.9548 69.9993 51.9091Z" fill="#FDA66B"/>
<path fill-rule="evenodd" clip-rule="evenodd" d="M25.7958 5.54172C26.0292 5.30071 25.718 5.46397 26.3248 5.10635C26.7138 4.86534 26.5426 4.97418 27.0483 4.81091L28.8454 3.94017L30.2457 3.52812L32.9063 2.96058C35.4035 2.1598 40.5302 3.35708 42.6696 4.28225C48.4108 6.75455 51.3748 11.8313 52.2539 17.7866C53.3897 25.4756 51.3982 25.841 50.9236 27.6525C51.4526 27.2249 51.8416 26.774 52.4406 26.2919C53.1252 25.7477 53.5687 25.5845 54.2144 25.1102L55.5213 24.3716C55.4357 27.2638 55.4669 30.2414 54.4166 32.7759C53.0396 36.0878 52.8607 38.4824 50.6591 38.1636C50.3791 37.3784 50.7291 36.3755 51.0481 35.808C51.6549 34.7351 54.1288 34.3541 54.1988 29.0908C53.0474 29.8449 53.1174 31.3143 51.9194 32.185C51.6082 31.532 51.4837 31.462 51.5538 30.8167C51.1337 30.5757 51.2659 31.0344 51.157 30.5679L51.1959 31.3609C51.7483 33.5844 50.3791 33.8799 49.7334 36.1811C48.5198 40.5271 50.2624 44.0334 47.5551 48.1306L45.3224 51.0383C44.84 51.4969 44.8712 51.3181 44.49 51.839C44.1243 52.2433 44.9567 52.1111 44.0154 52.1811L44.2721 51.668C44.5522 50.2686 45.0345 49.3745 45.688 48.1772C46.2404 47.1588 46.6293 46.1248 47.1272 45.2462C47.1739 44.6476 47.2206 44.9897 46.1548 46.5135C43.2919 50.6107 40.4368 55.9984 35.4424 55.9595C33.5131 55.804 31.6693 55.392 31.3504 53.3706C30.9225 50.634 31.9572 49.9109 32.3695 48.0995C35.2479 48.8147 33.3342 49.3901 37.5195 48.2006C37.784 47.8662 38.0019 47.8351 38.3364 47.4775C38.6476 47.151 38.6787 46.9644 39.0754 46.4979C39.6822 45.7827 40.7325 45.565 41.7438 46.0626C42.8096 46.3269 42.3817 46.6612 43.3853 46.7389C43.9999 45.0752 42.3273 43.3337 41.4871 42.8594C39.2855 41.6155 38.2508 42.9216 36.8038 43.2404L36.5782 43.5203C36.5471 43.5592 36.5004 43.6136 36.4693 43.6525L36.0025 44.0956C35.6758 44.3288 35.6836 44.3522 35.2557 44.391C33.4042 43.8701 33.2797 43.4814 32.9063 41.4134C32.6262 39.9129 32.5329 38.5601 32.4395 36.9508C31.8016 38.4979 31.9416 41.0013 32.2917 42.7273C28.0674 41.9887 28.5498 43.8546 27.3439 44.2977C26.7216 43.0538 27.9274 42.2064 24.4733 38.6457L24.4033 39.0033L24.7067 40.3327L23.8432 40.7603C24.52 41.7321 24.9867 41.3745 24.8 42.875C24.7067 43.6136 24.5122 44.5465 24.1388 45.1141L23.4931 44.1967C23.4153 44.0412 23.2908 43.7457 23.1897 43.598C22.933 43.2093 23.1352 43.4659 22.824 43.1938L22.8163 44.2666L23.3453 47.5086L24.3722 49.5689C23.7654 49.1179 23.2208 48.3094 22.9952 47.5941C21.5093 44.4066 21.4471 43.3026 21.1359 39.2598C21.0192 37.7205 20.9725 36.1811 20.4669 34.7973C19.4789 32.0684 19.051 34.1364 19.3544 31.0733L19.2066 30.5135C19.0821 30.7467 18.9576 31.1277 18.8176 31.3765C18.522 31.9207 18.8565 31.5864 18.3119 31.9829L16.3593 28.6632C16.0948 30.1559 16.406 30.91 16.686 32.255C17.0594 33.0869 17.2228 33.5533 17.814 34.253C18.3508 34.8906 18.8876 35.1549 19.121 35.8857C19.5722 36.2122 19.5644 36.1423 19.6422 36.9508C19.6811 37.4095 19.65 37.7049 19.6033 38.1481C17.8996 38.3969 17.4017 37.1218 17.005 35.6602C15.2857 32.8925 14.8112 28.3444 14.959 24.5116C15.2935 24.2783 15.029 24.2628 15.3479 24.5116L16.3593 25.3279C17.075 25.6466 17.4484 25.8799 18.0085 26.3619C18.3042 26.6185 18.4986 26.8983 18.662 27.0461C19.4244 27.7069 18.9343 27.738 19.2688 27.0772C17.1217 23.8818 18.0085 17.7011 19.2455 14.0704C19.9067 12.1423 20.9336 10.3853 21.9294 9.05581C22.7696 7.94405 24.4966 6.08594 25.7958 5.54172Z" fill="#00111A"/>
<path fill-rule="evenodd" clip-rule="evenodd" d="M25.7958 5.54172C26.0292 5.30071 25.718 5.46397 26.3248 5.10635C26.7138 4.86534 26.5426 4.97418 27.0483 4.81091L28.8454 3.94017L30.2457 3.52812L32.9063 2.96058C35.4035 2.1598 40.5302 3.35708 42.6696 4.28225C48.4108 6.75455 51.3748 11.8313 52.2539 17.7866C53.3897 25.4756 51.3982 25.841 50.9236 27.6525C51.4526 27.2249 51.8416 26.774 52.4406 26.2919C53.1252 25.7477 53.5687 25.5845 54.2144 25.1102L55.5213 24.3716C55.4357 27.2638 55.4669 30.2414 54.4166 32.7759C53.0396 36.0878 52.8607 38.4824 50.6591 38.1636C50.3791 37.3784 50.7291 36.3755 51.0481 35.808C51.6549 34.7351 54.1288 34.3541 54.1988 29.0908C53.0474 29.8449 53.1174 31.3143 51.9194 32.185C51.6082 31.532 51.4837 31.462 51.5538 30.8167C51.1337 30.5757 51.2659 31.0344 51.157 30.5679L51.1959 31.3609C51.7483 33.5844 50.3791 33.8799 49.7334 36.1811C48.5198 40.5271 50.2624 44.0334 47.5551 48.1306L45.3224 51.0383C44.84 51.4969 44.8712 51.3181 44.49 51.839C44.1243 52.2433 44.9567 52.1111 44.0154 52.1811L44.2721 51.668C44.5522 50.2686 45.0345 49.3745 45.688 48.1772C46.2404 47.1588 46.6293 46.1248 47.1272 45.2462C47.1739 44.6476 47.2206 44.9897 46.1548 46.5135C43.2919 50.6107 40.4368 55.9984 35.4424 55.9595C33.5131 55.804 31.6693 55.392 31.3504 53.3706C30.9225 50.634 31.9572 49.9109 32.3695 48.0995C35.2479 48.8147 33.3342 49.3901 37.5195 48.2006C37.784 47.8662 38.0019 47.8351 38.3364 47.4775C38.6476 47.151 38.6787 46.9644 39.0754 46.4979C39.6822 45.7827 40.7325 45.565 41.7438 46.0626C42.8096 46.3269 42.3817 46.6612 43.3853 46.7389C43.9999 45.0752 42.3273 43.3337 41.4871 42.8594C39.2855 41.6155 38.2508 42.9216 36.8038 43.2404L36.5782 43.5203C36.5471 43.5592 36.5004 43.6136 36.4693 43.6525L36.0025 44.0956C35.6758 44.3288 35.6836 44.3522 35.2557 44.391C33.4042 43.8701 33.2797 43.4814 32.9063 41.4134C32.6262 39.9129 32.5329 38.5601 32.4395 36.9508C31.8016 38.4979 31.9416 41.0013 32.2917 42.7273C28.0674 41.9887 28.5498 43.8546 27.3439 44.2977C26.7216 43.0538 27.9274 42.2064 24.4733 38.6457L24.4033 39.0033L24.7067 40.3327L23.8432 40.7603C24.52 41.7321 24.9867 41.3745 24.8 42.875C24.7067 43.6136 24.5122 44.5465 24.1388 45.1141L23.4931 44.1967C23.4153 44.0412 23.2908 43.7457 23.1897 43.598C22.933 43.2093 23.1352 43.4659 22.824 43.1938L22.8163 44.2666L23.3453 47.5086L24.3722 49.5689C23.7654 49.1179 23.2208 48.3094 22.9952 47.5941C21.5093 44.4066 21.4471 43.3026 21.1359 39.2598C21.0192 37.7205 20.9725 36.1811 20.4669 34.7973C19.4789 32.0684 19.051 34.1364 19.3544 31.0733L19.2066 30.5135C19.0821 30.7467 18.9576 31.1277 18.8176 31.3765C18.522 31.9207 18.8565 31.5864 18.3119 31.9829L16.3593 28.6632C16.0948 30.1559 16.406 30.91 16.686 32.255C17.0594 33.0869 17.2228 33.5533 17.814 34.253C18.3508 34.8906 18.8876 35.1549 19.121 35.8857C19.5722 36.2122 19.5644 36.1423 19.6422 36.9508C19.6811 37.4095 19.65 37.7049 19.6033 38.1481C17.8996 38.3969 17.4017 37.1218 17.005 35.6602C15.2857 32.8925 14.8112 28.3444 14.959 24.5116C15.2935 24.2783 15.029 24.2628 15.3479 24.5116L16.3593 25.3279C17.075 25.6466 17.4484 25.8799 18.0085 26.3619C18.3042 26.6185 18.4986 26.8983 18.662 27.0461C19.4244 27.7069 18.9343 27.738 19.2688 27.0772C17.1217 23.8818 18.0085 17.7011 19.2455 14.0704C19.9067 12.1423 20.9336 10.3853 21.9294 9.05581C22.7696 7.94405 24.4966 6.08594 25.7958 5.54172Z" fill="#00111A"/>
<path fill-rule="evenodd" clip-rule="evenodd" d="M6.29284 49.7322C6.16836 45.4251 6.70515 41.2191 8.05878 37.4951C9.10124 34.6185 11.6529 30.086 13.4422 28.9198L13.9168 30.2803C14.2746 32.2162 13.7067 31.5865 12.4386 33.5534C8.82118 39.2055 8.76672 43.7458 8.61113 50.2764C8.19881 50.2842 7.91097 50.222 7.51422 50.1443L6.29284 49.7322Z" fill="#00111A"/>
<path fill-rule="evenodd" clip-rule="evenodd" d="M6.29284 49.7322C6.16836 45.4251 6.70515 41.2191 8.05878 37.4951C9.10124 34.6185 11.6529 30.086 13.4422 28.9198L13.9168 30.2803C14.2746 32.2162 13.7067 31.5865 12.4386 33.5534C8.82118 39.2055 8.76672 43.7458 8.61113 50.2764C8.19881 50.2842 7.91097 50.222 7.51422 50.1443L6.29284 49.7322Z" fill="#00111A"/>
<path fill-rule="evenodd" clip-rule="evenodd" d="M61.6592 50.3153C61.457 45.534 61.6515 42.5952 60.0644 38.1715C59.4265 36.3834 58.7186 35.1783 57.7539 33.6623C55.8324 30.6224 56.198 33.1725 56.5248 28.8732C58.2285 29.534 61.1613 34.8829 62.1027 37.4485C63.324 40.7526 64.1954 46.0626 63.8764 49.911L61.6592 50.3153Z" fill="#00111A"/>
<path fill-rule="evenodd" clip-rule="evenodd" d="M61.6592 50.3153C61.457 45.534 61.6515 42.5952 60.0644 38.1715C59.4265 36.3834 58.7186 35.1783 57.7539 33.6623C55.8324 30.6224 56.198 33.1725 56.5248 28.8732C58.2285 29.534 61.1613 34.8829 62.1027 37.4485C63.324 40.7526 64.1954 46.0626 63.8764 49.911L61.6592 50.3153Z" fill="#00111A"/>
<path fill-rule="evenodd" clip-rule="evenodd" d="M12.4233 47.5942C12.4156 43.8935 13.2013 40.8304 14.8894 37.705L15.4885 36.7643C15.504 36.6943 15.5585 36.6788 15.5896 36.6399C15.1306 38.9256 14.5394 39.5476 13.9637 43.4348C13.5669 46.0782 12.8668 47.8741 12.789 50.6263C12.7656 50.5796 12.7345 50.5097 12.7267 50.4708L12.4622 49.2813C12.4156 48.7293 12.4233 48.1462 12.4233 47.5942Z" fill="#00111A"/>
<path fill-rule="evenodd" clip-rule="evenodd" d="M12.4233 47.5942C12.4156 43.8935 13.2013 40.8304 14.8894 37.705L15.4885 36.7643C15.504 36.6943 15.5585 36.6788 15.5896 36.6399C15.1306 38.9256 14.5394 39.5476 13.9637 43.4348C13.5669 46.0782 12.8668 47.8741 12.789 50.6263C12.7656 50.5796 12.7345 50.5097 12.7267 50.4708L12.4622 49.2813C12.4156 48.7293 12.4233 48.1462 12.4233 47.5942Z" fill="#00111A"/>
<path fill-rule="evenodd" clip-rule="evenodd" d="M55.4907 38.0626C57.3811 42.3386 58.0501 44.0879 57.7312 49.6234C57.6067 49.4368 57.5989 49.4756 57.4589 49.1258L57.2177 47.8896C57.1244 47.3299 57.0232 46.809 56.9221 46.2959C56.7198 45.3085 56.5331 44.1034 56.3386 43.0072C55.8874 40.4805 54.7672 37.4718 54.6738 36.6399C54.7983 36.7721 54.845 36.8109 54.9928 37.0364C55.3351 37.5573 54.6738 36.4222 55.1562 37.3163C55.2806 37.534 55.374 37.7983 55.4907 38.0626Z" fill="#00111A"/>
<path fill-rule="evenodd" clip-rule="evenodd" d="M55.4907 38.0626C57.3811 42.3386 58.0501 44.0879 57.7312 49.6234C57.6067 49.4368 57.5989 49.4756 57.4589 49.1258L57.2177 47.8896C57.1244 47.3299 57.0232 46.809 56.9221 46.2959C56.7198 45.3085 56.5331 44.1034 56.3386 43.0072C55.8874 40.4805 54.7672 37.4718 54.6738 36.6399C54.7983 36.7721 54.845 36.8109 54.9928 37.0364C55.3351 37.5573 54.6738 36.4222 55.1562 37.3163C55.2806 37.534 55.374 37.7983 55.4907 38.0626Z" fill="#00111A"/>
<path fill-rule="evenodd" clip-rule="evenodd" d="M15.4104 50.7972C14.0335 47.3531 14.7959 40.5504 16.4373 38.3269C17.4175 39.2287 17.153 39.703 18.7867 40.4804C18.7478 42.7973 19.0979 44.3366 18.0944 46.2569C17.7676 45.5106 18.2966 44.3677 18.5145 43.6058C17.3398 43.598 16.3595 45.2773 15.8461 46.3502C14.9048 48.3016 15.7527 49.4911 15.4104 50.7972Z" fill="#00111A"/>
<path fill-rule="evenodd" clip-rule="evenodd" d="M15.4104 50.7972C14.0335 47.3531 14.7959 40.5504 16.4373 38.3269C17.4175 39.2287 17.153 39.703 18.7867 40.4804C18.7478 42.7973 19.0979 44.3366 18.0944 46.2569C17.7676 45.5106 18.2966 44.3677 18.5145 43.6058C17.3398 43.598 16.3595 45.2773 15.8461 46.3502C14.9048 48.3016 15.7527 49.4911 15.4104 50.7972Z" fill="#00111A"/>
<path fill-rule="evenodd" clip-rule="evenodd" d="M51.725 40.4961C53.242 39.7031 52.7441 39.1122 53.8877 38.3892C54.8835 41.5223 55.7081 43.6525 55.7159 47.3843C55.7159 49.6389 55.0857 50.152 54.8601 51.3104C54.9457 49.2191 55.5058 48.636 54.5256 46.5058C53.9499 45.2463 53.0475 43.7303 51.9039 43.5203L52.4329 46.1326C51.8339 45.5728 51.6083 44.3134 51.5772 43.5203C51.5461 42.5485 51.7094 41.5223 51.725 40.4961Z" fill="#00111A"/>
<path fill-rule="evenodd" clip-rule="evenodd" d="M51.725 40.4961C53.242 39.7031 52.7441 39.1122 53.8877 38.3892C54.8835 41.5223 55.7081 43.6525 55.7159 47.3843C55.7159 49.6389 55.0857 50.152 54.8601 51.3104C54.9457 49.2191 55.5058 48.636 54.5256 46.5058C53.9499 45.2463 53.0475 43.7303 51.9039 43.5203L52.4329 46.1326C51.8339 45.5728 51.6083 44.3134 51.5772 43.5203C51.5461 42.5485 51.7094 41.5223 51.725 40.4961Z" fill="#00111A"/>
<path fill-rule="evenodd" clip-rule="evenodd" d="M17.3867 49.8332C17.5345 49.0869 17.4334 49.0325 18.118 48.7059C18.0635 49.2424 18.2191 48.9236 17.9702 49.3201C17.4412 50.1831 17.9235 49.4367 17.3867 49.8332Z" fill="#00111A"/>
<path fill-rule="evenodd" clip-rule="evenodd" d="M17.3867 49.8332C17.5345 49.0869 17.4334 49.0325 18.118 48.7059C18.0635 49.2424 18.2191 48.9236 17.9702 49.3201C17.4412 50.1831 17.9235 49.4367 17.3867 49.8332Z" fill="#00111A"/>
<path fill-rule="evenodd" clip-rule="evenodd" d="M52.293 48.6515C53.0165 48.9858 52.9698 48.9391 52.9309 50.0431L52.293 48.6515Z" fill="#00111A"/>
<path fill-rule="evenodd" clip-rule="evenodd" d="M52.293 48.6515C53.0165 48.9858 52.9698 48.9391 52.9309 50.0431L52.293 48.6515Z" fill="#00111A"/>
<path fill-rule="evenodd" clip-rule="evenodd" d="M67.9764 62.6533C68.9955 53.3239 68.98 49.7865 67.9998 43.3103C66.7161 34.8672 62.5541 26.735 56.984 21.1762L53.771 18.6806C53.0164 8.6359 45.8282 1.2812 35.2558 1.26565C24.4267 1.2501 17.8531 8.52706 16.7561 18.6884C15.387 19.6602 14.5779 20.1189 13.302 21.1684C12.4307 21.8915 11.1004 23.0577 10.2447 24.0994C-0.848879 37.666 1.46941 46.7777 1.44608 62.6533C4.8535 64.838 19.0278 71.5707 34.2989 71.734C48.7299 71.8817 64.639 64.7524 67.9764 62.6533Z" fill="#00111A"/>
<path fill-rule="evenodd" clip-rule="evenodd" d="M30.2462 3.52823C30.6663 3.88586 30.4873 3.73037 31.3508 3.66818C31.1486 4.26681 31.1797 4.73329 31.5531 5.3397L33.6225 5.47187C33.4513 5.63513 33.5213 5.61958 33.2257 5.7984C32.9301 5.97721 33.0001 5.89169 32.7356 5.97721C30.6196 6.38149 29.0014 8.09966 27.9901 9.11812C26.8154 10.3076 25.843 12.3057 25.314 14.3348C23.8203 20.0336 26.7376 22.9101 26.5509 28.3912C28.0835 28.9898 28.9159 29.6662 30.005 30.4048C31.6231 31.5088 33.0079 31.4232 33.4046 29.5729L33.6925 28.7177C33.887 28.9121 33.9414 28.6944 34.0892 29.4407C34.2526 30.2571 34.1515 29.9461 33.9959 30.2337C34.3771 30.6302 34.1281 29.9772 34.3771 30.9334C34.5482 31.5632 34.6105 42.9762 35.2562 44.3912C35.684 44.3523 35.6763 44.329 36.003 44.0957L36.4698 43.6526C36.5009 43.6137 36.5476 43.5593 36.5787 43.5204L36.8043 43.2405L36.4464 43.2561C37.38 42.1521 37.5044 40.224 37.8001 38.7624C38.2279 36.6555 36.9132 34.9451 37.4733 33.7867C37.4422 33.7401 37.38 33.6157 37.3644 33.6468L36.8198 32.2085C36.213 30.9568 36.5865 30.4126 36.7109 29.0753C37.0843 29.3863 36.5865 29.3941 37.0299 30.0782C37.3955 30.638 37.3022 29.6196 37.4967 30.2337C38.5702 32.1463 40.2195 30.5758 41.3631 29.7595C42.9657 28.6322 44.0003 28.0569 46.5676 28.3756C46.2642 28.1657 46.0074 27.9558 45.3306 27.9169C44.7472 27.8781 44.2337 28.0724 43.6891 28.2124C44.117 27.1239 43.9692 25.8023 44.2026 24.6594C44.4204 23.5476 44.7627 22.6147 45.0739 21.5263C46.5131 16.535 45.5951 11.8081 41.7209 8.44174C41.0908 7.88974 41.3397 7.91307 40.5851 7.46215C39.5738 6.85573 38.9203 6.63027 37.9556 6.1327C39.4882 5.28528 42.53 8.09188 43.378 8.6983L41.2853 6.5292C41.5264 5.34747 41.1686 5.30083 41.682 4.50005C40.1572 4.088 39.5038 3.60598 37.6056 3.38829C35.684 3.16283 34.1826 3.31832 32.3077 3.27945C33.4435 3.52823 32.5411 3.27945 32.9067 2.96069L30.2462 3.52823Z" fill="#FFD3AE"/>
<path fill-rule="evenodd" clip-rule="evenodd" d="M30.2462 3.52823C30.6663 3.88586 30.4873 3.73037 31.3508 3.66818C31.1486 4.26681 31.1797 4.73329 31.5531 5.3397L33.6225 5.47187C33.4513 5.63513 33.5213 5.61958 33.2257 5.7984C32.9301 5.97721 33.0001 5.89169 32.7356 5.97721C30.6196 6.38149 29.0014 8.09966 27.9901 9.11812C26.8154 10.3076 25.843 12.3057 25.314 14.3348C23.8203 20.0336 26.7376 22.9101 26.5509 28.3912C28.0835 28.9898 28.9159 29.6662 30.005 30.4048C31.6231 31.5088 33.0079 31.4232 33.4046 29.5729L33.6925 28.7177C33.887 28.9121 33.9414 28.6944 34.0892 29.4407C34.2526 30.2571 34.1515 29.9461 33.9959 30.2337C34.3771 30.6302 34.1281 29.9772 34.3771 30.9334C34.5482 31.5632 34.6105 42.9762 35.2562 44.3912C35.684 44.3523 35.6763 44.329 36.003 44.0957L36.4698 43.6526C36.5009 43.6137 36.5476 43.5593 36.5787 43.5204L36.8043 43.2405L36.4464 43.2561C37.38 42.1521 37.5044 40.224 37.8001 38.7624C38.2279 36.6555 36.9132 34.9451 37.4733 33.7867C37.4422 33.7401 37.38 33.6157 37.3644 33.6468L36.8198 32.2085C36.213 30.9568 36.5865 30.4126 36.7109 29.0753C37.0843 29.3863 36.5865 29.3941 37.0299 30.0782C37.3955 30.638 37.3022 29.6196 37.4967 30.2337C38.5702 32.1463 40.2195 30.5758 41.3631 29.7595C42.9657 28.6322 44.0003 28.0569 46.5676 28.3756C46.2642 28.1657 46.0074 27.9558 45.3306 27.9169C44.7472 27.8781 44.2337 28.0724 43.6891 28.2124C44.117 27.1239 43.9692 25.8023 44.2026 24.6594C44.4204 23.5476 44.7627 22.6147 45.0739 21.5263C46.5131 16.535 45.5951 11.8081 41.7209 8.44174C41.0908 7.88974 41.3397 7.91307 40.5851 7.46215C39.5738 6.85573 38.9203 6.63027 37.9556 6.1327C39.4882 5.28528 42.53 8.09188 43.378 8.6983L41.2853 6.5292C41.5264 5.34747 41.1686 5.30083 41.682 4.50005C40.1572 4.088 39.5038 3.60598 37.6056 3.38829C35.684 3.16283 34.1826 3.31832 32.3077 3.27945C33.4435 3.52823 32.5411 3.27945 32.9067 2.96069L30.2462 3.52823Z" fill="#FFD3AE"/>
<path fill-rule="evenodd" clip-rule="evenodd" d="M44.8793 44.5854C44.4436 43.8157 44.5137 42.3697 44.6848 41.3745C45.2761 40.9391 45.6573 40.7292 46.6297 40.5349C46.1707 41.4523 45.8051 41.3201 45.3927 42.1131C44.9493 42.9605 45.1671 43.8857 44.8793 44.5854ZM32.9066 2.96058C32.541 3.27933 33.4434 3.52812 32.3076 3.27933C34.1825 3.31821 35.6839 3.16271 37.6055 3.38818C39.5037 3.60586 40.1571 4.08788 41.6819 4.49993C41.1685 5.30071 41.5263 5.34736 41.2852 6.52908L43.3779 8.69818C42.5299 8.09176 39.4881 5.28516 37.9555 6.13258C38.9202 6.63015 39.5737 6.85562 40.585 7.46203C41.3396 7.91295 41.0907 7.88963 41.7208 8.44162C45.595 11.808 46.513 16.5349 45.0738 21.5261C44.7626 22.6146 44.4203 23.5475 44.2025 24.6593C43.9691 25.8021 44.1169 27.1238 43.689 28.2122C44.2336 28.0723 44.747 27.8779 45.3305 27.9168C46.0073 27.9557 46.2641 28.1656 46.5675 28.3755C47.4154 28.9664 47.8277 28.7331 48.3023 29.8604L46.2407 29.6039C46.2018 29.6505 46.1474 29.705 46.1162 29.7283C46.0851 29.7594 46.0307 29.8216 45.9918 29.8527C43.0356 32.7681 43.6813 32.2239 40.4139 33.3123L39.3325 33.6C41.0751 34.8672 38.0645 33.7166 37.4732 33.7866C36.9131 34.945 38.2278 36.6554 37.7999 38.7623C37.5043 40.2239 37.3799 42.152 36.4463 43.256L36.8042 43.2404C38.2512 42.9216 39.2858 41.6155 41.4874 42.8594C42.3276 43.3337 44.0002 45.0752 43.3856 46.7389C42.3821 46.6612 42.81 46.3269 41.7442 46.0626C40.9662 46.2336 41.2074 46.2103 40.7562 46.6845C40.4294 47.0421 40.2349 47.2132 39.8693 47.5008C39.1614 48.0762 38.5312 48.566 37.6132 48.8614C36.9286 49.701 35.9329 49.359 35.4661 51.1549C35.1705 52.29 35.3494 54.7312 35.4428 55.9595C40.4372 55.9984 43.2923 50.6107 46.1551 46.5135C47.2209 44.9897 47.1743 44.6476 47.1276 45.2462C47.8822 44.3133 48.5979 41.6622 48.0144 40.6748C48.0067 40.6593 47.9678 40.6204 47.9678 40.5893L47.2287 41.3279L47.7733 39.2598C47.6099 39.0422 48.0067 37.7283 48.1778 37.4095L48.7457 36.4843C49.0413 35.9712 49.0024 36.1345 49.2436 35.5047C49.5314 34.7584 50.0838 32.2705 51.1963 31.3609L51.1574 30.5679C51.2663 31.0344 51.134 30.5757 51.5541 30.8167L52.1531 31.1899C52.4099 30.5135 52.8066 30.2103 53.1256 29.7516C53.639 29.0052 53.3434 29.0752 54.0902 28.3833C54.9615 27.567 54.8448 26.1831 54.697 25.771L54.2147 25.1102C53.569 25.5845 53.1256 25.7477 52.441 26.2919C51.842 26.774 51.453 27.2249 50.924 27.6525C51.3985 25.841 53.3901 25.4756 52.2543 17.7866C51.3752 11.8313 48.4112 6.75455 42.6699 4.28225C40.5306 3.35708 35.4039 2.1598 32.9066 2.96058Z" fill="#FDECCA"/>
<path fill-rule="evenodd" clip-rule="evenodd" d="M44.8793 44.5854C44.4436 43.8157 44.5137 42.3697 44.6848 41.3745C45.2761 40.9391 45.6573 40.7292 46.6297 40.5349C46.1707 41.4523 45.8051 41.3201 45.3927 42.1131C44.9493 42.9605 45.1671 43.8857 44.8793 44.5854ZM32.9066 2.96058C32.541 3.27933 33.4434 3.52812 32.3076 3.27933C34.1825 3.31821 35.6839 3.16271 37.6055 3.38818C39.5037 3.60586 40.1571 4.08788 41.6819 4.49993C41.1685 5.30071 41.5263 5.34736 41.2852 6.52908L43.3779 8.69818C42.5299 8.09176 39.4881 5.28516 37.9555 6.13258C38.9202 6.63015 39.5737 6.85562 40.585 7.46203C41.3396 7.91295 41.0907 7.88963 41.7208 8.44162C45.595 11.808 46.513 16.5349 45.0738 21.5261C44.7626 22.6146 44.4203 23.5475 44.2025 24.6593C43.9691 25.8021 44.1169 27.1238 43.689 28.2122C44.2336 28.0723 44.747 27.8779 45.3305 27.9168C46.0073 27.9557 46.2641 28.1656 46.5675 28.3755C47.4154 28.9664 47.8277 28.7331 48.3023 29.8604L46.2407 29.6039C46.2018 29.6505 46.1474 29.705 46.1162 29.7283C46.0851 29.7594 46.0307 29.8216 45.9918 29.8527C43.0356 32.7681 43.6813 32.2239 40.4139 33.3123L39.3325 33.6C41.0751 34.8672 38.0645 33.7166 37.4732 33.7866C36.9131 34.945 38.2278 36.6554 37.7999 38.7623C37.5043 40.2239 37.3799 42.152 36.4463 43.256L36.8042 43.2404C38.2512 42.9216 39.2858 41.6155 41.4874 42.8594C42.3276 43.3337 44.0002 45.0752 43.3856 46.7389C42.3821 46.6612 42.81 46.3269 41.7442 46.0626C40.9662 46.2336 41.2074 46.2103 40.7562 46.6845C40.4294 47.0421 40.2349 47.2132 39.8693 47.5008C39.1614 48.0762 38.5312 48.566 37.6132 48.8614C36.9286 49.701 35.9329 49.359 35.4661 51.1549C35.1705 52.29 35.3494 54.7312 35.4428 55.9595C40.4372 55.9984 43.2923 50.6107 46.1551 46.5135C47.2209 44.9897 47.1743 44.6476 47.1276 45.2462C47.8822 44.3133 48.5979 41.6622 48.0144 40.6748C48.0067 40.6593 47.9678 40.6204 47.9678 40.5893L47.2287 41.3279L47.7733 39.2598C47.6099 39.0422 48.0067 37.7283 48.1778 37.4095L48.7457 36.4843C49.0413 35.9712 49.0024 36.1345 49.2436 35.5047C49.5314 34.7584 50.0838 32.2705 51.1963 31.3609L51.1574 30.5679C51.2663 31.0344 51.134 30.5757 51.5541 30.8167L52.1531 31.1899C52.4099 30.5135 52.8066 30.2103 53.1256 29.7516C53.639 29.0052 53.3434 29.0752 54.0902 28.3833C54.9615 27.567 54.8448 26.1831 54.697 25.771L54.2147 25.1102C53.569 25.5845 53.1256 25.7477 52.441 26.2919C51.842 26.774 51.453 27.2249 50.924 27.6525C51.3985 25.841 53.3901 25.4756 52.2543 17.7866C51.3752 11.8313 48.4112 6.75455 42.6699 4.28225C40.5306 3.35708 35.4039 2.1598 32.9066 2.96058Z" fill="#FDECCA"/>
<path fill-rule="evenodd" clip-rule="evenodd" d="M27.0483 4.81093C27.6084 5.85272 27.095 4.56215 26.8616 5.94601C26.6204 7.39985 26.9705 6.84008 27.2117 7.29101L24.9323 10.3386C22.1628 14.4358 21.3148 18.0276 23.143 22.9023L21.9605 22.4902C20.9803 22.4591 21.2915 22.8401 20.2257 22.2725C19.9456 22.1248 20.5913 21.7983 19.8445 22.1559C19.2999 22.4202 19.51 22.4902 19.4789 23.3065C19.3388 23.1744 19.121 23.1433 18.981 22.9567C19.2921 25.1569 20.4046 26.7196 20.109 27.6991C19.8601 28.5232 20.4591 27.6214 19.7278 28.2822L19.2688 27.0772C18.9343 27.738 19.4244 27.7069 18.662 27.0461C18.4986 26.8984 18.3042 26.6185 18.0085 26.3619C17.4484 25.8799 17.075 25.6467 16.3593 25.3279C16.0714 25.9887 16.0559 26.5563 16.1803 27.3726C16.4837 29.394 15.7836 29.0286 15.3713 29.0675C15.309 28.2667 15.2157 27.4581 15.1457 26.6496C15.1146 26.3386 15.0368 25.6311 15.0523 25.3512C15.1068 24.1073 14.9201 24.7448 15.3479 24.5116C15.029 24.2628 15.2935 24.2784 14.959 24.5116C14.8112 28.3444 15.2857 32.8925 17.005 35.6603C18.0941 35.668 17.1372 37.4095 19.0043 37.8294C19.1988 37.1219 19.191 37.1918 18.9032 36.3444C18.7631 35.8624 19.0899 36.3055 18.6309 35.7924C18.2886 35.4037 16.7482 34.152 16.5771 32.7604C16.5226 32.2939 16.5771 32.4727 16.686 32.255C16.406 30.91 16.0948 30.1559 16.3593 28.6632L18.3119 31.9829C18.8565 31.5864 18.522 31.9207 18.8176 31.3765C18.9576 31.1277 19.0821 30.7468 19.2066 30.5135L19.3544 31.0733C20.109 31.4853 19.6111 31.2288 20.0934 32.185C20.3502 32.6826 20.5369 32.9003 20.7936 33.4056C21.1592 34.1209 21.4004 35.4192 21.836 35.979L21.8516 35.4737C22.5518 36.7409 23.1352 37.2618 24.0065 38.1015L24.4733 38.6457C27.9274 42.2064 26.7216 43.0538 27.3439 44.2978C28.5498 43.8546 28.0674 41.9887 32.2917 42.7273C31.9416 41.0014 31.8016 38.498 32.4395 36.9508C32.5329 38.5602 32.6262 39.9129 32.9063 41.4134C33.2797 43.4814 33.4042 43.8702 35.2557 44.3911C34.61 42.9761 34.5478 31.5631 34.3766 30.9333C34.1277 29.9771 34.3766 30.6301 33.9954 30.2336C33.8787 31.6875 34.081 32.7915 33.6765 33.0247C31.4515 34.3075 31.8172 35.6369 29.0554 36.5621L28.6276 35.7147C27.5462 35.7225 27.1183 35.567 26.426 35.3182C27.6629 34.5874 29.0632 34.1209 29.8878 33.1957C27.484 32.8381 26.4649 31.8196 25.0412 30.4591C24.2088 29.6583 24.0921 30.1637 22.9252 29.9615L21.8127 30.0859C22.4506 28.2978 24.4733 28.0801 26.5504 28.3911C26.7371 22.91 23.8198 20.0335 25.3135 14.3347C25.8425 12.3056 26.8149 10.3075 27.9896 9.11802C29.001 8.09956 30.6191 6.38139 32.7351 5.97711C32.4551 5.69723 33.0152 5.65836 31.8949 5.705C31.4126 5.72055 30.2846 6.39694 29.9267 6.34251L29.7634 6.04708C29.5378 5.52619 29.2966 5.06749 29.9267 4.1812C28.1686 4.46108 29.2266 4.37556 28.8454 3.94019L27.0483 4.81093Z" fill="#EE988F"/>
<path fill-rule="evenodd" clip-rule="evenodd" d="M27.0483 4.81089C27.6084 5.85268 27.095 4.5621 26.8616 5.94597C26.6204 7.39981 26.9705 6.84004 27.2117 7.29096L24.9323 10.3386C22.1628 14.4358 21.3148 18.0276 23.143 22.9022L21.9605 22.4902C20.9803 22.4591 21.2915 22.84 20.2257 22.2725C19.9456 22.1248 20.5913 21.7982 19.8445 22.1559C19.2999 22.4202 19.51 22.4902 19.4789 23.3065C19.3388 23.1743 19.121 23.1432 18.981 22.9566C19.2921 25.1568 20.4046 26.7195 20.109 27.6991C19.8601 28.5232 20.4591 27.6214 19.7278 28.2822L19.2688 27.0771C18.9343 27.738 19.4244 27.7069 18.662 27.046C18.4986 26.8983 18.3042 26.6184 18.0085 26.3619C17.4484 25.8799 17.075 25.6466 16.3593 25.3279C16.0714 25.9887 16.0559 26.5562 16.1803 27.3726C16.4837 29.3939 15.7836 29.0285 15.3713 29.0674C15.309 28.2666 15.2157 27.4581 15.1457 26.6495C15.1146 26.3386 15.0368 25.6311 15.0523 25.3512C15.1068 24.1073 14.9201 24.7448 15.3479 24.5115C15.029 24.2628 15.2935 24.2783 14.959 24.5115C14.8112 28.3444 15.2857 32.8925 17.005 35.6602C18.0941 35.668 17.1372 37.4095 19.0043 37.8293C19.1988 37.1218 19.191 37.1918 18.9032 36.3444C18.7631 35.8624 19.0899 36.3055 18.6309 35.7924C18.2886 35.4037 16.7482 34.152 16.5771 32.7603C16.5226 32.2938 16.5771 32.4727 16.686 32.255C16.406 30.91 16.0948 30.1558 16.3593 28.6631L18.3119 31.9829C18.8565 31.5864 18.522 31.9207 18.8176 31.3764C18.9576 31.1277 19.0821 30.7467 19.2066 30.5135L19.3544 31.0732C20.109 31.4853 19.6111 31.2287 20.0934 32.185C20.3502 32.6826 20.5369 32.9003 20.7936 33.4056C21.1592 34.1209 21.4004 35.4192 21.836 35.979L21.8516 35.4736C22.5518 36.7409 23.1352 37.2618 24.0065 38.1014L24.4733 38.6456C27.9274 42.2064 26.7216 43.0538 27.3439 44.2977C28.5498 43.8546 28.0674 41.9887 32.2917 42.7273C31.9416 41.0013 31.8016 38.4979 32.4395 36.9508C32.5329 38.5601 32.6262 39.9129 32.9063 41.4134C33.2797 43.4814 33.4042 43.8701 35.2557 44.391C34.61 42.976 34.5478 31.563 34.3766 30.9333C34.1277 29.977 34.3766 30.6301 33.9954 30.2336C33.8787 31.6874 34.081 32.7914 33.6765 33.0247C31.4515 34.3074 31.8172 35.6369 29.0554 36.5621L28.6276 35.7146C27.5462 35.7224 27.1183 35.5669 26.426 35.3181C27.6629 34.5873 29.0632 34.1209 29.8878 33.1957C27.484 32.8381 26.4649 31.8196 25.0412 30.4591C24.2088 29.6583 24.0921 30.1636 22.9252 29.9615L21.8127 30.0859C22.4506 28.2977 24.4733 28.08 26.5504 28.391C26.7371 22.91 23.8198 20.0334 25.3135 14.3347C25.8425 12.3055 26.8149 10.3075 27.9896 9.11798C29.001 8.09951 30.6191 6.38134 32.7351 5.97707C32.4551 5.69719 33.0152 5.65831 31.8949 5.70496C31.4126 5.72051 30.2846 6.39689 29.9267 6.34247L29.7634 6.04704C29.5378 5.52615 29.2966 5.06745 29.9267 4.18115C28.153 4.46104 29.2421 3.74578 27.0483 4.81089Z" fill="#EE988F"/>
<path fill-rule="evenodd" clip-rule="evenodd" d="M25.796 5.54184C25.8193 5.63514 24.7146 6.48256 24.3723 6.80131C20.7626 10.1366 18.032 18.1133 18.9811 22.9568C19.1211 23.1434 19.339 23.1745 19.479 23.3066C19.5101 22.4903 19.3001 22.4203 19.8446 22.156C20.5915 21.7984 19.9458 22.1249 20.2258 22.2726C21.2916 22.8402 20.9804 22.4592 21.9607 22.4903L23.1431 22.9024C21.315 18.0277 22.1629 14.4359 24.9324 10.3387L27.2118 7.29111C26.9707 6.84019 26.6206 7.39995 26.8618 5.94612C27.0951 4.56225 27.6086 5.85282 27.0485 4.81104C26.8618 4.93543 26.7217 5.0054 26.5739 5.08314C26.3794 5.18421 26.1616 5.29306 25.796 5.54184Z" fill="#D38C87"/>
<path fill-rule="evenodd" clip-rule="evenodd" d="M24.3723 6.80131C20.7626 10.1366 18.032 18.1133 18.9811 22.9568C19.1211 23.1434 19.339 23.1745 19.479 23.3066C19.5101 22.4903 19.3001 22.4203 19.8446 22.156C20.5915 21.7984 19.9458 22.1249 20.2258 22.2726C21.2916 22.8402 20.9804 22.4592 21.9607 22.4903L23.1431 22.9024C21.315 18.0277 22.1629 14.4359 24.9324 10.3387L27.2118 7.29111C26.9707 6.84019 26.6206 7.39995 26.8618 5.94612C27.0951 4.56225 27.6086 5.85282 27.0485 4.81104C25.8815 5.19199 25.267 5.96944 24.3723 6.80131Z" fill="#D38C87"/>
<path fill-rule="evenodd" clip-rule="evenodd" d="M6.29284 49.7322L7.51422 50.1443C7.91097 50.222 8.19881 50.2842 8.61113 50.2764C8.76672 43.7458 8.82118 39.2055 12.4386 33.5534C13.7067 31.5865 14.2746 32.2162 13.9168 30.2803L13.4422 28.9198C11.6529 30.086 9.10124 34.6185 8.05878 37.4951C6.70515 41.2191 6.16836 45.4251 6.29284 49.7322Z" fill="#FDA66B"/>
<path fill-rule="evenodd" clip-rule="evenodd" d="M6.29284 49.7322L7.51422 50.1443C7.91097 50.222 8.19881 50.2842 8.61113 50.2764C8.76672 43.7458 8.82118 39.2055 12.4386 33.5534C13.7067 31.5865 14.2746 32.2162 13.9168 30.2803L13.4422 28.9198C11.6529 30.086 9.10124 34.6185 8.05878 37.4951C6.70515 41.2191 6.16836 45.4251 6.29284 49.7322Z" fill="#FDA66B"/>
<path fill-rule="evenodd" clip-rule="evenodd" d="M61.6592 50.3153L63.8764 49.911C64.1954 46.0626 63.324 40.7526 62.1027 37.4485C61.1613 34.8829 58.2285 29.534 56.5248 28.8732C56.198 33.1725 55.8324 30.6224 57.7539 33.6623C58.7186 35.1783 59.4265 36.3834 60.0644 38.1715C61.6515 42.5952 61.457 45.534 61.6592 50.3153Z" fill="#FDA66B"/>
<path fill-rule="evenodd" clip-rule="evenodd" d="M61.6592 50.3153L63.8764 49.911C64.1954 46.0626 63.324 40.7526 62.1027 37.4485C61.1613 34.8829 58.2285 29.534 56.5248 28.8732C56.198 33.1725 55.8324 30.6224 57.7539 33.6623C58.7186 35.1783 59.4265 36.3834 60.0644 38.1715C61.6515 42.5952 61.457 45.534 61.6592 50.3153Z" fill="#FDA66B"/>
<path fill-rule="evenodd" clip-rule="evenodd" d="M35.4428 55.9595C35.3494 54.7312 35.1705 52.29 35.4661 51.1549C35.9329 49.359 36.9286 49.701 37.6132 48.8614C37.7144 48.4649 37.7766 48.908 37.5199 48.2006C33.3345 49.3901 35.2483 48.8147 32.3699 48.0995C31.9575 49.911 30.9229 50.634 31.3507 53.3706C31.6697 55.392 33.5134 55.804 35.4428 55.9595Z" fill="#D38C87"/>
<path fill-rule="evenodd" clip-rule="evenodd" d="M35.4428 55.9595C35.3494 54.7312 35.1705 52.29 35.4661 51.1549C35.9329 49.359 36.9286 49.701 37.6132 48.8614C37.7144 48.4649 37.7766 48.908 37.5199 48.2006C33.3345 49.3901 35.2483 48.8147 32.3699 48.0995C31.9575 49.911 30.9229 50.634 31.3507 53.3706C31.6697 55.392 33.5134 55.804 35.4428 55.9595Z" fill="#D38C87"/>
<path fill-rule="evenodd" clip-rule="evenodd" d="M47.7731 39.2599C47.9287 39.05 48.0765 38.8245 48.2321 38.5835L48.6289 38.0548C48.6444 37.9771 48.7144 37.9771 48.8234 37.9693L47.9676 40.5893C47.9676 40.6204 48.0065 40.6671 48.0143 40.6748C48.5978 41.6622 47.882 44.3133 47.1274 45.2463C46.6295 46.1248 46.2406 47.1588 45.6882 48.1773C45.0347 49.3745 44.5524 50.2686 44.2723 51.668L44.0156 52.1811C44.9569 52.1112 44.1245 52.2433 44.4902 51.8391C44.8714 51.3182 44.8403 51.497 45.3226 51.0383L47.5553 48.1306C50.2626 44.0334 48.52 40.5271 49.7336 36.1812C50.3793 33.8799 51.7485 33.5845 51.1961 31.361C50.0836 32.2706 49.5313 34.7584 49.2435 35.5048C49.0023 36.1345 49.0412 35.9713 48.7456 36.4844L48.1777 37.4095C48.0065 37.7283 47.6098 39.0422 47.7731 39.2599Z" fill="#FDFCEC"/>
<path fill-rule="evenodd" clip-rule="evenodd" d="M47.7731 39.2599C47.9287 39.05 48.0765 38.8245 48.2321 38.5835L48.6289 38.0548C48.6444 37.9771 48.7144 37.9771 48.8234 37.9693L47.9676 40.5893C47.9676 40.6204 48.0065 40.6671 48.0143 40.6748C48.5978 41.6622 47.882 44.3133 47.1274 45.2463C46.6295 46.1248 46.2406 47.1588 45.6882 48.1773C45.0347 49.3745 44.5524 50.2686 44.2723 51.668L44.0156 52.1811C44.9569 52.1112 44.1245 52.2433 44.4902 51.8391C44.8714 51.3182 44.8403 51.497 45.3226 51.0383L47.5553 48.1306C50.2626 44.0334 48.52 40.5271 49.7336 36.1812C50.3793 33.8799 51.7485 33.5845 51.1961 31.361C50.0836 32.2706 49.5313 34.7584 49.2435 35.5048C49.0023 36.1345 49.0412 35.9713 48.7456 36.4844L48.1777 37.4095C48.0065 37.7283 47.6098 39.0422 47.7731 39.2599Z" fill="#FDFCEC"/>
<path fill-rule="evenodd" clip-rule="evenodd" d="M15.4104 50.7972C15.7527 49.4911 14.9048 48.3016 15.8461 46.3502C16.3595 45.2773 17.3398 43.598 18.5145 43.6058C18.2966 44.3677 17.7676 45.5106 18.0944 46.2569C19.0979 44.3366 18.7478 42.7973 18.7867 40.4804C17.153 39.703 17.4175 39.2287 16.4373 38.3269C14.7959 40.5504 14.0335 47.3531 15.4104 50.7972Z" fill="#F3966E"/>
<path fill-rule="evenodd" clip-rule="evenodd" d="M15.4104 50.7972C15.7527 49.4911 14.9048 48.3016 15.8461 46.3502C16.3595 45.2773 17.3398 43.598 18.5145 43.6058C18.2966 44.3677 17.7676 45.5106 18.0944 46.2569C19.0979 44.3366 18.7478 42.7973 18.7867 40.4804C17.153 39.703 17.4175 39.2287 16.4373 38.3269C14.7959 40.5504 14.0335 47.3531 15.4104 50.7972Z" fill="#F3966E"/>
<path fill-rule="evenodd" clip-rule="evenodd" d="M51.725 40.4961C51.7094 41.5223 51.5461 42.5485 51.5772 43.5203C51.6083 44.3134 51.8339 45.5728 52.4329 46.1326L51.9039 43.5203C53.0475 43.7303 53.9499 45.2463 54.5256 46.5058C55.5058 48.636 54.9457 49.2191 54.8601 51.3104C55.0857 50.152 55.7159 49.6389 55.7159 47.3843C55.7081 43.6525 54.8835 41.5223 53.8877 38.3892C52.7441 39.1122 53.242 39.7031 51.725 40.4961Z" fill="#F3966E"/>
<path fill-rule="evenodd" clip-rule="evenodd" d="M51.725 40.4961C51.7094 41.5223 51.5461 42.5485 51.5772 43.5203C51.6083 44.3134 51.8339 45.5728 52.4329 46.1326L51.9039 43.5203C53.0475 43.7303 53.9499 45.2463 54.5256 46.5058C55.5058 48.636 54.9457 49.2191 54.8601 51.3104C55.0857 50.152 55.7159 49.6389 55.7159 47.3843C55.7081 43.6525 54.8835 41.5223 53.8877 38.3892C52.7441 39.1122 53.242 39.7031 51.725 40.4961Z" fill="#FDA66B"/>
<path fill-rule="evenodd" clip-rule="evenodd" d="M22.9259 29.9616C25.4154 27.9791 31.25 35.9557 33.4205 31.462C33.825 30.6379 33.9106 30.0238 33.4049 29.5728C33.0082 31.4232 31.6234 31.5087 30.0053 30.4047C28.9162 29.6661 28.0838 28.9897 26.5512 28.3911C24.4741 28.0801 22.4514 28.2978 21.8135 30.086L22.9259 29.9616Z" fill="#010C1C"/>
<path fill-rule="evenodd" clip-rule="evenodd" d="M22.9259 29.9616C25.4154 27.9791 31.25 35.9557 33.4205 31.462C33.825 30.6379 33.9106 30.0238 33.4049 29.5728C33.0082 31.4232 31.6234 31.5087 30.0053 30.4047C28.9162 29.6661 28.0838 28.9897 26.5512 28.3911C24.4741 28.0801 22.4514 28.2978 21.8135 30.086L22.9259 29.9616Z" fill="#010C1C"/>
<path fill-rule="evenodd" clip-rule="evenodd" d="M33.4048 29.5728C33.9104 30.0238 33.8249 30.638 33.4203 31.4621C31.2499 35.9557 25.4152 27.9791 22.9258 29.9616C24.0927 30.1637 24.2094 29.6584 25.0418 30.4591C26.4655 31.8197 27.4846 32.8382 29.8884 33.1958C29.0638 34.1209 27.6635 34.5874 26.4266 35.3182C27.1189 35.567 27.5468 35.7225 28.6282 35.7147L29.056 36.5622C31.8178 35.637 31.4521 34.3075 33.6771 33.0247C34.9062 32.2939 34.4939 31.9519 34.0894 29.4407C33.9416 28.6943 33.8871 28.912 33.6926 28.7177L33.4048 29.5728Z" fill="#B1716B"/>
<path fill-rule="evenodd" clip-rule="evenodd" d="M33.4048 29.5728C33.9104 30.0238 33.8249 30.638 33.4203 31.4621C31.2499 35.9557 25.4152 27.9791 22.9258 29.9616C24.0927 30.1637 24.2094 29.6584 25.0418 30.4591C26.4655 31.8197 27.4846 32.8382 29.8884 33.1958C29.0638 34.1209 27.6635 34.5874 26.4266 35.3182C27.1189 35.567 27.5468 35.7225 28.6282 35.7147L29.056 36.5622C31.8178 35.637 31.4521 34.3075 33.6771 33.0247C34.9062 32.2939 34.4939 31.9519 34.0894 29.4407C33.9416 28.6943 33.8871 28.912 33.6926 28.7177L33.4048 29.5728Z" fill="#B1716B"/>
<path fill-rule="evenodd" clip-rule="evenodd" d="M37.6128 32.2083C38.2741 32.2861 38.5619 32.9469 39.6433 32.7681C40.2345 32.667 41.417 32.0373 41.876 31.773C43.0974 31.0732 44.6066 29.7982 46.2403 29.6039L48.3019 29.8604C47.8273 28.7331 47.415 28.9663 46.567 28.3755C43.9998 28.0567 42.9651 28.632 41.3626 29.7594C40.219 30.5757 38.5697 32.1461 37.4961 30.2336C37.2472 29.4561 37.3639 29.6194 36.7104 29.0752C36.5859 30.4124 36.2125 30.9566 36.8193 32.2083L37.2861 32.5038C37.6362 32.7448 37.3795 32.5893 37.6128 32.7448V32.2083Z" fill="#010C1C"/>
<path fill-rule="evenodd" clip-rule="evenodd" d="M37.6128 32.2083C38.2741 32.2861 38.5619 32.9469 39.6433 32.7681C40.2345 32.667 41.417 32.0373 41.876 31.773C43.0974 31.0732 44.6066 29.7982 46.2403 29.6039L48.3019 29.8604C47.8273 28.7331 47.415 28.9663 46.567 28.3755C43.9998 28.0567 42.9651 28.632 41.3626 29.7594C40.219 30.5757 38.5697 32.1461 37.4961 30.2336C37.2472 29.4561 37.3639 29.6194 36.7104 29.0752C36.5859 30.4124 36.2125 30.9566 36.8193 32.2083L37.2861 32.5038C37.6362 32.7448 37.3795 32.5893 37.6128 32.7448V32.2083Z" fill="#010C1C"/>
<path fill-rule="evenodd" clip-rule="evenodd" d="M54.2151 25.1103L54.6975 25.7711C54.8453 26.1832 54.962 27.567 54.0907 28.3834C53.3438 29.0753 53.6395 29.0053 53.126 29.7517C52.8071 30.2104 52.4103 30.5136 52.1536 31.19L51.5546 30.8168C51.4845 31.4621 51.609 31.532 51.9202 32.1851C53.1182 31.3144 53.0482 29.845 54.1996 29.0908C54.1296 34.3542 51.6557 34.7351 51.0489 35.808C50.7299 36.3756 50.3798 37.3785 50.6599 38.1637C52.8615 38.4825 53.0404 36.0879 54.4174 32.776C55.4676 30.2415 55.4365 27.2638 55.5221 24.3717L54.2151 25.1103Z" fill="#F8F5E6"/>
<path fill-rule="evenodd" clip-rule="evenodd" d="M54.2151 25.1103L54.6975 25.7711C54.8453 26.1832 54.962 27.567 54.0907 28.3834C53.3438 29.0753 53.6395 29.0053 53.126 29.7517C52.8071 30.2104 52.4103 30.5136 52.1536 31.19L51.5546 30.8168C51.4845 31.4621 51.609 31.532 51.9202 32.1851C53.1182 31.3144 53.0482 29.845 54.1996 29.0908C54.1296 34.3542 51.6557 34.7351 51.0489 35.808C50.7299 36.3756 50.3798 37.3785 50.6599 38.1637C52.8615 38.4825 53.0404 36.0879 54.4174 32.776C55.4676 30.2415 55.4365 27.2638 55.5221 24.3717L54.2151 25.1103Z" fill="#F8F5E6"/>
<path fill-rule="evenodd" clip-rule="evenodd" d="M23.3457 47.5086L22.8167 44.2666L22.451 40.6048L21.7742 37.8682C22.1243 38.3347 22.5911 38.9177 22.9022 39.5086C23.5479 40.0606 22.9878 39.7496 23.7424 39.9518C23.5168 39.4464 23.5324 39.4775 23.369 39.0421C22.9956 38.1092 22.0621 37.1218 21.8364 35.979C21.4008 35.4192 21.1596 34.1209 20.794 33.4056C20.5373 32.9003 20.3506 32.6826 20.0938 32.185C19.6115 31.2287 20.1094 31.4853 19.3548 31.0732C19.0514 34.1364 19.4793 32.0684 20.4673 34.7972C20.9729 36.1811 21.0196 37.7205 21.1363 39.2598C21.4475 43.3026 21.5097 44.4066 22.9956 47.5941C23.2212 48.3094 23.7658 49.1179 24.3726 49.5688L23.3457 47.5086Z" fill="#F5F8F5"/>
<path fill-rule="evenodd" clip-rule="evenodd" d="M23.3457 47.5086L22.8167 44.2666L22.451 40.6048L21.7742 37.8682C22.1243 38.3347 22.5911 38.9177 22.9022 39.5086C23.5479 40.0606 22.9878 39.7496 23.7424 39.9518C23.5168 39.4464 23.5324 39.4775 23.369 39.0421C22.9956 38.1092 22.0621 37.1218 21.8364 35.979C21.4008 35.4192 21.1596 34.1209 20.794 33.4056C20.5373 32.9003 20.3506 32.6826 20.0938 32.185C19.6115 31.2287 20.1094 31.4853 19.3548 31.0732C19.0514 34.1364 19.4793 32.0684 20.4673 34.7972C20.9729 36.1811 21.0196 37.7205 21.1363 39.2598C21.4475 43.3026 21.5097 44.4066 22.9956 47.5941C23.2212 48.3094 23.7658 49.1179 24.3726 49.5688L23.3457 47.5086Z" fill="#F5F8F5"/>
<path fill-rule="evenodd" clip-rule="evenodd" d="M19.2695 27.0772L19.7285 28.2822C20.4597 27.6214 19.8607 28.5233 20.1096 27.6992C20.4053 26.7196 19.2928 25.1569 18.9816 22.9567C18.0325 18.1132 20.7631 10.1365 24.3728 6.80122C24.7151 6.48247 25.8198 5.63504 25.7965 5.54175C24.4973 6.08596 22.7702 7.94408 21.9301 9.05583C20.9343 10.3853 19.9074 12.1423 19.2461 14.0704C18.0092 17.7011 17.1223 23.8819 19.2695 27.0772Z" fill="#FCFCF4"/>
<path fill-rule="evenodd" clip-rule="evenodd" d="M19.2695 27.0772L19.7285 28.2822C20.4597 27.6214 19.8607 28.5233 20.1096 27.6992C20.4053 26.7196 19.2928 25.1569 18.9816 22.9567C18.0325 18.1132 20.7631 10.1365 24.3728 6.80122C24.7151 6.48247 25.8198 5.63504 25.7965 5.54175C24.4973 6.08596 22.7702 7.94408 21.9301 9.05583C20.9343 10.3853 19.9074 12.1423 19.2461 14.0704C18.0092 17.7011 17.1223 23.8819 19.2695 27.0772Z" fill="#FCFCF4"/>
<path fill-rule="evenodd" clip-rule="evenodd" d="M37.6128 32.2083V32.7448C37.3795 32.5893 37.6362 32.7448 37.2861 32.5038L36.8193 32.2083L37.3639 33.6466C37.3795 33.6155 37.4417 33.7399 37.4728 33.7866C38.2663 33.9809 39.2232 35.5125 40.1956 36.1267L40.4835 36.1656C39.9234 35.6758 39.8845 35.7147 39.62 34.8206C41.0825 34.7895 40.5224 34.9294 41.5726 35.3182C42.2028 35.5436 42.864 35.6214 43.5953 35.6291C43.1519 34.8672 43.8909 35.1082 43.1285 34.9294C41.9694 34.704 40.9969 34.3075 40.1723 33.7011L40.4757 33.5689C43.7431 32.4727 43.0352 32.7681 45.9914 29.8527C46.0303 29.8216 46.0847 29.7594 46.1158 29.7283C46.147 29.705 46.2014 29.6505 46.2403 29.6039C44.6066 29.7982 43.0974 31.0733 41.876 31.773C41.417 32.0373 40.2345 32.667 39.6433 32.7681C38.5619 32.9469 38.2741 32.2861 37.6128 32.2083Z" fill="#C47A83"/>
<path fill-rule="evenodd" clip-rule="evenodd" d="M37.6128 32.2083V32.7448C37.3795 32.5893 37.6362 32.7448 37.2861 32.5038L36.8193 32.2083L37.3639 33.6466C37.3795 33.6155 37.4417 33.7399 37.4728 33.7866C38.2663 33.9809 39.2232 35.5125 40.1956 36.1267L40.4835 36.1656C39.9234 35.6758 39.8845 35.7147 39.62 34.8206C41.0825 34.7895 40.5224 34.9294 41.5726 35.3182C42.2028 35.5436 42.864 35.6214 43.5953 35.6291C43.1519 34.8672 43.8909 35.1082 43.1285 34.9294C41.9694 34.704 40.9969 34.3075 40.1723 33.7011L40.4757 33.5689C43.7431 32.4727 43.0352 32.7681 45.9914 29.8527C46.0303 29.8216 46.0847 29.7594 46.1158 29.7283C46.147 29.705 46.2014 29.6505 46.2403 29.6039C44.6066 29.7982 43.0974 31.0733 41.876 31.773C41.417 32.0373 40.2345 32.667 39.6433 32.7681C38.5619 32.9469 38.2741 32.2861 37.6128 32.2083Z" fill="#C47A83"/>
<path fill-rule="evenodd" clip-rule="evenodd" d="M12.4233 47.5942C12.4233 48.1462 12.4156 48.7293 12.4622 49.2813L12.7267 50.4708C12.7345 50.5097 12.7656 50.5796 12.789 50.6263C12.8668 47.8741 13.5669 46.0782 13.9637 43.4348C14.5394 39.5476 15.1306 38.9256 15.5896 36.6399C15.5585 36.6788 15.504 36.6943 15.4885 36.7643L14.8894 37.705C13.2013 40.8304 12.4156 43.8935 12.4233 47.5942Z" fill="#F3966E"/>
<path fill-rule="evenodd" clip-rule="evenodd" d="M12.4233 47.5942C12.4233 48.1462 12.4156 48.7293 12.4622 49.2813L12.7267 50.4708C12.7345 50.5097 12.7656 50.5796 12.789 50.6263C12.8668 47.8741 13.5669 46.0782 13.9637 43.4348C14.5394 39.5476 15.1306 38.9256 15.5896 36.6399C15.5585 36.6788 15.504 36.6943 15.4885 36.7643L14.8894 37.705C13.2013 40.8304 12.4156 43.8935 12.4233 47.5942Z" fill="#F3966E"/>
<path fill-rule="evenodd" clip-rule="evenodd" d="M57.7312 49.6234C58.0501 44.0879 57.3811 42.3386 55.4907 38.0626C55.374 37.7983 55.2806 37.534 55.1562 37.3163C54.6738 36.4222 55.3351 37.5573 54.9928 37.0364C54.845 36.8109 54.7983 36.7721 54.6738 36.6399C54.7672 37.4718 55.8874 40.4805 56.3386 43.0072C56.5331 44.1034 56.7198 45.3085 56.9221 46.2959C57.0232 46.809 57.1244 47.3299 57.2177 47.8896L57.4589 49.1258C57.5989 49.4756 57.6067 49.4368 57.7312 49.6234Z" fill="#FDA66B"/>
<path fill-rule="evenodd" clip-rule="evenodd" d="M57.7312 49.6234C58.0501 44.0879 57.3811 42.3386 55.4907 38.0626C55.374 37.7983 55.2806 37.534 55.1562 37.3163C54.6738 36.4222 55.3351 37.5573 54.9928 37.0364C54.845 36.8109 54.7983 36.7721 54.6738 36.6399C54.7672 37.4718 55.8874 40.4805 56.3386 43.0072C56.5331 44.1034 56.7198 45.3085 56.9221 46.2959C57.0232 46.809 57.1244 47.3299 57.2177 47.8896L57.4589 49.1258C57.5989 49.4756 57.6067 49.4368 57.7312 49.6234Z" fill="#FDA66B"/>
<path fill-rule="evenodd" clip-rule="evenodd" d="M23.3692 39.0422C23.5325 39.4776 23.517 39.4465 23.7426 39.9518C22.988 39.7497 23.5481 40.0607 22.9024 39.5087L22.9724 41.1413C22.1556 40.0296 22.988 42.1831 22.5912 40.7837C22.5601 40.6826 22.4823 40.6749 22.4512 40.6049L22.8168 44.2667L22.8246 43.1938C23.1358 43.4659 22.9335 43.2094 23.1902 43.5981C23.2914 43.7458 23.4158 44.0412 23.4936 44.1967L24.1393 45.1141C24.5127 44.5466 24.7072 43.6136 24.8006 42.875C24.9873 41.3746 24.5205 41.7322 23.8437 40.7604L24.7072 40.3328L24.4038 39.0033C23.8982 38.6068 24.1782 39.4543 23.8982 38.4358C23.8826 38.4824 23.8593 38.5369 23.8437 38.5602L23.5247 38.9256C23.5014 38.8789 23.4158 39.0033 23.3692 39.0422Z" fill="#E69588"/>
<path fill-rule="evenodd" clip-rule="evenodd" d="M23.3692 39.0422C23.5325 39.4776 23.517 39.4465 23.7426 39.9518C22.988 39.7497 23.5481 40.0607 22.9024 39.5087L22.9724 41.1413C22.1556 40.0296 22.988 42.1831 22.5912 40.7837C22.5601 40.6826 22.4823 40.6749 22.4512 40.6049L22.8168 44.2667L22.8246 43.1938C23.1358 43.4659 22.9335 43.2094 23.1902 43.5981C23.2914 43.7458 23.4158 44.0412 23.4936 44.1967L24.1393 45.1141C24.5127 44.5466 24.7072 43.6136 24.8006 42.875C24.9873 41.3746 24.5205 41.7322 23.8437 40.7604L24.7072 40.3328L24.4038 39.0033C23.8982 38.6068 24.1782 39.4543 23.8982 38.4358C23.8826 38.4824 23.8593 38.5369 23.8437 38.5602L23.5247 38.9256C23.5014 38.8789 23.4158 39.0033 23.3692 39.0422Z" fill="#E69588"/>
<path fill-rule="evenodd" clip-rule="evenodd" d="M28.8457 3.94013C29.2269 4.3755 28.1689 4.46102 29.9271 4.18114C29.2969 5.06743 29.5381 5.52613 29.7637 6.04702L29.9271 6.34246C30.2849 6.39688 31.4129 5.72049 31.8953 5.70494C33.0155 5.6583 32.4554 5.69717 32.7355 5.97705C33 5.89153 32.9299 5.97705 33.2256 5.79824C33.5212 5.61942 33.4512 5.63497 33.6223 5.47171L31.553 5.33954C31.1796 4.73313 31.1484 4.26666 31.3507 3.66802C30.4872 3.73021 30.6661 3.8857 30.246 3.52808L28.8457 3.94013Z" fill="#F5B79A"/>
<path fill-rule="evenodd" clip-rule="evenodd" d="M28.8457 3.94013C29.2269 4.3755 28.1689 4.46102 29.9271 4.18114C29.2969 5.06743 29.5381 5.52613 29.7637 6.04702L29.9271 6.34246C30.2849 6.39688 31.4129 5.72049 31.8953 5.70494C33.0155 5.6583 32.4554 5.69717 32.7355 5.97705C33 5.89153 32.9299 5.97705 33.2256 5.79824C33.5212 5.61942 33.4512 5.63497 33.6223 5.47171L31.553 5.33954C31.1796 4.73313 31.1484 4.26666 31.3507 3.66802C30.4872 3.73021 30.6661 3.8857 30.246 3.52808L28.8457 3.94013Z" fill="#F5B79A"/>
<path fill-rule="evenodd" clip-rule="evenodd" d="M37.5195 48.2005C37.7763 48.908 37.714 48.4649 37.6129 48.8614C38.5309 48.5659 39.161 48.0761 39.8689 47.5008C40.2346 47.2132 40.4291 47.0421 40.7558 46.6845C41.207 46.2103 40.9659 46.2336 41.7438 46.0625C40.7325 45.565 39.6822 45.7827 39.0754 46.4979C38.6787 46.9644 38.6476 47.151 38.3364 47.4775C38.0019 47.8351 37.784 47.8662 37.5195 48.2005Z" fill="#E69588"/>
<path fill-rule="evenodd" clip-rule="evenodd" d="M37.5195 48.2005C37.7763 48.908 37.714 48.4649 37.6129 48.8614C38.5309 48.5659 39.161 48.0761 39.8689 47.5008C40.2346 47.2132 40.4291 47.0421 40.7558 46.6845C41.207 46.2103 40.9659 46.2336 41.7438 46.0625C40.7325 45.565 39.6822 45.7827 39.0754 46.4979C38.6787 46.9644 38.6476 47.151 38.3364 47.4775C38.0019 47.8351 37.784 47.8662 37.5195 48.2005Z" fill="#E69588"/>
<path fill-rule="evenodd" clip-rule="evenodd" d="M16.3598 25.3279L15.3484 24.5116C14.9206 24.7448 15.1073 24.1073 15.0528 25.3512C15.0373 25.6311 15.1151 26.3386 15.1462 26.6496C15.2162 27.4581 15.3095 28.2667 15.3718 29.0675C15.7841 29.0286 16.4842 29.394 16.1808 27.3726C16.0564 26.5563 16.0719 25.9888 16.3598 25.3279Z" fill="#FCFCF4"/>
<path fill-rule="evenodd" clip-rule="evenodd" d="M16.3598 25.3279L15.3484 24.5116C14.9206 24.7448 15.1073 24.1073 15.0528 25.3512C15.0373 25.6311 15.1151 26.3386 15.1462 26.6496C15.2162 27.4581 15.3095 28.2667 15.3718 29.0675C15.7841 29.0286 16.4842 29.394 16.1808 27.3726C16.0564 26.5563 16.0719 25.9888 16.3598 25.3279Z" fill="#FCFCF4"/>
<path fill-rule="evenodd" clip-rule="evenodd" d="M44.879 44.5854C45.1668 43.8857 44.949 42.9606 45.3925 42.1131C45.8048 41.3201 46.1704 41.4523 46.6294 40.5349C45.657 40.7293 45.2758 40.9392 44.6845 41.3746C44.5134 42.3697 44.4434 43.8158 44.879 44.5854Z" fill="#020A0D"/>
<path fill-rule="evenodd" clip-rule="evenodd" d="M44.879 44.5854C45.1668 43.8857 44.949 42.9606 45.3925 42.1131C45.8048 41.3201 46.1704 41.4523 46.6294 40.5349C45.657 40.7293 45.2758 40.9392 44.6845 41.3746C44.5134 42.3697 44.4434 43.8158 44.879 44.5854Z" fill="#020A0D"/>
<path fill-rule="evenodd" clip-rule="evenodd" d="M21.8369 35.979C22.0625 37.1218 22.9961 38.1092 23.3695 39.0421C23.4162 39.0033 23.5017 38.8789 23.5251 38.9255L23.844 38.5601C23.8596 38.5368 23.8829 38.4824 23.8985 38.4357C24.1785 39.4542 23.8985 38.6068 24.4042 39.0033L24.4742 38.6456L24.0074 38.1014C23.1361 37.2618 22.5526 36.7409 21.8525 35.4736L21.8369 35.979Z" fill="#8F554D"/>
<path fill-rule="evenodd" clip-rule="evenodd" d="M21.8369 35.979C22.0625 37.1218 22.9961 38.1092 23.3695 39.0421C23.4162 39.0033 23.5017 38.8789 23.5251 38.9255L23.844 38.5601C23.8596 38.5368 23.8829 38.4824 23.8985 38.4357C24.1785 39.4542 23.8985 38.6068 24.4042 39.0033L24.4742 38.6456L24.0074 38.1014C23.1361 37.2618 22.5526 36.7409 21.8525 35.4736L21.8369 35.979Z" fill="#8F554D"/>
<path fill-rule="evenodd" clip-rule="evenodd" d="M19.1219 35.8857C19.4564 36.7176 19.3242 36.119 18.9041 36.3444C19.1919 37.1919 19.1997 37.1219 19.0052 37.8294C17.1381 37.4095 18.095 35.6681 17.0059 35.6603C17.4026 37.1219 17.9005 38.3969 19.6042 38.1481C19.6509 37.705 19.682 37.4095 19.6431 36.9509C19.5653 36.1423 19.5731 36.2123 19.1219 35.8857Z" fill="#F5B79A"/>
<path fill-rule="evenodd" clip-rule="evenodd" d="M19.1219 35.8857C19.4564 36.7176 19.3242 36.119 18.9041 36.3444C19.1919 37.1919 19.1997 37.1219 19.0052 37.8294C17.1381 37.4095 18.095 35.6681 17.0059 35.6603C17.4026 37.1219 17.9005 38.3969 19.6042 38.1481C19.6509 37.705 19.682 37.4095 19.6431 36.9509C19.5653 36.1423 19.5731 36.2123 19.1219 35.8857Z" fill="#F5B79A"/>
<path fill-rule="evenodd" clip-rule="evenodd" d="M18.9041 36.3444C19.3242 36.1189 19.4564 36.7176 19.1219 35.8857C18.8885 35.1549 18.3517 34.8906 17.8149 34.2531C17.2237 33.5534 17.0603 33.0869 16.6869 32.255C16.578 32.4727 16.5235 32.2939 16.578 32.7603C16.7492 34.152 18.2895 35.4037 18.6318 35.7924C19.0908 36.3055 18.764 35.8624 18.9041 36.3444Z" fill="#F7E7CA"/>
<path fill-rule="evenodd" clip-rule="evenodd" d="M18.9041 36.3444C19.3242 36.1189 19.4564 36.7176 19.1219 35.8857C18.8885 35.1549 18.3517 34.8906 17.8149 34.2531C17.2237 33.5534 17.0603 33.0869 16.6869 32.255C16.578 32.4727 16.5235 32.2939 16.578 32.7603C16.7492 34.152 18.2895 35.4037 18.6318 35.7924C19.0908 36.3055 18.764 35.8624 18.9041 36.3444Z" fill="#F7E7CA"/>
<path fill-rule="evenodd" clip-rule="evenodd" d="M47.7731 39.2599L47.2285 41.328L47.9676 40.5894L48.8233 37.9694C48.7144 37.9771 48.6444 37.9771 48.6288 38.0549L48.2321 38.5835C48.0765 38.8246 47.9287 39.05 47.7731 39.2599Z" fill="#4F514F"/>
<path fill-rule="evenodd" clip-rule="evenodd" d="M47.7731 39.2599L47.2285 41.328L47.9676 40.5894L48.8233 37.9694C48.7144 37.9771 48.6444 37.9771 48.6288 38.0549L48.2321 38.5835C48.0765 38.8246 47.9287 39.05 47.7731 39.2599Z" fill="#4F514F"/>
<path fill-rule="evenodd" clip-rule="evenodd" d="M22.4512 40.6049C22.4823 40.6749 22.5601 40.6827 22.5913 40.7837C22.988 42.1831 22.1556 40.0296 22.9725 41.1414L22.9024 39.5087C22.5913 38.9178 22.1245 38.3348 21.7744 37.8683L22.4512 40.6049Z" fill="#AD564D"/>
<path fill-rule="evenodd" clip-rule="evenodd" d="M22.4512 40.6049C22.4823 40.6749 22.5601 40.6827 22.5913 40.7837C22.988 42.1831 22.1556 40.0296 22.9725 41.1414L22.9024 39.5087C22.5913 38.9178 22.1245 38.3348 21.7744 37.8683L22.4512 40.6049Z" fill="#AD564D"/>
<path fill-rule="evenodd" clip-rule="evenodd" d="M17.3867 49.8332C17.9235 49.4367 17.4412 50.1831 17.9702 49.3201C18.2191 48.9236 18.0635 49.2424 18.118 48.7059C17.4334 49.0325 17.5345 49.0869 17.3867 49.8332Z" fill="#908A75"/>
<path fill-rule="evenodd" clip-rule="evenodd" d="M17.3867 49.8332C17.9235 49.4367 17.4412 50.1831 17.9702 49.3201C18.2191 48.9236 18.0635 49.2424 18.118 48.7059C17.4334 49.0325 17.5345 49.0869 17.3867 49.8332Z" fill="#FDA66B"/>
<path fill-rule="evenodd" clip-rule="evenodd" d="M52.9309 50.0431C52.9698 48.9391 53.0165 48.9858 52.293 48.6515L52.9309 50.0431Z" fill="#B28A73"/>
<path fill-rule="evenodd" clip-rule="evenodd" d="M52.9309 50.0431C52.9698 48.9391 53.0165 48.9858 52.293 48.6515L52.9309 50.0431Z" fill="#FDA66B"/>
<path d="M12.3997 56.3794L11.9796 57.3201L14.2046 58.1986L13.9479 58.7662C13.7845 59.1471 13.52 59.2404 12.8432 58.9683L10.6338 58.0898C9.73914 57.7399 9.62245 57.5067 9.94141 56.7914L10.5482 55.4465C10.9061 54.6535 11.295 54.5291 12.1041 54.8478L14.0879 55.6408C14.9047 55.9596 15.0837 56.2317 14.9047 56.636L16.2506 57.1646C16.8418 55.8507 16.2739 55.2599 14.9125 54.7234L12.213 53.6505C10.7427 53.0674 9.91029 53.3318 9.27237 54.7467L8.5411 56.3794C7.96542 57.6622 8.43219 58.463 9.80916 59.0072L12.5398 60.0878C13.9868 60.6632 14.7647 60.4766 15.3404 59.2093L15.9705 57.7944L12.3997 56.3794ZM16.1028 61.3784L22.1163 62.9489L22.4275 61.9071L17.8221 60.702L18.1955 59.427L22.6531 60.601L22.941 59.6291L18.4833 58.463L18.8412 57.2501L23.4466 58.4552L23.75 57.4134L17.7365 55.8352L16.1028 61.3784ZM24.6291 57.6622L23.7656 63.3531L25.2126 63.5475L25.905 58.9916L26.1072 59.015L29.0479 64.0606L31.5295 64.3949L32.3931 58.704L30.9461 58.5096L30.2537 63.0733L30.0514 63.0422L27.0641 57.9887L24.6291 57.6622ZM33.311 64.4183L39.5502 64.2161L39.5035 63.1355L34.7269 63.291L34.6802 61.9771L39.309 61.8216L39.2702 60.8187L34.6413 60.9741L34.5947 59.7147L39.3713 59.5592L39.3324 58.4707L33.0932 58.6807L33.311 64.4183ZM41.6429 59.1938L44.638 58.634C45.2759 58.5096 45.5171 58.7429 45.6416 59.3415C45.7738 59.9479 45.6182 60.2356 45.0037 60.3522L42.0085 60.9197L41.6429 59.1938ZM47.9599 62.7001L47.7109 61.5339C47.5787 60.9275 47.1508 60.7798 46.5129 60.702C46.9018 60.3755 47.2597 59.9324 47.073 59.0694C46.7307 57.4678 45.766 57.2501 44.5213 57.4912L39.9703 58.3464L41.1684 63.9829L42.6076 63.7108L42.2497 62.0393L45.027 61.5184C45.8594 61.3551 46.2173 61.5417 46.3339 62.0937L46.5207 62.9722L47.9599 62.7001ZM50.6282 61.9615L50.885 60.3522L54.3235 59.2715L55.5527 60.4144L57.1786 59.9013L52.1919 55.4076L50.1381 56.0529L49.0023 62.4669L50.6282 61.9615ZM51.0794 59.1471L51.5073 56.7603L51.5696 56.737L53.3977 58.4163L51.0794 59.1471ZM58.1977 59.4737L62.951 57.4056L62.4375 56.3716L59.0145 57.8643L56.9608 53.6816L55.6305 54.257L58.1977 59.4737Z" fill="white"/>
<path fill-rule="evenodd" clip-rule="evenodd" d="M31.9185 24.807C31.0628 23.9829 30.3315 23.3066 29.4213 22.7546C28.6278 22.2725 27.7954 21.7827 26.7529 21.3396C27.6709 21.3396 28.69 21.8838 29.6002 22.498C30.8916 23.3688 31.0706 23.5553 31.9185 24.807Z" fill="#F0A996"/>
<path fill-rule="evenodd" clip-rule="evenodd" d="M37.5898 24.807C38.4456 23.9829 39.1769 23.3066 40.0871 22.7546C40.8806 22.2725 41.7052 21.7827 42.7554 21.3396C41.8297 21.3396 40.8183 21.8838 39.9004 22.498C38.6167 23.3688 38.4378 23.5553 37.5898 24.807Z" fill="#F0A996"/>
<path d="M19.4554 64.4493L19.1831 65.4133L17.7206 65.0013L17.9851 64.045L17.4327 63.8895L16.7637 66.2919L17.316 66.4473L17.5961 65.4289L19.0664 65.8332L18.7863 66.8594L19.3387 67.0071L20.0077 64.6048L19.4554 64.4493ZM21.8748 65.0479L21.3302 67.4891L21.8904 67.6135L22.4349 65.1801L21.8748 65.0479ZM26.8381 67.0926L25.4456 66.8672L25.3756 67.3025L26.1847 67.4347C26.1146 67.6835 25.8813 67.9867 25.3056 67.8934C24.7065 67.7923 24.4498 67.357 24.5276 66.8827C24.6054 66.4162 24.9399 66.0819 25.5234 66.1752C25.9513 66.2452 26.1458 66.4551 26.2236 66.7117L26.8148 66.805C26.7448 66.1986 26.2236 65.8487 25.5934 65.7476C24.8855 65.631 24.0997 65.8954 23.9519 66.7894C23.8041 67.6913 24.4498 68.1888 25.2356 68.321C26.0913 68.4609 26.7448 68.0955 26.8381 67.0926ZM30.8368 66.4629L30.7357 67.4503L29.2187 67.3025L29.3198 66.3152L28.7441 66.253L28.5029 68.7408L29.0786 68.7953L29.1798 67.7457L30.6968 67.8934L30.5879 68.943L31.1635 69.0052L31.4047 66.5173L30.8368 66.4629ZM37.0137 67.5669C36.5703 67.5202 36.158 67.5202 36.1502 67.287C36.1424 67.116 36.2591 66.976 36.7726 66.9527C37.2316 66.9371 37.4416 67.0926 37.4727 67.2714L38.0251 67.2481C38.0017 66.8127 37.6439 66.4862 36.7648 66.5173C35.8468 66.5484 35.5823 66.9371 35.5979 67.3492C35.6134 67.7379 35.8312 67.9401 36.5158 68.0256C37.2004 68.1189 37.5894 68.08 37.5972 68.3366C37.605 68.5231 37.4027 68.6553 36.9282 68.6709C36.4769 68.6864 36.1735 68.5698 36.1502 68.3055L35.5512 68.3288C35.5667 68.8341 36.0335 69.1451 36.897 69.114C37.7839 69.0829 38.2196 68.7797 38.204 68.2355C38.1807 67.6835 37.7061 67.6368 37.0137 67.5669ZM42.0626 68.5465L42.7394 68.4609L41.4247 67.1004L42.3505 65.9886L41.6114 66.0897L40.5145 67.4347L40.3589 66.2608L39.791 66.3385L40.1255 68.8186L40.6934 68.7408L40.6079 68.08L41.0746 67.5202L42.0626 68.5465ZM44.0542 65.6932L44.5443 68.1422L45.1122 68.0333L44.6221 65.5844L44.0542 65.6932ZM49.1498 66.6806L47.5783 67.0538L47.096 65.0557L46.5358 65.1879L47.1115 67.6135L49.2509 67.1082L49.1498 66.6806ZM53.1095 65.561L51.5536 66.012L50.9857 64.0372L50.4334 64.2005L51.1258 66.5951L53.234 65.9886L53.1095 65.561Z" fill="white"/>
</g>
<defs>
<clipPath id="clip0_1_350">
<rect width="70" height="73" fill="white"/>
</clipPath>
</defs>
</svg>
