<svg width="46" height="48" viewBox="0 0 46 48" fill="none" xmlns="http://www.w3.org/2000/svg">
<g clip-path="url(#clip0_1_2308)">
<path fill-rule="evenodd" clip-rule="evenodd" d="M45.9998 34.1319C45.9998 36.0592 45.8311 38.196 45.4937 41.2836L45.4477 41.6875L45.1103 41.8971C43.7248 42.7712 39.1596 44.9183 33.6333 46.411C30.1569 47.3465 26.2818 48.0315 22.5346 47.9957C18.5624 47.9497 14.7077 47.2494 11.349 46.3241C6.03223 44.8518 1.91176 42.8019 0.505891 41.8971L0.122473 41.6517V41.1967C0.127585 39.5865 0.0917991 38.0631 0.0560134 36.6266C-0.128028 28.6519 -0.255834 23.0849 6.09358 15.3197C6.34408 15.0079 6.66615 14.6756 6.99333 14.3587C7.43299 13.9395 7.87775 13.5561 8.21516 13.28C8.80818 12.7893 9.25295 12.4877 9.76417 12.1451C9.91754 12.0378 10.0811 11.9304 10.2345 11.8231C10.6793 8.35203 12.0698 5.38195 14.2987 3.28091C16.4919 1.21054 19.4877 -0.00100655 23.1685 0.00410547C26.8135 0.00921749 29.886 1.26677 32.1405 3.38315C34.3796 5.49441 35.7957 8.44405 36.1331 11.8538L37.9991 13.3056L38.0298 13.3414C39.9418 15.2481 41.6084 17.5997 42.9018 20.2017C44.1696 22.7424 45.0745 25.5233 45.5039 28.3554C45.8311 30.5126 45.9998 32.1894 45.9998 34.1319Z" fill="#FDA66B"/>
<path fill-rule="evenodd" clip-rule="evenodd" d="M16.9518 3.64397C17.1051 3.4855 16.9006 3.59285 17.2994 3.3577C17.555 3.19922 17.4425 3.27079 17.7748 3.16344L18.9558 2.59089L19.876 2.31996L21.6243 1.94678C23.2654 1.42024 26.6343 2.20749 28.0402 2.81582C31.8131 4.44144 33.7608 7.77959 34.3385 11.6954C35.0849 16.7512 33.7762 16.9914 33.4643 18.1825C33.8119 17.9014 34.0676 17.6049 34.4612 17.2879C34.9111 16.9301 35.2025 16.8228 35.6268 16.5109L36.4857 16.0253C36.4294 17.9269 36.4499 19.8848 35.7597 21.5514C34.8548 23.7291 34.7373 25.3036 33.2905 25.094C33.1065 24.5777 33.3365 23.9182 33.5461 23.5451C33.9449 22.8396 35.5706 22.5891 35.6166 19.1283C34.86 19.6241 34.906 20.5903 34.1187 21.1629C33.9142 20.7334 33.8324 20.6874 33.8784 20.2631C33.6023 20.1047 33.6893 20.4063 33.6177 20.0996L33.6432 20.621C34.0062 22.083 33.1065 22.2773 32.6821 23.7904C31.8846 26.648 33.0298 28.9536 31.2507 31.6476L29.7835 33.5595C29.4665 33.8611 29.487 33.7435 29.2365 34.086C28.9962 34.3519 29.5432 34.265 28.9246 34.311L29.0933 33.9736C29.2774 33.0534 29.5943 32.4655 30.0238 31.6783C30.3867 31.0086 30.6424 30.3287 30.9695 29.751C31.0002 29.3574 31.0309 29.5823 30.3305 30.5843C28.4492 33.2783 26.573 36.821 23.2909 36.7954C22.0231 36.6932 20.8115 36.4222 20.6019 35.0931C20.3207 33.2937 21.0007 32.8183 21.2716 31.6272C23.1631 32.0975 21.9055 32.4757 24.6559 31.6936C24.8297 31.4738 24.9729 31.4533 25.1927 31.2182C25.3972 31.0035 25.4176 30.8808 25.6784 30.5741C26.0771 30.1038 26.7673 29.9606 27.4319 30.2878C28.1322 30.4616 27.8511 30.6814 28.5105 30.7325C28.9144 29.6386 27.8153 28.4935 27.2632 28.1817C25.8164 27.3637 25.1365 28.2225 24.1856 28.4321L24.0373 28.6162C24.0169 28.6417 23.9862 28.6775 23.9658 28.7031L23.659 28.9945C23.4443 29.1478 23.4494 29.1632 23.1682 29.1887C21.9515 28.8462 21.8697 28.5906 21.6243 27.2308C21.4403 26.2442 21.379 25.3547 21.3176 24.2965C20.8984 25.3138 20.9904 26.9599 21.2205 28.0947C18.4445 27.6091 18.7615 28.836 17.9691 29.1274C17.5601 28.3095 18.3525 27.7522 16.0827 25.4109L16.0367 25.6461L16.236 26.5202L15.6686 26.8014C16.1133 27.4404 16.4201 27.2053 16.2974 28.1919C16.236 28.6775 16.1082 29.291 15.8628 29.6641L15.4385 29.0609C15.3874 28.9587 15.3056 28.7644 15.2392 28.6673C15.0704 28.4117 15.2034 28.5804 14.9989 28.4015L14.9938 29.1069L15.3414 31.2386L16.0162 32.5933C15.6175 32.2968 15.2596 31.7652 15.1113 31.2949C14.1349 29.1989 14.094 28.473 13.8895 25.8148C13.8128 24.8026 13.7822 23.7904 13.4499 22.8805C12.8006 21.0862 12.5194 22.446 12.7188 20.4318L12.6217 20.0638C12.5399 20.2171 12.4581 20.4676 12.3661 20.6312C12.1718 20.989 12.3916 20.7692 12.0338 21.0299L10.7506 18.8471C10.5768 19.8286 10.7813 20.3245 10.9653 21.2089C11.2107 21.7558 11.3181 22.0626 11.7066 22.5226C12.0593 22.9418 12.4121 23.1156 12.5654 23.5962C12.862 23.8109 12.8568 23.7649 12.908 24.2965C12.9335 24.5981 12.9131 24.7924 12.8824 25.0838C11.7628 25.2474 11.4356 24.409 11.1749 23.4479C10.0451 21.628 9.73326 18.6375 9.83039 16.1173C10.0502 15.9639 9.8764 15.9537 10.086 16.1173L10.7506 16.6541C11.2209 16.8636 11.4663 17.017 11.8344 17.334C12.0287 17.5026 12.1565 17.6867 12.2638 17.7838C12.7648 18.2183 12.4428 18.2388 12.6626 17.8043C11.2516 15.7032 11.8344 11.6392 12.6472 9.25185C13.0818 7.98407 13.7566 6.82876 14.411 5.9546C14.9631 5.22358 16.098 4.00181 16.9518 3.64397Z" fill="#00111A"/>
<path fill-rule="evenodd" clip-rule="evenodd" d="M16.9518 3.64397C17.1051 3.4855 16.9006 3.59285 17.2994 3.3577C17.555 3.19922 17.4425 3.27079 17.7748 3.16344L18.9558 2.59089L19.876 2.31996L21.6243 1.94678C23.2654 1.42024 26.6343 2.20749 28.0402 2.81582C31.8131 4.44144 33.7608 7.77959 34.3385 11.6954C35.0849 16.7512 33.7762 16.9914 33.4643 18.1825C33.8119 17.9014 34.0676 17.6049 34.4612 17.2879C34.9111 16.9301 35.2025 16.8228 35.6268 16.5109L36.4857 16.0253C36.4294 17.9269 36.4499 19.8848 35.7597 21.5514C34.8548 23.7291 34.7373 25.3036 33.2905 25.094C33.1065 24.5777 33.3365 23.9182 33.5461 23.5451C33.9449 22.8396 35.5706 22.5891 35.6166 19.1283C34.86 19.6241 34.906 20.5903 34.1187 21.1629C33.9142 20.7334 33.8324 20.6874 33.8784 20.2631C33.6023 20.1047 33.6893 20.4063 33.6177 20.0996L33.6432 20.621C34.0062 22.083 33.1065 22.2773 32.6821 23.7904C31.8846 26.648 33.0298 28.9536 31.2507 31.6476L29.7835 33.5595C29.4665 33.8611 29.487 33.7435 29.2365 34.086C28.9962 34.3519 29.5432 34.265 28.9246 34.311L29.0933 33.9736C29.2774 33.0534 29.5943 32.4655 30.0238 31.6783C30.3867 31.0086 30.6424 30.3287 30.9695 29.751C31.0002 29.3574 31.0309 29.5823 30.3305 30.5843C28.4492 33.2783 26.573 36.821 23.2909 36.7954C22.0231 36.6932 20.8115 36.4222 20.6019 35.0931C20.3207 33.2937 21.0007 32.8183 21.2716 31.6272C23.1631 32.0975 21.9055 32.4757 24.6559 31.6936C24.8297 31.4738 24.9729 31.4533 25.1927 31.2182C25.3972 31.0035 25.4176 30.8808 25.6784 30.5741C26.0771 30.1038 26.7673 29.9606 27.4319 30.2878C28.1322 30.4616 27.8511 30.6814 28.5105 30.7325C28.9144 29.6386 27.8153 28.4935 27.2632 28.1817C25.8164 27.3637 25.1365 28.2225 24.1856 28.4321L24.0373 28.6162C24.0169 28.6417 23.9862 28.6775 23.9658 28.7031L23.659 28.9945C23.4443 29.1478 23.4494 29.1632 23.1682 29.1887C21.9515 28.8462 21.8697 28.5906 21.6243 27.2308C21.4403 26.2442 21.379 25.3547 21.3176 24.2965C20.8984 25.3138 20.9904 26.9599 21.2205 28.0947C18.4445 27.6091 18.7615 28.836 17.9691 29.1274C17.5601 28.3095 18.3525 27.7522 16.0827 25.4109L16.0367 25.6461L16.236 26.5202L15.6686 26.8014C16.1133 27.4404 16.4201 27.2053 16.2974 28.1919C16.236 28.6775 16.1082 29.291 15.8628 29.6641L15.4385 29.0609C15.3874 28.9587 15.3056 28.7644 15.2392 28.6673C15.0704 28.4117 15.2034 28.5804 14.9989 28.4015L14.9938 29.1069L15.3414 31.2386L16.0162 32.5933C15.6175 32.2968 15.2596 31.7652 15.1113 31.2949C14.1349 29.1989 14.094 28.473 13.8895 25.8148C13.8128 24.8026 13.7822 23.7904 13.4499 22.8805C12.8006 21.0862 12.5194 22.446 12.7188 20.4318L12.6217 20.0638C12.5399 20.2171 12.4581 20.4676 12.3661 20.6312C12.1718 20.989 12.3916 20.7692 12.0338 21.0299L10.7506 18.8471C10.5768 19.8286 10.7813 20.3245 10.9653 21.2089C11.2107 21.7558 11.3181 22.0626 11.7066 22.5226C12.0593 22.9418 12.4121 23.1156 12.5654 23.5962C12.862 23.8109 12.8568 23.7649 12.908 24.2965C12.9335 24.5981 12.9131 24.7924 12.8824 25.0838C11.7628 25.2474 11.4356 24.409 11.1749 23.4479C10.0451 21.628 9.73326 18.6375 9.83039 16.1173C10.0502 15.9639 9.8764 15.9537 10.086 16.1173L10.7506 16.6541C11.2209 16.8636 11.4663 17.017 11.8344 17.334C12.0287 17.5026 12.1565 17.6867 12.2638 17.7838C12.7648 18.2183 12.4428 18.2388 12.6626 17.8043C11.2516 15.7032 11.8344 11.6392 12.6472 9.25185C13.0818 7.98407 13.7566 6.82876 14.411 5.9546C14.9631 5.22358 16.098 4.00181 16.9518 3.64397Z" fill="#00111A"/>
<path fill-rule="evenodd" clip-rule="evenodd" d="M4.13475 32.7007C4.05296 29.8686 4.4057 27.103 5.29523 24.6544C5.98028 22.7629 7.65709 19.7826 8.83291 19.0158L9.14476 19.9104C9.37992 21.1833 9.00673 20.7692 8.17343 22.0626C5.79624 25.779 5.76045 28.7644 5.6582 33.0585C5.38726 33.0636 5.1981 33.0227 4.93738 32.9716L4.13475 32.7007Z" fill="#00111A"/>
<path fill-rule="evenodd" clip-rule="evenodd" d="M4.13475 32.7007C4.05296 29.8686 4.4057 27.103 5.29523 24.6544C5.98028 22.7629 7.65709 19.7826 8.83291 19.0158L9.14476 19.9104C9.37992 21.1833 9.00673 20.7692 8.17343 22.0626C5.79624 25.779 5.76045 28.7644 5.6582 33.0585C5.38726 33.0636 5.1981 33.0227 4.93738 32.9716L4.13475 32.7007Z" fill="#00111A"/>
<path fill-rule="evenodd" clip-rule="evenodd" d="M40.519 33.0841C40.386 29.9402 40.5138 28.0079 39.4709 25.0991C39.0517 23.9234 38.5865 23.131 37.9526 22.1342C36.6899 20.1354 36.9302 21.8121 37.1449 18.9852C38.2645 19.4197 40.1918 22.9368 40.8103 24.6237C41.613 26.7963 42.1855 30.2878 41.9759 32.8183L40.519 33.0841Z" fill="#00111A"/>
<path fill-rule="evenodd" clip-rule="evenodd" d="M40.519 33.0841C40.386 29.9402 40.5138 28.0079 39.4709 25.0991C39.0517 23.9234 38.5865 23.131 37.9526 22.1342C36.6899 20.1354 36.9302 21.8121 37.1449 18.9852C38.2645 19.4197 40.1918 22.9368 40.8103 24.6237C41.613 26.7963 42.1855 30.2878 41.9759 32.8183L40.519 33.0841Z" fill="#00111A"/>
<path fill-rule="evenodd" clip-rule="evenodd" d="M8.16365 31.2948C8.15854 28.8615 8.67487 26.8474 9.78423 24.7923L10.1779 24.1738C10.1881 24.1278 10.2239 24.1175 10.2443 24.092C9.94271 25.5949 9.55418 26.0039 9.17587 28.5599C8.91515 30.298 8.45505 31.4788 8.40393 33.2885C8.38859 33.2578 8.36814 33.2118 8.36303 33.1863L8.18921 32.4041C8.15854 32.0412 8.16365 31.6578 8.16365 31.2948Z" fill="#00111A"/>
<path fill-rule="evenodd" clip-rule="evenodd" d="M8.16365 31.2948C8.15854 28.8615 8.67487 26.8474 9.78423 24.7923L10.1779 24.1738C10.1881 24.1278 10.2239 24.1175 10.2443 24.092C9.94271 25.5949 9.55418 26.0039 9.17587 28.5599C8.91515 30.298 8.45505 31.4788 8.40393 33.2885C8.38859 33.2578 8.36814 33.2118 8.36303 33.1863L8.18921 32.4041C8.15854 32.0412 8.16365 31.6578 8.16365 31.2948Z" fill="#00111A"/>
<path fill-rule="evenodd" clip-rule="evenodd" d="M36.4648 25.0275C37.707 27.8391 38.1467 28.9893 37.9371 32.6291C37.8553 32.5064 37.8502 32.5319 37.7582 32.3019L37.5997 31.4891C37.5383 31.121 37.4719 30.7785 37.4054 30.4411C37.2725 29.7919 37.1498 28.9995 37.022 28.2787C36.7255 26.6173 35.9893 24.639 35.928 24.092C36.0098 24.1789 36.0404 24.2044 36.1376 24.3527C36.3625 24.6952 35.928 23.9488 36.2449 24.5367C36.3267 24.6799 36.3881 24.8537 36.4648 25.0275Z" fill="#00111A"/>
<path fill-rule="evenodd" clip-rule="evenodd" d="M36.4648 25.0275C37.707 27.8391 38.1467 28.9893 37.9371 32.6291C37.8553 32.5064 37.8502 32.5319 37.7582 32.3019L37.5997 31.4891C37.5383 31.121 37.4719 30.7785 37.4054 30.4411C37.2725 29.7919 37.1498 28.9995 37.022 28.2787C36.7255 26.6173 35.9893 24.639 35.928 24.092C36.0098 24.1789 36.0404 24.2044 36.1376 24.3527C36.3625 24.6952 35.928 23.9488 36.2449 24.5367C36.3267 24.6799 36.3881 24.8537 36.4648 25.0275Z" fill="#00111A"/>
<path fill-rule="evenodd" clip-rule="evenodd" d="M10.1268 33.401C9.2219 31.1364 9.7229 26.6634 10.8016 25.2014C11.4457 25.7943 11.2719 26.1062 12.3455 26.6174C12.3199 28.1408 12.55 29.1529 11.8905 30.4156C11.6758 29.9249 12.0234 29.1734 12.1666 28.6724C11.3946 28.6673 10.7505 29.7715 10.4131 30.477C9.79447 31.7601 10.3517 32.5422 10.1268 33.401Z" fill="#00111A"/>
<path fill-rule="evenodd" clip-rule="evenodd" d="M10.1268 33.401C9.2219 31.1364 9.7229 26.6634 10.8016 25.2014C11.4457 25.7943 11.2719 26.1062 12.3455 26.6174C12.3199 28.1408 12.55 29.1529 11.8905 30.4156C11.6758 29.9249 12.0234 29.1734 12.1666 28.6724C11.3946 28.6673 10.7505 29.7715 10.4131 30.477C9.79447 31.7601 10.3517 32.5422 10.1268 33.401Z" fill="#00111A"/>
<path fill-rule="evenodd" clip-rule="evenodd" d="M33.9908 26.6276C34.9877 26.1062 34.6605 25.7177 35.412 25.2422C36.0664 27.3024 36.6083 28.7031 36.6134 31.1569C36.6134 32.6393 36.1993 32.9767 36.0511 33.7384C36.1073 32.3633 36.4754 31.9799 35.8312 30.5792C35.4529 29.751 34.8599 28.7542 34.1084 28.6162L34.456 30.3338C34.0624 29.9658 33.9141 29.1376 33.8937 28.6162C33.8732 27.9772 33.9806 27.3024 33.9908 26.6276Z" fill="#00111A"/>
<path fill-rule="evenodd" clip-rule="evenodd" d="M33.9908 26.6276C34.9877 26.1062 34.6605 25.7177 35.412 25.2422C36.0664 27.3024 36.6083 28.7031 36.6134 31.1569C36.6134 32.6393 36.1993 32.9767 36.0511 33.7384C36.1073 32.3633 36.4754 31.9799 35.8312 30.5792C35.4529 29.751 34.8599 28.7542 34.1084 28.6162L34.456 30.3338C34.0624 29.9658 33.9141 29.1376 33.8937 28.6162C33.8732 27.9772 33.9806 27.3024 33.9908 26.6276Z" fill="#00111A"/>
<path fill-rule="evenodd" clip-rule="evenodd" d="M11.425 32.7673C11.5222 32.2766 11.4557 32.2408 11.9056 32.0261C11.8698 32.3788 11.9721 32.1692 11.8085 32.4299C11.4608 32.9973 11.7778 32.5066 11.425 32.7673Z" fill="#00111A"/>
<path fill-rule="evenodd" clip-rule="evenodd" d="M11.425 32.7673C11.5222 32.2766 11.4557 32.2408 11.9056 32.0261C11.8698 32.3788 11.9721 32.1692 11.8085 32.4299C11.4608 32.9973 11.7778 32.5066 11.425 32.7673Z" fill="#00111A"/>
<path fill-rule="evenodd" clip-rule="evenodd" d="M34.3635 31.99C34.839 32.2098 34.8083 32.1791 34.7827 32.905L34.3635 31.99Z" fill="#00111A"/>
<path fill-rule="evenodd" clip-rule="evenodd" d="M34.3635 31.99C34.839 32.2098 34.8083 32.1791 34.7827 32.905L34.3635 31.99Z" fill="#00111A"/>
<path fill-rule="evenodd" clip-rule="evenodd" d="M44.67 41.197C45.3397 35.0625 45.3295 32.7366 44.6853 28.4783C43.8418 22.9266 41.1068 17.5794 37.4464 13.9244L35.335 12.2834C34.8392 5.67867 30.1154 0.842699 23.1679 0.832475C16.0516 0.822251 11.7318 5.6071 11.011 12.2885C10.1112 12.9275 9.57954 13.2291 8.74113 13.9192C8.16856 14.3947 7.29437 15.1615 6.73202 15.8465C-0.558044 24.7669 0.965406 30.7582 0.950069 41.197C3.18923 42.6334 12.5037 47.0605 22.5391 47.1678C32.0223 47.2649 42.4769 42.5772 44.67 41.197Z" fill="#00111A"/>
<path fill-rule="evenodd" clip-rule="evenodd" d="M19.8757 2.32008C20.1517 2.55523 20.0342 2.45299 20.6016 2.41209C20.4687 2.80572 20.4891 3.11244 20.7345 3.51118L22.0944 3.59808C21.9819 3.70543 22.0279 3.69521 21.8337 3.81279C21.6394 3.93036 21.6854 3.87413 21.5116 3.93036C20.1211 4.19619 19.0577 5.32594 18.3931 5.99562C17.6212 6.77776 16.9821 8.09155 16.6345 9.42578C15.653 13.1729 17.5701 15.0643 17.4474 18.6683C18.4545 19.0619 19.0015 19.5067 19.7172 19.9923C20.7805 20.7182 21.6905 20.662 21.9512 19.4453L22.1404 18.883C22.2682 19.0108 22.304 18.8677 22.4011 19.3584C22.5085 19.8952 22.442 19.6907 22.3398 19.8799C22.5903 20.1406 22.4267 19.7112 22.5903 20.3399C22.7028 20.754 22.7436 28.2585 23.168 29.1888C23.4491 29.1633 23.444 29.148 23.6587 28.9946L23.9655 28.7032C23.9859 28.6776 24.0166 28.6419 24.037 28.6163L24.1853 28.4323L23.9501 28.4425C24.5636 27.7166 24.6454 26.4488 24.8397 25.4877C25.1208 24.1024 24.2569 22.9777 24.625 22.2161C24.6045 22.1854 24.5636 22.1036 24.5534 22.124L24.1955 21.1783C23.7968 20.3553 24.0422 19.9974 24.124 19.1182C24.3693 19.3227 24.0422 19.3278 24.3336 19.7776C24.5738 20.1457 24.5125 19.476 24.6403 19.8799C25.3458 21.1374 26.4296 20.1048 27.1811 19.568C28.2342 18.8268 28.9141 18.4485 30.6012 18.6581C30.4018 18.5201 30.2331 18.382 29.7883 18.3565C29.4049 18.3309 29.0675 18.4587 28.7096 18.5507C28.9908 17.8351 28.8937 16.966 29.047 16.2145C29.1902 15.4835 29.4151 14.8701 29.6196 14.1544C30.5654 10.8725 29.9621 7.76438 27.4162 5.55087C27.0021 5.18792 27.1657 5.20326 26.6699 4.90676C26.0053 4.50802 25.5758 4.35977 24.9419 4.0326C25.949 3.47539 27.9479 5.32083 28.5052 5.71957L27.13 4.29332C27.2884 3.51629 27.0533 3.48562 27.3907 2.95908C26.3887 2.68814 25.9593 2.3712 24.7119 2.22806C23.4491 2.07981 22.4625 2.18205 21.2304 2.15649C21.9768 2.32008 21.3838 2.15649 21.6241 1.9469L19.8757 2.32008Z" fill="#FFD3AE"/>
<path fill-rule="evenodd" clip-rule="evenodd" d="M19.8757 2.32008C20.1517 2.55523 20.0342 2.45299 20.6016 2.41209C20.4687 2.80572 20.4891 3.11244 20.7345 3.51118L22.0944 3.59808C21.9819 3.70543 22.0279 3.69521 21.8337 3.81279C21.6394 3.93036 21.6854 3.87413 21.5116 3.93036C20.1211 4.19619 19.0577 5.32594 18.3931 5.99562C17.6212 6.77776 16.9821 8.09155 16.6345 9.42578C15.653 13.1729 17.5701 15.0643 17.4474 18.6683C18.4545 19.0619 19.0015 19.5067 19.7172 19.9923C20.7805 20.7182 21.6905 20.662 21.9512 19.4453L22.1404 18.883C22.2682 19.0108 22.304 18.8677 22.4011 19.3584C22.5085 19.8952 22.442 19.6907 22.3398 19.8799C22.5903 20.1406 22.4267 19.7112 22.5903 20.3399C22.7028 20.754 22.7436 28.2585 23.168 29.1888C23.4491 29.1633 23.444 29.148 23.6587 28.9946L23.9655 28.7032C23.9859 28.6776 24.0166 28.6419 24.037 28.6163L24.1853 28.4323L23.9501 28.4425C24.5636 27.7166 24.6454 26.4488 24.8397 25.4877C25.1208 24.1024 24.2569 22.9777 24.625 22.2161C24.6045 22.1854 24.5636 22.1036 24.5534 22.124L24.1955 21.1783C23.7968 20.3553 24.0422 19.9974 24.124 19.1182C24.3693 19.3227 24.0422 19.3278 24.3336 19.7776C24.5738 20.1457 24.5125 19.476 24.6403 19.8799C25.3458 21.1374 26.4296 20.1048 27.1811 19.568C28.2342 18.8268 28.9141 18.4485 30.6012 18.6581C30.4018 18.5201 30.2331 18.382 29.7883 18.3565C29.4049 18.3309 29.0675 18.4587 28.7096 18.5507C28.9908 17.8351 28.8937 16.966 29.047 16.2145C29.1902 15.4835 29.4151 14.8701 29.6196 14.1544C30.5654 10.8725 29.9621 7.76438 27.4162 5.55087C27.0021 5.18792 27.1657 5.20326 26.6699 4.90676C26.0053 4.50802 25.5758 4.35977 24.9419 4.0326C25.949 3.47539 27.9479 5.32083 28.5052 5.71957L27.13 4.29332C27.2884 3.51629 27.0533 3.48562 27.3907 2.95908C26.3887 2.68814 25.9593 2.3712 24.7119 2.22806C23.4491 2.07981 22.4625 2.18205 21.2304 2.15649C21.9768 2.32008 21.3838 2.15649 21.6241 1.9469L19.8757 2.32008Z" fill="#FFD3AE"/>
<path fill-rule="evenodd" clip-rule="evenodd" d="M29.4919 29.3164C29.2056 28.8103 29.2516 27.8595 29.3641 27.2051C29.7526 26.9189 30.0031 26.7808 30.6421 26.653C30.3405 27.2563 30.1002 27.1694 29.8293 27.6908C29.5379 28.248 29.681 28.8563 29.4919 29.3164ZM21.6241 1.94666C21.3838 2.15625 21.9769 2.31983 21.2305 2.15625C22.4625 2.18181 23.4492 2.07957 24.7119 2.22782C25.9593 2.37095 26.3887 2.6879 27.3907 2.95884C27.0533 3.48537 27.2885 3.51605 27.13 4.29307L28.5052 5.71933C27.948 5.32059 25.9491 3.47515 24.942 4.03236C25.5759 4.35953 26.0053 4.50778 26.6699 4.90652C27.1658 5.20301 27.0022 5.18768 27.4163 5.55063C29.9622 7.76413 30.5654 10.8722 29.6197 14.1542C29.4152 14.8698 29.1902 15.4833 29.0471 16.2143C28.8937 16.9658 28.9909 17.8348 28.7097 18.5505C29.0675 18.4585 29.405 18.3307 29.7884 18.3562C30.2331 18.3818 30.4018 18.5198 30.6012 18.6578C31.1585 19.0464 31.4294 18.893 31.7413 19.6342L30.3865 19.4655C30.3609 19.4962 30.3252 19.532 30.3047 19.5473C30.2843 19.5678 30.2485 19.6087 30.2229 19.6291C28.2803 21.5461 28.7046 21.1883 26.5574 21.904L25.8468 22.0931C26.992 22.9264 25.0135 22.1698 24.625 22.2158C24.2569 22.9775 25.1209 24.1021 24.8397 25.4875C24.6455 26.4486 24.5637 27.7163 23.9502 28.4422L24.1853 28.432C25.1362 28.2224 25.8162 27.3636 27.2629 28.1815C27.815 28.4934 28.9142 29.6385 28.5103 30.7324C27.8508 30.6813 28.132 30.4615 27.4316 30.2877C26.9204 30.4001 27.0789 30.3848 26.7824 30.6966C26.5677 30.9318 26.4398 31.0443 26.1996 31.2334C25.7344 31.6117 25.3203 31.9338 24.717 32.128C24.2671 32.6801 23.6128 32.4552 23.306 33.6361C23.1118 34.3824 23.2294 35.9876 23.2907 36.7953C26.5728 36.8208 28.449 33.2782 30.3303 30.5842C31.0306 29.5822 31 29.3573 30.9693 29.7509C31.4652 29.1375 31.9355 27.3943 31.5521 26.7451C31.547 26.7348 31.5214 26.7093 31.5214 26.6888L31.0358 27.1745L31.3936 25.8147C31.2863 25.6715 31.547 24.8076 31.6595 24.598L32.0326 23.9897C32.2269 23.6523 32.2014 23.7596 32.3598 23.3456C32.549 22.8548 32.912 21.219 33.643 20.6209L33.6174 20.0994C33.689 20.4062 33.6021 20.1045 33.8782 20.263L34.2718 20.5084C34.4405 20.0636 34.7012 19.8643 34.9108 19.5627C35.2483 19.0719 35.054 19.1179 35.5448 18.663C36.1173 18.1262 36.0406 17.2163 35.9435 16.9453L35.6266 16.5108C35.2022 16.8226 34.9108 16.93 34.461 17.2878C34.0673 17.6048 33.8117 17.9013 33.4641 18.1824C33.7759 16.9913 35.0847 16.7511 34.3383 11.6953C33.7606 7.77947 31.8128 4.44132 28.04 2.8157C26.6341 2.20737 23.2651 1.42012 21.6241 1.94666Z" fill="#FDECCA"/>
<path fill-rule="evenodd" clip-rule="evenodd" d="M29.4919 29.3164C29.2056 28.8103 29.2516 27.8595 29.3641 27.2051C29.7526 26.9189 30.0031 26.7808 30.6421 26.653C30.3405 27.2563 30.1002 27.1694 29.8293 27.6908C29.5379 28.248 29.681 28.8563 29.4919 29.3164ZM21.6241 1.94666C21.3838 2.15625 21.9769 2.31983 21.2305 2.15625C22.4625 2.18181 23.4492 2.07957 24.7119 2.22782C25.9593 2.37095 26.3887 2.6879 27.3907 2.95884C27.0533 3.48537 27.2885 3.51605 27.13 4.29307L28.5052 5.71933C27.948 5.32059 25.9491 3.47515 24.942 4.03236C25.5759 4.35953 26.0053 4.50778 26.6699 4.90652C27.1658 5.20301 27.0022 5.18768 27.4163 5.55063C29.9622 7.76413 30.5654 10.8722 29.6197 14.1542C29.4152 14.8698 29.1902 15.4833 29.0471 16.2143C28.8937 16.9658 28.9909 17.8348 28.7097 18.5505C29.0675 18.4585 29.405 18.3307 29.7884 18.3562C30.2331 18.3818 30.4018 18.5198 30.6012 18.6578C31.1585 19.0464 31.4294 18.893 31.7413 19.6342L30.3865 19.4655C30.3609 19.4962 30.3252 19.532 30.3047 19.5473C30.2843 19.5678 30.2485 19.6087 30.2229 19.6291C28.2803 21.5461 28.7046 21.1883 26.5574 21.904L25.8468 22.0931C26.992 22.9264 25.0135 22.1698 24.625 22.2158C24.2569 22.9775 25.1209 24.1021 24.8397 25.4875C24.6455 26.4486 24.5637 27.7163 23.9502 28.4422L24.1853 28.432C25.1362 28.2224 25.8162 27.3636 27.2629 28.1815C27.815 28.4934 28.9142 29.6385 28.5103 30.7324C27.8508 30.6813 28.132 30.4615 27.4316 30.2877C26.9204 30.4001 27.0789 30.3848 26.7824 30.6966C26.5677 30.9318 26.4398 31.0443 26.1996 31.2334C25.7344 31.6117 25.3203 31.9338 24.717 32.128C24.2671 32.6801 23.6128 32.4552 23.306 33.6361C23.1118 34.3824 23.2294 35.9876 23.2907 36.7953C26.5728 36.8208 28.449 33.2782 30.3303 30.5842C31.0306 29.5822 31 29.3573 30.9693 29.7509C31.4652 29.1375 31.9355 27.3943 31.5521 26.7451C31.547 26.7348 31.5214 26.7093 31.5214 26.6888L31.0358 27.1745L31.3936 25.8147C31.2863 25.6715 31.547 24.8076 31.6595 24.598L32.0326 23.9897C32.2269 23.6523 32.2014 23.7596 32.3598 23.3456C32.549 22.8548 32.912 21.219 33.643 20.6209L33.6174 20.0994C33.689 20.4062 33.6021 20.1045 33.8782 20.263L34.2718 20.5084C34.4405 20.0636 34.7012 19.8643 34.9108 19.5627C35.2483 19.0719 35.054 19.1179 35.5448 18.663C36.1173 18.1262 36.0406 17.2163 35.9435 16.9453L35.6266 16.5108C35.2022 16.8226 34.9108 16.93 34.461 17.2878C34.0673 17.6048 33.8117 17.9013 33.4641 18.1824C33.7759 16.9913 35.0847 16.7511 34.3383 11.6953C33.7606 7.77947 31.8128 4.44132 28.04 2.8157C26.6341 2.20737 23.2651 1.42012 21.6241 1.94666Z" fill="#FDECCA"/>
<path fill-rule="evenodd" clip-rule="evenodd" d="M17.7748 3.16343C18.1429 3.84844 17.8055 2.99984 17.6521 3.90978C17.4937 4.86573 17.7237 4.49766 17.8822 4.79416L16.3843 6.79807C14.5643 9.49211 14.0071 11.8539 15.2085 15.0591L14.4314 14.7882C13.7873 14.7677 13.9918 15.0182 13.2914 14.645C13.1073 14.5479 13.5317 14.3332 13.0409 14.5683C12.683 14.7421 12.8211 14.7882 12.8006 15.3249C12.7086 15.238 12.5654 15.2176 12.4734 15.0949C12.6779 16.5416 13.409 17.5691 13.2147 18.2132C13.0511 18.7551 13.4448 18.1621 12.9642 18.5966L12.6626 17.8042C12.4428 18.2388 12.7648 18.2183 12.2638 17.7838C12.1565 17.6867 12.0287 17.5026 11.8344 17.3339C11.4663 17.017 11.2209 16.8636 10.7506 16.654C10.5614 17.0886 10.5512 17.4617 10.633 17.9985C10.8324 19.3276 10.3723 19.0874 10.1013 19.1129C10.0604 18.5864 9.9991 18.0547 9.95309 17.5231C9.93264 17.3186 9.88151 16.8534 9.89174 16.6694C9.92752 15.8515 9.80483 16.2706 10.086 16.1173C9.8764 15.9537 10.0502 15.9639 9.83039 16.1173C9.73326 18.6375 10.0451 21.628 11.1749 23.4479C11.8906 23.453 11.2618 24.5981 12.4888 24.8742C12.6166 24.409 12.6115 24.455 12.4223 23.8978C12.3303 23.5808 12.545 23.8722 12.2434 23.5348C12.0184 23.2792 11.0062 22.4562 10.8937 21.5411C10.858 21.2344 10.8937 21.352 10.9653 21.2089C10.7813 20.3245 10.5768 19.8286 10.7506 18.8471L12.0338 21.0299C12.3916 20.7692 12.1718 20.989 12.3661 20.6312C12.4581 20.4676 12.5399 20.2171 12.6217 20.0638L12.7188 20.4318C13.2147 20.7028 12.8875 20.5341 13.2045 21.1628C13.3732 21.49 13.4959 21.6332 13.6646 21.9654C13.9049 22.4357 14.0633 23.2894 14.3496 23.6575L14.3598 23.3252C14.8199 24.1585 15.2034 24.501 15.7759 25.0531L16.0827 25.4109C18.3525 27.7522 17.5601 28.3094 17.9691 29.1274C18.7615 28.836 18.4445 27.6091 21.2205 28.0947C20.9904 26.9599 20.8984 25.3138 21.3176 24.2965C21.379 25.3547 21.4403 26.2442 21.6243 27.2308C21.8697 28.5906 21.9515 28.8462 23.1682 29.1887C22.7439 28.2583 22.703 20.7539 22.5906 20.3398C22.427 19.711 22.5906 20.1404 22.3401 19.8797C22.2634 20.8357 22.3963 21.5616 22.1305 21.7149C20.6684 22.5584 20.9086 23.4326 19.0938 24.0409L18.8126 23.4837C18.102 23.4888 17.8208 23.3866 17.3658 23.223C18.1787 22.7425 19.0989 22.4357 19.6408 21.8274C18.0611 21.5923 17.3914 20.9226 16.4559 20.028C15.9089 19.5014 15.8322 19.8337 15.0653 19.7008L14.3343 19.7826C14.7535 18.6068 16.0827 18.4637 17.4476 18.6682C17.5703 15.0642 15.6532 13.1728 16.6348 9.42565C16.9824 8.09141 17.6215 6.77762 18.3934 5.99549C19.058 5.32581 20.1213 4.19606 21.5119 3.93023C21.3278 3.7462 21.6959 3.72064 20.9598 3.75131C20.6428 3.76153 19.9015 4.20628 19.6664 4.1705L19.559 3.97624C19.4107 3.63373 19.2523 3.33212 19.6664 2.74935C18.511 2.93339 19.2063 2.87715 18.9558 2.59088L17.7748 3.16343Z" fill="#EE988F"/>
<path fill-rule="evenodd" clip-rule="evenodd" d="M17.7748 3.1634C18.1429 3.84841 17.8055 2.99982 17.6521 3.90976C17.4937 4.8657 17.7237 4.49764 17.8822 4.79414L16.3843 6.79805C14.5643 9.49208 14.0071 11.8538 15.2085 15.0591L14.4314 14.7881C13.7873 14.7677 13.9918 15.0182 13.2914 14.645C13.1073 14.5479 13.5317 14.3332 13.0409 14.5683C12.683 14.7421 12.8211 14.7881 12.8006 15.3249C12.7086 15.238 12.5654 15.2175 12.4734 15.0949C12.6779 16.5416 13.409 17.5691 13.2147 18.2132C13.0511 18.7551 13.4448 18.1621 12.9642 18.5966L12.6626 17.8042C12.4428 18.2387 12.7648 18.2183 12.2638 17.7838C12.1565 17.6866 12.0287 17.5026 11.8344 17.3339C11.4663 17.017 11.2209 16.8636 10.7506 16.654C10.5614 17.0885 10.5512 17.4617 10.633 17.9985C10.8324 19.3276 10.3723 19.0873 10.1013 19.1129C10.0604 18.5864 9.9991 18.0547 9.95309 17.5231C9.93264 17.3186 9.88151 16.8534 9.89174 16.6694C9.92752 15.8514 9.80483 16.2706 10.086 16.1173C9.8764 15.9537 10.0502 15.9639 9.83039 16.1173C9.73326 18.6375 10.0451 21.628 11.1749 23.4479C11.8906 23.453 11.2618 24.5981 12.4888 24.8741C12.6166 24.4089 12.6115 24.455 12.4223 23.8977C12.3303 23.5808 12.545 23.8722 12.2434 23.5348C12.0184 23.2792 11.0062 22.4562 10.8937 21.5411C10.858 21.2344 10.8937 21.352 10.9653 21.2088C10.7813 20.3244 10.5768 19.8286 10.7506 18.8471L12.0338 21.0299C12.3916 20.7692 12.1718 20.989 12.3661 20.6312C12.4581 20.4676 12.5399 20.2171 12.6217 20.0637L12.7188 20.4318C13.2147 20.7027 12.8875 20.534 13.2045 21.1628C13.3732 21.49 13.4959 21.6331 13.6646 21.9654C13.9049 22.4357 14.0633 23.2894 14.3496 23.6575L14.3598 23.3252C14.8199 24.1585 15.2034 24.501 15.7759 25.0531L16.0827 25.4109C18.3525 27.7522 17.5601 28.3094 17.9691 29.1273C18.7615 28.836 18.4445 27.6091 21.2205 28.0947C20.9904 26.9598 20.8984 25.3138 21.3176 24.2965C21.379 25.3547 21.4403 26.2442 21.6243 27.2308C21.8697 28.5906 21.9515 28.8462 23.1682 29.1887C22.7439 28.2583 22.703 20.7539 22.5906 20.3398C22.427 19.711 22.5906 20.1404 22.3401 19.8797C22.2634 20.8356 22.3963 21.5616 22.1305 21.7149C20.6684 22.5584 20.9086 23.4326 19.0938 24.0409L18.8126 23.4837C18.102 23.4888 17.8208 23.3865 17.3658 23.223C18.1787 22.7424 19.0989 22.4357 19.6408 21.8274C18.0611 21.5922 17.3914 20.9226 16.4559 20.028C15.9089 19.5014 15.8322 19.8337 15.0653 19.7008L14.3343 19.7826C14.7535 18.6068 16.0827 18.4637 17.4476 18.6682C17.5703 15.0642 15.6532 13.1727 16.6348 9.42562C16.9824 8.09139 17.6215 6.7776 18.3934 5.99546C19.058 5.32579 20.1213 4.19603 21.5119 3.9302C21.3278 3.74617 21.6959 3.72061 20.9598 3.75128C20.6428 3.76151 19.9015 4.20625 19.6664 4.17047L19.559 3.97621C19.4107 3.63371 19.2523 3.3321 19.6664 2.74933C18.5008 2.93336 19.2165 2.46306 17.7748 3.1634Z" fill="#EE988F"/>
<path fill-rule="evenodd" clip-rule="evenodd" d="M16.9514 3.64404C16.9667 3.70539 16.2408 4.2626 16.0159 4.47219C13.6438 6.66525 11.8494 11.9102 12.4731 15.095C12.5651 15.2177 12.7082 15.2381 12.8002 15.325C12.8207 14.7882 12.6827 14.7422 13.0405 14.5684C13.5313 14.3333 13.107 14.548 13.291 14.6451C13.9914 15.0183 13.7869 14.7678 14.4311 14.7882L15.2081 15.0592C14.0067 11.8539 14.564 9.49219 16.3839 6.79816L17.8818 4.79425C17.7233 4.49775 17.4933 4.86582 17.6518 3.90987C17.8051 2.99993 18.1425 3.84852 17.7745 3.16351C17.6518 3.24531 17.5598 3.29131 17.4626 3.34243C17.3348 3.40889 17.1917 3.48046 16.9514 3.64404Z" fill="#D38C87"/>
<path fill-rule="evenodd" clip-rule="evenodd" d="M16.0159 4.47219C13.6438 6.66525 11.8494 11.9102 12.4731 15.095C12.5651 15.2177 12.7082 15.2381 12.8002 15.325C12.8207 14.7882 12.6827 14.7422 13.0405 14.5684C13.5313 14.3333 13.107 14.548 13.291 14.6451C13.9914 15.0183 13.7869 14.7678 14.4311 14.7882L15.2081 15.0592C14.0067 11.8539 14.564 9.49219 16.3839 6.79816L17.8818 4.79425C17.7233 4.49775 17.4933 4.86582 17.6518 3.90987C17.8051 2.99993 18.1425 3.84852 17.7745 3.16351C17.0076 3.414 16.6038 3.9252 16.0159 4.47219Z" fill="#D38C87"/>
<path fill-rule="evenodd" clip-rule="evenodd" d="M4.13475 32.7007L4.93738 32.9716C5.1981 33.0227 5.38726 33.0636 5.6582 33.0585C5.76045 28.7644 5.79624 25.779 8.17343 22.0626C9.00673 20.7692 9.37992 21.1833 9.14476 19.9104L8.83291 19.0158C7.65709 19.7826 5.98028 22.7629 5.29523 24.6544C4.4057 27.103 4.05296 29.8686 4.13475 32.7007Z" fill="#FDA66B"/>
<path fill-rule="evenodd" clip-rule="evenodd" d="M4.13475 32.7007L4.93738 32.9716C5.1981 33.0227 5.38726 33.0636 5.6582 33.0585C5.76045 28.7644 5.79624 25.779 8.17343 22.0626C9.00673 20.7692 9.37992 21.1833 9.14476 19.9104L8.83291 19.0158C7.65709 19.7826 5.98028 22.7629 5.29523 24.6544C4.4057 27.103 4.05296 29.8686 4.13475 32.7007Z" fill="#FDA66B"/>
<path fill-rule="evenodd" clip-rule="evenodd" d="M40.519 33.0841L41.9759 32.8183C42.1855 30.2878 41.613 26.7963 40.8103 24.6237C40.1918 22.9368 38.2645 19.4197 37.1449 18.9852C36.9302 21.8121 36.6899 20.1354 37.9526 22.1342C38.5865 23.131 39.0517 23.9234 39.4709 25.0991C40.5138 28.0079 40.386 29.9402 40.519 33.0841Z" fill="#FDA66B"/>
<path fill-rule="evenodd" clip-rule="evenodd" d="M40.519 33.0841L41.9759 32.8183C42.1855 30.2878 41.613 26.7963 40.8103 24.6237C40.1918 22.9368 38.2645 19.4197 37.1449 18.9852C36.9302 21.8121 36.6899 20.1354 37.9526 22.1342C38.5865 23.131 39.0517 23.9234 39.4709 25.0991C40.5138 28.0079 40.386 29.9402 40.519 33.0841Z" fill="#FDA66B"/>
<path fill-rule="evenodd" clip-rule="evenodd" d="M23.291 36.7954C23.2297 35.9877 23.1121 34.3825 23.3064 33.6362C23.6131 32.4553 24.2675 32.6802 24.7174 32.1281C24.7838 31.8674 24.8247 32.1588 24.656 31.6936C21.9056 32.4757 23.1632 32.0974 21.2717 31.6271C21.0008 32.8182 20.3208 33.2937 20.602 35.0931C20.8116 36.4222 22.0232 36.6931 23.291 36.7954Z" fill="#D38C87"/>
<path fill-rule="evenodd" clip-rule="evenodd" d="M23.291 36.7954C23.2297 35.9877 23.1121 34.3825 23.3064 33.6362C23.6131 32.4553 24.2675 32.6802 24.7174 32.1281C24.7838 31.8674 24.8247 32.1588 24.656 31.6936C21.9056 32.4757 23.1632 32.0974 21.2717 31.6271C21.0008 32.8182 20.3208 33.2937 20.602 35.0931C20.8116 36.4222 22.0232 36.6931 23.291 36.7954Z" fill="#D38C87"/>
<path fill-rule="evenodd" clip-rule="evenodd" d="M31.3945 25.8148C31.4968 25.6768 31.5939 25.5285 31.6961 25.37L31.9569 25.0224C31.9671 24.9713 32.0131 24.9713 32.0847 24.9662L31.5223 26.6889C31.5223 26.7094 31.5479 26.7401 31.553 26.7452C31.9364 27.3944 31.4661 29.1376 30.9702 29.751C30.643 30.3287 30.3874 31.0086 30.0244 31.6783C29.595 32.4655 29.278 33.0534 29.094 33.9736L28.9253 34.311C29.5439 34.2649 28.9969 34.3519 29.2371 34.086C29.4876 33.7435 29.4672 33.8611 29.7842 33.5595L31.2514 31.6476C33.0304 28.9536 31.8853 26.648 32.6828 23.7904C33.1071 22.2773 34.0069 22.083 33.6439 20.621C32.9128 21.2191 32.5499 22.8549 32.3607 23.3457C32.2022 23.7598 32.2278 23.6524 32.0335 23.9898L31.6603 24.5981C31.5479 24.8077 31.2872 25.6716 31.3945 25.8148Z" fill="#FDFCEC"/>
<path fill-rule="evenodd" clip-rule="evenodd" d="M31.3945 25.8148C31.4968 25.6768 31.5939 25.5285 31.6961 25.37L31.9569 25.0224C31.9671 24.9713 32.0131 24.9713 32.0847 24.9662L31.5223 26.6889C31.5223 26.7094 31.5479 26.7401 31.553 26.7452C31.9364 27.3944 31.4661 29.1376 30.9702 29.751C30.643 30.3287 30.3874 31.0086 30.0244 31.6783C29.595 32.4655 29.278 33.0534 29.094 33.9736L28.9253 34.311C29.5439 34.2649 28.9969 34.3519 29.2371 34.086C29.4876 33.7435 29.4672 33.8611 29.7842 33.5595L31.2514 31.6476C33.0304 28.9536 31.8853 26.648 32.6828 23.7904C33.1071 22.2773 34.0069 22.083 33.6439 20.621C32.9128 21.2191 32.5499 22.8549 32.3607 23.3457C32.2022 23.7598 32.2278 23.6524 32.0335 23.9898L31.6603 24.5981C31.5479 24.8077 31.2872 25.6716 31.3945 25.8148Z" fill="#FDFCEC"/>
<path fill-rule="evenodd" clip-rule="evenodd" d="M10.1268 33.401C10.3517 32.5422 9.79447 31.7601 10.4131 30.477C10.7505 29.7715 11.3946 28.6673 12.1666 28.6724C12.0234 29.1734 11.6758 29.9249 11.8905 30.4156C12.55 29.1529 12.3199 28.1408 12.3455 26.6174C11.2719 26.1062 11.4457 25.7943 10.8016 25.2014C9.7229 26.6634 9.2219 31.1364 10.1268 33.401Z" fill="#F3966E"/>
<path fill-rule="evenodd" clip-rule="evenodd" d="M10.1268 33.401C10.3517 32.5422 9.79447 31.7601 10.4131 30.477C10.7505 29.7715 11.3946 28.6673 12.1666 28.6724C12.0234 29.1734 11.6758 29.9249 11.8905 30.4156C12.55 29.1529 12.3199 28.1408 12.3455 26.6174C11.2719 26.1062 11.4457 25.7943 10.8016 25.2014C9.7229 26.6634 9.2219 31.1364 10.1268 33.401Z" fill="#F3966E"/>
<path fill-rule="evenodd" clip-rule="evenodd" d="M33.9908 26.6276C33.9806 27.3024 33.8732 27.9772 33.8937 28.6162C33.9141 29.1376 34.0624 29.9658 34.456 30.3338L34.1084 28.6162C34.8599 28.7542 35.4529 29.751 35.8312 30.5792C36.4754 31.9799 36.1073 32.3633 36.0511 33.7384C36.1993 32.9767 36.6134 32.6393 36.6134 31.1569C36.6083 28.7031 36.0664 27.3024 35.412 25.2422C34.6605 25.7177 34.9877 26.1062 33.9908 26.6276Z" fill="#F3966E"/>
<path fill-rule="evenodd" clip-rule="evenodd" d="M33.9908 26.6276C33.9806 27.3024 33.8732 27.9772 33.8937 28.6162C33.9141 29.1376 34.0624 29.9658 34.456 30.3338L34.1084 28.6162C34.8599 28.7542 35.4529 29.751 35.8312 30.5792C36.4754 31.9799 36.1073 32.3633 36.0511 33.7384C36.1993 32.9767 36.6134 32.6393 36.6134 31.1569C36.6083 28.7031 36.0664 27.3024 35.412 25.2422C34.6605 25.7177 34.9877 26.1062 33.9908 26.6276Z" fill="#FDA66B"/>
<path fill-rule="evenodd" clip-rule="evenodd" d="M15.066 19.7009C16.7019 18.3973 20.5361 23.6423 21.9624 20.6875C22.2283 20.1456 22.2845 19.7418 21.9522 19.4453C21.6915 20.662 20.7815 20.7182 19.7182 19.9923C19.0024 19.5066 18.4554 19.0619 17.4483 18.6683C16.0833 18.4638 14.7542 18.6069 14.335 19.7827L15.066 19.7009Z" fill="#010C1C"/>
<path fill-rule="evenodd" clip-rule="evenodd" d="M15.066 19.7009C16.7019 18.3973 20.5361 23.6423 21.9624 20.6875C22.2283 20.1456 22.2845 19.7418 21.9522 19.4453C21.6915 20.662 20.7815 20.7182 19.7182 19.9923C19.0024 19.5066 18.4554 19.0619 17.4483 18.6683C16.0833 18.4638 14.7542 18.6069 14.335 19.7827L15.066 19.7009Z" fill="#010C1C"/>
<path fill-rule="evenodd" clip-rule="evenodd" d="M21.9521 19.4451C22.2844 19.7416 22.2282 20.1455 21.9623 20.6874C20.536 23.6421 16.7018 18.3972 15.0659 19.7007C15.8328 19.8336 15.9094 19.5014 16.4564 20.0279C17.392 20.9225 18.0617 21.5922 19.6414 21.8273C19.0995 22.4357 18.1793 22.7424 17.3664 23.2229C17.8214 23.3865 18.1026 23.4887 18.8132 23.4836L19.0944 24.0408C20.9092 23.4325 20.6689 22.5584 22.131 21.7149C22.9388 21.2343 22.6678 21.0094 22.402 19.3582C22.3049 18.8675 22.2691 19.0106 22.1413 18.8828L21.9521 19.4451Z" fill="#B1716B"/>
<path fill-rule="evenodd" clip-rule="evenodd" d="M21.9521 19.4451C22.2844 19.7416 22.2282 20.1455 21.9623 20.6874C20.536 23.6421 16.7018 18.3972 15.0659 19.7007C15.8328 19.8336 15.9094 19.5014 16.4564 20.0279C17.392 20.9225 18.0617 21.5922 19.6414 21.8273C19.0995 22.4357 18.1793 22.7424 17.3664 23.2229C17.8214 23.3865 18.1026 23.4887 18.8132 23.4836L19.0944 24.0408C20.9092 23.4325 20.6689 22.5584 22.131 21.7149C22.9388 21.2343 22.6678 21.0094 22.402 19.3582C22.3049 18.8675 22.2691 19.0106 22.1413 18.8828L21.9521 19.4451Z" fill="#B1716B"/>
<path fill-rule="evenodd" clip-rule="evenodd" d="M24.7167 21.1784C25.1513 21.2295 25.3404 21.664 26.051 21.5464C26.4395 21.48 27.2166 21.0659 27.5182 20.8921C28.3209 20.432 29.3126 19.5937 30.3862 19.4659L31.7409 19.6346C31.4291 18.8933 31.1582 19.0467 30.6009 18.6582C28.9139 18.4486 28.2339 18.8269 27.1808 19.5681C26.4293 20.1049 25.3455 21.1375 24.64 19.8799C24.4764 19.3687 24.5531 19.4761 24.1237 19.1182C24.0419 19.9975 23.7965 20.3553 24.1953 21.1784L24.502 21.3726C24.7321 21.5311 24.5634 21.4289 24.7167 21.5311V21.1784Z" fill="#010C1C"/>
<path fill-rule="evenodd" clip-rule="evenodd" d="M24.7167 21.1784C25.1513 21.2295 25.3404 21.664 26.051 21.5464C26.4395 21.48 27.2166 21.0659 27.5182 20.8921C28.3209 20.432 29.3126 19.5937 30.3862 19.4659L31.7409 19.6346C31.4291 18.8933 31.1582 19.0467 30.6009 18.6582C28.9139 18.4486 28.2339 18.8269 27.1808 19.5681C26.4293 20.1049 25.3455 21.1375 24.64 19.8799C24.4764 19.3687 24.5531 19.4761 24.1237 19.1182C24.0419 19.9975 23.7965 20.3553 24.1953 21.1784L24.502 21.3726C24.7321 21.5311 24.5634 21.4289 24.7167 21.5311V21.1784Z" fill="#010C1C"/>
<path fill-rule="evenodd" clip-rule="evenodd" d="M35.6272 16.511L35.9441 16.9455C36.0412 17.2164 36.1179 18.1264 35.5454 18.6631C35.0546 19.1181 35.2488 19.0721 34.9114 19.5628C34.7018 19.8645 34.4411 20.0638 34.2724 20.5086L33.8788 20.2632C33.8328 20.6875 33.9145 20.7335 34.119 21.1629C34.9063 20.5904 34.8603 19.6242 35.6169 19.1283C35.5709 22.5892 33.9452 22.8397 33.5465 23.5451C33.3369 23.9183 33.1068 24.5777 33.2909 25.0941C34.7376 25.3036 34.8552 23.7291 35.7601 21.5514C36.4502 19.8849 36.4298 17.927 36.486 16.0253L35.6272 16.511Z" fill="#F8F5E6"/>
<path fill-rule="evenodd" clip-rule="evenodd" d="M35.6272 16.511L35.9441 16.9455C36.0412 17.2164 36.1179 18.1264 35.5454 18.6631C35.0546 19.1181 35.2488 19.0721 34.9114 19.5628C34.7018 19.8645 34.4411 20.0638 34.2724 20.5086L33.8788 20.2632C33.8328 20.6875 33.9145 20.7335 34.119 21.1629C34.9063 20.5904 34.8603 19.6242 35.6169 19.1283C35.5709 22.5892 33.9452 22.8397 33.5465 23.5451C33.3369 23.9183 33.1068 24.5777 33.2909 25.0941C34.7376 25.3036 34.8552 23.7291 35.7601 21.5514C36.4502 19.8849 36.4298 17.927 36.486 16.0253L35.6272 16.511Z" fill="#F8F5E6"/>
<path fill-rule="evenodd" clip-rule="evenodd" d="M15.3412 31.2386L14.9936 29.1069L14.7533 26.6992L14.3085 24.8997C14.5386 25.2064 14.8453 25.5898 15.0498 25.9784C15.4741 26.3413 15.106 26.1368 15.6019 26.2697C15.4537 25.9375 15.4639 25.9579 15.3565 25.6716C15.1111 25.0582 14.4977 24.409 14.3494 23.6575C14.0631 23.2894 13.9046 22.4357 13.6644 21.9654C13.4957 21.6331 13.373 21.49 13.2043 21.1628C12.8873 20.5341 13.2145 20.7028 12.7186 20.4318C12.5192 22.446 12.8004 21.0862 13.4497 22.8805C13.7819 23.7904 13.8126 24.8026 13.8893 25.8148C14.0938 28.473 14.1347 29.1989 15.1111 31.2949C15.2594 31.7652 15.6172 32.2968 16.016 32.5933L15.3412 31.2386Z" fill="#F5F8F5"/>
<path fill-rule="evenodd" clip-rule="evenodd" d="M15.3412 31.2386L14.9936 29.1069L14.7533 26.6992L14.3085 24.8997C14.5386 25.2064 14.8453 25.5898 15.0498 25.9784C15.4741 26.3413 15.106 26.1368 15.6019 26.2697C15.4537 25.9375 15.4639 25.9579 15.3565 25.6716C15.1111 25.0582 14.4977 24.409 14.3494 23.6575C14.0631 23.2894 13.9046 22.4357 13.6644 21.9654C13.4957 21.6331 13.373 21.49 13.2043 21.1628C12.8873 20.5341 13.2145 20.7028 12.7186 20.4318C12.5192 22.446 12.8004 21.0862 13.4497 22.8805C13.7819 23.7904 13.8126 24.8026 13.8893 25.8148C14.0938 28.473 14.1347 29.1989 15.1111 31.2949C15.2594 31.7652 15.6172 32.2968 16.016 32.5933L15.3412 31.2386Z" fill="#F5F8F5"/>
<path fill-rule="evenodd" clip-rule="evenodd" d="M12.6626 17.804L12.9642 18.5964C13.4448 18.1619 13.0511 18.7549 13.2147 18.213C13.409 17.5689 12.678 16.5414 12.4735 15.0947C11.8498 11.9099 13.6442 6.66494 16.0162 4.47188C16.2412 4.26229 16.9671 3.70508 16.9518 3.64374C16.098 4.00158 14.9631 5.22335 14.411 5.95437C13.7566 6.82853 13.0818 7.98384 12.6473 9.25162C11.8344 11.6389 11.2516 15.703 12.6626 17.804Z" fill="#FCFCF4"/>
<path fill-rule="evenodd" clip-rule="evenodd" d="M12.6626 17.804L12.9642 18.5964C13.4448 18.1619 13.0511 18.7549 13.2147 18.213C13.409 17.5689 12.678 16.5414 12.4735 15.0947C11.8498 11.9099 13.6442 6.66494 16.0162 4.47188C16.2412 4.26229 16.9671 3.70508 16.9518 3.64374C16.098 4.00158 14.9631 5.22335 14.411 5.95437C13.7566 6.82853 13.0818 7.98384 12.6473 9.25162C11.8344 11.6389 11.2516 15.703 12.6626 17.804Z" fill="#FCFCF4"/>
<path fill-rule="evenodd" clip-rule="evenodd" d="M24.7168 21.1782V21.531C24.5634 21.4287 24.7321 21.531 24.502 21.3725L24.1953 21.1782L24.5532 22.1239C24.5634 22.1035 24.6043 22.1853 24.6247 22.216C25.1462 22.3438 25.775 23.3508 26.414 23.7547L26.6032 23.7802C26.2351 23.4582 26.2095 23.4837 26.0357 22.8959C26.9968 22.8754 26.6287 22.9674 27.3189 23.223C27.733 23.3713 28.1675 23.4224 28.6481 23.4275C28.3567 22.9265 28.8423 23.085 28.3413 22.9674C27.5796 22.8192 26.9406 22.5585 26.3987 22.1597L26.5981 22.0728C28.7452 21.352 28.28 21.5463 30.2227 19.6293C30.2482 19.6088 30.284 19.5679 30.3044 19.5475C30.3249 19.5322 30.3607 19.4964 30.3862 19.4657C29.3127 19.5935 28.3209 20.4319 27.5183 20.892C27.2167 21.0658 26.4396 21.4798 26.0511 21.5463C25.3405 21.6639 25.1513 21.2293 24.7168 21.1782Z" fill="#C47A83"/>
<path fill-rule="evenodd" clip-rule="evenodd" d="M24.7168 21.1782V21.531C24.5634 21.4287 24.7321 21.531 24.502 21.3725L24.1953 21.1782L24.5532 22.1239C24.5634 22.1035 24.6043 22.1853 24.6247 22.216C25.1462 22.3438 25.775 23.3508 26.414 23.7547L26.6032 23.7802C26.2351 23.4582 26.2095 23.4837 26.0357 22.8959C26.9968 22.8754 26.6287 22.9674 27.3189 23.223C27.733 23.3713 28.1675 23.4224 28.6481 23.4275C28.3567 22.9265 28.8423 23.085 28.3413 22.9674C27.5796 22.8192 26.9406 22.5585 26.3987 22.1597L26.5981 22.0728C28.7452 21.352 28.28 21.5463 30.2227 19.6293C30.2482 19.6088 30.284 19.5679 30.3044 19.5475C30.3249 19.5322 30.3607 19.4964 30.3862 19.4657C29.3127 19.5935 28.3209 20.4319 27.5183 20.892C27.2167 21.0658 26.4396 21.4798 26.0511 21.5463C25.3405 21.6639 25.1513 21.2293 24.7168 21.1782Z" fill="#C47A83"/>
<path fill-rule="evenodd" clip-rule="evenodd" d="M8.16365 31.2948C8.16365 31.6578 8.15854 32.0412 8.18921 32.4041L8.36303 33.1863C8.36814 33.2118 8.38859 33.2578 8.40393 33.2885C8.45505 31.4788 8.91515 30.298 9.17587 28.5599C9.55418 26.0039 9.94271 25.5949 10.2443 24.092C10.2239 24.1175 10.1881 24.1278 10.1779 24.1738L9.78423 24.7923C8.67487 26.8474 8.15854 28.8615 8.16365 31.2948Z" fill="#F3966E"/>
<path fill-rule="evenodd" clip-rule="evenodd" d="M8.16365 31.2948C8.16365 31.6578 8.15854 32.0412 8.18921 32.4041L8.36303 33.1863C8.36814 33.2118 8.38859 33.2578 8.40393 33.2885C8.45505 31.4788 8.91515 30.298 9.17587 28.5599C9.55418 26.0039 9.94271 25.5949 10.2443 24.092C10.2239 24.1175 10.1881 24.1278 10.1779 24.1738L9.78423 24.7923C8.67487 26.8474 8.15854 28.8615 8.16365 31.2948Z" fill="#F3966E"/>
<path fill-rule="evenodd" clip-rule="evenodd" d="M37.9371 32.6291C38.1467 28.9893 37.707 27.8391 36.4648 25.0275C36.3881 24.8537 36.3267 24.6799 36.2449 24.5367C35.928 23.9488 36.3625 24.6952 36.1376 24.3527C36.0404 24.2044 36.0098 24.1789 35.928 24.092C35.9893 24.639 36.7255 26.6173 37.022 28.2787C37.1498 28.9995 37.2725 29.7919 37.4054 30.4411C37.4719 30.7785 37.5383 31.121 37.5997 31.4891L37.7582 32.3019C37.8502 32.5319 37.8553 32.5064 37.9371 32.6291Z" fill="#FDA66B"/>
<path fill-rule="evenodd" clip-rule="evenodd" d="M37.9371 32.6291C38.1467 28.9893 37.707 27.8391 36.4648 25.0275C36.3881 24.8537 36.3267 24.6799 36.2449 24.5367C35.928 23.9488 36.3625 24.6952 36.1376 24.3527C36.0404 24.2044 36.0098 24.1789 35.928 24.092C35.9893 24.639 36.7255 26.6173 37.022 28.2787C37.1498 28.9995 37.2725 29.7919 37.4054 30.4411C37.4719 30.7785 37.5383 31.121 37.5997 31.4891L37.7582 32.3019C37.8502 32.5319 37.8553 32.5064 37.9371 32.6291Z" fill="#FDA66B"/>
<path fill-rule="evenodd" clip-rule="evenodd" d="M15.3567 25.6716C15.464 25.9578 15.4538 25.9374 15.6021 26.2697C15.1062 26.1368 15.4742 26.3412 15.0499 25.9783L15.0959 27.0518C14.5592 26.3208 15.1062 27.7368 14.8454 26.8167C14.825 26.7502 14.7739 26.7451 14.7534 26.6991L14.9937 29.1068L14.9988 28.4014C15.2033 28.5803 15.0704 28.4116 15.2391 28.6672C15.3055 28.7643 15.3873 28.9586 15.4385 29.0608L15.8628 29.6641C16.1082 29.2909 16.236 28.6774 16.2973 28.1918C16.42 27.2052 16.1133 27.4403 15.6685 26.8013L16.236 26.5202L16.0366 25.646C15.7043 25.3853 15.8883 25.9425 15.7043 25.2728C15.6941 25.3035 15.6787 25.3393 15.6685 25.3546L15.4589 25.5949C15.4436 25.5642 15.3873 25.646 15.3567 25.6716Z" fill="#E69588"/>
<path fill-rule="evenodd" clip-rule="evenodd" d="M15.3567 25.6716C15.464 25.9578 15.4538 25.9374 15.6021 26.2697C15.1062 26.1368 15.4742 26.3412 15.0499 25.9783L15.0959 27.0518C14.5592 26.3208 15.1062 27.7368 14.8454 26.8167C14.825 26.7502 14.7739 26.7451 14.7534 26.6991L14.9937 29.1068L14.9988 28.4014C15.2033 28.5803 15.0704 28.4116 15.2391 28.6672C15.3055 28.7643 15.3873 28.9586 15.4385 29.0608L15.8628 29.6641C16.1082 29.2909 16.236 28.6774 16.2973 28.1918C16.42 27.2052 16.1133 27.4403 15.6685 26.8013L16.236 26.5202L16.0366 25.646C15.7043 25.3853 15.8883 25.9425 15.7043 25.2728C15.6941 25.3035 15.6787 25.3393 15.6685 25.3546L15.4589 25.5949C15.4436 25.5642 15.3873 25.646 15.3567 25.6716Z" fill="#E69588"/>
<path fill-rule="evenodd" clip-rule="evenodd" d="M18.9563 2.59094C19.2068 2.87722 18.5115 2.93345 19.6669 2.74942C19.2528 3.33219 19.4113 3.6338 19.5595 3.9763L19.6669 4.17056C19.9021 4.20634 20.6433 3.7616 20.9603 3.75137C21.6965 3.7207 21.3284 3.74626 21.5124 3.93029C21.6862 3.87406 21.6402 3.93029 21.8345 3.81272C22.0288 3.69514 21.9827 3.70536 22.0952 3.59801L20.7354 3.51111C20.49 3.11237 20.4695 2.80565 20.6024 2.41202C20.035 2.45292 20.1526 2.55516 19.8765 2.32001L18.9563 2.59094Z" fill="#F5B79A"/>
<path fill-rule="evenodd" clip-rule="evenodd" d="M18.9563 2.59094C19.2068 2.87722 18.5115 2.93345 19.6669 2.74942C19.2528 3.33219 19.4113 3.6338 19.5595 3.9763L19.6669 4.17056C19.9021 4.20634 20.6433 3.7616 20.9603 3.75137C21.6965 3.7207 21.3284 3.74626 21.5124 3.93029C21.6862 3.87406 21.6402 3.93029 21.8345 3.81272C22.0288 3.69514 21.9827 3.70536 22.0952 3.59801L20.7354 3.51111C20.49 3.11237 20.4695 2.80565 20.6024 2.41202C20.035 2.45292 20.1526 2.55516 19.8765 2.32001L18.9563 2.59094Z" fill="#F5B79A"/>
<path fill-rule="evenodd" clip-rule="evenodd" d="M24.6555 31.6936C24.8242 32.1588 24.7833 31.8674 24.7169 32.1281C25.3201 31.9339 25.7342 31.6118 26.1994 31.2335C26.4397 31.0444 26.5675 30.9319 26.7822 30.6968C27.0787 30.3849 26.9202 30.4003 27.4315 30.2878C26.7669 29.9606 26.0767 30.1038 25.678 30.5741C25.4172 30.8808 25.3968 31.0035 25.1923 31.2182C24.9725 31.4533 24.8293 31.4738 24.6555 31.6936Z" fill="#E69588"/>
<path fill-rule="evenodd" clip-rule="evenodd" d="M24.6555 31.6936C24.8242 32.1588 24.7833 31.8674 24.7169 32.1281C25.3201 31.9339 25.7342 31.6118 26.1994 31.2335C26.4397 31.0444 26.5675 30.9319 26.7822 30.6968C27.0787 30.3849 26.9202 30.4003 27.4315 30.2878C26.7669 29.9606 26.0767 30.1038 25.678 30.5741C25.4172 30.8808 25.3968 31.0035 25.1923 31.2182C24.9725 31.4533 24.8293 31.4738 24.6555 31.6936Z" fill="#E69588"/>
<path fill-rule="evenodd" clip-rule="evenodd" d="M10.7511 16.6541L10.0865 16.1174C9.8053 16.2707 9.92799 15.8515 9.89221 16.6695C9.88198 16.8535 9.9331 17.3187 9.95355 17.5232C9.99956 18.0548 10.0609 18.5865 10.1018 19.113C10.3728 19.0875 10.8329 19.3277 10.6335 17.9986C10.5517 17.4618 10.5619 17.0887 10.7511 16.6541Z" fill="#FCFCF4"/>
<path fill-rule="evenodd" clip-rule="evenodd" d="M10.7511 16.6541L10.0865 16.1174C9.8053 16.2707 9.92799 15.8515 9.89221 16.6695C9.88198 16.8535 9.9331 17.3187 9.95355 17.5232C9.99956 18.0548 10.0609 18.5865 10.1018 19.113C10.3728 19.0875 10.8329 19.3277 10.6335 17.9986C10.5517 17.4618 10.5619 17.0887 10.7511 16.6541Z" fill="#FCFCF4"/>
<path fill-rule="evenodd" clip-rule="evenodd" d="M29.4917 29.3164C29.6808 28.8563 29.5377 28.248 29.8291 27.6908C30.1 27.1693 30.3403 27.2562 30.6419 26.653C30.0029 26.7808 29.7524 26.9188 29.3639 27.2051C29.2514 27.8595 29.2054 28.8103 29.4917 29.3164Z" fill="#020A0D"/>
<path fill-rule="evenodd" clip-rule="evenodd" d="M29.4917 29.3164C29.6808 28.8563 29.5377 28.248 29.8291 27.6908C30.1 27.1693 30.3403 27.2562 30.6419 26.653C30.0029 26.7808 29.7524 26.9188 29.3639 27.2051C29.2514 27.8595 29.2054 28.8103 29.4917 29.3164Z" fill="#020A0D"/>
<path fill-rule="evenodd" clip-rule="evenodd" d="M14.3501 23.6575C14.4984 24.4089 15.1118 25.0582 15.3572 25.6716C15.3879 25.6461 15.4441 25.5643 15.4595 25.5949L15.6691 25.3547C15.6793 25.3393 15.6946 25.3035 15.7048 25.2729C15.8889 25.9425 15.7048 25.3853 16.0371 25.6461L16.0831 25.4109L15.7764 25.0531C15.2038 24.501 14.8204 24.1585 14.3603 23.3252L14.3501 23.6575Z" fill="#8F554D"/>
<path fill-rule="evenodd" clip-rule="evenodd" d="M14.3501 23.6575C14.4984 24.4089 15.1118 25.0582 15.3572 25.6716C15.3879 25.6461 15.4441 25.5643 15.4595 25.5949L15.6691 25.3547C15.6793 25.3393 15.6946 25.3035 15.7048 25.2729C15.8889 25.9425 15.7048 25.3853 16.0371 25.6461L16.0831 25.4109L15.7764 25.0531C15.2038 24.501 14.8204 24.1585 14.3603 23.3252L14.3501 23.6575Z" fill="#8F554D"/>
<path fill-rule="evenodd" clip-rule="evenodd" d="M12.5656 23.5962C12.7854 24.1432 12.6985 23.7495 12.4224 23.8978C12.6116 24.455 12.6167 24.409 12.4889 24.8742C11.262 24.5981 11.8908 23.453 11.175 23.4479C11.4358 24.409 11.763 25.2474 12.8825 25.0838C12.9132 24.7924 12.9337 24.5981 12.9081 24.2965C12.857 23.7649 12.8621 23.8109 12.5656 23.5962Z" fill="#F5B79A"/>
<path fill-rule="evenodd" clip-rule="evenodd" d="M12.5656 23.5962C12.7854 24.1432 12.6985 23.7495 12.4224 23.8978C12.6116 24.455 12.6167 24.409 12.4889 24.8742C11.262 24.5981 11.8908 23.453 11.175 23.4479C11.4358 24.409 11.763 25.2474 12.8825 25.0838C12.9132 24.7924 12.9337 24.5981 12.9081 24.2965C12.857 23.7649 12.8621 23.8109 12.5656 23.5962Z" fill="#F5B79A"/>
<path fill-rule="evenodd" clip-rule="evenodd" d="M12.4227 23.8976C12.6988 23.7494 12.7857 24.143 12.5659 23.596C12.4125 23.1155 12.0598 22.9417 11.707 22.5225C11.3185 22.0624 11.2111 21.7557 10.9657 21.2087C10.8942 21.3518 10.8584 21.2342 10.8942 21.541C11.0066 22.456 12.0189 23.279 12.2438 23.5346C12.5454 23.872 12.3307 23.5807 12.4227 23.8976Z" fill="#F7E7CA"/>
<path fill-rule="evenodd" clip-rule="evenodd" d="M12.4227 23.8976C12.6988 23.7494 12.7857 24.143 12.5659 23.596C12.4125 23.1155 12.0598 22.9417 11.707 22.5225C11.3185 22.0624 11.2111 21.7557 10.9657 21.2087C10.8942 21.3518 10.8584 21.2342 10.8942 21.541C11.0066 22.456 12.0189 23.279 12.2438 23.5346C12.5454 23.872 12.3307 23.5807 12.4227 23.8976Z" fill="#F7E7CA"/>
<path fill-rule="evenodd" clip-rule="evenodd" d="M31.3935 25.8148L31.0356 27.1746L31.5213 26.689L32.0837 24.9662C32.0121 24.9714 31.9661 24.9714 31.9558 25.0225L31.6951 25.3701C31.5929 25.5286 31.4957 25.6768 31.3935 25.8148Z" fill="#4F514F"/>
<path fill-rule="evenodd" clip-rule="evenodd" d="M31.3935 25.8148L31.0356 27.1746L31.5213 26.689L32.0837 24.9662C32.0121 24.9714 31.9661 24.9714 31.9558 25.0225L31.6951 25.3701C31.5929 25.5286 31.4957 25.6768 31.3935 25.8148Z" fill="#4F514F"/>
<path fill-rule="evenodd" clip-rule="evenodd" d="M14.7538 26.6992C14.7743 26.7452 14.8254 26.7503 14.8459 26.8168C15.1066 27.737 14.5596 26.3209 15.0964 27.0519L15.0504 25.9784C14.8459 25.5899 14.5391 25.2065 14.3091 24.8998L14.7538 26.6992Z" fill="#AD564D"/>
<path fill-rule="evenodd" clip-rule="evenodd" d="M14.7538 26.6992C14.7743 26.7452 14.8254 26.7503 14.8459 26.8168C15.1066 27.737 14.5596 26.3209 15.0964 27.0519L15.0504 25.9784C14.8459 25.5899 14.5391 25.2065 14.3091 24.8998L14.7538 26.6992Z" fill="#AD564D"/>
<path fill-rule="evenodd" clip-rule="evenodd" d="M11.425 32.7673C11.7778 32.5066 11.4608 32.9973 11.8085 32.4299C11.9721 32.1692 11.8698 32.3788 11.9056 32.0261C11.4557 32.2408 11.5222 32.2766 11.425 32.7673Z" fill="#908A75"/>
<path fill-rule="evenodd" clip-rule="evenodd" d="M11.425 32.7673C11.7778 32.5066 11.4608 32.9973 11.8085 32.4299C11.9721 32.1692 11.8698 32.3788 11.9056 32.0261C11.4557 32.2408 11.5222 32.2766 11.425 32.7673Z" fill="#FDA66B"/>
<path fill-rule="evenodd" clip-rule="evenodd" d="M34.7827 32.905C34.8083 32.1791 34.839 32.2098 34.3635 31.99L34.7827 32.905Z" fill="#B28A73"/>
<path fill-rule="evenodd" clip-rule="evenodd" d="M34.7827 32.905C34.8083 32.1791 34.839 32.2098 34.3635 31.99L34.7827 32.905Z" fill="#FDA66B"/>
<path d="M8.14883 37.0715L7.87277 37.6901L9.33487 38.2677L9.16617 38.6409C9.05881 38.8914 8.88499 38.9527 8.44023 38.7738L6.98835 38.1962C6.40044 37.9661 6.32376 37.8128 6.53336 37.3425L6.93212 36.4581C7.16728 35.9366 7.42289 35.8549 7.95456 36.0644L9.25819 36.5859C9.79497 36.7955 9.91256 36.9744 9.79497 37.2402L10.6794 37.5878C11.0679 36.7239 10.6947 36.3354 9.80009 35.9827L8.02614 35.2772C7.05992 34.8938 6.51291 35.0676 6.09371 35.998L5.61316 37.0715C5.23485 37.915 5.54158 38.4415 6.44645 38.7994L8.24085 39.5099C9.19173 39.8882 9.70295 39.7656 10.0813 38.9323L10.4954 38.0019L8.14883 37.0715ZM10.5823 40.3585L14.534 41.3912L14.7385 40.7062L11.7121 39.9138L11.9575 39.0754L14.8868 39.8473L15.0759 39.2083L12.1466 38.4415L12.3818 37.6441L15.4082 38.4364L15.6076 37.7514L11.6558 36.7137L10.5823 40.3585ZM16.1853 37.915L15.6178 41.657L16.5687 41.7848L17.0237 38.7892L17.1566 38.8045L19.089 42.1222L20.7198 42.342L21.2873 38.6L20.3364 38.4722L19.8814 41.473L19.7485 41.4525L17.7854 38.1297L16.1853 37.915ZM21.8905 42.3573L25.9906 42.2244L25.9599 41.5139L22.821 41.6161L22.7903 40.7522L25.8321 40.6499L25.8065 39.9905L22.7647 40.0927L22.7341 39.2646L25.873 39.1623L25.8474 38.4466L21.7474 38.5847L21.8905 42.3573ZM27.3658 38.9221L29.334 38.554C29.7532 38.4722 29.9117 38.6256 29.9935 39.0192C30.0804 39.4179 29.9781 39.6071 29.5743 39.6838L27.606 40.0569L27.3658 38.9221ZM31.5169 41.2276L31.3533 40.4608C31.2664 40.062 30.9852 39.9649 30.566 39.9138C30.8216 39.6991 31.0568 39.4077 30.9341 38.8403C30.7092 37.7872 30.0753 37.6441 29.2573 37.8025L26.2666 38.3649L27.0539 42.0711L27.9997 41.8922L27.7645 40.7931L29.5896 40.4506C30.1366 40.3432 30.3718 40.4659 30.4485 40.8289L30.5711 41.4065L31.5169 41.2276ZM33.2704 40.7419L33.4391 39.6838L35.6987 38.9732L36.5065 39.7247L37.5749 39.3873L34.298 36.4325L32.9483 36.8568L32.202 41.0742L33.2704 40.7419ZM33.5669 38.8914L33.8481 37.322L33.889 37.3067L35.0904 38.4109L33.5669 38.8914ZM38.2446 39.1061L41.3682 37.7463L41.0308 37.0664L38.7814 38.0479L37.4318 35.2976L36.5576 35.6759L38.2446 39.1061Z" fill="white"/>
<path fill-rule="evenodd" clip-rule="evenodd" d="M20.9749 16.3114C20.4125 15.7695 19.932 15.3248 19.3338 14.9618C18.8124 14.6449 18.2654 14.3228 17.5803 14.0314C18.1836 14.0314 18.8533 14.3893 19.4514 14.7931C20.3 15.3657 20.4176 15.4884 20.9749 16.3114Z" fill="#F0A996"/>
<path fill-rule="evenodd" clip-rule="evenodd" d="M24.7017 16.3115C25.264 15.7696 25.7446 15.3248 26.3427 14.9619C26.8641 14.6449 27.406 14.3229 28.0962 14.0315C27.4878 14.0315 26.8232 14.3893 26.22 14.7932C25.3765 15.3657 25.2589 15.4884 24.7017 16.3115Z" fill="#F0A996"/>
<path d="M12.7847 42.3775L12.6058 43.0114L11.6447 42.7405L11.8185 42.1117L11.4555 42.0095L11.0159 43.5891L11.3788 43.6913L11.5629 43.0216L12.5291 43.2875L12.3451 43.9623L12.708 44.0594L13.1477 42.4798L12.7847 42.3775ZM14.3746 42.7712L14.0168 44.3763L14.3848 44.4581L14.7427 42.8581L14.3746 42.7712ZM17.6362 44.1156L16.7211 43.9674L16.6751 44.2536L17.2068 44.3405C17.1608 44.5041 17.0074 44.7035 16.6291 44.6421C16.2355 44.5757 16.0668 44.2894 16.1179 43.9776C16.169 43.6709 16.3888 43.451 16.7723 43.5124C17.0534 43.5584 17.1812 43.6964 17.2324 43.8651L17.6209 43.9265C17.5749 43.5277 17.2324 43.2977 16.8183 43.2312C16.3531 43.1546 15.8367 43.3284 15.7396 43.9162C15.6425 44.5092 16.0668 44.8364 16.5831 44.9233C17.1455 45.0153 17.5749 44.7751 17.6362 44.1156ZM20.2639 43.7015L20.1975 44.3508L19.2006 44.2536L19.267 43.6044L18.8887 43.5635L18.7302 45.1994L19.1086 45.2351L19.175 44.545L20.1719 44.6421L20.1003 45.3323L20.4786 45.3732L20.6371 43.7373L20.2639 43.7015ZM24.323 44.4274C24.0317 44.3968 23.7607 44.3968 23.7556 44.2434C23.7505 44.1309 23.8272 44.0389 24.1646 44.0236C24.4662 44.0134 24.6042 44.1156 24.6247 44.2332L24.9876 44.2179C24.9723 43.9316 24.7371 43.7169 24.1595 43.7373C23.5562 43.7578 23.3824 44.0134 23.3926 44.2843C23.4028 44.5399 23.546 44.6728 23.9959 44.7291C24.4457 44.7904 24.7014 44.7648 24.7065 44.9335C24.7116 45.0562 24.5787 45.1431 24.2668 45.1534C23.9703 45.1636 23.7709 45.0869 23.7556 44.9131L23.3619 44.9284C23.3722 45.2607 23.6789 45.4652 24.2464 45.4447C24.8292 45.4243 25.1154 45.2249 25.1052 44.8671C25.0899 44.5041 24.778 44.4735 24.323 44.4274ZM27.6409 45.0716L28.0857 45.0153L27.2217 44.1207L27.83 43.3897L27.3444 43.4562L26.6236 44.3405L26.5213 43.5686L26.1481 43.6197L26.3679 45.2505L26.7411 45.1994L26.6849 44.7648L26.9916 44.3968L27.6409 45.0716ZM28.9496 43.1954L29.2717 44.8057L29.6449 44.7342L29.3228 43.1239L28.9496 43.1954ZM32.2982 43.8447L31.2655 44.0901L30.9485 42.7763L30.5804 42.8632L30.9587 44.4581L32.3646 44.1258L32.2982 43.8447ZM34.9003 43.1085L33.8778 43.405L33.5046 42.1066L33.1417 42.2139L33.5967 43.7884L34.9821 43.3897L34.9003 43.1085Z" fill="white"/>
</g>
<defs>
<clipPath id="clip0_1_2308">
<rect width="46" height="48" fill="white"/>
</clipPath>
</defs>
</svg>
