<svg width="116" height="117" viewBox="0 0 116 117" fill="none" xmlns="http://www.w3.org/2000/svg">
<mask id="mask0_1_16097" style="mask-type:alpha" maskUnits="userSpaceOnUse" x="0" y="0" width="116" height="117">
<rect width="115.58" height="116.195" fill="#D9D9D9"/>
</mask>
<g mask="url(#mask0_1_16097)">
<path fill-rule="evenodd" clip-rule="evenodd" d="M60.3878 2.87964L71.0312 29.0567L87.3407 59.0549L114.358 59.6309L94.2927 88.1718L99.0114 97.6171L92.7295 100.789L95.2282 108.794L87.0057 108.411L84.6364 113.084L72.5829 110.575L57.3325 119.541L41.8666 110.362L29.8731 113.52L28.0128 108.59L19.4013 107.876L22.3488 101.202L15.9671 97.3952L20.513 88.0531L0.000183105 59.5312L29.5178 59.5405L47.4365 30.0603L60.3878 2.87964Z" fill="#E7B117"/>
<path fill-rule="evenodd" clip-rule="evenodd" d="M42.4918 44.8258L49.7724 33.221L50.7206 30.5841L59.3754 10.3652H61.2027L68.201 30.3877C68.807 31.4691 84.7569 61.5579 85.1016 61.5997C91.6382 62.3938 93.5974 62.1761 109.701 62.1321L107.874 64.8632C104.343 69.468 99.4715 77.2398 95.9871 82.1389L92.0674 86.9729C91.7225 87.4728 91.4711 88.1301 91.8457 88.6272C91.9606 89.0563 94.5168 96.7965 95.1212 97.2964C94.8069 98.2066 90.0218 98.4166 89.301 99.4894L89.9657 99.9237L91.194 104.876L85.6158 106.858C85.3656 107.84 84.0522 109.609 83.5641 110.303C81.4722 109.853 76.236 107.841 73.4329 107.188C71.8204 106.812 72.2613 105.819 71.1155 106.862L69.1122 108.354C66.7905 110.016 63.0841 112.34 60.3947 113.735C59.8927 113.995 59.3905 114.286 58.9042 114.571C57.291 115.517 57.9752 115.368 55.7162 114.213C53.6136 113.138 50.0236 111.561 48.0009 110.291L42.8295 107.356C37.1368 107.862 34.2146 109.775 32.0942 110.082L29.4027 106.262L24.2487 105.58L24.649 104.373C24.9082 104.117 24.4144 103.53 24.5296 103.176L24.9918 100.138C25.1238 99.6584 23.7516 98.8606 24.0085 98.7111C28.078 100.575 24.2729 99.3033 23.9197 99.0899C23.0382 98.5572 20.2842 97.0454 19.6701 96.4329L22.8309 88.913C23.4078 87.6719 23.2377 87.3169 22.7246 86.9493C22.4487 86.3535 21.6067 85.9905 21.2378 85.4734C20.8153 84.8815 18.6537 81.9725 18.2574 81.4444L7.02505 65.3955C6.59356 64.8207 6.05385 62.8521 5.69525 62.3048C7.0362 62.1277 21.3966 62.3379 24.2401 62.3048L30.6582 62.1036C30.8848 62.7864 31.4461 61.5459 31.5213 61.7557C31.6441 62.1025 31.4961 60.874 31.506 61.5475L32.1905 60.7028C32.2347 60.1831 34.8941 55.8572 35.5295 54.7476L38.1283 50.7912L42.4918 44.8258Z" fill="#111D29"/>
<path fill-rule="evenodd" clip-rule="evenodd" d="M60.2727 2.87036C65.675 12.9499 67.4317 23.6706 72.8825 33.8912C77.333 42.236 86.3286 58.9321 87.3405 59.0549C92.4899 59.6805 92.7969 59.7332 101.631 59.6811C103.854 59.668 106.488 59.6524 109.701 59.6437L114.358 59.631L109.925 66.2589L109.828 66.3858C107.776 69.0616 105.237 72.8674 102.794 76.5281C101.1 79.0668 99.452 81.5367 97.9894 83.5931L97.9023 83.72L94.2925 88.1719C96.3671 92.396 96.3358 92.1721 98.3921 97.6172C95.3582 99.4163 95.9342 98.8664 92.7293 100.789L95.228 108.35L87.0056 108.411C86.2489 109.862 85.5863 111.733 84.6362 113.084C81.0524 112.313 75.7413 111.273 72.5827 109.951C70.9951 111.133 57.3376 118.917 57.3323 118.916C57.2454 118.906 44.8142 111.345 42.3042 109.92C36.7236 111.132 35.3551 111.733 29.8729 113.52L28.0126 108.59L20.0202 107.876C20.9949 105.001 21.2585 103.883 22.3487 101.202C19.9223 99.6666 19.68 99.4162 16.586 97.3953L20.5128 88.0531C20.1359 87.2383 17.0682 83.7519 16.2354 82.5757C10.9155 74.9746 5.8726 68.1659 1.23828 60.1355C9.94495 58.9856 20.4695 59.9333 29.5739 59.6471C29.7487 59.4303 29.9612 59.2622 30.2041 59.1378C30.8184 57.8314 31.8935 56.0266 32.6803 54.7058C37.686 46.3016 43.3452 39.037 48.0555 30.0604C52.5432 21.5081 56.0968 11.252 60.2727 2.87046L60.2727 2.87036ZM95.1211 97.2965C94.8068 98.2067 90.0217 98.4167 89.3009 99.4895L89.9656 99.9239L91.1938 104.876L85.6157 106.858C85.3654 107.84 84.052 109.609 83.5639 110.303C81.4721 109.853 76.2358 107.841 73.4327 107.188C71.8203 106.812 72.2612 105.819 71.1154 106.863L69.1121 108.354C66.7904 110.016 63.084 112.341 60.3946 113.735C59.8926 113.995 59.3904 114.286 58.9041 114.571C57.2908 115.517 57.9751 115.369 55.7161 114.213C53.6135 113.138 50.0235 111.561 48.0008 110.291L42.8293 107.356C37.1367 107.862 34.2144 109.775 32.094 110.082L29.4026 106.263L24.2486 105.58L24.6489 104.373C24.9081 104.117 24.4143 103.531 24.5295 103.176L24.9917 100.138C25.0564 99.9029 24.7596 99.5913 24.4704 99.3171C24.2072 99.2211 23.9915 99.1335 23.9195 99.09C23.038 98.5574 20.2841 97.0455 19.6699 96.433L22.8307 88.9132C23.4077 87.672 23.2375 87.317 22.7244 86.9494C22.4485 86.3536 21.6065 85.9906 21.2376 85.4735C20.8151 84.8816 18.6535 81.9726 18.2572 81.4446L7.02488 65.3956C6.59339 64.8208 6.05368 62.8522 5.69508 62.3049C7.03603 62.1278 21.3964 62.3381 24.2399 62.3049L30.658 62.1038C30.8846 62.7865 31.4459 61.546 31.5212 61.7558C31.5869 61.9416 31.575 61.6754 31.5512 61.4916L32.1903 60.7029C32.2345 60.1832 34.8939 55.8573 35.5293 54.7477L38.1281 50.7914L42.4916 44.8259L49.7722 33.2211L50.7204 30.5842L59.3752 10.3653H61.2025L68.2008 30.3878C68.8068 31.4692 84.7567 61.558 85.1014 61.5999C91.638 62.3939 93.5972 62.1763 109.701 62.1322L107.874 64.8633C104.343 69.4681 99.4713 77.2399 95.9869 82.139L92.0672 86.973C91.7223 87.4729 91.4709 88.1303 91.8455 88.6273C91.9604 89.0564 94.5166 96.7967 95.1211 97.2965H95.1211ZM24.4704 99.3171C24.1698 99.032 23.8775 98.7874 24.0084 98.7112C27.2479 100.195 25.4975 99.6919 24.4704 99.3171ZM31.5513 61.4916C31.5307 61.3322 31.5013 61.2349 31.506 61.5475L31.5513 61.4916Z" fill="#E7B117"/>
<path fill-rule="evenodd" clip-rule="evenodd" d="M42.4918 44.8258L49.7724 33.221L50.7206 30.5841L59.3754 10.3652H61.2027L68.201 30.3877C76.3249 44.8841 79.8484 51.3521 82.3356 55.6796C83.1732 57.137 83.7012 61.4296 85.1016 61.5998C91.6382 62.3938 93.5974 62.1762 109.701 62.1321L107.874 64.8633C104.343 69.468 99.4715 77.2398 95.9871 82.1389L92.0674 86.973C91.7225 87.4729 91.4711 88.1302 91.8457 88.6273C91.9606 89.0563 94.5168 96.7966 95.1212 97.2965C94.8069 98.2066 90.0218 98.4167 89.301 99.4894L89.9657 99.9238L91.194 104.876L85.6158 106.858C85.3656 107.84 84.0522 109.609 83.5641 110.303C81.4722 109.853 76.236 107.841 73.4329 107.188C71.8204 106.812 72.2613 105.819 71.1155 106.863L69.1122 108.354C66.7905 110.016 63.0841 112.341 60.3947 113.735C59.8927 113.995 59.3905 114.286 58.9042 114.571C57.291 115.517 57.9752 115.369 55.7162 114.213C53.6136 113.138 50.0236 111.561 48.0009 110.291L42.8295 107.356C37.1368 107.862 34.2146 109.775 32.0942 110.082L29.4027 106.263L24.2487 105.58L24.649 104.373C24.9082 104.117 24.4144 103.53 24.5296 103.176L24.9918 100.138C25.1238 99.6584 23.7516 98.8606 24.0085 98.7112C28.078 100.575 24.2729 99.3034 23.9197 99.0899C23.0382 98.5573 20.2842 97.0454 19.6701 96.4329L22.8309 88.9131C23.4078 87.672 23.2377 87.3169 22.7246 86.9493C22.4487 86.3536 21.6067 85.9905 21.2378 85.4735C20.8153 84.8815 18.6537 81.9726 18.2574 81.4445L7.02505 65.3955C6.59356 64.8207 6.05385 62.8521 5.69525 62.3048C7.0362 62.1278 21.3966 62.338 24.2401 62.3048L30.6582 62.1037C30.8848 62.7864 31.4461 61.5459 31.5213 61.7557C31.6441 62.1025 31.4961 60.8741 31.506 61.5475L32.1905 60.7028C32.2347 60.1831 34.8941 55.8572 35.5295 54.7476L38.1283 50.7913L42.4918 44.8258V44.8258Z" fill="#111D29"/>
<path fill-rule="evenodd" clip-rule="evenodd" d="M52.5011 33.1774C53.1394 33.5869 52.2595 33.7178 52.3588 34.2929C52.2595 35.3801 52.0986 34.6007 51.563 35.6813C50.6834 37.4559 51.5502 37.8365 50.835 39.6509C49.4623 43.1333 46.9161 47.0867 45.88 50.6351C45.5947 51.6123 45.9573 52.5933 45.738 53.3984C45.4185 54.5714 45.8817 53.532 45.2705 54.5743C45.1792 54.3843 44.6574 55.0057 44.5316 54.8241C43.7627 53.7144 44.2254 55.2946 43.0381 57.6607C42.68 58.3745 43.0691 59.6708 42.5879 60.1247C42.9367 61.2203 45.4851 62.3604 46.3948 63.079L46.5671 63.2607L46.9215 63.3259C48.0643 63.3222 48.6289 63.9128 49.314 63.8467C49.8818 63.7918 49.9827 63.0306 50.247 62.0697C50.3998 61.5138 51.7111 56.46 51.9949 56.1207L52.1452 55.9534C52.4595 55.5751 52.9139 55.4113 53.4043 55.1302C54.3591 54.5828 54.619 54.791 54.7832 52.3049L55.6915 47.0032C56.1887 45.5216 56.675 41.7747 57.1291 40.016C57.4295 38.8523 57.8376 37.9575 57.9686 36.6921C58.5609 30.9717 59.986 14.8564 59.9634 14.8887C58.7408 16.6288 53.437 31.8121 53.3853 31.7542C52.7909 32.0091 53.1014 31.7491 52.8016 32.3151C52.7289 32.4525 52.7228 32.4496 52.6395 32.6659C52.4367 33.1928 52.5691 32.7035 52.5011 33.1775L52.5011 33.1774Z" fill="#252E73"/>
<path fill-rule="evenodd" clip-rule="evenodd" d="M52.7776 88.7809C50.8417 88.817 48.5203 89.8326 46.6652 90.391C45.3291 90.7932 41.7709 92.0725 40.511 92.1723L40.4639 91.8219L39.658 92.0514C39.6277 92.0592 39.5869 92.0689 39.5598 92.076C39.5328 92.0831 39.4846 92.0973 39.4628 92.1032L39.2705 92.162C39.5865 92.5145 39.7424 93.9032 39.8881 94.4179C40.0879 95.1235 40.5179 95.9776 40.5071 96.6469C40.862 96.9562 40.7727 97.1593 40.9978 97.6173C41.1522 97.1697 41.2931 96.7767 41.4382 96.3056C41.5926 95.8041 41.7147 95.2209 42.0346 94.8933C42.0347 94.8909 42.3713 92.5113 43.2698 92.164L45.4067 91.6429C45.0811 92.3753 45.0419 92.1305 44.9882 93.0824C45.4187 92.9171 45.3866 92.7326 45.8974 93.1481C46.0888 93.3038 46.0133 93.2456 46.0749 93.331L46.3635 93.8626C46.3596 93.2021 47.8023 92.5065 48.7628 91.8597C49.1948 91.5687 49.6296 91.2908 50.0658 90.9628C50.568 90.5851 50.8834 90.2794 51.2685 89.9635C51.8898 90.1669 52.3587 90.5688 52.92 90.895C53.7933 91.4025 54.0295 90.8601 54.8469 90.5659L54.7552 92.0853L54.898 94.5254L55.2655 94.4206C55.2771 94.4143 55.3115 94.3852 55.3203 94.3795C55.5949 94.2034 55.273 94.5932 55.415 94.275C55.6157 94.6557 55.4861 94.6127 55.8092 94.9297C56.0821 94.5451 55.7537 94.7498 56.2924 94.6451C56.5742 94.2623 56.6947 93.9011 57.0077 93.6455C57.1329 92.2835 58.6021 91.8218 58.4407 90.043L63.3339 90.6594C63.5257 91.0548 64.3736 92.6034 64.5928 92.8088C64.7038 92.7417 64.7899 91.9972 64.796 94.0007C64.7977 94.5385 64.8476 94.7767 65.0136 95.0921C65.4706 94.8121 64.7919 95.0023 65.3352 94.8414C65.7604 94.7156 65.4532 94.8499 65.4635 94.8524C65.6981 94.9106 65.5095 94.8877 65.4968 94.9035C65.6674 94.2535 65.6629 94.0554 65.6507 93.2136C65.6352 92.1517 65.3555 91.1418 65.7908 91.7878C66.6649 91.8528 70.747 93.285 71.0492 93.7426C71.3668 93.9212 71.3894 93.8455 71.3187 94.8805C71.384 94.1241 71.2015 94.6509 71.6355 94.4567C71.6606 94.4899 71.6791 94.5389 71.6921 94.5685L71.7889 94.7857C71.8011 94.8185 71.8127 94.8568 71.8231 94.8884C71.8771 95.0533 71.8119 95.0225 71.9409 95.2286L71.986 93.431C72.3335 93.2532 72.4125 93.1414 72.8351 93.1104L73.0482 92.7833L72.7616 92.743L72.8678 92.1131L71.9542 91.9734C71.9871 91.9544 72.034 91.9442 72.0625 91.9381L72.4072 91.8781C74.5726 91.7614 72.2647 92.1318 75.2442 91.5218C74.8709 91.054 75.2238 91.2842 74.619 91.1254L71.3535 90.8238C70.7727 90.7242 70.174 90.5209 69.7468 90.3833C69.148 90.1904 68.6906 90.0125 68.1974 89.8716C67.5684 89.6919 67.0776 89.483 66.5585 89.3159C66.2488 89.2161 66.0467 89.1308 65.7888 89.0366C65.5252 88.9404 65.3001 88.8779 64.9879 88.7915C62.6449 88.1437 62.3066 87.866 61.8161 88.6956C61.5545 87.9366 58.9304 86.2911 57.3357 86.4689C56.2774 86.5869 55.7007 86.9596 54.9538 87.4276L53.3035 88.3759C52.8888 88.7186 53.4461 88.4738 52.7777 88.7806L52.7776 88.7809Z" fill="#222749"/>
<path fill-rule="evenodd" clip-rule="evenodd" d="M10.8677 64.9383L10.7222 64.376L11.9756 64.3741C11.9457 64.3561 11.8974 64.3018 11.8798 64.3317L9.46185 64.1479C9.65232 64.9691 12.8995 69.0208 13.4504 69.7242C15.6114 72.4836 17.4154 75.173 19.4319 77.865L25.4507 86.1138L27.0529 85.8964C26.729 85.1496 25.7102 83.7178 25.2375 83.0645C24.5713 82.1436 24.0322 81.2462 23.3257 80.3135C21.3524 77.7086 15.826 70.5781 14.4441 68.2102C13.5627 66.6999 11.1223 64.9144 10.8677 64.9383H10.8677Z" fill="#248BA7"/>
<path fill-rule="evenodd" clip-rule="evenodd" d="M36.154 64.166C35.6713 64.4532 25.6855 64.4204 24.1994 64.4305C22.1372 64.4445 20.0742 64.4394 18.012 64.4231C16.7307 64.413 12.942 64.1891 11.976 64.3742L10.7227 64.376L10.8681 64.9383C12.7675 64.6603 20.7401 66.6958 22.0203 67.4796C22.9015 67.6555 24.3171 68.3411 25.1698 68.6903C26.2103 69.1164 27.1127 69.575 28.1285 69.9979C29.4144 70.5334 33.2103 72.3946 34.4081 72.4307C33.7989 71.7725 33.0352 71.5489 32.0402 71.1585L29.2116 69.8686C28.576 69.679 27.2384 69.013 26.5931 68.6941C25.7168 68.2609 24.867 67.8488 23.9872 67.4628C23.0072 67.132 17.3978 64.8393 16.6653 65.239L24.8663 65.2498C27.6206 65.2217 30.6646 65.0176 33.3766 65.1247C34.1043 65.165 34.8689 65.113 35.5714 65.0678C35.9557 65.043 36.3237 65.0273 36.7085 65.0194C37.3534 65.0062 37.5864 65.1361 37.7584 64.6359L37.2337 63.573L37.0163 64.2008L36.1541 64.1661L36.154 64.166Z" fill="#2ED5EF"/>
<path fill-rule="evenodd" clip-rule="evenodd" d="M41.5664 59.152C41.9786 59.399 42.267 59.8192 42.5881 60.1983C43.0693 59.7444 43.5937 58.448 43.9518 57.7343C45.139 55.3682 45.0548 55.0912 45.8237 56.2009C45.9495 56.3825 46.0837 56.542 46.175 56.732C46.7862 55.6896 46.3322 54.645 46.6517 53.472C46.8711 52.6668 47.4219 51.6858 47.7072 50.7086C48.7433 47.1602 50.3839 43.2068 51.7566 39.7245C52.4718 37.91 52.5105 37.5295 53.3901 35.7548C53.9257 34.6742 53.1732 35.4536 53.2724 34.3665C52.8279 34.7771 48.3109 45.5802 47.7061 47.0874C47.0695 48.6738 47.2248 48.7253 46.4154 50.3495C45.8999 51.3839 45.4381 52.4007 44.9133 53.3898C43.7534 55.5758 42.5785 57.3243 41.5663 59.152H41.5664Z" fill="#2F50AF"/>
<path fill-rule="evenodd" clip-rule="evenodd" d="M65.5784 34.4708C66.2416 35.0616 70.6013 46.2814 71.4716 48.1155C71.9366 49.0955 73.3718 51.8054 73.5627 52.7475L74.6174 54.9661C74.8067 55.498 74.6107 55.4415 74.9205 55.8294C75.6998 56.8052 76.8185 56.1333 75.2747 58.602L75.5302 58.5833L76.1788 58.1717C76.1527 59.9069 76.5976 62.3365 76.5747 62.791C76.5472 63.3382 76.643 63.1731 76.337 63.3979C76.2204 64.341 75.2733 64.8629 74.8944 65.642C75.4212 65.6067 75.0856 65.6337 75.4421 65.4584L75.7434 65.3095C76.0065 64.7404 76.55 64.3491 76.959 63.8604C77.5973 63.0978 77.4449 62.8537 77.3491 61.7115C77.2285 60.2739 77.1804 58.1506 76.9338 56.8193L75.6223 55.35C75.4784 55.089 75.5724 55.5107 75.4981 55.0223C75.2552 54.56 75.1036 54.6624 75.123 53.8665C74.3713 52.8631 66.254 34.1267 65.828 31.9497L65.2921 30.7104L61.7062 18.3091C61.4109 19.0776 64.2579 30.9482 64.7266 32.1775C64.9628 32.797 65.5584 33.8399 65.5783 34.4707L65.5784 34.4708Z" fill="#37D8EB"/>
<path fill-rule="evenodd" clip-rule="evenodd" d="M41.5669 59.152C42.5792 57.3244 43.754 55.5758 44.9139 53.3898C45.4387 52.4008 45.9006 51.384 46.4161 50.3496C47.2255 48.7253 47.0701 48.6739 47.7067 47.0875C48.3115 45.5802 52.8285 34.7772 53.273 34.3665C53.1738 33.7913 53.1402 33.6605 52.5018 33.251L46.8457 46.2315C45.9587 48.4057 45.0174 50.722 44.0256 52.751C43.3367 54.1603 41.2443 57.8859 41.2618 59.3873L41.5669 59.1521L41.5669 59.152Z" fill="#28E7F9"/>
<path fill-rule="evenodd" clip-rule="evenodd" d="M39.2559 80.4489C39.5035 82.0071 39.2796 82.1363 39.9848 83.5253C40.5036 84.547 40.9879 84.9628 41.5226 85.7519L41.9654 85.6542C41.474 85.0384 40.5363 83.4678 40.3413 82.4398C41.5742 84.1277 41.7728 85.8879 43.8046 86.7091C45.7738 87.5051 48.4183 87.4008 50.2455 86.483C50.0402 86.0902 50.2926 86.2945 49.0282 85.8482C47.703 85.3805 46.4351 85.071 45.1574 84.4083C44.1229 83.8718 41.6977 81.4428 41.7282 81.0972C41.3288 80.8362 40.8972 80.5523 40.3627 80.3907C40.4568 81.0263 40.527 80.9669 40.7227 81.5054C40.0736 80.9116 40.2864 80.283 39.5374 79.8052L39.2559 80.4489V80.4489Z" fill="#E7E5E8"/>
<path fill-rule="evenodd" clip-rule="evenodd" d="M72.9701 85.9724C72.0702 86.719 70.5074 87.1571 69.0639 87.2486C67.8251 87.3271 65.1443 87.4265 64.6456 86.4635C64.2692 86.2791 64.3692 86.5395 64.1993 86.0265C64.1402 85.8481 64.156 85.5588 64.15 85.3686C66.1443 83.9148 66.4263 84.4466 69.1568 83.5676C70.6405 83.0899 72.6499 82.0122 74.0551 81.7473C73.9553 83.134 73.4614 83.2742 73.1665 84.305C73.8618 84.076 74.0364 83.5578 74.419 83.1481C74.6025 82.9516 75.3338 82.28 75.5606 82.2018C75.2905 82.6936 74.3734 85.7235 72.9701 85.9724H72.9701ZM76.255 80.6824L75.0313 80.7945C76.1741 80.0919 77.1886 79.3538 77.2509 77.5081C76.0468 78.6893 76.0357 79.2158 74.44 80.1748C73.3818 80.8107 71.8212 81.5169 70.5501 81.9769C69.1974 82.4664 67.749 82.9755 66.3244 83.2998C63.1886 84.0134 61.6752 84.2682 64.3717 87.0205C64.8765 87.5357 65.5618 87.7486 66.4039 87.87C67.4518 88.021 70.262 87.5582 71.3616 87.2532C73.5826 86.6373 76.3637 83.9336 76.255 80.6824L76.255 80.6824Z" fill="#714C35"/>
<path fill-rule="evenodd" clip-rule="evenodd" d="M76.8204 64.9191L82.1441 65.1068L99.3435 65.1563C97.7397 65.4519 92.9062 65.9273 91.0613 67.0417C90.6003 67.3201 90.8166 67.1462 90.6488 67.5332C92.1067 67.5178 94.2627 66.0999 98.0124 65.9828C99.8209 65.842 101.712 65.0606 103.356 65.0549C103.515 64.9972 104.025 65.0197 104.156 65.0274L104.587 64.2368C102.624 64.4366 86.537 64.3984 83.5005 64.3632L78.0787 64.3212C77.1935 64.3102 76.8936 64.1234 76.8203 64.919L76.8204 64.9191Z" fill="#37D8EB"/>
<path fill-rule="evenodd" clip-rule="evenodd" d="M39.2569 80.449L39.5384 79.8054C40.2874 80.2832 40.0746 80.9118 40.7237 81.5055C40.5281 80.9671 40.4578 81.0264 40.3637 80.3908C40.8983 80.5525 41.3299 80.8364 41.7293 81.0974C42.5616 81.5622 43.2217 81.9519 44.169 82.4327C44.9623 82.8353 45.797 83.2178 46.6519 83.5618C47.6016 83.9439 52.1157 85.5089 50.2465 86.4832C48.4193 87.4009 45.7747 87.5052 43.8056 86.7092C41.7738 85.888 41.5752 84.1278 40.3423 82.4399C40.5373 83.4679 41.475 85.0385 41.9664 85.6543L41.5236 85.752C41.7403 86.2711 41.5016 85.9097 41.904 86.2943C44.0719 88.3662 49.7582 88.2118 51.3246 86.0058L49.7264 87.5433C49.7023 87.5618 49.6622 87.5919 49.6326 87.6192C49.9459 87.8763 49.7162 87.689 49.7776 87.7775C49.7991 87.8086 49.8331 87.8979 49.887 87.9884C51.235 87.7396 51.6025 86.6529 52.3683 85.7351C52.7165 85.3178 52.7968 85.1736 52.5182 84.5436C52.0249 83.4283 50.261 83.7283 47.7845 82.9437C45.8701 82.3372 43.0258 80.9228 41.2125 79.9462C40.8528 79.7525 40.5834 79.5897 40.303 79.3123C39.6398 78.6563 39.9231 78.6997 39.2383 78.519L39.2568 80.449L39.2569 80.449Z" fill="#8B5649"/>
<path fill-rule="evenodd" clip-rule="evenodd" d="M43.6636 64.8105C43.6544 64.0921 44.0109 63.6786 44.2936 63.3241C44.9104 63.3367 46.7589 64.0929 47.1854 64.4245L47.1941 66.2225C47.0404 66.9964 46.9844 67.4118 46.4345 67.6661C45.8624 67.9308 45.2607 67.7772 44.7407 67.5499C43.4585 66.9893 42.9135 66.4086 43.6636 64.8105ZM65.9896 64.7185C67.2936 64.5822 68.5109 63.4752 69.5169 63.3659C70.2972 67.3568 71.143 67.521 65.2345 69.0549C63.7519 69.4398 62.1061 69.7434 60.5569 69.9495C59.4604 70.0954 58.9512 70.2847 58.2965 69.6073C58.0653 69.3681 57.8221 69.1627 57.5612 68.916C56.7461 68.1448 56.5059 68.8281 56.5055 68.8285C58.2133 69.9868 57.5865 70.7707 60.7264 70.3955C62.4583 70.1887 64.094 69.8882 65.7323 69.4632C67.1367 69.0989 69.1133 68.6225 70.0282 67.7949C71.308 66.6374 70.2154 64.5757 70.0702 62.9223C71.4944 62.3787 75.0525 59.6628 75.5287 58.7113L75.5292 58.5837L75.2738 58.6024C74.7693 58.809 75.0897 58.6345 74.728 59.0116C74.0166 59.7536 71.5448 61.3721 70.7068 61.8569C69.9148 62.3151 69.0351 62.7706 68.1689 63.1724C65.8827 64.233 63.4726 64.935 61.0116 65.4762C59.2854 65.8558 57.7906 66.1554 55.8615 65.8154C53.9384 65.4765 47.9889 64.267 46.9214 63.3995L46.5671 63.3343C44.9199 62.8472 43.6156 61.8777 42.3806 61.0775C41.2612 60.3525 39.4494 59.3171 39.2797 57.7688C39.0827 58.5919 39.2108 58.9558 39.4386 59.5312C39.8635 60.2409 40.6477 60.841 41.4827 61.3507C42.0083 61.6716 43.5043 62.4365 43.7592 62.792L43.3732 63.1572C42.5914 66.0226 42.0754 67.0238 44.5683 67.9889C47.6906 69.1977 47.4233 66.8589 47.8037 64.5066L48.5427 64.8465L49.722 65.1698C50.5246 65.2858 51.4853 65.5671 52.334 65.7328C52.7729 65.8185 53.1891 65.9085 53.6489 65.984C55.0602 66.2159 56.5024 66.7008 57.9589 66.5285C60.7807 66.1947 63.2725 65.5145 65.9896 64.7186V64.7185Z" fill="#CD982D"/>
<path fill-rule="evenodd" clip-rule="evenodd" d="M74.391 57.4654C74.036 57.3521 74.1568 57.5113 73.8701 57.0254C73.1864 55.8666 72.0833 53.9562 72.4442 52.6345L72.9435 53.5802C73.0617 53.4298 72.977 53.6627 73.1453 53.2128C73.2148 53.027 73.2208 53.0218 73.255 52.7112C73.3733 52.8047 73.0426 52.888 73.5624 52.7479C73.3715 51.8059 71.9363 49.096 71.4713 48.116C70.6011 46.2818 66.2414 35.0621 65.5781 34.4712C65.7108 35.9377 67.1327 38.9275 67.6693 40.3614L70.5139 47.5132C70.6936 47.9242 71.0527 48.5874 71.142 48.952C71.5788 50.735 70.3269 51.0183 71.985 55.9554C72.2778 56.8273 72.5665 58.3898 72.8819 59.055L74.391 57.4654Z" fill="#116479"/>
<path fill-rule="evenodd" clip-rule="evenodd" d="M70.173 53.1609C70.1284 54.6969 69.6938 53.2003 69.5278 52.7162C68.9543 51.0445 64.9993 39.8298 64.6058 39.4136C64.4166 40.4104 65.512 43.4668 65.8266 44.6768C66.0621 45.5827 66.1648 46.4778 66.4597 47.3042C67.3965 49.9292 68.1572 51.6876 68.8663 54.6448C69.0915 55.5842 69.2386 56.3699 69.5334 57.2286C70.1726 59.0903 70.6438 58.4416 71.0731 58.6312C71.1325 57.5069 71.044 56.7878 70.8287 55.7839L70.1731 53.1609H70.173Z" fill="#164559"/>
<path fill-rule="evenodd" clip-rule="evenodd" d="M37.5294 90.049C36.8281 89.5703 34.8488 87.9972 35.1684 86.8535C35.2715 86.4843 35.1397 86.7556 35.3467 86.5065C35.6372 87.1346 35.0553 86.1997 35.4489 86.599L35.5966 86.7546C36.0768 87.3521 36.4272 88.7025 38.5693 89.3693C37.7651 88.7839 36.5452 87.3405 36.1515 85.9835C35.7095 84.4597 36.609 81.3781 36.3159 80.7226C35.8803 81.2248 35.7655 82.3146 35.3606 82.7864C35.2091 81.6094 35.4896 80.4493 35.5023 79.2212C34.8476 80.4694 32.9307 82.237 33.4952 85.62C33.9177 88.1516 35.4813 89.4349 37.5294 90.049L37.5294 90.049Z" fill="#564496"/>
<path fill-rule="evenodd" clip-rule="evenodd" d="M104.156 65.0274C104.025 65.0197 103.515 64.9972 103.356 65.0549C103.115 65.1238 103.188 65.0385 102.88 65.578C102.697 65.8974 102.638 65.987 102.423 66.2809C102.106 66.714 101.787 67.1089 101.479 67.5383L95.9159 75.4479C94.6852 77.1576 93.4534 78.9191 92.1655 80.6332C91.7368 81.2038 88.8489 85.2086 88.5791 85.8647C89.7796 85.9296 89.5996 85.6227 90.9116 83.7939L104.156 65.0275L104.156 65.0274Z" fill="#1A92AF"/>
<path fill-rule="evenodd" clip-rule="evenodd" d="M64.6442 86.4632C64.7032 85.3244 66.3727 85.1072 67.2692 84.9996C68.5716 84.8433 69.8503 84.8274 71.1598 84.7238C71.1399 84.7531 71.1034 84.7574 71.0911 84.8045L70.2854 85.4598C71.001 85.4686 73.0506 85.1705 73.3111 85.2379C73.3981 85.4751 73.4068 85.2043 73.2943 85.448C73.05 85.9771 72.8518 85.5902 72.9687 85.9722C74.3721 85.7232 75.2892 82.6934 75.5593 82.2016C75.3325 82.2799 74.6012 82.9513 74.4176 83.1479C74.035 83.5576 73.8604 84.0758 73.1652 84.3047C73.4601 83.274 73.9539 83.1338 74.0537 81.7471C72.6486 82.012 70.6391 83.0897 69.1554 83.5674C66.425 84.4464 66.1429 83.9145 64.1487 85.3683C64.1547 85.5586 64.1388 85.8479 64.198 86.0263C64.3678 86.5392 64.2679 86.2789 64.6442 86.4632H64.6442Z" fill="#C6A397"/>
<path fill-rule="evenodd" clip-rule="evenodd" d="M64.6062 39.4135C64.9998 39.8297 68.9547 51.0445 69.5282 52.7161C69.6943 53.2002 70.1289 54.6968 70.1735 53.1608C70.0941 50.8184 66.1166 41.3199 64.9403 37.5621C64.7052 36.8112 63.509 32.6623 63.1283 32.3711C62.2912 33.6938 64.5781 37.9681 64.6062 39.4135Z" fill="#31C8D9"/>
<path fill-rule="evenodd" clip-rule="evenodd" d="M64.6455 86.4635C65.1442 87.4266 67.825 87.3272 69.0638 87.2486C70.5074 87.1571 72.0701 86.7191 72.9701 85.9725C72.8532 85.5905 73.0513 85.9774 73.2956 85.4483C73.4081 85.2046 73.3995 85.4755 73.3124 85.2382C73.052 85.1707 71.0024 85.4688 70.2867 85.4601L71.0924 84.8048C71.1047 84.7577 71.1413 84.7533 71.1611 84.7241C69.8516 84.8277 68.573 84.8436 67.2705 84.9999C66.374 85.1075 64.7045 85.3247 64.6455 86.4635Z" fill="#E7E5E8"/>
<path fill-rule="evenodd" clip-rule="evenodd" d="M33.3763 65.1246C30.6643 65.0174 27.6203 65.2216 24.866 65.2497L16.665 65.2389C17.3975 64.8391 23.0069 67.1319 23.9868 67.4626C24.8667 67.8486 25.7165 68.2608 26.5928 68.6939C27.2381 69.0128 28.5757 69.6788 29.2113 69.8684L32.0399 71.1583C33.0349 71.5487 33.7986 71.7724 34.4078 72.4305C33.21 72.3944 29.4141 70.5333 28.1281 69.9978C27.1123 69.5748 26.2099 69.1162 25.1695 68.6901C24.3168 68.341 22.9012 67.6554 22.02 67.4794L21.7827 67.6465C22.684 68.1359 23.7258 68.624 24.7816 69.0773C25.732 69.4854 26.6964 70.0568 27.6968 70.5396L30.681 71.9621C31.6595 72.4421 32.6998 72.9045 33.6941 73.3515C37.7991 75.1966 42.0012 76.8258 46.5526 78.1897C49.6058 79.1047 54.2053 80.2298 57.4538 80.4568C60.33 80.6578 66.2124 79.3181 68.7886 78.5886C69.9455 78.261 71.0091 77.876 72.1085 77.5259L74.6662 76.7088C75.2982 76.5326 74.833 76.6174 75.3314 76.2569C75.2213 76.0231 75.4833 76.321 74.9209 75.9449C74.898 75.9296 74.8515 75.907 74.8221 75.881C76.5516 74.9915 78.6496 74.1371 80.467 73.2554L87.2916 69.764C88.1728 69.2995 87.9208 69.4148 88.6869 69.3074C89.4579 69.1993 93.4698 67.5455 94.7777 67.129C95.2942 66.9646 95.8149 66.854 96.3669 66.6683L98.0124 65.9828C94.2627 66.1 92.1067 67.5178 90.6488 67.5333C90.8165 67.1463 90.6003 67.3201 91.0613 67.0417C92.9062 65.9273 97.7397 65.4519 99.3434 65.1563L82.1441 65.1068L81.3991 65.2344L81.9356 65.5424C82.7206 65.9788 82.6285 65.8292 83.5579 65.9868L90.609 67.0747C89.375 67.3846 86.5902 69.2201 85.1234 70.016C83.2862 71.0128 75.2168 75.3782 73.456 75.1708C72.6988 75.0816 67.852 73.252 67.1151 73.4481C65.8558 73.7832 65.1241 74.0514 63.6689 74.2794C58.8193 75.0395 57.5298 75.2219 52.4714 74.1845C50.1332 73.7051 48.2478 72.7419 46.2381 72.0172C45.2965 71.6776 44.2051 71.2318 43.3822 70.7418C39.5796 68.4774 42.7249 68.2017 36.7613 71.1445C34.4027 72.3084 35.5032 72.2152 33.4991 71.5019C32.322 71.0829 32.5183 71.2457 32.5232 70.7769C33.5832 70.7397 38.9939 67.9138 39.9034 67.3491C39.7288 67.1387 39.2096 66.8906 38.2308 65.8002L37.9277 65.5082C37.9283 65.147 38.0017 65.5685 37.908 65.0953L37.805 64.7529C37.7946 64.7211 37.7778 64.6729 37.7582 64.6357C37.5862 65.136 37.3532 65.006 36.7082 65.0192C36.3234 65.0271 35.9554 65.0428 35.5711 65.0676C34.8686 65.1129 34.104 65.1648 33.3764 65.1246H33.3763Z" fill="#252E73"/>
<path fill-rule="evenodd" clip-rule="evenodd" d="M74.7305 85.7989C74.7531 85.8122 75.2309 85.5235 75.0418 86.2539L73.9975 87.1356C73.4995 87.4799 72.8637 87.7888 72.2145 88.0626C70.5608 88.7604 69.0873 88.7576 67.2659 88.7066C67.7262 88.9388 68.2533 88.9497 68.8005 88.9245C69.3961 88.897 69.8459 88.7821 70.4736 88.7695C69.8918 89.3978 69.3737 89.048 68.688 89.4416C69.5064 89.841 71.4097 89.0581 72.3875 89.0675L71.7459 89.8845C74.1143 90.0401 76.3441 87.6989 75.3037 86.5529C75.497 86.0088 75.2895 86.4975 75.5197 86.0924C75.9977 85.2514 76.1182 85.6979 77.1306 83.5059C77.6886 82.2975 77.9007 80.9347 77.819 79.3965C77.588 79.8433 77.5425 81.5395 75.7306 84.3734C75.5881 84.5962 75.409 84.849 75.2496 85.0447C74.909 85.463 74.9236 85.3224 74.7305 85.7988L74.7305 85.7989Z" fill="#522B37"/>
<path fill-rule="evenodd" clip-rule="evenodd" d="M75.5299 58.5838L75.5295 58.7113C75.5255 59.8169 74.0477 61.2475 73.5352 62.1184C73.1504 62.7724 72.8213 62.9928 72.6025 63.9041C72.4939 64.356 72.2208 65.7379 72.4094 66.0923C72.9025 65.3922 73.3641 64.7935 73.8412 64.0978C74.4251 63.2465 74.977 62.9753 75.6321 62.3431C75.7514 62.4415 75.9303 62.6284 76.0737 62.7417L76.3367 63.3983C76.6427 63.1735 76.547 63.3386 76.5745 62.7914C76.5973 62.3369 76.1525 59.9073 76.1785 58.1721L75.5299 58.5837L75.5299 58.5838Z" fill="#16344A"/>
<path fill-rule="evenodd" clip-rule="evenodd" d="M32.2071 89.7188C32.4105 89.5185 32.3142 89.7242 32.4334 89.4532C31.913 89.233 31.6613 89.5238 31.2778 89.8207L28.4421 92.0355C27.7146 92.6789 25.2534 94.9552 24.9924 95.4235C26.0903 95.4559 28.4854 92.806 29.3677 92.2047C30.6933 95.6985 32.1919 99.7313 33.8142 102.916C33.4829 100.219 30.0682 93.2834 29.8715 91.6375L32.2072 89.7188H32.2071Z" fill="#F4B926"/>
<path fill-rule="evenodd" clip-rule="evenodd" d="M81.7825 89.2574C81.7847 89.2594 82.0173 89.6304 82.1525 89.7594C82.74 90.3203 83.62 90.8657 84.5167 91.7798L84.6369 91.9125C83.9626 93.8622 81.0647 101.095 80.9688 102.524C82.4832 99.3399 83.8468 95.76 85.175 92.3465C85.7537 92.8934 86.4684 93.4514 87.0948 94.0087C87.887 94.7136 88.4327 95.3703 89.1887 95.4321C88.9457 94.7981 86.565 92.7001 85.8324 92.0277C85.2929 91.5325 84.5547 90.989 83.9535 90.5378C83.3909 90.1155 82.6198 89.3651 81.7824 89.2573L81.7825 89.2574Z" fill="#F4B926"/>
<path fill-rule="evenodd" clip-rule="evenodd" d="M50.246 86.483C52.1152 85.5087 47.6011 83.9438 46.6514 83.5616C45.7965 83.2176 44.9618 82.8352 44.1686 82.4325C43.2212 81.9517 42.5611 81.562 41.7288 81.0972C41.6982 81.4428 44.1234 83.8718 45.1579 84.4083C46.4356 85.071 47.7035 85.3805 49.0288 85.8482C50.2932 86.2945 50.0408 86.0902 50.2461 86.483L50.246 86.483Z" fill="#CAB7B7"/>
<path fill-rule="evenodd" clip-rule="evenodd" d="M39.6928 56.2776C38.6895 57.2709 38.4445 56.6704 38.4163 59.4021C38.3812 62.8011 37.0703 63.8502 40.3552 66.1185L43.0791 67.9151C42.9694 67.8564 42.1838 67.0181 41.8113 66.7453C41.3485 66.4064 40.6822 65.9785 40.523 65.4825C39.9537 65.1225 39.4498 64.6163 39.1053 64.0137C38.7872 63.4574 38.7327 62.1629 39.1841 61.6804C39.3703 61.1368 39.2745 60.0563 39.44 59.5313C39.2121 58.9559 39.084 58.592 39.2811 57.7689C39.6123 57.1816 39.8103 56.9413 40.4693 56.7037C40.7454 56.6041 40.9796 56.5719 41.2997 56.5124C41.9533 56.3909 41.9018 56.5419 41.9604 56.0214C41.4246 55.6435 40.2568 56.1161 39.6928 56.2776L39.6928 56.2776Z" fill="#37D8EB"/>
<path fill-rule="evenodd" clip-rule="evenodd" d="M49.8871 87.9883C49.8332 87.8978 49.7992 87.8085 49.7777 87.7774C49.7163 87.6889 49.946 87.8762 49.6327 87.6191C47.1546 87.9002 45.1811 88.7113 42.1686 86.9134C40.3718 85.8412 39.093 83.9562 38.5693 81.4446C37.7994 82.308 39.3837 86.3831 41.9143 87.7058C44.4367 89.0243 47.1605 89.1308 49.8871 87.9883Z" fill="#D9A926"/>
<path fill-rule="evenodd" clip-rule="evenodd" d="M40.5225 65.4825L41.5078 65.7411C41.6875 65.2548 41.7761 64.9133 41.914 64.3829C42.0514 63.8545 42.0446 63.4679 42.4919 63.3455C42.3214 63.176 42.496 63.3287 42.2588 63.1593C42.2357 63.1428 42.2031 63.121 42.179 63.1046L41.7045 62.8102C41.0062 62.3671 40.0752 61.7019 39.1837 61.6804C38.7322 62.1629 38.7867 63.4574 39.1048 64.0137C39.4493 64.6163 39.9532 65.1226 40.5225 65.4825V65.4825Z" fill="#2A4B74"/>
<path fill-rule="evenodd" clip-rule="evenodd" d="M51.416 87.5894C52.6606 87.5704 53.9518 84.327 58.1068 84.5091C59.4482 84.568 60.8357 85.1164 61.7543 85.7563C62.4053 86.2097 63.8933 87.7196 64.5305 87.869C64.4219 87.2138 62.5029 85.704 61.9577 85.2963C59.14 83.1889 54.8257 83.4865 52.4255 86.0558C52.1716 86.3275 51.4787 87.1922 51.416 87.5893V87.5894Z" fill="#C48A23"/>
<path fill-rule="evenodd" clip-rule="evenodd" d="M43.6642 64.8106C43.7266 65.926 43.3683 67.0155 44.8103 66.9294C45.1286 66.5293 45.2285 65.9908 45.5459 65.7231C45.97 65.3656 46.5566 65.4005 47.2188 65.2849L47.1947 66.2227L47.186 64.4247C46.7595 64.0931 44.911 63.3369 44.2943 63.3242C44.0115 63.6788 43.655 64.0923 43.6642 64.8106L43.6642 64.8106Z" fill="#2D4D8E"/>
<path fill-rule="evenodd" clip-rule="evenodd" d="M67.2658 88.7065C69.0872 88.7574 70.5607 88.7602 72.2145 88.0625C72.8637 87.7886 73.4994 87.4797 73.9975 87.1354L75.0417 86.2537C75.2309 85.5234 74.753 85.8121 74.7305 85.7987C74.5237 86.6771 71.7401 87.656 70.6068 87.863C68.6209 88.2259 66.6097 88.0524 64.8194 87.5955C64.9459 88.5488 66.2894 88.63 67.2659 88.7065H67.2658Z" fill="#CD982D"/>
<path fill-rule="evenodd" clip-rule="evenodd" d="M23.5169 100.758C23.2201 101.519 21.8003 105.179 21.7902 105.808C21.7012 106.388 21.6772 106.459 21.498 106.858C22.0979 106.854 22.0593 106.847 22.7209 105.761C23.1841 105.001 24.4194 101.365 24.5285 100.665C24.056 100.764 23.8513 100.682 23.5169 100.758V100.758Z" fill="#E5BC24"/>
<path fill-rule="evenodd" clip-rule="evenodd" d="M33.8487 89.1773C32.8903 87.6675 31.8904 86.1794 32.5537 83.6829C32.8355 82.6223 34.6899 79.0493 34.3823 78.4119C33.7168 79.3241 32.2101 82.2275 31.8914 83.56C31.3259 85.9246 32.416 88.4367 33.8487 89.1773Z" fill="#37D8EB"/>
<path fill-rule="evenodd" clip-rule="evenodd" d="M39.1826 61.6804C40.0742 61.7019 41.0051 62.3671 41.7034 62.8102L42.1779 63.1046C42.2021 63.121 42.2346 63.1428 42.2578 63.1593C42.4949 63.3287 42.3204 63.176 42.4909 63.3455L43.0128 63.5639L43.373 63.1572L43.7591 62.7921C43.5041 62.4366 42.0081 61.6716 41.4825 61.3508C40.6476 60.8411 39.8634 60.2409 39.4385 59.5312C39.273 60.0562 39.3688 61.1367 39.1826 61.6804V61.6804Z" fill="#2866B4"/>
<path fill-rule="evenodd" clip-rule="evenodd" d="M40.4637 91.8216L40.5108 92.172C41.7708 92.0722 45.3289 90.7929 46.665 90.3907C48.5201 89.8323 50.8415 88.8167 52.7774 88.7806C52.2282 87.8453 50.3913 88.6695 49.6169 88.9427C48.6183 89.295 47.6323 89.5646 46.589 89.9161C44.6026 90.5853 42.4976 91.2806 40.4637 91.8216Z" fill="#CCAD50"/>
<path fill-rule="evenodd" clip-rule="evenodd" d="M78.569 86.3901C78.5393 85.9649 78.5635 85.5869 78.522 85.1459C78.4789 84.6884 78.4373 84.4156 78.2096 84.0525C77.466 85.7019 78.6484 86.5461 76.1396 89.942C78.1365 88.9875 80.1988 85.1186 79.2201 82.313C79.1001 82.7305 78.5439 86.2908 78.569 86.3901H78.569Z" fill="#72486E"/>
<path fill-rule="evenodd" clip-rule="evenodd" d="M47.1943 66.2226L47.2184 65.2849C46.5562 65.4005 45.9696 65.3655 45.5455 65.7231C45.228 65.9908 45.1282 66.5292 44.8099 66.9294C43.3679 67.0155 43.7263 65.9259 43.6638 64.8105C42.9137 66.4087 43.4588 66.9894 44.7409 67.55C45.2609 67.7773 45.8626 67.9309 46.4347 67.6662C46.9847 67.4118 47.0407 66.9965 47.1944 66.2226L47.1943 66.2226Z" fill="#222749"/>
<path fill-rule="evenodd" clip-rule="evenodd" d="M78.6299 66.2945C79.0789 66.6732 82.0602 67.2396 82.8954 67.4215C83.6277 67.5811 86.9591 68.4596 87.4568 68.115C87.0826 67.8837 79.3393 65.76 78.6299 66.2944L78.6299 66.2945Z" fill="#31C8D9"/>
<path fill-rule="evenodd" clip-rule="evenodd" d="M32.6164 92.3025C33.0453 91.985 34.3099 91.4774 34.4634 90.9526L32.6767 90.6899C32.4986 91.1589 32.0347 92.197 32.0254 92.5626C32.4952 93.4863 33.9163 93.9149 35.2267 93.5267C34.2853 93.0237 33.4497 93.0332 32.6165 92.3025L32.6164 92.3025Z" fill="#2B4499"/>
<path fill-rule="evenodd" clip-rule="evenodd" d="M82.3348 91.644C81.8004 91.2915 81.0151 90.8831 80.2544 91.1213C80.3717 91.2625 80.1846 91.1737 80.5431 91.5065C80.8254 91.7686 81.0848 91.801 81.4284 92.3027C80.8388 93.2974 79.3486 92.9565 78.4767 93.5916C80.2649 94.0335 82.3532 93.5332 82.3348 91.644Z" fill="#2B3D94"/>
<path fill-rule="evenodd" clip-rule="evenodd" d="M81.4705 88.4618C83.3921 87.0383 83.6094 84.7895 82.8126 82.5934C82.5611 81.9003 82.5195 81.9964 82.2597 81.8257C82.0529 82.7085 83.1882 84.8819 82.1472 87.17C81.95 87.6033 81.5424 88.0633 81.4705 88.4618Z" fill="#2EB2CE"/>
<path fill-rule="evenodd" clip-rule="evenodd" d="M51.056 59.073C50.7658 59.6571 50.1813 60.1032 49.8488 60.8605C50.4182 60.5809 50.6983 59.9548 51.2355 59.4665C51.8429 59.5637 54.2927 61.4321 54.7936 61.1488C54.7486 60.5502 54.8837 61.0848 53.5415 60.2594C53.0469 59.9552 52.6943 59.7256 52.2108 59.3914C50.6145 58.2882 50.9866 57.4113 50.0556 56.9829C50.2687 57.9984 50.7106 58.391 51.0561 59.073H51.056Z" fill="#F4B926"/>
<path fill-rule="evenodd" clip-rule="evenodd" d="M74.3905 57.4654C74.5014 56.4162 73.3034 54.6728 72.9431 53.5802L72.4438 52.6345C72.0829 53.9562 73.186 55.8666 73.8697 57.0254C74.1564 57.5113 74.0355 57.3521 74.3905 57.4654V57.4654Z" fill="#2ED5EF"/>
<path fill-rule="evenodd" clip-rule="evenodd" d="M59.3203 82.8833C59.6209 83.5541 60.6229 84.0871 61.4036 84.34L61.9709 81.6699C61.3221 82.5946 60.8906 82.9275 59.3203 82.8833Z" fill="#693036"/>
<path fill-rule="evenodd" clip-rule="evenodd" d="M54.8387 83.8021C55.453 83.5243 55.6657 83.2358 55.9794 82.769C55.2691 82.3956 54.8171 82.3512 54.3915 81.8215L54.8387 83.8021Z" fill="#693036"/>
<path fill-rule="evenodd" clip-rule="evenodd" d="M21.1395 96.1861L24.6775 87.6459L24.4196 87.3169L23.554 87.3545L19.5851 95.904L18.4727 97.2445L23.5174 100.758L23.8432 101.443L22.1017 107.1L28.9679 107.14L30.6436 111.831L42.4614 108.403L57.5851 117.768V115.665L43.0111 106.575L31.4477 109.573L30.1988 105.427H24.6242L26.0917 100.703L24.9992 99.4605L20.8501 96.3255L21.1395 96.1861Z" fill="#CA9419"/>
<path fill-rule="evenodd" clip-rule="evenodd" d="M93.6682 96.1861L90.1302 87.6459L90.3882 87.3169L91.2538 87.3545L95.2227 95.904L96.3351 97.2445L91.2903 100.758L90.9646 101.443L92.7061 107.1L85.8398 107.14L84.1641 111.831L72.3463 108.403L57.2227 117.768V115.665L71.7967 106.575L83.3601 109.573L84.6089 105.427H90.1835L88.716 100.703L89.8085 99.4605L93.9577 96.3255L93.6682 96.1861Z" fill="#CA9419"/>
<path fill-rule="evenodd" clip-rule="evenodd" d="M43.2769 98.3234L42.4956 95.5167L55.3989 91.374L71.1016 93.7971L55.0017 103.033L64.9478 102.324L63.5318 100.428L69.6559 97.6911L72.3942 103.541L59.3925 107.773L45.6936 103.541L47.6255 101.472L61.3474 96.1119L54.619 94.9783L45.6936 98.8887L46.7776 99.9823L40.1885 103.033L43.2769 98.3234Z" fill="#F4B926"/>
<path fill-rule="evenodd" clip-rule="evenodd" d="M24.8294 104.766L24.1356 104.759L23.7568 105.857H29.8672L31.2444 110.303L42.926 107.258L57.5849 116.464V115.186L42.8827 105.974L32.0934 108.921L30.6402 104.905L24.8294 104.766Z" fill="#F4B926"/>
<path fill-rule="evenodd" clip-rule="evenodd" d="M89.9782 104.766L90.672 104.759L91.0507 105.857H84.9403L83.5631 110.303L71.8816 107.258L57.2227 116.464V115.186L71.9248 105.974L82.7141 108.921L84.1673 104.905L89.9782 104.766Z" fill="#F4B926"/>
<path fill-rule="evenodd" clip-rule="evenodd" d="M22.3766 107.101H21.2588L23.5182 100.758L24.6141 100.665L22.3766 107.101Z" fill="#F4B926"/>
<path fill-rule="evenodd" clip-rule="evenodd" d="M92.4321 107.101H93.5498L91.2904 100.758L90.1945 100.665L92.4321 107.101Z" fill="#F4B926"/>
<path fill-rule="evenodd" clip-rule="evenodd" d="M60.272 7.87964L61.2018 9.11619L68.6227 30.744L86.2524 61.5863L110.584 61.5926L108.807 64.6977L108.285 65.063L94.3935 84.3503L91.6373 87.5624L92.2179 87.3167L92.5237 88.0107L96.3352 97.2442L95.0377 96.7583L88.716 100.703L88.4721 99.977L86.7389 100.657L86.8957 100.289L94.5527 95.6838L91.0811 87.5903L90.351 87.3543L108.341 62.8373L85.1204 63.1795L68.9799 31.8388L60.2882 10.3654L49.4599 32.9067L31.3033 62.7554L6.46644 62.8373L24.4565 87.3543L23.7264 87.5903L20.2547 95.6838L27.9118 100.289L28.0686 100.657L26.3354 99.977L26.0914 100.703L19.7697 96.7583L18.4724 97.2442L22.2838 88.0107L22.5896 87.3167L23.1702 87.5624L20.414 84.3503L6.52214 65.063L6.00068 64.6977L4.22363 61.5926H30.4264L49.3164 33.2509L59.3745 9.11619L60.272 7.87964Z" fill="#ECB729"/>
<path fill-rule="evenodd" clip-rule="evenodd" d="M6.00098 64.6978L22.284 88.0108L22.7964 87.7517L23.1705 87.5625L20.7291 84.2106L6.52239 64.7063L6.00098 64.6978Z" fill="#CA9419"/>
<path fill-rule="evenodd" clip-rule="evenodd" d="M108.807 64.6978L92.5242 88.0108L92.0118 87.7517L91.6377 87.5625L94.0791 84.2106L108.286 64.7063L108.807 64.6978Z" fill="#CA9419"/>
<path fill-rule="evenodd" clip-rule="evenodd" d="M57.9375 58.676C55.2898 58.4561 53.1533 54.8805 52.9286 50.364L58.1368 46.8057L63.3449 50.364C63.1208 54.869 60.9946 58.4379 58.3563 58.6743C58.2077 58.6875 58.086 58.6883 57.9375 58.676V58.676Z" fill="#111D29"/>
<path fill-rule="evenodd" clip-rule="evenodd" d="M58.1366 48.375L61.9684 50.9929C61.8034 54.3073 60.2392 56.933 58.2981 57.1069C58.2407 57.112 58.1888 57.1146 58.1366 57.1146L57.7783 52.0894L58.1366 48.375V48.375Z" fill="#A8551E"/>
<path fill-rule="evenodd" clip-rule="evenodd" d="M58.1364 48.375L54.3047 50.9929C54.4696 54.3073 56.0339 56.933 57.9749 57.1069C58.0323 57.112 58.0843 57.1146 58.1364 57.1146V48.375V48.375Z" fill="#E7B117"/>
<path fill-rule="evenodd" clip-rule="evenodd" d="M57.9248 59.0546C55.1079 58.8207 52.8349 55.0167 52.5959 50.2117L58.1367 46.426L63.6776 50.2117C63.4391 55.0045 61.1771 58.8013 58.3703 59.0528C58.2122 59.0669 58.0827 59.0678 57.9248 59.0547V59.0546ZM54.8383 56.0264C55.6823 57.4271 56.7835 58.319 57.9767 58.4181C58.0524 58.4245 58.1072 58.4275 58.145 58.4274C58.1786 58.4273 58.2348 58.4235 58.3159 58.4163L58.3161 58.4188C59.5039 58.3123 60.601 57.4163 61.4431 56.0134C62.2933 54.5971 62.8705 52.6846 63.0252 50.5344L58.1368 47.1945L53.2484 50.5344C53.4035 52.6908 53.9838 54.6084 54.8383 56.0264H54.8383Z" fill="#E7B117"/>
<path fill-rule="evenodd" clip-rule="evenodd" d="M54.8797 52.5453L54.6894 51.862L57.8308 50.8535L61.6535 51.4434L57.7341 53.692L60.1554 53.5193L59.8107 53.0577L61.3016 52.3914L61.9682 53.8155L58.803 54.8458L55.468 53.8155L55.9383 53.3119L59.2789 52.007L57.6409 51.731L55.468 52.683L55.7319 52.9492L54.1278 53.692L54.8797 52.5453Z" fill="#111D29"/>
</g>
</svg>
