<svg width="143" height="143" viewBox="0 0 143 143" fill="none" xmlns="http://www.w3.org/2000/svg">
<mask id="mask0_1_4374" style="mask-type:alpha" maskUnits="userSpaceOnUse" x="0" y="0" width="143" height="143">
<rect width="143" height="143" fill="#D9D9D9"/>
</mask>
<g mask="url(#mask0_1_4374)">
</g>
<g clip-path="url(#clip0_1_4374)">
<path fill-rule="evenodd" clip-rule="evenodd" d="M24.4352 65.4675L27.7511 57.5292L22.2394 20.6821L30.336 18.8447L30.322 18.721C30.3216 18.717 30.1721 17.3077 30.3516 16.7342C30.3838 16.631 30.4177 16.5122 30.4537 16.3851C30.5797 15.9409 30.7313 15.4055 30.9458 15.0136L30.9507 14.9591C30.9827 14.5792 31.0144 14.2216 31.8877 13.5541C32.1742 13.3351 32.3313 13.1775 32.4569 13.0518C32.8224 12.6856 33.0168 12.491 33.875 12.2659C34.1774 12.1867 34.333 12.1214 34.4525 12.0718C34.8156 11.9201 34.9763 11.8532 35.9038 11.8791C36.2928 11.8899 36.5899 11.8969 36.836 11.9028C37.4035 11.9161 37.7234 11.9237 37.9733 11.948C38.1344 11.9638 38.3208 11.553 39.053 11.0064C40.4108 9.99337 42.4034 8.5066 44.2924 7.50626C46.0824 6.55852 48.4 5.44391 50.0519 4.6493C51.138 4.12695 51.9245 3.74866 52.0136 3.6874C52.3615 3.44788 54.0986 3.07106 55.7396 2.71495C56.5083 2.5483 57.2545 2.38629 57.8136 2.25153C58.5655 2.07052 59.7013 1.92351 60.8713 1.81579C62.3889 1.67638 63.9559 1.60034 64.8133 1.60034C65.6736 1.60034 66.8821 1.72158 68.0188 1.94231C69.0045 2.13388 69.9532 2.40509 70.6109 2.74536C71.747 3.33319 74.9749 4.35106 75.4366 4.49553L81.451 5.89106L81.5088 5.91239C81.5143 5.91451 83.4536 6.62948 84.4839 7.22343L84.7488 7.37594C85.5514 7.8383 85.8286 7.99798 86.5178 8.42168C86.6144 8.48104 86.7647 8.58094 86.9085 8.67684C87.2958 8.93453 87.59 9.13054 87.9766 8.92671C88.2879 8.7628 88.4753 8.6177 88.6417 8.48864C88.9757 8.23011 89.2482 8.01889 90.023 7.78084L90.5536 7.61715C91.5578 7.30159 92.6615 6.95455 93.4085 6.92266C93.6802 6.91104 93.9487 6.86288 94.2047 6.81705C94.6716 6.73362 95.1068 6.65568 95.6069 6.73319C95.9595 6.7879 96.1145 6.84155 96.2695 6.89541C96.3892 6.9366 96.5086 6.97821 96.9213 7.02468C97.4433 7.08403 98.1107 6.80121 98.6526 6.57203C98.7617 6.52578 98.8669 6.48121 99.0388 6.41362C99.1905 6.35405 99.4149 6.24887 99.6523 6.13776C100.292 5.83826 101.015 5.49967 101.672 5.46883C101.959 5.45531 103.024 5.42215 104.159 5.38878C105.661 5.34464 107.228 5.30091 107.319 5.30091C107.474 5.30091 108.087 5.32689 108.787 5.3873C109.198 5.42257 109.664 5.47327 110.123 5.54382C110.775 5.64393 111.772 5.83466 112.569 6.04715C113.235 6.22436 113.814 6.43643 114.093 6.66898C114.603 7.09311 114.568 7.54428 114.178 7.99819C113.779 8.46097 112.669 8.88785 112.119 9.09907C111.952 9.16285 112.125 9.094 111.969 9.15504L111.97 9.1561C111.845 9.2051 111.641 9.36372 111.448 9.54918C111.922 9.76103 112.543 10.0692 113.203 10.5299C113.981 11.0731 114.444 11.6329 114.81 12.0745C114.957 12.2522 115.084 12.4061 115.193 12.5048C115.477 12.7631 115.758 13.1152 116.014 13.5702C116.234 13.962 116.439 14.4303 116.614 14.9803C116.859 15.7512 117.634 18.2833 118.066 19.6966L122.408 20.6821L109.953 103.945L78.7973 127.685L76.5271 140.189L67.7637 133.703L64.746 131.941L64.4885 131.563C64.4817 131.554 62.1511 128.145 61.969 127.918C61.6328 127.499 60.8088 126.432 60.0399 125.432C59.6778 125.941 59.3109 126.486 59.0019 126.944C58.8067 127.234 58.6367 127.486 58.4308 127.78C58.1159 128.229 57.4095 129.173 56.7859 129.966C56.2864 130.6 55.7852 131.21 55.4534 131.559C55 132.035 53.902 132.71 52.7474 133.318C51.4629 133.996 49.9941 134.666 49.3417 134.861C48.8305 135.014 48.0674 135.136 47.2962 135.227C46.1258 135.365 44.8426 135.446 44.541 135.446C44.0769 135.446 41.012 135.603 41.0033 135.603L38.1116 135.759L38.8968 132.975C38.898 132.97 39.3452 131.397 39.3452 131.155C39.3452 130.513 39.6171 130.061 40.0366 129.363C40.7161 128.232 42.1686 125.815 42.3013 123.384L42.3132 123.166L43.1693 119.751L43.3472 119.471C43.9049 118.594 44.2469 118.003 44.5163 117.538C45.1304 116.478 45.4651 115.9 46.1845 115.295C46.7016 114.86 47.2591 114.558 48.129 114.182L34.6951 103.946L33.5294 96.1522L32.1833 101.64L29.8849 95.8153L29.1264 99.4473L26.6481 92.4603C26.6457 92.4538 26.1557 91.0587 25.7236 89.6716L24.4219 89.5362C24.4158 89.5356 22.3018 89.3425 21.3062 88.3491C20.8356 87.8796 20.4513 87.0892 20.1392 86.1909C19.8838 85.4559 19.6712 84.6866 19.5026 84.0134C19.1683 82.6794 19.4415 81.6898 19.6941 80.7754L19.6962 80.7759C19.7678 80.5169 19.8351 80.2719 19.8351 80.1403C19.8351 79.5047 19.9105 78.5384 20.0901 77.5457C20.2315 76.7631 20.4456 75.959 20.7507 75.2738C20.9856 74.747 21.5077 73.38 21.9776 72.1507C22.2567 71.4201 22.5153 70.7438 22.7802 70.1021C23.2033 69.0775 24.3842 65.6082 24.3876 65.598L24.4363 65.4681L24.4352 65.4675Z" fill="black"/>
<path fill-rule="evenodd" clip-rule="evenodd" d="M88.8313 6.51241C89.0323 6.42834 89.2675 6.34343 89.5527 6.25578L90.0682 6.09673L90.0783 6.09145C91.1693 5.74864 92.3678 5.37182 93.3391 5.32894C93.514 5.32092 93.7228 5.28374 93.9217 5.24805L94.0095 5.22904L94.0106 5.23199C94.2812 5.18362 94.5404 5.13927 94.7551 5.12026C95.0859 5.09111 95.4399 5.09386 95.8512 5.15743C96.3428 5.23389 96.5665 5.3112 96.7892 5.3883L96.8062 5.394L96.8081 5.38851L96.8091 5.38893L96.8072 5.39442C96.8364 5.40287 96.8928 5.41385 97.0963 5.43688C97.211 5.44997 97.66 5.26009 98.0261 5.10526L98.025 5.10294L98.208 5.02774L98.2071 5.02563C98.2736 4.99817 98.352 4.96628 98.4549 4.92594C98.6018 4.86806 98.7801 4.78463 98.9686 4.69634L98.9749 4.69022L98.9807 4.68747L98.9819 4.69022C99.7529 4.32903 100.625 3.92222 101.595 3.87512C101.69 3.87047 102.011 3.85949 102.462 3.84491L104.114 3.79464L106.244 3.73339C106.959 3.71354 107.235 3.70044 107.318 3.70044C107.402 3.70044 107.674 3.71121 108.073 3.73466C108.389 3.75303 108.7 3.77373 108.924 3.79316C109.134 3.81175 109.379 3.83646 109.661 3.86942C109.914 3.8992 110.152 3.93025 110.36 3.96214H110.366C110.683 4.01072 111.156 4.0969 111.723 4.21349C112.181 4.3077 112.625 4.40824 112.982 4.50307C113.368 4.60594 113.756 4.73098 114.12 4.87968C114.511 5.03894 114.852 5.22587 115.114 5.44364C115.116 5.44364 115.118 5.44364 115.12 5.44364C115.222 5.52834 115.315 5.61557 115.4 5.70534C117.146 6.86219 116.005 8.79168 114.789 9.74323C114.979 9.90587 115.148 10.0658 115.301 10.2212C115.598 10.5235 115.834 10.8095 116.043 11.0617L116.224 11.2689L116.22 11.272C116.238 11.2919 116.254 11.3092 116.27 11.3232C116.478 11.5122 116.686 11.738 116.889 12.0016C117.077 12.246 117.252 12.5085 117.41 12.7884C117.546 13.0298 117.68 13.3021 117.809 13.6064V13.6128C117.94 13.9207 118.052 14.2175 118.142 14.4988L118.65 16.1491L119.322 18.3458L124.211 19.4553L111.442 104.82L80.2578 128.581L77.6397 143L66.8712 135.03L63.6208 133.132L63.1646 132.464L63.1583 132.451C63.1543 132.445 62.1319 130.951 61.3874 129.874C61.0321 129.36 60.7572 128.963 60.7233 128.917L60.7204 128.919C60.5988 128.767 60.3837 128.493 60.115 128.147L60.0415 128.255C59.9362 128.41 59.8359 128.555 59.7393 128.693C59.5608 128.947 59.2785 129.332 58.9632 129.752C58.6024 130.231 58.268 130.67 58.0442 130.954C57.7776 131.293 57.5021 131.634 57.2404 131.947L57.2372 131.945C56.9884 132.242 56.7718 132.491 56.6111 132.66C56.3104 132.975 55.8557 133.323 55.3173 133.673C55.2736 133.701 55.2294 133.729 55.1847 133.758L55.8991 131.055C56.1681 130.738 56.4764 130.357 56.7841 129.966C57.4077 129.174 58.1139 128.229 58.429 127.78C58.6348 127.487 58.805 127.235 59.0003 126.945C59.3092 126.487 59.6762 125.942 60.0383 125.433C60.807 126.433 61.6309 127.5 61.9674 127.919C62.1495 128.146 64.4803 131.554 64.4868 131.564L64.7443 131.942L67.762 133.704L76.5254 140.19L78.7957 127.686L109.952 103.946L122.407 20.6829L118.064 19.6974C117.632 18.2841 116.857 15.752 116.612 14.9811C116.437 14.431 116.233 13.9628 116.012 13.571C115.756 13.116 115.476 12.7639 115.191 12.5056C115.082 12.4069 114.955 12.2529 114.808 12.0753C114.443 11.6334 113.98 11.0739 113.201 10.5307C112.541 10.07 111.921 9.76181 111.447 9.54996C111.64 9.36451 111.843 9.20588 111.968 9.15688L111.968 9.15582C112.123 9.09478 111.951 9.16364 112.117 9.09985C112.667 8.88863 113.777 8.46176 114.176 7.99897C114.567 7.54506 114.602 7.0939 114.092 6.66977C113.812 6.43721 113.233 6.22515 112.568 6.04794C111.77 5.83545 110.774 5.64472 110.121 5.5446C109.662 5.47405 109.196 5.42336 108.786 5.38809C108.085 5.32768 107.473 5.3017 107.317 5.3017C107.227 5.3017 105.66 5.34542 104.158 5.38978C103.023 5.42294 101.958 5.45631 101.67 5.46983C101.013 5.50045 100.29 5.83925 99.6509 6.13876C99.4135 6.24986 99.189 6.35505 99.0374 6.41461C98.8659 6.4822 98.7604 6.52677 98.6514 6.57303C98.1095 6.8022 97.4423 7.08502 96.9201 7.02567C96.5076 6.97899 96.388 6.93759 96.2683 6.89619C96.1133 6.84254 95.9583 6.7889 95.6057 6.73419C95.1058 6.65667 94.6702 6.73461 94.2035 6.81804C93.9475 6.86388 93.6788 6.91204 93.4073 6.92365C92.66 6.95555 91.5564 7.30258 90.5524 7.61835L90.0218 7.78184C89.247 8.01988 88.9745 8.2311 88.6405 8.48964C88.5253 8.57898 88.4 8.67614 88.2303 8.78175L88.8302 6.51283L88.8313 6.51241Z" fill="#F352AA"/>
<path fill-rule="evenodd" clip-rule="evenodd" d="M22.9555 64.855L26.1001 57.3269L20.4352 19.4555L28.6693 17.5868C28.6729 17.12 28.7093 16.62 28.8222 16.2593L28.8239 16.2599C28.8647 16.1285 28.8541 16.1701 28.8649 16.1328L28.8592 16.1311L28.9115 15.9475L28.913 15.9479C28.9761 15.7257 29.0458 15.4805 29.1493 15.1734C29.2154 14.9774 29.2897 14.7805 29.3746 14.5898C29.4081 14.3051 29.4759 14.0022 29.6993 13.5956C29.9174 13.1985 30.2759 12.7741 30.9156 12.285C31.1195 12.1291 31.2321 12.0165 31.3217 11.9267V11.9204L31.3251 11.9234C31.5845 11.6633 31.7848 11.4635 32.1471 11.2432C32.4813 11.0398 32.8741 10.8774 33.4672 10.7217C33.655 10.6725 33.7579 10.6296 33.8363 10.5969L33.838 10.5965C34.1133 10.4814 34.3121 10.3983 34.7155 10.3333C35.0141 10.2851 35.374 10.2689 35.9475 10.2849L37.3982 10.3215C37.5706 10.1538 37.7935 9.95521 38.0938 9.73111C38.7954 9.2077 39.6612 8.56179 40.5646 7.93891C41.5295 7.27356 42.5576 6.61371 43.5401 6.09369C45.2803 5.17214 47.645 4.03451 49.3369 3.22068L49.3559 3.2116C50.1564 2.82654 50.5496 2.6394 50.7044 2.56379C50.9746 2.43198 51.0824 2.38995 51.1044 2.37453C51.4614 2.12867 52.1576 1.90478 53.0089 1.6944C53.7903 1.50135 54.6072 1.32414 55.4007 1.15199C56.3199 0.952601 55.8275 1.06581 56.51 0.914582C56.8207 0.845513 57.1294 0.775177 57.4371 0.70125C57.8621 0.598808 58.3519 0.510941 58.873 0.436802C59.4022 0.361397 60.0431 0.29085 60.7267 0.228117C61.5 0.156936 62.2509 0.103075 62.9052 0.0671679C63.7084 0.023023 64.3807 0 64.8129 0C65.2855 0 65.8734 0.0359074 66.5139 0.104343C67.1051 0.167497 67.7253 0.258111 68.3193 0.373437C68.8819 0.482637 69.4439 0.619085 69.967 0.781091C70.4773 0.939294 70.9472 1.12137 71.3438 1.32667C71.6847 1.50304 72.2889 1.73982 72.9449 1.97765C74.1032 2.39756 75.4512 2.8257 75.8506 2.95095L81.9092 4.35683L82.06 4.41217C82.0886 4.42273 84.1348 5.17847 85.2861 5.84213L85.5508 5.99463C86.0039 6.2557 86.3046 6.4289 86.4901 6.53831C86.6515 6.63336 86.9001 6.78459 87.3572 7.06572C87.4009 7.09255 87.479 7.14324 87.5724 7.20449L87.6336 7.24463L87.6569 7.22646C87.9514 6.99813 88.2115 6.79705 88.6434 6.59555L88.0353 8.89573L87.976 8.92763C87.5895 9.13145 87.2954 8.93544 86.9079 8.67754C86.7641 8.58186 86.6138 8.48174 86.5172 8.42239C85.8278 7.99868 85.5508 7.839 84.7482 7.37664L84.4833 7.22414C83.4529 6.63019 81.5137 5.91521 81.5082 5.9131L81.4504 5.89176L75.4359 4.49623C74.9741 4.35197 71.7461 3.3341 70.6103 2.74628C69.9528 2.406 69.0039 2.1348 68.0182 1.94322C66.8815 1.7225 65.673 1.60126 64.8127 1.60126C63.9553 1.60126 62.3883 1.6773 60.8707 1.8167C59.7007 1.92442 58.5651 2.07122 57.8129 2.25245C57.2537 2.38721 56.5077 2.54921 55.739 2.71586C54.0979 3.07198 52.3609 3.4488 52.0132 3.68832C51.9241 3.74957 51.1378 4.12787 50.0513 4.65021C48.3996 5.44482 46.082 6.55943 44.2921 7.50717C42.403 8.50751 40.4102 9.99429 39.0526 11.0073C38.3202 11.5539 38.1338 11.9645 37.9729 11.9489C37.7228 11.9244 37.4029 11.9168 36.8354 11.9035C36.5891 11.8978 36.292 11.8908 35.9032 11.8798C34.9757 11.8539 34.815 11.9208 34.4519 12.0725C34.3326 12.1223 34.1768 12.1874 33.8744 12.2666C33.0162 12.4915 32.8216 12.6865 32.4563 13.0525C32.3307 13.1782 32.1734 13.3358 31.8871 13.5546C31.014 14.2223 30.9821 14.5799 30.9501 14.9599L30.9452 15.0143C30.7307 15.4062 30.5789 15.9416 30.4531 16.3858C30.4171 16.513 30.3832 16.6317 30.351 16.7352C30.1715 17.3084 30.321 18.7177 30.3214 18.7217L30.3354 18.8454L22.2388 20.6829L27.7505 57.5297L24.4346 65.468L24.3859 65.5979C24.3825 65.6078 23.2014 69.0773 22.7785 70.1019C22.5138 70.7436 22.2553 71.4202 21.976 72.1506C21.5061 73.3801 20.9839 74.7469 20.7491 75.2739C20.4439 75.9593 20.2301 76.763 20.0884 77.546C19.909 78.5387 19.8334 79.505 19.8334 80.1406C19.8334 80.2722 19.7661 80.5174 19.6945 80.7764L19.6924 80.7757C19.4398 81.6903 19.1666 82.6799 19.501 84.0139C19.6698 84.6871 19.8821 85.4563 20.1375 86.1914C20.4496 87.0895 20.834 87.8801 21.3045 88.3496C22.3002 89.343 24.4141 89.5361 24.4202 89.5367L25.7219 89.6721C26.1539 91.0592 26.6439 92.4543 26.6464 92.4608L29.1248 99.4475L29.8833 95.8158L32.1814 101.64L33.5276 96.1527L34.6933 103.946L48.1271 114.182C47.2574 114.558 46.6999 114.86 46.1826 115.295C45.4633 115.9 45.1285 116.478 44.5146 117.538C44.2453 118.003 43.9033 118.594 43.3455 119.471L43.1676 119.751L42.3115 123.166L42.2997 123.384C42.1669 125.815 40.7145 128.232 40.035 129.363C39.6155 130.061 39.3436 130.513 39.3436 131.155C39.3436 131.397 38.8964 132.97 38.8951 132.974L38.1099 135.759L41.0018 135.603C41.0105 135.603 44.0754 135.446 44.5396 135.446C44.8411 135.446 46.1244 135.364 47.2947 135.226C48.0659 135.136 48.8291 135.014 49.3403 134.861C49.9929 134.666 51.4614 133.995 52.7459 133.318C53.9006 132.709 54.9983 132.035 55.4519 131.559C55.5158 131.491 55.5861 131.415 55.6613 131.33L54.9865 133.882C54.5229 134.168 54.0094 134.458 53.4919 134.731C52.8065 135.093 52.0784 135.449 51.4426 135.737C50.7819 136.037 50.1896 136.276 49.7979 136.393C49.5238 136.475 49.1687 136.552 48.767 136.624C48.3177 136.704 47.8832 136.766 47.4825 136.814C46.9563 136.877 46.4115 136.927 45.9367 136.965C45.2782 137.018 44.7361 137.046 44.5394 137.046C44.0487 137.046 41.3586 137.183 41.0982 137.196C39.4016 137.322 37.6661 137.382 35.9627 137.473L37.3531 132.543L37.3592 132.524C37.3599 132.522 37.5462 131.866 37.6726 131.353C37.7103 131.2 37.7387 131.208 37.7387 131.155C37.7387 130.081 38.1016 129.477 38.6615 128.545L38.6622 128.544C39.2769 127.521 40.59 125.335 40.7011 123.303L40.7221 122.917L41.6765 119.11L41.9916 118.614C42.5601 117.72 42.8767 117.174 43.1253 116.745L43.1293 116.738C43.8287 115.53 44.211 114.87 45.1509 114.079L45.1482 114.076L45.2456 113.996L33.2036 104.82L33.1445 104.425L32.5365 106.903L30.3561 101.377L29.5235 105.363L25.1353 92.9918L25.1281 92.9766L25.1317 92.9753C25.0981 92.8792 24.8253 92.099 24.5153 91.151L24.2568 91.1242L24.257 91.1223C24.0177 91.0978 21.5038 90.8118 20.1695 89.4807V89.4744C19.8195 89.125 19.5126 88.6783 19.2443 88.1684C19.0133 87.7289 18.8081 87.2327 18.6264 86.7097C18.4653 86.2461 18.341 85.8522 18.2442 85.5165C18.1384 85.1488 18.0378 84.7676 17.9459 84.4011C17.7271 83.5281 17.7074 82.7644 17.7839 82.0684C17.8544 81.4261 18.0052 80.8805 18.1498 80.3567L18.1801 80.2468C18.1938 80.1947 18.2093 80.1334 18.2286 80.0512C18.2324 79.7082 18.258 79.2596 18.3092 78.7379C18.3541 78.2806 18.4215 77.7787 18.5144 77.2646C18.5987 76.7978 18.7056 76.3253 18.838 75.8706C18.9602 75.4502 19.1088 75.0318 19.288 74.6299V74.6237C19.4766 74.2004 20.0035 72.8218 20.4772 71.5822C20.5166 71.4789 20.5492 71.3938 20.8903 70.5178C21.0265 70.1678 21.1616 69.828 21.2988 69.4955C21.4148 69.2142 21.6333 68.6173 21.8724 67.9467C22.3849 66.511 22.8666 65.0973 22.8685 65.0916L22.9361 64.9118L22.9547 64.8557L22.9555 64.855Z" fill="#28EBF7"/>
<path fill-rule="evenodd" clip-rule="evenodd" d="M63.5132 10.1084C56.003 11.8037 52.9128 11.6782 46.9988 15.8813C36.8822 23.071 32.5447 34.3455 33.9103 47.2531C34.6152 53.9169 37.1723 60.2292 37.4203 66.2061C39.116 70.1303 37.7263 58.2492 37.5827 57.605C36.8202 54.1835 36.0327 51.1364 36.8409 47.2867L39.4658 61.7534C39.5325 62.0398 39.4758 62.8067 40.2445 63.7984C40.3251 59.157 39.0019 55.455 39.0159 51.5656C39.0326 46.9103 40.967 44.5966 41.8718 41.7156L40.4264 47.5085L46.6517 42.0804L44.9655 39.0107L48.1734 36.9758C49.3685 37.9381 49.108 38.3175 50.7781 38.9249C52.9069 37.4715 57.1269 33.3428 58.7153 31.4516C56.6488 36.1994 52.7775 38.4387 51.3446 40.4197L52.7714 43.4362C55.6682 43.0809 59.031 39.465 60.793 38.0756C59.0228 41.6043 56.4947 41.5912 55.398 46.5711L56.5817 45.462C61.0399 39.8456 67.6058 35.5887 67.5473 24.0654C72.2595 29.3011 75.6516 39.6017 82.8116 43.9663L82.9713 48.3061L84.6799 43.3901C85.3368 46.6009 84.2681 53.1859 84.4356 55.2575L84.6844 56.4722C84.7077 56.5702 84.7576 56.7498 84.8178 56.8795C86.2535 50.3388 86.9355 50.2748 86.2575 42.7968C86.3665 42.8794 86.5074 42.8993 86.5508 43.0843C86.5931 43.2664 86.7759 43.3071 86.8328 43.373L88.3699 45.2985C90.3164 43.6715 91.9666 42.4867 95.2087 43.6364C94.9534 40.6179 95.5967 37.1093 95.347 33.8238C95.232 32.3127 95.0082 30.9248 94.759 29.45C94.49 27.8581 94.3333 26.7716 93.3641 25.4827L93.2809 29.6317C92.4934 27.8336 93.1164 27.6722 91.1566 26.8951L92.1167 37.9345C88.0517 37.01 88.2115 36.964 87.6199 32.9438L86.0669 36.2471L86.5317 30.9643L84.5046 33.0927C83.9832 33.7893 83.9597 34.1176 83.0234 34.6851L86.3032 25.9193C84.729 27.8741 83.5917 29.3956 81.5405 30.3581C82.4296 27.837 83.2201 28.5557 81.5229 27.2796C79.8111 26.5661 79.8689 26.6017 79.8214 24.2306C79.8092 23.6193 79.8456 22.291 79.9485 21.696C80.3606 19.3166 79.8526 21.184 80.4827 20.3076C80.066 14.6482 82.2096 15.3061 84.7081 14.5128L85.4329 14.2295C85.51 14.2 85.673 14.1427 85.7755 14.0697C82.4855 11.3255 77.533 8.64912 71.7449 9.24054C70.6709 10.5465 68.9714 12.9937 68.2294 14.8028C68.1671 13.346 68.1134 13.8191 67.5418 13.0898L63.9676 13.0081L66.7537 11.6888L65.2674 10.7603C64.2999 10.3378 64.4432 10.6014 63.5128 10.108L63.5132 10.1084Z" fill="#F352AA"/>
<path fill-rule="evenodd" clip-rule="evenodd" d="M94.8608 14.681C93.7101 15.196 94.2926 14.586 93.864 15.5145C92.0205 15.3052 93.3135 16.044 92.0195 15.0525C91.6836 13.5896 92.6174 13.104 94.4665 13.076L94.8608 14.681ZM93.3736 16.6065L96.9423 16.714L94.9715 17.8816L98.1207 18.8687L94.6312 19.403L97.0444 21.1194L93.8704 22.178C97.7175 25.0263 99.0238 25.5622 102.786 29.5709C102.475 30.9048 102.047 28.9077 102.454 33.8245C103.077 41.3551 102.267 44.7226 101.887 51.7446C103.511 50.5149 104.672 47.9435 105.437 45.8045C105.927 44.4355 107.239 40.0101 107.335 39.188C108.091 44.6892 104.793 52.0534 102.949 56.4753L98.0419 72.2506C98.284 73.4932 97.9303 72.6139 98.5307 73.4117C99.855 72.5176 100.169 69.9002 100.718 68.4183C101.417 66.5312 102.088 65.0588 103.039 63.7628C102.259 71.0551 99.2866 73.2907 102.595 75.8735L105.813 61.1527C105.954 64.5458 104.993 69.1654 106.659 72.1191C107.502 70.5702 111.034 50.6661 111.997 46.7854C115.526 32.5515 115.432 33.462 108.337 23.7846C111.069 24.4094 112.618 27.3584 114.639 29.157C114.365 25.9407 112.904 21.884 111.689 19.1958C109.962 15.3753 108.667 14.0355 104.17 13.4984L108.524 10.7029C101.604 9.60899 98.9108 13.2462 95.9272 13.3786L94.7314 11.3993C90.7701 11.8203 92.3502 13.3571 88.8575 14.6269C91.4687 16.3746 90.3837 14.4926 91.9267 17.5168L93.3738 16.6059L93.3736 16.6065Z" fill="#F352AA"/>
<path fill-rule="evenodd" clip-rule="evenodd" d="M77.5228 49.2374C77.3728 50.5001 77.1679 51.6377 76.7187 52.6285L75.0925 54.7439C75.5613 50.0223 75.1651 51.5188 74.6539 50.8315C74.6077 50.9643 74.5815 51.1394 74.566 51.2444L74.1283 55.0064C73.3012 57.7576 69.788 58.1524 68.0631 56.0984L66.5257 53.6291C65.4896 54.8256 64.6111 55.356 63.7209 56.9488C63.688 52.2266 66.3898 52.3265 69.0613 49.7369L63.7782 51.3019C65.486 50.7221 66.8074 49.1935 69.5619 48.9489C71.8141 48.7488 74.9902 49.2226 77.5228 49.2374ZM58.0306 50.5537C59.3344 49.4771 59.9169 50.0415 61.7113 48.7852C62.7061 48.0886 63.6584 46.9714 64.5594 46.056C66.5448 44.0393 67.5917 42.8869 71.6208 42.4758C70.5429 43.2751 69.0939 43.8616 67.8013 44.7479C65.1756 46.5481 62.8262 52.5307 58.0304 50.5537H58.0306ZM56.6087 46.4159C56.2044 48.0064 54.9659 49.1707 53.4728 50.4147L53.9298 46.0492C51.3299 47.0508 49.3684 48.7883 47.7771 50.5537C48.9294 51.4174 50.9521 52.0849 51.7875 53.0852C52.485 53.9206 53.6463 56.5557 53.8752 58.0797C50.9239 56.6227 49.906 54.7255 45.6379 56.5762C47.106 57.7369 49.0582 57.1039 50.8159 57.6786C52.367 58.1857 53.2704 59.1907 53.7445 60.6198C52.4589 61.4465 50.8992 62.442 49.2629 60.7054C46.893 58.1902 49.6558 57.7052 44.6075 58.1486C47.058 63.6557 53.1039 63.2041 54.8418 61.3266C56.0861 62.687 55.7553 62.9481 58.0524 63.4711C59.7892 63.8665 61.6893 64.1113 63.6023 64.4767C65.939 62.4752 77.1926 59.5405 80.7035 57.0825C83.2172 55.3224 83.3093 55.721 83.1518 51.6202C82.0812 53.1378 80.1093 55.2933 78.4161 55.9683C84.6631 41.8415 80.3082 46.7712 74.6245 37.3941L69.2525 28.9656C69.0774 31.8521 69.1426 34.1005 68.2496 36.5511C67.2834 39.2036 66.4514 39.5532 65.1925 41.2336C66.0438 38.0713 67.6633 35.8482 67.7829 31.9102C66.2879 37.4118 59.9692 44.2723 56.6085 46.4161L56.6087 46.4159Z" fill="white"/>
<path fill-rule="evenodd" clip-rule="evenodd" d="M81.6416 69.0778C80.6942 70.0965 80.8083 69.8912 79.3235 70.4399C79.0802 72.9313 79.8326 71.7467 79.3345 73.0907C78.9877 74.026 77.8971 74.6195 77.5132 74.9338C77.343 78.3007 71.4039 84.7133 69.5758 85.9675C69.8505 88.4183 71.8202 92.4127 70.5899 94.4051L69.6811 91.4941C68.2924 92.2408 67.5716 92.8835 66.963 95.6727C74.1455 96.3743 71.9737 97.3907 74.1457 98.7235C78.8477 95.5147 91.4348 86.3674 92.4922 80.9027C89.4936 80.2709 89.0608 79.0089 88.592 82.2186C87.0324 79.3422 86.6491 71.6145 86.5363 67.5842C84.6601 67.7494 84.1102 68.9755 81.6416 69.078V69.0778Z" fill="white"/>
<path fill-rule="evenodd" clip-rule="evenodd" d="M65.1556 64.7841L55.8921 64.5834L55.2941 71.3228C56.9038 72.9714 56.6698 71.6679 57.3976 73.5024L59.2066 78.1401C59.9988 79.6411 59.5541 78.5396 60.2125 79.7317C60.9504 81.0691 60.6798 81.5573 61.4461 83.0453C69.2006 84.1474 73.8918 75.4965 77.1784 74.1386C77.8043 71.7102 77.9752 68.5054 77.9058 65.5903C76.7665 66.2056 77.644 65.6721 76.8271 66.3121L75.0352 68.1446C74.2509 66.451 75.1356 67.9034 74.9539 66.6673L71.2283 68.626L73.8428 65.2528L68.3768 66.7725C70.6462 64.8128 75.5417 63.7698 76.5255 60.7876C73.8272 60.9124 68.9628 64.0997 65.1559 64.7839L65.1556 64.7841Z" fill="#F452A9"/>
<path fill-rule="evenodd" clip-rule="evenodd" d="M37.4206 66.2062C37.1727 60.2293 34.6155 53.917 33.9106 47.2532C32.5452 34.3456 36.8826 23.0709 46.9991 15.8814C52.913 11.6783 56.0033 11.8038 63.5136 10.1086C65.3137 10.0046 68.2609 10.6841 69.3567 10.0167C69.8255 7.34918 70.2097 9.13399 68.7024 7.87871C64.5156 4.39126 54.6477 8.7371 50.9339 10.6624C27.2635 22.9332 28.8976 43.7859 37.4204 66.2064L37.4206 66.2062Z" fill="#7CFAFA"/>
<path fill-rule="evenodd" clip-rule="evenodd" d="M80.7473 68.6867C83.4123 65.5131 85.3041 69.8015 88.265 61.5823C88.5113 60.899 88.7239 60.3498 88.7315 59.6492C88.7417 58.6867 88.6388 59.0211 88.5664 58.7137L88.419 58.2843C88.4114 58.2602 88.3286 58.1633 88.3506 58.1023C94.2318 53.0708 94.0772 54.0673 94.2128 44.8292C92.336 43.9448 90.0738 45.1391 88.9289 46.5682C87.875 47.8837 87.8576 50.6582 87.6717 52.7569C91.1536 50.981 88.0281 51.331 89.7289 48.3849C92.3853 43.7837 93.3907 46.983 93.4066 47.0067C92.9266 48.8436 93.6451 46.8966 92.726 47.8328C91.7954 48.7805 91.6944 48.3118 91.3465 49.6133C90.7514 51.8383 92.4421 50.8395 90.3633 53.1451C88.0492 55.711 91.7031 54.2386 89.3964 55.6464C88.3688 56.2735 89.1749 55.9468 88.0209 55.8992C85.8396 55.8095 88.2693 53.6863 84.7133 59.5814C83.8548 61.0048 82.1839 63.4607 80.9286 64.145C81.4798 62.0309 82.658 59.8786 82.495 57.4922C82.045 57.9126 79.314 59.7105 78.2072 60.1821C80.8232 70.8739 77.8645 68.3221 80.7473 68.6867Z" fill="white"/>
<path fill-rule="evenodd" clip-rule="evenodd" d="M70.818 122.617C69.2504 121.963 69.2877 121.964 68.2543 120.694C68.4157 122.467 68.8159 122.562 68.0504 123.688C65.2091 120.689 65.1415 116.849 62.9704 114.05C61.8896 116.489 64.091 123.589 65.6682 125.393C67.1943 127.139 72.0401 130.573 73.9602 131.969C75.9069 124.728 70.8038 112.508 64.5404 110.899C64.3151 114.354 69.5867 117.398 70.818 122.617V122.617Z" fill="#F051A7"/>
<path fill-rule="evenodd" clip-rule="evenodd" d="M25.6525 83.2594C25.7689 86.7238 25.5563 84.1427 26.6447 85.1551C26.6761 83.2824 28.9065 79.1941 29.9509 77.1691C29.9678 77.2124 29.6178 84.4718 29.9576 86.618L30.8711 82.1913C31.7334 83.8986 31.3762 88.2725 32.9048 91.4638C32.7619 84.7717 31.7241 82.9607 34.4148 76.2524C36.7738 70.3712 37.9363 68.6867 34.6564 62.1843C33.1401 67.7191 29.3776 72.5751 27.14 80.1209C27.0219 80.519 26.787 81.399 26.6397 81.7213C25.8585 83.433 26.3019 82.5022 25.6525 83.259V83.2594Z" fill="#EE52A7"/>
<path fill-rule="evenodd" clip-rule="evenodd" d="M47.0242 122.558C46.9643 125.474 44.9899 127.646 44.1251 130.192C49.013 129.859 57.9408 123.454 59.9918 116.288C57.8656 117.263 59.0957 117.012 57.6022 118.226C54.7592 120.539 57.6769 117.834 55.1192 119.277C53.196 120.361 52.2086 122.347 50.3384 123.461C52.1584 117.954 57.5476 115.807 57.5143 112.532C54.4744 113.41 50.3147 116.48 48.918 119.171L47.2961 122.245C47.257 122.162 47.1236 122.462 47.0238 122.558H47.0242Z" fill="#F051A7"/>
<path fill-rule="evenodd" clip-rule="evenodd" d="M67.2366 111.132L86.0937 99.9773C90.4283 97.4989 96.9931 94.1918 102.049 93.0121C103.96 92.5665 107.463 93.0369 108.944 92.1043C104.944 85.4222 74.3587 105.157 68.8251 109.095C67.1531 110.285 67.3624 109.601 67.2366 111.132Z" fill="#EBEBEB"/>
<path fill-rule="evenodd" clip-rule="evenodd" d="M68.7669 112.07C74.558 109.232 81.2521 105.273 87.6162 102.021C90.906 100.34 94.055 98.8933 97.7063 97.3717C107.882 93.1314 107.439 96.5665 109.804 94.6379C108.947 93.1637 109.651 93.542 107.207 93.4793C106.157 93.4523 104.27 93.5752 103.237 93.7592C98.7062 94.5662 91.0746 98.3674 87.2113 100.571C84.3717 102.19 69.5636 110.476 68.7667 112.07L68.7669 112.07Z" fill="#EBEBEB"/>
<path fill-rule="evenodd" clip-rule="evenodd" d="M88.0816 72.8493C90.7554 75.4072 97.2522 74.0361 99.1616 77.4097L99.078 79.9463C97.4572 81.1916 97.1605 80.8053 96.2083 82.4769C97.9252 83.3619 101.569 82.4649 105.203 87.9739C106.331 89.6833 105.794 89.915 108.079 89.9467C107.371 87.4693 103.817 82.7963 98.9767 82.3721L101.067 81.123C100.772 75.2986 102.433 75.6636 92.2368 72.6731C86.8687 71.0989 88.665 72.3943 88.0812 72.8493H88.0816Z" fill="#76E7EA"/>
<path fill-rule="evenodd" clip-rule="evenodd" d="M25.7785 80.4525L25.6525 83.2594C26.3019 82.5026 25.8585 83.4332 26.6397 81.7217C26.7868 81.3996 27.0219 80.5195 27.14 80.1213C29.3776 72.5755 33.1403 67.7193 34.6564 62.1847L33.74 59.8767C33.6953 59.8024 33.5875 59.6655 33.5066 59.5637C31.4812 62.1442 26.5448 76.1286 25.7782 80.4525H25.7785Z" fill="#81F6FA"/>
<path fill-rule="evenodd" clip-rule="evenodd" d="M40.6184 53.5093L48.963 45.9933L47.8951 43.2747C45.2939 44.0819 44.232 45.7011 42.7832 47.6456C41.7623 49.0158 39.5692 51.4408 40.6182 53.5095L40.6184 53.5093Z" fill="#F051A7"/>
<path fill-rule="evenodd" clip-rule="evenodd" d="M60.6304 111.175L60.1349 108.42C60.0915 108.297 60.0032 108.123 59.9221 107.983C59.9183 107.986 58.0654 108.142 58.7108 111.875C59.0293 113.717 59.6504 113.929 60.9381 114.412C62.0373 112.947 61.4372 112.852 64.5347 108.92C65.5028 109.173 65.2574 109.025 65.8704 109.706L65.8707 107.109C62.7543 106.655 61.8063 108.866 60.6304 111.175Z" fill="#EE52A7"/>
<path fill-rule="evenodd" clip-rule="evenodd" d="M50.5004 76.5131C49.9909 74.225 47.8291 68.9204 46.48 67.1287C51.1179 67.7027 51.8266 68.4285 52.5739 66.555L45.182 66.0415C45.1589 68.291 45.002 66.5932 45.9555 68.7335C47.167 71.4527 48.2457 75.4596 50.5004 76.5131Z" fill="#6BDCDC"/>
<path fill-rule="evenodd" clip-rule="evenodd" d="M41.1268 82.3909C41.8827 80.808 42.3749 78.2052 43.1084 76.2706C43.894 74.199 45.4205 72.6279 45.343 70.261C44.4977 70.917 45.2674 69.8466 44.1724 71.3606C43.3174 72.5432 43.4201 73.5706 41.768 75.5398C40.3446 77.2365 40.2086 80.5201 41.1266 82.3907L41.1268 82.3909Z" fill="#68D4D4"/>
<path fill-rule="evenodd" clip-rule="evenodd" d="M61.8392 94.31C64.2155 91.8398 62.0359 89.7692 65.5597 86.5785C67.2922 85.0091 66.9824 86.2095 66.9903 83.9353C65.0932 84.2625 65.8601 83.9159 64.8043 85.3192C62.5106 88.3678 61.729 89.5785 61.8392 94.31Z" fill="#6BDCDC"/>
<path fill-rule="evenodd" clip-rule="evenodd" d="M57.9185 108.01C57.4622 104.527 55.714 101.08 55.0988 96.4089C53.7097 99.1347 55.2219 103.993 56.9197 106.716L57.9185 108.01Z" fill="#D7D7D7"/>
<path fill-rule="evenodd" clip-rule="evenodd" d="M59.0263 106.328L57.1016 94.6089C55.2848 96.9158 57.35 104.572 59.0263 106.328Z" fill="#D7D7D7"/>
<path fill-rule="evenodd" clip-rule="evenodd" d="M71.352 54.3024C71.1665 54.2627 70.913 53.9915 70.8031 54.151L68.1456 53.6909C68.4641 57.521 73.1957 57.665 73.2239 52.5193C71.1424 52.9493 71.8877 52.4329 71.352 54.3024Z" fill="#7CFAFA"/>
<path fill-rule="evenodd" clip-rule="evenodd" d="M34.8779 22.2998C36.9711 20.7598 35.7868 20.7769 36.9154 19.4992C37.9689 18.3069 38.1048 19.1446 39.293 17.0303C35.5439 17.8308 35.0929 18.321 34.8779 22.2998Z" fill="#76E7EA"/>
<path fill-rule="evenodd" clip-rule="evenodd" d="M61.6437 106.149C62.633 105.189 63.6712 103.063 63.8474 101.492C64.0195 99.9575 63.962 100.828 63.4789 100.017C61.7695 101.233 61.7462 103.954 61.6437 106.149Z" fill="#77E5E7"/>
<path fill-rule="evenodd" clip-rule="evenodd" d="M83.6916 17.9211C84.6235 16.6827 85.223 17.2352 86.6102 16.097L82.4702 16.0581L81.7803 19.0253C81.6914 19.1409 81.6063 19.1958 81.5787 19.4127L80.2445 22.7546C81.1855 21.9423 80.849 21.8979 80.4831 20.3078C79.8527 21.1842 80.3609 19.3166 79.9489 21.6962C79.8459 22.2912 79.8093 23.6196 79.8218 24.2308C79.8692 26.602 79.8114 26.5665 81.5232 27.2798C81.2384 25.4105 81.2024 26.6554 83.3208 24.279L85.8974 21.6711C85.3312 21.1208 85.0227 20.7899 84.4977 19.9253C84.438 19.8271 84.3605 19.6917 84.3065 19.5939C84.2549 19.5008 84.1778 19.3635 84.1325 19.2729L83.6918 17.9213L83.6916 17.9211Z" fill="#7CFAFA"/>
<path fill-rule="evenodd" clip-rule="evenodd" d="M58.6147 94.9159C59.0191 94.6954 59.6186 94.4126 59.9242 94.1838C62.0366 92.6035 60.7902 94.6513 61.1822 91.8062C59.2684 92.3817 58.4686 92.4873 58.6145 94.9159H58.6147Z" fill="#6BDCDC"/>
<path fill-rule="evenodd" clip-rule="evenodd" d="M52.9443 60.4393L48.9874 59.1101C50.1019 61.2534 50.6203 61.5911 52.9443 60.4393Z" fill="#6BDCDC"/>
</g>
<defs>
<clipPath id="clip0_1_4374">
<rect width="106.467" height="143" fill="white" transform="translate(17.7441)"/>
</clipPath>
</defs>
</svg>
