<svg width="148" height="39" viewBox="0 0 148 39" fill="none" xmlns="http://www.w3.org/2000/svg">
<mask id="path-1-outside-1_1288_1127" maskUnits="userSpaceOnUse" x="0" y="0" width="148" height="39" fill="black">
<rect fill="white" width="148" height="39"/>
<path fill-rule="evenodd" clip-rule="evenodd" d="M11 1C5.47715 1 1 5.47715 1 11V28C1 33.5228 5.47715 38 11 38H137C142.523 38 147 33.5228 147 28V11C147 5.47715 142.523 1 137 1H11ZM129.354 18.6464L126.172 15.4645C125.976 15.2692 125.66 15.2692 125.464 15.4645C125.269 15.6597 125.269 15.9763 125.464 16.1716L127.793 18.5L105 18.5V19.5L127.793 19.5L125.464 21.8284C125.269 22.0237 125.269 22.3403 125.464 22.5355C125.66 22.7308 125.976 22.7308 126.172 22.5355L129.354 19.3536C129.549 19.1583 129.549 18.8417 129.354 18.6464Z"/>
</mask>
<path fill-rule="evenodd" clip-rule="evenodd" d="M11 1C5.47715 1 1 5.47715 1 11V28C1 33.5228 5.47715 38 11 38H137C142.523 38 147 33.5228 147 28V11C147 5.47715 142.523 1 137 1H11ZM129.354 18.6464L126.172 15.4645C125.976 15.2692 125.66 15.2692 125.464 15.4645C125.269 15.6597 125.269 15.9763 125.464 16.1716L127.793 18.5L105 18.5V19.5L127.793 19.5L125.464 21.8284C125.269 22.0237 125.269 22.3403 125.464 22.5355C125.66 22.7308 125.976 22.7308 126.172 22.5355L129.354 19.3536C129.549 19.1583 129.549 18.8417 129.354 18.6464Z" fill="#0D0D0D"/>
<path d="M126.172 15.4645L125.464 16.1716L125.464 16.1716L126.172 15.4645ZM129.354 18.6464L128.646 19.3536L128.646 19.3536L129.354 18.6464ZM125.464 15.4645L124.757 14.7574L124.757 14.7574L125.464 15.4645ZM125.464 16.1716L124.757 16.8787L124.757 16.8787L125.464 16.1716ZM127.793 18.5L127.793 19.5L130.207 19.5L128.5 17.7929L127.793 18.5ZM105 18.5L105 17.5L104 17.5V18.5H105ZM105 19.5H104V20.5L105 20.5L105 19.5ZM127.793 19.5L128.5 20.2071L130.207 18.5L127.793 18.5L127.793 19.5ZM125.464 21.8284L124.757 21.1213L124.757 21.1213L125.464 21.8284ZM125.464 22.5355L124.757 23.2426L124.757 23.2427L125.464 22.5355ZM126.172 22.5355L125.464 21.8284L125.464 21.8284L126.172 22.5355ZM129.354 19.3536L128.646 18.6464L128.646 18.6464L129.354 19.3536ZM2 11C2 6.02944 6.02944 2 11 2V0C4.92487 0 0 4.92487 0 11H2ZM2 28V11H0V28H2ZM11 37C6.02943 37 2 32.9706 2 28H0C0 34.0751 4.92486 39 11 39V37ZM137 37H11V39H137V37ZM146 28C146 32.9706 141.971 37 137 37V39C143.075 39 148 34.0751 148 28H146ZM146 11V28H148V11H146ZM137 2C141.971 2 146 6.02944 146 11H148C148 4.92487 143.075 0 137 0V2ZM11 2H137V0H11V2ZM125.464 16.1716L128.646 19.3536L130.061 17.9393L126.879 14.7574L125.464 16.1716ZM126.172 16.1716C125.976 16.3668 125.66 16.3668 125.464 16.1716L126.879 14.7574C126.293 14.1716 125.343 14.1716 124.757 14.7574L126.172 16.1716ZM126.172 15.4645C126.367 15.6597 126.367 15.9763 126.172 16.1716L124.757 14.7574C124.172 15.3432 124.172 16.2929 124.757 16.8787L126.172 15.4645ZM128.5 17.7929L126.172 15.4645L124.757 16.8787L127.086 19.2071L128.5 17.7929ZM105 19.5L127.793 19.5L127.793 17.5L105 17.5L105 19.5ZM106 19.5V18.5H104V19.5H106ZM127.793 18.5L105 18.5L105 20.5L127.793 20.5L127.793 18.5ZM126.172 22.5355L128.5 20.2071L127.086 18.7929L124.757 21.1213L126.172 22.5355ZM126.172 21.8284C126.367 22.0237 126.367 22.3403 126.172 22.5355L124.757 21.1213C124.172 21.7071 124.172 22.6569 124.757 23.2426L126.172 21.8284ZM125.464 21.8284C125.66 21.6332 125.976 21.6332 126.172 21.8284L124.757 23.2427C125.343 23.8284 126.293 23.8284 126.879 23.2426L125.464 21.8284ZM128.646 18.6464L125.464 21.8284L126.879 23.2426L130.061 20.0607L128.646 18.6464ZM128.646 19.3536C128.451 19.1583 128.451 18.8417 128.646 18.6464L130.061 20.0607C130.646 19.4749 130.646 18.5251 130.061 17.9393L128.646 19.3536Z" fill="#D3AD6B" mask="url(#path-1-outside-1_1288_1127)"/>
</svg>
