<svg width="109" height="59" viewBox="0 0 109 59" fill="none" xmlns="http://www.w3.org/2000/svg">
<path d="M1.42268 45.0223L1.39151 44.1401L5.76662 39.8672H6.64343L3.45532 43.0424L3.02194 43.4833L1.42268 45.0223ZM0.762207 46.7273V39.8672H1.52584V46.7273H0.762207ZM5.95216 46.7273L2.83603 43.3168L3.35216 42.7876L6.86012 46.7273H5.95216Z" fill="url(#paint0_linear_686_546)"/>
<path d="M44.586 46.7273C44.0535 46.7273 43.5416 46.6469 43.0499 46.4866C42.5653 46.3197 42.1896 46.1077 41.9233 45.8506L42.2205 45.3015C42.4732 45.5328 42.8109 45.7284 43.2344 45.8892C43.6646 46.0433 44.115 46.1204 44.586 46.1204C45.0368 46.1204 45.4021 46.0692 45.682 45.9663C45.9686 45.8572 46.177 45.7124 46.3066 45.5328C46.4433 45.3528 46.5114 45.1535 46.5114 44.9354C46.5114 44.6717 46.4296 44.4598 46.2657 44.2994C46.1085 44.1387 45.9004 44.0136 45.6412 43.9234C45.3815 43.827 45.095 43.7438 44.7808 43.6729C44.4667 43.6023 44.1525 43.5285 43.8384 43.4514C43.5246 43.3678 43.2344 43.2587 42.9682 43.1238C42.7085 42.9889 42.4971 42.8122 42.3332 42.594C42.176 42.3689 42.0975 42.0769 42.0975 41.7169C42.0975 41.3831 42.1896 41.078 42.3741 40.8017C42.5653 40.5191 42.8555 40.2944 43.2447 40.1272C43.6336 39.9537 44.1323 39.8672 44.74 39.8672C45.1425 39.8672 45.5421 39.9217 45.938 40.0308C46.3339 40.1337 46.6753 40.2781 46.9622 40.4646L46.7062 41.0329C46.3987 40.8402 46.0713 40.6988 45.7229 40.609C45.3815 40.5191 45.0504 40.474 44.7296 40.474C44.2995 40.474 43.9445 40.5286 43.6646 40.638C43.3847 40.7471 43.1762 40.8948 43.0396 41.0809C42.91 41.2609 42.8452 41.4664 42.8452 41.6977C42.8452 41.9613 42.9236 42.1733 43.0809 42.3336C43.2447 42.4944 43.4561 42.6194 43.7158 42.7096C43.982 42.7994 44.2722 42.8798 44.586 42.9503C44.9002 43.0209 45.211 43.098 45.5181 43.1816C45.8323 43.2652 46.1188 43.3743 46.3784 43.5092C46.6447 43.6376 46.8561 43.811 47.0134 44.0296C47.1773 44.2478 47.259 44.5339 47.259 44.887C47.259 45.2146 47.1636 45.5197 46.9725 45.8023C46.7814 46.0786 46.4875 46.3033 46.0916 46.4768C45.7023 46.6441 45.2007 46.7273 44.586 46.7273Z" fill="url(#paint1_linear_686_546)"/>
<path d="M9.09605 42.9348H13.0843V43.5521H9.09605V42.9348ZM9.1825 46.1H13.7204V46.7273H8.38477V39.8672H13.5588V40.4944H9.1825V46.1Z" fill="url(#paint2_linear_686_546)"/>
<path d="M17.5171 46.7273V44.1793L17.7011 44.6302L14.4824 39.8672H15.3386L18.1672 44.0517H17.712L20.5405 39.8672H21.3426L18.1239 44.6302L18.3079 44.1793V46.7273H17.5171Z" fill="url(#paint3_linear_686_546)"/>
<path d="M24.0056 46.7273C23.4731 46.7273 22.9608 46.6469 22.4691 46.4866C21.9844 46.3197 21.6091 46.1077 21.3428 45.8506L21.6396 45.3015C21.8923 45.5328 22.2304 45.7284 22.6536 45.8892C23.0838 46.0433 23.5342 46.1204 24.0056 46.1204C24.4561 46.1204 24.8214 46.0692 25.1014 45.9663C25.3883 45.8572 25.5964 45.7124 25.726 45.5328C25.8627 45.3528 25.9308 45.1535 25.9308 44.9354C25.9308 44.6717 25.849 44.4598 25.6851 44.2994C25.5282 44.1387 25.3198 44.0136 25.0605 43.9234C24.8008 43.827 24.5143 43.7438 24.2001 43.6729C23.8859 43.6023 23.5718 43.5285 23.258 43.4514C22.9438 43.3678 22.6536 43.2587 22.3873 43.1238C22.128 42.9889 21.9162 42.8122 21.7523 42.594C21.5951 42.3689 21.5166 42.0769 21.5166 41.7169C21.5166 41.3831 21.6091 41.078 21.7932 40.8017C21.9844 40.5191 22.2746 40.2944 22.6639 40.1272C23.0528 39.9537 23.5515 39.8672 24.1592 39.8672C24.5618 39.8672 24.9614 39.9217 25.3573 40.0308C25.7533 40.1337 26.0947 40.2781 26.3816 40.4646L26.1256 41.0329C25.8184 40.8402 25.4907 40.6988 25.1422 40.609C24.8008 40.5191 24.4697 40.474 24.1489 40.474C23.7187 40.474 23.3637 40.5286 23.0838 40.638C22.8039 40.7471 22.5954 40.8948 22.4591 41.0809C22.3291 41.2609 22.2643 41.4664 22.2643 41.6977C22.2643 41.9613 22.3427 42.1733 22.5 42.3336C22.6639 42.4944 22.8753 42.6194 23.135 42.7096C23.4012 42.7994 23.6915 42.8798 24.0056 42.9503C24.3194 43.0209 24.6303 43.098 24.9375 43.1816C25.2516 43.2652 25.5382 43.3743 25.7978 43.5092C26.0641 43.6376 26.2759 43.811 26.4328 44.0296C26.5967 44.2478 26.6784 44.5339 26.6784 44.887C26.6784 45.2146 26.5831 45.5197 26.3919 45.8023C26.2008 46.0786 25.9072 46.3033 25.5109 46.4768C25.122 46.6441 24.62 46.7273 24.0056 46.7273Z" fill="url(#paint4_linear_686_546)"/>
<path d="M28.9653 46.7273V39.8672H29.7276V46.7273H28.9653Z" fill="url(#paint5_linear_686_546)"/>
<path d="M32.725 42.9348H36.7132V43.5521H32.725V42.9348ZM32.8114 46.1H37.3493V46.7273H32.0137V39.8672H37.1877V40.4944H32.8114V46.1Z" fill="url(#paint6_linear_686_546)"/>
<path d="M50.6711 46.7273V40.4944H48.021V39.8672H54.1189V40.4944H51.4684V46.7273H50.6711Z" fill="url(#paint7_linear_686_546)"/>
<path d="M55.6436 46.7273V39.8672H58.1444C58.7107 39.8672 59.1975 39.9618 59.6049 40.1512C60.012 40.3343 60.3236 40.6021 60.5402 40.9549C60.763 41.3011 60.8742 41.7227 60.8742 42.2191C60.8742 42.7025 60.763 43.1208 60.5402 43.4737C60.3236 43.8198 60.012 44.088 59.6049 44.2774C59.1975 44.4601 58.7107 44.5518 58.1444 44.5518H56.0349L56.35 44.2186V46.7273H55.6436ZM60.2059 46.7273L58.488 44.2382H59.2517L60.9792 46.7273H60.2059ZM56.35 44.2774L56.0349 43.9341H58.1252C58.7935 43.9341 59.2994 43.784 59.643 43.4833C59.9928 43.183 60.1678 42.7613 60.1678 42.2191C60.1678 41.6702 59.9928 41.2456 59.643 40.9453C59.2994 40.6446 58.7935 40.4944 58.1252 40.4944H56.0349L56.35 40.1512V44.2774Z" fill="url(#paint8_linear_686_546)"/>
<path d="M63.9769 42.9348H67.9652V43.5521H63.9769V42.9348ZM64.0634 46.1H68.6013V46.7273H63.2656V39.8672H68.4397V40.4944H64.0634V46.1Z" fill="url(#paint9_linear_686_546)"/>
<path d="M69.3638 46.7273L72.7849 39.8672H73.5654L76.9862 46.7273H76.1523L73.0095 40.2884H73.3301L70.1869 46.7273H69.3638ZM70.7109 44.8947L70.9462 44.3066H75.2969L75.5322 44.8947H70.7109Z" fill="url(#paint10_linear_686_546)"/>
<path d="M77.748 46.7273V39.8672H78.4515L82.1423 45.2183H81.7732L85.4293 39.8672H86.1327V46.7273H85.314V40.9549H85.5101L82.1423 45.8552H81.7388L78.3478 40.9549H78.5672V46.7273H77.748Z" fill="url(#paint11_linear_686_546)"/>
<path d="M89.1307 42.9348H93.119V43.5521H89.1307V42.9348ZM89.2172 46.1H93.7551V46.7273H88.4194V39.8672H93.5931V40.4944H89.2172V46.1Z" fill="url(#paint12_linear_686_546)"/>
<path d="M95.2798 46.7273V39.8672H98.1377C98.785 39.8672 99.3413 39.9618 99.8069 40.1512C100.272 40.3343 100.629 40.6021 100.876 40.9549C101.131 41.3011 101.258 41.7227 101.258 42.2191C101.258 42.7025 101.131 43.1208 100.876 43.4737C100.629 43.8198 100.272 44.088 99.8069 44.2774C99.3413 44.4601 98.785 44.5518 98.1377 44.5518H95.727L96.0867 44.2186V46.7273H95.2798ZM100.494 46.7273L98.5304 44.2382H99.4033L101.378 46.7273H100.494ZM96.0867 44.2774L95.727 43.9341H98.1161C98.8795 43.9341 99.4578 43.784 99.8505 43.4833C100.251 43.183 100.45 42.7613 100.45 42.2191C100.45 41.6702 100.251 41.2456 99.8505 40.9453C99.4578 40.6446 98.8795 40.4944 98.1161 40.4944H95.727L96.0867 40.1512V44.2774Z" fill="url(#paint13_linear_686_546)"/>
<path d="M105.565 46.7273C105.032 46.7273 104.521 46.6469 104.029 46.4866C103.544 46.3197 103.169 46.1077 102.902 45.8506L103.199 45.3015C103.452 45.5328 103.79 45.7284 104.213 45.8892C104.643 46.0433 105.094 46.1204 105.565 46.1204C106.015 46.1204 106.381 46.0692 106.661 45.9663C106.948 45.8572 107.156 45.7124 107.286 45.5328C107.422 45.3528 107.49 45.1535 107.49 44.9354C107.49 44.6717 107.408 44.4598 107.244 44.2994C107.087 44.1387 106.879 44.0136 106.62 43.9234C106.361 43.827 106.074 43.7438 105.759 43.6729C105.445 43.6023 105.132 43.5285 104.817 43.4514C104.503 43.3678 104.213 43.2587 103.947 43.1238C103.688 42.9889 103.476 42.8122 103.312 42.594C103.155 42.3689 103.077 42.0769 103.077 41.7169C103.077 41.3831 103.169 41.078 103.353 40.8017C103.544 40.5191 103.834 40.2944 104.223 40.1272C104.613 39.9537 105.111 39.8672 105.719 39.8672C106.121 39.8672 106.521 39.9217 106.917 40.0308C107.313 40.1337 107.654 40.2781 107.941 40.4646L107.685 41.0329C107.378 40.8402 107.05 40.6988 106.702 40.609C106.361 40.5191 106.029 40.474 105.708 40.474C105.278 40.474 104.923 40.5286 104.643 40.638C104.363 40.7471 104.155 40.8948 104.019 41.0809C103.889 41.2609 103.824 41.4664 103.824 41.6977C103.824 41.9613 103.903 42.1733 104.059 42.3336C104.223 42.4944 104.435 42.6194 104.694 42.7096C104.961 42.7994 105.251 42.8798 105.565 42.9503C105.879 43.0209 106.19 43.098 106.497 43.1816C106.811 43.2652 107.098 43.3743 107.357 43.5092C107.623 43.6376 107.835 43.811 107.992 44.0296C108.156 44.2478 108.238 44.5339 108.238 44.887C108.238 45.2146 108.142 45.5197 107.951 45.8023C107.76 46.0786 107.466 46.3033 107.071 46.4768C106.681 46.6441 106.179 46.7273 105.565 46.7273Z" fill="url(#paint14_linear_686_546)"/>
<path d="M0 58.9231V51.3008H2.28672V58.9231H0Z" fill="url(#paint15_linear_686_546)"/>
<path d="M3.81104 58.9231V51.3008H5.24277L9.65598 56.7888H8.96162V51.3008H10.6712V58.9231H9.24982L4.82624 53.4351H5.52059V58.9231H3.81104Z" fill="url(#paint16_linear_686_546)"/>
<path d="M14.7436 58.9231L11.4336 51.3008H13.3519L16.2453 58.052H15.1165L18.0537 51.3008H19.8182L16.4976 58.9231H14.7436Z" fill="url(#paint17_linear_686_546)"/>
<path d="M20.5806 58.9231V51.3008H22.105V58.9231H20.5806Z" fill="url(#paint18_linear_686_546)"/>
<path d="M25.3863 58.9231V52.7382H22.8672V51.3008H29.7273V52.7382H27.2082V58.9231H25.3863Z" fill="url(#paint19_linear_686_546)"/>
<path d="M28.9653 58.9231L32.2978 51.3008H34.0067L37.35 58.9231H35.5343L32.7998 52.1937H33.4836L30.7384 58.9231H28.9653ZM30.6316 57.2897L31.091 55.9505H34.9359L35.406 57.2897H30.6316Z" fill="url(#paint20_linear_686_546)"/>
<path d="M39.5893 58.9231V52.7382H37.3501V51.3008H43.448V52.7382H41.2088V58.9231H39.5893Z" fill="url(#paint21_linear_686_546)"/>
<path d="M44.9722 58.9231V51.3008H46.4966V58.9231H44.9722Z" fill="url(#paint22_linear_686_546)"/>
<path d="M52.2245 58.9231C51.6187 58.9231 51.0566 58.8286 50.5386 58.6391C50.0281 58.4495 49.5829 58.1825 49.2035 57.8388C48.8311 57.4947 48.5394 57.091 48.3276 56.6278C48.1233 56.1649 48.021 55.6595 48.021 55.1119C48.021 54.5644 48.1233 54.059 48.3276 53.5957C48.5394 53.1324 48.8346 52.7288 49.2145 52.3851C49.5939 52.041 50.0387 51.7744 50.5497 51.5848C51.0606 51.3953 51.6152 51.3008 52.2135 51.3008C52.8193 51.3008 53.3735 51.3953 53.8774 51.5848C54.3879 51.7744 54.8296 52.041 55.2015 52.3851C55.581 52.7288 55.8766 53.1324 56.0884 53.5957C56.2998 54.0519 56.4056 54.5573 56.4056 55.1119C56.4056 55.6595 56.2998 56.168 56.0884 56.6385C55.8766 57.1018 55.581 57.5055 55.2015 57.8492C54.8296 58.1861 54.3879 58.4495 53.8774 58.6391C53.3735 58.8286 52.8228 58.9231 52.2245 58.9231ZM52.2135 57.4701C52.5564 57.4701 52.8701 57.4141 53.1547 57.3016C53.4467 57.1896 53.7022 57.0279 53.9211 56.8173C54.1399 56.6067 54.3076 56.3576 54.4245 56.0699C54.5485 55.7822 54.6107 55.4628 54.6107 55.1119C54.6107 54.7611 54.5485 54.4416 54.4245 54.1536C54.3076 53.8659 54.1399 53.6168 53.9211 53.4062C53.7093 53.1956 53.4578 53.0343 53.1657 52.9219C52.874 52.8098 52.5564 52.7534 52.2135 52.7534C51.8707 52.7534 51.553 52.8098 51.2613 52.9219C50.9767 53.0343 50.7248 53.1956 50.506 53.4062C50.2871 53.6168 50.1155 53.8659 49.9915 54.1536C49.8746 54.4416 49.8163 54.7611 49.8163 55.1119C49.8163 55.4556 49.8746 55.7751 49.9915 56.0699C50.1155 56.3576 50.2832 56.6067 50.4949 56.8173C50.7138 57.0279 50.9692 57.1896 51.2613 57.3016C51.553 57.4141 51.8707 57.4701 52.2135 57.4701Z" fill="url(#paint23_linear_686_546)"/>
<path d="M57.168 58.9231V51.3008H58.5998L63.0132 56.7888H62.3185V51.3008H64.0281V58.9231H62.6071L58.1832 53.4351H58.8776V58.9231H57.168Z" fill="url(#paint24_linear_686_546)"/>
<path d="M64.79 58.9231L68.1228 51.3008H69.8316L73.1747 58.9231H71.3587L68.6244 52.1937H69.3081L66.5634 58.9231H64.79ZM66.4566 57.2897L66.9156 55.9505H70.7607L71.2308 57.2897H66.4566Z" fill="url(#paint25_linear_686_546)"/>
<path d="M73.937 58.9231V51.3008H75.8628V57.4857H80.0349V58.9231H73.937Z" fill="url(#paint26_linear_686_546)"/>
<path d="M79.8266 13.0076C83.8791 13.0076 86.9594 13.7332 89.0682 15.1849C91.1765 16.6366 92.2309 18.83 92.2309 21.7646C92.2309 23.3918 91.9673 24.8591 91.4401 26.1674C90.9133 27.4754 90.0728 28.5758 88.9198 29.4691C87.7668 30.3627 86.2923 31.0484 84.4969 31.527C82.701 32.0055 80.5514 32.2448 78.0473 32.2448H47.2588L53.8317 24.014H78.8385C80.0574 24.014 80.9468 23.8307 81.5072 23.4638C82.0671 23.0969 82.3473 22.4985 82.3473 21.6695C82.3473 20.8397 82.0671 20.2495 81.5072 19.8986C80.9468 19.5478 80.0574 19.3723 78.8385 19.3723H60.8493C58.7078 19.3723 56.863 19.1491 55.3142 18.7023C53.7658 18.2555 52.481 17.6336 51.4597 16.8359C50.4381 16.0386 49.6805 15.0733 49.1864 13.9408C48.692 12.8083 48.445 11.5559 48.445 10.1841C48.445 8.68507 48.7167 7.32111 49.2604 6.09265C49.8038 4.86458 50.6439 3.81978 51.7807 2.95825C52.9172 2.09711 54.3835 1.42706 56.179 0.948524C57.9748 0.469983 60.1244 0.230713 62.6286 0.230713H91.3415L84.7686 8.5574H61.8378C60.6516 8.5574 59.7703 8.71717 59.1938 9.03594C58.6172 9.3547 58.329 9.92919 58.329 10.7586C58.329 11.588 58.6172 12.1703 59.1938 12.5052C59.7703 12.8404 60.6516 13.0076 61.8378 13.0076H79.8266Z" fill="url(#paint27_linear_686_546)"/>
<path d="M109 32.2448H98.3291V0.230713H109V32.2448Z" fill="url(#paint28_linear_686_546)"/>
<path d="M10.6713 0.230713H0.762207V32.2448H10.6713V0.230713Z" fill="url(#paint29_linear_686_546)"/>
<path fill-rule="evenodd" clip-rule="evenodd" d="M46.0853 0.230713L25.1115 15.3046L47.2588 32.2448H31.9559L12.958 15.919L31.4183 0.230713H46.0853Z" fill="url(#paint30_linear_686_546)"/>
<defs>
<linearGradient id="paint0_linear_686_546" x1="52.39" y1="2.48879" x2="52.39" y2="57.9677" gradientUnits="userSpaceOnUse">
<stop stop-color="#D1A561"/>
<stop offset="1" stop-color="#D8C384"/>
</linearGradient>
<linearGradient id="paint1_linear_686_546" x1="54.1599" y1="3.17665" x2="54.1599" y2="57.7204" gradientUnits="userSpaceOnUse">
<stop stop-color="#D1A561"/>
<stop offset="1" stop-color="#D8C384"/>
</linearGradient>
<linearGradient id="paint2_linear_686_546" x1="54.5681" y1="2.48879" x2="54.5681" y2="57.9677" gradientUnits="userSpaceOnUse">
<stop stop-color="#D1A561"/>
<stop offset="1" stop-color="#D8C384"/>
</linearGradient>
<linearGradient id="paint3_linear_686_546" x1="54.9851" y1="2.48879" x2="54.9851" y2="57.9677" gradientUnits="userSpaceOnUse">
<stop stop-color="#D1A561"/>
<stop offset="1" stop-color="#D8C384"/>
</linearGradient>
<linearGradient id="paint4_linear_686_546" x1="52.7981" y1="3.17665" x2="52.7981" y2="57.7204" gradientUnits="userSpaceOnUse">
<stop stop-color="#D1A561"/>
<stop offset="1" stop-color="#D8C384"/>
</linearGradient>
<linearGradient id="paint5_linear_686_546" x1="53.5711" y1="2.48879" x2="53.5711" y2="57.9677" gradientUnits="userSpaceOnUse">
<stop stop-color="#D1A561"/>
<stop offset="1" stop-color="#D8C384"/>
</linearGradient>
<linearGradient id="paint6_linear_686_546" x1="54.5127" y1="2.48879" x2="54.5127" y2="57.9677" gradientUnits="userSpaceOnUse">
<stop stop-color="#D1A561"/>
<stop offset="1" stop-color="#D8C384"/>
</linearGradient>
<linearGradient id="paint7_linear_686_546" x1="54.5877" y1="2.48879" x2="54.5877" y2="57.9677" gradientUnits="userSpaceOnUse">
<stop stop-color="#D1A561"/>
<stop offset="1" stop-color="#D8C384"/>
</linearGradient>
<linearGradient id="paint8_linear_686_546" x1="54.9306" y1="2.48879" x2="54.9306" y2="57.9677" gradientUnits="userSpaceOnUse">
<stop stop-color="#D1A561"/>
<stop offset="1" stop-color="#D8C384"/>
</linearGradient>
<linearGradient id="paint9_linear_686_546" x1="54.6708" y1="2.48879" x2="54.6708" y2="57.9677" gradientUnits="userSpaceOnUse">
<stop stop-color="#D1A561"/>
<stop offset="1" stop-color="#D8C384"/>
</linearGradient>
<linearGradient id="paint10_linear_686_546" x1="54.8856" y1="2.48879" x2="54.8856" y2="57.9677" gradientUnits="userSpaceOnUse">
<stop stop-color="#D1A561"/>
<stop offset="1" stop-color="#D8C384"/>
</linearGradient>
<linearGradient id="paint11_linear_686_546" x1="52.5697" y1="2.48879" x2="52.5697" y2="57.9677" gradientUnits="userSpaceOnUse">
<stop stop-color="#D1A561"/>
<stop offset="1" stop-color="#D8C384"/>
</linearGradient>
<linearGradient id="paint12_linear_686_546" x1="54.5928" y1="2.48879" x2="54.5928" y2="57.9677" gradientUnits="userSpaceOnUse">
<stop stop-color="#D1A561"/>
<stop offset="1" stop-color="#D8C384"/>
</linearGradient>
<linearGradient id="paint13_linear_686_546" x1="53.7477" y1="2.48879" x2="53.7477" y2="57.9677" gradientUnits="userSpaceOnUse">
<stop stop-color="#D1A561"/>
<stop offset="1" stop-color="#D8C384"/>
</linearGradient>
<linearGradient id="paint14_linear_686_546" x1="57.1985" y1="3.17665" x2="57.1985" y2="57.7204" gradientUnits="userSpaceOnUse">
<stop stop-color="#D1A561"/>
<stop offset="1" stop-color="#D8C384"/>
</linearGradient>
<linearGradient id="paint15_linear_686_546" x1="71.0634" y1="-2.58611" x2="71.0634" y2="59.0538" gradientUnits="userSpaceOnUse">
<stop stop-color="#D1A561"/>
<stop offset="1" stop-color="#D8C384"/>
</linearGradient>
<linearGradient id="paint16_linear_686_546" x1="54.1023" y1="-2.58611" x2="54.1023" y2="59.0538" gradientUnits="userSpaceOnUse">
<stop stop-color="#D1A561"/>
<stop offset="1" stop-color="#D8C384"/>
</linearGradient>
<linearGradient id="paint17_linear_686_546" x1="55.2077" y1="-2.58611" x2="55.2077" y2="59.0538" gradientUnits="userSpaceOnUse">
<stop stop-color="#D1A561"/>
<stop offset="1" stop-color="#D8C384"/>
</linearGradient>
<linearGradient id="paint18_linear_686_546" x1="50.4209" y1="-2.58611" x2="50.4209" y2="59.0538" gradientUnits="userSpaceOnUse">
<stop stop-color="#D1A561"/>
<stop offset="1" stop-color="#D8C384"/>
</linearGradient>
<linearGradient id="paint19_linear_686_546" x1="55.7201" y1="-2.58611" x2="55.7201" y2="59.0538" gradientUnits="userSpaceOnUse">
<stop stop-color="#D1A561"/>
<stop offset="1" stop-color="#D8C384"/>
</linearGradient>
<linearGradient id="paint20_linear_686_546" x1="54.0797" y1="-2.58611" x2="54.0797" y2="59.0538" gradientUnits="userSpaceOnUse">
<stop stop-color="#D1A561"/>
<stop offset="1" stop-color="#D8C384"/>
</linearGradient>
<linearGradient id="paint21_linear_686_546" x1="53.4226" y1="-2.58611" x2="53.4226" y2="59.0538" gradientUnits="userSpaceOnUse">
<stop stop-color="#D1A561"/>
<stop offset="1" stop-color="#D8C384"/>
</linearGradient>
<linearGradient id="paint22_linear_686_546" x1="53.5433" y1="-2.58611" x2="53.5433" y2="59.0538" gradientUnits="userSpaceOnUse">
<stop stop-color="#D1A561"/>
<stop offset="1" stop-color="#D8C384"/>
</linearGradient>
<linearGradient id="paint23_linear_686_546" x1="54.8791" y1="-0.676471" x2="54.8791" y2="58.9231" gradientUnits="userSpaceOnUse">
<stop stop-color="#D1A561"/>
<stop offset="1" stop-color="#D8C384"/>
</linearGradient>
<linearGradient id="paint24_linear_686_546" x1="54.3766" y1="-2.58611" x2="54.3766" y2="59.0538" gradientUnits="userSpaceOnUse">
<stop stop-color="#D1A561"/>
<stop offset="1" stop-color="#D8C384"/>
</linearGradient>
<linearGradient id="paint25_linear_686_546" x1="54.3571" y1="-2.58611" x2="54.3571" y2="59.0538" gradientUnits="userSpaceOnUse">
<stop stop-color="#D1A561"/>
<stop offset="1" stop-color="#D8C384"/>
</linearGradient>
<linearGradient id="paint26_linear_686_546" x1="52.1307" y1="-2.58611" x2="52.1307" y2="59.0538" gradientUnits="userSpaceOnUse">
<stop stop-color="#D1A561"/>
<stop offset="1" stop-color="#D8C384"/>
</linearGradient>
<linearGradient id="paint27_linear_686_546" x1="54.4413" y1="0.230321" x2="54.4413" y2="58.971" gradientUnits="userSpaceOnUse">
<stop stop-color="#D1A561"/>
<stop offset="1" stop-color="#D8C384"/>
</linearGradient>
<linearGradient id="paint28_linear_686_546" x1="52.7212" y1="0.230713" x2="52.7212" y2="58.9707" gradientUnits="userSpaceOnUse">
<stop stop-color="#D1A561"/>
<stop offset="1" stop-color="#D8C384"/>
</linearGradient>
<linearGradient id="paint29_linear_686_546" x1="52.6563" y1="0.230713" x2="52.6563" y2="58.9707" gradientUnits="userSpaceOnUse">
<stop stop-color="#D1A561"/>
<stop offset="1" stop-color="#D8C384"/>
</linearGradient>
<linearGradient id="paint30_linear_686_546" x1="54.1497" y1="0.230713" x2="54.1497" y2="58.9707" gradientUnits="userSpaceOnUse">
<stop stop-color="#D1A561"/>
<stop offset="1" stop-color="#D8C384"/>
</linearGradient>
</defs>
</svg>
