<svg width="94" height="103" viewBox="0 0 94 103" fill="none" xmlns="http://www.w3.org/2000/svg">
<path fill-rule="evenodd" clip-rule="evenodd" d="M33.4298 9.80287L32.2377 13.9489L4.42227 35.5951L46.9871 12.9721L89.5519 35.5951L62.1424 13.9489L60.9461 9.80287L46.9871 0L33.4298 9.80287ZM36.4848 9.99823L46.9871 3.39063L49.0722 4.72344H46.9871V9.86365L26.854 20.5652L35.2927 14.1747L36.4848 9.99823ZM78.1438 43.262V33.7022L46.9871 17.1398L33.0794 24.5289L33.0794 24.5323L22.1882 30.3203L12.737 46.0752V35.3433L3.08063 40.4792L4.57608 40.566L0 43.7526L5.0119 42.1332V59.221L6.7509 60.0154L0 60.4496L12.737 64.1398V58.8997L16.1167 53.2689L24.9014 67.9341L36.2669 71.5071L20.4621 46.0448L33.0759 24.9193L32.964 37.2361L70.3589 57.0763V60.0892L61.0444 63.0197L39.5825 51.6148V46.1056H32.0326V55.8043L60.1343 70.743L77.9942 65.1253L78.1737 51.5758L40.6293 31.6184V28.7227L46.9871 25.3451L70.5939 37.8917V43.262H78.1438ZM93.97 42.1115L81.3783 35.4214V64.0616L93.97 60.1023L88.1462 59.8765L89.6118 58.5133V43.3098L88.1932 41.5211L93.97 42.1115ZM30.661 86.6803L31.9728 91.2387L46.9871 102.11L62.198 91.2691L63.5097 86.7063L93.9699 63.2498L46.9871 78.0322L0.0341818 63.2498L46.9871 84.0147L93.9699 63.2498L46.9871 87.7743L0.0256363 63.2498L30.661 86.6803ZM55.1694 93.1707L60.2924 89.7453L61.8348 84.5139L79.1137 72.7531L52.6997 87.7917L55.2591 87.8655L55.1694 93.1707ZM38.4331 71.0643L31.2037 58.9257L37.993 63.9878L38.2579 61.6782L57.1306 71.6895L40.0354 66.7142L38.4331 71.0643ZM41.1249 69.2887L54.9173 72.3841L46.9871 74.8804L39.6167 72.5621L44.4662 72.4752L41.1249 69.2887Z" fill="url(#paint0_linear_686_578)"/>
<defs>
<linearGradient id="paint0_linear_686_578" x1="46.985" y1="0" x2="46.985" y2="102.11" gradientUnits="userSpaceOnUse">
<stop stop-color="#D1A460"/>
<stop offset="1" stop-color="#D8C384"/>
</linearGradient>
</defs>
</svg>
