<svg width="127" height="103" viewBox="0 0 127 103" fill="none" xmlns="http://www.w3.org/2000/svg">
<path fill-rule="evenodd" clip-rule="evenodd" d="M54.9994 7.32494L55.6546 5.14982L63.0992 0L70.7599 5.14982L71.4152 7.32494L86.4647 18.6952L63.0992 6.80996L39.7267 18.6952L54.9994 7.32494ZM77.8828 22.6479V18.0664L62.626 10.1266L55.8205 13.6715L55.8144 14.2715L50.9265 16.8788L46.4219 24.4295V19.2876L41.8159 21.7447L42.5329 21.7861L40.3482 23.3183L42.7358 22.5384V30.027L43.7774 31.4143L32.0358 26.2033L31.0187 25.7154L14.492 17.354L14.1016 20.8038L3.8945 13.2424L14.7569 31.3714L17.1693 24.8731L46.7377 35.0535L46.482 34.9008L46.4219 30.5722L48.0317 27.8736L52.2251 34.8997L57.6427 36.6114L50.1081 24.4157L55.8087 14.8201L55.758 19.7594L74.0703 29.2747V30.719L69.5079 32.1286L59.001 26.6558V24.0161H55.3066V28.6666L69.0634 35.8325L77.8133 33.1375L77.8967 26.6419L59.5149 17.0713V15.6755L62.626 14.0585L74.1884 20.0773V22.6479H77.8828ZM85.6338 22.6712L79.5161 19.4742L79.4541 35.0535L109.516 25.0691L111.705 31.017L122.297 13.2424L112.344 20.6531L111.964 17.279L87.4761 29.016L87.2684 29.1723L82.8023 31.1415L83.5188 30.4952V23.2418L82.8299 22.3893L85.6338 22.6712ZM58.7839 36.309L55.3066 30.3797L58.5725 32.8555L58.6952 31.7301L67.7701 36.6114L59.5543 34.1849L58.7839 36.309ZM40.5051 28.0428L34.8631 18.4107L33.6078 21.8652L20.252 17.9163L34.9981 25.8559L35.2005 24.0242L40.5051 28.0428ZM90.555 18.4107L84.9062 28.0428L90.2108 24.0312L90.42 25.8629L105.159 17.9162L91.8102 21.8652L90.555 18.4107ZM59.9735 35.0535L66.9907 36.772L62.9551 38.1694L59.2011 36.8764L61.6701 36.8282L59.9735 35.0535ZM36.6113 58.4225L41.1756 39.4258L38.5655 36.4793L38.3652 35.0535L48.6263 37.9322L52.9696 56.9288L47.3903 57.4516L46.7757 53.3576L42.9917 54.2063L42.46 57.9133L36.6113 58.4225ZM46.244 50.0037L44.8837 41.4219L43.551 50.411L46.244 50.0037ZM26.3251 64.8268L22.589 81.7915H27.7057L28.2422 77.8134H31.7166L32.2727 81.7915H37.3894L33.0972 61.5384L23.7864 62.465L23.8322 63.2383L26.3251 64.8268ZM29.9172 65.7534L31.1866 74.2323H28.7395L29.9172 65.7534ZM104.38 81.7915L100.447 64.8268L103.072 63.2383L103.12 62.465L93.3189 61.5384L88.8008 81.7915H94.1867L94.7722 77.8134H98.4294L98.9942 81.7915H104.38ZM95.3301 74.2323L96.6662 65.7534L97.9059 74.2323H95.3301ZM36.6929 63.287L36.6113 61.1059L48.2919 59.9804L50.488 62.4621L50.7804 71.2215L48.9106 72.9552L52.113 80.3514L52.9628 80.7429L52.9696 81.7705H48.0132L45.2188 73.885H42.8732V81.7915L38.5626 81.7705V64.5733L36.6929 63.287ZM42.4992 65.1256L42.4652 70.0541L45.1712 70.103L46.327 68.9565L46.2659 63.2801L40.9831 63.9302L42.4992 65.1256ZM92.6963 33.5277V58.7924L112.894 60.7594L112.949 58.716L109.673 54.0383L99.4799 54.2885L99.4729 48.1652L105.132 47.8803L105.558 42.6188L99.6616 43.0358V38.4416L96.8531 37.8856L105.341 36.3704L107.647 31.3175L107.074 29.6007L92.6963 33.5277ZM54.5273 81.7915V59.964L63.051 59.2015L67.7698 59.6508L67.6344 60.8627L65.7049 63.9469L62.638 63.4635L56.5855 63.9469L59.3409 64.8184L59.3477 68.6378H64.7841V72.5186H59.3748V77.4546H65.495L67.6344 80.6341V81.7915H54.5273ZM70.9278 81.7915L71.3899 62.1041L70.1055 60.6528L70.2278 59.2015L77.0647 59.8044L81.8764 72.3404L81.9443 63.1628L80.0074 61.8447V60.148L86.4638 60.772L86.4502 81.7915L80.5307 81.7845L75.5288 68.281V81.7915H70.9278ZM18.7591 30.9728L19.0604 29.6007L32.4205 33.455L35.0523 36.5026L33.8335 43.7286L31.5164 45.9075L33.8335 48.2725V56.6224L30.7463 59.3459L15.5781 60.7594L20.5605 33.6688L18.7591 30.9728ZM26.5474 55.3054L21.2369 55.4916L22.9379 48.0518L27.8198 47.9829L27.7059 54.147L26.5474 55.3054ZM28.456 43.5563L23.6611 43.4528L24.5719 38.4815L23.554 36.3647L29.5476 37.5852L28.456 43.5563ZM54.5078 44.931V42.4804L52.0713 41.8626L51.7764 42.4666L50.6318 42.7373L50.7372 38.1694L63.0953 41.7238V45.5975L61.8946 45.0074L61.5786 44.2507L59.2193 43.6606V44.8547V46.4514L59.2123 55.1429L60.0409 55.3998V56.2745L53.6652 56.8646V55.9829L54.5008 55.5803L54.5078 44.931ZM72.4615 42.4804V44.931L72.4686 55.5803L73.3041 55.9829V56.8646L66.9285 56.2745V55.3998L67.764 55.1429L67.75 46.4514V44.8547V43.6606L65.3907 44.2507L65.0747 45.0074L63.874 45.5975V41.7238L76.2322 38.1694L76.3375 42.7373L75.193 42.4666L74.9051 41.8626L72.4615 42.4804ZM77.8956 38.5389V37.7235L84.6063 35.8325L84.448 54.2567L91.0417 54.3183L91.138 58.4225L79.8434 57.3742V39.2857L77.8956 38.5389ZM19.1991 77.4495L0 90.9629L14.1524 87.8132L13.2748 90.6535L49.3758 89.0098L49.6707 91.0523L50.3084 93.2324L63.0895 102.358L76.2545 93.2324L76.9128 90.9767L77.2008 89.0098L112.911 90.6397L112.04 87.8132L126.193 90.9629L106.994 77.4495L107.453 85.6057H18.7396L19.1991 77.4495ZM62.523 93.3794L62.5228 93.3792C62.5152 93.3686 62.507 93.357 62.4982 93.3447C62.49 93.3331 62.4813 93.3208 62.4724 93.308L62.4573 93.2863C62.3494 93.1309 62.2121 92.9333 62.2187 92.861C62.2187 92.818 62.3555 92.5993 62.458 92.4355L62.493 92.3796L62.5615 92.2765L62.589 92.2215H63.3569L63.3912 92.2696C63.4066 92.2967 63.448 92.365 63.4959 92.444C63.5187 92.4817 63.5431 92.5218 63.5668 92.5611C63.5818 92.5861 63.5966 92.6107 63.6106 92.6341C63.6586 92.7235 63.6998 92.806 63.7066 92.8335L63.7135 92.8404C63.7203 92.8817 63.6792 92.9917 63.6175 93.1017C63.5352 93.2462 63.4255 93.4249 63.3981 93.4593L63.3706 93.4937L62.6027 93.5006L62.5684 93.4456C62.5642 93.4371 62.5469 93.4129 62.523 93.3794ZM59.9902 91.7057C59.9468 91.7383 59.869 91.7796 59.7943 91.8193C59.7746 91.8297 59.7551 91.8401 59.7365 91.8501L59.6542 91.8982L59.4965 91.9876L59.38 92.0495C59.3731 92.1321 59.3731 92.2834 59.3731 92.3865L59.4897 92.4484C59.6405 92.524 59.6542 92.5309 59.764 92.469C59.9011 92.4003 60.0314 92.3246 60.1616 92.2421L60.2576 92.1871L60.4153 92.0908C60.4355 92.0793 60.4535 92.0686 60.47 92.0589L60.4703 92.0587C60.5322 92.0222 60.5724 91.9985 60.6211 91.9876C60.7033 91.967 60.7513 91.9945 60.8542 92.0564L60.957 92.1114L61.0377 92.1574C61.1823 92.2395 61.3685 92.3453 61.4027 92.3796L61.4713 92.469L61.3753 92.5309C61.3315 92.566 61.2794 92.5984 61.226 92.6314C61.2132 92.6394 61.2002 92.6474 61.1873 92.6555C61.1699 92.6665 61.1524 92.6777 61.1353 92.6891L60.9982 92.7716C60.957 92.7991 60.9228 92.8198 60.8748 92.8473L60.8405 92.8748C60.8644 92.8868 60.8895 92.9013 60.9143 92.9157C60.9465 92.9343 60.9779 92.9525 61.005 92.9642L61.1079 93.0192C61.1233 93.028 61.1399 93.0374 61.1573 93.0471L61.1583 93.0477C61.2488 93.0986 61.358 93.16 61.4096 93.2118C61.4438 93.2461 61.485 93.308 61.5124 93.3492L61.5124 93.3493L61.389 93.3974C61.341 93.4181 61.2724 93.4593 61.2107 93.5006C61.1953 93.5122 61.1799 93.5216 61.1621 93.5325L61.1619 93.5326C61.148 93.5411 61.1327 93.5505 61.1147 93.5625L60.9845 93.6381L60.9329 93.6672C60.8422 93.7185 60.788 93.7492 60.7239 93.7551C60.6416 93.7551 60.5936 93.7275 60.4908 93.6656L60.4016 93.6106C60.3546 93.5833 60.3079 93.5562 60.2615 93.5294L60.2137 93.5017C60.0668 93.4167 59.9222 93.3331 59.7777 93.2461C59.7091 93.2049 59.7091 93.2049 59.6062 93.253L59.5857 93.2668C59.5171 93.3012 59.3937 93.3631 59.3868 93.3699V93.5487V93.7138L59.7365 93.8857L59.7485 93.8914C59.8739 93.951 59.9844 94.0035 60.0177 94.0301L60.0999 94.092L60.0382 94.1746C59.9902 94.2364 59.8669 94.2983 59.7845 94.3396L59.7365 94.3602L59.6474 94.4084L59.5066 94.4851L59.5065 94.4851C59.3254 94.5836 59.1427 94.6829 58.9686 94.7866V94.876V95.0686C58.973 95.1225 58.9746 95.1412 58.9847 95.1515C58.9901 95.157 58.9978 95.1601 59.0097 95.1649C59.0143 95.1694 59.0249 95.174 59.0356 95.1786C59.0409 95.1809 59.0463 95.1832 59.0508 95.1855C59.0728 95.1949 59.0934 95.2044 59.1125 95.2132C59.1242 95.2185 59.1353 95.2236 59.1458 95.2284C59.1558 95.2328 59.1653 95.2369 59.1743 95.2405C59.2977 95.3024 59.3183 95.3093 59.4485 95.2405C59.5423 95.1959 59.6326 95.1442 59.7218 95.0931C59.7565 95.0732 59.7911 95.0534 59.8257 95.0342L59.9354 94.9723C60.0588 94.8967 60.2988 94.7522 60.3879 94.7591L60.4908 94.766L60.4976 95.5293C60.501 95.5327 60.5046 95.5358 60.5086 95.5389C60.5188 95.5467 60.5308 95.5537 60.5431 95.5609C60.5555 95.5682 60.5683 95.5756 60.5799 95.5844C60.5936 95.5912 60.6485 95.6256 60.6553 95.6394C60.6673 95.6454 60.6793 95.6567 60.6902 95.6669L60.6903 95.6669C60.7042 95.6801 60.7162 95.6914 60.7239 95.6875C60.7623 95.6747 60.8846 95.5957 60.9788 95.535L60.9982 95.5225L61.0256 95.5087L61.0393 94.3534L61.0805 94.3259C61.1216 94.2983 61.341 94.1608 61.5193 94.0645C61.6496 93.9958 61.7593 93.9407 61.8004 93.9407L61.8964 93.9476V94.0439V94.2571C61.8896 94.4015 61.8896 94.5597 61.8964 94.6972C61.9386 94.6718 61.9861 94.6386 62.0355 94.6039C62.0663 94.5823 62.0979 94.5602 62.1296 94.539C62.2735 94.4359 62.4175 94.3396 62.5067 94.3259L62.6232 94.3052L62.6301 95.2199L62.5752 95.2474C62.5204 95.2818 62.1775 95.4881 61.9101 95.6394C61.8004 95.7081 61.6976 95.7632 61.629 95.7975L61.6359 96.1276C61.6679 96.1551 61.7059 96.1765 61.744 96.1979C61.7631 96.2086 61.7821 96.2193 61.8004 96.2308L61.8416 96.2514C61.8662 96.2638 61.8786 96.2737 61.886 96.2796C61.8909 96.2836 61.8937 96.2858 61.8964 96.2858C61.8981 96.2841 61.8989 96.2829 61.8996 96.2817C61.8998 96.2813 61.9 96.2809 61.9002 96.2805C61.9013 96.2784 61.9023 96.2763 61.9072 96.2722C61.9095 96.2704 61.9126 96.2681 61.917 96.2652L62.0336 96.1964C62.1707 96.1139 62.4518 95.9488 62.5135 95.942L62.6301 95.9213L62.637 96.0382C62.6472 96.2135 62.646 96.3926 62.6447 96.5727L62.6447 96.574C62.6442 96.6338 62.6438 96.6936 62.6438 96.7535V97.0079C62.6438 97.0629 62.6438 97.1386 62.6507 97.1661C62.6507 97.1696 62.6598 97.175 62.6752 97.1841C62.6897 97.1926 62.7097 97.2044 62.7329 97.2211C62.8358 97.2899 62.9524 97.3586 62.9592 97.3586C62.9592 97.3586 63.1032 97.2624 63.1718 97.2211C63.1786 97.2211 63.2129 97.2005 63.2198 97.1936C63.2403 97.1798 63.2541 97.1661 63.2609 97.1523C63.2655 97.125 63.264 97.0887 63.2625 97.0512L63.2625 97.0509C63.2617 97.0319 63.2609 97.0126 63.2609 96.9941V96.946V96.9456C63.2609 96.7257 63.2609 96.5126 63.2678 96.2996L63.2746 95.9282L63.3912 95.942C63.4505 95.9486 63.63 96.0504 63.7839 96.1376L63.784 96.1377L63.8026 96.1483C63.8918 96.2033 63.9672 96.2445 64.0083 96.2652C64.0357 96.2789 64.0495 96.2721 64.0769 96.2583L64.1523 96.2239C64.173 96.2136 64.191 96.2049 64.2066 96.1975L64.207 96.1973C64.2532 96.1753 64.2775 96.1637 64.2826 96.1483C64.2963 96.1345 64.2963 96.0796 64.2963 95.9697V95.9695V95.9351C64.3029 95.8085 64.2838 95.7981 64.2141 95.7601L64.2072 95.7563L64.0357 95.6531L63.8986 95.5775C63.8729 95.5631 63.8459 95.5476 63.8178 95.5313L63.8163 95.5305C63.788 95.5141 63.7584 95.4971 63.7277 95.4798C63.7162 95.4734 63.7047 95.467 63.6929 95.4606C63.5695 95.3849 63.4323 95.3024 63.3363 95.2611L63.2746 95.2336L63.2884 94.3052L63.4118 94.3259C63.4721 94.3369 63.6204 94.4272 63.7194 94.4875L63.7194 94.4875C63.7441 94.5025 63.7656 94.5157 63.782 94.5253L63.7958 94.539C63.8213 94.5519 63.8628 94.578 63.907 94.6058L63.9074 94.606C63.9342 94.6229 63.9619 94.6404 63.9877 94.6559L64.0083 93.9201L64.1317 93.9614C64.1797 93.9682 64.3032 94.037 64.4334 94.1127C64.6117 94.2089 64.8106 94.3259 64.8654 94.3671L64.9066 94.3946L64.9134 94.4496V95.0686V95.213C64.9134 95.2471 64.9113 95.277 64.9095 95.3038V95.304C64.9079 95.3259 64.9066 95.3458 64.9066 95.3643C64.8997 95.5362 64.8997 95.5431 65.0985 95.6462L65.1054 95.6531L65.1136 95.6572C65.1747 95.688 65.1839 95.6927 65.2562 95.6531L65.3522 95.5981C65.3649 95.5905 65.3764 95.5838 65.3867 95.5779C65.3928 95.5744 65.3984 95.5712 65.4037 95.5682C65.438 95.5488 65.4551 95.5391 65.4551 95.5293C65.4688 95.5018 65.4688 95.4399 65.4688 95.3437C65.462 95.2336 65.462 95.0892 65.4757 94.876L65.4825 94.7385L65.6059 94.7797C65.6583 94.7972 65.7155 94.8296 65.7694 94.86L65.7979 94.876C65.8792 94.9226 65.9621 94.9684 66.0455 95.0145C66.2083 95.1045 66.3729 95.1955 66.5316 95.2955C66.5383 95.3 66.5428 95.303 66.5478 95.3041C66.558 95.3064 66.5701 95.3003 66.607 95.2818C66.637 95.2697 66.6644 95.2577 66.6892 95.2468L66.6893 95.2467C66.7211 95.2328 66.7485 95.2207 66.7716 95.213C66.8745 95.1717 66.895 95.158 66.9019 95.0617V94.7729V94.7522C66.8745 94.7316 66.6619 94.6216 66.5385 94.5597L66.3533 94.4496C66.2093 94.3671 65.9831 94.2364 65.9419 94.1814L65.8734 94.092L65.9557 94.0301C66.0516 93.9614 66.1614 93.8995 66.2711 93.8445L66.3465 93.8032C66.4013 93.7757 66.4562 93.7413 66.4973 93.7138C66.5179 93.7 66.5179 93.6656 66.5179 93.6175V93.5694C66.5179 93.3837 66.511 93.3768 66.3739 93.2805H66.3671C66.2692 93.2085 66.2645 93.2113 66.2228 93.2354L66.2162 93.2393C66.2048 93.245 66.1935 93.2518 66.1802 93.2599L66.1801 93.26C66.1613 93.2713 66.1386 93.2851 66.1065 93.3012C66.0697 93.3207 66.0321 93.341 65.9941 93.3615C65.9119 93.4058 65.8275 93.4514 65.7431 93.4937C65.7017 93.5181 65.6594 93.5426 65.6169 93.567C65.5996 93.577 65.5822 93.5869 65.5648 93.5969C65.5355 93.6137 65.5062 93.6304 65.4772 93.6472C65.4467 93.6648 65.4164 93.6824 65.3865 93.7C65.2494 93.7826 65.222 93.7688 65.126 93.7138L65.0848 93.6863L64.9683 93.6313L64.923 93.6086C64.7862 93.5403 64.646 93.4704 64.5226 93.3837L64.4403 93.3287L64.4951 93.2393C64.5466 93.1683 64.6705 93.1034 64.8046 93.0331L64.8311 93.0192C64.8828 92.989 64.9344 92.9615 64.981 92.9367C65.0086 92.922 65.0344 92.9082 65.0574 92.8954L65.0026 92.8542C64.9614 92.8335 64.9134 92.806 64.8654 92.7716L64.8461 92.7604L64.846 92.7604C64.7199 92.6872 64.5744 92.6029 64.5157 92.5309L64.4472 92.4553L64.5226 92.3865C64.55 92.359 64.7488 92.2215 64.9203 92.1114C65.0574 92.0152 65.1945 91.9395 65.2288 91.9395L65.2494 91.9326L65.27 91.9395C65.3274 91.9587 65.4681 92.0435 65.5702 92.105L65.5922 92.1183C65.7362 92.2008 65.8802 92.2834 66.0242 92.3728C66.0996 92.4209 66.2573 92.5172 66.2711 92.524L66.3671 92.4759C66.3758 92.4704 66.385 92.4647 66.3943 92.459L66.4249 92.44C66.4646 92.4156 66.5042 92.3911 66.5316 92.3728L66.5248 92.0427C66.4493 92.0014 66.3191 91.9258 66.2025 91.857C66.0859 91.7951 65.9762 91.7263 65.9419 91.6988L65.8596 91.63L65.9282 91.5544C65.9831 91.4925 66.2916 91.3206 66.4905 91.2105L66.6413 91.128C66.6937 91.0965 66.742 91.069 66.7833 91.0455L66.8196 91.0249C66.8813 90.9973 66.9156 90.9767 66.9225 90.963C66.9293 90.9561 66.9293 90.9148 66.9293 90.8254V90.736V90.6672C66.9362 90.6329 66.9362 90.5985 66.9293 90.5985C66.9087 90.5847 66.799 90.5159 66.7099 90.4609C66.681 90.4443 66.6645 90.4303 66.6544 90.4217C66.6479 90.416 66.6441 90.4128 66.6413 90.4128C66.6261 90.4128 66.4798 90.4955 66.3297 90.5803L66.3293 90.5805C66.2765 90.6103 66.2232 90.6404 66.1751 90.6672C66.1434 90.6844 66.1143 90.7006 66.0884 90.715C66.0415 90.7412 66.0052 90.7615 65.9831 90.7704C65.9761 90.7746 65.9689 90.7788 65.9614 90.783C65.9557 90.7863 65.9498 90.7896 65.9438 90.7929C65.9193 90.8067 65.8929 90.8215 65.8665 90.8392L65.8663 90.8393C65.7773 90.8874 65.6882 90.9355 65.6059 90.963L65.4757 91.0111L65.4688 90.8736C65.462 90.791 65.462 90.7154 65.462 90.6397V90.399V90.3096C65.4688 90.2202 65.4688 90.1721 65.4071 90.1446L65.2425 90.0689C65.1603 90.0346 65.1328 90.0483 65.078 90.0827C65.0659 90.0888 65.0525 90.0961 65.0377 90.1042C65.0021 90.1236 64.9577 90.1478 64.8997 90.1721L64.8791 91.4444L64.8174 91.465C64.7694 91.4856 64.6391 91.5544 64.5157 91.63L64.467 91.6564C64.307 91.7431 64.1604 91.8226 64.1043 91.8226H64.0083L63.9809 91.0524C63.9581 91.0687 63.9291 91.0866 63.8976 91.106C63.8628 91.1275 63.8249 91.1509 63.7889 91.1762L63.7888 91.1762C63.638 91.2725 63.4872 91.3687 63.3981 91.3825L63.2815 91.3893V90.4747L64.3169 89.897V89.6013C64.2689 89.5669 64.2072 89.5257 64.1523 89.4913L64.0769 89.4363C64.0617 89.4286 64.0591 89.4231 64.0575 89.4198C64.0562 89.417 64.0556 89.4156 64.0495 89.4156C64.0468 89.4156 64.0462 89.4167 64.0452 89.4184C64.0438 89.421 64.0414 89.4252 64.0289 89.4294L63.8849 89.5119C63.734 89.6013 63.4803 89.7457 63.3981 89.7663L63.2746 89.7939L63.2678 88.7004V88.6385C63.2678 88.6255 63.2683 88.6129 63.2687 88.6014C63.27 88.5705 63.2709 88.5472 63.2609 88.5422L63.1924 88.4941C63.1644 88.4754 63.1308 88.4519 63.0982 88.429L63.0974 88.4285C63.0344 88.3844 62.9751 88.3428 62.9661 88.3428C62.9529 88.3527 62.9303 88.3658 62.9035 88.3812L62.9033 88.3813C62.8743 88.3981 62.8404 88.4177 62.8084 88.4391C62.7467 88.4735 62.685 88.5147 62.6438 88.5491L62.637 89.7732L62.5204 89.7663C62.4587 89.7595 62.1501 89.5807 62.0198 89.505L61.9856 89.4844C61.8854 89.4241 61.8763 89.4291 61.8061 89.4675L61.8004 89.4706L61.7762 89.487C61.7399 89.5116 61.6957 89.5416 61.629 89.5807L61.6221 89.897C61.7181 89.952 61.8621 90.0346 61.9718 90.1033L62.0747 90.1652C62.1004 90.1807 62.1261 90.1952 62.1522 90.2094C62.1734 90.2211 62.195 90.2326 62.217 90.2443L62.2175 90.2446C62.2402 90.2567 62.2634 90.2691 62.2873 90.2821L62.3483 90.3168C62.4257 90.3605 62.5048 90.4051 62.5752 90.4541L62.6232 90.4816L62.6301 90.5985C62.6301 90.6416 62.6304 90.6863 62.6306 90.7319C62.6317 90.9191 62.6329 91.1217 62.6164 91.2931L62.6027 91.4168L62.4861 91.3825C62.3757 91.3475 62.2702 91.2878 62.1654 91.2286L62.109 91.1968L62.1089 91.1967C62.0335 91.1486 61.9581 91.1005 61.8827 91.0661C61.8758 91.1555 61.8758 91.2724 61.8758 91.3825V91.3827C61.8758 91.4995 61.8758 91.6232 61.869 91.7194L61.8484 91.8501L61.725 91.8088C61.6437 91.7783 61.5285 91.7099 61.4157 91.643C61.3763 91.6196 61.3372 91.5964 61.2999 91.575L61.197 91.5131L61.0736 91.4444H61.005V91.3481L60.9982 91.3343V90.2271L60.8542 90.1446C60.8401 90.1365 60.8273 90.1285 60.8154 90.1208C60.807 90.1153 60.7991 90.11 60.7916 90.105C60.7836 90.0997 60.776 90.0946 60.7689 90.0901C60.7602 90.0845 60.7521 90.0796 60.7445 90.0758C60.717 90.0552 60.7033 90.0483 60.6828 90.0621L60.4633 90.2065L60.4496 91.0111L60.3331 90.9974C60.2685 90.9909 59.8578 90.7529 59.661 90.6389L59.6268 90.6191L59.524 90.5641C59.5034 90.5503 59.4811 90.5366 59.4588 90.5228C59.4365 90.5091 59.4143 90.4953 59.3937 90.4816L59.3525 90.4609L59.3408 90.4549C59.319 90.4436 59.3015 90.4344 59.284 90.4403C59.2424 90.4588 59.2008 90.4805 59.1614 90.5011L59.1611 90.5012C59.1506 90.5067 59.1403 90.512 59.1302 90.5172C59.1219 90.5215 59.1137 90.5257 59.1057 90.5297L58.9823 90.5985V90.9836C59.1811 91.1074 59.4965 91.2724 59.7365 91.3962L59.8462 91.4512C59.9422 91.5062 60.0108 91.5544 60.0931 91.6163L59.9902 91.7057Z" fill="url(#paint0_linear_686_627)"/>
<defs>
<linearGradient id="paint0_linear_686_627" x1="63.0963" y1="0" x2="63.0963" y2="102.358" gradientUnits="userSpaceOnUse">
<stop stop-color="#D1A460"/>
<stop offset="1" stop-color="#D9C485"/>
</linearGradient>
</defs>
</svg>
