<svg width="1168" height="183" viewBox="0 0 1168 183" fill="none" xmlns="http://www.w3.org/2000/svg">
<rect width="1168" height="183" rx="37" fill="#0A0A0A"/>
<path d="M460.258 116.091L460.209 114.691L467.153 107.909H468.544L463.484 112.949L462.796 113.648L460.258 116.091ZM459.21 118.797V107.909H460.422V118.797H459.21ZM467.447 118.797L462.501 113.384L463.321 112.544L468.888 118.797H467.447Z" fill="url(#paint0_linear_1287_2)"/>
<path d="M528.764 118.797C527.919 118.797 527.106 118.67 526.326 118.415C525.557 118.15 524.961 117.814 524.538 117.406L525.01 116.534C525.411 116.901 525.947 117.212 526.619 117.467C527.302 117.712 528.017 117.834 528.764 117.834C529.48 117.834 530.059 117.753 530.504 117.589C530.958 117.416 531.289 117.186 531.495 116.901C531.712 116.616 531.82 116.299 531.82 115.953C531.82 115.535 531.69 115.198 531.43 114.944C531.181 114.689 530.85 114.49 530.439 114.347C530.027 114.194 529.572 114.062 529.073 113.949C528.575 113.837 528.076 113.72 527.578 113.598C527.08 113.465 526.619 113.292 526.196 113.078C525.784 112.864 525.449 112.583 525.189 112.237C524.939 111.88 524.815 111.416 524.815 110.845C524.815 110.315 524.961 109.831 525.254 109.392C525.557 108.944 526.018 108.587 526.635 108.322C527.253 108.046 528.044 107.909 529.008 107.909C529.647 107.909 530.282 107.996 530.91 108.169C531.538 108.332 532.08 108.561 532.535 108.857L532.129 109.759C531.641 109.453 531.122 109.229 530.569 109.086C530.027 108.944 529.501 108.872 528.992 108.872C528.309 108.872 527.746 108.959 527.302 109.133C526.857 109.306 526.527 109.54 526.31 109.836C526.104 110.121 526.001 110.447 526.001 110.814C526.001 111.233 526.126 111.569 526.375 111.824C526.635 112.079 526.971 112.277 527.383 112.421C527.806 112.563 528.266 112.691 528.764 112.803C529.263 112.915 529.756 113.037 530.244 113.17C530.742 113.302 531.197 113.476 531.609 113.69C532.032 113.893 532.367 114.169 532.617 114.515C532.877 114.862 533.007 115.316 533.007 115.876C533.007 116.396 532.855 116.881 532.552 117.329C532.248 117.768 531.782 118.124 531.154 118.4C530.536 118.665 529.74 118.797 528.764 118.797Z" fill="url(#paint1_linear_1287_2)"/>
<path d="M472.437 112.778H478.767V113.758H472.437V112.778ZM472.574 117.802H479.776V118.797H471.308V107.909H479.52V108.905H472.574V117.802Z" fill="url(#paint2_linear_1287_2)"/>
<path d="M485.802 118.797V114.753L486.094 115.469L480.986 107.909H482.345L486.834 114.551H486.112L490.601 107.909H491.874L486.765 115.469L487.057 114.753V118.797H485.802Z" fill="url(#paint3_linear_1287_2)"/>
<path d="M496.1 118.797C495.255 118.797 494.442 118.67 493.662 118.415C492.892 118.15 492.297 117.814 491.874 117.406L492.345 116.534C492.746 116.901 493.283 117.212 493.954 117.467C494.637 117.712 495.352 117.834 496.1 117.834C496.815 117.834 497.395 117.753 497.839 117.589C498.295 117.416 498.625 117.186 498.831 116.901C499.048 116.616 499.156 116.299 499.156 115.953C499.156 115.535 499.026 115.198 498.766 114.944C498.517 114.689 498.186 114.49 497.775 114.347C497.362 114.194 496.908 114.062 496.409 113.949C495.91 113.837 495.412 113.72 494.914 113.598C494.415 113.465 493.954 113.292 493.532 113.078C493.12 112.864 492.784 112.583 492.524 112.237C492.274 111.88 492.15 111.416 492.15 110.845C492.15 110.315 492.297 109.831 492.589 109.392C492.892 108.944 493.353 108.587 493.971 108.322C494.588 108.046 495.38 107.909 496.344 107.909C496.983 107.909 497.617 107.996 498.246 108.169C498.874 108.332 499.416 108.561 499.871 108.857L499.465 109.759C498.978 109.454 498.457 109.229 497.904 109.086C497.362 108.944 496.837 108.872 496.328 108.872C495.645 108.872 495.082 108.959 494.637 109.133C494.193 109.306 493.862 109.54 493.646 109.836C493.439 110.121 493.337 110.447 493.337 110.814C493.337 111.233 493.461 111.569 493.711 111.824C493.971 112.079 494.306 112.277 494.718 112.421C495.141 112.563 495.602 112.691 496.1 112.803C496.598 112.915 497.092 113.037 497.579 113.17C498.078 113.302 498.533 113.476 498.945 113.69C499.368 113.893 499.704 114.169 499.953 114.516C500.213 114.862 500.343 115.316 500.343 115.876C500.343 116.396 500.191 116.881 499.888 117.329C499.584 117.768 499.118 118.124 498.49 118.4C497.872 118.665 497.075 118.797 496.1 118.797Z" fill="url(#paint4_linear_1287_2)"/>
<path d="M503.972 118.797V107.909H505.182V118.797H503.972Z" fill="url(#paint5_linear_1287_2)"/>
<path d="M509.94 112.778H516.27V113.758H509.94V112.778ZM510.077 117.802H517.28V118.797H508.811V107.909H517.023V108.905H510.077V117.802Z" fill="url(#paint6_linear_1287_2)"/>
<path d="M538.423 118.797V108.905H534.217V107.909H543.895V108.905H539.688V118.797H538.423Z" fill="url(#paint7_linear_1287_2)"/>
<path d="M546.314 118.797V107.909H550.284C551.183 107.909 551.955 108.059 552.602 108.36C553.248 108.651 553.742 109.076 554.086 109.636C554.44 110.185 554.616 110.854 554.616 111.642C554.616 112.409 554.44 113.073 554.086 113.633C553.742 114.183 553.248 114.608 552.602 114.909C551.955 115.199 551.183 115.344 550.284 115.344H546.936L547.436 114.815V118.797H546.314ZM553.556 118.797L550.829 114.847H552.041L554.783 118.797H553.556ZM547.436 114.909L546.936 114.364H550.253C551.314 114.364 552.117 114.126 552.662 113.648C553.217 113.172 553.495 112.503 553.495 111.642C553.495 110.771 553.217 110.097 552.662 109.62C552.117 109.143 551.314 108.905 550.253 108.905H546.936L547.436 108.36V114.909Z" fill="url(#paint8_linear_1287_2)"/>
<path d="M559.541 112.778H565.871V113.758H559.541V112.778ZM559.678 117.802H566.881V118.797H558.412V107.909H566.624V108.905H559.678V117.802Z" fill="url(#paint9_linear_1287_2)"/>
<path d="M568.091 118.797L573.521 107.909H574.759L580.189 118.797H578.865L573.877 108.578H574.386L569.397 118.797H568.091ZM570.229 115.889L570.602 114.955H577.508L577.881 115.889H570.229Z" fill="url(#paint10_linear_1287_2)"/>
<path d="M581.398 118.797V107.909H582.515L588.373 116.402H587.787L593.59 107.909H594.706V118.797H593.407V109.636H593.718L588.373 117.413H587.732L582.35 109.636H582.699V118.797H581.398Z" fill="url(#paint11_linear_1287_2)"/>
<path d="M599.465 112.778H605.795V113.758H599.465V112.778ZM599.602 117.802H606.804V118.797H598.336V107.909H606.547V108.905H599.602V117.802Z" fill="url(#paint12_linear_1287_2)"/>
<path d="M609.224 118.797V107.909H613.76C614.787 107.909 615.67 108.059 616.409 108.36C617.147 108.651 617.713 109.076 618.106 109.636C618.51 110.185 618.711 110.854 618.711 111.642C618.711 112.409 618.51 113.073 618.106 113.633C617.713 114.183 617.147 114.608 616.409 114.909C615.67 115.199 614.787 115.344 613.76 115.344H609.933L610.504 114.815V118.797H609.224ZM617.5 118.797L614.383 114.847H615.768L618.902 118.797H617.5ZM610.504 114.909L609.933 114.364H613.725C614.937 114.364 615.855 114.126 616.478 113.648C617.113 113.172 617.43 112.503 617.43 111.642C617.43 110.771 617.113 110.097 616.478 109.62C615.855 109.143 614.937 108.905 613.725 108.905H609.933L610.504 108.36V114.909Z" fill="url(#paint13_linear_1287_2)"/>
<path d="M625.547 118.797C624.702 118.797 623.89 118.67 623.109 118.415C622.34 118.15 621.744 117.814 621.321 117.406L621.792 116.534C622.193 116.901 622.73 117.212 623.402 117.467C624.084 117.712 624.8 117.834 625.547 117.834C626.262 117.834 626.842 117.753 627.286 117.589C627.742 117.416 628.072 117.186 628.278 116.901C628.494 116.616 628.603 116.299 628.603 115.953C628.603 115.535 628.473 115.198 628.213 114.944C627.964 114.689 627.634 114.49 627.221 114.347C626.81 114.194 626.355 114.062 625.856 113.949C625.357 113.837 624.859 113.72 624.361 113.598C623.862 113.465 623.402 113.292 622.979 113.078C622.567 112.864 622.231 112.583 621.971 112.237C621.722 111.88 621.598 111.416 621.598 110.845C621.598 110.315 621.744 109.831 622.036 109.392C622.34 108.944 622.8 108.587 623.418 108.322C624.036 108.046 624.827 107.909 625.791 107.909C626.431 107.909 627.064 107.996 627.693 108.169C628.321 108.332 628.863 108.561 629.318 108.857L628.912 109.759C628.424 109.453 627.904 109.229 627.352 109.086C626.81 108.944 626.284 108.872 625.775 108.872C625.092 108.872 624.529 108.959 624.084 109.133C623.64 109.306 623.31 109.54 623.093 109.836C622.887 110.121 622.784 110.447 622.784 110.814C622.784 111.233 622.909 111.569 623.158 111.824C623.418 112.079 623.754 112.277 624.166 112.421C624.588 112.563 625.049 112.691 625.547 112.803C626.046 112.915 626.539 113.037 627.026 113.17C627.525 113.302 627.98 113.476 628.392 113.69C628.814 113.893 629.15 114.169 629.399 114.515C629.659 114.862 629.79 115.316 629.79 115.876C629.79 116.396 629.638 116.881 629.334 117.329C629.031 117.768 628.565 118.124 627.937 118.4C627.319 118.665 626.522 118.797 625.547 118.797Z" fill="url(#paint14_linear_1287_2)"/>
<path d="M458 138.154V126.056H461.629V138.154H458Z" fill="url(#paint15_linear_1287_2)"/>
<path d="M464.049 138.154V126.056H466.321L473.326 134.766H472.224V126.056H474.937V138.154H472.681L465.66 129.444H466.762V138.154H464.049Z" fill="url(#paint16_linear_1287_2)"/>
<path d="M481.4 138.154L476.147 126.056H479.192L483.784 136.771H481.992L486.654 126.056H489.455L484.184 138.154H481.4Z" fill="url(#paint17_linear_1287_2)"/>
<path d="M490.665 138.154V126.056H493.084V138.154H490.665Z" fill="url(#paint18_linear_1287_2)"/>
<path d="M498.292 138.154V128.337H494.294V126.056H505.182V128.337H501.184V138.154H498.292Z" fill="url(#paint19_linear_1287_2)"/>
<path d="M503.972 138.154L509.261 126.056H511.974L517.28 138.154H514.398L510.058 127.473H511.143L506.786 138.154H503.972ZM506.617 135.561L507.346 133.436H513.448L514.195 135.561H506.617Z" fill="url(#paint20_linear_1287_2)"/>
<path d="M520.834 138.154V128.337H517.28V126.056H526.958V128.337H523.404V138.154H520.834Z" fill="url(#paint21_linear_1287_2)"/>
<path d="M529.378 138.154V126.056H531.798V138.154H529.378Z" fill="url(#paint22_linear_1287_2)"/>
<path d="M540.888 138.154C539.927 138.154 539.035 138.004 538.213 137.703C537.402 137.402 536.696 136.978 536.094 136.433C535.503 135.887 535.04 135.246 534.703 134.511C534.379 133.776 534.217 132.974 534.217 132.105C534.217 131.236 534.379 130.434 534.703 129.698C535.04 128.963 535.508 128.322 536.111 127.777C536.713 127.231 537.419 126.808 538.23 126.507C539.041 126.206 539.921 126.056 540.871 126.056C541.832 126.056 542.712 126.206 543.512 126.507C544.322 126.808 545.023 127.231 545.613 127.777C546.216 128.322 546.685 128.963 547.021 129.698C547.356 130.422 547.524 131.225 547.524 132.105C547.524 132.974 547.356 133.781 547.021 134.528C546.685 135.263 546.216 135.904 545.613 136.449C545.023 136.984 544.322 137.402 543.512 137.703C542.712 138.004 541.838 138.154 540.888 138.154ZM540.871 135.848C541.415 135.848 541.913 135.759 542.365 135.58C542.828 135.402 543.234 135.146 543.581 134.812C543.928 134.477 544.195 134.082 544.38 133.625C544.577 133.169 544.676 132.662 544.676 132.105C544.676 131.548 544.577 131.041 544.38 130.584C544.195 130.127 543.928 129.732 543.581 129.398C543.245 129.063 542.846 128.807 542.382 128.629C541.919 128.451 541.415 128.362 540.871 128.362C540.327 128.362 539.823 128.451 539.36 128.629C538.908 128.807 538.508 129.063 538.161 129.398C537.813 129.732 537.541 130.127 537.344 130.584C537.159 131.041 537.066 131.548 537.066 132.105C537.066 132.65 537.159 133.157 537.344 133.625C537.541 134.082 537.807 134.477 538.143 134.812C538.491 135.146 538.896 135.402 539.36 135.58C539.823 135.759 540.327 135.848 540.871 135.848Z" fill="url(#paint23_linear_1287_2)"/>
<path d="M548.734 138.154V126.056H551.007L558.012 134.766H556.909V126.056H559.622V138.154H557.367L550.346 129.444H551.448V138.154H548.734Z" fill="url(#paint24_linear_1287_2)"/>
<path d="M560.832 138.154L566.122 126.056H568.834L574.14 138.154H571.257L566.918 127.473H568.003L563.647 138.154H560.832ZM563.477 135.561L564.206 133.436H570.308L571.055 135.561H563.477Z" fill="url(#paint25_linear_1287_2)"/>
<path d="M575.35 138.154V126.056H578.406V135.872H585.028V138.154H575.35Z" fill="url(#paint26_linear_1287_2)"/>
<path d="M584.697 65.2788C591.129 65.2788 596.018 66.4306 599.365 68.7346C602.711 71.0386 604.384 74.5199 604.384 79.1776C604.384 81.7601 603.966 84.089 603.129 86.1656C602.293 88.2415 600.959 89.988 599.129 91.4057C597.299 92.8241 594.959 93.9124 592.109 94.6719C589.259 95.4314 585.847 95.8112 581.873 95.8112H533.007L543.439 82.7477H583.129C585.063 82.7477 586.475 82.4569 587.364 81.8745C588.253 81.2921 588.698 80.3424 588.698 79.0266C588.698 77.7096 588.253 76.7729 587.364 76.216C586.475 75.6591 585.063 75.3807 583.129 75.3807H554.577C551.178 75.3807 548.25 75.0264 545.792 74.3172C543.334 73.608 541.295 72.621 539.674 71.355C538.053 70.0895 536.85 68.5574 536.066 66.76C535.282 64.9625 534.889 62.9748 534.889 60.7976C534.889 58.4184 535.321 56.2535 536.184 54.3038C537.046 52.3546 538.38 50.6964 540.184 49.329C541.988 47.9623 544.315 46.8988 547.165 46.1393C550.015 45.3798 553.427 45 557.401 45H602.973L592.541 58.2157H556.146C554.263 58.2157 552.864 58.4693 551.949 58.9752C551.034 59.4812 550.577 60.393 550.577 61.7094C550.577 63.0258 551.034 63.95 551.949 64.4814C552.864 65.0135 554.263 65.2788 556.146 65.2788H584.697Z" fill="url(#paint27_linear_1287_2)"/>
<path d="M631 95.8112H614.062V45H631V95.8112Z" fill="url(#paint28_linear_1287_2)"/>
<path d="M474.937 45H459.21V95.8112H474.937V45Z" fill="url(#paint29_linear_1287_2)"/>
<path fill-rule="evenodd" clip-rule="evenodd" d="M531.145 45L497.856 68.9245L533.007 95.8112H508.719L478.566 69.8997L507.866 45H531.145Z" fill="url(#paint30_linear_1287_2)"/>
<path fill-rule="evenodd" clip-rule="evenodd" d="M1023.42 31.0443L1024.32 28.0617L1034.52 21L1045.03 28.0617L1045.93 31.0443L1066.56 46.6357L1034.52 30.3381L1002.48 46.6357L1023.42 31.0443ZM1054.8 52.0557V45.7734L1033.88 34.886L1024.54 39.747L1024.53 40.5699L1017.83 44.145L1011.66 54.4989V47.448L1005.34 50.8173L1006.32 50.8741L1003.33 52.9751L1006.6 51.9057V62.1744L1008.03 64.0767L991.929 56.9312L990.541 56.2652L967.872 44.7966L967.337 49.5271L953.341 39.1586L968.236 64.0179L971.544 55.1071L1012.09 69.0669L1011.74 68.8574L1011.66 62.922L1013.86 59.2215L1019.61 68.8561L1027.04 71.2033L1016.71 54.4799L1024.53 41.3227L1024.46 48.0949L1049.57 61.1428V63.1232L1043.31 65.0562L1028.9 57.5516V53.9319H1023.84V60.3089L1042.7 70.1351L1054.7 66.4396L1054.82 57.5326L1029.61 44.409V42.4949L1033.88 40.2776L1049.73 48.5308V52.0557H1054.8ZM1065.43 52.0877L1057.04 47.7039L1056.95 69.0669L1098.17 55.3759L1101.18 63.5319L1115.7 39.1586L1102.05 49.3204L1101.53 44.6937L1067.95 60.788L1067.67 61.0024L1061.54 63.7026L1062.53 62.8164V52.8702L1061.58 51.7012L1065.43 52.0877ZM1028.61 70.7885L1023.84 62.658L1028.32 66.053L1028.49 64.5098L1040.93 71.2032L1029.66 67.8758L1028.61 70.7885ZM1003.54 59.4536L995.807 46.2456L994.086 50.9825L975.772 45.5676L995.992 56.4548L996.27 53.9431L1003.54 59.4536ZM1072.17 46.2456L1064.43 59.4536L1071.7 53.9526L1071.99 56.4644L1092.2 45.5676L1073.89 50.9825L1072.17 46.2456ZM1030.24 69.0669L1039.86 71.4235L1034.33 73.3396L1029.18 71.5666L1032.57 71.5006L1030.24 69.0669ZM998.203 101.112L1004.46 75.0625L1000.88 71.022L1000.61 69.0669L1014.68 73.0143L1020.63 99.0634L1012.98 99.7803L1012.14 94.1664L1006.95 95.3301L1006.22 100.413L998.203 101.112ZM1011.41 89.5673L1009.55 77.7996L1007.72 90.1259L1011.41 89.5673ZM984.099 109.893L978.976 133.156H985.992L986.727 127.701H991.492L992.254 133.156H999.271L993.385 105.384L980.617 106.655L980.68 107.715L984.099 109.893ZM989.024 111.164L990.765 122.791H987.409L989.024 111.164ZM1091.13 133.156L1085.74 109.893L1089.34 107.715L1089.4 106.655L1075.96 105.384L1069.77 133.156H1077.15L1077.96 127.701H1082.97L1083.75 133.156H1091.13ZM1078.72 122.791L1080.55 111.164L1082.25 122.791H1078.72ZM998.315 107.782L998.203 104.791L1014.22 103.248L1017.23 106.651L1017.63 118.662L1015.07 121.04L1019.46 131.182L1020.63 131.718L1020.63 133.127H1013.84L1010.01 122.314H1006.79V133.156L1000.88 133.127V109.546L998.315 107.782ZM1006.28 110.303L1006.23 117.061L1009.94 117.128L1011.53 115.556L1011.44 107.772L1004.2 108.664L1006.28 110.303ZM1075.11 66.9747V101.619L1102.81 104.316L1102.88 101.514L1098.39 95.0998L1084.41 95.4429L1084.4 87.0464L1092.16 86.6556L1092.75 79.4409L1084.66 80.0127V73.7129L1080.81 72.9505L1092.45 70.8728L1095.61 63.9439L1094.83 61.5899L1075.11 66.9747ZM1022.77 133.156V103.225L1034.46 102.18L1040.93 102.796L1040.74 104.458L1038.1 108.687L1033.89 108.024L1025.59 108.687L1029.37 109.882L1029.38 115.119H1036.84V120.441H1029.42V127.209H1037.81L1040.74 131.569V133.156H1022.77ZM1045.26 133.156L1045.89 106.16L1044.13 104.17L1044.3 102.18L1053.68 103.007L1060.27 120.196L1060.37 107.612L1057.71 105.804V103.478L1066.56 104.333L1066.55 133.156L1058.43 133.147L1051.57 114.63V133.156H1045.26ZM973.723 63.4714L974.136 61.5899L992.456 66.8751L996.065 71.0541L994.394 80.9627L991.217 83.9504L994.394 87.1934V98.6432L990.161 102.378L969.361 104.316L976.193 67.1682L973.723 63.4714ZM984.403 96.8373L977.121 97.0926L979.453 86.8909L986.148 86.7963L985.992 95.2489L984.403 96.8373ZM987.02 80.7263L980.445 80.5845L981.694 73.7676L980.298 70.865L988.517 72.5385L987.02 80.7263ZM1022.74 82.6114V79.2511L1019.4 78.4039L1019 79.2321L1017.43 79.6033L1017.57 73.3396L1034.52 78.2135V83.5253L1032.87 82.7162L1032.44 81.6785L1029.21 80.8694V82.5067V84.6962L1029.2 96.6145L1030.33 96.9667V98.1661L1021.59 98.9753V97.7663L1022.74 97.2142L1022.74 82.6114ZM1047.36 79.2511V82.6114L1047.37 97.2142L1048.52 97.7663V98.9753L1039.78 98.1661V96.9667L1040.92 96.6144L1040.9 84.6962V82.5067V80.8694L1037.67 81.6785L1037.23 82.7161L1035.59 83.5253V78.2135L1052.53 73.3396L1052.68 79.6033L1051.11 79.2321L1050.71 78.4039L1047.36 79.2511ZM1054.81 73.8463V72.7282L1064.02 70.1351L1063.8 95.3992L1072.84 95.4838L1072.97 101.112L1057.49 99.6741V74.8704L1054.81 73.8463ZM974.327 127.202L948 145.733L967.406 141.414L966.203 145.308L1015.71 143.054L1016.11 145.855L1016.99 148.844L1034.51 161.358L1052.56 148.844L1053.47 145.751L1053.86 143.054L1102.83 145.289L1101.63 141.414L1121.04 145.733L1094.71 127.202L1095.34 138.386H973.697L974.327 127.202ZM1033.8 149.137C1033.79 149.125 1033.77 149.092 1033.73 149.046L1033.73 149.044C1033.71 149.016 1033.69 148.983 1033.66 148.948L1033.64 148.918C1033.5 148.705 1033.31 148.434 1033.32 148.335C1033.32 148.276 1033.5 147.977 1033.65 147.752L1033.65 147.752L1033.69 147.675L1033.79 147.534L1033.82 147.458H1034.88L1034.92 147.524C1034.95 147.561 1035 147.655 1035.07 147.763C1035.12 147.848 1035.18 147.941 1035.23 148.024C1035.29 148.147 1035.35 148.26 1035.36 148.298L1035.37 148.307C1035.38 148.364 1035.32 148.514 1035.24 148.665C1035.12 148.863 1034.97 149.109 1034.93 149.156L1034.9 149.203L1033.84 149.212L1033.8 149.137ZM1030.26 146.751C1030.2 146.796 1030.1 146.852 1029.99 146.907L1029.99 146.908C1029.96 146.922 1029.94 146.936 1029.91 146.949L1029.8 147.015L1029.58 147.138L1029.42 147.222C1029.42 147.336 1029.42 147.543 1029.42 147.685L1029.57 147.769C1029.78 147.873 1029.8 147.883 1029.95 147.798C1030.14 147.703 1030.32 147.6 1030.5 147.487L1030.63 147.411L1030.84 147.279C1030.87 147.263 1030.9 147.249 1030.92 147.235L1030.92 147.235C1031 147.185 1031.06 147.152 1031.13 147.138C1031.24 147.109 1031.3 147.147 1031.45 147.232L1031.59 147.307L1031.7 147.37L1031.7 147.37C1031.9 147.483 1032.15 147.628 1032.2 147.675L1032.29 147.798L1032.16 147.883C1032.1 147.931 1032.03 147.975 1031.96 148.02C1031.91 148.046 1031.87 148.072 1031.83 148.099L1031.64 148.213C1031.59 148.25 1031.54 148.279 1031.47 148.316L1031.43 148.354C1031.46 148.371 1031.49 148.391 1031.53 148.41C1031.57 148.436 1031.62 148.461 1031.65 148.477L1031.79 148.552C1031.82 148.564 1031.84 148.578 1031.86 148.591C1031.99 148.661 1032.14 148.745 1032.21 148.816C1032.25 148.863 1032.31 148.948 1032.35 149.005L1032.18 149.071C1032.11 149.099 1032.02 149.156 1031.93 149.212C1031.92 149.221 1031.91 149.229 1031.9 149.237C1031.89 149.244 1031.88 149.25 1031.87 149.256L1031.87 149.256C1031.85 149.268 1031.83 149.281 1031.8 149.297L1031.62 149.401C1031.6 149.415 1031.58 149.428 1031.55 149.441C1031.43 149.511 1031.36 149.553 1031.27 149.561C1031.15 149.561 1031.09 149.523 1030.95 149.439L1030.83 149.363C1030.74 149.313 1030.65 149.263 1030.57 149.214C1030.37 149.097 1030.17 148.983 1029.97 148.863C1029.88 148.807 1029.88 148.807 1029.73 148.873L1029.73 148.873L1029.71 148.892L1029.71 148.892C1029.61 148.939 1029.44 149.024 1029.43 149.033V149.278V149.505L1029.91 149.74L1029.93 149.748C1030.1 149.83 1030.25 149.902 1030.3 149.938L1030.41 150.023L1030.33 150.136C1030.26 150.221 1030.09 150.306 1029.98 150.363L1029.91 150.391L1029.79 150.457C1029.73 150.492 1029.66 150.527 1029.6 150.562C1029.35 150.697 1029.1 150.833 1028.86 150.976V151.098V151.362C1028.87 151.436 1028.87 151.462 1028.88 151.476C1028.89 151.484 1028.9 151.488 1028.92 151.494C1028.92 151.498 1028.93 151.501 1028.93 151.504C1028.94 151.507 1028.95 151.51 1028.95 151.513C1028.96 151.516 1028.97 151.52 1028.97 151.523C1029 151.536 1029.03 151.548 1029.06 151.56L1029.06 151.561C1029.09 151.575 1029.12 151.588 1029.14 151.598C1029.31 151.683 1029.34 151.692 1029.52 151.598C1029.65 151.537 1029.77 151.466 1029.89 151.396C1029.94 151.369 1029.99 151.342 1030.04 151.315L1030.19 151.23C1030.36 151.127 1030.68 150.929 1030.81 150.938L1030.95 150.947L1030.96 151.994C1030.97 152.01 1031 152.024 1031.02 152.037L1031.02 152.037C1031.04 152.047 1031.05 152.058 1031.07 152.07C1031.09 152.079 1031.16 152.126 1031.17 152.145C1031.19 152.153 1031.21 152.169 1031.22 152.183C1031.24 152.201 1031.26 152.216 1031.27 152.211C1031.32 152.193 1031.49 152.085 1031.62 152.002L1031.64 151.985L1031.68 151.966L1031.7 150.382L1031.76 150.344C1031.81 150.306 1032.11 150.118 1032.36 149.986C1032.54 149.891 1032.69 149.816 1032.74 149.816L1032.88 149.825V149.957V150.25C1032.87 150.448 1032.87 150.664 1032.88 150.853C1032.93 150.818 1033 150.773 1033.07 150.725C1033.11 150.696 1033.15 150.665 1033.19 150.636C1033.39 150.495 1033.59 150.363 1033.71 150.344L1033.87 150.316L1033.88 151.57L1033.81 151.608C1033.73 151.655 1033.26 151.938 1032.89 152.145C1032.74 152.239 1032.6 152.315 1032.51 152.362L1032.52 152.815C1032.56 152.852 1032.61 152.882 1032.67 152.911C1032.69 152.926 1032.72 152.94 1032.74 152.956L1032.8 152.984C1032.83 153.001 1032.85 153.015 1032.86 153.023C1032.87 153.028 1032.87 153.031 1032.88 153.031C1032.88 153.028 1032.88 153.026 1032.88 153.024C1032.88 153.02 1032.88 153.016 1032.9 153.003L1033.06 152.909C1033.25 152.796 1033.64 152.569 1033.72 152.56L1033.88 152.532L1033.89 152.692C1033.9 152.932 1033.9 153.178 1033.9 153.425C1033.9 153.507 1033.9 153.59 1033.9 153.673V154.022C1033.9 154.097 1033.9 154.201 1033.91 154.239C1033.91 154.243 1033.92 154.251 1033.94 154.263C1033.96 154.275 1033.99 154.291 1034.02 154.314C1034.16 154.408 1034.32 154.503 1034.33 154.503C1034.33 154.503 1034.53 154.371 1034.62 154.314C1034.63 154.314 1034.68 154.286 1034.69 154.276C1034.72 154.257 1034.74 154.239 1034.75 154.22C1034.75 154.196 1034.75 154.168 1034.75 154.137C1034.75 154.119 1034.75 154.1 1034.75 154.081C1034.75 154.055 1034.75 154.028 1034.75 154.003V153.937V153.936C1034.75 153.635 1034.75 153.342 1034.76 153.05L1034.77 152.541L1034.92 152.56C1035.01 152.569 1035.25 152.709 1035.46 152.828L1035.49 152.843C1035.61 152.918 1035.71 152.975 1035.77 153.003C1035.81 153.022 1035.83 153.013 1035.87 152.994L1035.97 152.947C1036 152.932 1036.02 152.92 1036.04 152.91C1036.11 152.88 1036.14 152.864 1036.15 152.843C1036.17 152.824 1036.17 152.749 1036.17 152.598V152.598V152.551C1036.18 152.377 1036.15 152.363 1036.05 152.311L1036.04 152.305L1035.81 152.164L1035.62 152.06C1035.58 152.04 1035.55 152.018 1035.51 151.996C1035.45 151.965 1035.4 151.932 1035.34 151.9C1035.17 151.796 1034.98 151.683 1034.85 151.626L1034.77 151.589L1034.78 150.316L1034.95 150.344C1035.04 150.359 1035.24 150.483 1035.37 150.565L1035.37 150.566C1035.41 150.586 1035.44 150.604 1035.46 150.617L1035.48 150.636C1035.51 150.654 1035.57 150.689 1035.63 150.728L1035.63 150.728L1035.63 150.728C1035.67 150.751 1035.71 150.775 1035.74 150.797L1035.77 149.787L1035.94 149.844C1036.01 149.854 1036.18 149.948 1036.35 150.052C1036.6 150.184 1036.87 150.344 1036.95 150.4L1037 150.438L1037.01 150.514V151.362V151.56C1037.01 151.607 1037.01 151.648 1037.01 151.685C1037 151.715 1037 151.742 1037 151.768C1036.99 152.004 1036.99 152.013 1037.27 152.154L1037.28 152.164L1037.29 152.17C1037.37 152.212 1037.38 152.218 1037.48 152.164L1037.61 152.088C1037.64 152.072 1037.67 152.059 1037.68 152.047C1037.73 152.021 1037.75 152.007 1037.75 151.994C1037.77 151.956 1037.77 151.872 1037.77 151.74C1037.76 151.589 1037.76 151.391 1037.78 151.098L1037.79 150.91L1037.96 150.966C1038.03 150.99 1038.11 151.035 1038.19 151.076L1038.23 151.098C1038.34 151.162 1038.45 151.225 1038.56 151.288L1038.57 151.289C1038.79 151.412 1039.01 151.536 1039.23 151.674C1039.24 151.68 1039.25 151.684 1039.25 151.685C1039.27 151.688 1039.28 151.68 1039.33 151.655C1039.38 151.638 1039.41 151.622 1039.45 151.607C1039.49 151.587 1039.53 151.571 1039.56 151.56C1039.7 151.504 1039.73 151.485 1039.74 151.353V150.957V150.929C1039.7 150.9 1039.41 150.749 1039.24 150.664L1038.99 150.514C1038.79 150.4 1038.48 150.221 1038.42 150.146L1038.33 150.023L1038.44 149.938C1038.57 149.844 1038.72 149.759 1038.87 149.684L1038.98 149.627C1039.05 149.589 1039.13 149.542 1039.18 149.505C1039.21 149.486 1039.21 149.439 1039.21 149.373V149.307C1039.21 149.052 1039.2 149.043 1039.01 148.91H1039.01C1038.87 148.812 1038.86 148.816 1038.81 148.849L1038.8 148.854C1038.79 148.859 1038.78 148.865 1038.77 148.871C1038.76 148.875 1038.76 148.878 1038.75 148.882C1038.72 148.898 1038.69 148.917 1038.65 148.939C1038.6 148.965 1038.55 148.992 1038.5 149.019L1038.49 149.021C1038.38 149.082 1038.27 149.145 1038.15 149.203C1038.07 149.25 1037.99 149.297 1037.91 149.344C1037.85 149.376 1037.79 149.408 1037.74 149.44C1037.71 149.455 1037.69 149.47 1037.66 149.486C1037.47 149.599 1037.44 149.58 1037.3 149.505L1037.25 149.467L1037.09 149.391L1037.03 149.36L1037.03 149.36C1036.84 149.267 1036.65 149.171 1036.48 149.052L1036.36 148.977L1036.44 148.854C1036.51 148.757 1036.68 148.668 1036.86 148.571L1036.9 148.552C1036.97 148.511 1037.04 148.473 1037.1 148.439L1037.11 148.439C1037.14 148.419 1037.18 148.4 1037.21 148.382L1037.13 148.326C1037.08 148.298 1037.01 148.26 1036.95 148.213L1036.92 148.197C1036.75 148.097 1036.55 147.981 1036.47 147.883L1036.37 147.779L1036.48 147.685C1036.51 147.647 1036.79 147.458 1037.02 147.307C1037.21 147.175 1037.4 147.072 1037.44 147.072L1037.47 147.062L1037.5 147.072C1037.58 147.098 1037.77 147.214 1037.91 147.298L1037.91 147.299L1037.94 147.317C1038.14 147.43 1038.34 147.543 1038.54 147.666C1038.64 147.732 1038.86 147.864 1038.87 147.873L1039.01 147.807C1039.03 147.791 1039.06 147.775 1039.08 147.758C1039.11 147.74 1039.14 147.723 1039.17 147.706C1039.19 147.691 1039.21 147.678 1039.23 147.666L1039.22 147.213C1039.12 147.156 1038.94 147.053 1038.78 146.958C1038.62 146.874 1038.47 146.779 1038.42 146.742L1038.31 146.647L1038.4 146.544C1038.48 146.459 1038.9 146.223 1039.17 146.072L1039.38 145.959C1039.45 145.916 1039.52 145.878 1039.58 145.846L1039.63 145.817C1039.71 145.78 1039.76 145.751 1039.77 145.733C1039.78 145.723 1039.78 145.667 1039.78 145.544V145.421V145.327C1039.79 145.28 1039.79 145.233 1039.78 145.233C1039.75 145.214 1039.6 145.12 1039.48 145.044C1039.44 145.021 1039.41 145.002 1039.4 144.99C1039.39 144.983 1039.39 144.978 1039.38 144.978C1039.36 144.978 1039.16 145.092 1038.95 145.208L1038.95 145.21C1038.88 145.25 1038.81 145.291 1038.74 145.327C1038.7 145.351 1038.66 145.373 1038.62 145.393L1038.62 145.393C1038.56 145.429 1038.51 145.456 1038.48 145.468C1038.46 145.479 1038.44 145.489 1038.43 145.499C1038.39 145.518 1038.36 145.539 1038.32 145.563L1038.32 145.563L1038.32 145.563C1038.2 145.629 1038.07 145.695 1037.96 145.733L1037.78 145.799L1037.77 145.61C1037.76 145.497 1037.76 145.393 1037.76 145.289V144.959V144.837C1037.77 144.714 1037.77 144.648 1037.69 144.61L1037.46 144.507C1037.35 144.459 1037.31 144.478 1037.24 144.525C1037.22 144.534 1037.2 144.544 1037.18 144.555C1037.13 144.582 1037.07 144.615 1036.99 144.648L1036.97 146.393L1036.88 146.421C1036.81 146.449 1036.64 146.544 1036.47 146.647L1036.4 146.683C1036.18 146.802 1035.98 146.911 1035.9 146.911H1035.77L1035.73 145.855C1035.7 145.878 1035.66 145.902 1035.62 145.929L1035.62 145.929C1035.57 145.958 1035.52 145.99 1035.47 146.025C1035.26 146.157 1035.06 146.289 1034.93 146.308L1034.77 146.317V145.063L1036.19 144.271V143.865C1036.13 143.818 1036.04 143.762 1035.97 143.714L1035.87 143.639C1035.85 143.632 1035.85 143.627 1035.84 143.623C1035.84 143.62 1035.84 143.618 1035.84 143.616C1035.84 143.613 1035.84 143.611 1035.83 143.611C1035.83 143.611 1035.82 143.611 1035.82 143.612C1035.82 143.612 1035.82 143.613 1035.82 143.614C1035.82 143.616 1035.82 143.618 1035.82 143.621C1035.81 143.623 1035.81 143.626 1035.8 143.63L1035.6 143.743C1035.39 143.865 1035.05 144.063 1034.93 144.092L1034.77 144.129L1034.76 142.63V142.545C1034.76 142.533 1034.76 142.521 1034.76 142.509C1034.76 142.504 1034.76 142.499 1034.76 142.494C1034.76 142.452 1034.76 142.42 1034.75 142.413L1034.65 142.347C1034.61 142.321 1034.57 142.289 1034.52 142.257C1034.44 142.197 1034.35 142.14 1034.34 142.14C1034.32 142.153 1034.29 142.171 1034.26 142.192L1034.26 142.192C1034.22 142.215 1034.17 142.242 1034.13 142.272C1034.04 142.319 1033.96 142.375 1033.9 142.423L1033.89 144.101L1033.73 144.092C1033.65 144.082 1033.22 143.837 1033.04 143.733L1033 143.705C1032.86 143.622 1032.85 143.629 1032.75 143.682L1032.74 143.686L1032.71 143.709C1032.66 143.742 1032.6 143.784 1032.51 143.837L1032.5 144.271L1032.5 144.271C1032.63 144.346 1032.83 144.459 1032.98 144.554L1033.12 144.639C1033.18 144.677 1033.25 144.711 1033.31 144.747C1033.35 144.764 1033.38 144.781 1033.41 144.799C1033.43 144.808 1033.44 144.818 1033.46 144.828L1033.49 144.846L1033.49 144.847C1033.6 144.906 1033.71 144.968 1033.81 145.035L1033.87 145.072L1033.88 145.233C1033.88 145.292 1033.88 145.353 1033.88 145.416V145.416C1033.88 145.673 1033.89 145.95 1033.86 146.185L1033.84 146.355L1033.68 146.308C1033.53 146.26 1033.39 146.178 1033.24 146.097L1033.22 146.083C1033.2 146.073 1033.18 146.063 1033.17 146.053C1033.06 145.987 1032.96 145.921 1032.86 145.874C1032.85 145.997 1032.85 146.157 1032.85 146.308V146.308C1032.85 146.468 1032.85 146.638 1032.84 146.77L1032.81 146.949L1032.64 146.892C1032.53 146.851 1032.37 146.757 1032.22 146.665C1032.19 146.648 1032.16 146.63 1032.13 146.613C1032.1 146.599 1032.08 146.585 1032.06 146.572L1031.92 146.487L1031.75 146.393H1031.65V146.261L1031.64 146.242V144.723L1031.45 144.61C1031.41 144.591 1031.38 144.573 1031.36 144.556C1031.34 144.54 1031.31 144.525 1031.3 144.516C1031.26 144.488 1031.24 144.478 1031.21 144.497L1030.91 144.695L1030.89 145.799L1030.73 145.78C1030.64 145.771 1030.08 145.445 1029.81 145.288L1029.76 145.261L1029.62 145.186C1029.59 145.167 1029.56 145.148 1029.53 145.129C1029.51 145.117 1029.49 145.105 1029.48 145.093C1029.46 145.086 1029.45 145.079 1029.44 145.072L1029.39 145.044L1029.37 145.036C1029.34 145.02 1029.32 145.008 1029.29 145.016C1029.24 145.041 1029.18 145.071 1029.12 145.099C1029.11 145.108 1029.09 145.117 1029.07 145.126C1029.06 145.13 1029.06 145.134 1029.05 145.138L1028.88 145.233V145.761C1029.15 145.931 1029.58 146.157 1029.91 146.327L1030.06 146.402C1030.2 146.478 1030.29 146.544 1030.4 146.628L1030.26 146.751Z" fill="url(#paint31_linear_1287_2)"/>
<path fill-rule="evenodd" clip-rule="evenodd" d="M778.817 29.6078L777.04 35.7861L735.591 68.0423L799.019 34.3305L862.447 68.0423L821.603 35.7861L819.82 29.6078L799.019 15L778.817 29.6078ZM783.369 29.8989L799.019 20.0526L802.126 22.0387H799.019V29.6984L769.018 45.6454L781.593 36.1225L783.369 29.8989ZM845.448 79.4672V65.2216L799.019 40.541L778.295 51.5519L778.294 51.5571L762.065 60.182L747.981 83.6593V67.6671L733.592 75.3203L735.82 75.4497L729.001 80.1982L736.47 77.7852V103.249L739.061 104.432L729.001 105.079L747.981 110.578V102.77L753.017 94.3791L766.108 116.233L783.044 121.557L759.493 83.614L778.289 52.1337L778.123 70.4877L833.847 100.053V104.542L819.967 108.909L787.985 91.9142V83.7046H776.735V98.1572L818.611 120.418L845.225 112.047L845.492 91.856L789.545 62.1164V57.8013L799.019 52.7681L834.197 71.4646V79.4672H845.448ZM869.031 77.7528L850.268 67.7835V110.462L869.031 104.562L860.353 104.225L862.537 102.194V79.5384L860.423 76.873L869.031 77.7528ZM774.691 144.167L776.645 150.96L799.019 167.159L821.686 151.005L823.64 144.206L869.031 109.252L799.019 131.28L729.052 109.252L799.019 140.195L869.031 109.252L799.019 145.798L729.039 109.252L774.691 144.167ZM811.212 153.839L818.846 148.735L821.145 140.939L846.893 123.414L807.532 145.823L811.346 145.933L811.212 153.839ZM786.272 120.897L775.499 102.809L785.617 110.352L786.011 106.91L814.135 121.829L788.66 114.415L786.272 120.897ZM790.284 118.251L810.836 122.864L799.019 126.584L788.036 123.129L795.263 123L790.284 118.251Z" fill="url(#paint32_linear_1287_2)"/>
<defs>
<linearGradient id="paint0_linear_1287_2" x1="541.151" y1="48.5839" x2="541.151" y2="136.637" gradientUnits="userSpaceOnUse">
<stop stop-color="#D1A561"/>
<stop offset="1" stop-color="#D8C384"/>
</linearGradient>
<linearGradient id="paint1_linear_1287_2" x1="543.959" y1="49.6756" x2="543.959" y2="136.245" gradientUnits="userSpaceOnUse">
<stop stop-color="#D1A561"/>
<stop offset="1" stop-color="#D8C384"/>
</linearGradient>
<linearGradient id="paint2_linear_1287_2" x1="544.608" y1="48.5839" x2="544.608" y2="136.637" gradientUnits="userSpaceOnUse">
<stop stop-color="#D1A561"/>
<stop offset="1" stop-color="#D8C384"/>
</linearGradient>
<linearGradient id="paint3_linear_1287_2" x1="545.27" y1="48.5839" x2="545.27" y2="136.637" gradientUnits="userSpaceOnUse">
<stop stop-color="#D1A561"/>
<stop offset="1" stop-color="#D8C384"/>
</linearGradient>
<linearGradient id="paint4_linear_1287_2" x1="541.798" y1="49.6756" x2="541.798" y2="136.245" gradientUnits="userSpaceOnUse">
<stop stop-color="#D1A561"/>
<stop offset="1" stop-color="#D8C384"/>
</linearGradient>
<linearGradient id="paint5_linear_1287_2" x1="543.025" y1="48.5839" x2="543.025" y2="136.637" gradientUnits="userSpaceOnUse">
<stop stop-color="#D1A561"/>
<stop offset="1" stop-color="#D8C384"/>
</linearGradient>
<linearGradient id="paint6_linear_1287_2" x1="544.52" y1="48.5839" x2="544.52" y2="136.637" gradientUnits="userSpaceOnUse">
<stop stop-color="#D1A561"/>
<stop offset="1" stop-color="#D8C384"/>
</linearGradient>
<linearGradient id="paint7_linear_1287_2" x1="544.639" y1="48.5839" x2="544.639" y2="136.637" gradientUnits="userSpaceOnUse">
<stop stop-color="#D1A561"/>
<stop offset="1" stop-color="#D8C384"/>
</linearGradient>
<linearGradient id="paint8_linear_1287_2" x1="545.183" y1="48.5839" x2="545.183" y2="136.637" gradientUnits="userSpaceOnUse">
<stop stop-color="#D1A561"/>
<stop offset="1" stop-color="#D8C384"/>
</linearGradient>
<linearGradient id="paint9_linear_1287_2" x1="544.771" y1="48.5839" x2="544.771" y2="136.637" gradientUnits="userSpaceOnUse">
<stop stop-color="#D1A561"/>
<stop offset="1" stop-color="#D8C384"/>
</linearGradient>
<linearGradient id="paint10_linear_1287_2" x1="545.112" y1="48.5839" x2="545.112" y2="136.637" gradientUnits="userSpaceOnUse">
<stop stop-color="#D1A561"/>
<stop offset="1" stop-color="#D8C384"/>
</linearGradient>
<linearGradient id="paint11_linear_1287_2" x1="541.437" y1="48.5839" x2="541.437" y2="136.637" gradientUnits="userSpaceOnUse">
<stop stop-color="#D1A561"/>
<stop offset="1" stop-color="#D8C384"/>
</linearGradient>
<linearGradient id="paint12_linear_1287_2" x1="544.648" y1="48.5839" x2="544.648" y2="136.637" gradientUnits="userSpaceOnUse">
<stop stop-color="#D1A561"/>
<stop offset="1" stop-color="#D8C384"/>
</linearGradient>
<linearGradient id="paint13_linear_1287_2" x1="543.306" y1="48.5839" x2="543.306" y2="136.637" gradientUnits="userSpaceOnUse">
<stop stop-color="#D1A561"/>
<stop offset="1" stop-color="#D8C384"/>
</linearGradient>
<linearGradient id="paint14_linear_1287_2" x1="548.782" y1="49.6756" x2="548.782" y2="136.245" gradientUnits="userSpaceOnUse">
<stop stop-color="#D1A561"/>
<stop offset="1" stop-color="#D8C384"/>
</linearGradient>
<linearGradient id="paint15_linear_1287_2" x1="570.788" y1="40.5293" x2="570.788" y2="138.361" gradientUnits="userSpaceOnUse">
<stop stop-color="#D1A561"/>
<stop offset="1" stop-color="#D8C384"/>
</linearGradient>
<linearGradient id="paint16_linear_1287_2" x1="543.869" y1="40.5293" x2="543.869" y2="138.361" gradientUnits="userSpaceOnUse">
<stop stop-color="#D1A561"/>
<stop offset="1" stop-color="#D8C384"/>
</linearGradient>
<linearGradient id="paint17_linear_1287_2" x1="545.623" y1="40.5293" x2="545.623" y2="138.361" gradientUnits="userSpaceOnUse">
<stop stop-color="#D1A561"/>
<stop offset="1" stop-color="#D8C384"/>
</linearGradient>
<linearGradient id="paint18_linear_1287_2" x1="538.026" y1="40.5293" x2="538.026" y2="138.361" gradientUnits="userSpaceOnUse">
<stop stop-color="#D1A561"/>
<stop offset="1" stop-color="#D8C384"/>
</linearGradient>
<linearGradient id="paint19_linear_1287_2" x1="546.437" y1="40.5293" x2="546.437" y2="138.361" gradientUnits="userSpaceOnUse">
<stop stop-color="#D1A561"/>
<stop offset="1" stop-color="#D8C384"/>
</linearGradient>
<linearGradient id="paint20_linear_1287_2" x1="543.832" y1="40.5293" x2="543.832" y2="138.361" gradientUnits="userSpaceOnUse">
<stop stop-color="#D1A561"/>
<stop offset="1" stop-color="#D8C384"/>
</linearGradient>
<linearGradient id="paint21_linear_1287_2" x1="542.789" y1="40.5293" x2="542.789" y2="138.361" gradientUnits="userSpaceOnUse">
<stop stop-color="#D1A561"/>
<stop offset="1" stop-color="#D8C384"/>
</linearGradient>
<linearGradient id="paint22_linear_1287_2" x1="542.982" y1="40.5293" x2="542.982" y2="138.361" gradientUnits="userSpaceOnUse">
<stop stop-color="#D1A561"/>
<stop offset="1" stop-color="#D8C384"/>
</linearGradient>
<linearGradient id="paint23_linear_1287_2" x1="545.102" y1="43.5602" x2="545.102" y2="138.154" gradientUnits="userSpaceOnUse">
<stop stop-color="#D1A561"/>
<stop offset="1" stop-color="#D8C384"/>
</linearGradient>
<linearGradient id="paint24_linear_1287_2" x1="544.304" y1="40.5293" x2="544.304" y2="138.361" gradientUnits="userSpaceOnUse">
<stop stop-color="#D1A561"/>
<stop offset="1" stop-color="#D8C384"/>
</linearGradient>
<linearGradient id="paint25_linear_1287_2" x1="544.273" y1="40.5293" x2="544.273" y2="138.361" gradientUnits="userSpaceOnUse">
<stop stop-color="#D1A561"/>
<stop offset="1" stop-color="#D8C384"/>
</linearGradient>
<linearGradient id="paint26_linear_1287_2" x1="540.74" y1="40.5293" x2="540.74" y2="138.361" gradientUnits="userSpaceOnUse">
<stop stop-color="#D1A561"/>
<stop offset="1" stop-color="#D8C384"/>
</linearGradient>
<linearGradient id="paint27_linear_1287_2" x1="544.407" y1="44.9994" x2="544.407" y2="138.23" gradientUnits="userSpaceOnUse">
<stop stop-color="#D1A561"/>
<stop offset="1" stop-color="#D8C384"/>
</linearGradient>
<linearGradient id="paint28_linear_1287_2" x1="541.676" y1="45" x2="541.676" y2="138.229" gradientUnits="userSpaceOnUse">
<stop stop-color="#D1A561"/>
<stop offset="1" stop-color="#D8C384"/>
</linearGradient>
<linearGradient id="paint29_linear_1287_2" x1="541.574" y1="45" x2="541.574" y2="138.229" gradientUnits="userSpaceOnUse">
<stop stop-color="#D1A561"/>
<stop offset="1" stop-color="#D8C384"/>
</linearGradient>
<linearGradient id="paint30_linear_1287_2" x1="543.944" y1="45" x2="543.944" y2="138.229" gradientUnits="userSpaceOnUse">
<stop stop-color="#D1A561"/>
<stop offset="1" stop-color="#D8C384"/>
</linearGradient>
<linearGradient id="paint31_linear_1287_2" x1="1034.52" y1="21" x2="1034.52" y2="161.358" gradientUnits="userSpaceOnUse">
<stop stop-color="#D1A460"/>
<stop offset="1" stop-color="#D9C485"/>
</linearGradient>
<linearGradient id="paint32_linear_1287_2" x1="799.016" y1="15" x2="799.016" y2="167.159" gradientUnits="userSpaceOnUse">
<stop stop-color="#D1A460"/>
<stop offset="1" stop-color="#D8C384"/>
</linearGradient>
</defs>
</svg>
