<svg width="153" height="153" viewBox="0 0 153 153" fill="none" xmlns="http://www.w3.org/2000/svg">
<mask id="mask0_1_16054" style="mask-type:alpha" maskUnits="userSpaceOnUse" x="0" y="0" width="153" height="153">
<rect width="153" height="153" fill="#D9D9D9"/>
</mask>
<g mask="url(#mask0_1_16054)">
</g>
<g clip-path="url(#clip0_1_16054)">
<path fill-rule="evenodd" clip-rule="evenodd" d="M114.313 23.5653C116.914 25.5604 122.265 32.1378 123.894 34.6004C126.196 38.08 129.871 44.9521 131.377 48.8828C134.923 58.1416 136.995 74.7984 137.237 86.237C139.988 85.6729 144.162 82.3539 146.449 80.6045L148.893 79.4451C148.964 79.4343 149.183 79.4196 149.32 79.4574C150.948 83.527 146.128 104.083 144.207 108.085C137.413 122.236 139.606 118.35 130.313 129.633C128.183 132.221 124.475 135.156 121.108 137.837C112.895 144.376 93.8761 152.999 82.9978 152.999C63.1661 152.999 51.8013 150.613 34.8568 139.176C20.7075 129.626 9.40532 111.928 6.43126 95.1672C5.89943 92.1698 6.07904 90.2885 5.43932 87.604C4.71873 84.5821 3.94473 82.5916 4.94334 79.2243C7.21826 79.1281 5.32684 78.7585 7.52583 80.3088C8.76874 81.1851 8.82112 81.3744 10.5245 82.4537C12.469 83.6862 14.1847 85.6197 17.1521 86.2713C17.499 74.2602 18.3089 71.8507 19.7071 61.9106C21.5687 48.6753 33.2252 26.416 40.8654 23.3347C40.8454 28.0412 42.8208 36.5609 48.2252 37.7042C55.5452 39.2527 58.1983 31.6461 60.3537 27.5765L77.1935 -0.000732422C77.6508 0.477307 77.6961 0.522451 78.2518 1.24546C78.7742 1.92577 78.9088 2.1109 79.4705 2.96969L97.912 34.4149C99.7047 36.4562 102.917 38.4552 106.155 37.7668C108.894 37.1845 110.41 34.2589 111.504 32.1605C113.272 28.7709 113.131 26.62 114.312 23.5653H114.313Z" fill="#FE0C3B"/>
<path fill-rule="evenodd" clip-rule="evenodd" d="M113.594 51.5058C124.378 68.55 121.905 74.3617 121.759 90.2847L130.496 89.4406C130.428 97.4284 127.574 99.6135 124.724 105.063C129.363 105.112 133.169 103.731 130.593 109.585C125.876 120.306 109.077 134.769 97.7315 138.429C81.8416 143.556 72.0027 143.46 56.1067 138.267C44.6537 134.525 35.5179 125.282 28.413 116.559C17.5305 103.199 25.8955 105.135 29.5631 104.978C28.2098 101.385 23.9974 98.3022 23.8413 89.5152L32.1259 89.8389C32.1969 81.0172 31.4278 75.1694 33.4799 67.215C34.7098 62.4475 38.3689 54.4825 41.6414 51.4834C45.1975 53.0767 53.8659 61.441 56.2962 65.0732C62.3715 74.1539 59.027 69.2275 77.1954 69.224C84.1506 69.2226 87.6631 69.9946 93.8837 70.9693L96.1347 68.1563C99.94 63.0617 107.41 52.338 113.594 51.5058H113.594Z" fill="black"/>
<path fill-rule="evenodd" clip-rule="evenodd" d="M46.7418 97.7699C43.0152 109.683 57.6092 120.088 65.2871 114.029C73.7709 107.332 58.3477 93.4406 46.7418 97.7699Z" fill="black"/>
<path fill-rule="evenodd" clip-rule="evenodd" d="M106.724 97.7163C104.521 96.0197 96.1223 96.665 91.6431 101.246C73.7608 119.532 109.12 120.851 108.157 101.29C108.104 100.224 108.084 100.18 107.784 99.2984C107.128 97.3786 108.197 98.8505 106.724 97.7163Z" fill="black"/>
<path fill-rule="evenodd" clip-rule="evenodd" d="M82.2676 124.428C79.8197 121.906 73.5718 121.133 72.2867 125.15C72.3718 127.744 80.7589 130.055 82.2676 124.428Z" fill="black"/>
<path fill-rule="evenodd" clip-rule="evenodd" d="M46.7419 97.77C58.3481 93.4407 73.7713 107.332 65.2871 114.029C57.6093 120.088 43.0153 109.683 46.7419 97.77Z" fill="#FEFEFE"/>
<path fill-rule="evenodd" clip-rule="evenodd" d="M106.724 97.7163C108.197 98.8505 107.128 97.3786 107.784 99.2984C108.084 100.18 108.104 100.224 108.157 101.29C109.12 120.851 73.7608 119.532 91.6431 101.246C96.1223 96.665 104.521 96.0197 106.724 97.7163Z" fill="#FEFEFE"/>
<path fill-rule="evenodd" clip-rule="evenodd" d="M82.2676 124.428C80.7589 130.055 72.3718 127.744 72.2867 125.15C73.5718 121.133 79.8197 121.906 82.2676 124.428Z" fill="#FCFBFC"/>
<path d="M70.9436 52.6186L76.4121 31.6448L81.8807 52.6186L76.4121 73.5924L70.9436 52.6186Z" fill="white"/>
<path d="M86.8044 52.6185L89.3087 38.5537L91.813 52.6185L89.3087 66.6833L86.8044 52.6185Z" fill="white"/>
<path d="M62.0211 52.6185L64.5254 38.5537L67.0297 52.6185L64.5254 66.6833L62.0211 52.6185Z" fill="white"/>
</g>
<defs>
<clipPath id="clip0_1_16054">
<rect width="145.182" height="153" fill="white" transform="matrix(-1 0 0 1 149.65 0)"/>
</clipPath>
</defs>
</svg>
