<svg width="193" height="174" viewBox="0 0 193 174" fill="none" xmlns="http://www.w3.org/2000/svg">
<path d="M34.7287 22.0343C35.107 21.9538 35.4695 21.883 35.8175 21.8224C35.9496 21.544 36.0873 21.2615 36.2322 20.9737C37.4317 18.5927 39.0808 16.3767 41.0599 14.4733C43.0024 12.6051 45.271 11.0278 47.7525 9.88072C50.5757 8.57576 53.6855 7.7779 56.847 7.51538C58.5375 7.37494 60.2643 7.38901 61.9902 7.56182C64.3907 3.26588 68.1968 1.51642 72.4553 1.22803C76.4219 0.95948 80.5416 2.24363 83.8343 3.67683L84.9112 4.1455C85.0213 4.0946 85.1242 4.04194 85.2183 3.98722L85.6295 3.74812L86.0546 3.58129C90.5953 1.79929 97.6516 -0.276481 104.218 0.0304011C109.314 0.26859 114.118 1.85711 117.63 5.77474C120.217 4.83056 122.932 4.37952 125.651 4.3508C130.574 4.29867 135.528 5.64565 139.703 7.94511C144.047 10.3379 147.677 13.8313 149.748 17.9602C150.231 18.9216 150.629 19.9165 150.934 20.9402C151.694 20.9519 152.496 21.0061 153.347 21.1101C158.039 21.6835 162.548 23.6822 166.304 26.601C170.081 29.5355 173.156 33.4549 174.939 37.8354C176.951 42.7804 176.219 46.032 175.162 48.8773C176.062 49.259 176.989 49.7105 177.951 50.3167C180.498 51.5911 182.698 53.489 184.48 55.8008C187.108 59.2114 188.844 63.5596 189.406 68.0733C189.969 72.5986 189.371 77.3998 187.333 81.7203C186.699 83.0648 185.927 84.3574 185.009 85.5756L185.078 85.6499L185.08 85.6485C185.531 86.1027 185.939 86.5262 186.375 87.0307C186.843 87.5717 187.291 88.1513 187.764 88.8579C191.131 93.8908 192.741 101.169 192.072 107.916C191.475 113.95 189.098 119.755 184.596 123.624C185.118 125.629 184.989 127.809 184.338 129.982C183.712 132.076 182.548 134.258 181.044 136.2C179.551 138.129 177.695 139.875 175.67 141.119C173.026 142.744 170.046 143.618 166.98 143.249C166.743 143.481 166.504 143.701 166.263 143.905C165.785 144.311 166.268 143.912 165.783 144.333C163.489 146.328 161.27 148.255 158.11 148.329C155.894 150.452 153.782 152.411 150.671 154.747C147.349 157.242 140.356 161.262 133.641 164.544C127.79 167.404 121.921 169.794 118.358 170.355L112.736 171.241C109.918 172.023 106.814 172.413 103.642 172.675L103.013 172.774L103.054 172.722C101.72 172.825 100.375 172.909 99.0376 172.992C98.2167 173.043 97.4 173.094 95.9443 173.205C91.5117 173.545 85.988 173.526 80.5065 173.313C73.6246 173.046 66.7936 172.458 62.3799 171.902L61.2288 171.757C59.9649 171.079 60.0328 171.243 58.6675 170.883C56.3798 170.28 53.1661 169.432 49.695 168.175L48.415 167.697C45.7497 166.669 42.9838 165.396 40.4059 163.805L40.4075 163.905L40.1381 163.638C38.0841 162.346 36.157 160.85 34.5059 159.111C33.4777 158.029 32.5369 156.738 31.7564 155.306L29.7706 153.333C25.9312 149.516 25.112 143.487 25.4303 137.577C22.175 137.131 19.4139 135.949 17.1253 134.342C14.6188 132.582 12.7369 130.316 11.423 127.95C10.7184 126.681 10.1744 125.375 9.78271 124.095C9.53709 123.984 9.29703 123.863 9.06248 123.732C6.76109 122.443 5.1306 120.242 4.14458 117.744C3.37415 115.791 2.97936 113.524 2.98459 111.452C2.98787 110.179 3.14261 108.927 3.45341 107.775C1.53444 104.994 0.293641 101.707 0.0458871 98.2259C-0.126477 95.8027 0.180628 93.2965 1.0709 90.8114C1.52843 89.0129 2.24902 87.2361 3.05347 85.5993C3.8612 83.9557 4.748 82.4633 5.51168 81.2637C5.86799 80.704 6.2084 80.2037 6.53629 79.7544C3.4679 75.9438 0.515937 70.7359 4.83364 63.2955C7.07941 59.4252 9.55898 57.5897 11.6288 56.2317C10.3468 53.0684 9.12743 48.8947 12.0579 41.9985C13.4173 38.7993 16.1658 35.7811 19.3699 33.5291C21.362 32.1289 23.6063 30.9701 25.8617 30.2043C26.4072 28.5924 27.2508 27.1197 28.3236 25.8759C29.9838 23.951 32.1933 22.5737 34.7287 22.0342V22.0343Z" fill="black"/>
<path d="M34.7287 22.0343C35.107 21.9538 35.4695 21.883 35.8175 21.8224C35.9496 21.544 36.0873 21.2615 36.2322 20.9737C37.4317 18.5927 39.0808 16.3767 41.0599 14.4733C43.0024 12.6051 45.271 11.0278 47.7525 9.88072C50.5757 8.57576 53.6855 7.7779 56.847 7.51538C58.5375 7.37494 60.2643 7.38901 61.9902 7.56182C64.3907 3.26588 68.1968 1.51642 72.4553 1.22803C76.4219 0.95948 80.5416 2.24363 83.8343 3.67683L84.9112 4.1455C85.0213 4.0946 85.1242 4.04194 85.2183 3.98722L85.6295 3.74812L86.0546 3.58129C90.5953 1.79929 97.6516 -0.276481 104.218 0.0304011C109.314 0.26859 114.118 1.85711 117.63 5.77474C120.217 4.83056 122.932 4.37952 125.651 4.3508C130.574 4.29867 135.528 5.64565 139.703 7.94511C144.047 10.3379 147.677 13.8313 149.748 17.9602C150.231 18.9216 150.629 19.9165 150.934 20.9402C151.694 20.9519 152.496 21.0061 153.347 21.1101C158.039 21.6835 162.548 23.6822 166.304 26.601C170.081 29.5355 173.156 33.4549 174.939 37.8354C176.951 42.7804 176.219 46.032 175.162 48.8773C176.062 49.259 176.989 49.7105 177.951 50.3167C180.498 51.5911 182.698 53.489 184.48 55.8008C187.108 59.2114 188.844 63.5596 189.406 68.0733C189.969 72.5986 189.371 77.3998 187.333 81.7203C186.699 83.0648 185.927 84.3574 185.009 85.5756L185.078 85.6499L185.08 85.6485C185.531 86.1027 185.939 86.5262 186.375 87.0307C186.843 87.5717 187.291 88.1513 187.764 88.8579C191.131 93.8908 192.741 101.169 192.072 107.916C191.475 113.95 189.098 119.755 184.596 123.624C185.118 125.629 184.989 127.809 184.338 129.982C183.712 132.076 182.548 134.258 181.044 136.2C179.551 138.129 177.695 139.875 175.67 141.119C173.026 142.744 170.046 143.618 166.98 143.249C166.743 143.481 166.504 143.701 166.263 143.905C165.785 144.311 166.268 143.912 165.783 144.333C163.489 146.328 161.27 148.255 158.11 148.329C155.894 150.452 153.782 152.411 150.671 154.747C147.349 157.242 140.356 161.262 133.641 164.544C127.79 167.404 121.921 169.794 118.358 170.355L112.736 171.241C109.918 172.023 106.814 172.413 103.642 172.675L103.013 172.774L103.054 172.722C101.72 172.825 100.375 172.909 99.0376 172.992C98.2167 173.043 97.4 173.094 95.9443 173.205C91.5117 173.545 85.988 173.526 80.5065 173.313C73.6246 173.046 66.7936 172.458 62.3799 171.902L61.2288 171.757C59.9649 171.079 60.0328 171.243 58.6675 170.883C56.3798 170.28 53.1661 169.432 49.695 168.175L48.415 167.697C45.7497 166.669 42.9838 165.396 40.4059 163.805L40.4075 163.905L40.1381 163.638C38.0841 162.346 36.157 160.85 34.5059 159.111C33.4777 158.029 32.5369 156.738 31.7564 155.306L29.7706 153.333C25.9312 149.516 25.112 143.487 25.4303 137.577C22.175 137.131 19.4139 135.949 17.1253 134.342C14.6188 132.582 12.7369 130.316 11.423 127.95C10.7184 126.681 10.1744 125.375 9.78271 124.095C9.53709 123.984 9.29703 123.863 9.06248 123.732C6.76109 122.443 5.1306 120.242 4.14458 117.744C3.37415 115.791 2.97936 113.524 2.98459 111.452C2.98787 110.179 3.14261 108.927 3.45341 107.775C1.53444 104.994 0.293641 101.707 0.0458871 98.2259C-0.126477 95.8027 0.180628 93.2965 1.0709 90.8114C1.52843 89.0129 2.24902 87.2361 3.05347 85.5993C3.8612 83.9557 4.748 82.4633 5.51168 81.2637C5.86799 80.704 6.2084 80.2037 6.53629 79.7544C3.4679 75.9438 0.515937 70.7359 4.83364 63.2955C7.07941 59.4252 9.55898 57.5897 11.6288 56.2317C10.3468 53.0684 9.12743 48.8947 12.0579 41.9985C13.4173 38.7993 16.1658 35.7811 19.3699 33.5291C21.362 32.1289 23.6063 30.9701 25.8617 30.2043C26.4072 28.5924 27.2508 27.1197 28.3236 25.8759C29.9838 23.951 32.1933 22.5737 34.7287 22.0342V22.0343Z" fill="black"/>
<path fill-rule="evenodd" clip-rule="evenodd" d="M133.413 58.6953C132.2 54.5974 139.301 50.6287 143.869 54.7114C148.835 59.1496 143.858 65.6063 139.633 64.3533C138.231 60.6618 144.858 60.6285 141.318 57.2558C140.109 56.1034 138.244 56.2528 137.101 57.1478C135.531 58.3774 136.062 59.4877 133.413 58.6953ZM140.665 29.7364C140.625 29.8119 140.609 29.8651 140.602 29.9845C140.595 30.1005 140.556 30.1819 140.546 30.2269C140.048 32.5635 140.32 30.8078 138.227 33.4337C137.05 34.9109 136.007 35.647 135.535 37.9956L132.668 45.9177C131.422 47.8201 131.895 46.1326 130.859 47.7917C131.18 48.9991 131.098 48.5406 131.657 49.5014C132.269 50.7863 132.812 51.1898 132.589 52.9981C129.221 53.7422 130.608 49.3793 125.938 49.3566C121.914 49.3371 120.794 51.1049 120.481 55.0016C120.192 55.6101 120.212 55.5345 119.902 56.1517L117.428 56.2238C117.251 65.8771 114.407 68.6962 114.188 72.4309L113.345 72.4509C114.559 82.4049 121.272 83.988 130.277 81.6324C131.063 81.4267 137.407 78.2836 137.63 80.3249C137.65 80.5067 137.755 80.5548 137.776 80.6445C138.843 85.0809 131.122 85.1555 130.097 86.9529C129.302 89.444 130.19 92.1524 131.29 93.9291C132.642 96.1122 133.743 96.308 136.799 97.032L136.985 96.8587L136.873 95.5334C137.174 94.6809 138.891 93.3679 139.676 92.861C144.15 89.9728 148.045 93.5238 151.428 90.9075C152.049 90.4269 152.598 89.7783 153.314 89.2005C153.68 88.9045 153.939 88.7108 154.331 88.465L155.541 87.7601C155.645 84.9786 154.569 83.7612 155.698 80.7504C156.201 79.4078 157.678 76.5404 158.832 75.6228C159.211 74.7039 159.951 74.3254 160.59 73.7924C161.357 73.1527 161.768 72.5645 162.562 71.7997C166.3 68.2002 170.854 68.8585 172.62 72.7579C173.804 75.3724 173.267 75.5751 173.35 77.6955L173.851 79.5906C175.59 79.204 175.363 79.345 175.467 77.356C175.658 73.708 174.579 72.8628 174.702 70.1276C174.819 67.4915 176.193 67.0748 173.696 63.7961C172.638 62.4056 174.015 64.2028 173.372 63.3932C171.894 61.5289 172.507 58.6559 173.029 57.7253C173.583 56.7383 173.18 57.4222 173.845 56.8104L174.985 55.6562C172.753 54.1551 170.04 53.6823 168.117 52.5015C167.394 48.4655 171.699 46.08 169.276 40.1271C166.554 33.4373 159.79 28.0524 152.606 27.1744C147.45 26.5442 144.526 28.6875 141.065 30.5314C140.434 30.1642 140.351 31.3598 140.665 29.7364L140.665 29.7364Z" fill="#FE859A"/>
<path fill-rule="evenodd" clip-rule="evenodd" d="M133.413 58.6953C132.2 54.5974 139.301 50.6287 143.869 54.7114C148.835 59.1496 143.858 65.6063 139.633 64.3533C138.231 60.6618 144.858 60.6285 141.318 57.2558C140.109 56.1034 138.244 56.2528 137.101 57.1478C135.531 58.3774 136.062 59.4877 133.413 58.6953ZM140.665 29.7364C140.625 29.8119 140.609 29.8651 140.602 29.9845C140.595 30.1005 140.556 30.1819 140.546 30.2269C140.048 32.5635 140.32 30.8078 138.227 33.4337C137.05 34.9109 136.007 35.647 135.535 37.9956L132.668 45.9177C131.422 47.8201 131.895 46.1326 130.859 47.7917C131.18 48.9991 131.098 48.5406 131.657 49.5014C132.269 50.7863 132.812 51.1898 132.589 52.9981C129.221 53.7422 130.608 49.3793 125.938 49.3566C121.914 49.3371 120.794 51.1049 120.481 55.0016C120.192 55.6101 120.212 55.5345 119.902 56.1517L117.428 56.2238C117.251 65.8771 114.407 68.6962 114.188 72.4309L113.345 72.4509C114.559 82.4049 121.272 83.988 130.277 81.6324C131.063 81.4267 137.407 78.2836 137.63 80.3249C137.65 80.5067 137.755 80.5548 137.776 80.6445C138.843 85.0809 131.122 85.1555 130.097 86.9529C129.302 89.444 130.19 92.1524 131.29 93.9291C132.642 96.1122 133.743 96.308 136.799 97.032L136.985 96.8587L136.873 95.5334C137.174 94.6809 138.891 93.3679 139.676 92.861C144.15 89.9728 148.045 93.5238 151.428 90.9075C152.049 90.4269 152.598 89.7783 153.314 89.2005C153.68 88.9045 153.939 88.7108 154.331 88.465L155.541 87.7601C155.645 84.9786 154.569 83.7612 155.698 80.7504C156.201 79.4078 157.678 76.5404 158.832 75.6228C159.211 74.7039 159.951 74.3254 160.59 73.7924C161.357 73.1527 161.768 72.5645 162.562 71.7997C166.3 68.2002 170.854 68.8585 172.62 72.7579C173.804 75.3724 173.267 75.5751 173.35 77.6955L173.851 79.5906C175.59 79.204 175.363 79.345 175.467 77.356C175.658 73.708 174.579 72.8628 174.702 70.1276C174.819 67.4915 176.193 67.0748 173.696 63.7961C172.638 62.4056 174.015 64.2028 173.372 63.3932C171.894 61.5289 172.507 58.6559 173.029 57.7253C173.583 56.7383 173.18 57.4222 173.845 56.8104L174.985 55.6562C172.753 54.1551 170.04 53.6823 168.117 52.5015C167.394 48.4655 171.699 46.08 169.276 40.1271C166.554 33.4373 159.79 28.0524 152.606 27.1744C147.45 26.5442 144.526 28.6875 141.065 30.5314C140.434 30.1642 140.351 31.3598 140.665 29.7364L140.665 29.7364Z" fill="#FE859A"/>
<path fill-rule="evenodd" clip-rule="evenodd" d="M74.0637 21.8647C73.6613 22.6101 75.0488 23.4125 75.9524 24.2815L76.6804 24.9591C77.4782 25.4698 76.8796 25.1019 77.9519 25.43C78.0454 25.4586 78.1441 25.4816 78.2381 25.5105C80.3096 26.1469 83.2667 26.8979 86.9289 24.2772C88.5057 23.1488 89.0891 22.0817 91.5013 22.0485C91.5575 24.1008 91.6877 24.0871 91.1357 25.2142C89.5918 28.3672 86.4016 27.6994 84.4636 28.019C80.6147 28.6534 79.0962 30.1023 76.2874 32.4102C75.4408 33.1059 75.8452 32.7346 75.1845 34.4657C73.5415 38.7704 74.9444 44.8873 77.3132 46.2658C77.833 46.5684 79.019 47.1972 79.427 47.3517C80.2281 47.6552 81.4961 47.3796 81.5348 48.5504C81.5369 48.6128 81.5601 48.7524 81.5593 48.8295C81.5584 48.907 81.5681 49.0251 81.562 49.1112C81.3483 52.1891 78.1927 56.5807 77.6383 57.7894L77.0801 60.3791C76.9989 64.9166 78.7914 65.6587 81.8156 67.3605C83.7519 68.4501 83.1314 68.0247 85.706 68.1659C85.7592 70.631 85.5449 70.2627 85.172 71.7806C84.899 72.8919 84.6577 74.122 85.8201 74.2848C88.0054 75.4194 87.7918 76.6327 89.6982 77.4496C93.1325 78.9214 98.5233 79.8511 101.859 79.0438C103.261 78.7048 103.195 78.3477 103.732 77.3487L104.694 75.9016C104.743 75.8503 104.823 75.778 104.872 75.7268C105.275 75.3105 105.063 75.5832 105.409 75.1819C108.432 71.6709 105.607 65.5398 104.789 63.2104C104.265 61.7189 104.14 60.7576 105.55 59.0754C105.594 59.0221 105.668 58.9391 105.713 58.8892L106.921 57.8721C108.274 56.669 108.664 53.1616 109.881 51.5592C110.509 50.7326 110.855 50.3227 111.688 49.7622C112.679 49.0957 112.932 49.2059 113.872 48.3414C115.627 46.7266 117.591 44.0345 117.706 41.3269C118.018 33.9783 114.289 35.7193 113.757 30.4966L113.85 25.251C114.141 24.1773 116.137 21.5863 114.833 17.4785C113.847 14.3688 114.962 14.6754 114.806 13.4218C114.737 12.8625 114.493 12.7365 114.27 11.7301C114.072 10.9032 114.294 11.3545 113.594 10.447C107.995 3.19609 95.051 6.60499 88.2763 9.26374C85.3723 10.9527 82.5841 10.5638 79.8256 13.2322C77.4715 15.5094 76.8571 18.4831 75.601 21.9357C74.3895 22.1636 75.0076 22.1469 74.0637 21.8647Z" fill="#FBF954"/>
<path fill-rule="evenodd" clip-rule="evenodd" d="M74.0637 21.8647C73.6613 22.6101 75.0488 23.4125 75.9524 24.2815L76.6804 24.9591C77.4782 25.4698 76.8796 25.1019 77.9519 25.43C78.0454 25.4586 78.1441 25.4816 78.2381 25.5105C80.3096 26.1469 83.2667 26.8979 86.9289 24.2772C88.5057 23.1488 89.0891 22.0817 91.5013 22.0485C91.5575 24.1008 91.6877 24.0871 91.1357 25.2142C89.5918 28.3672 86.4016 27.6994 84.4636 28.019C80.6147 28.6534 79.0962 30.1023 76.2874 32.4102C75.4408 33.1059 75.8452 32.7346 75.1845 34.4657C73.5415 38.7704 74.9444 44.8873 77.3132 46.2658C77.833 46.5684 79.019 47.1972 79.427 47.3517C80.2281 47.6552 81.4961 47.3796 81.5348 48.5504C81.5369 48.6128 81.5601 48.7524 81.5593 48.8295C81.5584 48.907 81.5681 49.0251 81.562 49.1112C81.3483 52.1891 78.1927 56.5807 77.6383 57.7894L77.0801 60.3791C76.9989 64.9166 78.7914 65.6587 81.8156 67.3605C83.7519 68.4501 83.1314 68.0247 85.706 68.1659C85.7592 70.631 85.5449 70.2627 85.172 71.7806C84.899 72.8919 84.6577 74.122 85.8201 74.2848C88.0054 75.4194 87.7918 76.6327 89.6982 77.4496C93.1325 78.9214 98.5233 79.8511 101.859 79.0438C103.261 78.7048 103.195 78.3477 103.732 77.3487L104.694 75.9016C104.743 75.8503 104.823 75.778 104.872 75.7268C105.275 75.3105 105.063 75.5832 105.409 75.1819C108.432 71.6709 105.607 65.5398 104.789 63.2104C104.265 61.7189 104.14 60.7576 105.55 59.0754C105.594 59.0221 105.668 58.9391 105.713 58.8892L106.921 57.8721C108.274 56.669 108.664 53.1616 109.881 51.5592C110.509 50.7326 110.855 50.3227 111.688 49.7622C112.679 49.0957 112.932 49.2059 113.872 48.3414C115.627 46.7266 117.591 44.0345 117.706 41.3269C118.018 33.9783 114.289 35.7193 113.757 30.4966L113.85 25.251C114.141 24.1773 116.137 21.5863 114.833 17.4785C113.847 14.3688 114.962 14.6754 114.806 13.4218C114.737 12.8625 114.493 12.7365 114.27 11.7301C114.072 10.9032 114.294 11.3545 113.594 10.447C107.995 3.19609 95.051 6.60499 88.2763 9.26374C85.3723 10.9527 82.5841 10.5638 79.8256 13.2322C77.4715 15.5094 76.8571 18.4831 75.601 21.9357C74.3895 22.1636 75.0076 22.1469 74.0637 21.8647Z" fill="#FBF954"/>
<path fill-rule="evenodd" clip-rule="evenodd" d="M57.1652 91.7193C56.0387 92.6378 56.2293 92.9295 54.7012 93.6324C53.7546 94.0678 52.2367 94.5367 51.1085 94.8038C54.0326 95.334 59.2541 100.097 58.0694 103.813C59.6274 107.056 63.1691 118.781 61.6146 122.481C70.0931 120.741 78.4843 122.212 82.7609 129.828C86.1349 135.837 83.4701 136.526 85.8589 137.108C88.055 135.713 96.2776 135.117 99.6318 135.122C111.79 135.142 121.26 140.663 121.242 153.654C121.238 156.369 120.261 159.023 120.269 160.729C121.415 161.628 130.724 155.083 131.466 154.503C138.985 148.628 143.062 138.043 140.347 128.14C139.945 126.673 139.185 126.511 138.587 125.205C137.704 123.279 138.386 123.442 137.04 122.032C135.556 120.476 134.023 118.923 133.446 116C132.174 111.402 131.494 110.437 131.269 104.341C125.632 100.617 125.444 99.8773 123.038 92.8496C121.538 92.8477 119.848 93.0091 118.374 92.811C116.915 92.6148 116.347 92.1069 114.986 91.7189C113.087 92.7177 112.404 92.9768 109.981 93.4031L110.85 94.1844C110.919 94.2348 111.008 94.2869 111.079 94.3342C121.359 101.204 129.178 115.603 118.478 124.617C118.376 124.676 118.235 124.659 118.188 124.82C118.139 124.984 117.746 125.165 117.675 125.242C116.274 126.755 117.124 127 112.54 129.49C110.412 130.646 107.652 132.168 105.254 132.969C97.3072 135.627 87.112 134.621 82.5145 127.192C79.3381 122.059 80.9522 105.258 85.9388 101.484C84.4663 101.135 85.1148 101.854 84.6824 99.7678C83.646 94.7669 88.7911 93.4377 91.9293 92.2831C89.055 91.5227 87.2217 89.2162 86.1194 87.0674C82.9657 88.5973 80.2859 90.5135 75.5081 90.7257C73.3822 90.8201 71.103 90.7262 69.2665 90.0256C67.5008 89.3519 66.2299 88.1131 64.6831 87.6148C63.4203 88.4819 62.8028 89.2668 61.3445 90.1712C59.5889 91.2601 58.0867 90.8246 57.1652 91.7193L57.1652 91.7193Z" fill="#FAE2D5"/>
<path fill-rule="evenodd" clip-rule="evenodd" d="M57.1652 91.7193C56.0387 92.6378 56.2293 92.9295 54.7012 93.6324C53.7546 94.0678 52.2367 94.5367 51.1085 94.8038C54.0326 95.334 59.2541 100.097 58.0694 103.813C59.6274 107.056 63.1691 118.781 61.6146 122.481C70.0931 120.741 78.4843 122.212 82.7609 129.828C86.1349 135.837 83.4701 136.526 85.8589 137.108C88.055 135.713 96.2776 135.117 99.6318 135.122C111.79 135.142 121.26 140.663 121.242 153.654C121.238 156.369 120.261 159.023 120.269 160.729C121.415 161.628 130.724 155.083 131.466 154.503C138.985 148.628 143.062 138.043 140.347 128.14C139.945 126.673 139.185 126.511 138.587 125.205C137.704 123.279 138.386 123.442 137.04 122.032C135.556 120.476 134.023 118.923 133.446 116C132.174 111.402 131.494 110.437 131.269 104.341C125.632 100.617 125.444 99.8773 123.038 92.8496C121.538 92.8477 119.848 93.0091 118.374 92.811C116.915 92.6148 116.347 92.1069 114.986 91.7189C113.087 92.7177 112.404 92.9768 109.981 93.4031L110.85 94.1844C110.919 94.2348 111.008 94.2869 111.079 94.3342C121.359 101.204 129.178 115.603 118.478 124.617C118.376 124.676 118.235 124.659 118.188 124.82C118.139 124.984 117.746 125.165 117.675 125.242C116.274 126.755 117.124 127 112.54 129.49C110.412 130.646 107.652 132.168 105.254 132.969C97.3072 135.627 87.112 134.621 82.5145 127.192C79.3381 122.059 80.9522 105.258 85.9388 101.484C84.4663 101.135 85.1148 101.854 84.6824 99.7678C83.646 94.7669 88.7911 93.4377 91.9293 92.2831C89.055 91.5227 87.2217 89.2162 86.1194 87.0674C82.9657 88.5973 80.2859 90.5135 75.5081 90.7257C73.3822 90.8201 71.103 90.7262 69.2665 90.0256C67.5008 89.3519 66.2299 88.1131 64.6831 87.6148C63.4203 88.4819 62.8028 89.2668 61.3445 90.1712C59.5889 91.2601 58.0867 90.8246 57.1652 91.7193L57.1652 91.7193Z" fill="#FAE2D5"/>
<path fill-rule="evenodd" clip-rule="evenodd" d="M17.366 79.8544C17.4521 79.8926 17.5665 79.887 17.6045 80.0053L19.9725 81.3467C21.3553 81.8883 21.8023 81.6515 23.4974 81.8657C23.0092 80.3577 19.8819 76.619 23.0963 72.1197C24.4895 70.1697 28.5064 67.8987 32.0183 69.2633C33.9083 69.9976 33.566 72.235 32.0484 72.7046C30.2181 73.2707 28.5316 72.3217 26.8401 73.7115C23.2559 76.6562 27.8177 79.2088 27.5039 82.5885C28.4715 82.2529 28.4935 82.2199 29.4888 82.6425L32.1334 83.3668C33.7761 83.5889 35.9848 84.0174 37.8575 84.0111C37.1554 80.5222 38.9989 78.0301 41.061 80.7415C42.4748 82.6004 44.0359 83.445 46.6968 83.6867C51.3376 84.1083 57.3497 81.5282 58.5538 78.85C58.4454 78.7988 58.1376 78.6764 58.0492 78.6381L56.1328 77.6185C56.0696 77.5755 55.9831 77.5159 55.9216 77.4721C53.1689 75.5134 52.5288 71.8397 53.6674 68.9708C55.1438 65.2504 55.3969 68.7216 55.4715 63.2638C55.5083 60.5695 56.4934 59.7393 57.8658 58.2364C59.4618 56.4886 59.429 57.4351 60.8023 55.4158L61.8296 53.526C62.9625 49.8078 61.8147 50.533 59.3541 46.6565C55.11 39.9697 54.1013 45.4613 52.7791 42.9775L52.5816 43.1403C50.6432 43.0549 49.0826 41.8712 46.6592 41.9544C36.8642 42.2905 42.54 52.5183 41.2624 53.9652C39.2422 56.2527 33.9057 47.9137 38.4063 42.0613C39.4985 40.641 40.5244 40.3547 41.5314 39.0939C40.3409 39.106 39.6911 38.5579 38.7282 38.0754C38.9572 37.2609 38.7787 37.4831 39.364 37.0562C36.2886 37.0067 36.3721 34.7006 30.5272 35.3504C25.6683 35.8907 19.4927 40.1014 17.672 44.386C14.2669 52.3993 18.98 55.0345 18.3259 58.0324C17.6955 60.9217 13.3388 60.7929 10.1133 66.3515C7.05045 71.6296 10.9073 75.4945 13.1089 78.0849C14.7128 79.9722 14.5256 79.1768 17.2151 79.1189L17.366 79.8544L17.366 79.8544Z" fill="#3E4ADB"/>
<path fill-rule="evenodd" clip-rule="evenodd" d="M17.366 79.8544C17.4521 79.8926 17.5665 79.887 17.6045 80.0053L19.9725 81.3467C21.3553 81.8883 21.8023 81.6515 23.4974 81.8657C23.0092 80.3577 19.8819 76.619 23.0963 72.1197C24.4895 70.1697 28.5064 67.8987 32.0183 69.2633C33.9083 69.9976 33.566 72.235 32.0484 72.7046C30.2181 73.2707 28.5316 72.3217 26.8401 73.7115C23.2559 76.6562 27.8177 79.2088 27.5039 82.5885C28.4715 82.2529 28.4935 82.2199 29.4888 82.6425L32.1334 83.3668C33.7761 83.5889 35.9848 84.0174 37.8575 84.0111C37.1554 80.5222 38.9989 78.0301 41.061 80.7415C42.4748 82.6004 44.0359 83.445 46.6968 83.6867C51.3376 84.1083 57.3497 81.5282 58.5538 78.85C58.4454 78.7988 58.1376 78.6764 58.0492 78.6381L56.1328 77.6185C56.0696 77.5755 55.9831 77.5159 55.9216 77.4721C53.1689 75.5134 52.5288 71.8397 53.6674 68.9708C55.1438 65.2504 55.3969 68.7216 55.4715 63.2638C55.5083 60.5695 56.4934 59.7393 57.8658 58.2364C59.4618 56.4886 59.429 57.4351 60.8023 55.4158L61.8296 53.526C62.9625 49.8078 61.8147 50.533 59.3541 46.6565C55.11 39.9697 54.1013 45.4613 52.7791 42.9775L52.5816 43.1403C50.6432 43.0549 49.0826 41.8712 46.6592 41.9544C36.8642 42.2905 42.54 52.5183 41.2624 53.9652C39.2422 56.2527 33.9057 47.9137 38.4063 42.0613C39.4985 40.641 40.5244 40.3547 41.5314 39.0939C40.3409 39.106 39.6911 38.5579 38.7282 38.0754C38.9572 37.2609 38.7787 37.4831 39.364 37.0562C36.2886 37.0067 36.3721 34.7006 30.5272 35.3504C25.6683 35.8907 19.4927 40.1014 17.672 44.386C14.2669 52.3993 18.98 55.0345 18.3259 58.0324C17.6955 60.9217 13.3388 60.7929 10.1133 66.3515C7.05045 71.6296 10.9073 75.4945 13.1089 78.0849C14.7128 79.9722 14.5256 79.1768 17.2151 79.1189L17.366 79.8544L17.366 79.8544Z" fill="#3E4ADB"/>
<path fill-rule="evenodd" clip-rule="evenodd" d="M85.2671 138.022C83.6327 144.939 86.2529 141.998 91.9494 144.777C98.984 148.209 95.5192 152.43 92.8875 151.841C91.2771 151.48 88.6433 147.675 83.8084 146.737C81.8518 146.358 82.0725 147.099 80.8339 148.193C80.0749 148.864 79.0552 149.553 78.0665 150.118C73.4412 152.762 67.4604 153.598 62.5342 151.493C60.7676 150.739 57.4844 148.763 56.0342 148.606C54.1039 150.565 52.1681 153.777 48.4293 151.252C47.7988 146.414 51.405 146.148 52.8508 145.012C52.1871 142.191 51.5181 141.709 51.2045 137.886L51.0601 137.207C45.1508 137.179 39.6798 137.764 37.156 141.626C34.1383 146.244 35.9975 151.827 38.9251 154.909C50.4358 167.029 79.9991 168.304 95.4897 167.117C106.4 166.28 119.366 166.971 118.98 152.92C118.677 141.852 110.851 137.435 100.937 136.596C98.2163 136.366 95.3609 136.423 92.7441 136.715C90.3466 136.982 87.2008 138.02 85.2671 138.022V138.022Z" fill="#E6E6E6"/>
<path fill-rule="evenodd" clip-rule="evenodd" d="M85.2671 138.022C83.6327 144.939 86.2529 141.998 91.9494 144.777C98.984 148.209 95.5192 152.43 92.8875 151.841C91.2771 151.48 88.6433 147.675 83.8084 146.737C81.8518 146.358 82.0725 147.099 80.8339 148.193C80.0749 148.864 79.0552 149.553 78.0665 150.118C73.4412 152.762 67.4604 153.598 62.5342 151.493C60.7676 150.739 57.4844 148.763 56.0342 148.606C54.1039 150.565 52.1681 153.777 48.4293 151.252C47.7988 146.414 51.405 146.148 52.8508 145.012C52.1871 142.191 51.5181 141.709 51.2045 137.886L51.0601 137.207C45.1508 137.179 39.6798 137.764 37.156 141.626C34.1383 146.244 35.9975 151.827 38.9251 154.909C50.4358 167.029 79.9991 168.304 95.4897 167.117C106.4 166.28 119.366 166.971 118.98 152.92C118.677 141.852 110.851 137.435 100.937 136.596C98.2163 136.366 95.3609 136.423 92.7441 136.715C90.3466 136.982 87.2008 138.02 85.2671 138.022V138.022Z" fill="#E6E6E6"/>
<path fill-rule="evenodd" clip-rule="evenodd" d="M39.3643 37.0561C38.7791 37.4829 38.9575 37.2607 38.7285 38.0752C39.6914 38.5577 40.3412 39.1058 41.5317 39.0938C46.517 37.6587 46.5392 37.7301 51.7769 38.7624C52.8934 38.5415 52.6386 38.2959 53.5923 37.064C60.241 28.4763 73.6265 40.1138 64.5971 39.6147C67.5476 43.0493 69.4219 45.5944 67.9789 50.7331C67.3433 52.9966 66.5428 53.9402 65.2991 55.608C63.9373 57.4343 62.2599 56.3521 60.0038 57.8829C53.4869 62.3046 59.0627 65.0397 55.5553 68.5639C52.3931 71.7411 55.3074 77.8288 59.5209 76.6213C59.8284 75.0994 59.9195 73.4766 60.8261 72.4216C61.7175 71.5553 61.1632 71.879 62.5202 71.82C64.1511 73.6901 63.2459 75.7373 65.7821 78.0219C69.3475 81.2336 76.2327 81.6641 80.3497 79.6357C83.4861 78.0904 83.1355 75.7968 85.5214 75.1362C86.1135 74.9922 85.6217 75.3114 85.8202 74.2845C84.6579 74.1217 84.8992 72.8916 85.1722 71.7804C85.5451 70.2625 85.7594 70.6308 85.7062 68.1657C83.1315 68.0244 83.7521 68.4499 81.8158 67.3603C78.7916 65.6585 76.9991 64.9163 77.0803 60.3789L77.6385 57.7892C78.1929 56.5805 81.3485 52.1889 81.5622 49.111C81.5683 49.0248 81.5586 48.9067 81.5595 48.8293C81.5603 48.7522 81.5371 48.6126 81.535 48.5502C81.4963 47.3794 80.2283 47.6549 79.4272 47.3515C79.0192 47.197 77.8332 46.5682 77.3134 46.2656C74.9446 44.8871 73.5417 38.7702 75.1847 34.4654C75.8454 32.7343 75.441 33.1057 76.2875 32.41C79.0964 30.1021 80.6149 28.6532 84.4638 28.0187C86.4018 27.6992 89.592 28.3669 91.1359 25.214C91.6878 24.0869 91.5577 24.1005 91.5015 22.0482C89.0893 22.0814 88.5059 23.1485 86.9291 24.2769C83.2669 26.8976 80.3098 26.1466 78.2383 25.5102C78.1443 25.4813 78.0456 25.4584 77.9521 25.4298C76.8798 25.1017 77.4784 25.4696 76.6805 24.9589L75.9526 24.2812C75.049 23.4122 73.6614 22.6099 74.0639 21.8644C73.086 18.4344 68.8802 15.2926 64.74 14.221C59.9126 12.9716 54.617 13.4283 50.3091 15.4197C46.5584 17.1534 43.4491 20.2063 41.6796 23.7191C36.6355 33.7325 41.9553 35.3048 39.3643 37.056L39.3643 37.0561Z" fill="#AAF16C"/>
<path fill-rule="evenodd" clip-rule="evenodd" d="M39.3643 37.0561C38.7791 37.4829 38.9575 37.2607 38.7285 38.0752C39.6914 38.5577 40.3412 39.1058 41.5317 39.0938C46.517 37.6587 46.5392 37.7301 51.7769 38.7624C52.8934 38.5415 52.6386 38.2959 53.5923 37.064C60.241 28.4763 73.6265 40.1138 64.5971 39.6147C67.5476 43.0493 69.4219 45.5944 67.9789 50.7331C67.3433 52.9966 66.5428 53.9402 65.2991 55.608C63.9373 57.4343 62.2599 56.3521 60.0038 57.8829C53.4869 62.3046 59.0627 65.0397 55.5553 68.5639C52.3931 71.7411 55.3074 77.8288 59.5209 76.6213C59.8284 75.0994 59.9195 73.4766 60.8261 72.4216C61.7175 71.5553 61.1632 71.879 62.5202 71.82C64.1511 73.6901 63.2459 75.7373 65.7821 78.0219C69.3475 81.2336 76.2327 81.6641 80.3497 79.6357C83.4861 78.0904 83.1355 75.7968 85.5214 75.1362C86.1135 74.9922 85.6217 75.3114 85.8202 74.2845C84.6579 74.1217 84.8992 72.8916 85.1722 71.7804C85.5451 70.2625 85.7594 70.6308 85.7062 68.1657C83.1315 68.0244 83.7521 68.4499 81.8158 67.3603C78.7916 65.6585 76.9991 64.9163 77.0803 60.3789L77.6385 57.7892C78.1929 56.5805 81.3485 52.1889 81.5622 49.111C81.5683 49.0248 81.5586 48.9067 81.5595 48.8293C81.5603 48.7522 81.5371 48.6126 81.535 48.5502C81.4963 47.3794 80.2283 47.6549 79.4272 47.3515C79.0192 47.197 77.8332 46.5682 77.3134 46.2656C74.9446 44.8871 73.5417 38.7702 75.1847 34.4654C75.8454 32.7343 75.441 33.1057 76.2875 32.41C79.0964 30.1021 80.6149 28.6532 84.4638 28.0187C86.4018 27.6992 89.592 28.3669 91.1359 25.214C91.6878 24.0869 91.5577 24.1005 91.5015 22.0482C89.0893 22.0814 88.5059 23.1485 86.9291 24.2769C83.2669 26.8976 80.3098 26.1466 78.2383 25.5102C78.1443 25.4813 78.0456 25.4584 77.9521 25.4298C76.8798 25.1017 77.4784 25.4696 76.6805 24.9589L75.9526 24.2812C75.049 23.4122 73.6614 22.6099 74.0639 21.8644C73.086 18.4344 68.8802 15.2926 64.74 14.221C59.9126 12.9716 54.617 13.4283 50.3091 15.4197C46.5584 17.1534 43.4491 20.2063 41.6796 23.7191C36.6355 33.7325 41.9553 35.3048 39.3643 37.056L39.3643 37.0561Z" fill="#AAF16C"/>
<path fill-rule="evenodd" clip-rule="evenodd" d="M158.832 75.6229C162.822 72.4069 168.1 73.8253 170.108 77.8332C173.323 84.2513 168.155 88.3967 164.653 87.5735C163.624 84.6357 166.116 85.4109 167.551 83.6266C169.787 80.8479 165.952 74.8972 161.549 76.9047C160.371 77.4416 160.449 78.3972 159.165 77.9879C157.8 77.5531 158.519 76.3573 158.832 75.6229ZM158.832 75.6229C157.679 76.5404 156.201 79.4079 155.698 80.7505C154.57 83.7613 155.645 84.9787 155.541 87.7602L154.331 88.4651C153.939 88.7109 153.68 88.9046 153.314 89.2006C152.598 89.7784 152.049 90.4269 151.428 90.9076C148.045 93.5239 144.151 89.9729 139.676 92.8611C138.891 93.368 137.174 94.681 136.873 95.5335L136.985 96.8588C140.954 95.2979 138.93 99.0212 138.17 100.701C137.211 102.821 136.614 105.231 136.959 107.937C137.228 110.038 138.402 112.625 139.418 113.519C141.428 115.288 143.986 114.043 145.912 115.32C147.915 117.845 142.114 117.065 143.938 123.03C146.3 122.592 147.17 118.941 148.787 116.707C150.499 114.343 152.251 112.286 154.035 110.811C155.196 111.122 153.967 110.47 155.116 111.72C155.828 109.833 160.154 108.854 162.733 108.978C163.364 109.009 164.063 109.028 164.469 109.274C164.562 109.33 164.77 109.544 164.814 109.622C165.401 110.661 165.27 109.3 164.811 110.384L168.236 111.735L170.517 113.232C171.822 112.474 172.334 111.781 173.54 111.26C174.742 110.74 176.042 110.554 177.287 109.942C179.387 108.91 178.417 108.759 179.479 107.411C180.384 106.262 181.278 106.544 181.975 104.821C183.246 101.678 180.103 100.698 179.495 98.0674C178.474 93.6458 180.791 91.9381 180.755 89.946C177.726 86.5681 176.5 89.79 174.032 87.9541C173.995 86.3429 175.941 85.8512 177.139 84.9287C187.453 76.9902 184.108 59.9543 174.985 55.6562L173.845 56.8105C173.18 57.4223 173.583 56.7384 173.029 57.7253C172.507 58.656 171.894 61.529 173.373 63.3933C174.015 64.2029 172.638 62.4057 173.697 63.7962C176.193 67.0749 174.819 67.4915 174.702 70.1277C174.579 72.8629 175.658 73.7081 175.467 77.3561C175.363 79.3451 175.591 79.204 173.851 79.5907L173.35 77.6956C173.267 75.5752 173.804 75.3724 172.62 72.758C170.854 68.8585 166.301 68.2003 162.562 71.7997C161.768 72.5646 161.357 73.1528 160.59 73.7924C159.951 74.3254 159.211 74.7039 158.832 75.6228L158.832 75.6229Z" fill="#FEBD5B"/>
<path fill-rule="evenodd" clip-rule="evenodd" d="M158.832 75.6229C162.822 72.4069 168.1 73.8253 170.108 77.8332C173.323 84.2513 168.155 88.3967 164.653 87.5735C163.624 84.6357 166.116 85.4109 167.551 83.6266C169.787 80.8479 165.952 74.8972 161.549 76.9047C160.371 77.4416 160.449 78.3972 159.165 77.9879C157.8 77.5531 158.519 76.3573 158.832 75.6229ZM158.832 75.6229C157.679 76.5404 156.201 79.4079 155.698 80.7505C154.57 83.7613 155.645 84.9787 155.541 87.7602L154.331 88.4651C153.939 88.7109 153.68 88.9046 153.314 89.2006C152.598 89.7784 152.049 90.4269 151.428 90.9076C148.045 93.5239 144.151 89.9729 139.676 92.8611C138.891 93.368 137.174 94.681 136.873 95.5335L136.985 96.8588C140.954 95.2979 138.93 99.0212 138.17 100.701C137.211 102.821 136.614 105.231 136.959 107.937C137.228 110.038 138.402 112.625 139.418 113.519C141.428 115.288 143.986 114.043 145.912 115.32C147.915 117.845 142.114 117.065 143.938 123.03C146.3 122.592 147.17 118.941 148.787 116.707C150.499 114.343 152.251 112.286 154.035 110.811C155.196 111.122 153.967 110.47 155.116 111.72C155.828 109.833 160.154 108.854 162.733 108.978C163.364 109.009 164.063 109.028 164.469 109.274C164.562 109.33 164.77 109.544 164.814 109.622C165.401 110.661 165.27 109.3 164.811 110.384L168.236 111.735L170.517 113.232C171.822 112.474 172.334 111.781 173.54 111.26C174.742 110.74 176.042 110.554 177.287 109.942C179.387 108.91 178.417 108.759 179.479 107.411C180.384 106.262 181.278 106.544 181.975 104.821C183.246 101.678 180.103 100.698 179.495 98.0674C178.474 93.6458 180.791 91.9381 180.755 89.946C177.726 86.5681 176.5 89.79 174.032 87.9541C173.995 86.3429 175.941 85.8512 177.139 84.9287C187.453 76.9902 184.108 59.9543 174.985 55.6562L173.845 56.8105C173.18 57.4223 173.583 56.7384 173.029 57.7253C172.507 58.656 171.894 61.529 173.373 63.3933C174.015 64.2029 172.638 62.4057 173.697 63.7962C176.193 67.0749 174.819 67.4915 174.702 70.1277C174.579 72.8629 175.658 73.7081 175.467 77.3561C175.363 79.3451 175.591 79.204 173.851 79.5907L173.35 77.6956C173.267 75.5752 173.804 75.3724 172.62 72.758C170.854 68.8585 166.301 68.2003 162.562 71.7997C161.768 72.5646 161.357 73.1528 160.59 73.7924C159.951 74.3254 159.211 74.7039 158.832 75.6228L158.832 75.6229Z" fill="#FEBD5B"/>
<path fill-rule="evenodd" clip-rule="evenodd" d="M114.27 11.73C114.493 12.7365 114.737 12.8625 114.806 13.4218C114.962 14.6754 113.847 14.3688 114.833 17.4785C116.137 21.5863 114.141 24.1773 113.85 25.251L113.757 30.4966C114.289 35.7193 118.018 33.9783 117.706 41.3269C117.591 44.0345 115.626 46.7266 113.872 48.3414C112.932 49.2059 112.679 49.0957 111.688 49.7622C110.855 50.3227 110.509 50.7326 109.881 51.5592C108.664 53.1616 108.274 56.669 106.921 57.8721L105.713 58.8892C105.668 58.9391 105.594 59.0221 105.549 59.0754C104.14 60.7576 104.265 61.7189 104.789 63.2104C105.607 65.5398 108.432 71.6709 105.409 75.1818C105.063 75.5832 105.275 75.3105 104.872 75.7268C104.823 75.7779 104.743 75.8503 104.694 75.9016L103.732 77.3487C103.195 78.3477 103.26 78.7048 101.859 79.0438C98.5232 79.8511 93.1324 78.9213 89.6981 77.4496C87.7917 76.6327 88.0053 75.4194 85.8199 74.2848C85.6214 75.3116 86.1133 74.9924 85.5211 75.1364C84.1391 78.1508 85.9321 77.594 86.2204 79.7319C87.9499 79.8443 89.4979 79.9568 90.2609 81.9213C91.0511 80.9006 94.0207 80.578 95.6771 80.5634C98.574 80.5379 99.327 81.227 100.711 82.7396C102.602 82.7709 107.255 81.9273 107.932 82.1116C108.586 80.843 108.056 81.7687 108.694 80.9963C108.945 80.6936 109.301 80.374 109.616 80.0793C110.258 79.4798 110.749 79.0059 111.349 78.5841C111.855 77.3955 112.311 76.2552 112.076 74.4374C111.13 73.6098 109.855 73.5098 110.598 72.1116C111.459 70.4911 112.832 71.6323 113.345 72.4511L114.188 72.4311C114.407 68.6964 117.251 65.8773 117.428 56.224L119.902 56.1519C120.212 55.5346 120.192 55.6102 120.481 55.0018L119.928 55.8237C118.008 55.8922 116.372 54.9095 114.958 56.2377C113.512 57.5963 114.631 58.8784 112.961 60.4589C109.785 61.694 109.255 52.3586 117.645 52.6059C119.436 49.5378 119.407 47.7767 123.626 46.9047C125.329 46.5527 127.18 46.6342 128.633 47.2064C130.386 47.8961 130.527 48.4824 131.657 49.5016C131.098 48.5407 131.18 48.9992 130.859 47.7918C131.896 46.1327 131.422 47.8203 132.668 45.9178L135.535 37.9957C136.007 35.6471 137.05 34.911 138.227 33.4338C140.32 30.808 140.048 32.5637 140.546 30.2271C140.556 30.182 140.595 30.1007 140.602 29.9847C140.609 29.8652 140.625 29.8121 140.665 29.7366C141.939 27.5203 143.421 26.7622 145.548 25.6383C145.436 15.0234 129.175 6.63459 118.029 12.2208C117.761 14.6849 119.868 16.6117 118.726 19.2888C117.89 18.194 116.887 14.4593 115.127 12.4938C114.464 11.7543 114.782 12.1159 114.27 11.7301L114.27 11.73Z" fill="#FBC356"/>
<path fill-rule="evenodd" clip-rule="evenodd" d="M114.27 11.73C114.493 12.7365 114.737 12.8625 114.806 13.4218C114.962 14.6754 113.847 14.3688 114.833 17.4785C116.137 21.5863 114.141 24.1773 113.85 25.251L113.757 30.4966C114.289 35.7193 118.018 33.9783 117.706 41.3269C117.591 44.0345 115.626 46.7266 113.872 48.3414C112.932 49.2059 112.679 49.0957 111.688 49.7622C110.855 50.3227 110.509 50.7326 109.881 51.5592C108.664 53.1616 108.274 56.669 106.921 57.8721L105.713 58.8892C105.668 58.9391 105.594 59.0221 105.549 59.0754C104.14 60.7576 104.265 61.7189 104.789 63.2104C105.607 65.5398 108.432 71.6709 105.409 75.1818C105.063 75.5832 105.275 75.3105 104.872 75.7268C104.823 75.7779 104.743 75.8503 104.694 75.9016L103.732 77.3487C103.195 78.3477 103.26 78.7048 101.859 79.0438C98.5232 79.8511 93.1324 78.9213 89.6981 77.4496C87.7917 76.6327 88.0053 75.4194 85.8199 74.2848C85.6214 75.3116 86.1133 74.9924 85.5211 75.1364C84.1391 78.1508 85.9321 77.594 86.2204 79.7319C87.9499 79.8443 89.4979 79.9568 90.2609 81.9213C91.0511 80.9006 94.0207 80.578 95.6771 80.5634C98.574 80.5379 99.327 81.227 100.711 82.7396C102.602 82.7709 107.255 81.9273 107.932 82.1116C108.586 80.843 108.056 81.7687 108.694 80.9963C108.945 80.6936 109.301 80.374 109.616 80.0793C110.258 79.4798 110.749 79.0059 111.349 78.5841C111.855 77.3955 112.311 76.2552 112.076 74.4374C111.13 73.6098 109.855 73.5098 110.598 72.1116C111.459 70.4911 112.832 71.6323 113.345 72.4511L114.188 72.4311C114.407 68.6964 117.251 65.8773 117.428 56.224L119.902 56.1519C120.212 55.5346 120.192 55.6102 120.481 55.0018L119.928 55.8237C118.008 55.8922 116.372 54.9095 114.958 56.2377C113.512 57.5963 114.631 58.8784 112.961 60.4589C109.785 61.694 109.255 52.3586 117.645 52.6059C119.436 49.5378 119.407 47.7767 123.626 46.9047C125.329 46.5527 127.18 46.6342 128.633 47.2064C130.386 47.8961 130.527 48.4824 131.657 49.5016C131.098 48.5407 131.18 48.9992 130.859 47.7918C131.896 46.1327 131.422 47.8203 132.668 45.9178L135.535 37.9957C136.007 35.6471 137.05 34.911 138.227 33.4338C140.32 30.808 140.048 32.5637 140.546 30.2271C140.556 30.182 140.595 30.1007 140.602 29.9847C140.609 29.8652 140.625 29.8121 140.665 29.7366C141.939 27.5203 143.421 26.7622 145.548 25.6383C145.436 15.0234 129.175 6.63459 118.029 12.2208C117.761 14.6849 119.868 16.6117 118.726 19.2888C117.89 18.194 116.887 14.4593 115.127 12.4938C114.464 11.7543 114.782 12.1159 114.27 11.7301L114.27 11.73Z" fill="#FBC356"/>
<path fill-rule="evenodd" clip-rule="evenodd" d="M137.925 115.94C135.801 114.888 137.863 114.975 135.517 114.614C135.199 115.851 135.613 114.832 134.874 115.782L134.21 116.527C134.186 116.47 134.093 116.649 134.054 116.723C134.192 115.325 134.032 116.47 133.444 115.999C134.022 118.922 135.554 120.476 137.039 122.032C138.385 123.442 137.702 123.279 138.585 125.205C139.183 126.51 139.943 126.673 140.345 128.139C143.06 138.043 138.984 148.627 131.465 154.503C130.723 155.082 121.414 161.628 120.267 160.729L117.426 164.338C123.804 163.333 141.393 154.098 147.015 149.876C150.302 147.408 152.481 145.282 155.039 142.823L155.008 141.234C154.202 141.271 154.547 141.337 154.085 141.115C152.938 132.606 153.222 128.716 156.338 121.799C157.58 119.041 158.777 116.669 160.892 114.777C164.2 111.818 166.13 113.722 169.571 114.47C169.43 112.785 169.453 112.18 168.235 111.735L164.81 110.384C161.143 109.61 158.017 110.754 156.044 112.832C154.507 114.451 154.371 113.711 153.091 115.981C152.278 117.421 151.696 118.529 150.922 119.931C149.379 122.729 148.157 125.642 144.979 126.234C140.025 127.156 141.323 121.745 141.113 118.194C140.191 117.472 139.057 116.918 137.925 115.94L137.925 115.94Z" fill="#FBC5B3"/>
<path fill-rule="evenodd" clip-rule="evenodd" d="M137.925 115.94C135.801 114.888 137.863 114.975 135.517 114.614C135.199 115.851 135.613 114.832 134.874 115.782L134.21 116.527C134.186 116.47 134.093 116.649 134.054 116.723C134.192 115.325 134.032 116.47 133.444 115.999C134.022 118.922 135.554 120.476 137.039 122.032C138.385 123.442 137.702 123.279 138.585 125.205C139.183 126.51 139.943 126.673 140.345 128.139C143.06 138.043 138.984 148.627 131.465 154.503C130.723 155.082 121.414 161.628 120.267 160.729L117.426 164.338C123.804 163.333 141.393 154.098 147.015 149.876C150.302 147.408 152.481 145.282 155.039 142.823L155.008 141.234C154.202 141.271 154.547 141.337 154.085 141.115C152.938 132.606 153.222 128.716 156.338 121.799C157.58 119.041 158.777 116.669 160.892 114.777C164.2 111.818 166.13 113.722 169.571 114.47C169.43 112.785 169.453 112.18 168.235 111.735L164.81 110.384C161.143 109.61 158.017 110.754 156.044 112.832C154.507 114.451 154.371 113.711 153.091 115.981C152.278 117.421 151.696 118.529 150.922 119.931C149.379 122.729 148.157 125.642 144.979 126.234C140.025 127.156 141.323 121.745 141.113 118.194C140.191 117.472 139.057 116.918 137.925 115.94L137.925 115.94Z" fill="#FBC5B3"/>
<path fill-rule="evenodd" clip-rule="evenodd" d="M54.2408 139.253C54.3262 130.824 55.1219 127.381 63.3002 125.989C66.4876 125.446 70.1925 125.345 73.1219 126.502C74.8283 127.177 78.8681 130.07 78.7348 131.624C79.7833 132.399 78.9681 131.453 79.8129 132.789L80.8337 136.751C81.0323 140.674 78.2383 147.342 72.1147 148.557C66.2665 149.717 53.6627 147.58 54.2408 139.253ZM35.8701 125.21C36.5213 123.973 34.6528 121.955 39.0963 114.385C40.8937 111.323 43.6619 109.784 48.2112 109.213C49.3365 108.944 51.9989 106.399 54.0179 110.131C56.5088 110.866 57.5135 113.471 58.1986 116.566C59.2981 117.118 57.5806 117.041 58.6495 116.387C59.7497 115.713 58.0511 115.635 58.8416 116.206C58.9652 118.128 59.1938 119.614 58.6627 121.393C58.0797 123.636 58.9137 123.299 57.3147 124.679C52.422 128.902 53.637 130.255 50.1477 130.714C48.0533 130.99 43.883 130.855 41.8739 130.305C38.8499 129.478 38.6189 128.351 36.9466 126.647L36.7596 126.898C36.9084 128.371 37.5368 128.879 38.6241 129.646C39.456 130.233 40.4966 130.852 41.7237 131.236C44.8644 132.221 47.4244 131.679 50.2199 132.153L51.874 131.668C51.4801 134.617 51.615 135.865 50.5511 135.916C50.9258 136.505 51.0696 137.195 51.2047 137.886C51.5184 141.709 52.1874 142.191 52.8511 145.013C51.4052 146.149 47.7991 146.414 48.4295 151.252C52.1684 153.777 54.1041 150.566 56.0345 148.606C57.4847 148.763 60.7678 150.739 62.5345 151.493C67.4607 153.598 73.4415 152.763 78.0668 150.119C79.0554 149.553 80.0751 148.864 80.8341 148.194C82.0728 147.099 81.8521 146.358 83.8087 146.737C88.6436 147.675 91.2774 151.48 92.8878 151.841C95.5195 152.43 98.9843 148.209 91.9497 144.777C86.2531 141.998 83.6329 144.939 85.2674 138.022C86.0822 137.119 85.8556 137.109 85.8573 137.108C83.4684 136.526 86.1333 135.838 82.7593 129.829C78.4826 122.212 70.0914 120.741 61.6129 122.481L59.3026 123.19C59.4616 118.343 60.1569 113.448 57.5852 109.615C55.6484 106.729 51.4887 104.522 46.7313 105.828C43.0003 106.851 39.447 110.295 37.9003 112.847C36.4067 115.312 34.6784 122.117 35.8701 125.21H35.8701Z" fill="black"/>
<path fill-rule="evenodd" clip-rule="evenodd" d="M54.2408 139.253C54.3262 130.824 55.1219 127.381 63.3002 125.989C66.4876 125.446 70.1925 125.345 73.1219 126.502C74.8283 127.177 78.8681 130.07 78.7348 131.624C79.7833 132.399 78.9681 131.453 79.8129 132.789L80.8337 136.751C81.0323 140.674 78.2383 147.342 72.1147 148.557C66.2665 149.717 53.6627 147.58 54.2408 139.253ZM35.8701 125.21C36.5213 123.973 34.6528 121.955 39.0963 114.385C40.8937 111.323 43.6619 109.784 48.2112 109.213C49.3365 108.944 51.9989 106.399 54.0179 110.131C56.5088 110.866 57.5135 113.471 58.1986 116.566C59.2981 117.118 57.5806 117.041 58.6495 116.387C59.7497 115.713 58.0511 115.635 58.8416 116.206C58.9652 118.128 59.1938 119.614 58.6627 121.393C58.0797 123.636 58.9137 123.299 57.3147 124.679C52.422 128.902 53.637 130.255 50.1477 130.714C48.0533 130.99 43.883 130.855 41.8739 130.305C38.8499 129.478 38.6189 128.351 36.9466 126.647L36.7596 126.898C36.9084 128.371 37.5368 128.879 38.6241 129.646C39.456 130.233 40.4966 130.852 41.7237 131.236C44.8644 132.221 47.4244 131.679 50.2199 132.153L51.874 131.668C51.4801 134.617 51.615 135.865 50.5511 135.916C50.9258 136.505 51.0696 137.195 51.2047 137.886C51.5184 141.709 52.1874 142.191 52.8511 145.013C51.4052 146.149 47.7991 146.414 48.4295 151.252C52.1684 153.777 54.1041 150.566 56.0345 148.606C57.4847 148.763 60.7678 150.739 62.5345 151.493C67.4607 153.598 73.4415 152.763 78.0668 150.119C79.0554 149.553 80.0751 148.864 80.8341 148.194C82.0728 147.099 81.8521 146.358 83.8087 146.737C88.6436 147.675 91.2774 151.48 92.8878 151.841C95.5195 152.43 98.9843 148.209 91.9497 144.777C86.2531 141.998 83.6329 144.939 85.2674 138.022C86.0822 137.119 85.8556 137.109 85.8573 137.108C83.4684 136.526 86.1333 135.838 82.7593 129.829C78.4826 122.212 70.0914 120.741 61.6129 122.481L59.3026 123.19C59.4616 118.343 60.1569 113.448 57.5852 109.615C55.6484 106.729 51.4887 104.522 46.7313 105.828C43.0003 106.851 39.447 110.295 37.9003 112.847C36.4067 115.312 34.6784 122.117 35.8701 125.21H35.8701Z" fill="black"/>
<path fill-rule="evenodd" clip-rule="evenodd" d="M6.90527 92.6223C12.6076 92.0036 13.4715 97.3367 16.6844 98.6539C18.2845 99.3099 22.4133 98.9212 24.0743 98.6504C27.807 98.0415 27.9957 98.357 31.4789 98.6218L31.232 99.3872C32.4504 98.8812 33.1919 98.2085 33.9726 97.3875C34.9146 96.3967 35.3274 95.6499 36.1722 94.5646C32.8705 94.0244 29.2339 92.841 29.8229 88.8339C31.5036 87.2429 34.1048 85.675 37.3333 84.7956C38.1337 84.295 38.2007 84.5781 37.8576 84.0112C35.9848 84.0175 33.7761 83.5891 32.1334 83.367L29.4889 82.6426C28.4936 82.22 28.4715 82.253 27.5039 82.5886L27.0648 83.2292C24.7808 83.2705 24.6149 83.0823 23.4974 81.8658C21.8024 81.6516 21.3553 81.8884 19.9726 81.3468L17.6045 80.0054C17.5665 79.8871 17.4521 79.8928 17.3661 79.8545C14.1787 82.0226 13.4339 80.1582 10.6481 84.5347C9.31231 86.633 7.56803 89.7104 6.90529 92.6223H6.90527Z" fill="#A7ED6B"/>
<path fill-rule="evenodd" clip-rule="evenodd" d="M6.90527 92.6223C12.6076 92.0036 13.4715 97.3367 16.6844 98.6539C18.2845 99.3099 22.4133 98.9212 24.0743 98.6504C27.807 98.0415 27.9957 98.357 31.4789 98.6218L31.232 99.3872C32.4504 98.8812 33.1919 98.2085 33.9726 97.3875C34.9146 96.3967 35.3274 95.6499 36.1722 94.5646C32.8705 94.0244 29.2339 92.841 29.8229 88.8339C31.5036 87.2429 34.1048 85.675 37.3333 84.7956C38.1337 84.295 38.2007 84.5781 37.8576 84.0112C35.9848 84.0175 33.7761 83.5891 32.1334 83.367L29.4889 82.6426C28.4936 82.22 28.4715 82.253 27.5039 82.5886L27.0648 83.2292C24.7808 83.2705 24.6149 83.0823 23.4974 81.8658C21.8024 81.6516 21.3553 81.8884 19.9726 81.3468L17.6045 80.0054C17.5665 79.8871 17.4521 79.8928 17.3661 79.8545C14.1787 82.0226 13.4339 80.1582 10.6481 84.5347C9.31231 86.633 7.56803 89.7104 6.90529 92.6223H6.90527Z" fill="#A7ED6B"/>
<path fill-rule="evenodd" clip-rule="evenodd" d="M15.7441 116.561L15.682 119.703C17.4766 119.464 18.7361 117.598 21.5792 116.658C26.0426 115.181 25.9321 115.488 30.0831 112.889C31.4637 112.024 30.6917 112.28 31.7517 112.252C31.8182 111.002 31.4909 111.064 31.5993 109.775C31.6752 108.873 32.0691 108.278 32.2808 107.272C32.2887 105.604 31.7204 105.323 31.1742 103.693C29.5296 103.664 27.7588 103.565 28.3937 101.618C28.7838 100.422 30.2738 100.183 31.232 99.3871L31.4789 98.6217C27.9958 98.357 27.8071 98.0415 24.0743 98.6504C22.4133 98.9212 18.2846 99.3099 16.6844 98.6539C13.4716 97.3367 12.6076 92.0035 6.90532 92.6222C3.56339 101.419 11.2747 110.689 19.6889 110.091C18.4049 112.034 15.8629 113.097 15.7442 116.561H15.7441Z" fill="#F4F855"/>
<path fill-rule="evenodd" clip-rule="evenodd" d="M15.7441 116.561L15.682 119.703C17.4766 119.464 18.7361 117.598 21.5792 116.658C26.0426 115.181 25.9321 115.488 30.0831 112.889C31.4637 112.024 30.6917 112.28 31.7517 112.252C31.8182 111.002 31.4909 111.064 31.5993 109.775C31.6752 108.873 32.0691 108.278 32.2808 107.272C32.2887 105.604 31.7204 105.323 31.1742 103.693C29.5296 103.664 27.7588 103.565 28.3937 101.618C28.7838 100.422 30.2738 100.183 31.232 99.3871L31.4789 98.6217C27.9958 98.357 27.8071 98.0415 24.0743 98.6504C22.4133 98.9212 18.2846 99.3099 16.6844 98.6539C13.4716 97.3367 12.6076 92.0035 6.90532 92.6222C3.56339 101.419 11.2747 110.689 19.6889 110.091C18.4049 112.034 15.8629 113.097 15.7442 116.561H15.7441Z" fill="#F4F855"/>
<path fill-rule="evenodd" clip-rule="evenodd" d="M89.4141 113.772C87.9298 110.901 89.7402 108.75 92.0049 110.125C93.6361 111.115 93.5716 114.858 89.4141 113.772ZM82.9593 116.196C82.7899 118.407 82.58 122.205 83.9286 123.683L84.048 123.649L83.8003 121.574C84.9836 120.969 87.7564 118.601 89.1826 118.464C90.6622 121.646 92.497 123.19 96.7487 123.42C101.129 123.658 102.715 122.033 104.539 119.318C104.968 118.679 104.69 119.032 105.036 118.636C106.633 119.548 110.394 123.609 110.398 125.576C113.233 123.072 112.684 114.823 111.203 111.892C111.516 113.903 111.824 113.594 110.979 114.668C110.079 112.193 105.039 107.272 103.153 106.366C103.917 108.33 104.456 110.012 103.079 111.722C101.962 113.107 99.8164 113.52 98.2278 112.571C95.1402 110.728 96.3931 105.165 101.512 105.516C96.757 100.971 87.0182 104.603 83.4961 111.345C82.6893 112.889 83.1004 114.353 82.9593 116.196V116.196Z" fill="#35232C"/>
<path fill-rule="evenodd" clip-rule="evenodd" d="M89.4141 113.772C87.9298 110.901 89.7402 108.75 92.0049 110.125C93.6361 111.115 93.5716 114.858 89.4141 113.772ZM82.9593 116.196C82.7899 118.407 82.58 122.205 83.9286 123.683L84.048 123.649L83.8003 121.574C84.9836 120.969 87.7564 118.601 89.1826 118.464C90.6622 121.646 92.497 123.19 96.7487 123.42C101.129 123.658 102.715 122.033 104.539 119.318C104.968 118.679 104.69 119.032 105.036 118.636C106.633 119.548 110.394 123.609 110.398 125.576C113.233 123.072 112.684 114.823 111.203 111.892C111.516 113.903 111.824 113.594 110.979 114.668C110.079 112.193 105.039 107.272 103.153 106.366C103.917 108.33 104.456 110.012 103.079 111.722C101.962 113.107 99.8164 113.52 98.2278 112.571C95.1402 110.728 96.3931 105.165 101.512 105.516C96.757 100.971 87.0182 104.603 83.4961 111.345C82.6893 112.889 83.1004 114.353 82.9593 116.196V116.196Z" fill="#35232C"/>
<path fill-rule="evenodd" clip-rule="evenodd" d="M155.009 141.234C158.41 143.071 160.225 141.026 162.322 139.249C163.955 137.864 165.702 135.082 167.026 132.79C169.719 128.128 171.742 121.152 169.752 114.595L169.572 114.47C166.131 113.722 164.2 111.818 160.893 114.777C158.777 116.67 157.58 119.041 156.338 121.799C153.223 128.716 152.938 132.606 154.086 141.115C154.547 141.338 154.202 141.271 155.009 141.234L155.009 141.234Z" fill="#FAE2D5"/>
<path fill-rule="evenodd" clip-rule="evenodd" d="M155.009 141.234C158.41 143.071 160.225 141.026 162.322 139.249C163.955 137.864 165.702 135.082 167.026 132.79C169.719 128.128 171.742 121.152 169.752 114.595L169.572 114.47C166.131 113.722 164.2 111.818 160.893 114.777C158.777 116.67 157.58 119.041 156.338 121.799C153.223 128.716 152.938 132.606 154.086 141.115C154.547 141.338 154.202 141.271 155.009 141.234L155.009 141.234Z" fill="#FAE2D5"/>
<path fill-rule="evenodd" clip-rule="evenodd" d="M84.68 109.096C84.9721 106.414 88.8434 103.573 91.3077 102.484C100.895 98.2468 113.849 105.525 113.161 118.369C112.916 122.956 111.898 126.007 109.379 128.11C106.896 130.183 104.788 131.658 100.791 132.457C96.1798 133.379 93.2255 132.654 89.5974 130.917C87.1954 129.767 83.8687 126.759 83.9291 123.683C82.5806 122.205 82.7904 118.407 82.9598 116.196C83.136 113.896 83.1324 110.432 84.68 109.096V109.096ZM85.9387 101.484C80.9521 105.258 79.338 122.059 82.5144 127.192C87.1119 134.621 97.3071 135.627 105.254 132.969C107.652 132.168 110.412 130.646 112.54 129.491C117.124 127.001 116.274 126.755 117.675 125.243C117.746 125.165 118.139 124.984 118.188 124.82C118.235 124.659 118.376 124.676 118.478 124.617C120.645 120.295 121.477 116.92 118.885 112.446C116.767 108.79 114.298 105.596 111.593 103.525C104.507 98.0972 95.0659 98.2186 85.9388 101.484L85.9387 101.484Z" fill="#FCFBFB"/>
<path fill-rule="evenodd" clip-rule="evenodd" d="M84.68 109.096C84.9721 106.414 88.8434 103.573 91.3077 102.484C100.895 98.2468 113.849 105.525 113.161 118.369C112.916 122.956 111.898 126.007 109.379 128.11C106.896 130.183 104.788 131.658 100.791 132.457C96.1798 133.379 93.2255 132.654 89.5974 130.917C87.1954 129.767 83.8687 126.759 83.9291 123.683C82.5806 122.205 82.7904 118.407 82.9598 116.196C83.136 113.896 83.1324 110.432 84.68 109.096V109.096ZM85.9387 101.484C80.9521 105.258 79.338 122.059 82.5144 127.192C87.1119 134.621 97.3071 135.627 105.254 132.969C107.652 132.168 110.412 130.646 112.54 129.491C117.124 127.001 116.274 126.755 117.675 125.243C117.746 125.165 118.139 124.984 118.188 124.82C118.235 124.659 118.376 124.676 118.478 124.617C120.645 120.295 121.477 116.92 118.885 112.446C116.767 108.79 114.298 105.596 111.593 103.525C104.507 98.0972 95.0659 98.2186 85.9388 101.484L85.9387 101.484Z" fill="#FCFBFB"/>
<path fill-rule="evenodd" clip-rule="evenodd" d="M69.52 133.13C68.4584 134.922 63.0982 137.159 62.4228 137.287C58.7835 137.979 55.856 135.026 57.423 131.624C58.2642 129.798 62.0424 127.883 64.6899 127.826C67.7335 127.76 71.4716 129.835 69.52 133.13ZM54.2422 139.253C55.4846 141.14 55.6138 142.313 60.3222 143.603C63.5884 144.497 66.6013 144.179 69.6218 143.166C73.5841 141.836 79.7566 136.414 78.7362 131.624C78.8695 130.069 74.8297 127.177 73.1233 126.502C70.1939 125.344 66.489 125.446 63.3016 125.988C55.1233 127.38 54.3276 130.824 54.2422 139.253H54.2422Z" fill="#E6302F"/>
<path fill-rule="evenodd" clip-rule="evenodd" d="M69.52 133.13C68.4584 134.922 63.0982 137.159 62.4228 137.287C58.7835 137.979 55.856 135.026 57.423 131.624C58.2642 129.798 62.0424 127.883 64.6899 127.826C67.7335 127.76 71.4716 129.835 69.52 133.13ZM54.2422 139.253C55.4846 141.14 55.6138 142.313 60.3222 143.603C63.5884 144.497 66.6013 144.179 69.6218 143.166C73.5841 141.836 79.7566 136.414 78.7362 131.624C78.8695 130.069 74.8297 127.177 73.1233 126.502C70.1939 125.344 66.489 125.446 63.3016 125.988C55.1233 127.38 54.3276 130.824 54.2422 139.253H54.2422Z" fill="#E6302F"/>
<path fill-rule="evenodd" clip-rule="evenodd" d="M15.7456 116.561C13.4378 119.843 17.2302 133.032 30.3854 131.551C32.1355 128.91 34.1183 117.432 32.3792 113.195C31.9603 112.175 32.1868 112.709 31.7531 112.252C30.6931 112.28 31.4651 112.024 30.0845 112.888C25.9335 115.488 26.044 115.181 21.5806 116.658C18.7375 117.598 17.478 119.464 15.6834 119.702L15.7455 116.561L15.7456 116.561Z" fill="#ACF169"/>
<path fill-rule="evenodd" clip-rule="evenodd" d="M15.7456 116.561C13.4378 119.843 17.2302 133.032 30.3854 131.551C32.1355 128.91 34.1183 117.432 32.3792 113.195C31.9603 112.175 32.1868 112.709 31.7531 112.252C30.6931 112.28 31.4651 112.024 30.0845 112.888C25.9335 115.488 26.044 115.181 21.5806 116.658C18.7375 117.598 17.478 119.464 15.6834 119.702L15.7455 116.561L15.7456 116.561Z" fill="#ACF169"/>
<path fill-rule="evenodd" clip-rule="evenodd" d="M56.879 87.4346C57.2293 89.4786 57.3264 89.5722 57.1641 91.7191C58.0856 90.8245 59.5878 91.2599 61.3434 90.1711C62.8016 89.2667 63.4191 88.4817 64.682 87.6146C66.2287 88.1129 67.4997 89.3517 69.2654 90.0255C71.1019 90.7261 73.3811 90.8199 75.507 90.7255C80.2848 90.5133 82.9646 88.5971 86.1183 87.0672C85.9342 83.2181 87.1084 83.0168 90.2613 81.9211C89.4983 79.9566 87.9503 79.844 86.2207 79.7316C84.1369 83.0925 80.0229 84.356 74.3982 84.1059C71.6607 83.9842 67.1219 82.8099 65.0982 81.2277C63.9546 80.3337 64.1263 80.076 62.8126 79.4717C61.4801 82.9749 59.552 85.9062 56.879 87.4346L56.879 87.4346Z" fill="#ED9888"/>
<path fill-rule="evenodd" clip-rule="evenodd" d="M56.879 87.4346C57.2293 89.4786 57.3264 89.5722 57.1641 91.7191C58.0856 90.8245 59.5878 91.2599 61.3434 90.1711C62.8016 89.2667 63.4191 88.4817 64.682 87.6146C66.2287 88.1129 67.4997 89.3517 69.2654 90.0255C71.1019 90.7261 73.3811 90.8199 75.507 90.7255C80.2848 90.5133 82.9646 88.5971 86.1183 87.0672C85.9342 83.2181 87.1084 83.0168 90.2613 81.9211C89.4983 79.9566 87.9503 79.844 86.2207 79.7316C84.1369 83.0925 80.0229 84.356 74.3982 84.1059C71.6607 83.9842 67.1219 82.8099 65.0982 81.2277C63.9546 80.3337 64.1263 80.076 62.8126 79.4717C61.4801 82.9749 59.552 85.9062 56.879 87.4346L56.879 87.4346Z" fill="#ED9888"/>
<path fill-rule="evenodd" clip-rule="evenodd" d="M107.932 82.1117C110.775 82.6915 112.807 83.9413 114.69 85.3177C118.003 87.7394 116.447 89.4474 114.984 91.719C116.345 92.1071 116.913 92.615 118.372 92.8112C119.846 93.0093 121.536 92.8478 123.036 92.8497C125.442 99.8775 125.63 100.617 131.267 104.341C131.492 110.437 132.172 111.403 133.444 116C134.032 116.471 134.192 115.325 134.054 116.723C134.093 116.649 134.186 116.471 134.21 116.527L134.874 115.782C135.612 114.832 135.198 115.851 135.517 114.614C137.863 114.975 135.801 114.888 137.925 115.94C137.511 114.861 136.752 114.071 136.078 112.938C135.357 111.726 135.167 110.871 134.9 109.43C134.225 105.789 135.09 103.883 135.173 100.441C127.121 98.4391 127.026 92.8646 126.391 86.6068C117.141 86.3092 116.108 84.6035 112.019 79.2936C111.607 78.7579 111.838 79.013 111.349 78.5842C110.749 79.0061 110.258 79.48 109.616 80.0794C109.301 80.3741 108.944 80.6937 108.694 80.9964C108.056 81.7689 108.585 80.8431 107.932 82.1117V82.1117Z" fill="#ED9888"/>
<path fill-rule="evenodd" clip-rule="evenodd" d="M107.932 82.1117C110.775 82.6915 112.807 83.9413 114.69 85.3177C118.003 87.7394 116.447 89.4474 114.984 91.719C116.345 92.1071 116.913 92.615 118.372 92.8112C119.846 93.0093 121.536 92.8478 123.036 92.8497C125.442 99.8775 125.63 100.617 131.267 104.341C131.492 110.437 132.172 111.403 133.444 116C134.032 116.471 134.192 115.325 134.054 116.723C134.093 116.649 134.186 116.471 134.21 116.527L134.874 115.782C135.612 114.832 135.198 115.851 135.517 114.614C137.863 114.975 135.801 114.888 137.925 115.94C137.511 114.861 136.752 114.071 136.078 112.938C135.357 111.726 135.167 110.871 134.9 109.43C134.225 105.789 135.09 103.883 135.173 100.441C127.121 98.4391 127.026 92.8646 126.391 86.6068C117.141 86.3092 116.108 84.6035 112.019 79.2936C111.607 78.7579 111.838 79.013 111.349 78.5842C110.749 79.0061 110.258 79.48 109.616 80.0794C109.301 80.3741 108.944 80.6937 108.694 80.9964C108.056 81.7689 108.585 80.8431 107.932 82.1117V82.1117Z" fill="#ED9888"/>
<path fill-rule="evenodd" clip-rule="evenodd" d="M168.235 111.735C169.453 112.18 169.43 112.785 169.571 114.47L169.752 114.596C169.672 111.969 169.646 113.838 170.248 113.291C172.803 116.297 170.212 121.069 172.845 121.489C174.953 121.826 178.517 120.609 180.001 119.49C187.649 113.724 187.645 99.6407 182.699 92.2484C182.061 91.2952 181.491 90.6882 180.755 89.9463C180.79 91.9384 178.474 93.6461 179.495 98.0677C180.103 100.698 183.246 101.679 181.975 104.821C181.278 106.544 180.384 106.262 179.479 107.411C178.417 108.76 179.387 108.91 177.287 109.942C176.041 110.554 174.742 110.741 173.54 111.26C172.334 111.781 171.821 112.474 170.517 113.232L168.235 111.735H168.235Z" fill="#4C4DCA"/>
<path fill-rule="evenodd" clip-rule="evenodd" d="M168.235 111.735C169.453 112.18 169.43 112.785 169.571 114.47L169.752 114.596C169.672 111.969 169.646 113.838 170.248 113.291C172.803 116.297 170.212 121.069 172.845 121.489C174.953 121.826 178.517 120.609 180.001 119.49C187.649 113.724 187.645 99.6407 182.699 92.2484C182.061 91.2952 181.491 90.6882 180.755 89.9463C180.79 91.9384 178.474 93.6461 179.495 98.0677C180.103 100.698 183.246 101.679 181.975 104.821C181.278 106.544 180.384 106.262 179.479 107.411C178.417 108.76 179.387 108.91 177.287 109.942C176.041 110.554 174.742 110.741 173.54 111.26C172.334 111.781 171.821 112.474 170.517 113.232L168.235 111.735H168.235Z" fill="#4C4DCA"/>
<path fill-rule="evenodd" clip-rule="evenodd" d="M111.35 78.584C111.839 79.0128 111.608 78.7577 112.02 79.2934C116.11 84.6034 117.142 86.309 126.392 86.6066C127.027 92.8644 127.122 98.439 135.174 100.441C138.05 100.224 137.658 98.7398 136.799 97.0321C133.744 96.3081 132.643 96.1123 131.291 93.9292C130.191 92.1525 129.303 89.4441 130.098 86.953C131.123 85.1556 138.844 85.081 137.777 80.6446C137.756 80.5549 137.651 80.5068 137.631 80.325C137.407 78.2838 131.064 81.4268 130.278 81.6325C121.273 83.9881 114.56 82.405 113.346 72.451C112.833 71.6322 111.46 70.491 110.599 72.1115C109.856 73.5098 111.131 73.6097 112.076 74.4374C112.312 76.2551 111.855 77.3954 111.35 78.584L111.35 78.584Z" fill="#D25174"/>
<path fill-rule="evenodd" clip-rule="evenodd" d="M111.35 78.584C111.839 79.0128 111.608 78.7577 112.02 79.2934C116.11 84.6034 117.142 86.309 126.392 86.6066C127.027 92.8644 127.122 98.439 135.174 100.441C138.05 100.224 137.658 98.7398 136.799 97.0321C133.744 96.3081 132.643 96.1123 131.291 93.9292C130.191 92.1525 129.303 89.4441 130.098 86.953C131.123 85.1556 138.844 85.081 137.777 80.6446C137.756 80.5549 137.651 80.5068 137.631 80.325C137.407 78.2838 131.064 81.4268 130.278 81.6325C121.273 83.9881 114.56 82.405 113.346 72.451C112.833 71.6322 111.46 70.491 110.599 72.1115C109.856 73.5098 111.131 73.6097 112.076 74.4374C112.312 76.2551 111.855 77.3954 111.35 78.584L111.35 78.584Z" fill="#D25174"/>
<path fill-rule="evenodd" clip-rule="evenodd" d="M44.5165 116.539C41.0197 117.152 41.2359 113.869 42.5782 113.179C44.9449 111.963 45.8116 114.483 44.5165 116.539ZM35.8701 125.21C36.0441 126.223 35.8255 126.486 36.7596 126.898L36.9466 126.647C36.4677 122.933 38.4296 119.4 40.9019 118.44C42.4235 121.479 43.8067 123.656 48.4687 123.162C53.9922 122.577 53.7714 119.165 54.9534 117.511C55.5459 118.165 56.0759 118.698 56.5477 119.285C56.8602 119.673 57.0386 119.955 57.3264 120.28L58.6627 121.393C59.1937 119.614 58.9652 118.128 58.8416 116.206C58.0511 115.635 59.7497 115.713 58.6495 116.386C57.5806 117.041 59.2981 117.118 58.1986 116.566C57.5135 113.471 56.5088 110.866 54.0178 110.131C54.6424 116.878 45.6993 116.409 48.2112 109.213C43.6619 109.784 40.8937 111.323 39.0963 114.385C34.6528 121.955 36.5213 123.973 35.8701 125.21H35.8701Z" fill="#35232C"/>
<path fill-rule="evenodd" clip-rule="evenodd" d="M44.5165 116.539C41.0197 117.152 41.2359 113.869 42.5782 113.179C44.9449 111.963 45.8116 114.483 44.5165 116.539ZM35.8701 125.21C36.0441 126.223 35.8255 126.486 36.7596 126.898L36.9466 126.647C36.4677 122.933 38.4296 119.4 40.9019 118.44C42.4235 121.479 43.8067 123.656 48.4687 123.162C53.9922 122.577 53.7714 119.165 54.9534 117.511C55.5459 118.165 56.0759 118.698 56.5477 119.285C56.8602 119.673 57.0386 119.955 57.3264 120.28L58.6627 121.393C59.1937 119.614 58.9652 118.128 58.8416 116.206C58.0511 115.635 59.7497 115.713 58.6495 116.386C57.5806 117.041 59.2981 117.118 58.1986 116.566C57.5135 113.471 56.5088 110.866 54.0178 110.131C54.6424 116.878 45.6993 116.409 48.2112 109.213C43.6619 109.784 40.8937 111.323 39.0963 114.385C34.6528 121.955 36.5213 123.973 35.8701 125.21H35.8701Z" fill="#35232C"/>
<path fill-rule="evenodd" clip-rule="evenodd" d="M52.7793 42.9775C54.1015 45.4612 55.1102 39.9696 59.3543 46.6565C61.8149 50.5329 62.9627 49.8077 61.8298 53.526L60.8025 55.4157C59.4292 57.435 59.462 56.4885 57.866 58.2364C56.4936 59.7392 55.5085 60.5695 55.4717 63.2638C55.3971 68.7216 55.144 65.2503 53.6676 68.9707C52.529 71.8397 53.1691 75.5133 55.9218 77.472C55.9833 77.5158 56.0698 77.5754 56.133 77.6184L58.0494 78.638C58.1378 78.6763 58.4456 78.7987 58.554 78.8499C59.5111 77.666 59.3483 78.0856 59.5208 76.6213C55.3072 77.8288 52.393 71.7412 55.5551 68.564C59.0626 65.0398 53.4868 62.3047 60.0037 57.883C62.2597 56.3521 63.9371 57.4344 65.299 55.6081C66.5426 53.9403 67.3431 52.9966 67.9788 50.7331C69.4218 45.5945 67.5475 43.0493 64.5969 39.6148C63.2554 37.8252 59.9959 36.7958 57.6654 38.3047C55.5311 39.6865 56.0176 43.1594 52.7793 42.9775V42.9775Z" fill="#5A75B9"/>
<path fill-rule="evenodd" clip-rule="evenodd" d="M52.7793 42.9775C54.1015 45.4612 55.1102 39.9696 59.3543 46.6565C61.8149 50.5329 62.9627 49.8077 61.8298 53.526L60.8025 55.4157C59.4292 57.435 59.462 56.4885 57.866 58.2364C56.4936 59.7392 55.5085 60.5695 55.4717 63.2638C55.3971 68.7216 55.144 65.2503 53.6676 68.9707C52.529 71.8397 53.1691 75.5133 55.9218 77.472C55.9833 77.5158 56.0698 77.5754 56.133 77.6184L58.0494 78.638C58.1378 78.6763 58.4456 78.7987 58.554 78.8499C59.5111 77.666 59.3483 78.0856 59.5208 76.6213C55.3072 77.8288 52.393 71.7412 55.5551 68.564C59.0626 65.0398 53.4868 62.3047 60.0037 57.883C62.2597 56.3521 63.9371 57.4344 65.299 55.6081C66.5426 53.9403 67.3431 52.9966 67.9788 50.7331C69.4218 45.5945 67.5475 43.0493 64.5969 39.6148C63.2554 37.8252 59.9959 36.7958 57.6654 38.3047C55.5311 39.6865 56.0176 43.1594 52.7793 42.9775V42.9775Z" fill="#5A75B9"/>
<path fill-rule="evenodd" clip-rule="evenodd" d="M33.5237 125.413C35.4599 127.459 33.7108 130.546 39.9372 132.317C42.0531 132.919 49.9573 135.091 51.1939 132.41L50.2204 132.153C47.4249 131.678 44.865 132.221 41.7242 131.236C40.4971 130.851 39.4565 130.232 38.6246 129.645C37.5373 128.878 36.9089 128.371 36.7602 126.898C35.8261 126.486 36.0446 126.223 35.8707 125.21C34.6789 122.117 36.4073 115.312 37.9008 112.847C39.4475 110.295 43.0009 106.851 46.7318 105.827C51.4893 104.522 55.6489 106.728 57.5857 109.615C60.1574 113.448 59.4622 118.343 59.3032 123.19L61.6135 122.48C63.168 118.781 59.6263 107.056 58.0683 103.813C49.8709 103.073 42.0648 97.1619 35.2167 114.494C33.1383 119.755 33.7969 118.957 33.5237 125.413V125.413Z" fill="#FEFDFA"/>
<path fill-rule="evenodd" clip-rule="evenodd" d="M33.5237 125.413C35.4599 127.459 33.7108 130.546 39.9372 132.317C42.0531 132.919 49.9573 135.091 51.1939 132.41L50.2204 132.153C47.4249 131.678 44.865 132.221 41.7242 131.236C40.4971 130.851 39.4565 130.232 38.6246 129.645C37.5373 128.878 36.9089 128.371 36.7602 126.898C35.8261 126.486 36.0446 126.223 35.8707 125.21C34.6789 122.117 36.4073 115.312 37.9008 112.847C39.4475 110.295 43.0009 106.851 46.7318 105.827C51.4893 104.522 55.6489 106.728 57.5857 109.615C60.1574 113.448 59.4622 118.343 59.3032 123.19L61.6135 122.48C63.168 118.781 59.6263 107.056 58.0683 103.813C49.8709 103.073 42.0648 97.1619 35.2167 114.494C33.1383 119.755 33.7969 118.957 33.5237 125.413V125.413Z" fill="#FEFDFA"/>
<path fill-rule="evenodd" clip-rule="evenodd" d="M136.985 96.8586L136.799 97.032C137.657 98.7397 138.049 100.224 135.174 100.44C135.091 103.883 134.225 105.788 134.901 109.43C135.168 110.87 135.357 111.725 136.079 112.938C136.753 114.071 137.512 114.861 137.926 115.94C139.058 116.918 140.191 117.472 141.113 118.194C141.323 121.745 140.026 127.156 144.979 126.234C148.157 125.642 149.379 122.729 150.923 119.931C151.697 118.529 152.278 117.422 153.091 115.981C154.372 113.711 154.508 114.451 156.044 112.832C158.017 110.754 161.144 109.61 164.811 110.384C165.27 109.3 165.401 110.661 164.814 109.622C164.77 109.544 164.562 109.33 164.469 109.273C164.063 109.028 163.364 109.009 162.733 108.978C160.154 108.854 155.828 109.832 155.116 111.72C153.968 110.47 155.196 111.121 154.035 110.811C152.251 112.286 150.499 114.343 148.787 116.707C147.17 118.941 146.301 122.592 143.939 123.03C142.114 117.065 147.915 117.844 145.912 115.32C143.986 114.043 141.428 115.288 139.418 113.519C138.402 112.624 137.228 110.038 136.96 107.937C136.614 105.23 137.211 102.821 138.17 100.7C138.93 99.021 140.954 95.2977 136.985 96.8587L136.985 96.8586Z" fill="#CB8424"/>
<path fill-rule="evenodd" clip-rule="evenodd" d="M136.985 96.8586L136.799 97.032C137.657 98.7397 138.049 100.224 135.174 100.44C135.091 103.883 134.225 105.788 134.901 109.43C135.168 110.87 135.357 111.725 136.079 112.938C136.753 114.071 137.512 114.861 137.926 115.94C139.058 116.918 140.191 117.472 141.113 118.194C141.323 121.745 140.026 127.156 144.979 126.234C148.157 125.642 149.379 122.729 150.923 119.931C151.697 118.529 152.278 117.422 153.091 115.981C154.372 113.711 154.508 114.451 156.044 112.832C158.017 110.754 161.144 109.61 164.811 110.384C165.27 109.3 165.401 110.661 164.814 109.622C164.77 109.544 164.562 109.33 164.469 109.273C164.063 109.028 163.364 109.009 162.733 108.978C160.154 108.854 155.828 109.832 155.116 111.72C153.968 110.47 155.196 111.121 154.035 110.811C152.251 112.286 150.499 114.343 148.787 116.707C147.17 118.941 146.301 122.592 143.939 123.03C142.114 117.065 147.915 117.844 145.912 115.32C143.986 114.043 141.428 115.288 139.418 113.519C138.402 112.624 137.228 110.038 136.96 107.937C136.614 105.23 137.211 102.821 138.17 100.7C138.93 99.021 140.954 95.2977 136.985 96.8587L136.985 96.8586Z" fill="#CB8424"/>
<path fill-rule="evenodd" clip-rule="evenodd" d="M44.3495 124.666L47.3879 124.872L47.7966 129.458L43.0426 128.948C42.9761 127.387 43.6023 125.981 44.3495 124.666L44.3495 124.666ZM36.9475 126.647C38.6199 128.351 38.8509 129.478 41.8749 130.305C43.8839 130.855 48.0542 130.989 50.1486 130.714C53.6379 130.255 52.4229 128.902 57.3156 124.679C58.9146 123.299 58.0806 123.636 58.6636 121.392L57.3273 120.28C57.0395 119.955 56.8612 119.673 56.5486 119.285C56.0768 118.698 55.5468 118.165 54.9544 117.511C53.7723 119.164 53.9931 122.577 48.4697 123.162C43.8076 123.656 42.4244 121.479 40.9029 118.44C38.4305 119.4 36.4686 122.933 36.9475 126.647H36.9475Z" fill="#8A716E"/>
<path fill-rule="evenodd" clip-rule="evenodd" d="M44.3495 124.666L47.3879 124.872L47.7966 129.458L43.0426 128.948C42.9761 127.387 43.6023 125.981 44.3495 124.666L44.3495 124.666ZM36.9475 126.647C38.6199 128.351 38.8509 129.478 41.8749 130.305C43.8839 130.855 48.0542 130.989 50.1486 130.714C53.6379 130.255 52.4229 128.902 57.3156 124.679C58.9146 123.299 58.0806 123.636 58.6636 121.392L57.3273 120.28C57.0395 119.955 56.8612 119.673 56.5486 119.285C56.0768 118.698 55.5468 118.165 54.9544 117.511C53.7723 119.164 53.9931 122.577 48.4697 123.162C43.8076 123.656 42.4244 121.479 40.9029 118.44C38.4305 119.4 36.4686 122.933 36.9475 126.647H36.9475Z" fill="#8A716E"/>
<path fill-rule="evenodd" clip-rule="evenodd" d="M93.6442 125.323L98.8156 125.263L99.4079 130.09L93.0798 129.954C92.8461 127.97 93.1456 127.002 93.6442 125.323ZM100.196 129.737L99.8379 124.86C101.64 123.984 102.668 123.875 104.706 124.085C105.179 126.175 105.411 126.896 104.011 128.151C103.153 128.919 101.734 129.933 100.196 129.737V129.737ZM91.7043 129.336C88.9829 128.769 86.859 127.115 87.2541 124.128C89.621 122.222 90.4303 123.339 92.7105 124.848L91.7043 129.336ZM84.0476 123.649C85.5955 128.297 90.3462 131.838 96.3782 132.083C102.165 132.317 108.674 129.148 110.398 125.576C110.394 123.609 106.632 119.548 105.035 118.636C104.689 119.032 104.968 118.679 104.538 119.318C102.714 122.033 101.128 123.658 96.7482 123.421C92.4965 123.19 90.6617 121.646 89.1821 118.464C87.7559 118.601 84.9831 120.969 83.7998 121.574L84.0476 123.649Z" fill="#795B5E"/>
<path fill-rule="evenodd" clip-rule="evenodd" d="M93.6442 125.323L98.8156 125.263L99.4079 130.09L93.0798 129.954C92.8461 127.97 93.1456 127.002 93.6442 125.323ZM100.196 129.737L99.8379 124.86C101.64 123.984 102.668 123.875 104.706 124.085C105.179 126.175 105.411 126.896 104.011 128.151C103.153 128.919 101.734 129.933 100.196 129.737V129.737ZM91.7043 129.336C88.9829 128.769 86.859 127.115 87.2541 124.128C89.621 122.222 90.4303 123.339 92.7105 124.848L91.7043 129.336ZM84.0476 123.649C85.5955 128.297 90.3462 131.838 96.3782 132.083C102.165 132.317 108.674 129.148 110.398 125.576C110.394 123.609 106.632 119.548 105.035 118.636C104.689 119.032 104.968 118.679 104.538 119.318C102.714 122.033 101.128 123.658 96.7482 123.421C92.4965 123.19 90.6617 121.646 89.1821 118.464C87.7559 118.601 84.9831 120.969 83.7998 121.574L84.0476 123.649Z" fill="#795B5E"/>
<path fill-rule="evenodd" clip-rule="evenodd" d="M54.2409 139.253C53.6628 147.58 66.2667 149.717 72.1148 148.557C78.2384 147.342 81.0324 140.673 80.8338 136.751L79.813 132.788C78.9682 131.452 79.7834 132.399 78.7349 131.624C79.7554 136.414 73.5828 141.836 69.6205 143.166C66.6 144.18 63.5871 144.498 60.3209 143.603C55.6125 142.314 55.4833 141.14 54.2409 139.253H54.2409Z" fill="#C3091B"/>
<path fill-rule="evenodd" clip-rule="evenodd" d="M54.2409 139.253C53.6628 147.58 66.2667 149.717 72.1148 148.557C78.2384 147.342 81.0324 140.673 80.8338 136.751L79.813 132.788C78.9682 131.452 79.7834 132.399 78.7349 131.624C79.7554 136.414 73.5828 141.836 69.6205 143.166C66.6 144.18 63.5871 144.498 60.3209 143.603C55.6125 142.314 55.4833 141.14 54.2409 139.253H54.2409Z" fill="#C3091B"/>
<path fill-rule="evenodd" clip-rule="evenodd" d="M59.5203 76.6214C59.3478 78.0857 59.5106 77.666 58.5535 78.85C57.3494 81.5282 51.3374 84.1083 46.6965 83.6868C44.0356 83.445 42.4745 82.6005 41.0607 80.7415C38.9987 78.0301 37.1551 80.5222 37.8573 84.0111C38.2004 84.578 38.1333 84.2949 37.333 84.7955C39.9932 85.0562 43.1772 89.6062 51.0747 87.5638C52.5768 87.1754 54.0882 86.3543 55.3136 86.1607C56.0367 86.9887 55.7288 87.1399 56.8784 87.4348C59.5514 85.9063 61.4794 82.9751 62.8119 79.4718C63.1974 76.6137 63.1702 74.8074 61.9987 72.4097L60.8255 72.4217C59.9189 73.4768 59.8278 75.0995 59.5203 76.6214V76.6214Z" fill="#060E9E"/>
<path fill-rule="evenodd" clip-rule="evenodd" d="M59.5203 76.6214C59.3478 78.0857 59.5106 77.666 58.5535 78.85C57.3494 81.5282 51.3374 84.1083 46.6965 83.6868C44.0356 83.445 42.4745 82.6005 41.0607 80.7415C38.9987 78.0301 37.1551 80.5222 37.8573 84.0111C38.2004 84.578 38.1333 84.2949 37.333 84.7955C39.9932 85.0562 43.1772 89.6062 51.0747 87.5638C52.5768 87.1754 54.0882 86.3543 55.3136 86.1607C56.0367 86.9887 55.7288 87.1399 56.8784 87.4348C59.5514 85.9063 61.4794 82.9751 62.8119 79.4718C63.1974 76.6137 63.1702 74.8074 61.9987 72.4097L60.8255 72.4217C59.9189 73.4768 59.8278 75.0995 59.5203 76.6214V76.6214Z" fill="#060E9E"/>
<path fill-rule="evenodd" clip-rule="evenodd" d="M85.3698 110.835C89.5535 104.878 99.1924 103.423 101.512 105.516C102.255 105.827 102.71 106.154 103.153 106.366C105.039 107.273 110.08 112.193 110.979 114.668C111.824 113.595 111.516 113.903 111.203 111.892C112.685 114.823 113.234 123.073 110.398 125.576C108.675 129.148 102.165 132.317 96.3787 132.083C90.3468 131.839 85.596 128.297 84.0481 123.649L83.9286 123.683C83.8682 126.759 87.1949 129.767 89.5969 130.917C93.225 132.654 96.1792 133.379 100.79 132.457C104.788 131.658 106.895 130.183 109.378 128.11C111.898 126.007 112.915 122.956 113.161 118.369C113.849 105.525 100.895 98.2469 91.3072 102.484C86.335 105.157 84.3134 108.605 83.6633 110.429C82.7421 113.013 84.3776 112.247 85.3698 110.835V110.835Z" fill="#050505"/>
<path fill-rule="evenodd" clip-rule="evenodd" d="M85.3698 110.835C89.5535 104.878 99.1924 103.423 101.512 105.516C102.255 105.827 102.71 106.154 103.153 106.366C105.039 107.273 110.08 112.193 110.979 114.668C111.824 113.595 111.516 113.903 111.203 111.892C112.685 114.823 113.234 123.073 110.398 125.576C108.675 129.148 102.165 132.317 96.3787 132.083C90.3468 131.839 85.596 128.297 84.0481 123.649L83.9286 123.683C83.8682 126.759 87.1949 129.767 89.5969 130.917C93.225 132.654 96.1792 133.379 100.79 132.457C104.788 131.658 106.895 130.183 109.378 128.11C111.898 126.007 112.915 122.956 113.161 118.369C113.849 105.525 100.895 98.2469 91.3072 102.484C86.335 105.157 84.3134 108.605 83.6633 110.429C82.7421 113.013 84.3776 112.247 85.3698 110.835V110.835Z" fill="#050505"/>
<path fill-rule="evenodd" clip-rule="evenodd" d="M50.5524 135.916C51.6163 135.865 51.4814 134.616 51.8753 131.668L50.2212 132.153L51.1947 132.41C49.9581 135.091 42.0538 132.919 39.938 132.317C33.7116 130.547 35.4607 127.459 33.5244 125.413C32.1209 131.726 29.3172 144.285 34.0719 149.011C33.9808 143.423 35.1194 140.397 38.3184 138.107C41.6524 135.721 45.8024 135.155 50.5524 135.916Z" fill="#FAE2D5"/>
<path fill-rule="evenodd" clip-rule="evenodd" d="M50.5524 135.916C51.6163 135.865 51.4814 134.616 51.8753 131.668L50.2212 132.153L51.1947 132.41C49.9581 135.091 42.0538 132.919 39.938 132.317C33.7116 130.547 35.4607 127.459 33.5244 125.413C32.1209 131.726 29.3172 144.285 34.0719 149.011C33.9808 143.423 35.1194 140.397 38.3184 138.107C41.6524 135.721 45.8024 135.155 50.5524 135.916Z" fill="#FAE2D5"/>
<path fill-rule="evenodd" clip-rule="evenodd" d="M41.532 39.094C40.525 40.3548 39.4991 40.6411 38.4069 42.0614C33.9063 47.9138 39.2428 56.2528 41.263 53.9653C42.5406 52.5184 36.8648 42.2906 46.6598 41.9545C49.0832 41.8713 50.6437 43.055 52.5822 43.1404C51.9244 41.3422 52.4071 39.8549 51.7772 38.7626C46.5395 37.7304 46.5172 37.6589 41.532 39.094Z" fill="#060E9E"/>
<path fill-rule="evenodd" clip-rule="evenodd" d="M41.532 39.094C40.525 40.3548 39.4991 40.6411 38.4069 42.0614C33.9063 47.9138 39.2428 56.2528 41.263 53.9653C42.5406 52.5184 36.8648 42.2906 46.6598 41.9545C49.0832 41.8713 50.6437 43.055 52.5822 43.1404C51.9244 41.3422 52.4071 39.8549 51.7772 38.7626C46.5395 37.7304 46.5172 37.6589 41.532 39.094Z" fill="#060E9E"/>
<path fill-rule="evenodd" clip-rule="evenodd" d="M69.5197 133.13C71.4713 129.835 67.7332 127.76 64.6896 127.826C62.0421 127.883 58.2639 129.798 57.4226 131.624C55.8556 135.026 58.7831 137.979 62.4225 137.287C63.0979 137.159 68.458 134.922 69.5197 133.13Z" fill="#F7E7E5"/>
<path fill-rule="evenodd" clip-rule="evenodd" d="M69.5197 133.13C71.4713 129.835 67.7332 127.76 64.6896 127.826C62.0421 127.883 58.2639 129.798 57.4226 131.624C55.8556 135.026 58.7831 137.979 62.4225 137.287C63.0979 137.159 68.458 134.922 69.5197 133.13Z" fill="#F7E7E5"/>
<path fill-rule="evenodd" clip-rule="evenodd" d="M62.8124 79.4719C64.1261 80.0762 63.9544 80.3339 65.098 81.2279C67.1217 82.8101 71.6605 83.9844 74.398 84.1061C80.0227 84.3562 84.1367 83.0927 86.2205 79.7318C85.9322 77.594 84.1392 78.1508 85.5213 75.1364C83.1354 75.797 83.486 78.0906 80.3496 79.6359C76.2325 81.6643 69.3473 81.2338 65.7819 78.0221C63.2457 75.7375 64.151 73.6903 62.52 71.8202C61.1631 71.8792 61.7173 71.5555 60.8259 72.4218L61.9992 72.4097C63.1706 74.8074 63.1978 76.6137 62.8124 79.4719V79.4719Z" fill="#66BC33"/>
<path fill-rule="evenodd" clip-rule="evenodd" d="M62.8124 79.4719C64.1261 80.0762 63.9544 80.3339 65.098 81.2279C67.1217 82.8101 71.6605 83.9844 74.398 84.1061C80.0227 84.3562 84.1367 83.0927 86.2205 79.7318C85.9322 77.594 84.1392 78.1508 85.5213 75.1364C83.1354 75.797 83.486 78.0906 80.3496 79.6359C76.2325 81.6643 69.3473 81.2338 65.7819 78.0221C63.2457 75.7375 64.151 73.6903 62.52 71.8202C61.1631 71.8792 61.7173 71.5555 60.8259 72.4218L61.9992 72.4097C63.1706 74.8074 63.1978 76.6137 62.8124 79.4719V79.4719Z" fill="#66BC33"/>
<path fill-rule="evenodd" clip-rule="evenodd" d="M171.557 125.054C169.363 134.686 166.337 134.503 166.742 136.986C173.156 138.903 180.833 128.398 178.317 124.308C177.667 123.25 178.517 123.821 175.267 124.538C173.948 124.828 172.726 124.703 171.557 125.054V125.054Z" fill="#A6E974"/>
<path fill-rule="evenodd" clip-rule="evenodd" d="M171.557 125.054C169.363 134.686 166.337 134.503 166.742 136.986C173.156 138.903 180.833 128.398 178.317 124.308C177.667 123.25 178.517 123.821 175.267 124.538C173.948 124.828 172.726 124.703 171.557 125.054V125.054Z" fill="#A6E974"/>
<path fill-rule="evenodd" clip-rule="evenodd" d="M120.48 55.0018C120.794 51.1051 121.914 49.3374 125.937 49.3568C130.608 49.3795 129.22 53.7424 132.589 52.9983C132.811 51.19 132.268 50.7865 131.657 49.5017C130.527 48.4824 130.385 47.8961 128.633 47.2065C127.179 46.6343 125.329 46.5528 123.626 46.9047C119.407 47.7768 119.436 49.5379 117.645 52.6059C109.254 52.3587 109.785 61.6941 112.961 60.459C114.631 58.8784 113.512 57.5963 114.958 56.2377C116.372 54.9096 118.008 55.8922 119.927 55.8237L120.48 55.0019V55.0018Z" fill="#CB8424"/>
<path fill-rule="evenodd" clip-rule="evenodd" d="M120.48 55.0018C120.794 51.1051 121.914 49.3374 125.937 49.3568C130.608 49.3795 129.22 53.7424 132.589 52.9983C132.811 51.19 132.268 50.7865 131.657 49.5017C130.527 48.4824 130.385 47.8961 128.633 47.2065C127.179 46.6343 125.329 46.5528 123.626 46.9047C119.407 47.7768 119.436 49.5379 117.645 52.6059C109.254 52.3587 109.785 61.6941 112.961 60.459C114.631 58.8784 113.512 57.5963 114.958 56.2377C116.372 54.9096 118.008 55.8922 119.927 55.8237L120.48 55.0019V55.0018Z" fill="#CB8424"/>
<path fill-rule="evenodd" clip-rule="evenodd" d="M23.4981 81.8657C24.6155 83.0822 24.7814 83.2704 27.0654 83.2291L27.5046 82.5884C27.8183 79.2088 23.2566 76.6561 26.8408 73.7114C28.5323 72.3217 30.2188 73.2707 32.0491 72.7045C33.5667 72.235 33.909 69.9976 32.019 69.2633C28.5071 67.8987 24.4902 70.1697 23.097 72.1197C19.8826 76.619 23.0098 80.3577 23.4981 81.8657L23.4981 81.8657Z" fill="#060EA1"/>
<path fill-rule="evenodd" clip-rule="evenodd" d="M23.4981 81.8657C24.6155 83.0822 24.7814 83.2704 27.0654 83.2291L27.5046 82.5884C27.8183 79.2088 23.2566 76.6561 26.8408 73.7114C28.5323 72.3217 30.2188 73.2707 32.0491 72.7045C33.5667 72.235 33.909 69.9976 32.019 69.2633C28.5071 67.8987 24.4902 70.1697 23.097 72.1197C19.8826 76.619 23.0098 80.3577 23.4981 81.8657L23.4981 81.8657Z" fill="#060EA1"/>
<path fill-rule="evenodd" clip-rule="evenodd" d="M31.2322 99.3871C30.274 100.183 28.784 100.422 28.3939 101.618C27.759 103.565 29.5298 103.664 31.1743 103.693C31.7207 105.323 32.2889 105.604 32.281 107.272C33.0118 105.973 32.284 106.675 33.4131 105.44C36.0755 102.528 37.6436 99.0695 42.8978 96.9914C45.0317 96.1474 44.5299 96.326 45.0694 95.4625C43.5654 95.3223 42.0853 95.3824 40.5519 95.2855C38.7679 95.1729 38.044 94.5174 36.1725 94.5644C35.3276 95.6497 34.9148 96.3966 33.9728 97.3873C33.1922 98.2084 32.4507 98.8811 31.2323 99.387L31.2322 99.3871Z" fill="#7AD04A"/>
<path fill-rule="evenodd" clip-rule="evenodd" d="M31.2322 99.3871C30.274 100.183 28.784 100.422 28.3939 101.618C27.759 103.565 29.5298 103.664 31.1743 103.693C31.7207 105.323 32.2889 105.604 32.281 107.272C33.0118 105.973 32.284 106.675 33.4131 105.44C36.0755 102.528 37.6436 99.0695 42.8978 96.9914C45.0317 96.1474 44.5299 96.326 45.0694 95.4625C43.5654 95.3223 42.0853 95.3824 40.5519 95.2855C38.7679 95.1729 38.044 94.5174 36.1725 94.5644C35.3276 95.6497 34.9148 96.3966 33.9728 97.3873C33.1922 98.2084 32.4507 98.8811 31.2323 99.387L31.2322 99.3871Z" fill="#7AD04A"/>
<path fill-rule="evenodd" clip-rule="evenodd" d="M133.413 58.6954C136.063 59.4878 135.532 58.3775 137.102 57.1478C138.245 56.2529 140.11 56.1035 141.319 57.2559C144.858 60.6286 138.232 60.6619 139.634 64.3534C143.859 65.6064 148.835 59.1496 143.87 54.7115C139.302 50.6287 132.201 54.5974 133.413 58.6954Z" fill="#D25174"/>
<path fill-rule="evenodd" clip-rule="evenodd" d="M133.413 58.6954C136.063 59.4878 135.532 58.3775 137.102 57.1478C138.245 56.2529 140.11 56.1035 141.319 57.2559C144.858 60.6286 138.232 60.6619 139.634 64.3534C143.859 65.6064 148.835 59.1496 143.87 54.7115C139.302 50.6287 132.201 54.5974 133.413 58.6954Z" fill="#D25174"/>
<path fill-rule="evenodd" clip-rule="evenodd" d="M81.3963 9.26363C76.2302 7.01504 68.7871 5.21251 66.4346 12.5834C73.7262 14.8954 72.3192 18.0309 74.4087 18.8106C77.1725 15.6118 75.2786 14.6425 81.3963 9.26363H81.3963Z" fill="#C8F563"/>
<path fill-rule="evenodd" clip-rule="evenodd" d="M81.3963 9.26363C76.2302 7.01504 68.7871 5.21251 66.4346 12.5834C73.7262 14.8954 72.3192 18.0309 74.4087 18.8106C77.1725 15.6118 75.2786 14.6425 81.3963 9.26363H81.3963Z" fill="#C8F563"/>
<path fill-rule="evenodd" clip-rule="evenodd" d="M51.7754 38.7625C52.4053 39.8548 51.9226 41.3421 52.5804 43.1403L52.7779 42.9775C56.0162 43.1595 55.5297 39.6866 57.664 38.3047C59.9945 36.7958 63.254 37.8252 64.5955 39.6148C73.625 40.1139 60.2395 28.4764 53.5908 37.0641C52.6371 38.296 52.8919 38.5416 51.7754 38.7625Z" fill="#66BC33"/>
<path fill-rule="evenodd" clip-rule="evenodd" d="M51.7754 38.7625C52.4053 39.8548 51.9226 41.3421 52.5804 43.1403L52.7779 42.9775C56.0162 43.1595 55.5297 39.6866 57.664 38.3047C59.9945 36.7958 63.254 37.8252 64.5955 39.6148C73.625 40.1139 60.2395 28.4764 53.5908 37.0641C52.6371 38.296 52.8919 38.5416 51.7754 38.7625Z" fill="#66BC33"/>
<path fill-rule="evenodd" clip-rule="evenodd" d="M158.832 75.6229C158.519 76.3574 157.8 77.5531 159.165 77.9879C160.449 78.3972 160.371 77.4417 161.549 76.9048C165.952 74.8972 169.787 80.8479 167.551 83.6266C166.116 85.411 163.624 84.6358 164.653 87.5735C168.155 88.3967 173.323 84.2513 170.108 77.8332C168.1 73.8253 162.821 72.4069 158.832 75.6229Z" fill="#CB8424"/>
<path fill-rule="evenodd" clip-rule="evenodd" d="M158.832 75.6229C158.519 76.3574 157.8 77.5531 159.165 77.9879C160.449 78.3972 160.371 77.4417 161.549 76.9048C165.952 74.8972 169.787 80.8479 167.551 83.6266C166.116 85.411 163.624 84.6358 164.653 87.5735C168.155 88.3967 173.323 84.2513 170.108 77.8332C168.1 73.8253 162.821 72.4069 158.832 75.6229Z" fill="#CB8424"/>
<path fill-rule="evenodd" clip-rule="evenodd" d="M103.152 106.366C102.708 106.154 102.254 105.826 101.511 105.516C96.392 105.165 95.1392 110.728 98.2268 112.571C99.8153 113.52 101.961 113.107 103.078 111.722C104.455 110.012 103.916 108.33 103.152 106.366V106.366Z" fill="#FDFDFD"/>
<path fill-rule="evenodd" clip-rule="evenodd" d="M103.152 106.366C102.708 106.154 102.254 105.826 101.511 105.516C96.392 105.165 95.1392 110.728 98.2268 112.571C99.8153 113.52 101.961 113.107 103.078 111.722C104.455 110.012 103.916 108.33 103.152 106.366V106.366Z" fill="#FDFDFD"/>
<path fill-rule="evenodd" clip-rule="evenodd" d="M13.5031 118.793C13.6724 117.498 13.7167 116.01 14.2222 114.736C14.9109 113.002 15.4552 113.484 15.8471 111.356C14.0841 110.646 11.078 108.385 9.70626 108.44C8.11935 111.271 9.58249 118.783 13.5031 118.793V118.793Z" fill="#F8F75A"/>
<path fill-rule="evenodd" clip-rule="evenodd" d="M13.5031 118.793C13.6724 117.498 13.7167 116.01 14.2222 114.736C14.9109 113.002 15.4552 113.484 15.8471 111.356C14.0841 110.646 11.078 108.385 9.70626 108.44C8.11935 111.271 9.58249 118.783 13.5031 118.793V118.793Z" fill="#F8F75A"/>
<path fill-rule="evenodd" clip-rule="evenodd" d="M48.2117 109.213C45.6999 116.409 54.6429 116.878 54.0184 110.131C51.9994 106.398 49.337 108.944 48.2117 109.213Z" fill="#FDFDFD"/>
<path fill-rule="evenodd" clip-rule="evenodd" d="M48.2117 109.213C45.6999 116.409 54.6429 116.878 54.0184 110.131C51.9994 106.398 49.337 108.944 48.2117 109.213Z" fill="#FDFDFD"/>
<path fill-rule="evenodd" clip-rule="evenodd" d="M31.3506 33.3887C31.4471 33.4436 31.5986 33.3885 31.6574 33.5186L37.9891 34.8521C37.5154 28.6361 38.8001 27.4064 35.9956 28.0032C33.5964 28.5137 31.7532 30.6911 31.3506 33.3887H31.3506Z" fill="#6D71B4"/>
<path fill-rule="evenodd" clip-rule="evenodd" d="M31.3506 33.3887C31.4471 33.4436 31.5986 33.3885 31.6574 33.5186L37.9891 34.8521C37.5154 28.6361 38.8001 27.4064 35.9956 28.0032C33.5964 28.5137 31.7532 30.6911 31.3506 33.3887H31.3506Z" fill="#6D71B4"/>
<path fill-rule="evenodd" clip-rule="evenodd" d="M93.6443 125.322C93.1457 127.002 92.8462 127.97 93.0799 129.954L99.408 130.09L98.8157 125.263L93.6443 125.322Z" fill="#D2B8B2"/>
<path fill-rule="evenodd" clip-rule="evenodd" d="M93.6443 125.322C93.1457 127.002 92.8462 127.97 93.0799 129.954L99.408 130.09L98.8157 125.263L93.6443 125.322Z" fill="#D2B8B2"/>
<path fill-rule="evenodd" clip-rule="evenodd" d="M92.7099 124.848C90.4297 123.338 89.6204 122.222 87.2535 124.128C86.8584 127.115 88.9823 128.769 91.7037 129.336L92.7099 124.848Z" fill="#D2B8B2"/>
<path fill-rule="evenodd" clip-rule="evenodd" d="M92.7099 124.848C90.4297 123.338 89.6204 122.222 87.2535 124.128C86.8584 127.115 88.9823 128.769 91.7037 129.336L92.7099 124.848Z" fill="#D2B8B2"/>
<path fill-rule="evenodd" clip-rule="evenodd" d="M100.196 129.737C101.735 129.933 103.153 128.919 104.011 128.15C105.411 126.896 105.179 126.175 104.706 124.085C102.668 123.875 101.641 123.983 99.8379 124.86L100.196 129.737V129.737Z" fill="#D2B8B2"/>
<path fill-rule="evenodd" clip-rule="evenodd" d="M100.196 129.737C101.735 129.933 103.153 128.919 104.011 128.15C105.411 126.896 105.179 126.175 104.706 124.085C102.668 123.875 101.641 123.983 99.8379 124.86L100.196 129.737V129.737Z" fill="#D2B8B2"/>
<path fill-rule="evenodd" clip-rule="evenodd" d="M44.3498 124.667C43.6026 125.982 42.9764 127.387 43.0429 128.948L47.7969 129.458L47.3882 124.873L44.3498 124.667L44.3498 124.667Z" fill="#D2B8B2"/>
<path fill-rule="evenodd" clip-rule="evenodd" d="M44.3498 124.667C43.6026 125.982 42.9764 127.387 43.0429 128.948L47.7969 129.458L47.3882 124.873L44.3498 124.667L44.3498 124.667Z" fill="#D2B8B2"/>
<path fill-rule="evenodd" clip-rule="evenodd" d="M89.4139 113.772C93.5714 114.858 93.6359 111.115 92.0047 110.125C89.74 108.75 87.9297 110.901 89.4139 113.772Z" fill="#A8ABEC"/>
<path fill-rule="evenodd" clip-rule="evenodd" d="M89.4139 113.772C93.5714 114.858 93.6359 111.115 92.0047 110.125C89.74 108.75 87.9297 110.901 89.4139 113.772Z" fill="#A8ABEC"/>
<path fill-rule="evenodd" clip-rule="evenodd" d="M44.5164 116.539C45.8114 114.483 44.9447 111.963 42.578 113.179C41.2357 113.868 41.0195 117.151 44.5164 116.539Z" fill="#A8ABEC"/>
<path fill-rule="evenodd" clip-rule="evenodd" d="M44.5164 116.539C45.8114 114.483 44.9447 111.963 42.578 113.179C41.2357 113.868 41.0195 117.151 44.5164 116.539Z" fill="#A8ABEC"/>
</svg>
