<svg width="157" height="89" viewBox="0 0 157 89" fill="none" xmlns="http://www.w3.org/2000/svg">
<path fill-rule="evenodd" clip-rule="evenodd" d="M15.4411 59.8333C14.6824 59.6254 8.9164 56.2171 3.48886 55.7545C4.99056 62.349 11.4444 67.5429 18.9828 63.4592C20.7302 66.1328 22.5324 66.4825 24.7378 68.4454C15.1735 67.6299 17.7016 68.4454 11.457 68.4454C14.1409 72.5483 19.3748 75.5667 24.3002 73.4395C26.5103 72.4854 26.6488 71.8295 28.2795 70.7111L33.1073 72.5676C33.4993 72.7222 33.6237 72.7481 34.0581 72.9527C34.9223 73.3589 34.4249 73.0785 34.9192 73.4297C31.1144 73.4297 25.5736 76.0968 22.9668 77.5101C24.3285 79.4133 28.7581 80.9152 32.6052 80.1272C35.5708 79.5212 38.0327 76.8816 39.3471 74.3371C40.6285 74.9672 44.3749 75.2443 46.4306 75.2443C46.1914 72.2985 45.4184 73.8664 39.7894 72.5257C39.6588 66.5389 36.7467 61.4642 31.8213 60.2894C31.8213 67.8587 33.2097 67.8748 35.3614 71.1656C34.055 71.0544 30.2818 69.4493 29.1641 68.8997C30.3888 63.5172 29.4979 56.483 25.1801 55.3034C25.0337 57.0953 24.1349 59.0631 23.9349 60.8695C23.6486 63.4673 24.7237 64.1748 25.1801 66.1795C23.1417 65.074 21.5643 64.0168 20.3099 62.0992C21.0386 58.8954 24.8952 54.8038 21.6384 48.5027C19.9368 48.9669 19.0426 50.6638 18.2273 52.2609C17.182 54.309 17.212 55.5257 17.212 58.4732C15.9274 57.5112 14.536 54.8973 14.1125 53.0343C16.5917 49.2456 21.4558 47.3214 19.8675 40.3436C15.438 41.4008 13.6387 44.7592 12.6785 48.3948L12.3417 49.4085C12.2708 48.5317 11.2476 42.656 11.0147 42.1566C16.713 39.0706 19.0489 38.7675 20.7538 31.2804C17.7016 31.3497 14.6068 32.9193 12.6628 35.2334L11.3248 37.4895C11.2854 37.5669 11.202 37.7217 11.1705 37.7846C11.139 37.8473 11.0776 37.9859 11.0163 38.0794C11.0163 34.908 11.4586 33.7461 11.4586 30.8276C16.6233 30.3876 22.2602 27.9897 23.4108 23.5757C20.5916 23.5113 20.3728 22.6201 17.1852 23.5466C14.4636 24.3364 14.6147 25.0405 12.7856 26.2959C13.9158 21.3309 14.4163 23.5419 18.0037 19.8532C20.6309 17.1522 20.0941 15.0911 21.6399 11.7923C18.7278 11.7923 18.2304 11.6311 16.2959 12.6673C8.89436 16.6285 14.4211 20.6266 10.5724 26.2959C10.5724 20.0949 8.56694 17.9579 7.47293 13.1524H6.58827C6.11762 14.9525 3.25117 18.3028 4.0823 22.9488C4.81426 27.0357 6.98969 28.5263 9.6877 30.3748C9.6877 33.0707 9.24538 34.8354 9.24538 38.0794C8.83611 37.4767 4.55767 28.0993 1.27723 27.2016C0.930924 31.4658 0.107663 33.5123 2.0753 37.2624C3.29052 39.5766 6.20577 41.9003 9.24538 42.1581C9.30678 44.9412 10.3772 47.4505 10.5739 49.8628C8.54806 47.4762 9.57279 47.5938 6.08928 44.938C4.74343 43.9114 1.98085 41.6876 0.392578 41.2525C0.392578 45.6583 1.30241 48.0192 3.21339 50.6009C5.16686 53.2406 7.95304 53.9417 12.3448 53.9417C12.8706 54.9568 13.209 55.8512 13.815 56.9697C14.6824 58.5716 15.0444 58.2992 15.4443 59.8333H15.4411Z" fill="url(#paint0_linear_1_3055)"/>
<path d="M59.417 83.0114L59.4044 82.6481L61.1768 80.8884H61.5321L60.2405 82.1961L60.0649 82.3776L59.417 83.0114ZM59.1494 83.7136V80.8884H59.4588V83.7136H59.1494ZM61.252 83.7136L59.9896 82.3091L60.1987 82.0911L61.6198 83.7136H61.252Z" fill="url(#paint1_linear_1_3055)"/>
<path d="M76.1572 83.7378C75.9398 83.7378 75.7308 83.7042 75.5302 83.637C75.3323 83.5671 75.179 83.4783 75.0703 83.3706L75.1916 83.1406C75.2947 83.2375 75.4326 83.3194 75.6055 83.3867C75.7811 83.4513 75.9649 83.4836 76.1572 83.4836C76.3412 83.4836 76.4903 83.4621 76.6045 83.419C76.7215 83.3733 76.8066 83.3127 76.8595 83.2375C76.9152 83.1621 76.9431 83.0786 76.9431 82.9872C76.9431 82.8768 76.9097 82.788 76.8428 82.7208C76.7786 82.6535 76.6937 82.6011 76.5878 82.5633C76.4819 82.523 76.3649 82.4881 76.2367 82.4584C76.1085 82.4288 75.9802 82.3979 75.852 82.3656C75.7239 82.3306 75.6055 82.2849 75.4968 82.2284C75.3908 82.1719 75.3045 82.0979 75.2376 82.0065C75.1734 81.9122 75.1414 81.7899 75.1414 81.6391C75.1414 81.4993 75.179 81.3715 75.2543 81.2557C75.3323 81.1374 75.4508 81.0432 75.6097 80.9732C75.7684 80.9005 75.972 80.8643 76.22 80.8643C76.3843 80.8643 76.5474 80.8871 76.709 80.9328C76.8706 80.9759 77.01 81.0364 77.1271 81.1145L77.0226 81.3526C76.8971 81.2719 76.7634 81.2126 76.6212 81.175C76.4819 81.1374 76.3467 81.1185 76.2158 81.1185C76.0402 81.1185 75.8953 81.1413 75.781 81.1872C75.6668 81.2329 75.5817 81.2947 75.5259 81.3727C75.473 81.4481 75.4466 81.5341 75.4466 81.631C75.4466 81.7414 75.4786 81.8302 75.5428 81.8974C75.6097 81.9647 75.696 82.0171 75.8019 82.0549C75.9106 82.0925 76.0291 82.1262 76.1572 82.1557C76.2854 82.1853 76.4123 82.2176 76.5376 82.2526C76.6659 82.2876 76.7828 82.3333 76.8888 82.3898C76.9975 82.4436 77.0838 82.5163 77.148 82.6078C77.2148 82.6992 77.2482 82.8191 77.2482 82.967C77.2482 83.1042 77.2093 83.232 77.1313 83.3503C77.0532 83.4661 76.9333 83.5602 76.7717 83.6329C76.6128 83.703 76.4081 83.7378 76.1572 83.7378Z" fill="url(#paint2_linear_1_3055)"/>
<path d="M62.4311 82.1517H63.9778V82.4059H62.4311V82.1517ZM62.4646 83.4552H64.2245V83.7136H62.1553V80.8884H64.1618V81.1468H62.4646V83.4552Z" fill="url(#paint3_linear_1_3055)"/>
<path d="M65.612 83.7136V82.6643L65.6829 82.8499L64.4414 80.8884H64.7717L65.8627 82.6117H65.6871L66.7782 80.8884H67.0876L65.846 82.8499L65.917 82.6643V83.7136H65.612Z" fill="url(#paint4_linear_1_3055)"/>
<path d="M68.3124 83.7378C68.0951 83.7378 67.886 83.7042 67.6853 83.637C67.4875 83.5671 67.3343 83.4783 67.2256 83.3706L67.3467 83.1406C67.4499 83.2375 67.5879 83.3194 67.7606 83.3867C67.9362 83.4513 68.12 83.4836 68.3124 83.4836C68.4963 83.4836 68.6454 83.4621 68.7597 83.419C68.8768 83.3733 68.9617 83.3127 69.0146 83.2375C69.0704 83.1621 69.0982 83.0786 69.0982 82.9872C69.0982 82.8768 69.0648 82.788 68.9979 82.7208C68.9339 82.6535 68.8488 82.6011 68.743 82.5633C68.637 82.523 68.52 82.4881 68.3918 82.4584C68.2636 82.4288 68.1354 82.3979 68.0073 82.3656C67.879 82.3306 67.7606 82.2849 67.6519 82.2284C67.5461 82.1719 67.4596 82.0979 67.3928 82.0065C67.3286 81.9122 67.2965 81.7899 67.2965 81.6391C67.2965 81.4993 67.3343 81.3715 67.4094 81.2557C67.4875 81.1374 67.6059 81.0432 67.7648 80.9732C67.9235 80.9005 68.1271 80.8643 68.3751 80.8643C68.5394 80.8643 68.7025 80.8871 68.8641 80.9328C69.0257 80.9759 69.1651 81.0364 69.2822 81.1145L69.1777 81.3526C69.0523 81.2719 68.9185 81.2126 68.7763 81.175C68.637 81.1374 68.5018 81.1185 68.3709 81.1185C68.1953 81.1185 68.0504 81.1413 67.9362 81.1872C67.8219 81.2329 67.7368 81.2947 67.6812 81.3727C67.6282 81.4481 67.6017 81.5341 67.6017 81.631C67.6017 81.7414 67.6337 81.8302 67.6979 81.8974C67.7648 81.9647 67.8511 82.0171 67.9571 82.0549C68.0657 82.0925 68.1842 82.1262 68.3124 82.1557C68.4405 82.1853 68.5674 82.2176 68.6928 82.2526C68.821 82.2876 68.9379 82.3333 69.0439 82.3898C69.1526 82.4436 69.239 82.5163 69.3031 82.6078C69.37 82.6992 69.4033 82.8191 69.4033 82.967C69.4033 83.1042 69.3644 83.232 69.2864 83.3503C69.2084 83.4661 69.0886 83.5602 68.9268 83.6329C68.7681 83.703 68.5632 83.7378 68.3124 83.7378Z" fill="url(#paint5_linear_1_3055)"/>
<path d="M70.0791 83.7133V80.8882H70.3885V83.7133H70.0791Z" fill="url(#paint6_linear_1_3055)"/>
<path d="M71.6157 82.1517H73.1624V82.4059H71.6157V82.1517ZM71.6492 83.4552H73.4091V83.7136H71.3398V80.8884H73.3464V81.1468H71.6492V83.4552Z" fill="url(#paint7_linear_1_3055)"/>
<path d="M78.5448 83.7136V81.1468H77.5166V80.8884H79.8826V81.1468H78.8542V83.7136H78.5448Z" fill="url(#paint8_linear_1_3055)"/>
<path d="M80.377 83.7136V80.8884H81.4722C81.7203 80.8884 81.9334 80.9274 82.1119 81.0054C82.2901 81.0808 82.4266 81.1911 82.5215 81.3364C82.619 81.479 82.6678 81.6526 82.6678 81.857C82.6678 82.0561 82.619 82.2283 82.5215 82.3737C82.4266 82.5162 82.2901 82.6266 82.1119 82.7046C81.9334 82.7799 81.7203 82.8176 81.4722 82.8176H80.5483L80.6863 82.6804V83.7136H80.377ZM82.3751 83.7136L81.6227 82.6885H81.9572L82.7138 83.7136H82.3751ZM80.6863 82.7046L80.5483 82.5633H81.4638C81.7565 82.5633 81.9781 82.5014 82.1285 82.3776C82.2817 82.2539 82.3584 82.0803 82.3584 81.857C82.3584 81.631 82.2817 81.4561 82.1285 81.3324C81.9781 81.2086 81.7565 81.1468 81.4638 81.1468H80.5483L80.6863 81.0054V82.7046Z" fill="url(#paint9_linear_1_3055)"/>
<path d="M83.6762 82.1517H85.2229V82.4059H83.6762V82.1517ZM83.7098 83.4552H85.4696V83.7136H83.4004V80.8884H85.4069V81.1468H83.7098V83.4552Z" fill="url(#paint10_linear_1_3055)"/>
<path d="M85.7275 83.7136L87.0653 80.8884H87.3704L88.708 83.7136H88.382L87.1531 81.0619H87.2784L86.0494 83.7136H85.7275ZM86.2543 82.9588L86.3463 82.7167H88.0475L88.1395 82.9588H86.2543Z" fill="url(#paint11_linear_1_3055)"/>
<path d="M89.1914 83.7136V80.8884H89.4464L90.7841 83.0921H90.6503L91.9754 80.8884H92.2304V83.7136H91.9336V81.3364H92.0047L90.7841 83.3544H90.6378L89.4088 81.3364H89.4883V83.7136H89.1914Z" fill="url(#paint12_linear_1_3055)"/>
<path d="M93.4604 82.1517H95.0071V82.4059H93.4604V82.1517ZM93.4939 83.4552H95.2538V83.7136H93.1846V80.8884H95.191V81.1468H93.4939V83.4552Z" fill="url(#paint13_linear_1_3055)"/>
<path d="M95.9795 83.7136V80.8884H97.0746C97.3226 80.8884 97.5358 80.9274 97.7142 81.0054C97.8925 81.0808 98.0292 81.1911 98.1239 81.3364C98.2214 81.479 98.2701 81.6526 98.2701 81.857C98.2701 82.0561 98.2214 82.2283 98.1239 82.3737C98.0292 82.5162 97.8925 82.6266 97.7142 82.7046C97.5358 82.7799 97.3226 82.8176 97.0746 82.8176H96.1509L96.2887 82.6804V83.7136H95.9795ZM97.9776 83.7136L97.2251 82.6885H97.5596L98.3161 83.7136H97.9776ZM96.2887 82.7046L96.1509 82.5633H97.0663C97.3589 82.5633 97.5805 82.5014 97.7309 82.3776C97.8843 82.2539 97.9608 82.0803 97.9608 81.857C97.9608 81.631 97.8843 81.4561 97.7309 81.3324C97.5805 81.2086 97.3589 81.1468 97.0663 81.1468H96.1509L96.2887 81.0054V82.7046Z" fill="url(#paint14_linear_1_3055)"/>
<path d="M99.8066 83.7378C99.5892 83.7378 99.3802 83.7042 99.1796 83.637C98.9817 83.5671 98.8284 83.4783 98.7197 83.3706L98.8409 83.1406C98.944 83.2375 99.082 83.3194 99.2547 83.3867C99.4303 83.4513 99.6143 83.4836 99.8066 83.4836C99.9904 83.4836 100.14 83.4621 100.254 83.419C100.371 83.3733 100.456 83.3127 100.509 83.2375C100.565 83.1621 100.592 83.0786 100.592 82.9872C100.592 82.8768 100.559 82.788 100.492 82.7208C100.428 82.6535 100.343 82.6011 100.237 82.5633C100.131 82.523 100.014 82.4881 99.8859 82.4584C99.7577 82.4288 99.6296 82.3979 99.5014 82.3656C99.3732 82.3306 99.2547 82.2849 99.146 82.2284C99.0402 82.1719 98.9538 82.0979 98.8869 82.0065C98.8228 81.9122 98.7908 81.7899 98.7908 81.6391C98.7908 81.4993 98.8284 81.3715 98.9036 81.2557C98.9817 81.1374 99.1 81.0432 99.2589 80.9732C99.4178 80.9005 99.6212 80.8643 99.8693 80.8643C100.034 80.8643 100.197 80.8871 100.358 80.9328C100.52 80.9759 100.659 81.0364 100.776 81.1145L100.672 81.3526C100.546 81.2719 100.413 81.2126 100.271 81.175C100.131 81.1374 99.9961 81.1185 99.865 81.1185C99.6895 81.1185 99.5446 81.1413 99.4303 81.1872C99.3161 81.2329 99.2311 81.2947 99.1754 81.3727C99.1224 81.4481 99.096 81.5341 99.096 81.631C99.096 81.7414 99.128 81.8302 99.192 81.8974C99.2589 81.9647 99.3454 82.0171 99.4512 82.0549C99.5599 82.0925 99.6783 82.1262 99.8066 82.1557C99.9348 82.1853 100.062 82.2176 100.187 82.2526C100.315 82.2876 100.432 82.3333 100.538 82.3898C100.647 82.4436 100.733 82.5163 100.797 82.6078C100.864 82.6992 100.898 82.8191 100.898 82.967C100.898 83.1042 100.859 83.232 100.781 83.3503C100.703 83.4661 100.583 83.5602 100.421 83.6329C100.262 83.703 100.057 83.7378 99.8066 83.7378Z" fill="url(#paint15_linear_1_3055)"/>
<path d="M59.0186 88.294V85.4688H59.6958V88.294H59.0186Z" fill="url(#paint16_linear_1_3055)"/>
<path d="M60.3906 88.294V85.4688H60.9507L62.6772 87.5029H62.4056V85.4688H63.0744V88.294H62.5183L60.7878 86.2599H61.0594V88.294H60.3906Z" fill="url(#paint17_linear_1_3055)"/>
<path d="M64.6306 88.294L63.3682 85.4688H64.0998L65.2033 87.9711H64.7728L65.893 85.4688H66.566L65.2995 88.294H64.6306Z" fill="url(#paint18_linear_1_3055)"/>
<path d="M66.8115 88.294V85.4688H67.4886V88.294H66.8115Z" fill="url(#paint19_linear_1_3055)"/>
<path d="M68.7909 88.294V86.0015H67.8545V85.4688H70.4045V86.0015H69.4681V88.294H68.7909Z" fill="url(#paint20_linear_1_3055)"/>
<path d="M70.2363 88.294L71.5405 85.4688H72.2093L73.5178 88.294H72.8072L71.737 85.7997H72.0046L70.9302 88.294H70.2363ZM70.8884 87.6886L71.0682 87.1922H72.573L72.757 87.6886H70.8884Z" fill="url(#paint21_linear_1_3055)"/>
<path d="M74.2811 88.294V86.0015H73.3447V85.4688H75.8947V86.0015H74.9583V88.294H74.2811Z" fill="url(#paint22_linear_1_3055)"/>
<path d="M76.2568 88.294V85.4688H76.9339V88.294H76.2568Z" fill="url(#paint23_linear_1_3055)"/>
<path d="M79.0506 88.3424C78.8193 88.3424 78.6046 88.3062 78.4068 88.2335C78.2118 88.1609 78.0418 88.0585 77.8969 87.9267C77.7547 87.7948 77.6433 87.6401 77.5624 87.4625C77.4844 87.285 77.4453 87.0913 77.4453 86.8814C77.4453 86.6715 77.4844 86.4778 77.5624 86.3002C77.6433 86.1226 77.756 85.9678 77.9011 85.8361C78.046 85.7042 78.2159 85.602 78.411 85.5293C78.6061 85.4567 78.8179 85.4204 79.0464 85.4204C79.2778 85.4204 79.4894 85.4567 79.6818 85.5293C79.8768 85.602 80.0455 85.7042 80.1875 85.8361C80.3324 85.9678 80.4453 86.1226 80.5262 86.3002C80.6069 86.475 80.6474 86.6688 80.6474 86.8814C80.6474 87.0913 80.6069 87.2863 80.5262 87.4666C80.4453 87.6442 80.3324 87.799 80.1875 87.9307C80.0455 88.0599 79.8768 88.1609 79.6818 88.2335C79.4894 88.3062 79.2791 88.3424 79.0506 88.3424ZM79.0464 87.7854C79.1774 87.7854 79.2972 87.7639 79.4058 87.7208C79.5174 87.6779 79.6149 87.6159 79.6985 87.5351C79.7821 87.4544 79.8461 87.3589 79.8908 87.2486C79.9381 87.1384 79.9619 87.0159 79.9619 86.8814C79.9619 86.7469 79.9381 86.6245 79.8908 86.514C79.8461 86.4038 79.7821 86.3083 79.6985 86.2275C79.6177 86.1468 79.5216 86.085 79.4101 86.0419C79.2987 85.9989 79.1774 85.9773 79.0464 85.9773C78.9155 85.9773 78.7942 85.9989 78.6828 86.0419C78.5741 86.085 78.4779 86.1468 78.3943 86.2275C78.3107 86.3083 78.2452 86.4038 78.1978 86.514C78.1532 86.6245 78.1309 86.7469 78.1309 86.8814C78.1309 87.0132 78.1532 87.1356 78.1978 87.2486C78.2452 87.3589 78.3092 87.4544 78.3901 87.5351C78.4737 87.6159 78.5712 87.6779 78.6828 87.7208C78.7942 87.7639 78.9155 87.7854 79.0464 87.7854Z" fill="url(#paint24_linear_1_3055)"/>
<path d="M81.1562 88.294V85.4688H81.7164L83.4428 87.5029H83.1711V85.4688H83.8398V88.294H83.2839L81.5534 86.2599H81.825V88.294H81.1562Z" fill="url(#paint25_linear_1_3055)"/>
<path d="M84.1484 88.294L85.4528 85.4688H86.1216L87.43 88.294H86.7193L85.6491 85.7997H85.9167L84.8425 88.294H84.1484ZM84.8007 87.6886L84.9803 87.1922H86.4852L86.6692 87.6886H84.8007Z" fill="url(#paint26_linear_1_3055)"/>
<path d="M87.7324 88.294V85.4688H88.4096V87.7612H89.8768V88.294H87.7324Z" fill="url(#paint27_linear_1_3055)"/>
<path d="M89.9666 70.4652C91.5475 70.4652 92.749 70.7474 93.5716 71.3121C94.394 71.8767 94.8053 72.7298 94.8053 73.8712C94.8053 74.5041 94.7025 75.0748 94.4968 75.5837C94.2913 76.0924 93.9635 76.5205 93.5137 76.8679C93.0639 77.2155 92.4888 77.4822 91.7884 77.6683C91.0879 77.8544 90.2494 77.9475 89.2726 77.9475H77.2627L79.8266 74.7461H89.5812C90.0567 74.7461 90.4036 74.6749 90.6222 74.5321C90.8406 74.3894 90.9499 74.1567 90.9499 73.8342C90.9499 73.5115 90.8406 73.2819 90.6222 73.1455C90.4036 73.009 90.0567 72.9407 89.5812 72.9407H82.564C81.7287 72.9407 81.0091 72.8539 80.4049 72.6801C79.8009 72.5063 79.2997 72.2645 78.9014 71.9542C78.5029 71.6441 78.2073 71.2686 78.0146 70.8281C77.8218 70.3876 77.7254 69.9006 77.7254 69.367C77.7254 68.7839 77.8314 68.2534 78.0435 67.7756C78.2554 67.2979 78.5831 66.8916 79.0266 66.5565C79.4699 66.2215 80.0419 65.9609 80.7423 65.7748C81.4428 65.5887 82.2813 65.4956 83.2581 65.4956H94.4583L91.8944 68.7343H82.9496C82.4869 68.7343 82.1431 68.7964 81.9183 68.9204C81.6934 69.0444 81.5809 69.2678 81.5809 69.5904C81.5809 69.913 81.6934 70.1395 81.9183 70.2698C82.1431 70.4001 82.4869 70.4652 82.9496 70.4652H89.9666Z" fill="url(#paint28_linear_1_3055)"/>
<path d="M101.111 77.9474H97.1201V65.4954H101.111V77.9474Z" fill="url(#paint29_linear_1_3055)"/>
<path d="M63.0762 65.4954H59.0664V77.9474H63.0762V65.4954Z" fill="url(#paint30_linear_1_3055)"/>
<path fill-rule="evenodd" clip-rule="evenodd" d="M76.8846 65.4954L68.6145 71.3584L77.3473 77.9474H71.3132L63.8223 71.5974L71.1013 65.4954H76.8846Z" fill="url(#paint31_linear_1_3055)"/>
<path fill-rule="evenodd" clip-rule="evenodd" d="M139.626 58.1446C139.626 54.8796 138.687 49.27 135.158 48.3293C131.853 54.5672 135.747 58.4983 136.497 61.7139C135.232 63.6002 133.639 64.6425 131.582 65.7308C132.043 63.7574 133.129 63.0609 132.838 60.5035C132.638 58.7252 131.729 56.7881 131.582 55.024C127.224 56.1852 126.324 63.1085 127.559 68.4088C126.432 68.9498 122.623 70.5298 121.303 70.6393C123.476 67.3998 124.878 67.3838 124.878 59.9325C119.904 61.089 116.965 66.0846 116.834 71.9783C111.249 73.276 110.373 71.7419 110.13 74.6546C112.205 74.6546 115.986 74.3816 117.281 73.7614C118.608 76.2664 121.093 78.8649 124.087 79.4615C127.97 80.2372 132.442 78.7587 133.817 76.8851C131.185 75.4954 125.592 72.8682 121.751 72.8682L123.254 72.14C123.982 71.8497 124.322 71.7513 124.88 71.5325C125.998 71.0945 127.251 70.4726 128.453 70.1919C130.008 71.231 130.017 71.772 132.159 72.7397C137.359 75.0876 142.684 72.0671 145.436 67.9614C139.132 67.9614 141.684 67.1586 132.029 67.9614L135.164 65.7389C136.249 64.9741 137.1 64.1539 137.838 63.0529C145.45 67.0745 151.965 61.9614 153.481 55.4683C151.644 55.6204 148.806 56.4994 147.049 57.0769C143.688 58.181 142.402 59.2201 141.414 59.4834L144.541 53.6834C152.809 53.6834 156.609 49.6523 156.609 41.1903C155.005 41.6186 152.216 43.808 150.857 44.8184C149.912 45.5229 149.251 45.9591 148.447 46.8728C147.81 47.5963 148.023 47.3933 147.489 48.1468L146.33 49.6683C146.529 47.2934 147.611 44.8233 147.67 42.0835C150.624 41.8391 153.506 39.6641 154.748 37.5495C156.905 33.8784 156.078 31.7209 155.714 27.3598C153.417 27.9721 149.683 33.9578 148.578 36.2978L147.831 37.7842C147.797 37.8445 147.73 37.9793 147.669 38.0681C147.669 34.8732 147.222 33.1376 147.222 30.4835C157.527 23.5935 151.302 17.0939 150.349 13.5292H149.456C148.352 18.2599 146.327 20.3635 146.327 26.4682C142.512 20.9871 147.969 17.1558 140.84 13.2072C138.757 12.0539 138.179 12.1903 135.155 12.1903C136.715 15.4377 136.173 17.4668 138.825 20.1256C142.442 23.7538 142.952 21.5821 144.093 26.4682C137.492 22.0547 140.592 23.6301 133.367 23.7903C134.528 28.134 140.222 30.4961 145.433 30.9293C145.433 33.8023 145.879 34.9477 145.879 38.0681C145.817 37.9778 145.746 37.7128 145.722 37.7778L145.414 37.194C143.585 33.6658 140.086 31.4655 136.046 31.375C137.765 38.7472 140.124 39.0439 145.878 42.0819C145.641 42.5753 144.61 48.3594 144.538 49.2208L144.196 48.223C143.341 44.9279 143.168 44.3028 139.944 41.7598C138.937 40.9635 138.285 40.6112 136.939 40.2971C135.337 47.1664 140.246 49.059 142.749 52.7903C142.32 54.6243 140.917 57.1973 139.62 58.1446H139.626Z" fill="url(#paint32_linear_1_3055)"/>
<path fill-rule="evenodd" clip-rule="evenodd" d="M84.7672 55.7036H85.956V0H72.2236V11.7208V55.7036H84.7672Z" fill="url(#paint33_linear_1_3055)"/>
<defs>
<linearGradient id="paint0_linear_1_3055" x1="23.632" y1="11.7832" x2="23.632" y2="80.3415" gradientUnits="userSpaceOnUse">
<stop stop-color="#D1A460"/>
<stop offset="1" stop-color="#D9C586"/>
</linearGradient>
<linearGradient id="paint1_linear_1_3055" x1="80.0653" y1="65.4953" x2="80.0653" y2="88.3426" gradientUnits="userSpaceOnUse">
<stop stop-color="#D1A561"/>
<stop offset="1" stop-color="#D8C384"/>
</linearGradient>
<linearGradient id="paint2_linear_1_3055" x1="80.065" y1="65.4954" x2="80.065" y2="88.3426" gradientUnits="userSpaceOnUse">
<stop stop-color="#D1A561"/>
<stop offset="1" stop-color="#D8C384"/>
</linearGradient>
<linearGradient id="paint3_linear_1_3055" x1="80.0656" y1="65.4953" x2="80.0656" y2="88.3426" gradientUnits="userSpaceOnUse">
<stop stop-color="#D1A561"/>
<stop offset="1" stop-color="#D8C384"/>
</linearGradient>
<linearGradient id="paint4_linear_1_3055" x1="80.0645" y1="65.4953" x2="80.0645" y2="88.3426" gradientUnits="userSpaceOnUse">
<stop stop-color="#D1A561"/>
<stop offset="1" stop-color="#D8C384"/>
</linearGradient>
<linearGradient id="paint5_linear_1_3055" x1="80.0641" y1="65.4954" x2="80.0641" y2="88.3426" gradientUnits="userSpaceOnUse">
<stop stop-color="#D1A561"/>
<stop offset="1" stop-color="#D8C384"/>
</linearGradient>
<linearGradient id="paint6_linear_1_3055" x1="80.0657" y1="65.4951" x2="80.0657" y2="88.3423" gradientUnits="userSpaceOnUse">
<stop stop-color="#D1A561"/>
<stop offset="1" stop-color="#D8C384"/>
</linearGradient>
<linearGradient id="paint7_linear_1_3055" x1="80.0651" y1="65.4953" x2="80.0651" y2="88.3426" gradientUnits="userSpaceOnUse">
<stop stop-color="#D1A561"/>
<stop offset="1" stop-color="#D8C384"/>
</linearGradient>
<linearGradient id="paint8_linear_1_3055" x1="80.0645" y1="65.4953" x2="80.0645" y2="88.3426" gradientUnits="userSpaceOnUse">
<stop stop-color="#D1A561"/>
<stop offset="1" stop-color="#D8C384"/>
</linearGradient>
<linearGradient id="paint9_linear_1_3055" x1="80.0647" y1="65.4953" x2="80.0647" y2="88.3426" gradientUnits="userSpaceOnUse">
<stop stop-color="#D1A561"/>
<stop offset="1" stop-color="#D8C384"/>
</linearGradient>
<linearGradient id="paint10_linear_1_3055" x1="80.0672" y1="65.4953" x2="80.0672" y2="88.3426" gradientUnits="userSpaceOnUse">
<stop stop-color="#D1A561"/>
<stop offset="1" stop-color="#D8C384"/>
</linearGradient>
<linearGradient id="paint11_linear_1_3055" x1="80.0663" y1="65.4953" x2="80.0663" y2="88.3426" gradientUnits="userSpaceOnUse">
<stop stop-color="#D1A561"/>
<stop offset="1" stop-color="#D8C384"/>
</linearGradient>
<linearGradient id="paint12_linear_1_3055" x1="80.0656" y1="65.4953" x2="80.0656" y2="88.3426" gradientUnits="userSpaceOnUse">
<stop stop-color="#D1A561"/>
<stop offset="1" stop-color="#D8C384"/>
</linearGradient>
<linearGradient id="paint13_linear_1_3055" x1="80.0663" y1="65.4953" x2="80.0663" y2="88.3426" gradientUnits="userSpaceOnUse">
<stop stop-color="#D1A561"/>
<stop offset="1" stop-color="#D8C384"/>
</linearGradient>
<linearGradient id="paint14_linear_1_3055" x1="80.0649" y1="65.4953" x2="80.0649" y2="88.3426" gradientUnits="userSpaceOnUse">
<stop stop-color="#D1A561"/>
<stop offset="1" stop-color="#D8C384"/>
</linearGradient>
<linearGradient id="paint15_linear_1_3055" x1="80.0644" y1="65.4954" x2="80.0644" y2="88.3426" gradientUnits="userSpaceOnUse">
<stop stop-color="#D1A561"/>
<stop offset="1" stop-color="#D8C384"/>
</linearGradient>
<linearGradient id="paint16_linear_1_3055" x1="80.064" y1="65.4953" x2="80.064" y2="88.3425" gradientUnits="userSpaceOnUse">
<stop stop-color="#D1A561"/>
<stop offset="1" stop-color="#D8C384"/>
</linearGradient>
<linearGradient id="paint17_linear_1_3055" x1="80.0649" y1="65.4953" x2="80.0649" y2="88.3425" gradientUnits="userSpaceOnUse">
<stop stop-color="#D1A561"/>
<stop offset="1" stop-color="#D8C384"/>
</linearGradient>
<linearGradient id="paint18_linear_1_3055" x1="80.0634" y1="65.4953" x2="80.0634" y2="88.3425" gradientUnits="userSpaceOnUse">
<stop stop-color="#D1A561"/>
<stop offset="1" stop-color="#D8C384"/>
</linearGradient>
<linearGradient id="paint19_linear_1_3055" x1="80.0645" y1="65.4953" x2="80.0645" y2="88.3425" gradientUnits="userSpaceOnUse">
<stop stop-color="#D1A561"/>
<stop offset="1" stop-color="#D8C384"/>
</linearGradient>
<linearGradient id="paint20_linear_1_3055" x1="80.0661" y1="65.4953" x2="80.0661" y2="88.3425" gradientUnits="userSpaceOnUse">
<stop stop-color="#D1A561"/>
<stop offset="1" stop-color="#D8C384"/>
</linearGradient>
<linearGradient id="paint21_linear_1_3055" x1="80.0652" y1="65.4953" x2="80.0652" y2="88.3425" gradientUnits="userSpaceOnUse">
<stop stop-color="#D1A561"/>
<stop offset="1" stop-color="#D8C384"/>
</linearGradient>
<linearGradient id="paint22_linear_1_3055" x1="80.0657" y1="65.4953" x2="80.0657" y2="88.3425" gradientUnits="userSpaceOnUse">
<stop stop-color="#D1A561"/>
<stop offset="1" stop-color="#D8C384"/>
</linearGradient>
<linearGradient id="paint23_linear_1_3055" x1="80.0635" y1="65.4953" x2="80.0635" y2="88.3425" gradientUnits="userSpaceOnUse">
<stop stop-color="#D1A561"/>
<stop offset="1" stop-color="#D8C384"/>
</linearGradient>
<linearGradient id="paint24_linear_1_3055" x1="80.0644" y1="65.4952" x2="80.0644" y2="88.3424" gradientUnits="userSpaceOnUse">
<stop stop-color="#D1A561"/>
<stop offset="1" stop-color="#D8C384"/>
</linearGradient>
<linearGradient id="paint25_linear_1_3055" x1="80.0643" y1="65.4953" x2="80.0643" y2="88.3425" gradientUnits="userSpaceOnUse">
<stop stop-color="#D1A561"/>
<stop offset="1" stop-color="#D8C384"/>
</linearGradient>
<linearGradient id="paint26_linear_1_3055" x1="80.0652" y1="65.4953" x2="80.0652" y2="88.3425" gradientUnits="userSpaceOnUse">
<stop stop-color="#D1A561"/>
<stop offset="1" stop-color="#D8C384"/>
</linearGradient>
<linearGradient id="paint27_linear_1_3055" x1="80.0641" y1="65.4953" x2="80.0641" y2="88.3425" gradientUnits="userSpaceOnUse">
<stop stop-color="#D1A561"/>
<stop offset="1" stop-color="#D8C384"/>
</linearGradient>
<linearGradient id="paint28_linear_1_3055" x1="80.0644" y1="65.4955" x2="80.0644" y2="88.3427" gradientUnits="userSpaceOnUse">
<stop stop-color="#D1A561"/>
<stop offset="1" stop-color="#D8C384"/>
</linearGradient>
<linearGradient id="paint29_linear_1_3055" x1="80.0652" y1="65.4954" x2="80.0652" y2="88.3426" gradientUnits="userSpaceOnUse">
<stop stop-color="#D1A561"/>
<stop offset="1" stop-color="#D8C384"/>
</linearGradient>
<linearGradient id="paint30_linear_1_3055" x1="80.0656" y1="65.4954" x2="80.0656" y2="88.3426" gradientUnits="userSpaceOnUse">
<stop stop-color="#D1A561"/>
<stop offset="1" stop-color="#D8C384"/>
</linearGradient>
<linearGradient id="paint31_linear_1_3055" x1="80.0644" y1="65.4954" x2="80.0644" y2="88.3426" gradientUnits="userSpaceOnUse">
<stop stop-color="#D1A561"/>
<stop offset="1" stop-color="#D8C384"/>
</linearGradient>
<linearGradient id="paint32_linear_1_3055" x1="133.369" y1="12.1853" x2="133.369" y2="79.6723" gradientUnits="userSpaceOnUse">
<stop stop-color="#D1A460"/>
<stop offset="1" stop-color="#D9C586"/>
</linearGradient>
<linearGradient id="paint33_linear_1_3055" x1="79.0897" y1="0" x2="79.0897" y2="55.7036" gradientUnits="userSpaceOnUse">
<stop stop-color="#D1A460"/>
<stop offset="1" stop-color="#D9C586"/>
</linearGradient>
</defs>
</svg>
