<svg width="139" height="75" viewBox="0 0 139 75" fill="none" xmlns="http://www.w3.org/2000/svg">
<path fill-rule="evenodd" clip-rule="evenodd" d="M13.5061 50.5389C12.8258 50.3622 7.65244 47.4454 2.78011 47.0492C4.12729 52.693 9.91806 57.1369 16.6844 53.6416C18.2527 55.9278 19.8704 56.2291 21.8483 57.9089C13.266 57.2113 15.5335 57.9089 9.9314 57.9089C12.3399 61.4208 17.0351 64.0028 21.4558 62.1817C23.4394 61.365 23.5633 60.8033 25.0267 59.8471L29.3578 61.4357C29.7104 61.5678 29.8209 61.5901 30.2115 61.765C30.987 62.1128 30.5411 61.8729 30.9832 62.1742C27.5705 62.1742 22.5972 64.4566 20.2591 65.6657C21.4806 67.2934 25.4554 68.5787 28.9081 67.9054C31.5701 67.3864 33.7786 65.1282 34.9581 62.9518C36.109 63.4912 39.4703 63.7274 41.3148 63.7274C41.0995 61.2069 40.4059 62.5481 35.3563 61.4004C35.2382 56.2775 32.6257 51.9359 28.2069 50.9295C28.2069 57.4066 29.4531 57.4196 31.3834 60.2359C30.2115 60.1411 26.8254 58.7664 25.8232 58.2976C26.9226 53.6919 26.1223 47.6742 22.2485 46.6642C22.117 48.1988 21.3091 49.8804 21.1318 51.4262C20.8746 53.6491 21.8388 54.2555 22.2485 55.9706C20.4192 55.0256 19.0034 54.1197 17.8792 52.479C18.5347 49.7372 21.9931 46.2363 19.0701 40.8456C17.5438 41.2437 16.7397 42.6946 16.0099 44.0618C15.0724 45.8141 15.0991 46.8539 15.0991 49.3763C13.9463 48.5522 12.6982 46.3163 12.3171 44.7222C14.5408 41.4799 18.9062 39.8337 17.4809 33.8644C13.5061 34.7684 11.8921 37.6424 11.0309 40.7526L10.7279 41.6213C10.665 40.8716 9.74657 35.8436 9.53696 35.4158C14.6494 32.7762 16.7473 32.5158 18.2755 26.1094C15.5354 26.1689 12.7591 27.5119 11.0156 29.4912L9.81516 31.422C9.78086 31.489 9.70465 31.621 9.67606 31.675C9.64748 31.7289 9.59222 31.848 9.53696 31.9261C9.53696 29.214 9.9333 28.2188 9.9333 25.7206C14.5674 25.3449 19.6265 23.2912 20.6593 19.5151C18.1307 19.4612 17.9325 18.6985 15.0724 19.4909C12.6296 20.1662 12.7668 20.7689 11.1242 21.844C12.138 17.5954 12.5876 19.4872 15.806 16.3305C18.1631 14.0183 17.681 12.2549 19.0682 9.43304C16.4539 9.43304 16.008 9.29538 14.274 10.1808C7.63338 13.57 12.5915 16.9909 9.13872 21.8422C9.13872 16.5351 7.33994 14.7066 6.3567 10.5956H5.56212C5.141 12.1359 2.56669 15.0024 3.31364 18.9775C3.97103 22.4746 5.92225 23.7488 8.34413 25.3318C8.34413 27.6384 7.94588 29.1489 7.94588 31.9243C7.58003 31.409 3.73857 23.3843 0.794588 22.6179C0.483993 26.2675 -0.255335 28.0179 1.51105 31.2248C2.60099 33.2059 5.21722 35.1926 7.94588 35.4139C8.00114 37.7949 8.9615 39.9416 9.13681 42.0063C7.31897 39.9639 8.23742 40.0643 5.11242 37.7912C3.90434 36.9132 1.4253 35.0103 0 34.6382C0 38.4069 0.815548 40.4289 2.53049 42.6369C4.28353 44.8952 6.78353 45.496 10.7241 45.496C11.1966 46.3647 11.4996 47.1311 12.0427 48.0872C12.822 49.4581 13.146 49.2238 13.5042 50.537L13.5061 50.5389Z" fill="url(#paint0_linear_1_3097)"/>
<path fill-rule="evenodd" clip-rule="evenodd" d="M123.908 47.4358C123.908 44.5972 123.073 39.7236 119.935 38.9051C116.997 44.3275 120.459 47.7428 121.126 50.5386C120.002 52.1792 118.586 53.0833 116.757 54.0301C117.166 52.315 118.131 51.7086 117.873 49.4857C117.696 47.9399 116.888 46.2565 116.757 44.7237C112.883 45.7319 112.083 51.7514 113.18 56.3572C112.178 56.8278 108.792 58.2006 107.62 58.2955C109.552 55.4792 110.798 55.4661 110.798 48.9891C106.378 49.9935 103.765 54.337 103.649 59.4599C98.6851 60.589 97.9057 59.2553 97.6904 61.787C99.5349 61.787 102.896 61.5507 104.045 61.0113C105.225 63.1877 107.433 65.4478 110.095 65.9649C113.548 66.6383 117.523 65.3529 118.744 63.7253C116.404 62.5162 111.433 60.2337 108.018 60.2337L109.356 59.5994C110.002 59.3464 110.305 59.2609 110.8 59.0711C111.795 58.6898 112.908 58.1504 113.977 57.9067C115.358 58.8089 115.366 59.2795 117.269 60.1203C121.892 62.1609 126.623 59.5343 129.07 55.9665C123.468 55.9665 125.735 55.269 117.153 55.9665L119.941 54.0338C120.905 53.3697 121.661 52.6573 122.317 51.6993C129.081 55.1946 134.874 50.7506 136.219 45.1069C134.586 45.239 132.065 46.0035 130.503 46.5057C127.515 47.4656 126.372 48.3696 125.495 48.5966L128.275 43.5555C135.623 43.5555 139.001 40.0528 139.001 32.6978C137.576 33.0698 135.097 34.9727 133.889 35.8507C133.049 36.4627 132.462 36.8422 131.745 37.6365C131.179 38.2652 131.368 38.0885 130.894 38.7433L129.865 40.0659C130.042 38.0011 131.002 35.8545 131.056 33.4735C133.681 33.2614 136.244 31.3715 137.347 29.5336C139.264 26.3435 138.529 24.4666 138.207 20.6774C136.166 21.2094 132.847 26.4123 131.863 28.4454L131.2 29.7364C131.172 29.7885 131.111 29.9057 131.056 29.9838C131.056 27.2066 130.659 25.698 130.659 23.3914C139.819 17.4035 134.287 11.7523 133.439 8.65517H132.645C131.663 12.7661 129.865 14.5947 129.865 19.9017C126.473 15.1378 131.324 11.8081 124.988 8.37429C123.136 7.37166 122.624 7.49071 119.935 7.49071C121.322 10.3126 120.84 12.076 123.197 14.3882C126.412 17.5412 126.865 15.6531 127.879 19.9017C122.012 16.0661 124.767 17.4351 118.346 17.5747C119.379 21.3508 124.44 23.4025 129.072 23.7801C129.072 26.2783 129.468 27.2717 129.468 29.9856C129.413 29.9075 129.35 29.6769 129.329 29.7345L129.055 29.2267C127.429 26.1593 124.32 24.247 120.728 24.1689C122.256 30.5753 124.352 30.8339 129.466 33.4753C129.257 33.9032 128.338 38.9312 128.275 39.6808L127.972 38.8121C127.214 35.9475 127.058 35.4043 124.194 33.1944C123.298 32.5024 122.719 32.1955 121.522 31.9239C120.099 37.8951 124.463 39.5394 126.686 42.7817C126.305 44.3759 125.057 46.6118 123.906 47.4358H123.908Z" fill="url(#paint1_linear_1_3097)"/>
<path fill-rule="evenodd" clip-rule="evenodd" d="M65.2747 46.8333H66.3055V0H54.3867V9.85328V46.8333H65.2747Z" fill="url(#paint2_linear_1_3097)"/>
<path fill-rule="evenodd" clip-rule="evenodd" d="M85.2375 46.8333H86.2665V0H74.3477V9.85328V46.8333H85.2375Z" fill="url(#paint3_linear_1_3097)"/>
<path d="M51.9957 70.474L51.9845 70.1656L53.5604 68.6717H53.8763L52.7278 69.7819L52.5717 69.9361L51.9957 70.474ZM51.7578 71.0702V68.6717H52.0328V71.0702H51.7578ZM53.6273 71.0702L52.5048 69.8778L52.6907 69.6928L53.9543 71.0702H53.6273Z" fill="url(#paint4_linear_1_3097)"/>
<path d="M66.8798 71.0908C66.6865 71.0908 66.5007 71.0622 66.3223 71.0051C66.1464 70.9457 66.0101 70.8704 65.9135 70.779L66.0213 70.5837C66.1129 70.6659 66.2356 70.7356 66.3892 70.7927C66.5453 70.8475 66.7088 70.8749 66.8798 70.8749C67.0433 70.8749 67.1759 70.8566 67.2775 70.8201C67.3816 70.7813 67.4571 70.7299 67.5042 70.6659C67.5538 70.602 67.5785 70.5311 67.5785 70.4535C67.5785 70.3598 67.5488 70.2844 67.4893 70.2273C67.4324 70.1702 67.3568 70.1257 67.2626 70.0937C67.1685 70.0594 67.0644 70.0297 66.9504 70.0046C66.8365 69.9795 66.7225 69.9532 66.6085 69.9258C66.4945 69.8961 66.3892 69.8573 66.2926 69.8093C66.1984 69.7613 66.1216 69.6985 66.0622 69.6208C66.0052 69.5409 65.9767 69.437 65.9767 69.309C65.9767 69.1903 66.0101 69.0817 66.077 68.9835C66.1464 68.883 66.2517 68.8031 66.3929 68.7437C66.5342 68.682 66.715 68.6512 66.9356 68.6512C67.0817 68.6512 67.2267 68.6706 67.3704 68.7094C67.5141 68.746 67.638 68.7974 67.7421 68.8636L67.6492 69.0658C67.5377 68.9972 67.4187 68.947 67.2924 68.915C67.1685 68.883 67.0483 68.867 66.9318 68.867C66.7757 68.867 66.6469 68.8864 66.5453 68.9253C66.4437 68.9641 66.3682 69.0166 66.3186 69.0829C66.2715 69.1468 66.248 69.2199 66.248 69.3022C66.248 69.3958 66.2765 69.4712 66.3335 69.5283C66.3929 69.5854 66.4697 69.63 66.5639 69.662C66.6605 69.6939 66.7658 69.7225 66.8798 69.7476C66.9938 69.7727 67.1065 69.8002 67.218 69.8299C67.332 69.8596 67.4361 69.8984 67.5302 69.9464C67.6269 69.992 67.7037 70.0537 67.7607 70.1314C67.8201 70.2091 67.8499 70.3107 67.8499 70.4363C67.8499 70.5528 67.8152 70.6613 67.7458 70.7619C67.6764 70.8601 67.5699 70.94 67.4262 71.0017C67.2849 71.0611 67.1028 71.0908 66.8798 71.0908Z" fill="url(#paint5_linear_1_3097)"/>
<path d="M54.6754 69.7442H56.0506V69.9601H54.6754V69.7442ZM54.7051 70.8509H56.2698V71.0702H54.4301V68.6717H56.2141V68.891H54.7051V70.8509Z" fill="url(#paint6_linear_1_3097)"/>
<path d="M57.5043 71.0702V70.1794L57.5675 70.337L56.4637 68.6717H56.7573L57.7273 70.1348H57.5712L58.5413 68.6717H58.8163L57.7125 70.337L57.7757 70.1794V71.0702H57.5043Z" fill="url(#paint7_linear_1_3097)"/>
<path d="M59.9057 71.0908C59.7125 71.0908 59.5266 71.0622 59.3482 71.0051C59.1723 70.9457 59.036 70.8704 58.9394 70.779L59.0472 70.5837C59.1389 70.6659 59.2615 70.7356 59.4151 70.7927C59.5712 70.8475 59.7348 70.8749 59.9057 70.8749C60.0693 70.8749 60.2018 70.8566 60.3034 70.8201C60.4075 70.7813 60.483 70.7299 60.5301 70.6659C60.5797 70.602 60.6045 70.5311 60.6045 70.4535C60.6045 70.3598 60.5747 70.2844 60.5153 70.2273C60.4583 70.1702 60.3827 70.1257 60.2885 70.0937C60.1944 70.0594 60.0903 70.0297 59.9763 70.0046C59.8624 69.9795 59.7484 69.9532 59.6344 69.9258C59.5204 69.8961 59.4151 69.8573 59.3185 69.8093C59.2243 69.7613 59.1475 69.6985 59.0881 69.6208C59.0311 69.5409 59.0026 69.437 59.0026 69.309C59.0026 69.1903 59.036 69.0817 59.1029 68.9835C59.1723 68.883 59.2776 68.8031 59.4189 68.7437C59.5601 68.682 59.741 68.6512 59.9615 68.6512C60.1077 68.6512 60.2526 68.6706 60.3963 68.7094C60.54 68.746 60.6639 68.7974 60.768 68.8636L60.6751 69.0658C60.5636 68.9972 60.4446 68.947 60.3183 68.915C60.1944 68.883 60.0742 68.867 59.9578 68.867C59.8017 68.867 59.6728 68.8864 59.5712 68.9253C59.4696 68.9641 59.3941 69.0166 59.3445 69.0829C59.2974 69.1468 59.2739 69.2199 59.2739 69.3022C59.2739 69.3958 59.3024 69.4712 59.3594 69.5283C59.4189 69.5854 59.4957 69.63 59.5898 69.662C59.6864 69.6939 59.7918 69.7225 59.9057 69.7476C60.0197 69.7727 60.1324 69.8002 60.2439 69.8299C60.3579 69.8596 60.462 69.8984 60.5561 69.9464C60.6528 69.992 60.7296 70.0537 60.7866 70.1314C60.846 70.2091 60.8758 70.3107 60.8758 70.4363C60.8758 70.5528 60.8411 70.6613 60.7717 70.7619C60.7023 70.8601 60.5958 70.94 60.4521 71.0017C60.3108 71.0611 60.1287 71.0908 59.9057 71.0908Z" fill="url(#paint8_linear_1_3097)"/>
<path d="M61.475 71.0702V68.6717H61.7501V71.0702H61.475Z" fill="url(#paint9_linear_1_3097)"/>
<path d="M62.8418 69.7442H64.217V69.9601H62.8418V69.7442ZM62.8716 70.8509H64.4363V71.0702H62.5965V68.6717H64.3805V68.891H62.8716V70.8509Z" fill="url(#paint10_linear_1_3097)"/>
<path d="M69.0032 71.0702V68.891H68.0889V68.6717H70.1925V68.891H69.2782V71.0702H69.0032Z" fill="url(#paint11_linear_1_3097)"/>
<path d="M70.6319 71.0702V68.6717H71.6057C71.8262 68.6717 72.0157 68.7048 72.1743 68.7711C72.3329 68.835 72.4543 68.9287 72.5385 69.0521C72.6253 69.1731 72.6686 69.3205 72.6686 69.4941C72.6686 69.6631 72.6253 69.8093 72.5385 69.9326C72.4543 70.0537 72.3329 70.1474 72.1743 70.2136C72.0157 70.2776 71.8262 70.3096 71.6057 70.3096H70.7843L70.9069 70.1931V71.0702H70.6319ZM72.4084 71.0702L71.7395 70.1999H72.0368L72.7095 71.0702H72.4084ZM70.9069 70.2136L70.7843 70.0937H71.5982C71.8584 70.0937 72.0554 70.0412 72.1892 69.9361C72.3254 69.831 72.3936 69.6837 72.3936 69.4941C72.3936 69.3022 72.3254 69.1537 72.1892 69.0486C72.0554 68.9435 71.8584 68.891 71.5982 68.891H70.7843L70.9069 68.7711V70.2136Z" fill="url(#paint12_linear_1_3097)"/>
<path d="M73.563 69.7442H74.9382V69.9601H73.563V69.7442ZM73.5928 70.8509H75.1575V71.0702H73.3177V68.6717H75.1017V68.891H73.5928V70.8509Z" fill="url(#paint13_linear_1_3097)"/>
<path d="M75.3877 71.0702L76.577 68.6717H76.8484L78.0377 71.0702H77.7478L76.6551 68.8191H76.7666L75.6739 71.0702H75.3877ZM75.856 70.4295L75.9378 70.2239H77.4504L77.5322 70.4295H75.856Z" fill="url(#paint14_linear_1_3097)"/>
<path d="M78.4681 71.0702V68.6717H78.6948L79.8841 70.5426H79.7652L80.9433 68.6717H81.17V71.0702H80.9062V69.0521H80.9694L79.8841 70.7653H79.754L78.6613 69.0521H78.7319V71.0702H78.4681Z" fill="url(#paint15_linear_1_3097)"/>
<path d="M82.263 69.7442H83.6382V69.9601H82.263V69.7442ZM82.2928 70.8509H83.8575V71.0702H82.0177V68.6717H83.8017V68.891H82.2928V70.8509Z" fill="url(#paint16_linear_1_3097)"/>
<path d="M84.504 71.0702V68.6717H85.4777C85.6982 68.6717 85.8878 68.7048 86.0464 68.7711C86.2049 68.835 86.3264 68.9287 86.4106 69.0521C86.4973 69.1731 86.5407 69.3205 86.5407 69.4941C86.5407 69.6631 86.4973 69.8093 86.4106 69.9326C86.3264 70.0537 86.2049 70.1474 86.0464 70.2136C85.8878 70.2776 85.6982 70.3096 85.4777 70.3096H84.6563L84.779 70.1931V71.0702H84.504ZM86.2805 71.0702L85.6115 70.1999H85.9088L86.5816 71.0702H86.2805ZM84.779 70.2136L84.6563 70.0937H85.4703C85.7304 70.0937 85.9274 70.0412 86.0612 69.9361C86.1975 69.831 86.2656 69.6837 86.2656 69.4941C86.2656 69.3022 86.1975 69.1537 86.0612 69.0486C85.9274 68.9435 85.7304 68.891 85.4703 68.891H84.6563L84.779 68.7711V70.2136Z" fill="url(#paint17_linear_1_3097)"/>
<path d="M87.9071 71.0908C87.7139 71.0908 87.528 71.0622 87.3496 71.0051C87.1737 70.9457 87.0374 70.8704 86.9408 70.779L87.0486 70.5837C87.1403 70.6659 87.2629 70.7356 87.4165 70.7927C87.5726 70.8475 87.7362 70.8749 87.9071 70.8749C88.0707 70.8749 88.2032 70.8566 88.3048 70.8201C88.4089 70.7813 88.4844 70.7299 88.5315 70.6659C88.5811 70.602 88.6059 70.5311 88.6059 70.4535C88.6059 70.3598 88.5761 70.2844 88.5167 70.2273C88.4597 70.1702 88.3841 70.1257 88.2899 70.0937C88.1958 70.0594 88.0917 70.0297 87.9777 70.0046C87.8638 69.9795 87.7498 69.9532 87.6358 69.9258C87.5218 69.8961 87.4165 69.8573 87.3199 69.8093C87.2257 69.7613 87.1489 69.6985 87.0895 69.6208C87.0325 69.5409 87.004 69.437 87.004 69.309C87.004 69.1903 87.0374 69.0817 87.1043 68.9835C87.1737 68.883 87.279 68.8031 87.4202 68.7437C87.5615 68.682 87.7424 68.6512 87.9629 68.6512C88.1091 68.6512 88.254 68.6706 88.3977 68.7094C88.5414 68.746 88.6653 68.7974 88.7694 68.8636L88.6765 69.0658C88.565 68.9972 88.446 68.947 88.3197 68.915C88.1958 68.883 88.0756 68.867 87.9592 68.867C87.8031 68.867 87.6742 68.8864 87.5726 68.9253C87.471 68.9641 87.3955 69.0166 87.3459 69.0829C87.2988 69.1468 87.2753 69.2199 87.2753 69.3022C87.2753 69.3958 87.3038 69.4712 87.3608 69.5283C87.4202 69.5854 87.4971 69.63 87.5912 69.662C87.6878 69.6939 87.7931 69.7225 87.9071 69.7476C88.0211 69.7727 88.1338 69.8002 88.2453 69.8299C88.3593 69.8596 88.4634 69.8984 88.5575 69.9464C88.6542 69.992 88.731 70.0537 88.788 70.1314C88.8474 70.2091 88.8772 70.3107 88.8772 70.4363C88.8772 70.5528 88.8425 70.6613 88.7731 70.7619C88.7037 70.8601 88.5972 70.94 88.4535 71.0017C88.3122 71.0611 88.1301 71.0908 87.9071 71.0908Z" fill="url(#paint18_linear_1_3097)"/>
<path d="M51.6426 74.959V72.5604H52.2447V74.959H51.6426Z" fill="url(#paint19_linear_1_3097)"/>
<path d="M52.8617 74.959V72.5604H53.3597L54.8947 74.2874H54.6531V72.5604H55.2478V74.959H54.7534L53.2148 73.232H53.4563V74.959H52.8617Z" fill="url(#paint20_linear_1_3097)"/>
<path d="M56.6329 74.959L55.5105 72.5604H56.1609L57.1421 74.6848H56.7593L57.7553 72.5604H58.3537L57.2276 74.959H56.6329Z" fill="url(#paint21_linear_1_3097)"/>
<path d="M58.5709 74.959V72.5604H59.173V74.959H58.5709Z" fill="url(#paint22_linear_1_3097)"/>
<path d="M60.3294 74.959V73.0127H59.4968V72.5604H61.764V73.0127H60.9315V74.959H60.3294Z" fill="url(#paint23_linear_1_3097)"/>
<path d="M61.6153 74.959L62.7749 72.5604H63.3696L64.5329 74.959H63.9011L62.9496 72.8414H63.1875L62.2323 74.959H61.6153ZM62.1951 74.445L62.355 74.0235H63.6929L63.8565 74.445H62.1951Z" fill="url(#paint24_linear_1_3097)"/>
<path d="M65.2111 74.959V73.0127H64.3785V72.5604H66.6457V73.0127H65.8132V74.959H65.2111Z" fill="url(#paint25_linear_1_3097)"/>
<path d="M66.9697 74.959V72.5604H67.5717V74.959H66.9697Z" fill="url(#paint26_linear_1_3097)"/>
<path d="M69.4528 75.0001C69.2472 75.0001 69.0564 74.9692 68.8805 74.9076C68.707 74.8459 68.5559 74.7591 68.427 74.6471C68.3007 74.5352 68.2016 74.4039 68.1297 74.2531C68.0603 74.1023 68.0256 73.9379 68.0256 73.7597C68.0256 73.5815 68.0603 73.417 68.1297 73.2663C68.2016 73.1155 68.3019 72.9842 68.4308 72.8722C68.5596 72.7603 68.7107 72.6735 68.8842 72.6118C69.0576 72.5502 69.2459 72.5193 69.4491 72.5193C69.6548 72.5193 69.8431 72.5502 70.014 72.6118C70.1875 72.6735 70.3374 72.7603 70.4638 72.8722C70.5926 72.9842 70.6929 73.1155 70.7648 73.2663C70.8367 73.4148 70.8726 73.5792 70.8726 73.7597C70.8726 73.9379 70.8367 74.1035 70.7648 74.2565C70.6929 74.4073 70.5926 74.5386 70.4638 74.6506C70.3374 74.7602 70.1875 74.8459 70.014 74.9076C69.8431 74.9692 69.656 75.0001 69.4528 75.0001ZM69.4491 74.5272C69.5656 74.5272 69.6721 74.5089 69.7687 74.4724C69.8679 74.4358 69.9546 74.3833 70.0289 74.3148C70.1032 74.2462 70.1602 74.1652 70.1999 74.0715C70.242 73.9778 70.2631 73.8739 70.2631 73.7597C70.2631 73.6455 70.242 73.5415 70.1999 73.4479C70.1602 73.3542 70.1032 73.2731 70.0289 73.2046C69.9571 73.1361 69.8716 73.0835 69.7725 73.047C69.6734 73.0104 69.5656 72.9922 69.4491 72.9922C69.3327 72.9922 69.2249 73.0104 69.1258 73.047C69.0291 73.0835 68.9437 73.1361 68.8693 73.2046C68.795 73.2731 68.7368 73.3542 68.6946 73.4479C68.655 73.5415 68.6352 73.6455 68.6352 73.7597C68.6352 73.8716 68.655 73.9756 68.6946 74.0715C68.7368 74.1652 68.7937 74.2462 68.8656 74.3148C68.9399 74.3833 69.0267 74.4358 69.1258 74.4724C69.2249 74.5089 69.3327 74.5272 69.4491 74.5272Z" fill="url(#paint27_linear_1_3097)"/>
<path d="M71.3251 74.959V72.5604H71.8231L73.3581 74.2874H73.1165V72.5604H73.7112V74.959H73.2169L71.6782 73.232H71.9198V74.959H71.3251Z" fill="url(#paint28_linear_1_3097)"/>
<path d="M73.9848 74.959L75.1444 72.5604H75.739L76.9023 74.959H76.2705L75.3191 72.8414H75.5569L74.6017 74.959H73.9848ZM74.5646 74.445L74.7244 74.0235H76.0624L76.2259 74.445H74.5646Z" fill="url(#paint29_linear_1_3097)"/>
<path d="M77.1723 74.959V72.5604H77.7744V74.5067H79.0789V74.959H77.1723Z" fill="url(#paint30_linear_1_3097)"/>
<path d="M79.1583 59.8226C80.5638 59.8226 81.6322 60.0622 82.3635 60.5416C83.0948 61.0209 83.4604 61.7452 83.4604 62.7143C83.4604 63.2516 83.369 63.7361 83.1862 64.1681C83.0034 64.6 82.712 64.9634 82.3121 65.2584C81.9121 65.5534 81.4008 65.7798 80.7781 65.9379C80.1553 66.0959 79.4097 66.1749 78.5413 66.1749H67.8632L70.1428 63.457H78.8156C79.2384 63.457 79.5469 63.3965 79.7412 63.2753C79.9354 63.1542 80.0325 62.9567 80.0325 62.6828C80.0325 62.4089 79.9354 62.214 79.7412 62.0982C79.5469 61.9823 79.2384 61.9243 78.8156 61.9243H72.5767C71.8339 61.9243 71.1941 61.8506 70.657 61.7031C70.12 61.5556 69.6743 61.3502 69.3201 61.0868C68.9659 60.8235 68.7031 60.5048 68.5317 60.1308C68.3603 59.7568 68.2746 59.3433 68.2746 58.8904C68.2746 58.3953 68.3688 57.9449 68.5573 57.5393C68.7459 57.1337 69.0373 56.7887 69.4315 56.5043C69.8257 56.2199 70.3342 55.9987 70.9569 55.8407C71.5797 55.6827 72.3253 55.6037 73.1937 55.6037H83.152L80.8724 58.3532H72.9195C72.5081 58.3532 72.2024 58.4059 72.0025 58.5112C71.8025 58.6165 71.7025 58.8062 71.7025 59.08C71.7025 59.3539 71.8025 59.5462 72.0025 59.6568C72.2024 59.7674 72.5081 59.8227 72.9195 59.8227H79.1584L79.1583 59.8226Z" fill="url(#paint31_linear_1_3097)"/>
<path d="M89.0659 66.1748H85.518V55.6035H89.0659V66.1748Z" fill="url(#paint32_linear_1_3097)"/>
<path d="M55.2489 55.6035H51.6838V66.1748H55.2489V55.6035Z" fill="url(#paint33_linear_1_3097)"/>
<path fill-rule="evenodd" clip-rule="evenodd" d="M67.527 55.6035L60.1741 60.581L67.9384 66.1748H62.5736L55.9132 60.7839L62.385 55.6035H67.527Z" fill="url(#paint34_linear_1_3097)"/>
<defs>
<linearGradient id="paint0_linear_1_3097" x1="20.8537" y1="9.42529" x2="20.8537" y2="68.0882" gradientUnits="userSpaceOnUse">
<stop stop-color="#E1E1E1"/>
<stop offset="1" stop-color="#B6B6B6"/>
</linearGradient>
<linearGradient id="paint1_linear_1_3097" x1="118.346" y1="7.48633" x2="118.346" y2="66.1478" gradientUnits="userSpaceOnUse">
<stop stop-color="#E1E1E1"/>
<stop offset="1" stop-color="#B6B6B6"/>
</linearGradient>
<linearGradient id="paint2_linear_1_3097" x1="60.3461" y1="0" x2="60.3461" y2="46.8333" gradientUnits="userSpaceOnUse">
<stop stop-color="#E1E1E1"/>
<stop offset="1" stop-color="#B6B6B6"/>
</linearGradient>
<linearGradient id="paint3_linear_1_3097" x1="80.3071" y1="0" x2="80.3071" y2="46.8333" gradientUnits="userSpaceOnUse">
<stop stop-color="#E1E1E1"/>
<stop offset="1" stop-color="#B6B6B6"/>
</linearGradient>
<linearGradient id="paint4_linear_1_3097" x1="70.3542" y1="55.6035" x2="70.3542" y2="75.0001" gradientUnits="userSpaceOnUse">
<stop stop-color="#E0E0E0"/>
<stop offset="1" stop-color="#E0E0E0"/>
</linearGradient>
<linearGradient id="paint5_linear_1_3097" x1="70.3542" y1="55.6035" x2="70.3542" y2="75.0001" gradientUnits="userSpaceOnUse">
<stop stop-color="#E0E0E0"/>
<stop offset="1" stop-color="#E0E0E0"/>
</linearGradient>
<linearGradient id="paint6_linear_1_3097" x1="70.3542" y1="55.6035" x2="70.3542" y2="75.0001" gradientUnits="userSpaceOnUse">
<stop stop-color="#E0E0E0"/>
<stop offset="1" stop-color="#E0E0E0"/>
</linearGradient>
<linearGradient id="paint7_linear_1_3097" x1="70.3542" y1="55.6035" x2="70.3542" y2="75.0001" gradientUnits="userSpaceOnUse">
<stop stop-color="#E0E0E0"/>
<stop offset="1" stop-color="#E0E0E0"/>
</linearGradient>
<linearGradient id="paint8_linear_1_3097" x1="70.3542" y1="55.6035" x2="70.3542" y2="75.0001" gradientUnits="userSpaceOnUse">
<stop stop-color="#E0E0E0"/>
<stop offset="1" stop-color="#E0E0E0"/>
</linearGradient>
<linearGradient id="paint9_linear_1_3097" x1="70.3542" y1="55.6035" x2="70.3542" y2="75.0001" gradientUnits="userSpaceOnUse">
<stop stop-color="#E0E0E0"/>
<stop offset="1" stop-color="#E0E0E0"/>
</linearGradient>
<linearGradient id="paint10_linear_1_3097" x1="70.3542" y1="55.6035" x2="70.3542" y2="75.0001" gradientUnits="userSpaceOnUse">
<stop stop-color="#E0E0E0"/>
<stop offset="1" stop-color="#E0E0E0"/>
</linearGradient>
<linearGradient id="paint11_linear_1_3097" x1="70.3542" y1="55.6035" x2="70.3542" y2="75.0001" gradientUnits="userSpaceOnUse">
<stop stop-color="#E0E0E0"/>
<stop offset="1" stop-color="#E0E0E0"/>
</linearGradient>
<linearGradient id="paint12_linear_1_3097" x1="70.3542" y1="55.6035" x2="70.3542" y2="75.0001" gradientUnits="userSpaceOnUse">
<stop stop-color="#E0E0E0"/>
<stop offset="1" stop-color="#E0E0E0"/>
</linearGradient>
<linearGradient id="paint13_linear_1_3097" x1="70.3542" y1="55.6035" x2="70.3542" y2="75.0001" gradientUnits="userSpaceOnUse">
<stop stop-color="#E0E0E0"/>
<stop offset="1" stop-color="#E0E0E0"/>
</linearGradient>
<linearGradient id="paint14_linear_1_3097" x1="70.3542" y1="55.6035" x2="70.3542" y2="75.0001" gradientUnits="userSpaceOnUse">
<stop stop-color="#E0E0E0"/>
<stop offset="1" stop-color="#E0E0E0"/>
</linearGradient>
<linearGradient id="paint15_linear_1_3097" x1="70.3542" y1="55.6035" x2="70.3542" y2="75.0001" gradientUnits="userSpaceOnUse">
<stop stop-color="#E0E0E0"/>
<stop offset="1" stop-color="#E0E0E0"/>
</linearGradient>
<linearGradient id="paint16_linear_1_3097" x1="70.3542" y1="55.6035" x2="70.3542" y2="75.0001" gradientUnits="userSpaceOnUse">
<stop stop-color="#E0E0E0"/>
<stop offset="1" stop-color="#E0E0E0"/>
</linearGradient>
<linearGradient id="paint17_linear_1_3097" x1="70.3542" y1="55.6035" x2="70.3542" y2="75.0001" gradientUnits="userSpaceOnUse">
<stop stop-color="#E0E0E0"/>
<stop offset="1" stop-color="#E0E0E0"/>
</linearGradient>
<linearGradient id="paint18_linear_1_3097" x1="70.3542" y1="55.6035" x2="70.3542" y2="75.0001" gradientUnits="userSpaceOnUse">
<stop stop-color="#E0E0E0"/>
<stop offset="1" stop-color="#E0E0E0"/>
</linearGradient>
<linearGradient id="paint19_linear_1_3097" x1="70.3542" y1="55.6035" x2="70.3542" y2="75.0001" gradientUnits="userSpaceOnUse">
<stop stop-color="#E0E0E0"/>
<stop offset="1" stop-color="#E0E0E0"/>
</linearGradient>
<linearGradient id="paint20_linear_1_3097" x1="70.3542" y1="55.6035" x2="70.3542" y2="75.0001" gradientUnits="userSpaceOnUse">
<stop stop-color="#E0E0E0"/>
<stop offset="1" stop-color="#E0E0E0"/>
</linearGradient>
<linearGradient id="paint21_linear_1_3097" x1="70.3542" y1="55.6035" x2="70.3542" y2="75.0001" gradientUnits="userSpaceOnUse">
<stop stop-color="#E0E0E0"/>
<stop offset="1" stop-color="#E0E0E0"/>
</linearGradient>
<linearGradient id="paint22_linear_1_3097" x1="70.3542" y1="55.6035" x2="70.3542" y2="75.0001" gradientUnits="userSpaceOnUse">
<stop stop-color="#E0E0E0"/>
<stop offset="1" stop-color="#E0E0E0"/>
</linearGradient>
<linearGradient id="paint23_linear_1_3097" x1="70.3542" y1="55.6035" x2="70.3542" y2="75.0001" gradientUnits="userSpaceOnUse">
<stop stop-color="#E0E0E0"/>
<stop offset="1" stop-color="#E0E0E0"/>
</linearGradient>
<linearGradient id="paint24_linear_1_3097" x1="70.3542" y1="55.6035" x2="70.3542" y2="75.0001" gradientUnits="userSpaceOnUse">
<stop stop-color="#E0E0E0"/>
<stop offset="1" stop-color="#E0E0E0"/>
</linearGradient>
<linearGradient id="paint25_linear_1_3097" x1="70.3542" y1="55.6035" x2="70.3542" y2="75.0001" gradientUnits="userSpaceOnUse">
<stop stop-color="#E0E0E0"/>
<stop offset="1" stop-color="#E0E0E0"/>
</linearGradient>
<linearGradient id="paint26_linear_1_3097" x1="70.3542" y1="55.6035" x2="70.3542" y2="75.0001" gradientUnits="userSpaceOnUse">
<stop stop-color="#E0E0E0"/>
<stop offset="1" stop-color="#E0E0E0"/>
</linearGradient>
<linearGradient id="paint27_linear_1_3097" x1="70.3542" y1="55.6035" x2="70.3542" y2="75.0001" gradientUnits="userSpaceOnUse">
<stop stop-color="#E0E0E0"/>
<stop offset="1" stop-color="#E0E0E0"/>
</linearGradient>
<linearGradient id="paint28_linear_1_3097" x1="70.3542" y1="55.6035" x2="70.3542" y2="75.0001" gradientUnits="userSpaceOnUse">
<stop stop-color="#E0E0E0"/>
<stop offset="1" stop-color="#E0E0E0"/>
</linearGradient>
<linearGradient id="paint29_linear_1_3097" x1="70.3542" y1="55.6035" x2="70.3542" y2="75.0001" gradientUnits="userSpaceOnUse">
<stop stop-color="#E0E0E0"/>
<stop offset="1" stop-color="#E0E0E0"/>
</linearGradient>
<linearGradient id="paint30_linear_1_3097" x1="70.3542" y1="55.6035" x2="70.3542" y2="75.0001" gradientUnits="userSpaceOnUse">
<stop stop-color="#E0E0E0"/>
<stop offset="1" stop-color="#E0E0E0"/>
</linearGradient>
<linearGradient id="paint31_linear_1_3097" x1="70.3542" y1="55.6035" x2="70.3542" y2="75.0001" gradientUnits="userSpaceOnUse">
<stop stop-color="#E0E0E0"/>
<stop offset="1" stop-color="#E0E0E0"/>
</linearGradient>
<linearGradient id="paint32_linear_1_3097" x1="70.3542" y1="55.6035" x2="70.3542" y2="75.0001" gradientUnits="userSpaceOnUse">
<stop stop-color="#E0E0E0"/>
<stop offset="1" stop-color="#E0E0E0"/>
</linearGradient>
<linearGradient id="paint33_linear_1_3097" x1="70.3542" y1="55.6035" x2="70.3542" y2="75.0001" gradientUnits="userSpaceOnUse">
<stop stop-color="#E0E0E0"/>
<stop offset="1" stop-color="#E0E0E0"/>
</linearGradient>
<linearGradient id="paint34_linear_1_3097" x1="70.3542" y1="55.6035" x2="70.3542" y2="75.0001" gradientUnits="userSpaceOnUse">
<stop stop-color="#E0E0E0"/>
<stop offset="1" stop-color="#E0E0E0"/>
</linearGradient>
</defs>
</svg>
