<svg width="139" height="75" viewBox="0 0 139 75" fill="none" xmlns="http://www.w3.org/2000/svg">
<path fill-rule="evenodd" clip-rule="evenodd" d="M13.5053 50.5474C12.8257 50.3709 7.65154 47.4537 2.77865 47.0562C4.12581 52.7 9.91688 57.144 16.6816 53.6481C18.248 55.9348 19.8675 56.2359 21.8461 57.9156C13.2619 57.2193 15.532 57.9156 9.92893 57.9156C12.3389 61.428 17.0334 64.0088 21.4532 62.1879C23.4366 61.3715 23.5595 60.8093 25.0248 59.8541L29.3578 61.4421C29.7097 61.5739 29.8205 61.5974 30.2109 61.7715C30.9869 62.1197 30.5411 61.8797 30.9821 62.1808C27.5672 62.1808 22.5956 64.4628 20.2579 65.672C21.4798 67.3 25.4537 68.5845 28.9072 67.9117C31.5677 67.3941 33.7777 65.1333 34.9561 62.9572C36.1056 63.4959 39.4675 63.7335 41.3135 63.7335C41.099 61.2139 40.405 62.5549 35.3537 61.4068C35.2357 56.2829 32.6233 51.9424 28.2035 50.9355C28.2035 57.4122 29.4494 57.4263 31.3798 60.2423C30.2085 60.1482 26.8226 58.7743 25.82 58.3038C26.919 53.6975 26.1189 47.6796 22.2437 46.6703C22.1136 48.2042 21.3062 49.8863 21.1279 51.4343C20.87 53.6575 21.8364 54.2621 22.2437 55.9771C20.4146 55.0314 18.9999 54.1256 17.8745 52.4859C18.53 49.7451 21.9882 46.2422 19.0674 40.8524C17.5419 41.25 16.737 42.7016 16.0068 44.0684C15.0693 45.8211 15.0958 46.8609 15.0958 49.3829C13.9439 48.5595 12.6955 46.3222 12.3148 44.7295C14.5391 41.4876 18.9035 39.8408 17.4793 33.87C13.5053 34.7734 11.8906 37.6482 11.0279 40.7583L10.7242 41.6264C10.6616 40.876 9.74337 35.8485 9.5337 35.4204C14.6476 32.7808 16.7442 32.522 18.2721 26.1136C15.532 26.1724 12.7558 27.5157 11.011 29.4966L9.81085 31.428C9.77711 31.4939 9.69999 31.628 9.67107 31.6798C9.64215 31.7339 9.58913 31.8539 9.53129 31.9315C9.53129 29.219 9.92893 28.2238 9.92893 25.7254C14.5632 25.349 19.6217 23.2976 20.6556 19.5217C18.1251 19.4676 17.9299 18.7053 15.0693 19.4982C12.6281 20.1734 12.763 20.778 11.1219 21.8507C12.1364 17.602 12.5847 19.4935 15.8044 16.3387C18.1613 14.0261 17.6793 12.264 19.0674 9.44093C16.4526 9.44093 16.0068 9.30449 14.2716 10.1891C7.62986 13.5791 12.5895 16.9997 9.13606 21.8507C9.13606 16.5433 7.33584 14.7154 6.355 10.6031H5.56213C5.14039 12.144 2.56658 15.0095 3.31366 18.9853C3.97157 22.4836 5.92121 23.7587 8.34319 25.3396C8.34319 27.6451 7.94556 29.1555 7.94556 31.9315C7.57925 31.4163 3.73781 23.3917 0.795278 22.6247C0.484397 26.2736 -0.253043 28.0239 1.51103 31.2328C2.60032 33.2136 5.21751 35.2016 7.94556 35.4204C8.00099 37.8012 8.96014 39.949 9.13606 42.0123C7.31656 39.9702 8.23716 40.0714 5.11147 37.7988C3.90409 36.9213 1.42427 35.0181 0 34.6464C0 38.4152 0.816968 40.436 2.53043 42.6451C4.28486 44.9036 6.78397 45.5035 10.7242 45.5035C11.1966 46.3716 11.5002 47.1385 12.0424 48.0936C12.8209 49.4652 13.1462 49.2299 13.5053 50.545V50.5474Z" fill="url(#paint0_linear_1_3090)"/>
<path fill-rule="evenodd" clip-rule="evenodd" d="M123.907 48.9956C123.907 46.1584 123.073 41.2815 119.935 40.4652C116.998 45.8878 120.461 49.3038 121.126 52.0986C120.003 53.7384 118.586 54.6441 116.757 55.5898C117.166 53.8748 118.13 53.2702 117.872 51.047C117.694 49.5014 116.887 47.8169 116.757 46.2831C112.881 47.2923 112.081 53.3102 113.18 57.9165C112.178 58.387 108.792 59.7609 107.618 59.855C109.551 57.039 110.797 57.0249 110.797 50.5483C106.375 51.5528 103.762 55.8957 103.647 61.0196C98.6821 62.1488 97.9037 60.8149 97.6868 63.3463C99.5304 63.3463 102.892 63.1086 104.042 62.5699C105.223 64.746 107.43 67.0045 110.091 67.5244C113.544 68.1996 117.518 66.9128 118.74 65.2848C116.4 64.0756 111.428 61.7936 108.013 61.7936L109.351 61.1607C109.997 60.909 110.3 60.8219 110.797 60.6337C111.79 60.2526 112.903 59.7115 113.973 59.4692C115.354 60.3726 115.364 60.8431 117.267 61.683C121.89 63.7227 126.623 61.0972 129.069 57.5307C123.466 57.5307 125.734 56.8343 117.152 57.5307L119.938 55.5992C120.902 54.9335 121.658 54.2206 122.314 53.2655C129.079 56.7614 134.872 52.3174 136.217 46.6736C134.583 46.8053 132.062 47.5699 130.5 48.071C127.512 49.0309 126.37 49.9343 125.493 50.1625L128.274 45.1209C135.622 45.1209 139 41.6179 139 34.2614C137.574 34.6331 135.096 36.5364 133.889 37.4139C133.048 38.0255 132.462 38.4067 131.746 39.1995C131.18 39.8276 131.368 39.6535 130.893 40.3075L129.864 41.6297C130.04 39.5641 131.002 37.4186 131.055 35.0378C133.679 34.8261 136.243 32.9346 137.347 31.0972C139.263 27.9071 138.53 26.0322 138.205 22.2422C136.164 22.7738 132.845 27.9777 131.862 30.0103L131.199 31.3019C131.17 31.3537 131.11 31.4713 131.055 31.5489C131.055 28.7729 130.657 27.2625 130.657 24.957C139.817 18.9674 134.284 13.3189 133.438 10.2205H132.645C131.664 14.3328 129.864 16.1608 129.864 21.4682C126.473 16.7042 131.325 13.3753 124.987 9.94058C123.136 8.93838 122.62 9.05601 119.933 9.05601C121.319 11.8791 120.839 13.6412 123.196 15.9537C126.411 19.1062 126.864 17.2194 127.878 21.4658C122.01 17.6288 124.767 18.998 118.345 19.1391C119.376 22.915 124.437 24.9688 129.071 25.3428C129.071 27.8413 129.469 28.8364 129.469 31.5489C129.414 31.4689 129.351 31.2407 129.329 31.2972L129.057 30.789C127.43 27.7213 124.321 25.8087 120.731 25.731C122.258 32.1371 124.355 32.3959 129.469 35.0378C129.259 35.466 128.341 40.4934 128.278 41.2439L127.975 40.3758C127.216 37.5127 127.061 36.9692 124.196 34.7578C123.3 34.0662 122.721 33.7603 121.526 33.4874C120.102 39.4583 124.466 41.1027 126.69 44.3469C126.31 45.9396 125.061 48.1769 123.909 49.0003L123.907 48.9956Z" fill="url(#paint1_linear_1_3090)"/>
<path fill-rule="evenodd" clip-rule="evenodd" d="M55.3021 46.8326H56.3336V0H44.4141V9.85491V46.8326H55.3021Z" fill="url(#paint2_linear_1_3090)"/>
<path d="M51.1402 70.474L51.129 70.1656L52.7049 68.6717H53.0208L51.8724 69.7819L51.7163 69.9361L51.1402 70.474ZM50.9023 71.0702V68.6717H51.1774V71.0702H50.9023ZM52.7718 71.0702L51.6494 69.8778L51.8352 69.6928L53.0988 71.0702H52.7718Z" fill="url(#paint3_linear_1_3090)"/>
<path d="M66.0242 71.0908C65.831 71.0908 65.6451 71.0622 65.4667 71.0051C65.2908 70.9457 65.1545 70.8704 65.0579 70.779L65.1657 70.5837C65.2574 70.6659 65.38 70.7356 65.5336 70.7927C65.6897 70.8475 65.8533 70.8749 66.0242 70.8749C66.1878 70.8749 66.3203 70.8567 66.4219 70.8201C66.526 70.7813 66.6015 70.7299 66.6486 70.6659C66.6982 70.602 66.7229 70.5311 66.7229 70.4535C66.7229 70.3598 66.6932 70.2844 66.6338 70.2273C66.5768 70.1702 66.5012 70.1257 66.407 70.0937C66.3129 70.0594 66.2088 70.0297 66.0948 70.0046C65.9809 69.9795 65.8669 69.9532 65.7529 69.9258C65.6389 69.8961 65.5336 69.8573 65.437 69.8093C65.3428 69.7613 65.266 69.6985 65.2066 69.6208C65.1496 69.5409 65.1211 69.437 65.1211 69.309C65.1211 69.1903 65.1545 69.0817 65.2214 68.9835C65.2908 68.883 65.3961 68.8031 65.5373 68.7437C65.6786 68.682 65.8595 68.6512 66.08 68.6512C66.2262 68.6512 66.3711 68.6706 66.5148 68.7094C66.6585 68.746 66.7824 68.7974 66.8865 68.8636L66.7936 69.0658C66.6821 68.9972 66.5631 68.947 66.4368 68.915C66.3129 68.883 66.1927 68.867 66.0763 68.867C65.9202 68.867 65.7913 68.8864 65.6897 68.9253C65.5881 68.9641 65.5126 69.0166 65.463 69.0829C65.4159 69.1469 65.3924 69.2199 65.3924 69.3022C65.3924 69.3958 65.4209 69.4712 65.4779 69.5283C65.5374 69.5854 65.6142 69.63 65.7083 69.662C65.8049 69.6939 65.9103 69.7225 66.0242 69.7476C66.1382 69.7727 66.2509 69.8002 66.3624 69.8299C66.4764 69.8596 66.5805 69.8984 66.6746 69.9464C66.7713 69.992 66.8481 70.0537 66.9051 70.1314C66.9645 70.2091 66.9943 70.3107 66.9943 70.4363C66.9943 70.5528 66.9596 70.6613 66.8902 70.7619C66.8208 70.8601 66.7143 70.94 66.5706 71.0017C66.4293 71.0611 66.2472 71.0908 66.0242 71.0908Z" fill="url(#paint4_linear_1_3090)"/>
<path d="M53.8199 69.7442H55.1951V69.9601H53.8199V69.7442ZM53.8496 70.8509H55.4143V71.0702H53.5746V68.6717H55.3586V68.891H53.8496V70.8509Z" fill="url(#paint5_linear_1_3090)"/>
<path d="M56.6488 71.0702V70.1794L56.712 70.337L55.6082 68.6717H55.9018L56.8718 70.1348H56.7157L57.6858 68.6717H57.9608L56.857 70.337L56.9201 70.1794V71.0702H56.6488Z" fill="url(#paint6_linear_1_3090)"/>
<path d="M59.0502 71.0908C58.8569 71.0908 58.6711 71.0622 58.4927 71.0051C58.3168 70.9457 58.1805 70.8704 58.0839 70.779L58.1917 70.5837C58.2833 70.6659 58.406 70.7356 58.5596 70.7927C58.7157 70.8475 58.8792 70.8749 59.0502 70.8749C59.2137 70.8749 59.3463 70.8567 59.4479 70.8201C59.5519 70.7813 59.6275 70.7299 59.6746 70.6659C59.7241 70.602 59.7489 70.5311 59.7489 70.4535C59.7489 70.3598 59.7192 70.2844 59.6597 70.2273C59.6027 70.1702 59.5272 70.1257 59.433 70.0937C59.3389 70.0594 59.2348 70.0297 59.1208 70.0046C59.0068 69.9795 58.8929 69.9532 58.7789 69.9258C58.6649 69.8961 58.5596 69.8573 58.463 69.8093C58.3688 69.7613 58.292 69.6985 58.2325 69.6208C58.1756 69.5409 58.1471 69.437 58.1471 69.309C58.1471 69.1903 58.1805 69.0817 58.2474 68.9835C58.3168 68.883 58.4221 68.8031 58.5633 68.7437C58.7046 68.682 58.8854 68.6512 59.1059 68.6512C59.2521 68.6512 59.3971 68.6706 59.5408 68.7094C59.6845 68.746 59.8084 68.7974 59.9125 68.8636L59.8195 69.0658C59.708 68.9972 59.5891 68.947 59.4627 68.915C59.3389 68.883 59.2187 68.867 59.1022 68.867C58.9461 68.867 58.8173 68.8864 58.7157 68.9253C58.6141 68.9641 58.5385 69.0166 58.489 69.0829C58.4419 69.1469 58.4184 69.2199 58.4184 69.3022C58.4184 69.3958 58.4469 69.4712 58.5039 69.5283C58.5633 69.5854 58.6401 69.63 58.7343 69.662C58.8309 69.6939 58.9362 69.7225 59.0502 69.7476C59.1642 69.7727 59.2769 69.8002 59.3884 69.8299C59.5024 69.8596 59.6065 69.8984 59.7006 69.9464C59.7972 69.992 59.874 70.0537 59.931 70.1314C59.9905 70.2091 60.0202 70.3107 60.0202 70.4363C60.0202 70.5528 59.9855 70.6613 59.9162 70.7619C59.8468 70.8601 59.7402 70.94 59.5965 71.0017C59.4553 71.0611 59.2732 71.0908 59.0502 71.0908Z" fill="url(#paint7_linear_1_3090)"/>
<path d="M60.6195 71.0702V68.6717H60.8945V71.0702H60.6195Z" fill="url(#paint8_linear_1_3090)"/>
<path d="M61.9863 69.7442H63.3614V69.9601H61.9863V69.7442ZM62.016 70.8509H63.5807V71.0702H61.741V68.6717H63.525V68.891H62.016V70.8509Z" fill="url(#paint9_linear_1_3090)"/>
<path d="M68.1476 71.0702V68.891H67.2333V68.6717H69.3369V68.891H68.4226V71.0702H68.1476Z" fill="url(#paint10_linear_1_3090)"/>
<path d="M69.7763 71.0702V68.6717H70.75C70.9706 68.6717 71.1601 68.7048 71.3187 68.7711C71.4773 68.835 71.5987 68.9287 71.6829 69.0521C71.7696 69.1731 71.813 69.3205 71.813 69.4941C71.813 69.6631 71.7696 69.8093 71.6829 69.9327C71.5987 70.0537 71.4773 70.1474 71.3187 70.2136C71.1601 70.2776 70.9706 70.3096 70.75 70.3096H69.9287L70.0513 70.1931V71.0702H69.7763ZM71.5528 71.0702L70.8838 70.1999H71.1812L71.8539 71.0702H71.5528ZM70.0513 70.2136L69.9287 70.0937H70.7426C71.0028 70.0937 71.1997 70.0412 71.3335 69.9361C71.4698 69.831 71.538 69.6837 71.538 69.4941C71.538 69.3022 71.4698 69.1537 71.3335 69.0486C71.1997 68.9435 71.0028 68.891 70.7426 68.891H69.9287L70.0513 68.7711V70.2136Z" fill="url(#paint11_linear_1_3090)"/>
<path d="M72.7074 69.7442H74.0826V69.9601H72.7074V69.7442ZM72.7371 70.8509H74.3018V71.0702H72.4621V68.6717H74.2461V68.891H72.7371V70.8509Z" fill="url(#paint12_linear_1_3090)"/>
<path d="M74.5321 71.0702L75.7214 68.6717H75.9927L77.182 71.0702H76.8921L75.7994 68.8191H75.9109L74.8182 71.0702H74.5321ZM75.0004 70.4295L75.0821 70.2239H76.5948L76.6765 70.4295H75.0004Z" fill="url(#paint13_linear_1_3090)"/>
<path d="M77.6124 71.0702V68.6717H77.8391L79.0284 70.5426H78.9095L80.0876 68.6717H80.3144V71.0702H80.0505V69.0521H80.1137L79.0284 70.7653H78.8983L77.8056 69.0521H77.8763V71.0702H77.6124Z" fill="url(#paint14_linear_1_3090)"/>
<path d="M81.4073 69.7442H82.7825V69.9601H81.4073V69.7442ZM81.4371 70.8509H83.0018V71.0702H81.162V68.6717H82.946V68.891H81.4371V70.8509Z" fill="url(#paint15_linear_1_3090)"/>
<path d="M83.6482 71.0702V68.6717H84.622C84.8425 68.6717 85.0321 68.7048 85.1906 68.7711C85.3492 68.835 85.4706 68.9287 85.5549 69.0521C85.6416 69.1731 85.6849 69.3205 85.6849 69.4941C85.6849 69.6631 85.6416 69.8093 85.5549 69.9327C85.4706 70.0537 85.3492 70.1474 85.1906 70.2136C85.0321 70.2776 84.8425 70.3096 84.622 70.3096H83.8006L83.9233 70.1931V71.0702H83.6482ZM85.4248 71.0702L84.7558 70.1999H85.0531L85.7258 71.0702H85.4248ZM83.9233 70.2136L83.8006 70.0937H84.6146C84.8747 70.0937 85.0717 70.0412 85.2055 69.9361C85.3418 69.831 85.4099 69.6837 85.4099 69.4941C85.4099 69.3022 85.3418 69.1537 85.2055 69.0486C85.0717 68.9435 84.8747 68.891 84.6146 68.891H83.8006L83.9233 68.7711V70.2136Z" fill="url(#paint16_linear_1_3090)"/>
<path d="M87.0514 71.0908C86.8581 71.0908 86.6723 71.0622 86.4939 71.0051C86.318 70.9457 86.1817 70.8704 86.0851 70.779L86.1928 70.5837C86.2845 70.6659 86.4072 70.7356 86.5608 70.7927C86.7169 70.8475 86.8804 70.8749 87.0514 70.8749C87.2149 70.8749 87.3475 70.8567 87.4491 70.8201C87.5531 70.7813 87.6287 70.7299 87.6758 70.6659C87.7253 70.602 87.7501 70.5311 87.7501 70.4535C87.7501 70.3598 87.7204 70.2844 87.6609 70.2273C87.6039 70.1702 87.5283 70.1257 87.4342 70.0937C87.34 70.0594 87.236 70.0297 87.122 70.0046C87.008 69.9795 86.894 69.9532 86.7801 69.9258C86.6661 69.8961 86.5608 69.8573 86.4642 69.8093C86.37 69.7613 86.2932 69.6985 86.2337 69.6208C86.1767 69.5409 86.1482 69.437 86.1482 69.309C86.1482 69.1903 86.1817 69.0817 86.2486 68.9835C86.318 68.883 86.4233 68.8031 86.5645 68.7437C86.7057 68.682 86.8866 68.6512 87.1071 68.6512C87.2533 68.6512 87.3983 68.6706 87.542 68.7094C87.6857 68.746 87.8096 68.7974 87.9136 68.8636L87.8207 69.0658C87.7092 68.9972 87.5903 68.947 87.4639 68.915C87.34 68.883 87.2199 68.867 87.1034 68.867C86.9473 68.867 86.8185 68.8864 86.7169 68.9253C86.6153 68.9641 86.5397 69.0166 86.4902 69.0829C86.4431 69.1469 86.4196 69.2199 86.4196 69.3022C86.4196 69.3958 86.448 69.4712 86.505 69.5283C86.5645 69.5854 86.6413 69.63 86.7355 69.662C86.8321 69.6939 86.9374 69.7225 87.0514 69.7476C87.1654 69.7727 87.2781 69.8002 87.3896 69.8299C87.5036 69.8596 87.6076 69.8984 87.7018 69.9464C87.7984 69.992 87.8752 70.0537 87.9322 70.1314C87.9917 70.2091 88.0214 70.3107 88.0214 70.4363C88.0214 70.5528 87.9867 70.6613 87.9173 70.7619C87.848 70.8601 87.7414 70.94 87.5977 71.0017C87.4565 71.0611 87.2744 71.0908 87.0514 71.0908Z" fill="url(#paint17_linear_1_3090)"/>
<path d="M50.7871 74.959V72.5604H51.3892V74.959H50.7871Z" fill="url(#paint18_linear_1_3090)"/>
<path d="M52.0062 74.959V72.5604H52.5042L54.0392 74.2874H53.7976V72.5604H54.3923V74.959H53.8979L52.3593 73.232H52.6009V74.959H52.0062Z" fill="url(#paint19_linear_1_3090)"/>
<path d="M55.7774 74.959L54.655 72.5604H55.3054L56.2866 74.6848H55.9038L56.8998 72.5604H57.4982L56.372 74.959H55.7774Z" fill="url(#paint20_linear_1_3090)"/>
<path d="M57.7154 74.959V72.5604H58.3175V74.959H57.7154Z" fill="url(#paint21_linear_1_3090)"/>
<path d="M59.4738 74.959V73.0127H58.6413V72.5604H60.9084V73.0127H60.0759V74.959H59.4738Z" fill="url(#paint22_linear_1_3090)"/>
<path d="M60.7598 74.959L61.9194 72.5604H62.514L63.6773 74.959H63.0455L62.0941 72.8414H62.3319L61.3768 74.959H60.7598ZM61.3396 74.445L61.4994 74.0235H62.8374L63.0009 74.445H61.3396Z" fill="url(#paint23_linear_1_3090)"/>
<path d="M64.3555 74.959V73.0127H63.523V72.5604H65.7901V73.0127H64.9576V74.959H64.3555Z" fill="url(#paint24_linear_1_3090)"/>
<path d="M66.1141 74.959V72.5604H66.7162V74.959H66.1141Z" fill="url(#paint25_linear_1_3090)"/>
<path d="M68.5972 75.0001C68.3916 75.0001 68.2008 74.9692 68.0249 74.9076C67.8514 74.8459 67.7003 74.7591 67.5714 74.6471C67.4451 74.5352 67.346 74.4039 67.2741 74.2531C67.2047 74.1023 67.17 73.9379 67.17 73.7597C67.17 73.5815 67.2047 73.417 67.2741 73.2663C67.346 73.1155 67.4463 72.9842 67.5752 72.8722C67.704 72.7603 67.8551 72.6735 68.0286 72.6118C68.202 72.5502 68.3903 72.5193 68.5935 72.5193C68.7992 72.5193 68.9875 72.5502 69.1584 72.6118C69.3319 72.6735 69.4818 72.7603 69.6081 72.8722C69.737 72.9842 69.8373 73.1155 69.9092 73.2663C69.981 73.4148 70.017 73.5792 70.017 73.7597C70.017 73.9379 69.981 74.1035 69.9092 74.2565C69.8373 74.4073 69.737 74.5386 69.6081 74.6506C69.4818 74.7602 69.3319 74.8459 69.1584 74.9076C68.9875 74.9692 68.8004 75.0001 68.5972 75.0001ZM68.5935 74.5272C68.71 74.5272 68.8165 74.5089 68.9131 74.4724C69.0122 74.4358 69.099 74.3833 69.1733 74.3148C69.2476 74.2463 69.3046 74.1652 69.3443 74.0715C69.3864 73.9778 69.4074 73.8739 69.4074 73.7597C69.4074 73.6455 69.3864 73.5415 69.3443 73.4479C69.3046 73.3542 69.2476 73.2731 69.1733 73.2046C69.1014 73.1361 69.016 73.0835 68.9169 73.047C68.8177 73.0104 68.71 72.9922 68.5935 72.9922C68.4771 72.9922 68.3693 73.0104 68.2702 73.047C68.1735 73.0835 68.0881 73.1361 68.0137 73.2046C67.9394 73.2731 67.8812 73.3542 67.839 73.4479C67.7994 73.5415 67.7796 73.6455 67.7796 73.7597C67.7796 73.8716 67.7994 73.9756 67.839 74.0715C67.8812 74.1652 67.9381 74.2463 68.01 74.3148C68.0843 74.3833 68.1711 74.4358 68.2702 74.4724C68.3693 74.5089 68.4771 74.5272 68.5935 74.5272Z" fill="url(#paint26_linear_1_3090)"/>
<path d="M70.4695 74.959V72.5604H70.9675L72.5025 74.2874H72.2609V72.5604H72.8555V74.959H72.3612L70.8225 73.232H71.0641V74.959H70.4695Z" fill="url(#paint27_linear_1_3090)"/>
<path d="M73.1291 74.959L74.2887 72.5604H74.8834L76.0467 74.959H75.4149L74.4634 72.8414H74.7013L73.7461 74.959H73.1291ZM73.7089 74.445L73.8687 74.0235H75.2067L75.3703 74.445H73.7089Z" fill="url(#paint28_linear_1_3090)"/>
<path d="M76.3166 74.959V72.5604H76.9187V74.5067H78.2232V74.959H76.3166Z" fill="url(#paint29_linear_1_3090)"/>
<path d="M78.3027 59.8226C79.7081 59.8226 80.7765 60.0622 81.5078 60.5416C82.2391 61.0209 82.6047 61.7452 82.6047 62.7143C82.6047 63.2516 82.5133 63.7361 82.3305 64.1681C82.1477 64.6 81.8563 64.9634 81.4564 65.2584C81.0564 65.5534 80.5451 65.7798 79.9224 65.9379C79.2996 66.0959 78.554 66.1749 77.6857 66.1749H67.0076L69.2872 63.457H77.9599C78.3827 63.457 78.6913 63.3965 78.8855 63.2753C79.0797 63.1542 79.1769 62.9567 79.1769 62.6828C79.1769 62.4089 79.0797 62.214 78.8855 62.0982C78.6913 61.9823 78.3827 61.9243 77.9599 61.9243H71.7211C70.9783 61.9243 70.3385 61.8506 69.8014 61.7031C69.2644 61.5556 68.8187 61.3502 68.4645 61.0868C68.1103 60.8235 67.8475 60.5048 67.6761 60.1308C67.5047 59.7568 67.419 59.3433 67.419 58.8904C67.419 58.3953 67.5133 57.9449 67.7017 57.5393C67.8903 57.1337 68.1817 56.7887 68.5759 56.5043C68.9701 56.2199 69.4786 55.9987 70.1013 55.8407C70.7241 55.6827 71.4697 55.6037 72.338 55.6037H82.2963L80.0167 58.3532H72.0638C71.6525 58.3532 71.3468 58.4059 71.1468 58.5112C70.9469 58.6165 70.8469 58.8062 70.8469 59.08C70.8469 59.3539 70.9469 59.5462 71.1468 59.6568C71.3468 59.7674 71.6525 59.8227 72.0638 59.8227H78.3027L78.3027 59.8226Z" fill="url(#paint30_linear_1_3090)"/>
<path d="M88.2102 66.1748H84.6622V55.6035H88.2102V66.1748Z" fill="url(#paint31_linear_1_3090)"/>
<path d="M54.3934 55.6035H50.8283V66.1748H54.3934V55.6035Z" fill="url(#paint32_linear_1_3090)"/>
<path fill-rule="evenodd" clip-rule="evenodd" d="M66.6714 55.6035L59.3185 60.581L67.0828 66.1748H61.718L55.0577 60.7839L61.5295 55.6035H66.6714Z" fill="url(#paint33_linear_1_3090)"/>
<path fill-rule="evenodd" clip-rule="evenodd" d="M75.2635 46.8326H76.2926V0H64.373V9.85491V46.8326H75.2635Z" fill="url(#paint34_linear_1_3090)"/>
<path fill-rule="evenodd" clip-rule="evenodd" d="M95.2233 46.8326H96.2547V0H84.3352V9.85491V46.8326H95.2233Z" fill="url(#paint35_linear_1_3090)"/>
<defs>
<linearGradient id="paint0_linear_1_3090" x1="20.8568" y1="9.43335" x2="20.8568" y2="68.0944" gradientUnits="userSpaceOnUse">
<stop stop-color="#D3A15C"/>
<stop offset="1" stop-color="#8D5B29"/>
</linearGradient>
<linearGradient id="paint1_linear_1_3090" x1="118.344" y1="9.05176" x2="118.344" y2="67.708" gradientUnits="userSpaceOnUse">
<stop stop-color="#D3A15C"/>
<stop offset="1" stop-color="#8D5B29"/>
</linearGradient>
<linearGradient id="paint2_linear_1_3090" x1="50.3738" y1="0" x2="50.3738" y2="46.8326" gradientUnits="userSpaceOnUse">
<stop stop-color="#D3A15C"/>
<stop offset="1" stop-color="#8D5B29"/>
</linearGradient>
<linearGradient id="paint3_linear_1_3090" x1="69.4986" y1="55.6035" x2="69.4986" y2="75.0001" gradientUnits="userSpaceOnUse">
<stop stop-color="#D2A05B"/>
<stop offset="1" stop-color="#8E5C2A"/>
</linearGradient>
<linearGradient id="paint4_linear_1_3090" x1="69.4986" y1="55.6035" x2="69.4986" y2="75.0001" gradientUnits="userSpaceOnUse">
<stop stop-color="#D2A05B"/>
<stop offset="1" stop-color="#8E5C2A"/>
</linearGradient>
<linearGradient id="paint5_linear_1_3090" x1="69.4986" y1="55.6035" x2="69.4986" y2="75.0001" gradientUnits="userSpaceOnUse">
<stop stop-color="#D2A05B"/>
<stop offset="1" stop-color="#8E5C2A"/>
</linearGradient>
<linearGradient id="paint6_linear_1_3090" x1="69.4986" y1="55.6035" x2="69.4986" y2="75.0001" gradientUnits="userSpaceOnUse">
<stop stop-color="#D2A05B"/>
<stop offset="1" stop-color="#8E5C2A"/>
</linearGradient>
<linearGradient id="paint7_linear_1_3090" x1="69.4986" y1="55.6035" x2="69.4986" y2="75.0001" gradientUnits="userSpaceOnUse">
<stop stop-color="#D2A05B"/>
<stop offset="1" stop-color="#8E5C2A"/>
</linearGradient>
<linearGradient id="paint8_linear_1_3090" x1="69.4986" y1="55.6035" x2="69.4986" y2="75.0001" gradientUnits="userSpaceOnUse">
<stop stop-color="#D2A05B"/>
<stop offset="1" stop-color="#8E5C2A"/>
</linearGradient>
<linearGradient id="paint9_linear_1_3090" x1="69.4986" y1="55.6035" x2="69.4986" y2="75.0001" gradientUnits="userSpaceOnUse">
<stop stop-color="#D2A05B"/>
<stop offset="1" stop-color="#8E5C2A"/>
</linearGradient>
<linearGradient id="paint10_linear_1_3090" x1="69.4986" y1="55.6035" x2="69.4986" y2="75.0001" gradientUnits="userSpaceOnUse">
<stop stop-color="#D2A05B"/>
<stop offset="1" stop-color="#8E5C2A"/>
</linearGradient>
<linearGradient id="paint11_linear_1_3090" x1="69.4986" y1="55.6035" x2="69.4986" y2="75.0001" gradientUnits="userSpaceOnUse">
<stop stop-color="#D2A05B"/>
<stop offset="1" stop-color="#8E5C2A"/>
</linearGradient>
<linearGradient id="paint12_linear_1_3090" x1="69.4986" y1="55.6035" x2="69.4986" y2="75.0001" gradientUnits="userSpaceOnUse">
<stop stop-color="#D2A05B"/>
<stop offset="1" stop-color="#8E5C2A"/>
</linearGradient>
<linearGradient id="paint13_linear_1_3090" x1="69.4986" y1="55.6035" x2="69.4986" y2="75.0001" gradientUnits="userSpaceOnUse">
<stop stop-color="#D2A05B"/>
<stop offset="1" stop-color="#8E5C2A"/>
</linearGradient>
<linearGradient id="paint14_linear_1_3090" x1="69.4986" y1="55.6035" x2="69.4986" y2="75.0001" gradientUnits="userSpaceOnUse">
<stop stop-color="#D2A05B"/>
<stop offset="1" stop-color="#8E5C2A"/>
</linearGradient>
<linearGradient id="paint15_linear_1_3090" x1="69.4986" y1="55.6035" x2="69.4986" y2="75.0001" gradientUnits="userSpaceOnUse">
<stop stop-color="#D2A05B"/>
<stop offset="1" stop-color="#8E5C2A"/>
</linearGradient>
<linearGradient id="paint16_linear_1_3090" x1="69.4986" y1="55.6035" x2="69.4986" y2="75.0001" gradientUnits="userSpaceOnUse">
<stop stop-color="#D2A05B"/>
<stop offset="1" stop-color="#8E5C2A"/>
</linearGradient>
<linearGradient id="paint17_linear_1_3090" x1="69.4986" y1="55.6035" x2="69.4986" y2="75.0001" gradientUnits="userSpaceOnUse">
<stop stop-color="#D2A05B"/>
<stop offset="1" stop-color="#8E5C2A"/>
</linearGradient>
<linearGradient id="paint18_linear_1_3090" x1="69.4986" y1="55.6035" x2="69.4986" y2="75.0001" gradientUnits="userSpaceOnUse">
<stop stop-color="#D2A05B"/>
<stop offset="1" stop-color="#8E5C2A"/>
</linearGradient>
<linearGradient id="paint19_linear_1_3090" x1="69.4986" y1="55.6035" x2="69.4986" y2="75.0001" gradientUnits="userSpaceOnUse">
<stop stop-color="#D2A05B"/>
<stop offset="1" stop-color="#8E5C2A"/>
</linearGradient>
<linearGradient id="paint20_linear_1_3090" x1="69.4986" y1="55.6035" x2="69.4986" y2="75.0001" gradientUnits="userSpaceOnUse">
<stop stop-color="#D2A05B"/>
<stop offset="1" stop-color="#8E5C2A"/>
</linearGradient>
<linearGradient id="paint21_linear_1_3090" x1="69.4986" y1="55.6035" x2="69.4986" y2="75.0001" gradientUnits="userSpaceOnUse">
<stop stop-color="#D2A05B"/>
<stop offset="1" stop-color="#8E5C2A"/>
</linearGradient>
<linearGradient id="paint22_linear_1_3090" x1="69.4986" y1="55.6035" x2="69.4986" y2="75.0001" gradientUnits="userSpaceOnUse">
<stop stop-color="#D2A05B"/>
<stop offset="1" stop-color="#8E5C2A"/>
</linearGradient>
<linearGradient id="paint23_linear_1_3090" x1="69.4986" y1="55.6035" x2="69.4986" y2="75.0001" gradientUnits="userSpaceOnUse">
<stop stop-color="#D2A05B"/>
<stop offset="1" stop-color="#8E5C2A"/>
</linearGradient>
<linearGradient id="paint24_linear_1_3090" x1="69.4986" y1="55.6035" x2="69.4986" y2="75.0001" gradientUnits="userSpaceOnUse">
<stop stop-color="#D2A05B"/>
<stop offset="1" stop-color="#8E5C2A"/>
</linearGradient>
<linearGradient id="paint25_linear_1_3090" x1="69.4986" y1="55.6035" x2="69.4986" y2="75.0001" gradientUnits="userSpaceOnUse">
<stop stop-color="#D2A05B"/>
<stop offset="1" stop-color="#8E5C2A"/>
</linearGradient>
<linearGradient id="paint26_linear_1_3090" x1="69.4986" y1="55.6035" x2="69.4986" y2="75.0001" gradientUnits="userSpaceOnUse">
<stop stop-color="#D2A05B"/>
<stop offset="1" stop-color="#8E5C2A"/>
</linearGradient>
<linearGradient id="paint27_linear_1_3090" x1="69.4986" y1="55.6035" x2="69.4986" y2="75.0001" gradientUnits="userSpaceOnUse">
<stop stop-color="#D2A05B"/>
<stop offset="1" stop-color="#8E5C2A"/>
</linearGradient>
<linearGradient id="paint28_linear_1_3090" x1="69.4986" y1="55.6035" x2="69.4986" y2="75.0001" gradientUnits="userSpaceOnUse">
<stop stop-color="#D2A05B"/>
<stop offset="1" stop-color="#8E5C2A"/>
</linearGradient>
<linearGradient id="paint29_linear_1_3090" x1="69.4986" y1="55.6035" x2="69.4986" y2="75.0001" gradientUnits="userSpaceOnUse">
<stop stop-color="#D2A05B"/>
<stop offset="1" stop-color="#8E5C2A"/>
</linearGradient>
<linearGradient id="paint30_linear_1_3090" x1="69.4986" y1="55.6035" x2="69.4986" y2="75.0001" gradientUnits="userSpaceOnUse">
<stop stop-color="#D2A05B"/>
<stop offset="1" stop-color="#8E5C2A"/>
</linearGradient>
<linearGradient id="paint31_linear_1_3090" x1="69.4986" y1="55.6035" x2="69.4986" y2="75.0001" gradientUnits="userSpaceOnUse">
<stop stop-color="#D2A05B"/>
<stop offset="1" stop-color="#8E5C2A"/>
</linearGradient>
<linearGradient id="paint32_linear_1_3090" x1="69.4986" y1="55.6035" x2="69.4986" y2="75.0001" gradientUnits="userSpaceOnUse">
<stop stop-color="#D2A05B"/>
<stop offset="1" stop-color="#8E5C2A"/>
</linearGradient>
<linearGradient id="paint33_linear_1_3090" x1="69.4986" y1="55.6035" x2="69.4986" y2="75.0001" gradientUnits="userSpaceOnUse">
<stop stop-color="#D2A05B"/>
<stop offset="1" stop-color="#8E5C2A"/>
</linearGradient>
<linearGradient id="paint34_linear_1_3090" x1="70.3328" y1="0" x2="70.3328" y2="46.8326" gradientUnits="userSpaceOnUse">
<stop stop-color="#D3A15C"/>
<stop offset="1" stop-color="#8D5B29"/>
</linearGradient>
<linearGradient id="paint35_linear_1_3090" x1="90.295" y1="0" x2="90.295" y2="46.8326" gradientUnits="userSpaceOnUse">
<stop stop-color="#D3A15C"/>
<stop offset="1" stop-color="#8D5B29"/>
</linearGradient>
</defs>
</svg>
