<svg width="173" height="94" viewBox="0 0 173 94" fill="none" xmlns="http://www.w3.org/2000/svg">
<path d="M2.25823 71.0911L2.20876 69.6911L9.15273 62.9092H10.5444L5.48435 67.9488L4.7965 68.6485L2.25823 71.0911ZM1.20996 73.7973V62.9092H2.42196V73.7973H1.20996ZM9.44721 73.7973L4.50144 68.3844L5.32062 67.5443L10.8883 73.7973H9.44721Z" fill="url(#paint0_linear_1_58)"/>
<path d="M70.7642 73.7973C69.9189 73.7973 69.1065 73.6697 68.3261 73.4152C67.5569 73.1503 66.9607 72.8139 66.5381 72.4058L67.0098 71.5344C67.4108 71.9014 67.9468 72.2119 68.619 72.467C69.3017 72.7117 70.0166 72.8341 70.7642 72.8341C71.4796 72.8341 72.0595 72.7527 72.5037 72.5894C72.9585 72.4162 73.2893 72.1865 73.495 71.9014C73.7119 71.6158 73.82 71.2995 73.82 70.9532C73.82 70.5348 73.6903 70.1983 73.4302 69.9438C73.1806 69.6887 72.8503 69.4902 72.4388 69.3471C72.0267 69.1941 71.572 69.062 71.0734 68.9494C70.5748 68.8374 70.0762 68.7203 69.5776 68.598C69.0796 68.4652 68.619 68.2921 68.1964 68.078C67.7843 67.8638 67.4488 67.5833 67.1887 67.2371C66.9391 66.8798 66.8146 66.4164 66.8146 65.845C66.8146 65.3152 66.9607 64.831 67.2536 64.3924C67.5569 63.944 68.0175 63.5873 68.6354 63.3218C69.2526 63.0466 70.044 62.9092 71.0085 62.9092C71.6474 62.9092 72.2816 62.9958 72.9099 63.1689C73.5383 63.3322 74.0802 63.5614 74.5355 63.8574L74.1293 64.7595C73.6412 64.4536 73.1215 64.2291 72.5686 64.0865C72.0267 63.944 71.5012 63.8724 70.9921 63.8724C70.3094 63.8724 69.7459 63.959 69.3017 64.1327C68.8575 64.3058 68.5266 64.5402 68.3098 64.8356C68.104 65.1213 68.0011 65.4474 68.0011 65.8145C68.0011 66.2329 68.1256 66.5693 68.3752 66.8239C68.6353 67.0789 68.9709 67.2775 69.383 67.4206C69.8056 67.5631 70.2661 67.6907 70.7642 67.8027C71.2628 67.9146 71.7561 68.037 72.2436 68.1697C72.7422 68.3025 73.1969 68.4756 73.609 68.6897C74.0316 68.8934 74.3672 69.1687 74.6167 69.5156C74.8769 69.8619 75.0066 70.3161 75.0066 70.8764C75.0066 71.3964 74.8552 71.8807 74.5519 72.3291C74.2485 72.7677 73.782 73.1244 73.1537 73.3997C72.5358 73.6651 71.7397 73.7973 70.7642 73.7973Z" fill="url(#paint1_linear_1_58)"/>
<path d="M14.4365 67.778H20.7666V68.7577H14.4365V67.778ZM14.5737 72.8017H21.7761V73.7973H13.3076V62.9092H21.5196V63.9048H14.5737V72.8017Z" fill="url(#paint2_linear_1_58)"/>
<path d="M27.8029 73.7973V69.7533L28.0948 70.4689L22.9863 62.9092H24.3453L28.8346 69.5508H28.1121L32.6015 62.9092H33.8744L28.7659 70.4689L29.0579 69.7533V73.7973H27.8029Z" fill="url(#paint3_linear_1_58)"/>
<path d="M38.1004 73.7973C37.2551 73.7973 36.442 73.6697 35.6616 73.4152C34.8923 73.1503 34.2967 72.8139 33.874 72.4058L34.3452 71.5344C34.7462 71.9014 35.2828 72.2119 35.9545 72.467C36.6372 72.7117 37.3522 72.8341 38.1004 72.8341C38.8153 72.8341 39.3952 72.7527 39.8395 72.5894C40.2948 72.4162 40.6251 72.1865 40.8309 71.9014C41.0478 71.6158 41.1559 71.2995 41.1559 70.9532C41.1559 70.5348 41.0261 70.1983 40.766 69.9438C40.517 69.6887 40.1861 69.4902 39.7746 69.3471C39.3625 69.1941 38.9077 69.062 38.409 68.9494C37.9104 68.8374 37.4118 68.7203 36.9137 68.598C36.4151 68.4652 35.9545 68.2921 35.5318 68.078C35.1203 67.8638 34.7842 67.5833 34.5241 67.2371C34.2745 66.8798 34.1499 66.4164 34.1499 65.845C34.1499 65.3152 34.2967 64.831 34.5889 64.3924C34.8923 63.944 35.353 63.5873 35.9708 63.3218C36.5881 63.0466 37.3796 62.9092 38.3442 62.9092C38.9831 62.9092 39.6173 62.9958 40.2457 63.1689C40.8741 63.3322 41.416 63.5614 41.8714 63.8574L41.4651 64.7595C40.9776 64.4536 40.4574 64.2291 39.9044 64.0865C39.3625 63.944 38.837 63.8724 38.3278 63.8724C37.645 63.8724 37.0815 63.959 36.6373 64.1327C36.193 64.3058 35.8621 64.5402 35.6458 64.8356C35.4395 65.1213 35.3366 65.4474 35.3366 65.8145C35.3366 66.2329 35.4611 66.5693 35.7107 66.8239C35.9709 67.0789 36.3064 67.2775 36.7185 67.4206C37.1411 67.5631 37.6018 67.6907 38.1004 67.8027C38.5984 67.9146 39.0918 68.037 39.5793 68.1697C40.078 68.3025 40.5328 68.4756 40.9449 68.6897C41.3675 68.8934 41.7036 69.1687 41.9527 69.5156C42.2128 69.8619 42.3426 70.3161 42.3426 70.8764C42.3426 71.3964 42.1911 71.8807 41.8878 72.3291C41.5844 72.7677 41.1185 73.1244 40.4895 73.3997C39.8722 73.6651 39.0754 73.7973 38.1004 73.7973Z" fill="url(#paint4_linear_1_58)"/>
<path d="M45.9717 73.7973V62.9092H47.1815V73.7973H45.9717Z" fill="url(#paint5_linear_1_58)"/>
<path d="M51.9404 67.778H58.2705V68.7577H51.9404V67.778ZM52.0776 72.8017H59.2801V73.7973H50.8115V62.9092H59.0235V63.9048H52.0776V72.8017Z" fill="url(#paint6_linear_1_58)"/>
<path d="M80.4229 73.7973V63.9048H76.2168V62.9092H85.8951V63.9048H81.6884V73.7973H80.4229Z" fill="url(#paint7_linear_1_58)"/>
<path d="M88.3145 73.7973V62.9092H92.2837C93.1826 62.9092 93.9551 63.0595 94.6017 63.36C95.2478 63.6506 95.7425 64.0756 96.0862 64.6356C96.4398 65.1851 96.6163 65.8543 96.6163 66.6421C96.6163 67.4093 96.4398 68.0732 96.0862 68.6333C95.7425 69.1827 95.2478 69.6083 94.6017 69.9089C93.9551 70.1988 93.1826 70.3444 92.2837 70.3444H88.9355L89.4356 69.8155V73.7973H88.3145ZM95.5556 73.7973L92.829 69.8466H94.0411L96.783 73.7973H95.5556ZM89.4356 69.9089L88.9355 69.3641H92.2532C93.3139 69.3641 94.1168 69.1258 94.6622 68.6485C95.2173 68.1719 95.4951 67.5026 95.4951 66.6421C95.4951 65.7709 95.2173 65.097 94.6622 64.6204C94.1168 64.1431 93.3139 63.9048 92.2532 63.9048H88.9355L89.4356 63.36V69.9089Z" fill="url(#paint8_linear_1_58)"/>
<path d="M101.541 67.778H107.871V68.7577H101.541V67.778ZM101.678 72.8017H108.881V73.7973H100.412V62.9092H108.624V63.9048H101.678V72.8017Z" fill="url(#paint9_linear_1_58)"/>
<path d="M110.091 73.7973L115.521 62.9092H116.759L122.189 73.7973H120.865L115.877 63.5778H116.386L111.397 73.7973H110.091ZM112.229 70.8886L112.602 69.9552H119.508L119.881 70.8886H112.229Z" fill="url(#paint10_linear_1_58)"/>
<path d="M123.398 73.7973V62.9092H124.515L130.373 71.4022H129.787L135.59 62.9092H136.706V73.7973H135.407V64.6356H135.718L130.373 72.4131H129.732L124.35 64.6356H124.699V73.7973H123.398Z" fill="url(#paint11_linear_1_58)"/>
<path d="M141.465 67.778H147.795V68.7577H141.465V67.778ZM141.602 72.8017H148.804V73.7973H140.336V62.9092H148.547V63.9048H141.602V72.8017Z" fill="url(#paint12_linear_1_58)"/>
<path d="M151.224 73.7973V62.9092H155.76C156.787 62.9092 157.67 63.0595 158.409 63.36C159.147 63.6506 159.713 64.0756 160.106 64.6356C160.51 65.1851 160.711 65.8543 160.711 66.6421C160.711 67.4093 160.51 68.0732 160.106 68.6333C159.713 69.1827 159.147 69.6083 158.409 69.9089C157.67 70.1988 156.787 70.3444 155.76 70.3444H151.933L152.504 69.8155V73.7973H151.224ZM159.5 73.7973L156.383 69.8466H157.768L160.902 73.7973H159.5ZM152.504 69.9089L151.933 69.3641H155.725C156.937 69.3641 157.855 69.1258 158.478 68.6485C159.113 68.1719 159.43 67.5026 159.43 66.6421C159.43 65.7709 159.113 65.097 158.478 64.6204C157.855 64.1431 156.937 63.9048 155.725 63.9048H151.933L152.504 63.36V69.9089Z" fill="url(#paint13_linear_1_58)"/>
<path d="M167.547 73.7973C166.702 73.7973 165.89 73.6697 165.109 73.4152C164.34 73.1503 163.744 72.8139 163.321 72.4058L163.792 71.5344C164.193 71.9014 164.73 72.2119 165.402 72.467C166.084 72.7117 166.8 72.8341 167.547 72.8341C168.262 72.8341 168.842 72.7527 169.286 72.5894C169.742 72.4162 170.072 72.1865 170.278 71.9014C170.494 71.6158 170.603 71.2995 170.603 70.9532C170.603 70.5348 170.473 70.1983 170.213 69.9438C169.964 69.6887 169.634 69.4902 169.221 69.3471C168.81 69.1941 168.355 69.062 167.856 68.9494C167.357 68.8374 166.859 68.7203 166.361 68.598C165.862 68.4652 165.402 68.2921 164.979 68.078C164.567 67.8638 164.231 67.5833 163.971 67.2371C163.722 66.8798 163.598 66.4164 163.598 65.845C163.598 65.3152 163.744 64.831 164.036 64.3924C164.34 63.944 164.8 63.5873 165.418 63.3218C166.036 63.0466 166.827 62.9092 167.791 62.9092C168.431 62.9092 169.064 62.9958 169.693 63.1689C170.321 63.3322 170.863 63.5614 171.318 63.8574L170.912 64.7595C170.424 64.4536 169.904 64.2291 169.352 64.0865C168.81 63.944 168.284 63.8724 167.775 63.8724C167.092 63.8724 166.529 63.959 166.084 64.1327C165.64 64.3058 165.31 64.5402 165.093 64.8356C164.887 65.1213 164.784 65.4474 164.784 65.8145C164.784 66.2329 164.909 66.5693 165.158 66.8239C165.418 67.0789 165.754 67.2775 166.166 67.4206C166.588 67.5631 167.049 67.6907 167.547 67.8027C168.046 67.9146 168.539 68.037 169.026 68.1697C169.525 68.3025 169.98 68.4756 170.392 68.6897C170.814 68.8934 171.15 69.1687 171.399 69.5156C171.659 69.8619 171.79 70.3161 171.79 70.8764C171.79 71.3964 171.638 71.8807 171.334 72.3291C171.031 72.7677 170.565 73.1244 169.937 73.3997C169.319 73.6651 168.522 73.7973 167.547 73.7973Z" fill="url(#paint14_linear_1_58)"/>
<path d="M0 93.1538V81.0559H3.62937V93.1538H0Z" fill="url(#paint15_linear_1_58)"/>
<path d="M6.04883 93.1538V81.0559H8.32121L15.3257 89.7662H14.2236V81.0559H16.9369V93.1538H14.681L7.66011 84.4435H8.76215V93.1538H6.04883Z" fill="url(#paint16_linear_1_58)"/>
<path d="M23.4 93.1538L18.1465 81.0559H21.1911L25.7834 91.7711H23.9918L28.6535 81.0559H31.4542L26.1838 93.1538H23.4Z" fill="url(#paint17_linear_1_58)"/>
<path d="M32.6641 93.1538V81.0559H35.0836V93.1538H32.6641Z" fill="url(#paint18_linear_1_58)"/>
<path d="M40.2922 93.1538V83.3374H36.2939V81.0559H47.1821V83.3374H43.1838V93.1538H40.2922Z" fill="url(#paint19_linear_1_58)"/>
<path d="M45.9717 93.1538L51.2609 81.0559H53.9731L59.2794 93.1538H56.3976L52.0576 82.4732H53.1428L48.7857 93.1538H45.9717ZM48.6163 90.5613L49.3454 88.4357H55.4478L56.194 90.5613H48.6163Z" fill="url(#paint20_linear_1_58)"/>
<path d="M62.8333 93.1538V83.3374H59.2793V81.0559H68.9576V83.3374H65.4036V93.1538H62.8333Z" fill="url(#paint21_linear_1_58)"/>
<path d="M71.3779 93.1538V81.0559H73.7975V93.1538H71.3779Z" fill="url(#paint22_linear_1_58)"/>
<path d="M82.8884 93.1538C81.927 93.1538 81.0348 93.0037 80.2127 92.7029C79.4024 92.4021 78.6958 91.9783 78.0935 91.4328C77.5025 90.8867 77.0396 90.246 76.7035 89.5107C76.3792 88.776 76.2168 87.9738 76.2168 87.1048C76.2168 86.2358 76.3792 85.4337 76.7035 84.6984C77.0396 83.9631 77.5081 83.3224 78.111 82.7769C78.7133 82.2308 79.4192 81.8076 80.2302 81.5068C81.0411 81.206 81.9213 81.0559 82.871 81.0559C83.8324 81.0559 84.7121 81.206 85.5117 81.5068C86.322 81.8076 87.023 82.2308 87.6134 82.7769C88.2157 83.3224 88.6848 83.9631 89.021 84.6984C89.3565 85.4223 89.5245 86.2245 89.5245 87.1048C89.5245 87.9738 89.3565 88.7811 89.021 89.5277C88.6848 90.263 88.2157 90.9037 87.6134 91.4492C87.023 91.984 86.322 92.4021 85.5117 92.7029C84.7121 93.0037 83.8381 93.1538 82.8884 93.1538ZM82.871 90.8476C83.4151 90.8476 83.913 90.7587 84.3647 90.5802C84.8283 90.4024 85.2337 90.1457 85.5811 89.8115C85.9285 89.4773 86.1946 89.0819 86.3801 88.6253C86.5769 88.1687 86.6757 87.6617 86.6757 87.1048C86.6757 86.548 86.5769 86.041 86.3801 85.5838C86.1946 85.1272 85.9285 84.7318 85.5811 84.3976C85.245 84.0634 84.8458 83.8073 84.3822 83.6289C83.9193 83.451 83.4151 83.3615 82.871 83.3615C82.3268 83.3615 81.8226 83.451 81.3597 83.6289C80.908 83.8073 80.5082 84.0634 80.1608 84.3976C79.8134 84.7318 79.5411 85.1272 79.3443 85.5838C79.1587 86.041 79.0662 86.548 79.0662 87.1048C79.0662 87.6503 79.1587 88.1574 79.3443 88.6253C79.5411 89.0819 79.8072 89.4773 80.1433 89.8115C80.4907 90.1457 80.8961 90.4024 81.3597 90.5802C81.8226 90.7587 82.3268 90.8476 82.871 90.8476Z" fill="url(#paint23_linear_1_58)"/>
<path d="M90.7344 93.1538V81.0559H93.0069L100.012 89.7662H98.909V81.0559H101.622V93.1538H99.367L92.3458 84.4435H93.4479V93.1538H90.7344Z" fill="url(#paint24_linear_1_58)"/>
<path d="M102.832 93.1538L108.122 81.0559H110.834L116.14 93.1538H113.257L108.918 82.4732H110.003L105.647 93.1538H102.832ZM105.477 90.5613L106.206 88.4357H112.308L113.055 90.5613H105.477Z" fill="url(#paint25_linear_1_58)"/>
<path d="M117.35 93.1538V81.0559H120.406V90.8724H127.028V93.1538H117.35Z" fill="url(#paint26_linear_1_58)"/>
<path d="M126.697 20.2788C133.129 20.2788 138.018 21.4306 141.365 23.7346C144.711 26.0386 146.384 29.5199 146.384 34.1776C146.384 36.7601 145.966 39.089 145.129 41.1656C144.293 43.2415 142.959 44.988 141.129 46.4057C139.299 47.8241 136.959 48.9124 134.109 49.6719C131.259 50.4314 127.847 50.8112 123.873 50.8112H75.0068L85.439 37.7477H125.129C127.063 37.7477 128.475 37.4569 129.364 36.8745C130.253 36.2921 130.698 35.3424 130.698 34.0266C130.698 32.7096 130.253 31.7729 129.364 31.216C128.475 30.6591 127.063 30.3807 125.129 30.3807H96.5771C93.1782 30.3807 90.2502 30.0264 87.792 29.3172C85.3345 28.608 83.2952 27.621 81.6744 26.355C80.0529 25.0895 78.8504 23.5574 78.0663 21.76C77.2815 19.9625 76.8895 17.9748 76.8895 15.7976C76.8895 13.4184 77.3207 11.2535 78.1837 9.30379C79.0461 7.35465 80.3795 5.69639 82.1839 4.32901C83.9876 2.96226 86.3149 1.89879 89.1646 1.13928C92.0148 0.379759 95.4266 0 99.401 0H144.973L134.541 13.2157H98.1459C96.2633 13.2157 94.8645 13.4693 93.9494 13.9752C93.0344 14.4812 92.5769 15.393 92.5769 16.7094C92.5769 18.0258 93.0344 18.95 93.9494 19.4814C94.8645 20.0135 96.2633 20.2788 98.1459 20.2788H126.697Z" fill="url(#paint27_linear_1_58)"/>
<path d="M173 50.8112H156.062V0H173V50.8112Z" fill="url(#paint28_linear_1_58)"/>
<path d="M16.9372 0H1.20996V50.8112H16.9372V0Z" fill="url(#paint29_linear_1_58)"/>
<path fill-rule="evenodd" clip-rule="evenodd" d="M73.1445 0L39.8559 23.9245L75.007 50.8112H50.7189L20.5664 24.8997L49.8657 0H73.1445Z" fill="url(#paint30_linear_1_58)"/>
<defs>
<linearGradient id="paint0_linear_1_58" x1="83.1512" y1="3.58399" x2="83.1512" y2="91.6375" gradientUnits="userSpaceOnUse">
<stop stop-color="#D1A561"/>
<stop offset="1" stop-color="#D8C384"/>
</linearGradient>
<linearGradient id="paint1_linear_1_58" x1="85.9594" y1="4.67573" x2="85.9594" y2="91.245" gradientUnits="userSpaceOnUse">
<stop stop-color="#D1A561"/>
<stop offset="1" stop-color="#D8C384"/>
</linearGradient>
<linearGradient id="paint2_linear_1_58" x1="86.6076" y1="3.58399" x2="86.6076" y2="91.6375" gradientUnits="userSpaceOnUse">
<stop stop-color="#D1A561"/>
<stop offset="1" stop-color="#D8C384"/>
</linearGradient>
<linearGradient id="paint3_linear_1_58" x1="87.2703" y1="3.58399" x2="87.2703" y2="91.6375" gradientUnits="userSpaceOnUse">
<stop stop-color="#D1A561"/>
<stop offset="1" stop-color="#D8C384"/>
</linearGradient>
<linearGradient id="paint4_linear_1_58" x1="83.7984" y1="4.67573" x2="83.7984" y2="91.245" gradientUnits="userSpaceOnUse">
<stop stop-color="#D1A561"/>
<stop offset="1" stop-color="#D8C384"/>
</linearGradient>
<linearGradient id="paint5_linear_1_58" x1="85.0247" y1="3.58399" x2="85.0247" y2="91.6375" gradientUnits="userSpaceOnUse">
<stop stop-color="#D1A561"/>
<stop offset="1" stop-color="#D8C384"/>
</linearGradient>
<linearGradient id="paint6_linear_1_58" x1="86.5209" y1="3.58399" x2="86.5209" y2="91.6375" gradientUnits="userSpaceOnUse">
<stop stop-color="#D1A561"/>
<stop offset="1" stop-color="#D8C384"/>
</linearGradient>
<linearGradient id="paint7_linear_1_58" x1="86.6392" y1="3.58399" x2="86.6392" y2="91.6375" gradientUnits="userSpaceOnUse">
<stop stop-color="#D1A561"/>
<stop offset="1" stop-color="#D8C384"/>
</linearGradient>
<linearGradient id="paint8_linear_1_58" x1="87.183" y1="3.58399" x2="87.183" y2="91.6375" gradientUnits="userSpaceOnUse">
<stop stop-color="#D1A561"/>
<stop offset="1" stop-color="#D8C384"/>
</linearGradient>
<linearGradient id="paint9_linear_1_58" x1="86.7708" y1="3.58399" x2="86.7708" y2="91.6375" gradientUnits="userSpaceOnUse">
<stop stop-color="#D1A561"/>
<stop offset="1" stop-color="#D8C384"/>
</linearGradient>
<linearGradient id="paint10_linear_1_58" x1="87.1117" y1="3.58399" x2="87.1117" y2="91.6375" gradientUnits="userSpaceOnUse">
<stop stop-color="#D1A561"/>
<stop offset="1" stop-color="#D8C384"/>
</linearGradient>
<linearGradient id="paint11_linear_1_58" x1="83.4365" y1="3.58399" x2="83.4365" y2="91.6375" gradientUnits="userSpaceOnUse">
<stop stop-color="#D1A561"/>
<stop offset="1" stop-color="#D8C384"/>
</linearGradient>
<linearGradient id="paint12_linear_1_58" x1="86.648" y1="3.58399" x2="86.648" y2="91.6375" gradientUnits="userSpaceOnUse">
<stop stop-color="#D1A561"/>
<stop offset="1" stop-color="#D8C384"/>
</linearGradient>
<linearGradient id="paint13_linear_1_58" x1="85.3059" y1="3.58399" x2="85.3059" y2="91.6375" gradientUnits="userSpaceOnUse">
<stop stop-color="#D1A561"/>
<stop offset="1" stop-color="#D8C384"/>
</linearGradient>
<linearGradient id="paint14_linear_1_58" x1="90.7823" y1="4.67573" x2="90.7823" y2="91.245" gradientUnits="userSpaceOnUse">
<stop stop-color="#D1A561"/>
<stop offset="1" stop-color="#D8C384"/>
</linearGradient>
<linearGradient id="paint15_linear_1_58" x1="112.788" y1="-4.47077" x2="112.788" y2="93.3612" gradientUnits="userSpaceOnUse">
<stop stop-color="#D1A561"/>
<stop offset="1" stop-color="#D8C384"/>
</linearGradient>
<linearGradient id="paint16_linear_1_58" x1="85.8688" y1="-4.47077" x2="85.8688" y2="93.3612" gradientUnits="userSpaceOnUse">
<stop stop-color="#D1A561"/>
<stop offset="1" stop-color="#D8C384"/>
</linearGradient>
<linearGradient id="paint17_linear_1_58" x1="87.6226" y1="-4.47077" x2="87.6226" y2="93.3612" gradientUnits="userSpaceOnUse">
<stop stop-color="#D1A561"/>
<stop offset="1" stop-color="#D8C384"/>
</linearGradient>
<linearGradient id="paint18_linear_1_58" x1="80.0253" y1="-4.47077" x2="80.0253" y2="93.3612" gradientUnits="userSpaceOnUse">
<stop stop-color="#D1A561"/>
<stop offset="1" stop-color="#D8C384"/>
</linearGradient>
<linearGradient id="paint19_linear_1_58" x1="88.4366" y1="-4.47077" x2="88.4366" y2="93.3612" gradientUnits="userSpaceOnUse">
<stop stop-color="#D1A561"/>
<stop offset="1" stop-color="#D8C384"/>
</linearGradient>
<linearGradient id="paint20_linear_1_58" x1="85.832" y1="-4.47077" x2="85.832" y2="93.3612" gradientUnits="userSpaceOnUse">
<stop stop-color="#D1A561"/>
<stop offset="1" stop-color="#D8C384"/>
</linearGradient>
<linearGradient id="paint21_linear_1_58" x1="84.7888" y1="-4.47077" x2="84.7888" y2="93.3612" gradientUnits="userSpaceOnUse">
<stop stop-color="#D1A561"/>
<stop offset="1" stop-color="#D8C384"/>
</linearGradient>
<linearGradient id="paint22_linear_1_58" x1="84.9816" y1="-4.47077" x2="84.9816" y2="93.3612" gradientUnits="userSpaceOnUse">
<stop stop-color="#D1A561"/>
<stop offset="1" stop-color="#D8C384"/>
</linearGradient>
<linearGradient id="paint23_linear_1_58" x1="87.1017" y1="-1.43988" x2="87.1017" y2="93.1538" gradientUnits="userSpaceOnUse">
<stop stop-color="#D1A561"/>
<stop offset="1" stop-color="#D8C384"/>
</linearGradient>
<linearGradient id="paint24_linear_1_58" x1="86.304" y1="-4.47077" x2="86.304" y2="93.3612" gradientUnits="userSpaceOnUse">
<stop stop-color="#D1A561"/>
<stop offset="1" stop-color="#D8C384"/>
</linearGradient>
<linearGradient id="paint25_linear_1_58" x1="86.2733" y1="-4.47077" x2="86.2733" y2="93.3612" gradientUnits="userSpaceOnUse">
<stop stop-color="#D1A561"/>
<stop offset="1" stop-color="#D8C384"/>
</linearGradient>
<linearGradient id="paint26_linear_1_58" x1="82.7397" y1="-4.47077" x2="82.7397" y2="93.3612" gradientUnits="userSpaceOnUse">
<stop stop-color="#D1A561"/>
<stop offset="1" stop-color="#D8C384"/>
</linearGradient>
<linearGradient id="paint27_linear_1_58" x1="86.4067" y1="-0.000621536" x2="86.4067" y2="93.2298" gradientUnits="userSpaceOnUse">
<stop stop-color="#D1A561"/>
<stop offset="1" stop-color="#D8C384"/>
</linearGradient>
<linearGradient id="paint28_linear_1_58" x1="83.6758" y1="0" x2="83.6758" y2="93.2293" gradientUnits="userSpaceOnUse">
<stop stop-color="#D1A561"/>
<stop offset="1" stop-color="#D8C384"/>
</linearGradient>
<linearGradient id="paint29_linear_1_58" x1="83.5738" y1="0" x2="83.5738" y2="93.2293" gradientUnits="userSpaceOnUse">
<stop stop-color="#D1A561"/>
<stop offset="1" stop-color="#D8C384"/>
</linearGradient>
<linearGradient id="paint30_linear_1_58" x1="85.9438" y1="0" x2="85.9438" y2="93.2293" gradientUnits="userSpaceOnUse">
<stop stop-color="#D1A561"/>
<stop offset="1" stop-color="#D8C384"/>
</linearGradient>
</defs>
</svg>
