<svg width="195" height="188" viewBox="0 0 195 188" fill="none" xmlns="http://www.w3.org/2000/svg">
<g clip-path="url(#clip0_1_2822)">
<path fill-rule="evenodd" clip-rule="evenodd" d="M52.7686 173.083L55.9332 176.223L112.719 184.498L142.197 181.359L152.189 175.937L139.814 176.829L81.3927 173.94L55.2932 172.156L52.7686 173.083Z" fill="#28EBF7"/>
<path fill-rule="evenodd" clip-rule="evenodd" d="M57.8888 7.53274C57.711 4.96441 57.711 7.14036 58.6 6.24857C59.8445 8.99527 61.6579 10.2081 63.4714 12.3484L67.5606 14.9524C72.2187 16.4149 80.5392 17.3424 83.8817 19.8037L82.0682 21.0522C80.5748 22.1223 79.9348 22.7287 78.6191 23.6919L74.9566 26.3672L79.7214 27.1163C87.2597 25.7965 87.6153 22.9428 93.909 27.8654C94.158 32.039 93.6246 33.7868 94.9047 37.782L96.0425 40.8498C98.496 38.7452 98.4249 36.0698 99.1361 32.8951C100.274 27.687 100.594 27.58 98.4249 23.1925C99.385 20.1961 108.452 25.3684 110.515 26.2959C115.315 28.3648 119.689 28.2935 125.342 28.5075C139.743 29.0782 141.415 30.7905 147.602 40.4931L148.491 41.7059L149.059 39.7796C148.455 38.9592 148.811 39.851 148.348 38.3528L145.93 30.0057C150.553 28.4718 155.602 24.6193 160.011 29.3636C162.714 29.9343 163.78 30.0414 165.096 32.3243C166.554 31.1472 167.23 34.857 166.198 28.8999C166.127 28.4005 165.203 26.7596 164.989 26.4386C164.101 25.2257 162.429 23.7275 161.611 22.7644C169.612 20.2317 170.145 17.6991 174.27 14.0963C175.017 13.3115 174.412 12.2414 175.123 14.4173C175.692 16.1652 175.337 15.1307 175.195 16.2009C176.795 21.3376 175.088 29.1139 173.63 34.2149C172.03 39.9223 170.003 43.1684 164.456 44.8093L161.114 45.273C162.18 46.3788 161.149 45.5941 162.643 46.5215C163.069 46.7712 164.456 47.3063 164.669 47.3776L168.012 47.5203C167.479 49.7319 167.407 49.8746 166.305 51.8009L164.741 54.5119C164.065 55.4037 164.207 55.1183 163.567 55.7247L162.927 53.8341C161.363 52.657 161.007 52.1576 159.549 51.1588C158.34 50.267 157.451 49.2682 156.171 48.5548C156.847 53.6558 159.656 56.1885 160.047 60.6117C161.398 62.6806 162.109 67.1752 162.18 70.1003L160.829 76.2001C153.646 72.8113 154.642 72.4903 144.117 76.5568C133.947 80.4806 135.512 75.3796 132.098 73.0253C130.036 71.6341 132.561 71.8838 130.854 72.7756C129.325 78.5544 132.276 80.4093 133.343 82.4782C135.69 87.1155 135.192 88.1143 138.712 91.289C145.148 97.1035 154.642 91.5031 157.985 88.3997L158.802 90.2546L159.016 92.0025C160.296 95.0345 160.971 95.7123 161.363 99.8502C162.998 101.562 162.429 100.778 162.536 102.954C166.661 106.128 154.535 115.26 145.255 110.409C147.175 104.523 146.89 102.062 143.832 98.0666L143.086 99.8502C143.015 100.029 142.944 100.243 142.908 100.421C142.552 101.455 142.872 101.455 142.268 102.597C141.166 106.235 138.677 109.374 135.725 110.873C132.027 112.728 128.151 110.516 124.311 109.945C125.591 104.523 126.196 104.844 124.987 98.9584L124.204 96.8181C122.142 100.064 121.395 104.024 118.729 106.164C116.062 113.12 109.946 112.87 104.079 108.269C105.999 103.524 104.754 101.099 103.865 96.9965L101.661 101.063C97.1448 112.977 82.566 112.371 84.5929 100.671C84.6284 88.5424 70.1563 93.0369 62.4402 87.4009L63.0803 76.0574L64.8226 76.8065C67.3117 76.8778 68.4495 77.4842 69.943 78.2333L69.3385 76.1644C66.7072 71.5985 59.2044 69.7792 63.507 61.9315C66.316 56.7592 71.6497 54.0482 69.7652 45.6297L72.0409 46.8069C74.5655 48.1624 74.7788 49.0542 77.0546 50.6237C77.3746 50.8021 79.4014 52.0506 79.8281 52.2289C83.9884 53.8341 82.566 52.8354 83.3483 51.8009C79.7925 49.946 79.188 43.2041 72.6098 40.065C64.0759 36.0341 63.8981 39.2802 61.409 28.1508L63.4714 29.5776C67.1339 30.2911 64.5381 29.97 65.2849 29.2209C63.5425 27.5087 61.5513 22.7644 60.3779 20.0891C58.4933 15.6658 57.9955 12.7408 57.8888 7.53274Z" fill="#090C3F"/>
<path fill-rule="evenodd" clip-rule="evenodd" d="M139.778 84.6185C142.232 83.5483 145.503 83.1203 148.561 81.7291C151.584 80.3379 154.215 78.3046 157.451 79.8028C156.455 83.263 148.348 91.6457 139.778 84.6185Z" fill="#090C3F"/>
<path fill-rule="evenodd" clip-rule="evenodd" d="M74.0317 97.4244C85.4814 98.2806 77.5519 106.949 84.1302 113.298C89.6772 118.649 98.3889 115.082 101.909 111.194C104.612 113.405 106.318 117.258 111.83 117.721C117.412 118.185 120.826 114.654 123.208 111.693L124.915 113.655C131.529 121.039 137.609 117.507 143.085 113.156C143.192 113.263 143.37 113.298 143.405 113.548C143.832 115.367 143.548 113.726 144.116 114.333C148.028 118.542 151.868 118.578 157.308 117.614C156.455 124.178 151.335 122.501 142.943 128.102C138.463 131.063 131.813 135.949 124.133 133.809C125.164 131.812 126.8 130.848 127.546 128.316C128.222 125.926 127.973 122.608 127.831 120.004C124.808 122.109 123.208 127.067 119.19 129.957C115.492 132.596 109.021 135.165 103.509 133.774L109.874 130.67L96.8955 131.277C89.1794 129.029 92.2018 123.465 87.7571 119.648C79.9699 112.977 66.849 129.957 71.0448 108.697C72.076 103.489 71.9338 102.204 71.8982 96.925L74.0317 97.4244Z" fill="#090C3F"/>
<path fill-rule="evenodd" clip-rule="evenodd" d="M177.897 150.718C178.786 149.505 181.098 147.65 182.2 146.116C188.245 137.448 188.636 128.209 191.267 121.681L191.765 111.871C190.912 108.376 190.094 104.916 189.276 101.313L189.383 100.956C188.956 97.2819 187.534 95.1059 189.56 91.5388C190.876 89.2201 192.156 86.5448 193.472 84.6899C196.21 71.8125 195.534 72.8113 189.24 66.2835C188.209 65.2133 187.996 65.1063 187.107 64.1432C185.471 62.538 186.182 63.6081 185.045 61.5035C180.92 59.3632 177.826 54.94 173.737 51.9792C174.626 42.2053 175.124 45.0233 177.969 40.065L178.893 38.1388L178.857 37.7821L179.284 34.9997C179.284 34.7143 179.284 30.5051 179.675 28.9356C179.889 28.1508 180.031 26.9736 180.173 25.8322C180.315 24.655 180.386 23.5135 180.458 22.6931C180.6 21.1592 179.711 17.0927 179.675 16.8786L176.866 7.06903L174.377 8.06783L167.479 14.453L159.656 18.8049L156.1 20.9095H156.065C156.065 20.9095 150.624 21.6943 149.309 22.1223C148.171 22.4434 145.824 22.4077 144.188 22.372C143.868 22.372 143.584 22.372 143.264 22.372C142.624 22.372 141.344 22.479 139.921 22.5861C138.001 22.7287 135.797 22.9071 134.339 22.9071C133.059 22.9071 132.241 22.8714 131.103 22.6931C129.965 22.479 128.578 22.1223 126.161 21.4446C123.209 20.6241 121.858 20.3388 120.649 20.1247C119.902 19.9464 119.191 19.8394 118.196 19.554C116.987 19.2686 114.711 18.9119 112.328 18.5552C109.342 18.0915 106.212 17.6277 104.719 17.164C103.652 16.843 102.301 16.6289 100.985 16.4863C99.0653 16.3079 97.2874 16.3079 96.8252 16.3792C96.3629 16.4506 94.4072 16.1652 92.5582 15.9155C91.207 15.7372 89.9269 15.5588 89.358 15.5588C88.7891 15.5231 87.7935 15.6302 86.7978 15.7015C85.5889 15.8085 84.3443 15.9155 83.7398 15.8442C82.922 15.7372 80.9663 14.8097 79.544 14.0963C79.0817 13.8823 78.655 13.6682 78.335 13.5612C77.1616 13.0261 72.4324 12.0987 72.3968 12.0987H72.3613C69.6233 10.3865 66.9209 8.67424 64.1829 6.96202L58.6715 0.00610352C57.8536 0.291474 53.6222 1.754 53.0533 2.89548C52.4488 4.14398 51.9154 7.17604 51.8799 7.49709C51.9154 7.8538 52.271 11.4209 52.5555 12.9191C52.8044 14.4887 53.4089 19.233 53.48 19.5897L56.0757 26.2245V26.2602C56.218 26.1889 56.3246 26.1532 56.4313 26.1175C57.178 39.4943 57.9959 40.5644 67.0987 44.8807C66.1031 55.6177 51.4176 55.154 58.1381 72.4189C62.085 82.6566 46.724 90.8967 68.4499 96.2831C68.9122 103.952 56.858 124.285 72.2191 125.855C76.8771 126.354 80.4329 123.679 83.6687 124.356C89.5002 129.885 85.5177 136.984 99.4209 135.2C105.075 143.583 115.529 139.659 122.498 135.093C122.64 135.165 122.889 135.165 122.96 135.379L125.769 137.091C136.437 141.764 146.535 131.17 154.82 129.636C162.999 124.927 161.683 124.998 164.172 115.118C166.092 107.484 173.382 108.554 165.808 98.2807C161.896 93.0013 164.03 84.4045 166.377 78.9111C170.857 68.4237 167.834 68.3881 165.808 59.1492L170.537 56.2598C171.817 53.7271 170.857 55.3324 172.635 54.5119C174.946 61.1825 184.12 69.9576 188.6 73.7744C189.027 86.3664 178.822 95.2486 179.711 105.415L180.138 107.377C180.173 107.52 180.244 107.769 180.351 107.983C181.738 103.917 183.16 102.49 184.618 99.5648C186.147 98.4233 185.542 103.845 186.04 109.16C187.214 121.396 182.804 129.315 178.857 138.732C177.435 142.156 176.155 143.762 173.559 145.973C170.608 148.47 169.861 148.328 167.514 152.037C165.132 155.854 159.905 164.201 158.909 167.519C160.012 168.446 160.403 169.088 161.292 169.873L165.843 163.952L174.164 155.105L177.897 150.718Z" fill="#090C3F"/>
<path fill-rule="evenodd" clip-rule="evenodd" d="M27.0244 153.535C29.5135 155.426 31.4692 156.389 33.1048 159.314C36.4473 161.562 37.6563 164.38 44.1989 169.017C46.5457 170.693 48.5014 171.407 50.5282 173.369C53.6218 176.365 56.9998 178.47 60.6267 179.968L61.9068 180.075C70.4052 183.107 80.2192 183.606 91.7044 185.319C106.07 187.423 122.818 189.706 137.539 186.175H137.432C145.539 184.07 152.935 180.075 158.767 173.119C158.198 171.442 157.7 172.156 156.74 169.909C155.602 170.337 156.527 169.98 155.389 170.551C149.379 173.618 147.175 174.51 139.992 173.654C141.201 174.867 142.055 175.438 144.615 175.83C146.713 176.151 148.775 176.044 150.873 176.151L148.491 177.364C130.569 183.285 121.68 182.893 101.341 180.574C86.6907 178.898 67.3827 178.22 54.4752 174.046L65.5337 174.296L72.7164 173.654C69.0184 172.655 72.6809 173.868 70.9741 172.156C67.0272 172.334 57.7821 169.695 54.2263 168.232C48.7148 165.985 36.0206 153.321 31.1847 148.577C28.1978 145.652 22.793 142.014 18.6327 139.124C7.78754 131.598 17.6727 119.969 9.95658 106.485C8.42759 103.81 6.36522 103.061 6.43634 99.0297C6.57857 92.2878 12.979 87.6862 15.6103 75.7719L16.7837 79.8741L19.2017 92.0024C20.1973 89.3271 20.2328 80.3379 20.304 76.2357C20.304 72.0621 19.0239 67.2465 17.6727 63.8577C15.717 58.8994 13.2279 58.507 11.13 54.8685C13.9035 48.0196 36.8384 42.9186 42.5277 37.1042C43.7367 34.1792 41.8521 37.2469 43.5233 35.5703C44.4123 34.6786 43.9856 35.1066 44.8034 34.5715C45.6924 34.0008 47.0436 33.3587 48.1814 32.7523C49.0704 31.2898 51.8083 28.4361 54.5463 26.9379V26.7595L42.8122 30.0056C42.4921 30.505 42.7766 30.291 41.6032 31.4325L35.9495 34.9996C24.5354 40.8497 -7.14681 47.4846 9.63656 61.9671C13.9035 65.6413 12.5168 70.0289 10.49 76.3784C10.3833 76.6637 9.77879 78.3046 9.70767 78.4473C9.63656 78.59 9.52988 78.7683 9.45877 78.9467L7.89422 80.6946C6.57857 86.295 -2.73762 93.1082 0.782619 103.631L4.23174 109.945C5.61851 111.194 4.58732 109.838 5.93853 111.943C8.03645 115.153 10.3833 125.462 10.2055 128.922C10.0988 131.705 9.95658 133.06 9.77879 134.023C9.77879 134.023 12.6945 138.482 13.3701 139.945C14.0102 141.443 18.4194 144.368 18.4194 144.368L22.153 147.828L27.0244 153.535Z" fill="#090C3F"/>
<path fill-rule="evenodd" clip-rule="evenodd" d="M48.1816 32.7523C46.6526 35.9984 42.5634 45.1659 40.8922 47.0565C34.4562 54.2264 34.5273 49.5892 35.3096 62.9659C37.6209 73.2393 41.1056 68.5307 39.8966 91.8954C39.6121 97.4244 39.6832 103.025 40.7855 108.304C42.2434 115.224 44.0924 115.331 46.2615 119.327L41.6389 117.436C33.8873 113.405 30.1181 105.986 28.4469 95.7836C27.3091 97.1391 26.989 97.3531 26.7046 101.17C26.5268 103.596 26.5979 105.807 26.3846 108.197L23.9666 99.315C21.7976 106.128 24.6067 117.686 27.3446 122.501C31.2916 129.386 34.8474 134.487 41.1767 137.769C41.07 135.236 40.8211 130.634 41.6034 128.173C42.0301 126.675 42.0301 127.032 42.2434 126.604C46.6526 132.418 49.7817 138.018 55.6843 143.976C60.5558 148.898 66.5295 153.286 75.3835 155.426C92.8424 159.635 106.354 154.891 120.542 164.308L124.88 168.375C116.631 167.768 103.368 167.911 95.7582 170.23C100.167 173.297 121.644 176.294 129.823 174.796C131.494 174.475 133.236 173.975 134.481 173.048C135.832 172.049 135.548 172.049 136.117 171.157L137.397 168.945C148.313 170.444 153.255 171.193 160.723 157.352C163.425 152.287 164.456 150.361 167.976 146.829C170.43 144.332 175.87 140.266 178.857 138.732C182.804 129.315 187.213 121.396 186.04 109.16C185.542 103.845 186.147 98.4232 184.618 99.5647C185.187 105.843 184.404 111.194 183.338 117.293C182.875 119.933 182.057 122.18 181.311 124.606C180.244 128.209 180.173 129.564 177.933 131.348L177.897 127.995C172.208 135.093 176.581 134.416 160.154 148.185C156.705 151.038 153.113 157.103 147.602 158.743C153.824 146.473 150.197 149.861 161.576 138.946C166.519 134.166 172.919 128.066 176.084 118.899C172.421 121.752 170.963 127.852 158.127 137.59C144.579 147.828 138.926 147.364 134.623 150.289C137.503 151.93 141.984 151.467 145.646 151.217C141.415 157.994 129.183 156.46 121.253 155.676C113.502 154.927 102.301 154.213 95.047 152.786C98.7451 152.358 103.225 150.789 105.572 148.827C92.558 147.935 86.0509 148.648 74.6723 143.44C67.8096 140.301 57.64 132.061 56.0755 125.355C59.9513 127.246 62.9026 131.063 67.5963 133.06L63.9694 125.926C70.6187 127.959 73.6056 126.96 80.2905 127.923C86.442 134.202 80.5394 137.84 95.1537 139.945C101.767 140.908 102.941 147.971 116.773 142.477C123.742 139.731 119.618 140.052 126.303 142.121C136.081 145.188 151.3 134.059 154.82 129.636C146.535 131.17 136.437 141.764 125.769 137.091L122.96 135.379C122.889 135.165 122.64 135.165 122.498 135.093C115.528 139.659 105.074 143.583 99.4207 135.2C85.5175 136.984 89.5 129.885 83.6685 124.356C80.4327 123.679 76.8769 126.354 72.2188 125.854C56.8578 124.285 68.9119 103.952 68.4497 96.283C46.7237 90.8966 62.0848 82.6565 58.1378 72.4188C51.4174 55.1539 66.1028 55.6176 67.0985 44.8806C57.9956 40.5643 57.1778 39.4942 56.4311 26.1174C53.1597 27.0806 49.2839 30.9331 48.1816 32.7523Z" fill="#807E84"/>
<path fill-rule="evenodd" clip-rule="evenodd" d="M43.6297 136.057C45.4076 137.805 47.5411 140.765 49.5679 142.977C53.7993 147.614 66.1024 156.639 72.7873 158.173C86.2637 161.241 104.789 159.136 115.955 165.7C101.056 165.878 81.3567 167.447 67.7025 163.31C60.8042 161.241 43.9853 147.364 43.6297 136.057ZM42.5274 37.1043C38.6871 43.1685 21.9749 48.9472 14.8633 54.2979C15.4322 58.1148 19.7703 61.1468 21.406 67.318C22.5083 71.3132 22.9705 80.3023 20.9437 84.2619L20.3037 76.2358C20.2325 80.338 20.197 89.3272 19.2014 92.0025L16.7834 79.8743C16.6056 83.9765 12.552 90.7184 10.9875 94.6779C7.28944 103.917 10.2408 100.992 13.6543 108.554C20.8726 124.677 8.53397 128.352 22.9705 139.017C32.0022 145.688 37.976 150.397 45.1587 158.066C53.4437 166.912 57.0706 168.125 68.3425 171.407C69.4804 171.728 73.1428 172.049 70.9738 172.156C72.6806 173.868 69.0181 172.655 72.7161 173.654L65.5334 174.296C71.5427 174.332 80.3611 175.652 86.5482 176.401C93.6954 177.221 100.38 177.899 107.35 178.898C130.356 182.215 147.779 177.221 148.49 177.364L150.873 176.151C148.775 176.044 146.712 176.151 144.614 175.83C142.054 175.438 141.201 174.867 139.992 173.654C147.175 174.51 149.379 173.619 155.388 170.551C156.526 169.98 155.602 170.337 156.74 169.909L158.909 167.519C159.904 164.201 165.131 155.854 167.514 152.037C169.861 148.328 170.607 148.47 173.559 145.973C176.154 143.762 177.434 142.156 178.857 138.732C175.87 140.266 170.43 144.332 167.976 146.829C164.456 150.361 163.425 152.287 160.722 157.352C153.255 171.193 148.312 170.444 137.396 168.946L136.116 171.157C135.547 172.049 135.832 172.049 134.48 173.048C133.236 173.975 131.493 174.475 129.822 174.796C121.644 176.294 100.167 173.298 95.7577 170.23C103.367 167.911 116.63 167.768 124.88 168.375L120.542 164.308C106.354 154.891 92.842 159.635 75.383 155.426C66.5291 153.286 60.5553 148.898 55.6839 143.976C49.7812 138.019 46.6521 132.418 42.2429 126.604C42.0296 127.032 42.0296 126.675 41.6029 128.173C40.8206 130.635 41.0695 135.236 41.1762 137.769C34.8469 134.487 31.2911 129.386 27.3441 122.502C24.6062 117.686 21.7971 106.128 23.9661 99.3152L26.3841 108.197C26.5974 105.807 26.5263 103.596 26.7041 101.17C26.9886 97.3532 27.3086 97.1392 28.4464 95.7837C30.1177 105.986 33.8868 113.405 41.6385 117.436C40.5006 115.367 40.3228 115.581 39.2561 114.083C27.9842 98.138 37.656 85.6887 31.6111 68.3881C30.2243 64.4643 27.0241 57.223 28.7665 53.5845C30.9711 56.6879 32.6778 60.7188 35.3091 62.9661C34.5269 49.5893 34.4557 54.2266 40.8917 47.0567C42.563 45.1661 46.6521 35.9985 48.1811 32.7524C47.0433 33.3589 45.6921 34.0009 44.8031 34.5717C43.9853 35.1068 44.412 34.6787 43.523 35.5705C41.8518 37.247 43.7364 34.1793 42.5274 37.1043Z" fill="#555A5B"/>
<path fill-rule="evenodd" clip-rule="evenodd" d="M160.047 60.6117C159.656 56.1885 156.847 53.6558 156.171 48.5548C157.451 49.2682 158.34 50.267 159.549 51.1588C161.007 52.1576 161.363 52.657 162.927 53.8342C163.781 50.8378 164.065 51.8366 164.67 47.3776C164.456 47.3063 163.07 46.7712 162.643 46.5215C161.149 45.5941 162.181 46.3788 161.114 45.273L164.456 44.8093C165.416 42.562 167.301 41.8843 168.866 39.4229C171.497 35.3207 171.461 31.0045 173.346 23.8702C173.95 21.4803 174.128 18.1985 175.195 16.2009C175.337 15.1308 175.693 16.1652 175.124 14.4173C174.413 12.2414 175.017 13.3115 174.27 14.0963C173.133 18.9833 172.03 19.2686 169.897 22.6574C167.692 26.1175 166.59 28.6145 167.799 33.5015C163.141 32.9308 166.305 33.3231 165.096 32.3243C163.781 30.0414 162.714 29.9344 160.012 29.3636H156.385L154.358 32.2173C147.993 25.8322 149.735 36.4265 149.06 39.7797L148.491 41.7059L147.602 40.4931C144.366 39.3159 145.433 38.4598 143.157 36.2482C136.97 30.2197 133.77 32.36 130.925 32.467C128.507 32.574 126.409 31.7179 123.92 31.3612C109.093 29.2209 116.666 31.6466 104.079 25.4041C101.625 24.1913 101.625 23.4422 98.4252 23.1925C100.594 27.5801 100.274 27.6871 99.1363 32.8951C98.4252 36.0698 98.4963 38.7452 96.0428 40.8498L94.9049 37.7821C94.0871 37.4253 92.5937 38.2101 91.847 32.7881C90.9936 26.4742 90.4602 27.5444 84.1309 28.0081C81.6418 28.1865 81.0729 28.0438 79.7217 27.1163L74.9569 26.3672L78.6194 23.6919C79.935 22.7287 80.5751 22.1223 82.0685 21.0522C78.1216 20.5885 69.0898 18.9476 67.5608 14.9524L63.4717 12.3484C63.7917 15.8442 65.3918 14.7384 70.0499 21.3019C72.7879 25.1901 72.4323 28.0438 77.6593 30.0057C87.5089 33.7512 81.5351 30.9688 84.5931 39.4586C86.4066 44.5596 89.8201 44.4883 93.2337 47.1636C94.8338 49.8746 94.6916 52.5143 97.7496 54.7973C101.519 57.5797 102.799 56.0458 106.817 56.4738C114.782 57.2943 111.546 63.6795 125.343 57.651C125.84 58.5071 126.516 59.8269 127.227 60.6117C131.423 60.576 129.325 58.7211 134.232 62.2883C142.553 68.3167 147.14 62.431 150.553 62.966C154.536 63.5368 155.14 65.5344 159.763 63.6081L160.047 60.6117Z" fill="#B2B2B2"/>
<path fill-rule="evenodd" clip-rule="evenodd" d="M154.82 129.636C151.299 134.059 136.081 145.188 126.302 142.121C119.617 140.052 123.742 139.731 116.773 142.477C102.941 147.971 101.767 140.908 95.1534 139.945C80.5391 137.84 86.4417 134.202 80.2902 127.923C73.6053 126.96 70.6184 127.959 63.9691 125.926L67.596 133.06C62.9023 131.063 59.951 127.246 56.0752 125.355C57.6397 132.061 67.8093 140.301 74.672 143.441C86.0506 148.649 92.5577 147.935 105.572 148.827C103.225 150.789 98.7448 152.358 95.0468 152.786C102.301 154.213 113.501 154.927 121.253 155.676C129.182 156.461 141.414 157.994 145.646 151.217C141.983 151.467 137.503 151.93 134.623 150.289C138.925 147.364 144.579 147.828 158.127 137.59C170.963 127.852 172.421 121.752 176.083 118.899C176.297 118.007 176.226 117.9 176.688 117.079C177.684 115.224 177.186 116.081 178.11 115.082C179.07 121.396 178.43 122.252 177.897 127.995L177.932 131.348C180.173 129.564 180.244 128.209 181.31 124.606C182.057 122.18 182.875 119.933 183.337 117.293C184.404 111.194 185.186 105.843 184.617 99.5648C183.159 102.49 181.737 103.917 180.35 107.983C177.328 106.699 178.892 95.962 179.817 92.8942C180.919 89.2201 185.008 83.4057 185.4 79.7315C186.182 72.3119 171.674 67.2109 170.536 56.2598L165.807 59.1491C167.834 68.388 170.856 68.4237 166.376 78.9111C164.029 84.4045 161.896 93.0012 165.807 98.2806C173.381 108.554 166.092 107.484 164.171 115.117C161.682 124.998 162.998 124.927 154.82 129.636Z" fill="#B2B2B2"/>
<path fill-rule="evenodd" clip-rule="evenodd" d="M76.6277 68.9231C80.1124 55.9744 109.91 72.3475 113.217 73.4177C118.515 75.1299 120.862 70.2786 123.28 68.388C121.182 80.2666 118.017 75.558 114.675 81.194C106.319 95.1772 79.5079 90.5756 81.3214 68.2097L76.6277 68.9231ZM63.4713 29.5776C64.9647 37.782 68.236 36.3552 74.4943 39.5656C78.7612 41.7772 82.0681 47.3063 83.1348 51.8008H83.3482C82.5659 52.8353 83.9882 53.8341 79.828 52.2289C79.4013 52.0505 77.3745 50.8021 77.0544 50.6237C74.7787 49.0542 74.5654 48.1624 72.0408 46.8069C72.6452 62.5736 55.613 60.79 69.9428 74.7732C70.1917 77.3059 70.1917 75.4866 69.3383 76.1644L69.9428 78.2333C68.4494 77.4842 67.3115 76.8778 64.8225 76.8065L64.1824 86.9371C69.2317 88.792 85.9439 90.0762 85.5528 98.3876C85.3394 102.811 85.9439 99.1367 84.5927 100.671C82.5659 112.371 97.1447 112.977 101.661 101.063L103.865 96.9964C102.621 95.9976 106.105 96.176 101.732 96.176C101.376 101.42 96.7891 105.914 92.6288 103.31C91.7754 105.415 91.9532 105.772 89.5708 105.772C87.0818 101.741 89.9975 94.3211 85.5172 91.2177C81.0725 88.1499 75.4899 90.8966 73.3208 84.7612L75.7032 82.9063C75.8099 82.8349 76.0232 82.7636 76.1299 82.6566C75.0276 80.6233 74.8854 77.6269 75.6677 75.5223C82.1392 74.5592 79.5435 80.4449 85.8373 85.8313C86.015 85.974 86.5484 86.4021 86.6906 86.5447C86.8684 86.6517 87.0462 86.7944 87.1885 86.9015L88.1485 87.7219L93.9089 89.5411C99.2426 89.7552 111.581 91.5031 115.919 83.584C115.848 86.2594 114.248 88.1499 113.608 90.1832C118.302 87.5079 120.613 77.9123 126.658 80.3736C130.463 82.0501 128.827 86.7231 134.232 91.6101C133.2 89.1844 133.236 88.8277 134.054 87.3295C140.454 102.74 156.704 90.6826 158.802 90.2546L157.984 88.3997C154.642 91.5031 145.148 97.1035 138.712 91.289C135.192 88.1143 135.69 87.1155 133.343 82.4782C132.276 80.4093 129.325 78.5544 130.854 72.7756C132.56 71.8838 130.036 71.6341 132.098 73.0253C135.512 75.3796 133.947 80.4806 144.117 76.5568C154.642 72.4902 153.646 72.8113 160.829 76.2001L162.18 70.1003C157.131 72.0978 156.74 70.0646 152.793 69.2085C146.144 67.7816 139.672 79.0538 130.285 66.5688C125.484 70.4926 125.164 66.6401 123.209 63.1443C117.519 67.4962 107.457 66.2121 100.558 62.6806C95.189 59.8982 94.3356 61.6461 88.5041 60.576C80.6458 59.1491 82.1392 60.897 76.4144 61.1824C76.1655 58.079 76.8411 56.7948 78.4767 54.6546C83.0282 54.7616 87.1173 55.2966 90.0331 52.3359C81.2503 47.0566 81.3214 35.8558 79.5435 34.6073C75.4543 33.6085 73.392 34.7856 69.4806 32.788C71.4363 31.8962 71.4718 32.7524 73.4631 31.3612C68.9116 26.7952 69.2317 23.3351 65.8537 19.0546C57.7109 8.70987 62.7601 14.9167 57.8887 7.53271C57.9953 12.7407 58.4932 15.6658 60.3777 20.089C61.5511 22.7644 63.5424 27.5087 65.2847 29.2209C64.538 29.97 67.1337 30.291 63.4713 29.5776Z" fill="#555A5B"/>
<path fill-rule="evenodd" clip-rule="evenodd" d="M57.8888 7.53274C62.7602 14.9167 57.711 8.7099 65.8538 19.0546C69.2318 23.3351 68.9118 26.7953 73.4632 31.3612C71.472 32.7524 71.4364 31.8963 69.4807 32.7881C73.3921 34.7856 75.4544 33.6085 79.5436 34.6073C81.3215 35.8558 81.2504 47.0566 90.0332 52.3359C87.1175 55.2967 83.0283 54.7616 78.4769 54.6546C76.8412 56.7949 76.1656 58.079 76.4145 61.1824C82.1394 60.8971 80.6459 59.1492 88.5042 60.576C94.3357 61.6462 95.1891 59.8983 100.558 62.6806C107.457 66.2121 117.52 67.4963 123.209 63.1444C125.165 66.6402 125.485 70.4927 130.285 66.5688C139.672 79.0538 146.144 67.7816 152.793 69.2085C156.74 70.0646 157.131 72.0979 162.18 70.1003C162.109 67.1752 161.398 62.6806 160.047 60.6117L159.762 63.6081C155.14 65.5343 154.535 63.5368 150.553 62.966C147.139 62.4309 142.552 68.3167 134.232 62.2883C129.325 58.7211 131.423 60.576 127.227 60.6117C126.516 59.8269 125.84 58.5071 125.342 57.651C111.546 63.6794 114.782 57.2943 106.817 56.4738C102.799 56.0458 101.518 57.5796 97.7493 54.7973C94.6913 52.5143 94.8336 49.8746 93.2334 47.1636C89.8199 44.4883 86.4063 44.5596 84.5929 39.4586C81.5349 30.9688 87.5086 33.7512 77.659 30.0057C72.432 28.0438 72.7876 25.1901 70.0496 21.3019C65.3915 14.7384 63.7914 15.8442 63.4714 12.3484C61.6579 10.2081 59.8445 8.99527 58.6 6.24857C57.711 7.14036 57.711 4.96441 57.8888 7.53274Z" fill="#7E7D82"/>
<path fill-rule="evenodd" clip-rule="evenodd" d="M130.533 119.576C137.538 120.254 138.569 119.006 143.085 116.544C144.828 117.579 143.014 116.544 144.472 117.508C144.65 117.615 145.183 117.971 145.361 118.078L151.797 120.183C151.904 120.04 152.153 120.29 152.33 120.397C149.095 123.001 145.503 121.859 141.165 124.856C137.68 127.281 135.796 129.172 130.284 128.922L130.533 119.576ZM97.5355 118.827C106.176 115.296 99.0645 117.436 108.238 119.719C117.59 122.038 119.368 117.401 123.848 115.189C123.848 121.36 120.328 125.783 117.484 126.104C114.746 126.39 119.759 125.462 115.741 125.926C114.39 126.104 112.719 127.067 110.941 127.246C108.025 127.496 108.31 126.675 107.029 126.176L106.247 125.89C100.878 125.177 101.234 130.991 93.553 120.397L97.5355 118.827ZM96.8955 131.277L109.874 130.67L103.509 133.774C109.021 135.165 115.492 132.597 119.19 129.957C123.208 127.067 124.808 122.109 127.831 120.005C127.973 122.609 128.222 125.926 127.546 128.316C126.8 130.849 125.164 131.812 124.133 133.809C131.813 135.95 138.463 131.063 142.943 128.102C151.335 122.502 156.455 124.178 157.308 117.615C151.868 118.578 148.028 118.542 144.116 114.333C143.548 113.726 143.832 115.367 143.405 113.548C143.37 113.298 143.192 113.263 143.085 113.156C137.609 117.508 131.529 121.039 124.915 113.655L123.208 111.693C120.826 114.654 117.412 118.185 111.83 117.722C106.318 117.258 104.612 113.405 101.909 111.194C98.3889 115.082 89.6772 118.649 84.1302 113.298C77.5519 106.949 85.4814 98.2807 74.0317 97.4246C74.1739 102.383 72.0404 115.118 73.2494 117.757C79.3654 118.613 82.8501 113.869 88.966 119.113C93.553 123.037 89.3927 123.144 96.8955 131.277Z" fill="#555A5B"/>
<path fill-rule="evenodd" clip-rule="evenodd" d="M105.395 93.3223C111.155 88.3996 109.057 96.1046 116.702 90.3615C119.867 88.0072 121.929 83.5483 125.343 82.3712C130.179 84.9752 128.756 89.6481 134.694 93.9643C139.744 97.6028 136.259 91.2533 139.495 96.1403C141.877 99.7431 139.957 101.42 138.108 103.346C135.014 103.346 135.939 101.42 132.632 102.525C129.823 103.489 130.605 102.062 127.903 97.8525C126.552 95.7479 125.663 95.5696 124.134 93.4293C121.751 95.6409 122.391 98.4589 117.555 103.132L113.004 102.026C109.91 101.099 111.013 101.705 109.519 99.9215C107.813 97.9239 105.786 95.4269 105.395 93.3223ZM103.866 96.9964C107.101 99.3507 108.524 102.347 109.484 107.27C112.933 106.556 110.408 107.805 112.968 105.165C112.577 107.27 113.04 106.842 114.675 107.84L118.729 106.164C121.396 104.024 122.142 100.064 124.205 96.818L124.987 98.9583C127.725 101.562 127.512 104.202 130.285 106.699C131.708 106.663 132.81 106.128 133.628 106.021C138.712 105.308 136.33 109.874 142.268 102.597C142.873 101.455 142.553 101.455 142.908 100.421C142.944 100.242 143.015 100.028 143.086 99.8501L143.833 98.0665C150.091 101.17 148.846 101.348 150.767 108.197C154.358 108.304 152.829 108.59 155.851 104.416C158.98 106.806 162.358 108.126 162.536 102.954C162.43 100.778 162.999 101.562 161.363 99.8501C161.398 101.705 161.256 101.99 160.616 103.132C157.238 103.81 157.203 103.096 155.887 101.134L153.007 104.523C149.807 101.955 152.011 99.7431 146.5 97.5671C148.669 96.2116 150.482 96.4613 153.042 95.5696C155.745 94.6421 157.38 93.2509 159.016 92.0024L158.803 90.2545C156.705 90.6826 140.455 102.739 134.054 87.3295C133.236 88.8277 133.201 89.1844 134.232 91.61C128.827 86.7231 130.463 82.0501 126.658 80.3736C120.613 77.9122 118.302 87.5078 113.608 90.1832C114.249 88.1499 115.849 86.2593 115.92 83.584C111.582 91.503 99.2431 89.7551 93.9094 89.5411C95.1895 90.6826 92.8782 89.5768 95.9006 90.7182C97.8563 91.4673 98.4963 90.8609 100.95 92.1451C101.341 96.176 99.7409 98.6373 97.643 100.706C95.7939 100.064 96.2206 100.421 95.5095 98.5303C94.3716 99.5647 93.8027 100.314 91.4559 100.35C90.0691 91.8954 92.0248 93.679 86.4422 87.9002L88.149 87.7219L87.1889 86.9014C87.0467 86.7944 86.8689 86.6517 86.6911 86.5447C86.5489 86.402 86.0155 85.974 85.8377 85.8313C79.5439 80.4449 82.1397 74.5591 75.6681 75.5223C74.8858 77.6269 75.0281 80.6233 76.1304 82.6565C76.0237 82.7635 75.8103 82.8349 75.7037 82.9062L73.3213 84.7611C75.4903 90.8966 81.0729 88.1499 85.5177 91.2176C89.998 94.3211 87.0822 101.741 89.5713 105.772C91.9537 105.772 91.7759 105.415 92.6293 103.31C96.7896 105.914 101.377 101.42 101.732 96.176C106.106 96.176 102.621 95.9976 103.866 96.9964Z" fill="#7E7D82"/>
<path fill-rule="evenodd" clip-rule="evenodd" d="M83.5973 68.7448C93.5891 70.6711 102.123 75.9148 111.297 78.8755C109.484 81.3368 106.461 82.4426 103.296 82.6566C100.381 82.8707 96.1848 82.0146 93.518 81.1228C88.2909 79.4106 84.1307 71.3488 83.5973 68.7448ZM76.6279 68.9232L81.3216 68.2098C79.5081 90.5757 106.319 95.1773 114.675 81.1941C118.017 75.558 121.182 80.2667 123.28 68.3881C120.862 70.2787 118.515 75.13 113.217 73.4178C109.91 72.3476 80.1126 55.9745 76.6279 68.9232Z" fill="#090C3F"/>
<path fill-rule="evenodd" clip-rule="evenodd" d="M49.5681 142.977C47.5413 140.765 45.4078 137.805 43.6299 136.057C43.9855 147.364 60.8044 161.241 67.7026 163.31C81.3569 167.447 101.056 165.878 115.955 165.7C104.79 159.136 86.2639 161.241 72.7874 158.173C66.1025 156.639 53.7995 147.614 49.5681 142.977Z" fill="#0C0B3C"/>
<path fill-rule="evenodd" clip-rule="evenodd" d="M105.395 93.3224C105.786 95.427 107.812 97.924 109.519 99.9216C111.013 101.705 109.91 101.099 113.004 102.026L117.555 103.132C122.391 98.4591 121.751 95.6411 124.134 93.4295C125.663 95.5697 126.552 95.7481 127.903 97.8527C130.605 102.062 129.823 103.489 132.632 102.526C135.939 101.42 135.014 103.346 138.108 103.346C139.957 101.42 141.877 99.7433 139.495 96.1405C136.259 91.2535 139.744 97.603 134.694 93.9645C128.756 89.6483 130.178 84.9753 125.343 82.3713C121.929 83.5485 119.867 88.0074 116.702 90.3617C109.057 96.1048 111.155 88.3998 105.395 93.3224Z" fill="#B2B0B0"/>
<path fill-rule="evenodd" clip-rule="evenodd" d="M41.6384 117.436L46.2609 119.327C44.0919 115.332 42.2429 115.225 40.785 108.304C39.6827 103.025 39.6116 97.4245 39.896 91.8955C41.105 68.5308 37.6203 73.2394 35.309 62.966C32.6778 60.7187 30.971 56.6879 28.7664 53.5845C27.024 57.2229 30.2243 64.4642 31.611 68.3881C37.6559 85.6887 27.9841 98.138 39.256 114.083C40.3227 115.581 40.5005 115.367 41.6384 117.436Z" fill="#0C0B3C"/>
<path fill-rule="evenodd" clip-rule="evenodd" d="M70.9741 172.156C73.1432 172.049 69.4807 171.728 68.3428 171.407C57.0709 168.125 53.444 166.912 45.159 158.066C37.9763 150.396 32.0026 145.688 22.9708 139.017C8.53428 128.352 20.8729 124.677 13.6546 108.554C10.2411 100.992 7.28975 103.917 10.9878 94.6778C12.5523 90.7183 16.6059 83.9764 16.7837 79.8742L15.6103 75.772C12.979 87.6862 6.57859 92.2878 6.43636 99.0297C6.36524 103.061 8.42761 103.81 9.9566 106.485C17.6727 119.969 7.78756 131.598 18.6328 139.124C22.793 142.014 28.1979 145.652 31.1847 148.577C36.0206 153.321 48.7148 165.985 54.2263 168.232C57.7821 169.695 67.0272 172.334 70.9741 172.156Z" fill="#28EBF7"/>
<path fill-rule="evenodd" clip-rule="evenodd" d="M176.084 118.899C172.919 128.066 166.518 134.166 161.576 138.946C150.197 149.861 153.824 146.473 147.602 158.744C153.113 157.103 156.704 151.038 160.154 148.185C176.581 134.416 172.208 135.093 177.897 127.995C178.43 122.252 179.07 121.396 178.11 115.082C177.186 116.081 177.684 115.224 176.688 117.079C176.226 117.9 176.297 118.007 176.084 118.899Z" fill="#090B3E"/>
<path fill-rule="evenodd" clip-rule="evenodd" d="M93.5537 120.397C101.234 130.991 100.879 125.177 106.248 125.89L107.03 126.176C108.31 126.675 108.026 127.496 110.942 127.246C112.719 127.068 114.391 126.104 115.742 125.926C119.76 125.462 114.746 126.39 117.484 126.104C120.329 125.783 123.849 121.36 123.849 115.189C119.369 117.401 117.591 122.038 108.239 119.719C99.0652 117.436 106.177 115.296 97.5362 118.827L93.5537 120.397Z" fill="#7E7D82"/>
<path fill-rule="evenodd" clip-rule="evenodd" d="M83.5967 68.7449C84.13 71.3489 88.2903 79.4106 93.5174 81.1228C96.1842 82.0146 100.38 82.8707 103.296 82.6567C106.46 82.4427 109.483 81.3369 111.296 78.8755C102.122 75.9148 93.5885 70.6711 83.5967 68.7449Z" fill="#05FCFC"/>
<path fill-rule="evenodd" clip-rule="evenodd" d="M170.536 56.2599C171.674 67.211 186.182 72.312 185.399 79.7316C185.008 83.4057 180.919 89.2202 179.817 92.8943C178.892 95.9621 177.328 106.699 180.35 107.983C180.243 107.769 180.172 107.52 180.137 107.377L179.71 105.415C178.821 95.2486 189.026 86.3665 188.6 73.7745C184.119 69.9577 174.945 61.1825 172.634 54.512C170.856 55.3324 171.816 53.7272 170.536 56.2599Z" fill="#28EBF7"/>
<path fill-rule="evenodd" clip-rule="evenodd" d="M130.534 119.576L130.285 128.922C135.797 129.172 137.681 127.282 141.166 124.856C145.504 121.859 149.095 123.001 152.331 120.397C152.153 120.29 151.904 120.04 151.798 120.183L145.362 118.078C145.184 117.971 144.651 117.615 144.473 117.508C143.015 116.544 144.828 117.579 143.086 116.544C138.57 119.006 137.539 120.254 130.534 119.576Z" fill="#7E7D82"/>
<path fill-rule="evenodd" clip-rule="evenodd" d="M20.3038 76.2357L20.9439 84.2618C22.9707 80.3022 22.5084 71.3131 21.4061 67.3179C19.7705 61.1467 15.4324 58.1147 14.8635 54.2978C21.9751 48.9471 38.6873 43.1684 42.5276 37.1042C36.8383 42.9187 13.9034 48.0197 11.1299 54.8686C13.2278 58.5071 15.7169 58.8994 17.6726 63.8578C19.0238 67.2465 20.3038 72.0622 20.3038 76.2357Z" fill="#2FECED"/>
<path fill-rule="evenodd" clip-rule="evenodd" d="M98.4248 23.1925C101.625 23.4422 101.625 24.1913 104.079 25.4041C116.666 31.6466 109.092 29.221 123.92 31.3612C126.409 31.7179 128.507 32.5741 130.925 32.467C133.769 32.36 136.97 30.2198 143.157 36.2482C145.432 38.4598 144.366 39.3159 147.602 40.4931C141.414 30.7905 139.743 29.0783 125.342 28.5075C119.688 28.2935 115.315 28.3648 110.515 26.2959C108.452 25.3685 99.3849 20.1961 98.4248 23.1925Z" fill="#2FECED"/>
<path fill-rule="evenodd" clip-rule="evenodd" d="M93.9086 89.5412L88.1482 87.7219L86.4414 87.9003C92.024 93.679 90.0683 91.8955 91.4551 100.35C93.8019 100.314 94.3708 99.5648 95.5087 98.5303C96.2199 100.421 95.7932 100.064 97.6422 100.706C99.7401 98.6374 101.34 96.176 100.949 92.1452C98.4956 90.861 97.8555 91.4674 95.8998 90.7183C92.8774 89.5768 95.1887 90.6826 93.9086 89.5412Z" fill="#B2B0B0"/>
<path fill-rule="evenodd" clip-rule="evenodd" d="M161.362 99.8501C160.971 95.7123 160.296 95.0345 159.015 92.0024C157.38 93.2509 155.744 94.6421 153.042 95.5696C150.482 96.4614 148.668 96.2117 146.499 97.5672C152.011 99.7431 149.806 101.955 153.006 104.523L155.886 101.134C157.202 103.096 157.238 103.81 160.616 103.132C161.256 101.99 161.398 101.705 161.362 99.8501Z" fill="#B2B0B0"/>
<path fill-rule="evenodd" clip-rule="evenodd" d="M162.536 102.954C162.358 108.126 158.98 106.806 155.851 104.416C152.828 108.59 154.357 108.304 150.766 108.197C148.846 101.348 150.09 101.17 143.832 98.0667C146.89 102.062 147.174 104.523 145.254 110.409C154.535 115.26 166.66 106.128 162.536 102.954Z" fill="#555A5B"/>
<path fill-rule="evenodd" clip-rule="evenodd" d="M96.8955 131.277C89.3927 123.143 93.553 123.036 88.966 119.113C82.8501 113.869 79.3654 118.613 73.2494 117.757C72.0404 115.117 74.1739 102.383 74.0317 97.4244L71.8982 96.925C71.9338 102.204 72.076 103.489 71.0448 108.697C66.849 129.957 79.9699 112.977 87.7571 119.648C92.2018 123.465 89.1794 129.029 96.8955 131.277Z" fill="#2FCBD5"/>
<path fill-rule="evenodd" clip-rule="evenodd" d="M142.267 102.597C136.329 109.874 138.712 105.308 133.627 106.021C132.809 106.128 131.707 106.664 130.284 106.699C127.511 104.202 127.724 101.563 124.986 98.9585C126.195 104.844 125.591 104.523 124.311 109.945C128.151 110.516 132.027 112.728 135.725 110.873C138.676 109.375 141.165 106.235 142.267 102.597Z" fill="#555A5B"/>
<path fill-rule="evenodd" clip-rule="evenodd" d="M118.728 106.164L114.675 107.841C113.039 106.842 112.577 107.27 112.968 105.165C110.408 107.805 112.933 106.557 109.483 107.27C108.523 102.347 107.101 99.3509 103.865 96.9966C104.754 101.099 105.999 103.524 104.079 108.269C109.946 112.87 116.062 113.12 118.728 106.164Z" fill="#595A5C"/>
<path fill-rule="evenodd" clip-rule="evenodd" d="M139.778 84.6185C148.348 91.6457 156.455 83.263 157.451 79.8028C154.215 78.3046 151.584 80.3379 148.561 81.7291C145.503 83.1203 142.232 83.5483 139.778 84.6185Z" fill="#17F6FA"/>
<path fill-rule="evenodd" clip-rule="evenodd" d="M164.456 44.8093C170.003 43.1685 172.03 39.9224 173.63 34.215C175.088 29.114 176.795 21.3376 175.195 16.2009C174.128 18.1985 173.95 21.4803 173.346 23.8703C171.461 31.0045 171.497 35.3208 168.865 39.423C167.301 41.8843 165.416 42.562 164.456 44.8093Z" fill="#2FECED"/>
<path fill-rule="evenodd" clip-rule="evenodd" d="M84.5931 100.671C85.9443 99.1367 85.3398 102.811 85.5531 98.3876C85.9443 90.0762 69.232 88.792 64.1828 86.9371L64.8228 76.8065L63.0805 76.0574L62.4404 87.4009C70.1565 93.0369 84.6286 88.5423 84.5931 100.671Z" fill="#51CED6"/>
<path fill-rule="evenodd" clip-rule="evenodd" d="M69.3384 76.1645C70.1918 75.4868 70.1918 77.306 69.9429 74.7734C55.613 60.7902 72.6453 62.5738 72.0408 46.807L69.7651 45.6299C71.6497 54.0483 66.316 56.7593 63.5069 61.9317C59.2044 69.7794 66.7071 71.5986 69.3384 76.1645Z" fill="#2FD8EE"/>
<path fill-rule="evenodd" clip-rule="evenodd" d="M165.096 32.3242C166.305 33.323 163.14 32.9307 167.798 33.5014C166.589 28.6144 167.692 26.1174 169.896 22.6573C172.03 19.2685 173.132 18.9832 174.27 14.0962C170.145 17.699 169.612 20.2317 161.611 22.7643C162.429 23.7275 164.1 25.2256 164.989 26.4385C165.203 26.7595 166.127 28.4004 166.198 28.8998C167.229 34.8569 166.554 31.1471 165.096 32.3242Z" fill="#7D8185"/>
<path fill-rule="evenodd" clip-rule="evenodd" d="M149.06 39.7796C149.735 36.4265 147.993 25.8321 154.358 32.2173L156.385 29.3636H160.012C155.602 24.6193 150.553 28.4718 145.931 30.0057L148.349 38.3528C148.811 39.8509 148.455 38.9592 149.06 39.7796Z" fill="#7D8185"/>
<path fill-rule="evenodd" clip-rule="evenodd" d="M79.7217 27.1163C81.0729 28.0438 81.6418 28.1864 84.1309 28.0081C90.4602 27.5444 90.9936 26.4742 91.847 32.7881C92.5937 38.2101 94.0871 37.4253 94.9049 37.782C93.6249 33.7868 94.1582 32.039 93.9093 27.8654C87.6156 22.9428 87.26 25.7965 79.7217 27.1163Z" fill="#2FECED"/>
<path fill-rule="evenodd" clip-rule="evenodd" d="M83.3485 51.801H83.1351C82.0684 47.3064 78.7615 41.7773 74.4945 39.5657C68.2363 36.3553 64.965 37.7821 63.4715 29.5777L61.4092 28.1509C63.8982 39.2803 64.076 36.0342 72.6099 40.0651C79.1882 43.2042 79.7927 49.9461 83.3485 51.801Z" fill="#51CED6"/>
<path fill-rule="evenodd" clip-rule="evenodd" d="M82.0682 21.0522L83.8817 19.8037C80.5392 17.3424 72.2186 16.4149 67.5605 14.9524C69.0895 18.9476 78.1213 20.5885 82.0682 21.0522Z" fill="#2FECED"/>
<path fill-rule="evenodd" clip-rule="evenodd" d="M162.927 53.8342L163.567 55.7248C164.207 55.1184 164.065 55.4037 164.74 54.512L166.305 51.8009C167.407 49.8747 167.478 49.732 168.012 47.5204L164.669 47.3777C164.065 51.8366 163.78 50.8378 162.927 53.8342Z" fill="#2FECED"/>
<path fill-rule="evenodd" clip-rule="evenodd" d="M52.7686 173.083L55.9332 176.223L112.719 184.498L142.197 181.359L152.189 175.937L139.814 176.829L81.3927 173.94L55.2932 172.156L52.7686 173.083Z" fill="#28EBF7"/>
<path fill-rule="evenodd" clip-rule="evenodd" d="M57.8888 7.53274C57.711 4.96441 57.711 7.14036 58.6 6.24857C59.8445 8.99527 61.6579 10.2081 63.4714 12.3484L67.5606 14.9524C72.2187 16.4149 80.5392 17.3424 83.8817 19.8037L82.0682 21.0522C80.5748 22.1223 79.9348 22.7287 78.6191 23.6919L74.9566 26.3672L79.7214 27.1163C87.2597 25.7965 87.6153 22.9428 93.909 27.8654C94.158 32.039 93.6246 33.7868 94.9047 37.782L96.0425 40.8498C98.496 38.7452 98.4249 36.0698 99.1361 32.8951C100.274 27.687 100.594 27.58 98.4249 23.1925C99.385 20.1961 108.452 25.3684 110.515 26.2959C115.315 28.3648 119.689 28.2935 125.342 28.5075C139.743 29.0782 141.415 30.7905 147.602 40.4931L148.491 41.7059L149.059 39.7796C148.455 38.9592 148.811 39.851 148.348 38.3528L145.93 30.0057C150.553 28.4718 155.602 24.6193 160.011 29.3636C162.714 29.9343 163.78 30.0414 165.096 32.3243C166.554 31.1472 167.23 34.857 166.198 28.8999C166.127 28.4005 165.203 26.7596 164.989 26.4386C164.101 25.2257 162.429 23.7275 161.611 22.7644C169.612 20.2317 170.145 17.6991 174.27 14.0963C175.017 13.3115 174.412 12.2414 175.123 14.4173C175.692 16.1652 175.337 15.1307 175.195 16.2009C176.795 21.3376 175.088 29.1139 173.63 34.2149C172.03 39.9223 170.003 43.1684 164.456 44.8093L161.114 45.273C162.18 46.3788 161.149 45.5941 162.643 46.5215C163.069 46.7712 164.456 47.3063 164.669 47.3776L168.012 47.5203C167.479 49.7319 167.407 49.8746 166.305 51.8009L164.741 54.5119C164.065 55.4037 164.207 55.1183 163.567 55.7247L162.927 53.8341C161.363 52.657 161.007 52.1576 159.549 51.1588C158.34 50.267 157.451 49.2682 156.171 48.5548C156.847 53.6558 159.656 56.1885 160.047 60.6117C161.398 62.6806 162.109 67.1752 162.18 70.1003L160.829 76.2001C153.646 72.8113 154.642 72.4903 144.117 76.5568C133.947 80.4806 135.512 75.3796 132.098 73.0253C130.036 71.6341 132.561 71.8838 130.854 72.7756C129.325 78.5544 132.276 80.4093 133.343 82.4782C135.69 87.1155 135.192 88.1143 138.712 91.289C145.148 97.1035 154.642 91.5031 157.985 88.3997L158.802 90.2546L159.016 92.0025C160.296 95.0345 160.971 95.7123 161.363 99.8502C162.998 101.562 162.429 100.778 162.536 102.954C166.661 106.128 154.535 115.26 145.255 110.409C147.175 104.523 146.89 102.062 143.832 98.0666L143.086 99.8502C143.015 100.029 142.944 100.243 142.908 100.421C142.552 101.455 142.872 101.455 142.268 102.597C141.166 106.235 138.677 109.374 135.725 110.873C132.027 112.728 128.151 110.516 124.311 109.945C125.591 104.523 126.196 104.844 124.987 98.9584L124.204 96.8181C122.142 100.064 121.395 104.024 118.729 106.164C116.062 113.12 109.946 112.87 104.079 108.269C105.999 103.524 104.754 101.099 103.865 96.9965L101.661 101.063C97.1448 112.977 82.566 112.371 84.5929 100.671C84.6284 88.5424 70.1563 93.0369 62.4402 87.4009L63.0803 76.0574L64.8226 76.8065C67.3117 76.8778 68.4495 77.4842 69.943 78.2333L69.3385 76.1644C66.7072 71.5985 59.2044 69.7792 63.507 61.9315C66.316 56.7592 71.6497 54.0482 69.7652 45.6297L72.0409 46.8069C74.5655 48.1624 74.7788 49.0542 77.0546 50.6237C77.3746 50.8021 79.4014 52.0506 79.8281 52.2289C83.9884 53.8341 82.566 52.8354 83.3483 51.8009C79.7925 49.946 79.188 43.2041 72.6098 40.065C64.0759 36.0341 63.8981 39.2802 61.409 28.1508L63.4714 29.5776C67.1339 30.2911 64.5381 29.97 65.2849 29.2209C63.5425 27.5087 61.5513 22.7644 60.3779 20.0891C58.4933 15.6658 57.9955 12.7408 57.8888 7.53274Z" fill="#090C3F"/>
<path fill-rule="evenodd" clip-rule="evenodd" d="M139.778 84.6185C142.232 83.5483 145.503 83.1203 148.561 81.7291C151.584 80.3379 154.215 78.3046 157.451 79.8028C156.455 83.263 148.348 91.6457 139.778 84.6185Z" fill="#090C3F"/>
<path fill-rule="evenodd" clip-rule="evenodd" d="M74.0317 97.4244C85.4814 98.2806 77.5519 106.949 84.1302 113.298C89.6772 118.649 98.3889 115.082 101.909 111.194C104.612 113.405 106.318 117.258 111.83 117.721C117.412 118.185 120.826 114.654 123.208 111.693L124.915 113.655C131.529 121.039 137.609 117.507 143.085 113.156C143.192 113.263 143.37 113.298 143.405 113.548C143.832 115.367 143.548 113.726 144.116 114.333C148.028 118.542 151.868 118.578 157.308 117.614C156.455 124.178 151.335 122.501 142.943 128.102C138.463 131.063 131.813 135.949 124.133 133.809C125.164 131.812 126.8 130.848 127.546 128.316C128.222 125.926 127.973 122.608 127.831 120.004C124.808 122.109 123.208 127.067 119.19 129.957C115.492 132.596 109.021 135.165 103.509 133.774L109.874 130.67L96.8955 131.277C89.1794 129.029 92.2018 123.465 87.7571 119.648C79.9699 112.977 66.849 129.957 71.0448 108.697C72.076 103.489 71.9338 102.204 71.8982 96.925L74.0317 97.4244Z" fill="#090C3F"/>
<path fill-rule="evenodd" clip-rule="evenodd" d="M177.897 150.718C178.786 149.505 181.098 147.65 182.2 146.116C188.245 137.448 188.636 128.209 191.267 121.681L191.765 111.871C190.912 108.376 190.094 104.916 189.276 101.313L189.383 100.956C188.956 97.2819 187.534 95.1059 189.56 91.5388C190.876 89.2201 192.156 86.5448 193.472 84.6899C196.21 71.8125 195.534 72.8113 189.24 66.2835C188.209 65.2133 187.996 65.1063 187.107 64.1432C185.471 62.538 186.182 63.6081 185.045 61.5035C180.92 59.3632 177.826 54.94 173.737 51.9792C174.626 42.2053 175.124 45.0233 177.969 40.065L178.893 38.1388L178.857 37.7821L179.284 34.9997C179.284 34.7143 179.284 30.5051 179.675 28.9356C179.889 28.1508 180.031 26.9736 180.173 25.8322C180.315 24.655 180.386 23.5135 180.458 22.6931C180.6 21.1592 179.711 17.0927 179.675 16.8786L176.866 7.06903L174.377 8.06783L167.479 14.453L159.656 18.8049L156.1 20.9095H156.065C156.065 20.9095 150.624 21.6943 149.309 22.1223C148.171 22.4434 145.824 22.4077 144.188 22.372C143.868 22.372 143.584 22.372 143.264 22.372C142.624 22.372 141.344 22.479 139.921 22.5861C138.001 22.7287 135.797 22.9071 134.339 22.9071C133.059 22.9071 132.241 22.8714 131.103 22.6931C129.965 22.479 128.578 22.1223 126.161 21.4446C123.209 20.6241 121.858 20.3388 120.649 20.1247C119.902 19.9464 119.191 19.8394 118.196 19.554C116.987 19.2686 114.711 18.9119 112.328 18.5552C109.342 18.0915 106.212 17.6277 104.719 17.164C103.652 16.843 102.301 16.6289 100.985 16.4863C99.0653 16.3079 97.2874 16.3079 96.8252 16.3792C96.3629 16.4506 94.4072 16.1652 92.5582 15.9155C91.207 15.7372 89.9269 15.5588 89.358 15.5588C88.7891 15.5231 87.7935 15.6302 86.7978 15.7015C85.5889 15.8085 84.3443 15.9155 83.7398 15.8442C82.922 15.7372 80.9663 14.8097 79.544 14.0963C79.0817 13.8823 78.655 13.6682 78.335 13.5612C77.1616 13.0261 72.4324 12.0987 72.3968 12.0987H72.3613C69.6233 10.3865 66.9209 8.67424 64.1829 6.96202L58.6715 0.00610352C57.8536 0.291474 53.6222 1.754 53.0533 2.89548C52.4488 4.14398 51.9154 7.17604 51.8799 7.49709C51.9154 7.8538 52.271 11.4209 52.5555 12.9191C52.8044 14.4887 53.4089 19.233 53.48 19.5897L56.0757 26.2245V26.2602C56.218 26.1889 56.3246 26.1532 56.4313 26.1175C57.178 39.4943 57.9959 40.5644 67.0987 44.8807C66.1031 55.6177 51.4176 55.154 58.1381 72.4189C62.085 82.6566 46.724 90.8967 68.4499 96.2831C68.9122 103.952 56.858 124.285 72.2191 125.855C76.8771 126.354 80.4329 123.679 83.6687 124.356C89.5002 129.885 85.5177 136.984 99.4209 135.2C105.075 143.583 115.529 139.659 122.498 135.093C122.64 135.165 122.889 135.165 122.96 135.379L125.769 137.091C136.437 141.764 146.535 131.17 154.82 129.636C162.999 124.927 161.683 124.998 164.172 115.118C166.092 107.484 173.382 108.554 165.808 98.2807C161.896 93.0013 164.03 84.4045 166.377 78.9111C170.857 68.4237 167.834 68.3881 165.808 59.1492L170.537 56.2598C171.817 53.7271 170.857 55.3324 172.635 54.5119C174.946 61.1825 184.12 69.9576 188.6 73.7744C189.027 86.3664 178.822 95.2486 179.711 105.415L180.138 107.377C180.173 107.52 180.244 107.769 180.351 107.983C181.738 103.917 183.16 102.49 184.618 99.5648C186.147 98.4233 185.542 103.845 186.04 109.16C187.214 121.396 182.804 129.315 178.857 138.732C177.435 142.156 176.155 143.762 173.559 145.973C170.608 148.47 169.861 148.328 167.514 152.037C165.132 155.854 159.905 164.201 158.909 167.519C160.012 168.446 160.403 169.088 161.292 169.873L165.843 163.952L174.164 155.105L177.897 150.718Z" fill="#090C3F"/>
<path fill-rule="evenodd" clip-rule="evenodd" d="M27.0244 153.535C29.5135 155.426 31.4692 156.389 33.1048 159.314C36.4473 161.562 37.6563 164.38 44.1989 169.017C46.5457 170.693 48.5014 171.407 50.5282 173.369C53.6218 176.365 56.9998 178.47 60.6267 179.968L61.9068 180.075C70.4052 183.107 80.2192 183.606 91.7044 185.319C106.07 187.423 122.818 189.706 137.539 186.175H137.432C145.539 184.07 152.935 180.075 158.767 173.119C158.198 171.442 157.7 172.156 156.74 169.909C155.602 170.337 156.527 169.98 155.389 170.551C149.379 173.618 147.175 174.51 139.992 173.654C141.201 174.867 142.055 175.438 144.615 175.83C146.713 176.151 148.775 176.044 150.873 176.151L148.491 177.364C130.569 183.285 121.68 182.893 101.341 180.574C86.6907 178.898 67.3827 178.22 54.4752 174.046L65.5337 174.296L72.7164 173.654C69.0184 172.655 72.6809 173.868 70.9741 172.156C67.0272 172.334 57.7821 169.695 54.2263 168.232C48.7148 165.985 36.0206 153.321 31.1847 148.577C28.1978 145.652 22.793 142.014 18.6327 139.124C7.78754 131.598 17.6727 119.969 9.95658 106.485C8.42759 103.81 6.36522 103.061 6.43634 99.0297C6.57857 92.2878 12.979 87.6862 15.6103 75.7719L16.7837 79.8741L19.2017 92.0024C20.1973 89.3271 20.2328 80.3379 20.304 76.2357C20.304 72.0621 19.0239 67.2465 17.6727 63.8577C15.717 58.8994 13.2279 58.507 11.13 54.8685C13.9035 48.0196 36.8384 42.9186 42.5277 37.1042C43.7367 34.1792 41.8521 37.2469 43.5233 35.5703C44.4123 34.6786 43.9856 35.1066 44.8034 34.5715C45.6924 34.0008 47.0436 33.3587 48.1814 32.7523C49.0704 31.2898 51.8083 28.4361 54.5463 26.9379V26.7595L42.8122 30.0056C42.4921 30.505 42.7766 30.291 41.6032 31.4325L35.9495 34.9996C24.5354 40.8497 -7.14681 47.4846 9.63656 61.9671C13.9035 65.6413 12.5168 70.0289 10.49 76.3784C10.3833 76.6637 9.77879 78.3046 9.70767 78.4473C9.63656 78.59 9.52988 78.7683 9.45877 78.9467L7.89422 80.6946C6.57857 86.295 -2.73762 93.1082 0.782619 103.631L4.23174 109.945C5.61851 111.194 4.58732 109.838 5.93853 111.943C8.03645 115.153 10.3833 125.462 10.2055 128.922C10.0988 131.705 9.95658 133.06 9.77879 134.023C9.77879 134.023 12.6945 138.482 13.3701 139.945C14.0102 141.443 18.4194 144.368 18.4194 144.368L22.153 147.828L27.0244 153.535Z" fill="#090C3F"/>
<path fill-rule="evenodd" clip-rule="evenodd" d="M48.1816 32.7523C46.6526 35.9984 42.5634 45.1659 40.8922 47.0565C34.4562 54.2264 34.5273 49.5892 35.3096 62.9659C37.6209 73.2393 41.1056 68.5307 39.8966 91.8954C39.6121 97.4244 39.6832 103.025 40.7855 108.304C42.2434 115.224 44.0924 115.331 46.2615 119.327L41.6389 117.436C33.8873 113.405 30.1181 105.986 28.4469 95.7836C27.3091 97.1391 26.989 97.3531 26.7046 101.17C26.5268 103.596 26.5979 105.807 26.3846 108.197L23.9666 99.315C21.7976 106.128 24.6067 117.686 27.3446 122.501C31.2916 129.386 34.8474 134.487 41.1767 137.769C41.07 135.236 40.8211 130.634 41.6034 128.173C42.0301 126.675 42.0301 127.032 42.2434 126.604C46.6526 132.418 49.7817 138.018 55.6843 143.976C60.5558 148.898 66.5295 153.286 75.3835 155.426C92.8424 159.635 106.354 154.891 120.542 164.308L124.88 168.375C116.631 167.768 103.368 167.911 95.7582 170.23C100.167 173.297 121.644 176.294 129.823 174.796C131.494 174.475 133.236 173.975 134.481 173.048C135.832 172.049 135.548 172.049 136.117 171.157L137.397 168.945C148.313 170.444 153.255 171.193 160.723 157.352C163.425 152.287 164.456 150.361 167.976 146.829C170.43 144.332 175.87 140.266 178.857 138.732C182.804 129.315 187.213 121.396 186.04 109.16C185.542 103.845 186.147 98.4232 184.618 99.5647C185.187 105.843 184.404 111.194 183.338 117.293C182.875 119.933 182.057 122.18 181.311 124.606C180.244 128.209 180.173 129.564 177.933 131.348L177.897 127.995C172.208 135.093 176.581 134.416 160.154 148.185C156.705 151.038 153.113 157.103 147.602 158.743C153.824 146.473 150.197 149.861 161.576 138.946C166.519 134.166 172.919 128.066 176.084 118.899C172.421 121.752 170.963 127.852 158.127 137.59C144.579 147.828 138.926 147.364 134.623 150.289C137.503 151.93 141.984 151.467 145.646 151.217C141.415 157.994 129.183 156.46 121.253 155.676C113.502 154.927 102.301 154.213 95.047 152.786C98.7451 152.358 103.225 150.789 105.572 148.827C92.558 147.935 86.0509 148.648 74.6723 143.44C67.8096 140.301 57.64 132.061 56.0755 125.355C59.9513 127.246 62.9026 131.063 67.5963 133.06L63.9694 125.926C70.6187 127.959 73.6056 126.96 80.2905 127.923C86.442 134.202 80.5394 137.84 95.1537 139.945C101.767 140.908 102.941 147.971 116.773 142.477C123.742 139.731 119.618 140.052 126.303 142.121C136.081 145.188 151.3 134.059 154.82 129.636C146.535 131.17 136.437 141.764 125.769 137.091L122.96 135.379C122.889 135.165 122.64 135.165 122.498 135.093C115.528 139.659 105.074 143.583 99.4207 135.2C85.5175 136.984 89.5 129.885 83.6685 124.356C80.4327 123.679 76.8769 126.354 72.2188 125.854C56.8578 124.285 68.9119 103.952 68.4497 96.283C46.7237 90.8966 62.0848 82.6565 58.1378 72.4188C51.4174 55.1539 66.1028 55.6176 67.0985 44.8806C57.9956 40.5643 57.1778 39.4942 56.4311 26.1174C53.1597 27.0806 49.2839 30.9331 48.1816 32.7523Z" fill="#807E84"/>
<path fill-rule="evenodd" clip-rule="evenodd" d="M43.6297 136.057C45.4076 137.805 47.5411 140.765 49.5679 142.977C53.7993 147.614 66.1024 156.639 72.7873 158.173C86.2637 161.241 104.789 159.136 115.955 165.7C101.056 165.878 81.3567 167.447 67.7025 163.31C60.8042 161.241 43.9853 147.364 43.6297 136.057ZM42.5274 37.1043C38.6871 43.1685 21.9749 48.9472 14.8633 54.2979C15.4322 58.1148 19.7703 61.1468 21.406 67.318C22.5083 71.3132 22.9705 80.3023 20.9437 84.2619L20.3037 76.2358C20.2325 80.338 20.197 89.3272 19.2014 92.0025L16.7834 79.8743C16.6056 83.9765 12.552 90.7184 10.9875 94.6779C7.28944 103.917 10.2408 100.992 13.6543 108.554C20.8726 124.677 8.53397 128.352 22.9705 139.017C32.0022 145.688 37.976 150.397 45.1587 158.066C53.4437 166.912 57.0706 168.125 68.3425 171.407C69.4804 171.728 73.1428 172.049 70.9738 172.156C72.6806 173.868 69.0181 172.655 72.7161 173.654L65.5334 174.296C71.5427 174.332 80.3611 175.652 86.5482 176.401C93.6954 177.221 100.38 177.899 107.35 178.898C130.356 182.215 147.779 177.221 148.49 177.364L150.873 176.151C148.775 176.044 146.712 176.151 144.614 175.83C142.054 175.438 141.201 174.867 139.992 173.654C147.175 174.51 149.379 173.619 155.388 170.551C156.526 169.98 155.602 170.337 156.74 169.909L158.909 167.519C159.904 164.201 165.131 155.854 167.514 152.037C169.861 148.328 170.607 148.47 173.559 145.973C176.154 143.762 177.434 142.156 178.857 138.732C175.87 140.266 170.43 144.332 167.976 146.829C164.456 150.361 163.425 152.287 160.722 157.352C153.255 171.193 148.312 170.444 137.396 168.946L136.116 171.157C135.547 172.049 135.832 172.049 134.48 173.048C133.236 173.975 131.493 174.475 129.822 174.796C121.644 176.294 100.167 173.298 95.7577 170.23C103.367 167.911 116.63 167.768 124.88 168.375L120.542 164.308C106.354 154.891 92.842 159.635 75.383 155.426C66.5291 153.286 60.5553 148.898 55.6839 143.976C49.7812 138.019 46.6521 132.418 42.2429 126.604C42.0296 127.032 42.0296 126.675 41.6029 128.173C40.8206 130.635 41.0695 135.236 41.1762 137.769C34.8469 134.487 31.2911 129.386 27.3441 122.502C24.6062 117.686 21.7971 106.128 23.9661 99.3152L26.3841 108.197C26.5974 105.807 26.5263 103.596 26.7041 101.17C26.9886 97.3532 27.3086 97.1392 28.4464 95.7837C30.1177 105.986 33.8868 113.405 41.6385 117.436C40.5006 115.367 40.3228 115.581 39.2561 114.083C27.9842 98.138 37.656 85.6887 31.6111 68.3881C30.2243 64.4643 27.0241 57.223 28.7665 53.5845C30.9711 56.6879 32.6778 60.7188 35.3091 62.9661C34.5269 49.5893 34.4557 54.2266 40.8917 47.0567C42.563 45.1661 46.6521 35.9985 48.1811 32.7524C47.0433 33.3589 45.6921 34.0009 44.8031 34.5717C43.9853 35.1068 44.412 34.6787 43.523 35.5705C41.8518 37.247 43.7364 34.1793 42.5274 37.1043Z" fill="#555A5B"/>
<path fill-rule="evenodd" clip-rule="evenodd" d="M160.047 60.6117C159.656 56.1885 156.847 53.6558 156.171 48.5548C157.451 49.2682 158.34 50.267 159.549 51.1588C161.007 52.1576 161.363 52.657 162.927 53.8342C163.781 50.8378 164.065 51.8366 164.67 47.3776C164.456 47.3063 163.07 46.7712 162.643 46.5215C161.149 45.5941 162.181 46.3788 161.114 45.273L164.456 44.8093C165.416 42.562 167.301 41.8843 168.866 39.4229C171.497 35.3207 171.461 31.0045 173.346 23.8702C173.95 21.4803 174.128 18.1985 175.195 16.2009C175.337 15.1308 175.693 16.1652 175.124 14.4173C174.413 12.2414 175.017 13.3115 174.27 14.0963C173.133 18.9833 172.03 19.2686 169.897 22.6574C167.692 26.1175 166.59 28.6145 167.799 33.5015C163.141 32.9308 166.305 33.3231 165.096 32.3243C163.781 30.0414 162.714 29.9344 160.012 29.3636H156.385L154.358 32.2173C147.993 25.8322 149.735 36.4265 149.06 39.7797L148.491 41.7059L147.602 40.4931C144.366 39.3159 145.433 38.4598 143.157 36.2482C136.97 30.2197 133.77 32.36 130.925 32.467C128.507 32.574 126.409 31.7179 123.92 31.3612C109.093 29.2209 116.666 31.6466 104.079 25.4041C101.625 24.1913 101.625 23.4422 98.4252 23.1925C100.594 27.5801 100.274 27.6871 99.1363 32.8951C98.4252 36.0698 98.4963 38.7452 96.0428 40.8498L94.9049 37.7821C94.0871 37.4253 92.5937 38.2101 91.847 32.7881C90.9936 26.4742 90.4602 27.5444 84.1309 28.0081C81.6418 28.1865 81.0729 28.0438 79.7217 27.1163L74.9569 26.3672L78.6194 23.6919C79.935 22.7287 80.5751 22.1223 82.0685 21.0522C78.1216 20.5885 69.0898 18.9476 67.5608 14.9524L63.4717 12.3484C63.7917 15.8442 65.3918 14.7384 70.0499 21.3019C72.7879 25.1901 72.4323 28.0438 77.6593 30.0057C87.5089 33.7512 81.5351 30.9688 84.5931 39.4586C86.4066 44.5596 89.8201 44.4883 93.2337 47.1636C94.8338 49.8746 94.6916 52.5143 97.7496 54.7973C101.519 57.5797 102.799 56.0458 106.817 56.4738C114.782 57.2943 111.546 63.6795 125.343 57.651C125.84 58.5071 126.516 59.8269 127.227 60.6117C131.423 60.576 129.325 58.7211 134.232 62.2883C142.553 68.3167 147.14 62.431 150.553 62.966C154.536 63.5368 155.14 65.5344 159.763 63.6081L160.047 60.6117Z" fill="#B2B2B2"/>
<path fill-rule="evenodd" clip-rule="evenodd" d="M154.82 129.636C151.299 134.059 136.081 145.188 126.302 142.121C119.617 140.052 123.742 139.731 116.773 142.477C102.941 147.971 101.767 140.908 95.1534 139.945C80.5391 137.84 86.4417 134.202 80.2902 127.923C73.6053 126.96 70.6184 127.959 63.9691 125.926L67.596 133.06C62.9023 131.063 59.951 127.246 56.0752 125.355C57.6397 132.061 67.8093 140.301 74.672 143.441C86.0506 148.649 92.5577 147.935 105.572 148.827C103.225 150.789 98.7448 152.358 95.0468 152.786C102.301 154.213 113.501 154.927 121.253 155.676C129.182 156.461 141.414 157.994 145.646 151.217C141.983 151.467 137.503 151.93 134.623 150.289C138.925 147.364 144.579 147.828 158.127 137.59C170.963 127.852 172.421 121.752 176.083 118.899C176.297 118.007 176.226 117.9 176.688 117.079C177.684 115.224 177.186 116.081 178.11 115.082C179.07 121.396 178.43 122.252 177.897 127.995L177.932 131.348C180.173 129.564 180.244 128.209 181.31 124.606C182.057 122.18 182.875 119.933 183.337 117.293C184.404 111.194 185.186 105.843 184.617 99.5648C183.159 102.49 181.737 103.917 180.35 107.983C177.328 106.699 178.892 95.962 179.817 92.8942C180.919 89.2201 185.008 83.4057 185.4 79.7315C186.182 72.3119 171.674 67.2109 170.536 56.2598L165.807 59.1491C167.834 68.388 170.856 68.4237 166.376 78.9111C164.029 84.4045 161.896 93.0012 165.807 98.2806C173.381 108.554 166.092 107.484 164.171 115.117C161.682 124.998 162.998 124.927 154.82 129.636Z" fill="#B2B2B2"/>
<path fill-rule="evenodd" clip-rule="evenodd" d="M76.6277 68.9231C80.1124 55.9744 109.91 72.3475 113.217 73.4177C118.515 75.1299 120.862 70.2786 123.28 68.388C121.182 80.2666 118.017 75.558 114.675 81.194C106.319 95.1772 79.5079 90.5756 81.3214 68.2097L76.6277 68.9231ZM63.4713 29.5776C64.9647 37.782 68.236 36.3552 74.4943 39.5656C78.7612 41.7772 82.0681 47.3063 83.1348 51.8008H83.3482C82.5659 52.8353 83.9882 53.8341 79.828 52.2289C79.4013 52.0505 77.3745 50.8021 77.0544 50.6237C74.7787 49.0542 74.5654 48.1624 72.0408 46.8069C72.6452 62.5736 55.613 60.79 69.9428 74.7732C70.1917 77.3059 70.1917 75.4866 69.3383 76.1644L69.9428 78.2333C68.4494 77.4842 67.3115 76.8778 64.8225 76.8065L64.1824 86.9371C69.2317 88.792 85.9439 90.0762 85.5528 98.3876C85.3394 102.811 85.9439 99.1367 84.5927 100.671C82.5659 112.371 97.1447 112.977 101.661 101.063L103.865 96.9964C102.621 95.9976 106.105 96.176 101.732 96.176C101.376 101.42 96.7891 105.914 92.6288 103.31C91.7754 105.415 91.9532 105.772 89.5708 105.772C87.0818 101.741 89.9975 94.3211 85.5172 91.2177C81.0725 88.1499 75.4899 90.8966 73.3208 84.7612L75.7032 82.9063C75.8099 82.8349 76.0232 82.7636 76.1299 82.6566C75.0276 80.6233 74.8854 77.6269 75.6677 75.5223C82.1392 74.5592 79.5435 80.4449 85.8373 85.8313C86.015 85.974 86.5484 86.4021 86.6906 86.5447C86.8684 86.6517 87.0462 86.7944 87.1885 86.9015L88.1485 87.7219L93.9089 89.5411C99.2426 89.7552 111.581 91.5031 115.919 83.584C115.848 86.2594 114.248 88.1499 113.608 90.1832C118.302 87.5079 120.613 77.9123 126.658 80.3736C130.463 82.0501 128.827 86.7231 134.232 91.6101C133.2 89.1844 133.236 88.8277 134.054 87.3295C140.454 102.74 156.704 90.6826 158.802 90.2546L157.984 88.3997C154.642 91.5031 145.148 97.1035 138.712 91.289C135.192 88.1143 135.69 87.1155 133.343 82.4782C132.276 80.4093 129.325 78.5544 130.854 72.7756C132.56 71.8838 130.036 71.6341 132.098 73.0253C135.512 75.3796 133.947 80.4806 144.117 76.5568C154.642 72.4902 153.646 72.8113 160.829 76.2001L162.18 70.1003C157.131 72.0978 156.74 70.0646 152.793 69.2085C146.144 67.7816 139.672 79.0538 130.285 66.5688C125.484 70.4926 125.164 66.6401 123.209 63.1443C117.519 67.4962 107.457 66.2121 100.558 62.6806C95.189 59.8982 94.3356 61.6461 88.5041 60.576C80.6458 59.1491 82.1392 60.897 76.4144 61.1824C76.1655 58.079 76.8411 56.7948 78.4767 54.6546C83.0282 54.7616 87.1173 55.2966 90.0331 52.3359C81.2503 47.0566 81.3214 35.8558 79.5435 34.6073C75.4543 33.6085 73.392 34.7856 69.4806 32.788C71.4363 31.8962 71.4718 32.7524 73.4631 31.3612C68.9116 26.7952 69.2317 23.3351 65.8537 19.0546C57.7109 8.70987 62.7601 14.9167 57.8887 7.53271C57.9953 12.7407 58.4932 15.6658 60.3777 20.089C61.5511 22.7644 63.5424 27.5087 65.2847 29.2209C64.538 29.97 67.1337 30.291 63.4713 29.5776Z" fill="#555A5B"/>
<path fill-rule="evenodd" clip-rule="evenodd" d="M57.8888 7.53274C62.7602 14.9167 57.711 8.7099 65.8538 19.0546C69.2318 23.3351 68.9118 26.7953 73.4632 31.3612C71.472 32.7524 71.4364 31.8963 69.4807 32.7881C73.3921 34.7856 75.4544 33.6085 79.5436 34.6073C81.3215 35.8558 81.2504 47.0566 90.0332 52.3359C87.1175 55.2967 83.0283 54.7616 78.4769 54.6546C76.8412 56.7949 76.1656 58.079 76.4145 61.1824C82.1394 60.8971 80.6459 59.1492 88.5042 60.576C94.3357 61.6462 95.1891 59.8983 100.558 62.6806C107.457 66.2121 117.52 67.4963 123.209 63.1444C125.165 66.6402 125.485 70.4927 130.285 66.5688C139.672 79.0538 146.144 67.7816 152.793 69.2085C156.74 70.0646 157.131 72.0979 162.18 70.1003C162.109 67.1752 161.398 62.6806 160.047 60.6117L159.762 63.6081C155.14 65.5343 154.535 63.5368 150.553 62.966C147.139 62.4309 142.552 68.3167 134.232 62.2883C129.325 58.7211 131.423 60.576 127.227 60.6117C126.516 59.8269 125.84 58.5071 125.342 57.651C111.546 63.6794 114.782 57.2943 106.817 56.4738C102.799 56.0458 101.518 57.5796 97.7493 54.7973C94.6913 52.5143 94.8336 49.8746 93.2334 47.1636C89.8199 44.4883 86.4063 44.5596 84.5929 39.4586C81.5349 30.9688 87.5086 33.7512 77.659 30.0057C72.432 28.0438 72.7876 25.1901 70.0496 21.3019C65.3915 14.7384 63.7914 15.8442 63.4714 12.3484C61.6579 10.2081 59.8445 8.99527 58.6 6.24857C57.711 7.14036 57.711 4.96441 57.8888 7.53274Z" fill="#7E7D82"/>
<path fill-rule="evenodd" clip-rule="evenodd" d="M130.533 119.576C137.538 120.254 138.569 119.006 143.085 116.544C144.828 117.579 143.014 116.544 144.472 117.508C144.65 117.615 145.183 117.971 145.361 118.078L151.797 120.183C151.904 120.04 152.153 120.29 152.33 120.397C149.095 123.001 145.503 121.859 141.165 124.856C137.68 127.281 135.796 129.172 130.284 128.922L130.533 119.576ZM97.5355 118.827C106.176 115.296 99.0645 117.436 108.238 119.719C117.59 122.038 119.368 117.401 123.848 115.189C123.848 121.36 120.328 125.783 117.484 126.104C114.746 126.39 119.759 125.462 115.741 125.926C114.39 126.104 112.719 127.067 110.941 127.246C108.025 127.496 108.31 126.675 107.029 126.176L106.247 125.89C100.878 125.177 101.234 130.991 93.553 120.397L97.5355 118.827ZM96.8955 131.277L109.874 130.67L103.509 133.774C109.021 135.165 115.492 132.597 119.19 129.957C123.208 127.067 124.808 122.109 127.831 120.005C127.973 122.609 128.222 125.926 127.546 128.316C126.8 130.849 125.164 131.812 124.133 133.809C131.813 135.95 138.463 131.063 142.943 128.102C151.335 122.502 156.455 124.178 157.308 117.615C151.868 118.578 148.028 118.542 144.116 114.333C143.548 113.726 143.832 115.367 143.405 113.548C143.37 113.298 143.192 113.263 143.085 113.156C137.609 117.508 131.529 121.039 124.915 113.655L123.208 111.693C120.826 114.654 117.412 118.185 111.83 117.722C106.318 117.258 104.612 113.405 101.909 111.194C98.3889 115.082 89.6772 118.649 84.1302 113.298C77.5519 106.949 85.4814 98.2807 74.0317 97.4246C74.1739 102.383 72.0404 115.118 73.2494 117.757C79.3654 118.613 82.8501 113.869 88.966 119.113C93.553 123.037 89.3927 123.144 96.8955 131.277Z" fill="#555A5B"/>
<path fill-rule="evenodd" clip-rule="evenodd" d="M105.395 93.3223C111.155 88.3996 109.057 96.1046 116.702 90.3615C119.867 88.0072 121.929 83.5483 125.343 82.3712C130.179 84.9752 128.756 89.6481 134.694 93.9643C139.744 97.6028 136.259 91.2533 139.495 96.1403C141.877 99.7431 139.957 101.42 138.108 103.346C135.014 103.346 135.939 101.42 132.632 102.525C129.823 103.489 130.605 102.062 127.903 97.8525C126.552 95.7479 125.663 95.5696 124.134 93.4293C121.751 95.6409 122.391 98.4589 117.555 103.132L113.004 102.026C109.91 101.099 111.013 101.705 109.519 99.9215C107.813 97.9239 105.786 95.4269 105.395 93.3223ZM103.866 96.9964C107.101 99.3507 108.524 102.347 109.484 107.27C112.933 106.556 110.408 107.805 112.968 105.165C112.577 107.27 113.04 106.842 114.675 107.84L118.729 106.164C121.396 104.024 122.142 100.064 124.205 96.818L124.987 98.9583C127.725 101.562 127.512 104.202 130.285 106.699C131.708 106.663 132.81 106.128 133.628 106.021C138.712 105.308 136.33 109.874 142.268 102.597C142.873 101.455 142.553 101.455 142.908 100.421C142.944 100.242 143.015 100.028 143.086 99.8501L143.833 98.0665C150.091 101.17 148.846 101.348 150.767 108.197C154.358 108.304 152.829 108.59 155.851 104.416C158.98 106.806 162.358 108.126 162.536 102.954C162.43 100.778 162.999 101.562 161.363 99.8501C161.398 101.705 161.256 101.99 160.616 103.132C157.238 103.81 157.203 103.096 155.887 101.134L153.007 104.523C149.807 101.955 152.011 99.7431 146.5 97.5671C148.669 96.2116 150.482 96.4613 153.042 95.5696C155.745 94.6421 157.38 93.2509 159.016 92.0024L158.803 90.2545C156.705 90.6826 140.455 102.739 134.054 87.3295C133.236 88.8277 133.201 89.1844 134.232 91.61C128.827 86.7231 130.463 82.0501 126.658 80.3736C120.613 77.9122 118.302 87.5078 113.608 90.1832C114.249 88.1499 115.849 86.2593 115.92 83.584C111.582 91.503 99.2431 89.7551 93.9094 89.5411C95.1895 90.6826 92.8782 89.5768 95.9006 90.7182C97.8563 91.4673 98.4963 90.8609 100.95 92.1451C101.341 96.176 99.7409 98.6373 97.643 100.706C95.7939 100.064 96.2206 100.421 95.5095 98.5303C94.3716 99.5647 93.8027 100.314 91.4559 100.35C90.0691 91.8954 92.0248 93.679 86.4422 87.9002L88.149 87.7219L87.1889 86.9014C87.0467 86.7944 86.8689 86.6517 86.6911 86.5447C86.5489 86.402 86.0155 85.974 85.8377 85.8313C79.5439 80.4449 82.1397 74.5591 75.6681 75.5223C74.8858 77.6269 75.0281 80.6233 76.1304 82.6565C76.0237 82.7635 75.8103 82.8349 75.7037 82.9062L73.3213 84.7611C75.4903 90.8966 81.0729 88.1499 85.5177 91.2176C89.998 94.3211 87.0822 101.741 89.5713 105.772C91.9537 105.772 91.7759 105.415 92.6293 103.31C96.7896 105.914 101.377 101.42 101.732 96.176C106.106 96.176 102.621 95.9976 103.866 96.9964Z" fill="#7E7D82"/>
<path fill-rule="evenodd" clip-rule="evenodd" d="M83.5973 68.7448C93.5891 70.6711 102.123 75.9148 111.297 78.8755C109.484 81.3368 106.461 82.4426 103.296 82.6566C100.381 82.8707 96.1848 82.0146 93.518 81.1228C88.2909 79.4106 84.1307 71.3488 83.5973 68.7448ZM76.6279 68.9232L81.3216 68.2098C79.5081 90.5757 106.319 95.1773 114.675 81.1941C118.017 75.558 121.182 80.2667 123.28 68.3881C120.862 70.2787 118.515 75.13 113.217 73.4178C109.91 72.3476 80.1126 55.9745 76.6279 68.9232Z" fill="#090C3F"/>
<path fill-rule="evenodd" clip-rule="evenodd" d="M49.5681 142.977C47.5413 140.765 45.4078 137.805 43.6299 136.057C43.9855 147.364 60.8044 161.241 67.7026 163.31C81.3569 167.447 101.056 165.878 115.955 165.7C104.79 159.136 86.2639 161.241 72.7874 158.173C66.1025 156.639 53.7995 147.614 49.5681 142.977Z" fill="#0C0B3C"/>
<path fill-rule="evenodd" clip-rule="evenodd" d="M105.395 93.3224C105.786 95.427 107.812 97.924 109.519 99.9216C111.013 101.705 109.91 101.099 113.004 102.026L117.555 103.132C122.391 98.4591 121.751 95.6411 124.134 93.4295C125.663 95.5697 126.552 95.7481 127.903 97.8527C130.605 102.062 129.823 103.489 132.632 102.526C135.939 101.42 135.014 103.346 138.108 103.346C139.957 101.42 141.877 99.7433 139.495 96.1405C136.259 91.2535 139.744 97.603 134.694 93.9645C128.756 89.6483 130.178 84.9753 125.343 82.3713C121.929 83.5485 119.867 88.0074 116.702 90.3617C109.057 96.1048 111.155 88.3998 105.395 93.3224Z" fill="#B2B0B0"/>
<path fill-rule="evenodd" clip-rule="evenodd" d="M41.6384 117.436L46.2609 119.327C44.0919 115.332 42.2429 115.225 40.785 108.304C39.6827 103.025 39.6116 97.4245 39.896 91.8955C41.105 68.5308 37.6203 73.2394 35.309 62.966C32.6778 60.7187 30.971 56.6879 28.7664 53.5845C27.024 57.2229 30.2243 64.4642 31.611 68.3881C37.6559 85.6887 27.9841 98.138 39.256 114.083C40.3227 115.581 40.5005 115.367 41.6384 117.436Z" fill="#0C0B3C"/>
<path fill-rule="evenodd" clip-rule="evenodd" d="M70.9741 172.156C73.1432 172.049 69.4807 171.728 68.3428 171.407C57.0709 168.125 53.444 166.912 45.159 158.066C37.9763 150.396 32.0026 145.688 22.9708 139.017C8.53428 128.352 20.8729 124.677 13.6546 108.554C10.2411 100.992 7.28975 103.917 10.9878 94.6778C12.5523 90.7183 16.6059 83.9764 16.7837 79.8742L15.6103 75.772C12.979 87.6862 6.57859 92.2878 6.43636 99.0297C6.36524 103.061 8.42761 103.81 9.9566 106.485C17.6727 119.969 7.78756 131.598 18.6328 139.124C22.793 142.014 28.1979 145.652 31.1847 148.577C36.0206 153.321 48.7148 165.985 54.2263 168.232C57.7821 169.695 67.0272 172.334 70.9741 172.156Z" fill="#28EBF7"/>
<path fill-rule="evenodd" clip-rule="evenodd" d="M176.084 118.899C172.919 128.066 166.518 134.166 161.576 138.946C150.197 149.861 153.824 146.473 147.602 158.744C153.113 157.103 156.704 151.038 160.154 148.185C176.581 134.416 172.208 135.093 177.897 127.995C178.43 122.252 179.07 121.396 178.11 115.082C177.186 116.081 177.684 115.224 176.688 117.079C176.226 117.9 176.297 118.007 176.084 118.899Z" fill="#090B3E"/>
<path fill-rule="evenodd" clip-rule="evenodd" d="M93.5537 120.397C101.234 130.991 100.879 125.177 106.248 125.89L107.03 126.176C108.31 126.675 108.026 127.496 110.942 127.246C112.719 127.068 114.391 126.104 115.742 125.926C119.76 125.462 114.746 126.39 117.484 126.104C120.329 125.783 123.849 121.36 123.849 115.189C119.369 117.401 117.591 122.038 108.239 119.719C99.0652 117.436 106.177 115.296 97.5362 118.827L93.5537 120.397Z" fill="#7E7D82"/>
<path fill-rule="evenodd" clip-rule="evenodd" d="M83.5967 68.7449C84.13 71.3489 88.2903 79.4106 93.5174 81.1228C96.1842 82.0146 100.38 82.8707 103.296 82.6567C106.46 82.4427 109.483 81.3369 111.296 78.8755C102.122 75.9148 93.5885 70.6711 83.5967 68.7449Z" fill="#05FCFC"/>
<path fill-rule="evenodd" clip-rule="evenodd" d="M170.536 56.2599C171.674 67.211 186.182 72.312 185.399 79.7316C185.008 83.4057 180.919 89.2202 179.817 92.8943C178.892 95.9621 177.328 106.699 180.35 107.983C180.243 107.769 180.172 107.52 180.137 107.377L179.71 105.415C178.821 95.2486 189.026 86.3665 188.6 73.7745C184.119 69.9577 174.945 61.1825 172.634 54.512C170.856 55.3324 171.816 53.7272 170.536 56.2599Z" fill="#28EBF7"/>
<path fill-rule="evenodd" clip-rule="evenodd" d="M130.534 119.576L130.285 128.922C135.797 129.172 137.681 127.282 141.166 124.856C145.504 121.859 149.095 123.001 152.331 120.397C152.153 120.29 151.904 120.04 151.798 120.183L145.362 118.078C145.184 117.971 144.651 117.615 144.473 117.508C143.015 116.544 144.828 117.579 143.086 116.544C138.57 119.006 137.539 120.254 130.534 119.576Z" fill="#7E7D82"/>
<path fill-rule="evenodd" clip-rule="evenodd" d="M20.3038 76.2357L20.9439 84.2618C22.9707 80.3022 22.5084 71.3131 21.4061 67.3179C19.7705 61.1467 15.4324 58.1147 14.8635 54.2978C21.9751 48.9471 38.6873 43.1684 42.5276 37.1042C36.8383 42.9187 13.9034 48.0197 11.1299 54.8686C13.2278 58.5071 15.7169 58.8994 17.6726 63.8578C19.0238 67.2465 20.3038 72.0622 20.3038 76.2357Z" fill="#2FECED"/>
<path fill-rule="evenodd" clip-rule="evenodd" d="M98.4248 23.1925C101.625 23.4422 101.625 24.1913 104.079 25.4041C116.666 31.6466 109.092 29.221 123.92 31.3612C126.409 31.7179 128.507 32.5741 130.925 32.467C133.769 32.36 136.97 30.2198 143.157 36.2482C145.432 38.4598 144.366 39.3159 147.602 40.4931C141.414 30.7905 139.743 29.0783 125.342 28.5075C119.688 28.2935 115.315 28.3648 110.515 26.2959C108.452 25.3685 99.3849 20.1961 98.4248 23.1925Z" fill="#2FECED"/>
<path fill-rule="evenodd" clip-rule="evenodd" d="M93.9086 89.5412L88.1482 87.7219L86.4414 87.9003C92.024 93.679 90.0683 91.8955 91.4551 100.35C93.8019 100.314 94.3708 99.5648 95.5087 98.5303C96.2199 100.421 95.7932 100.064 97.6422 100.706C99.7401 98.6374 101.34 96.176 100.949 92.1452C98.4956 90.861 97.8555 91.4674 95.8998 90.7183C92.8774 89.5768 95.1887 90.6826 93.9086 89.5412Z" fill="#B2B0B0"/>
<path fill-rule="evenodd" clip-rule="evenodd" d="M161.362 99.8501C160.971 95.7123 160.296 95.0345 159.015 92.0024C157.38 93.2509 155.744 94.6421 153.042 95.5696C150.482 96.4614 148.668 96.2117 146.499 97.5672C152.011 99.7431 149.806 101.955 153.006 104.523L155.886 101.134C157.202 103.096 157.238 103.81 160.616 103.132C161.256 101.99 161.398 101.705 161.362 99.8501Z" fill="#B2B0B0"/>
<path fill-rule="evenodd" clip-rule="evenodd" d="M162.536 102.954C162.358 108.126 158.98 106.806 155.851 104.416C152.828 108.59 154.357 108.304 150.766 108.197C148.846 101.348 150.09 101.17 143.832 98.0667C146.89 102.062 147.174 104.523 145.254 110.409C154.535 115.26 166.66 106.128 162.536 102.954Z" fill="#555A5B"/>
<path fill-rule="evenodd" clip-rule="evenodd" d="M96.8955 131.277C89.3927 123.143 93.553 123.036 88.966 119.113C82.8501 113.869 79.3654 118.613 73.2494 117.757C72.0404 115.117 74.1739 102.383 74.0317 97.4244L71.8982 96.925C71.9338 102.204 72.076 103.489 71.0448 108.697C66.849 129.957 79.9699 112.977 87.7571 119.648C92.2018 123.465 89.1794 129.029 96.8955 131.277Z" fill="#2FCBD5"/>
<path fill-rule="evenodd" clip-rule="evenodd" d="M142.267 102.597C136.329 109.874 138.712 105.308 133.627 106.021C132.809 106.128 131.707 106.664 130.284 106.699C127.511 104.202 127.724 101.563 124.986 98.9585C126.195 104.844 125.591 104.523 124.311 109.945C128.151 110.516 132.027 112.728 135.725 110.873C138.676 109.375 141.165 106.235 142.267 102.597Z" fill="#555A5B"/>
<path fill-rule="evenodd" clip-rule="evenodd" d="M118.728 106.164L114.675 107.841C113.039 106.842 112.577 107.27 112.968 105.165C110.408 107.805 112.933 106.557 109.483 107.27C108.523 102.347 107.101 99.3509 103.865 96.9966C104.754 101.099 105.999 103.524 104.079 108.269C109.946 112.87 116.062 113.12 118.728 106.164Z" fill="#595A5C"/>
<path fill-rule="evenodd" clip-rule="evenodd" d="M139.778 84.6185C148.348 91.6457 156.455 83.263 157.451 79.8028C154.215 78.3046 151.584 80.3379 148.561 81.7291C145.503 83.1203 142.232 83.5483 139.778 84.6185Z" fill="#17F6FA"/>
<path fill-rule="evenodd" clip-rule="evenodd" d="M164.456 44.8093C170.003 43.1685 172.03 39.9224 173.63 34.215C175.088 29.114 176.795 21.3376 175.195 16.2009C174.128 18.1985 173.95 21.4803 173.346 23.8703C171.461 31.0045 171.497 35.3208 168.865 39.423C167.301 41.8843 165.416 42.562 164.456 44.8093Z" fill="#2FECED"/>
<path fill-rule="evenodd" clip-rule="evenodd" d="M84.5931 100.671C85.9443 99.1367 85.3398 102.811 85.5531 98.3876C85.9443 90.0762 69.232 88.792 64.1828 86.9371L64.8228 76.8065L63.0805 76.0574L62.4404 87.4009C70.1565 93.0369 84.6286 88.5423 84.5931 100.671Z" fill="#51CED6"/>
<path fill-rule="evenodd" clip-rule="evenodd" d="M69.3384 76.1645C70.1918 75.4868 70.1918 77.306 69.9429 74.7734C55.613 60.7902 72.6453 62.5738 72.0408 46.807L69.7651 45.6299C71.6497 54.0483 66.316 56.7593 63.5069 61.9317C59.2044 69.7794 66.7071 71.5986 69.3384 76.1645Z" fill="#2FD8EE"/>
<path fill-rule="evenodd" clip-rule="evenodd" d="M165.096 32.3242C166.305 33.323 163.14 32.9307 167.798 33.5014C166.589 28.6144 167.692 26.1174 169.896 22.6573C172.03 19.2685 173.132 18.9832 174.27 14.0962C170.145 17.699 169.612 20.2317 161.611 22.7643C162.429 23.7275 164.1 25.2256 164.989 26.4385C165.203 26.7595 166.127 28.4004 166.198 28.8998C167.229 34.8569 166.554 31.1471 165.096 32.3242Z" fill="#7D8185"/>
<path fill-rule="evenodd" clip-rule="evenodd" d="M149.06 39.7796C149.735 36.4265 147.993 25.8321 154.358 32.2173L156.385 29.3636H160.012C155.602 24.6193 150.553 28.4718 145.931 30.0057L148.349 38.3528C148.811 39.8509 148.455 38.9592 149.06 39.7796Z" fill="#7D8185"/>
<path fill-rule="evenodd" clip-rule="evenodd" d="M79.7217 27.1163C81.0729 28.0438 81.6418 28.1864 84.1309 28.0081C90.4602 27.5444 90.9936 26.4742 91.847 32.7881C92.5937 38.2101 94.0871 37.4253 94.9049 37.782C93.6249 33.7868 94.1582 32.039 93.9093 27.8654C87.6156 22.9428 87.26 25.7965 79.7217 27.1163Z" fill="#2FECED"/>
<path fill-rule="evenodd" clip-rule="evenodd" d="M83.3485 51.801H83.1351C82.0684 47.3064 78.7615 41.7773 74.4945 39.5657C68.2363 36.3553 64.965 37.7821 63.4715 29.5777L61.4092 28.1509C63.8982 39.2803 64.076 36.0342 72.6099 40.0651C79.1882 43.2042 79.7927 49.9461 83.3485 51.801Z" fill="#51CED6"/>
<path fill-rule="evenodd" clip-rule="evenodd" d="M82.0682 21.0522L83.8817 19.8037C80.5392 17.3424 72.2186 16.4149 67.5605 14.9524C69.0895 18.9476 78.1213 20.5885 82.0682 21.0522Z" fill="#2FECED"/>
<path fill-rule="evenodd" clip-rule="evenodd" d="M162.927 53.8342L163.567 55.7248C164.207 55.1184 164.065 55.4037 164.74 54.512L166.305 51.8009C167.407 49.8747 167.478 49.732 168.012 47.5204L164.669 47.3777C164.065 51.8366 163.78 50.8378 162.927 53.8342Z" fill="#2FECED"/>
</g>
<defs>
<clipPath id="clip0_1_2822">
<rect width="195" height="188" fill="white"/>
</clipPath>
</defs>
</svg>
