<svg width="73" height="70" viewBox="0 0 73 70" fill="none" xmlns="http://www.w3.org/2000/svg">
<g clip-path="url(#clip0_1_440)">
<path fill-rule="evenodd" clip-rule="evenodd" d="M19.7544 64.4459L20.9391 65.6147L42.1975 68.6961L53.2327 67.5273L56.9732 65.5085L52.3408 65.8405L30.4701 64.7647L20.6995 64.1006L19.7544 64.4459Z" fill="#28EBF7"/>
<path fill-rule="evenodd" clip-rule="evenodd" d="M21.6708 2.80474C21.6042 1.84844 21.6042 2.65864 21.937 2.32659C22.4029 3.34929 23.0818 3.80088 23.7607 4.59779L25.2915 5.56737C27.0353 6.11193 30.1502 6.45725 31.4014 7.3737L30.7226 7.83857C30.1635 8.23703 29.9239 8.46282 29.4313 8.82143L28.0603 9.81757L29.844 10.0965C32.666 9.60506 32.7991 8.54251 35.1553 10.3754C35.2484 11.9294 35.0488 12.5802 35.528 14.0678L35.954 15.21C36.8724 14.4264 36.8458 13.4302 37.112 12.2482C37.538 10.309 37.6578 10.2692 36.8458 8.63548C37.2052 7.5198 40.5996 9.44568 41.3717 9.79101C43.1688 10.5614 44.8061 10.5348 46.9226 10.6145C52.3137 10.827 52.9394 11.4645 55.2556 15.0772L55.5883 15.5288L55.8013 14.8116C55.575 14.5061 55.7081 14.8381 55.5351 14.2803L54.6299 11.1723C56.3604 10.6012 58.2506 9.16676 59.9013 10.9332C60.9129 11.1458 61.3123 11.1856 61.8048 12.0356C62.3506 11.5973 62.6035 12.9787 62.2174 10.7606C62.1908 10.5746 61.8447 9.96367 61.7649 9.84413C61.4321 9.39255 60.8064 8.83471 60.5003 8.4761C63.4953 7.53309 63.695 6.59007 65.2392 5.2486C65.5187 4.9564 65.2924 4.55795 65.5586 5.36814C65.7716 6.01895 65.6385 5.63378 65.5852 6.03223C66.1843 7.94483 65.5453 10.8403 64.9995 12.7396C64.4005 14.8647 63.6418 16.0733 61.5652 16.6843L60.3139 16.857C60.7133 17.2687 60.3272 16.9765 60.8863 17.3218C61.046 17.4148 61.5652 17.614 61.6451 17.6406L62.8963 17.6937C62.6967 18.5172 62.67 18.5703 62.2574 19.2876L61.6717 20.297C61.4188 20.629 61.472 20.5228 61.2324 20.7486L60.9928 20.0446C60.4071 19.6063 60.274 19.4204 59.7282 19.0485C59.2756 18.7164 58.9428 18.3445 58.4636 18.0789C58.7165 19.9782 59.7681 20.9212 59.9146 22.5682C60.4204 23.3385 60.6866 25.012 60.7133 26.1012L60.2074 28.3724C57.5185 27.1106 57.8912 26.991 53.951 28.5052C50.144 29.9662 50.7297 28.0669 49.4518 27.1903C48.6797 26.6723 49.6248 26.7653 48.9859 27.0973C48.4135 29.249 49.5183 29.9396 49.9177 30.71C50.7962 32.4366 50.6099 32.8085 51.9277 33.9906C54.3371 36.1555 57.8912 34.0703 59.1425 32.9148L59.4487 33.6054L59.5285 34.2562C60.0077 35.3852 60.2607 35.6375 60.4071 37.1782C61.0194 37.8158 60.8064 37.5236 60.8464 38.3338C62.3905 39.5159 57.8513 42.916 54.377 41.1097C55.0958 38.9182 54.9893 38.0017 53.8445 36.5142L53.565 37.1782C53.5384 37.2447 53.5118 37.3243 53.4984 37.3908C53.3653 37.7759 53.4851 37.7759 53.2588 38.201C52.8462 39.5557 51.9144 40.7245 50.8095 41.2823C49.4251 41.973 47.9742 41.1495 46.5366 40.937C47.0158 38.9182 47.2421 39.0377 46.7895 36.8462L46.4966 36.0493C45.7246 37.2579 45.445 38.7322 44.4467 39.5291C43.4483 42.1191 41.1587 42.0261 38.9623 40.3128C39.6812 38.5463 39.2153 37.6431 38.8825 36.1157L38.0572 37.6298C36.3666 42.066 30.9089 41.8402 31.6677 37.4837C31.681 32.9679 26.2632 34.6414 23.3746 32.5429L23.6142 28.3192L24.2665 28.5982C25.1983 28.6247 25.6243 28.8505 26.1833 29.1294L25.9571 28.3591C24.972 26.659 22.1633 25.9816 23.774 23.0596C24.8256 21.1337 26.8223 20.1243 26.1168 16.9898L26.9687 17.4281C27.9138 17.9328 27.9937 18.2648 28.8456 18.8493C28.9654 18.9157 29.7242 19.3805 29.8839 19.4469C31.4414 20.0446 30.9089 19.6727 31.2018 19.2876C29.8706 18.5969 29.6443 16.0866 27.1817 14.9178C23.987 13.417 23.9204 14.6256 22.9886 10.4817L23.7607 11.0129C25.1317 11.2786 24.16 11.159 24.4395 10.8801C23.7873 10.2426 23.0418 8.4761 22.6026 7.47996C21.8971 5.83301 21.7107 4.74389 21.6708 2.80474Z" fill="#090C3F"/>
<path fill-rule="evenodd" clip-rule="evenodd" d="M52.3274 31.507C53.2459 31.1085 54.4705 30.9492 55.6153 30.4312C56.7468 29.9132 57.7318 29.1561 58.9432 29.7139C58.5705 31.0023 55.5355 34.1235 52.3274 31.507Z" fill="#090C3F"/>
<path fill-rule="evenodd" clip-rule="evenodd" d="M27.714 36.2753C32.0003 36.5941 29.0319 39.8216 31.4945 42.1857C33.5711 44.178 36.8324 42.8498 38.1502 41.4021C39.1619 42.2256 39.8008 43.66 41.8641 43.8327C43.954 44.0054 45.2319 42.6905 46.1238 41.5881L46.7627 42.3186C49.2387 45.0679 51.5149 43.753 53.5649 42.1326C53.6048 42.1725 53.6714 42.1857 53.6847 42.2787C53.8444 42.9561 53.7379 42.3451 53.9509 42.5709C55.4152 44.1382 56.8528 44.1515 58.8895 43.7928C58.57 46.2367 56.6531 45.6125 53.5116 47.6977C51.8344 48.8001 49.3451 50.6197 46.4699 49.8228C46.8559 49.079 47.4682 48.7204 47.7478 47.7774C48.0007 46.8875 47.9075 45.6523 47.8543 44.6827C46.7228 45.4664 46.1238 47.3125 44.6196 48.3884C43.2352 49.3712 40.8125 50.3275 38.7492 49.8095L41.132 48.654L36.2733 48.8798C33.3847 48.043 34.5162 45.9711 32.8523 44.5499C29.9371 42.0662 25.0251 48.3884 26.5959 40.4724C26.9819 38.5332 26.9287 38.0551 26.9154 36.0894L27.714 36.2753Z" fill="#090C3F"/>
<path fill-rule="evenodd" clip-rule="evenodd" d="M66.5979 56.1184C66.9307 55.6668 67.7959 54.9762 68.2086 54.405C70.4715 51.1775 70.618 47.7375 71.603 45.3069L71.7894 41.6544C71.4699 40.3528 71.1637 39.0645 70.8576 37.723L70.8975 37.5902C70.7378 36.2221 70.2053 35.4119 70.9641 34.0838C71.4566 33.2204 71.9358 32.2243 72.4283 31.5336C73.4533 26.7389 73.2004 27.1108 70.8443 24.6802C70.4582 24.2817 70.3784 24.2419 70.0456 23.8833C69.4332 23.2856 69.6995 23.684 69.2735 22.9004C67.7294 22.1035 66.5713 20.4565 65.0405 19.3541C65.3733 15.7149 65.5596 16.7642 66.6245 14.918L66.9706 14.2008L66.9573 14.068L67.1171 13.032C67.1171 12.9257 67.1171 11.3585 67.2635 10.774C67.3433 10.4818 67.3966 10.0435 67.4498 9.61852C67.5031 9.18022 67.5297 8.7552 67.5563 8.44972C67.6096 7.8786 67.2768 6.36446 67.2635 6.28477L66.2119 2.63225L65.2801 3.00415L62.6977 5.3816L59.7691 7.00199L58.438 7.78562H58.4247C58.4247 7.78562 56.388 8.07783 55.8955 8.23721C55.4695 8.35675 54.591 8.34346 53.9786 8.33018C53.8588 8.33018 53.7524 8.33018 53.6326 8.33018C53.3929 8.33018 52.9137 8.37003 52.3813 8.40987C51.6625 8.463 50.8371 8.52941 50.2914 8.52941C49.8122 8.52941 49.506 8.51613 49.08 8.44972C48.6541 8.37003 48.1349 8.23721 47.2297 7.98485C46.1249 7.67937 45.6191 7.57311 45.1665 7.49342C44.8869 7.42701 44.6207 7.38717 44.248 7.28091C43.7954 7.17466 42.9435 7.04184 42.0516 6.90902C40.9334 6.73636 39.762 6.56369 39.2029 6.39103C38.8036 6.27149 38.2978 6.1918 37.8052 6.13867C37.0864 6.07226 36.4208 6.07226 36.2478 6.09883C36.0747 6.12539 35.3426 6.01913 34.6504 5.92616C34.1446 5.85975 33.6654 5.79334 33.4524 5.79334C33.2394 5.78006 32.8667 5.81991 32.494 5.84647C32.0414 5.88632 31.5755 5.92616 31.3492 5.8996C31.043 5.85975 30.3109 5.51442 29.7784 5.24879C29.6054 5.16909 29.4456 5.0894 29.3258 5.04956C28.8866 4.85033 27.1161 4.505 27.1028 4.505H27.0895C26.0645 3.86747 25.0529 3.22994 24.0279 2.59241L21.9646 0.00244141C21.6584 0.108696 20.0744 0.653254 19.8614 1.07827C19.6351 1.54314 19.4354 2.6721 19.4221 2.79164C19.4354 2.92446 19.5685 4.25264 19.675 4.81048C19.7682 5.39489 19.9945 7.16138 20.0211 7.2942L20.9929 9.76463V9.77791C21.0461 9.75134 21.0861 9.73806 21.126 9.72478C21.4055 14.7055 21.7117 15.1039 25.1194 16.7111C24.7467 20.7089 19.2491 20.5362 21.7649 26.9647C23.2425 30.7766 17.492 33.8447 25.6253 35.8502C25.7983 38.7058 21.2857 46.2765 27.0363 46.8609C28.7801 47.0469 30.1112 46.0507 31.3226 46.3031C33.5056 48.3618 32.0148 51.0049 37.2195 50.3408C39.3361 53.462 43.2496 52.001 45.8587 50.3009C45.9119 50.3275 46.0051 50.3275 46.0317 50.4072L47.0833 51.0447C51.0768 52.7846 54.8572 48.8399 57.9588 48.2688C61.0204 46.5156 60.5279 46.5422 61.4597 42.8631C62.1785 40.0208 64.9074 40.4192 62.072 36.594C60.6078 34.6283 61.4064 31.4274 62.285 29.382C63.9622 25.4771 62.8308 25.4638 62.072 22.0238L63.8424 20.948C64.3216 20.005 63.9622 20.6026 64.6278 20.2972C65.4931 22.7809 68.9274 26.0482 70.6047 27.4694C70.7644 32.1579 66.944 35.4651 67.2768 39.2504L67.4365 39.9809C67.4498 40.034 67.4765 40.127 67.5164 40.2067C68.0355 38.6926 68.568 38.1613 69.1138 37.0722C69.6862 36.6472 69.4599 38.666 69.6462 40.645C70.0855 45.2007 68.4349 48.1493 66.9573 51.6557C66.4249 52.9307 65.9456 53.5284 64.9739 54.3519C63.8691 55.2816 63.5895 55.2285 62.711 56.6098C61.8191 58.031 59.8623 61.1389 59.4896 62.3742C59.9022 62.7195 60.0487 62.9586 60.3815 63.2508L62.0853 61.046L65.2002 57.7521L66.5979 56.1184Z" fill="#090C3F"/>
<path fill-rule="evenodd" clip-rule="evenodd" d="M10.117 57.1674C11.0488 57.8714 11.7809 58.23 12.3932 59.3191C13.6445 60.1559 14.0971 61.2051 16.5464 62.9318C17.4249 63.556 18.1571 63.8217 18.9158 64.5522C20.0739 65.6678 21.3385 66.4515 22.6963 67.0093L23.1755 67.0492C26.3569 68.1781 30.0309 68.3641 34.3305 69.0016C39.7083 69.7852 45.978 70.6353 51.4889 69.3204H51.449C54.484 68.5367 57.2528 67.0492 59.4359 64.4592C59.2229 63.8349 59.0365 64.1006 58.6771 63.2638C58.2512 63.4232 58.5973 63.2904 58.1713 63.5029C55.9217 64.6451 55.0963 64.9772 52.4074 64.6584C52.86 65.11 53.1795 65.3225 54.1379 65.4686C54.9233 65.5881 55.6954 65.5483 56.4807 65.5881L55.5889 66.0397C48.8799 68.2445 45.552 68.0984 37.9379 67.2351C32.4536 66.6109 25.2254 66.3585 20.3934 64.8045L24.5333 64.8975L27.2222 64.6584C25.8378 64.2865 27.2089 64.7381 26.5699 64.1006C25.0923 64.167 21.6314 63.1841 20.3002 62.6396C18.2369 61.8028 13.4847 57.0877 11.6744 55.3213C10.5562 54.2321 8.53289 52.8774 6.97545 51.8016C2.91545 48.9991 6.61604 44.6692 3.72745 39.6486C3.15506 38.6525 2.383 38.3736 2.40962 36.8727C2.46287 34.3624 4.85893 32.6491 5.84397 28.2129L6.28325 29.7403L7.18843 34.2562C7.56115 33.26 7.57446 29.913 7.60109 28.3856C7.60109 26.8316 7.12187 25.0386 6.61604 23.7768C5.88391 21.9306 4.95211 21.7845 4.16673 20.4297C5.20502 17.8796 13.7909 15.9803 15.9207 13.8154C16.3733 12.7263 15.6678 13.8685 16.2935 13.2442C16.6262 12.9122 16.4665 13.0716 16.7727 12.8724C17.1055 12.6598 17.6113 12.4208 18.0373 12.195C18.3701 11.6504 19.395 10.5879 20.42 10.03V9.96362L16.0272 11.1723C15.9074 11.3582 16.0139 11.2785 15.5746 11.7035L13.4581 13.0317C9.18515 15.21 -2.67536 17.6804 3.60765 23.0728C5.20502 24.4409 4.68588 26.0745 3.92712 28.4387C3.88719 28.545 3.6609 29.1559 3.63427 29.2091C3.60765 29.2622 3.56772 29.3286 3.54109 29.395L2.95539 30.0458C2.46287 32.1311 -1.02474 34.6679 0.293098 38.5861L1.58431 40.937C2.10346 41.4018 1.71742 40.8971 2.22326 41.6808C3.00863 42.8761 3.88719 46.7146 3.82063 48.0029C3.7807 49.0389 3.72745 49.5436 3.6609 49.9022C3.6609 49.9022 4.75243 51.5625 5.00535 52.107C5.24496 52.6649 6.89558 53.754 6.89558 53.754L8.29328 55.0423L10.117 57.1674Z" fill="#090C3F"/>
<path fill-rule="evenodd" clip-rule="evenodd" d="M18.0371 12.195C17.4647 13.4037 15.9339 16.8171 15.3082 17.5211C12.8988 20.1907 12.9255 18.4641 13.2183 23.4448C14.0836 27.27 15.3881 25.5168 14.9355 34.2164C14.829 36.2751 14.8556 38.3603 15.2683 40.3261C15.8141 42.9027 16.5063 42.9426 17.3183 44.4302L15.5878 43.7262C12.6859 42.2254 11.2749 39.4627 10.6492 35.6641C10.2232 36.1688 10.1034 36.2485 9.99695 37.6697C9.9304 38.5729 9.95702 39.3963 9.87715 40.2862L8.97197 36.979C8.15997 39.5159 9.21158 43.8192 10.2366 45.6123C11.7141 48.1757 13.0453 50.075 15.4147 51.2969C15.3748 50.3539 15.2816 48.6405 15.5745 47.7241C15.7342 47.1662 15.7342 47.299 15.8141 47.1397C17.4647 49.3046 18.6361 51.3899 20.8458 53.6079C22.6695 55.4408 24.9058 57.0745 28.2203 57.8714C34.7563 59.4387 39.8146 57.6722 45.1259 61.1786L46.7499 62.6927C43.6616 62.467 38.6964 62.5201 35.8478 63.3834C37.4984 64.5257 45.5385 65.6413 48.6002 65.0835C49.2258 64.964 49.8781 64.778 50.344 64.4327C50.8498 64.0608 50.7433 64.0608 50.9563 63.7287L51.4355 62.9053C55.5221 63.4631 57.3724 63.742 60.1678 58.5886C61.1795 56.7026 61.5655 55.9854 62.8834 54.6705C63.8018 53.7408 65.8385 52.2266 66.9567 51.6555C68.4342 48.1491 70.0848 45.2005 69.6456 40.6448C69.4592 38.6658 69.6855 36.647 69.1131 37.072C69.3261 39.4096 69.0332 41.4019 68.6339 43.6731C68.4608 44.656 68.1547 45.4927 67.8751 46.3959C67.4758 47.7374 67.4492 48.2421 66.6106 48.9062L66.5972 47.6577C64.4674 50.3008 66.1047 50.0484 59.9548 55.1752C58.6636 56.2378 57.3192 58.4957 55.2559 59.1066C57.5854 54.5377 56.2276 55.7995 60.4873 51.7352C62.3376 49.9554 64.7336 47.6842 65.9184 44.2708C64.5473 45.3333 64.0015 47.6045 59.1961 51.2305C54.1244 55.0424 52.0079 54.8697 50.3972 55.9588C51.4754 56.5698 53.1527 56.3971 54.5238 56.3042C52.9397 58.8277 48.3606 58.2566 45.3921 57.9644C42.4902 57.6855 38.2971 57.4198 35.5816 56.8886C36.966 56.7292 38.6432 56.1448 39.5218 55.4143C34.6498 55.0822 32.2138 55.3479 27.9541 53.4087C25.385 52.2399 21.5779 49.1718 20.9922 46.6748C22.4432 47.3787 23.548 48.7999 25.3051 49.5437L23.9474 46.8873C26.4366 47.6444 27.5548 47.2725 30.0573 47.6311C32.3602 49.9687 30.1505 51.3235 35.6215 52.1071C38.0974 52.4657 38.5367 55.0955 43.7149 53.0501C46.3239 52.0274 44.7798 52.1469 47.2823 52.9173C50.943 54.0595 56.6403 49.9156 57.9581 48.2686C54.8565 48.8397 51.0761 52.7845 47.0827 51.0445L46.0311 50.407C46.0044 50.3273 45.9113 50.3273 45.858 50.3008C43.249 52.0008 39.3354 53.4618 37.2189 50.3406C32.0141 51.0047 33.505 48.3616 31.3219 46.3029C30.1106 46.0506 28.7794 47.0467 27.0356 46.8607C21.2851 46.2763 25.7976 38.7057 25.6246 35.8501C17.4913 33.8445 23.2418 30.7764 21.7643 26.9645C19.2484 20.5361 24.746 20.7087 25.1188 16.7109C21.711 15.1038 21.4049 14.7053 21.1253 9.72461C19.9007 10.0832 18.4497 11.5177 18.0371 12.195Z" fill="#807E84"/>
<path fill-rule="evenodd" clip-rule="evenodd" d="M16.3331 50.6594C16.9987 51.3102 17.7974 52.4126 18.5561 53.2361C20.1402 54.9627 24.746 58.3231 27.2485 58.8942C32.2936 60.0364 39.2288 59.2528 43.4086 61.6966C37.8311 61.7631 30.4566 62.3475 25.345 60.8068C22.7626 60.0364 16.4663 54.8698 16.3331 50.6594ZM15.9205 13.8155C14.4828 16.0734 8.22646 18.225 5.56417 20.2173C5.77715 21.6385 7.40115 22.7674 8.01348 25.0652C8.42613 26.5528 8.59918 29.8998 7.84043 31.3741L7.60082 28.3857C7.5742 29.9131 7.56089 33.2601 7.18817 34.2563L6.28299 29.7404C6.21643 31.2679 4.69893 33.7781 4.11322 35.2524C2.72883 38.6924 3.83368 37.6033 5.11158 40.4191C7.81381 46.4225 3.19473 47.7905 8.59918 51.7618C11.9803 54.2455 14.2166 55.9987 16.9055 58.8543C20.0071 62.1482 21.3649 62.5998 25.5846 63.8218C26.0106 63.9413 27.3816 64.0608 26.5696 64.1007C27.2086 64.7382 25.8375 64.2866 27.2219 64.6585L24.533 64.8976C26.7826 64.9109 30.0839 65.4023 32.4001 65.6812C35.0757 65.9867 37.5782 66.2391 40.1873 66.6109C48.7998 67.8462 55.3224 65.9867 55.5886 66.0398L56.4805 65.5882C55.6951 65.5484 54.923 65.5882 54.1377 65.4687C53.1792 65.3226 52.8598 65.1101 52.4072 64.6585C55.0961 64.9773 55.9214 64.6452 58.171 63.503C58.597 63.2905 58.2509 63.4233 58.6769 63.2639L59.4889 62.374C59.8616 61.1388 61.8184 58.0308 62.7102 56.6097C63.5888 55.2284 63.8683 55.2815 64.9732 54.3518C65.9449 53.5283 66.4241 52.9306 66.9566 51.6555C65.8384 52.2267 63.8018 53.7408 62.8833 54.6705C61.5655 55.9854 61.1794 56.7027 60.1678 58.5887C57.3723 63.7421 55.5221 63.4631 51.4354 62.9053L50.9562 63.7288C50.7432 64.0608 50.8497 64.0608 50.3439 64.4327C49.878 64.778 49.2257 64.964 48.6001 65.0835C45.5385 65.6414 37.4983 64.5257 35.8477 63.3834C38.6964 62.5201 43.6615 62.467 46.7498 62.6928L45.1258 61.1787C39.8145 57.6722 34.7562 59.4387 28.2203 57.8715C24.9057 57.0746 22.6694 55.4409 20.8457 53.608C18.636 51.3899 17.4646 49.3047 15.814 47.1397C15.7341 47.2991 15.7341 47.1663 15.5744 47.7241C15.2815 48.6406 15.3747 50.3539 15.4146 51.2969C13.0452 50.075 11.7141 48.1757 10.2365 45.6123C9.21151 43.8192 8.1599 39.5159 8.9719 36.9791L9.87708 40.2863C9.95695 39.3964 9.93033 38.5729 9.99688 37.6697C10.1034 36.2486 10.2232 36.1689 10.6491 35.6642C11.2748 39.4628 12.6858 42.2254 15.5877 43.7263C15.1617 42.9559 15.0952 43.0356 14.6958 42.4778C10.4761 36.5408 14.0968 31.9054 11.8339 25.4637C11.3147 24.0027 10.1167 21.3064 10.7689 19.9517C11.5943 21.1072 12.2332 22.6081 13.2183 23.4448C12.9254 18.4641 12.8988 20.1908 15.3082 17.5211C15.9338 16.8172 17.4646 13.4037 18.037 12.1951C17.611 12.4209 17.1052 12.6599 16.7724 12.8724C16.4663 13.0717 16.626 12.9123 16.2932 13.2443C15.6676 13.8686 16.3731 12.7263 15.9205 13.8155Z" fill="#555A5B"/>
<path fill-rule="evenodd" clip-rule="evenodd" d="M59.9151 22.5683C59.7687 20.9213 58.7171 19.9783 58.4642 18.079C58.9434 18.3447 59.2762 18.7165 59.7288 19.0486C60.2745 19.4205 60.4077 19.6064 60.9934 20.0447C61.3128 18.9291 61.4193 19.3009 61.6456 17.6407C61.5658 17.6141 61.0466 17.4149 60.8869 17.3219C60.3278 16.9766 60.7138 17.2688 60.3145 16.8571L61.5658 16.6844C61.9252 15.8477 62.6307 15.5953 63.2164 14.6789C64.2014 13.1514 64.1881 11.5443 64.8936 8.88795C65.1199 7.99806 65.1865 6.77613 65.5858 6.03234C65.6391 5.63389 65.7722 6.01906 65.5592 5.36825C65.293 4.55805 65.5192 4.95651 65.2397 5.24871C64.8137 7.06833 64.4011 7.17459 63.6024 8.43636C62.7771 9.72471 62.3644 10.6544 62.817 12.4741C61.0732 12.2615 62.2579 12.4076 61.8054 12.0358C61.3128 11.1857 60.9135 11.1459 59.9018 10.9334H58.5441L57.7853 11.9959C55.4025 9.61845 56.0548 13.5632 55.8019 14.8117L55.5889 15.5289L55.2561 15.0773C54.0448 14.639 54.4441 14.3202 53.5922 13.4968C51.276 11.2521 50.078 12.049 49.0131 12.0889C48.1079 12.1287 47.3225 11.81 46.3907 11.6771C40.8398 10.8802 43.6752 11.7834 38.9629 9.45907C38.0444 9.00749 38.0444 8.72857 36.8464 8.63559C37.6584 10.2693 37.5386 10.3091 37.1126 12.2483C36.8464 13.4304 36.873 14.4265 35.9545 15.2101L35.5286 14.0679C35.2224 13.9351 34.6633 14.2273 34.3838 12.2084C34.0643 9.85753 33.8646 10.256 31.4952 10.4286C30.5634 10.4951 30.3504 10.4419 29.8446 10.0966L28.0608 9.81768L29.4319 8.82154C29.9244 8.46293 30.164 8.23714 30.7231 7.83868C29.2455 7.66602 25.8644 7.05505 25.292 5.56748L23.7612 4.5979C23.881 5.89953 24.48 5.48779 26.2238 7.93165C27.2488 9.37938 27.1157 10.4419 29.0725 11.1724C32.7598 12.567 30.5234 11.531 31.6682 14.6921C32.3471 16.5914 33.625 16.5649 34.9029 17.561C35.5019 18.5704 35.4487 19.5533 36.5935 20.4033C38.0045 21.4393 38.4837 20.8682 39.9879 21.0276C42.9697 21.3331 41.7583 23.7105 46.9232 21.4659C47.1095 21.7847 47.3624 22.2761 47.6287 22.5683C49.1994 22.555 48.414 21.8643 50.251 23.1925C53.3659 25.4372 55.0831 23.2457 56.361 23.4449C57.8519 23.6574 58.0781 24.4012 59.8086 23.684L59.9151 22.5683Z" fill="#B2B2B2"/>
<path fill-rule="evenodd" clip-rule="evenodd" d="M57.9581 48.2686C56.6403 49.9155 50.943 54.0595 47.2823 52.9172C44.7798 52.1469 46.3239 52.0274 43.7148 53.0501C38.5367 55.0955 38.0974 52.4657 35.6215 52.107C30.1505 51.3234 32.3602 49.9687 30.0573 47.6311C27.5547 47.2724 26.4366 47.6443 23.9473 46.8873L25.3051 49.5436C23.548 48.7999 22.4431 47.3787 20.9922 46.6748C21.5779 49.1718 25.385 52.2399 27.9541 53.4087C32.2137 55.3478 34.6497 55.0822 39.5217 55.4142C38.6432 56.1447 36.9659 56.7291 35.5815 56.8885C38.2971 57.4198 42.4902 57.6854 45.3921 57.9644C48.3605 58.2566 52.9397 58.8277 54.5237 56.3041C53.1527 56.3971 51.4754 56.5698 50.3972 55.9588C52.0079 54.8697 54.1244 55.0423 59.1961 51.2304C64.0015 47.6045 64.5473 45.3333 65.9183 44.2707C65.9982 43.9387 65.9716 43.8988 66.1446 43.5934C66.5174 42.9027 66.331 43.2215 66.6771 42.8496C67.0365 45.2005 66.7969 45.5192 66.5972 47.6576L66.6105 48.9061C67.4492 48.242 67.4758 47.7373 67.8751 46.3958C68.1547 45.4927 68.4608 44.6559 68.6339 43.6731C69.0332 41.4019 69.3261 39.4096 69.1131 37.072C68.5673 38.1611 68.0349 38.6923 67.5157 40.2065C66.3842 39.7283 66.9699 35.7305 67.316 34.5882C67.7287 33.2202 69.2595 31.0553 69.4059 29.6872C69.6988 26.9246 64.2677 25.0253 63.8418 20.9478L62.0713 22.0236C62.8301 25.4636 63.9616 25.4769 62.2843 29.3817C61.4058 31.4272 60.6071 34.6281 62.0713 36.5938C64.9067 40.419 62.1778 40.0205 61.459 42.8629C60.5272 46.5419 61.0197 46.5154 57.9581 48.2686Z" fill="#B2B2B2"/>
<path fill-rule="evenodd" clip-rule="evenodd" d="M28.6863 25.6628C29.9908 20.8415 41.1458 26.9379 42.3838 27.3363C44.3672 27.9739 45.2457 26.1675 46.1509 25.4636C45.3655 29.8864 44.1808 28.1332 42.9295 30.2318C39.8013 35.4383 29.7645 33.7249 30.4434 25.3972L28.6863 25.6628ZM23.761 11.0129C24.3201 14.0677 25.5448 13.5364 27.8876 14.7318C29.485 15.5553 30.7229 17.614 31.1223 19.2875H31.2021C30.9093 19.6727 31.4417 20.0446 29.8843 19.4469C29.7246 19.3805 28.9658 18.9156 28.846 18.8492C27.9941 18.2648 27.9142 17.9328 26.9691 17.428C27.1954 23.2986 20.8192 22.6345 26.1837 27.841C26.2769 28.784 26.2769 28.1067 25.9574 28.359L26.1837 29.1294C25.6246 28.8505 25.1987 28.6247 24.2669 28.5981L24.0273 32.3702C25.9175 33.0608 32.1739 33.539 32.0275 36.6336C31.9476 38.2806 32.1739 36.9126 31.668 37.4837C30.9093 41.8401 36.367 42.0659 38.0575 37.6298L38.8829 36.1156C38.417 35.7438 39.7215 35.8102 38.0842 35.8102C37.951 37.7626 36.2339 39.4361 34.6764 38.4665C34.357 39.2502 34.4235 39.383 33.5316 39.383C32.5998 37.8821 33.6914 35.1195 32.0141 33.964C30.3502 32.8217 28.2603 33.8444 27.4483 31.56L28.3402 30.8693C28.3801 30.8427 28.46 30.8162 28.4999 30.7763C28.0873 30.0193 28.034 28.9036 28.3269 28.12C30.7496 27.7613 29.7778 29.9529 32.1339 31.9584C32.2005 32.0115 32.4002 32.1709 32.4534 32.2241C32.52 32.2639 32.5865 32.317 32.6398 32.3569L32.9992 32.6624L35.1556 33.3397C37.1524 33.4194 41.7714 34.0702 43.3954 31.1217C43.3688 32.1178 42.7698 32.8217 42.5302 33.5788C44.2873 32.5827 45.1525 29.0098 47.4155 29.9263C48.8398 30.5505 48.2275 32.2905 50.2508 34.1101C49.8648 33.2069 49.8781 33.0741 50.1843 32.5163C52.5803 38.254 58.6637 33.7648 59.449 33.6054L59.1429 32.9147C57.8916 34.0702 54.3374 36.1555 51.9281 33.9905C50.6102 32.8085 50.7966 32.4366 49.918 30.7099C49.5187 29.9396 48.4139 29.2489 48.9862 27.0972C49.6252 26.7652 48.6801 26.6722 49.4521 27.1902C50.73 28.0668 50.1443 29.9661 53.9514 28.5051C57.8916 26.991 57.5189 27.1105 60.2078 28.3723L60.7136 26.1011C58.8234 26.8449 58.677 26.0878 57.1994 25.7691C54.7102 25.2378 52.2875 29.4349 48.7733 24.7862C46.9762 26.2472 46.8564 24.8128 46.1243 23.5111C43.9944 25.1315 40.2273 24.6534 37.6449 23.3385C35.6349 22.3025 35.3154 22.9533 33.1323 22.5548C30.1905 22.0236 30.7496 22.6744 28.6064 22.7806C28.5132 21.6251 28.7661 21.147 29.3785 20.3501C31.0823 20.3899 32.6132 20.5891 33.7047 19.4867C30.4168 17.521 30.4434 13.3505 29.7778 12.8856C28.247 12.5137 27.4749 12.952 26.0107 12.2083C26.7428 11.8762 26.7561 12.195 27.5016 11.677C25.7977 9.9769 25.9175 8.68856 24.6529 7.09474C21.6046 3.24299 23.4948 5.55404 21.6711 2.80469C21.7111 4.74384 21.8974 5.83296 22.6029 7.47991C23.0422 8.47605 23.7877 10.2425 24.4399 10.8801C24.1604 11.159 25.1321 11.2785 23.761 11.0129Z" fill="#555A5B"/>
<path fill-rule="evenodd" clip-rule="evenodd" d="M21.6708 2.80474C23.4944 5.55409 21.6042 3.24304 24.6525 7.09478C25.9171 8.68861 25.7973 9.97695 27.5012 11.677C26.7557 12.195 26.7424 11.8763 26.0103 12.2083C27.4746 12.9521 28.2466 12.5138 29.7774 12.8857C30.443 13.3506 30.4164 17.5211 33.7043 19.4868C32.6128 20.5892 31.082 20.3899 29.3781 20.3501C28.7658 21.147 28.5129 21.6252 28.606 22.7807C30.7492 22.6744 30.1901 22.0236 33.1319 22.5549C35.315 22.9534 35.6345 22.3025 37.6445 23.3385C40.2269 24.6534 43.9941 25.1316 46.1239 23.5112C46.856 24.8128 46.9758 26.2473 48.7729 24.7863C52.2871 29.4349 54.7098 25.2378 57.199 25.7691C58.6766 26.0879 58.823 26.8449 60.7133 26.1012C60.6866 25.012 60.4204 23.3385 59.9146 22.5682L59.8081 23.6839C58.0776 24.4011 57.8513 23.6573 56.3604 23.4448C55.0825 23.2456 53.3653 25.4371 50.2505 23.1924C48.4135 21.8642 49.1988 22.5549 47.6281 22.5682C47.3619 22.276 47.1089 21.7845 46.9226 21.4658C41.7577 23.7104 42.9691 21.333 39.9873 21.0275C38.4831 20.8681 38.0039 21.4392 36.5929 20.4032C35.4481 19.5532 35.5014 18.5703 34.9023 17.5609C33.6244 16.5648 32.3465 16.5913 31.6677 14.692C30.5229 11.5309 32.7592 12.5669 29.0719 11.1723C27.1151 10.4418 27.2483 9.37927 26.2233 7.93154C24.4795 5.48768 23.8805 5.89942 23.7607 4.59779C23.0818 3.80088 22.4029 3.34929 21.937 2.32659C21.6042 2.65864 21.6042 1.84844 21.6708 2.80474Z" fill="#7E7D82"/>
<path fill-rule="evenodd" clip-rule="evenodd" d="M48.8667 44.5232C51.489 44.7756 51.875 44.3107 53.5656 43.3942C54.2179 43.7794 53.539 43.3942 54.0847 43.7528C54.1513 43.7927 54.351 43.9255 54.4175 43.9654L56.8269 44.749C56.8668 44.6959 56.96 44.7888 57.0266 44.8287C55.8152 45.7983 54.4708 45.3732 52.8468 46.4889C51.5423 47.3921 50.8367 48.096 48.7735 48.003L48.8667 44.5232ZM36.5136 44.2443C39.7483 42.9294 37.086 43.7263 40.5204 44.5763C44.0213 45.4396 44.6869 43.713 46.3641 42.8895C46.3641 45.1873 45.0463 46.8342 43.9813 46.9538C42.9564 47.06 44.8333 46.7147 43.3291 46.8874C42.8233 46.9538 42.1976 47.3124 41.532 47.3788C40.4405 47.4718 40.547 47.1663 40.0678 46.9803L39.7749 46.8741C37.7649 46.6085 37.898 48.7734 35.0227 44.8287L36.5136 44.2443ZM36.274 48.8797L41.1327 48.6539L38.7499 49.8094C40.8132 50.3274 43.2359 49.3711 44.6203 48.3882C46.1245 47.3124 46.7235 45.4662 47.855 44.6826C47.9082 45.6522 48.0014 46.8874 47.7485 47.7773C47.4689 48.7203 46.8566 49.0789 46.4706 49.8227C49.3459 50.6196 51.8351 48.8 53.5123 47.6976C56.6539 45.6123 58.5707 46.2366 58.8902 43.7927C56.8535 44.1513 55.4159 44.138 53.9516 42.5708C53.7386 42.345 53.8451 42.9559 53.6854 42.2786C53.6721 42.1856 53.6055 42.1723 53.5656 42.1325C51.5156 43.7528 49.2394 45.0678 46.7634 42.3184L46.1245 41.5879C45.2326 42.6903 43.9547 44.0052 41.8648 43.8325C39.8016 43.6599 39.1626 42.2254 38.1509 41.402C36.8331 42.8497 33.5718 44.1779 31.4952 42.1856C29.0326 39.8214 32.001 36.5939 27.7148 36.2751C27.768 38.1213 26.9693 42.863 27.4219 43.8458C29.7115 44.1646 31.016 42.3981 33.3056 44.3505C35.0227 45.8115 33.4653 45.8514 36.274 48.8797Z" fill="#555A5B"/>
<path fill-rule="evenodd" clip-rule="evenodd" d="M39.4554 34.7478C41.6119 32.9149 40.8265 35.7838 43.6885 33.6454C44.8732 32.7688 45.6452 31.1086 46.9231 30.6703C48.7335 31.6398 48.201 33.3798 50.4241 34.9869C52.3143 36.3416 51.0098 33.9774 52.2211 35.7971C53.113 37.1385 52.3941 37.7628 51.702 38.48C50.5439 38.48 50.89 37.7628 49.652 38.1745C48.6004 38.5331 48.8932 38.0019 47.8816 36.4346C47.3757 35.651 47.0429 35.5845 46.4706 34.7876C45.5787 35.6111 45.8183 36.6604 44.0079 38.4003L42.3041 37.9886C41.146 37.6432 41.5586 37.869 40.9995 37.2049C40.3606 36.4612 39.6018 35.5314 39.4554 34.7478ZM38.883 36.1158C40.0944 36.9924 40.6268 38.1081 40.9862 39.941C42.2774 39.6754 41.3323 40.1402 42.2908 39.1574C42.1443 39.941 42.3174 39.7816 42.9297 40.1535L44.4472 39.5293C45.4456 38.7324 45.7251 37.2581 46.4972 36.0494L46.79 36.8463C47.815 37.8159 47.7351 38.7988 48.7734 39.7285C49.3059 39.7152 49.7185 39.516 50.0247 39.4761C51.9282 39.2105 51.0364 40.9106 53.2594 38.2011C53.4857 37.7761 53.3659 37.7761 53.499 37.3909C53.5123 37.3245 53.5389 37.2448 53.5656 37.1784L53.8451 36.5143C56.1879 37.6698 55.722 37.7362 56.4408 40.2863C57.7853 40.3262 57.2129 40.4324 58.3444 38.8785C59.5158 39.7683 60.7804 40.2598 60.8469 38.3339C60.807 37.5237 61.02 37.8159 60.4076 37.1784C60.421 37.869 60.3677 37.9753 60.1281 38.4003C58.8635 38.6527 58.8502 38.387 58.3577 37.6565L57.2795 38.9183C56.0814 37.962 56.9067 37.1385 54.8435 36.3283C55.6555 35.8236 56.3343 35.9166 57.2928 35.5845C58.3044 35.2392 58.9168 34.7212 59.5291 34.2564L59.4492 33.6055C58.6638 33.7649 52.5805 38.2542 50.1844 32.5164C49.8783 33.0743 49.865 33.2071 50.251 34.1103C48.2277 32.2906 48.84 30.5507 47.4157 29.9265C45.1527 29.01 44.2875 32.5828 42.5304 33.579C42.77 32.8219 43.369 32.118 43.3956 31.1218C41.7716 34.0704 37.1525 33.4196 35.1558 33.3399C35.635 33.7649 34.7698 33.3532 35.9013 33.7782C36.6334 34.0571 36.873 33.8313 37.7915 34.3095C37.9379 35.8103 37.3389 36.7268 36.5535 37.4971C35.8613 37.2581 36.0211 37.3909 35.7548 36.6869C35.3289 37.0721 35.1159 37.351 34.2373 37.3643C33.7182 34.2165 34.4503 34.8806 32.3604 32.7289L32.9994 32.6625L32.64 32.3571C32.5867 32.3172 32.5202 32.2641 32.4536 32.2242C32.4003 32.1711 32.2007 32.0117 32.1341 31.9586C29.778 29.953 30.7497 27.7615 28.327 28.1201C28.0342 28.9038 28.0874 30.0194 28.5001 30.7765C28.4602 30.8164 28.3803 30.8429 28.3404 30.8695L27.4485 31.5601C28.2605 33.8446 30.3504 32.8219 32.0143 33.9642C33.6916 35.1197 32.6 37.8823 33.5318 39.3832C34.4237 39.3832 34.3571 39.2503 34.6766 38.4667C36.234 39.4363 37.9512 37.7628 38.0843 35.8103C39.7216 35.8103 38.4171 35.7439 38.883 36.1158Z" fill="#7E7D82"/>
<path fill-rule="evenodd" clip-rule="evenodd" d="M31.2958 25.5963C35.0363 26.3136 38.2311 28.266 41.6654 29.3684C40.9865 30.2848 39.8551 30.6966 38.6704 30.7763C37.5788 30.856 36.0081 30.5372 35.0097 30.2051C33.0529 29.5676 31.4955 26.5659 31.2958 25.5963ZM28.6868 25.6627L30.4439 25.3971C29.765 33.7248 39.8018 35.4382 42.93 30.2317C44.1813 28.1332 45.366 29.8864 46.1514 25.4635C45.2462 26.1675 44.3677 27.9738 42.3843 27.3363C41.1463 26.9378 29.9913 20.8414 28.6868 25.6627Z" fill="#090C3F"/>
<path fill-rule="evenodd" clip-rule="evenodd" d="M18.5563 53.2361C17.7975 52.4126 16.9988 51.3102 16.3333 50.6594C16.4664 54.8698 22.7627 60.0364 25.3451 60.8068C30.4567 62.3475 37.8312 61.7631 43.4087 61.6967C39.2289 59.2528 32.2937 60.0364 27.2486 58.8942C24.7461 58.3231 20.1403 54.9628 18.5563 53.2361Z" fill="#0C0B3C"/>
<path fill-rule="evenodd" clip-rule="evenodd" d="M39.4553 34.7477C39.6017 35.5313 40.3605 36.4611 40.9995 37.2049C41.5585 37.8689 41.1459 37.6432 42.304 37.9885L44.0078 38.4002C45.8182 36.6603 45.5786 35.611 46.4705 34.7875C47.0429 35.5845 47.3756 35.6509 47.8815 36.4345C48.8931 38.0018 48.6003 38.533 49.6519 38.1744C50.8899 37.7627 50.5438 38.4799 51.7019 38.4799C52.3941 37.7627 53.1129 37.1384 52.221 35.797C51.0097 33.9774 52.3142 36.3415 50.424 34.9868C48.2009 33.3797 48.7334 31.6397 46.923 30.6702C45.6451 31.1085 44.8731 32.7687 43.6884 33.6453C40.8264 35.7837 41.6118 32.9148 39.4553 34.7477Z" fill="#B2B0B0"/>
<path fill-rule="evenodd" clip-rule="evenodd" d="M15.5877 43.7262L17.3182 44.4302C16.5062 42.9426 15.814 42.9028 15.2683 40.3261C14.8556 38.3603 14.829 36.2751 14.9355 34.2164C15.3881 25.5168 14.0836 27.27 13.2183 23.4448C12.2333 22.608 11.5943 21.1072 10.769 19.9517C10.1167 21.3064 11.3148 24.0026 11.8339 25.4636C14.0969 31.9054 10.4761 36.5407 14.6959 42.4777C15.0952 43.0356 15.1618 42.9559 15.5877 43.7262Z" fill="#0C0B3C"/>
<path fill-rule="evenodd" clip-rule="evenodd" d="M26.5694 64.1005C27.3814 64.0607 26.0103 63.9412 25.5844 63.8216C21.3646 62.5997 20.0069 62.1481 16.9053 58.8542C14.2164 55.9986 11.9801 54.2454 8.59894 51.7617C3.19449 47.7904 7.81357 46.4223 5.11134 40.4189C3.83344 37.6032 2.72859 38.6923 4.11298 35.2523C4.69869 33.778 6.21619 31.2677 6.28275 29.7403L5.84347 28.2129C4.85843 32.649 2.46236 34.3624 2.40912 36.8727C2.38249 38.3735 3.15456 38.6524 3.72695 39.6486C6.61554 44.6691 2.91495 48.999 6.97495 51.8015C8.53239 52.8773 10.5557 54.2321 11.6739 55.3212C13.4842 57.0877 18.2364 61.8028 20.2997 62.6395C21.6309 63.1841 25.0918 64.1669 26.5694 64.1005Z" fill="#28EBF7"/>
<path fill-rule="evenodd" clip-rule="evenodd" d="M65.9183 44.2708C64.7336 47.6842 62.3376 49.9554 60.4873 51.7352C56.2276 55.7994 57.5854 54.5377 55.2559 59.1066C57.3191 58.4957 58.6636 56.2377 59.9548 55.1752C66.1047 50.0484 64.4674 50.3007 66.5972 47.6577C66.7969 45.5193 67.0365 45.2005 66.6771 42.8496C66.331 43.2215 66.5173 42.9027 66.1446 43.5934C65.9716 43.8989 65.9982 43.9387 65.9183 44.2708Z" fill="#090B3E"/>
<path fill-rule="evenodd" clip-rule="evenodd" d="M35.0227 44.8286C37.898 48.7733 37.7649 46.6083 39.7749 46.874L40.0677 46.9802C40.547 47.1662 40.4405 47.4717 41.532 47.3787C42.1976 47.3123 42.8232 46.9537 43.3291 46.8873C44.8332 46.7146 42.9563 47.0599 43.9813 46.9537C45.0462 46.8341 46.3641 45.1872 46.3641 42.8894C44.6868 43.7129 44.0212 45.4395 40.5203 44.5762C37.086 43.7262 39.7483 42.9292 36.5136 44.2442L35.0227 44.8286Z" fill="#7E7D82"/>
<path fill-rule="evenodd" clip-rule="evenodd" d="M31.2952 25.5964C31.4948 26.566 33.0523 29.5677 35.0091 30.2052C36.0074 30.5373 37.5782 30.8561 38.6697 30.7764C39.8544 30.6967 40.9859 30.2849 41.6648 29.3685C38.2304 28.2661 35.0357 26.3137 31.2952 25.5964Z" fill="#05FCFC"/>
<path fill-rule="evenodd" clip-rule="evenodd" d="M63.842 20.9477C64.268 25.0252 69.6991 26.9245 69.4062 29.6872C69.2598 31.0552 67.729 33.2201 67.3163 34.5882C66.9702 35.7304 66.3845 39.7283 67.516 40.2064C67.4761 40.1267 67.4494 40.0338 67.4361 39.9806L67.2764 39.2501C66.9436 35.4648 70.764 32.1576 70.6043 27.4691C68.927 26.0479 65.4927 22.7806 64.6274 20.2969C63.9618 20.6024 64.3213 20.0047 63.842 20.9477Z" fill="#28EBF7"/>
<path fill-rule="evenodd" clip-rule="evenodd" d="M48.8669 44.5232L48.7737 48.0031C50.837 48.0961 51.5425 47.3921 52.847 46.489C54.471 45.3733 55.8154 45.7983 57.0268 44.8287C56.9602 44.7889 56.867 44.6959 56.8271 44.749L54.4177 43.9654C54.3512 43.9256 54.1515 43.7927 54.085 43.7529C53.5392 43.3943 54.2181 43.7795 53.5658 43.3943C51.8753 44.3107 51.4892 44.7756 48.8669 44.5232Z" fill="#7E7D82"/>
<path fill-rule="evenodd" clip-rule="evenodd" d="M7.60061 28.3857L7.84022 31.3741C8.59897 29.8998 8.42592 26.5528 8.01327 25.0652C7.40094 22.7674 5.77695 21.6385 5.56396 20.2173C8.22625 18.225 14.4826 16.0733 15.9203 13.8154C13.7904 15.9804 5.20455 17.8797 4.16626 20.4298C4.95164 21.7846 5.88344 21.9307 6.61557 23.7768C7.1214 25.0386 7.60061 26.8317 7.60061 28.3857Z" fill="#2FECED"/>
<path fill-rule="evenodd" clip-rule="evenodd" d="M36.8459 8.63543C38.044 8.72841 38.044 9.00733 38.9625 9.45891C43.6747 11.7832 40.8394 10.8801 46.3903 11.677C47.3221 11.8098 48.1074 12.1286 49.0126 12.0887C50.0775 12.0489 51.2756 11.252 53.5918 13.4966C54.4437 14.3201 54.0443 14.6388 55.2557 15.0771C52.9395 11.4645 52.3139 10.8269 46.9227 10.6144C44.8062 10.5347 43.1689 10.5613 41.3718 9.79096C40.5998 9.44563 37.2054 7.51976 36.8459 8.63543Z" fill="#2FECED"/>
<path fill-rule="evenodd" clip-rule="evenodd" d="M35.156 33.34L32.9995 32.6626L32.3606 32.729C34.4505 34.8807 33.7184 34.2166 34.2375 37.3644C35.1161 37.3511 35.329 37.0722 35.755 36.687C36.0212 37.3909 35.8615 37.2581 36.5537 37.4972C37.3391 36.7269 37.9381 35.8104 37.7917 34.3096C36.8732 33.8314 36.6336 34.0572 35.9014 33.7783C34.77 33.3533 35.6352 33.765 35.156 33.34Z" fill="#B2B0B0"/>
<path fill-rule="evenodd" clip-rule="evenodd" d="M60.4072 37.1784C60.2608 35.6377 60.0079 35.3853 59.5286 34.2563C58.9163 34.7212 58.304 35.2392 57.2923 35.5845C56.3339 35.9166 55.655 35.8236 54.843 36.3283C56.9063 37.1385 56.081 37.962 57.279 38.9183L58.3572 37.6565C58.8498 38.387 58.8631 38.6527 60.1277 38.4003C60.3673 37.9753 60.4205 37.869 60.4072 37.1784Z" fill="#B2B0B0"/>
<path fill-rule="evenodd" clip-rule="evenodd" d="M60.8466 38.3338C60.78 40.2597 59.5154 39.7682 58.344 38.8783C57.2125 40.4323 57.7849 40.3261 56.4405 40.2862C55.7216 37.7361 56.1875 37.6697 53.8447 36.5142C54.9895 38.0017 55.096 38.9182 54.3772 41.1097C57.8515 42.916 62.3907 39.5159 60.8466 38.3338Z" fill="#555A5B"/>
<path fill-rule="evenodd" clip-rule="evenodd" d="M36.2733 48.8798C33.4646 45.8515 35.022 45.8117 33.3049 44.3507C31.0153 42.3982 29.7108 44.1647 27.4212 43.846C26.9686 42.8631 27.7673 38.1215 27.714 36.2753L26.9154 36.0894C26.9287 38.0551 26.9819 38.5332 26.5959 40.4724C25.0251 48.3884 29.9371 42.0662 32.8523 44.5499C34.5162 45.9711 33.3847 48.043 36.2733 48.8798Z" fill="#2FCBD5"/>
<path fill-rule="evenodd" clip-rule="evenodd" d="M53.2587 38.2009C51.0356 40.9104 51.9275 39.2104 50.024 39.476C49.7178 39.5158 49.3052 39.7151 48.7727 39.7284C47.7344 38.7986 47.8143 37.8158 46.7893 36.8462C47.2419 39.0377 47.0156 38.9182 46.5364 40.937C47.974 41.1495 49.425 41.973 50.8094 41.2823C51.9142 40.7245 52.846 39.5557 53.2587 38.2009Z" fill="#555A5B"/>
<path fill-rule="evenodd" clip-rule="evenodd" d="M44.447 39.5292L42.9295 40.1534C42.3172 39.7815 42.1441 39.9409 42.2905 39.1573C41.3321 40.1401 42.2772 39.6753 40.986 39.9409C40.6266 38.108 40.0942 36.9923 38.8828 36.1157C39.2156 37.6431 39.6815 38.5463 38.9627 40.3128C41.1591 42.0262 43.4486 42.1191 44.447 39.5292Z" fill="#595A5C"/>
<path fill-rule="evenodd" clip-rule="evenodd" d="M52.3274 31.507C55.5355 34.1235 58.5705 31.0023 58.9432 29.7139C57.7318 29.1561 56.7468 29.9132 55.6153 30.4312C54.4705 30.9492 53.2459 31.1085 52.3274 31.507Z" fill="#17F6FA"/>
<path fill-rule="evenodd" clip-rule="evenodd" d="M61.5657 16.6843C63.6423 16.0733 64.401 14.8647 65 12.7396C65.5458 10.8403 66.1847 7.94482 65.5857 6.03223C65.1864 6.77601 65.1198 7.99794 64.8935 8.88783C64.188 11.5442 64.2013 13.1513 63.2163 14.6787C62.6306 15.5952 61.9251 15.8475 61.5657 16.6843Z" fill="#2FECED"/>
<path fill-rule="evenodd" clip-rule="evenodd" d="M31.6683 37.4838C32.1741 36.9127 31.9478 38.2807 32.0277 36.6338C32.1741 33.5391 25.9177 33.061 24.0275 32.3703L24.2671 28.5983L23.6149 28.3193L23.3752 32.543C26.2638 34.6415 31.6816 32.968 31.6683 37.4838Z" fill="#51CED6"/>
<path fill-rule="evenodd" clip-rule="evenodd" d="M25.9575 28.359C26.277 28.1067 26.277 28.7841 26.1838 27.841C20.8193 22.6345 27.1955 23.2986 26.9692 17.428L26.1173 16.9897C26.8228 20.1243 24.8261 21.1337 23.7745 23.0596C22.1638 25.9816 24.9725 26.659 25.9575 28.359Z" fill="#2FD8EE"/>
<path fill-rule="evenodd" clip-rule="evenodd" d="M61.8048 12.0356C62.2574 12.4075 61.0726 12.2614 62.8164 12.4739C62.3638 10.6543 62.7765 9.72453 63.6018 8.43619C64.4005 7.17441 64.8132 7.06815 65.2391 5.24854C63.695 6.59001 63.4953 7.53302 60.5002 8.47603C60.8064 8.83464 61.432 9.39248 61.7648 9.84407C61.8447 9.9636 62.1908 10.5746 62.2174 10.7605C62.6035 12.9786 62.3505 11.5973 61.8048 12.0356Z" fill="#7D8185"/>
<path fill-rule="evenodd" clip-rule="evenodd" d="M55.8015 14.8116C56.0545 13.5631 55.4022 9.61838 57.7849 11.9958L58.5437 10.9333H59.9015C58.2508 9.1668 56.3606 10.6012 54.6301 11.1724L55.5353 14.2803C55.7084 14.8382 55.5752 14.5061 55.8015 14.8116Z" fill="#7D8185"/>
<path fill-rule="evenodd" clip-rule="evenodd" d="M29.845 10.0965C30.3508 10.4418 30.5638 10.4949 31.4956 10.4285C33.865 10.2559 34.0647 9.85741 34.3842 12.2083C34.6637 14.2271 35.2228 13.9349 35.529 14.0678C35.0497 12.5802 35.2494 11.9294 35.1562 10.3754C32.8001 8.5425 32.667 9.60505 29.845 10.0965Z" fill="#2FECED"/>
<path fill-rule="evenodd" clip-rule="evenodd" d="M31.2017 19.2876H31.1218C30.7225 17.6141 29.4845 15.5554 27.8871 14.7319C25.5443 13.5365 24.3197 14.0678 23.7606 11.013L22.9885 10.4817C23.9203 14.6256 23.9869 13.417 27.1816 14.9178C29.6443 16.0866 29.8705 18.5969 31.2017 19.2876Z" fill="#51CED6"/>
<path fill-rule="evenodd" clip-rule="evenodd" d="M30.7233 7.83858L31.4022 7.37372C30.1509 6.45727 27.036 6.11194 25.2922 5.56738C25.8646 7.05495 29.2457 7.66592 30.7233 7.83858Z" fill="#2FECED"/>
<path fill-rule="evenodd" clip-rule="evenodd" d="M60.9934 20.0446L61.233 20.7486C61.4726 20.5228 61.4194 20.629 61.6723 20.297L62.258 19.2876C62.6707 18.5704 62.6973 18.5172 62.8969 17.6938L61.6457 17.6406C61.4194 19.3009 61.3129 18.929 60.9934 20.0446Z" fill="#2FECED"/>
<path fill-rule="evenodd" clip-rule="evenodd" d="M19.7544 64.4459L20.9391 65.6147L42.1975 68.6961L53.2327 67.5273L56.9732 65.5085L52.3408 65.8405L30.4701 64.7647L20.6995 64.1006L19.7544 64.4459Z" fill="#28EBF7"/>
<path fill-rule="evenodd" clip-rule="evenodd" d="M21.6708 2.80474C21.6042 1.84844 21.6042 2.65864 21.937 2.32659C22.4029 3.34929 23.0818 3.80088 23.7607 4.59779L25.2915 5.56737C27.0353 6.11193 30.1502 6.45725 31.4014 7.3737L30.7226 7.83857C30.1635 8.23703 29.9239 8.46282 29.4313 8.82143L28.0603 9.81757L29.844 10.0965C32.666 9.60506 32.7991 8.54251 35.1553 10.3754C35.2484 11.9294 35.0488 12.5802 35.528 14.0678L35.954 15.21C36.8724 14.4264 36.8458 13.4302 37.112 12.2482C37.538 10.309 37.6578 10.2692 36.8458 8.63548C37.2052 7.5198 40.5996 9.44568 41.3717 9.79101C43.1688 10.5614 44.8061 10.5348 46.9226 10.6145C52.3137 10.827 52.9394 11.4645 55.2556 15.0772L55.5883 15.5288L55.8013 14.8116C55.575 14.5061 55.7081 14.8381 55.5351 14.2803L54.6299 11.1723C56.3604 10.6012 58.2506 9.16676 59.9013 10.9332C60.9129 11.1458 61.3123 11.1856 61.8048 12.0356C62.3506 11.5973 62.6035 12.9787 62.2174 10.7606C62.1908 10.5746 61.8447 9.96367 61.7649 9.84413C61.4321 9.39255 60.8064 8.83471 60.5003 8.4761C63.4953 7.53309 63.695 6.59007 65.2392 5.2486C65.5187 4.9564 65.2924 4.55795 65.5586 5.36814C65.7716 6.01895 65.6385 5.63378 65.5852 6.03223C66.1843 7.94483 65.5453 10.8403 64.9995 12.7396C64.4005 14.8647 63.6418 16.0733 61.5652 16.6843L60.3139 16.857C60.7133 17.2687 60.3272 16.9765 60.8863 17.3218C61.046 17.4148 61.5652 17.614 61.6451 17.6406L62.8963 17.6937C62.6967 18.5172 62.67 18.5703 62.2574 19.2876L61.6717 20.297C61.4188 20.629 61.472 20.5228 61.2324 20.7486L60.9928 20.0446C60.4071 19.6063 60.274 19.4204 59.7282 19.0485C59.2756 18.7164 58.9428 18.3445 58.4636 18.0789C58.7165 19.9782 59.7681 20.9212 59.9146 22.5682C60.4204 23.3385 60.6866 25.012 60.7133 26.1012L60.2074 28.3724C57.5185 27.1106 57.8912 26.991 53.951 28.5052C50.144 29.9662 50.7297 28.0669 49.4518 27.1903C48.6797 26.6723 49.6248 26.7653 48.9859 27.0973C48.4135 29.249 49.5183 29.9396 49.9177 30.71C50.7962 32.4366 50.6099 32.8085 51.9277 33.9906C54.3371 36.1555 57.8912 34.0703 59.1425 32.9148L59.4487 33.6054L59.5285 34.2562C60.0077 35.3852 60.2607 35.6375 60.4071 37.1782C61.0194 37.8158 60.8064 37.5236 60.8464 38.3338C62.3905 39.5159 57.8513 42.916 54.377 41.1097C55.0958 38.9182 54.9893 38.0017 53.8445 36.5142L53.565 37.1782C53.5384 37.2447 53.5118 37.3243 53.4984 37.3908C53.3653 37.7759 53.4851 37.7759 53.2588 38.201C52.8462 39.5557 51.9144 40.7245 50.8095 41.2823C49.4251 41.973 47.9742 41.1495 46.5366 40.937C47.0158 38.9182 47.2421 39.0377 46.7895 36.8462L46.4966 36.0493C45.7246 37.2579 45.445 38.7322 44.4467 39.5291C43.4483 42.1191 41.1587 42.0261 38.9623 40.3128C39.6812 38.5463 39.2153 37.6431 38.8825 36.1157L38.0572 37.6298C36.3666 42.066 30.9089 41.8402 31.6677 37.4837C31.681 32.9679 26.2632 34.6414 23.3746 32.5429L23.6142 28.3192L24.2665 28.5982C25.1983 28.6247 25.6243 28.8505 26.1833 29.1294L25.9571 28.3591C24.972 26.659 22.1633 25.9816 23.774 23.0596C24.8256 21.1337 26.8223 20.1243 26.1168 16.9898L26.9687 17.4281C27.9138 17.9328 27.9937 18.2648 28.8456 18.8493C28.9654 18.9157 29.7242 19.3805 29.8839 19.4469C31.4414 20.0446 30.9089 19.6727 31.2018 19.2876C29.8706 18.5969 29.6443 16.0866 27.1817 14.9178C23.987 13.417 23.9204 14.6256 22.9886 10.4817L23.7607 11.0129C25.1317 11.2786 24.16 11.159 24.4395 10.8801C23.7873 10.2426 23.0418 8.4761 22.6026 7.47996C21.8971 5.83301 21.7107 4.74389 21.6708 2.80474Z" fill="#090C3F"/>
<path fill-rule="evenodd" clip-rule="evenodd" d="M52.3274 31.507C53.2459 31.1085 54.4705 30.9492 55.6153 30.4312C56.7468 29.9132 57.7318 29.1561 58.9432 29.7139C58.5705 31.0023 55.5355 34.1235 52.3274 31.507Z" fill="#090C3F"/>
<path fill-rule="evenodd" clip-rule="evenodd" d="M27.714 36.2753C32.0003 36.5941 29.0319 39.8216 31.4945 42.1857C33.5711 44.178 36.8324 42.8498 38.1502 41.4021C39.1619 42.2256 39.8008 43.66 41.8641 43.8327C43.954 44.0054 45.2319 42.6905 46.1238 41.5881L46.7627 42.3186C49.2387 45.0679 51.5149 43.753 53.5649 42.1326C53.6048 42.1725 53.6714 42.1857 53.6847 42.2787C53.8444 42.9561 53.7379 42.3451 53.9509 42.5709C55.4152 44.1382 56.8528 44.1515 58.8895 43.7928C58.57 46.2367 56.6531 45.6125 53.5116 47.6977C51.8344 48.8001 49.3451 50.6197 46.4699 49.8228C46.8559 49.079 47.4682 48.7204 47.7478 47.7774C48.0007 46.8875 47.9075 45.6523 47.8543 44.6827C46.7228 45.4664 46.1238 47.3125 44.6196 48.3884C43.2352 49.3712 40.8125 50.3275 38.7492 49.8095L41.132 48.654L36.2733 48.8798C33.3847 48.043 34.5162 45.9711 32.8523 44.5499C29.9371 42.0662 25.0251 48.3884 26.5959 40.4724C26.9819 38.5332 26.9287 38.0551 26.9154 36.0894L27.714 36.2753Z" fill="#090C3F"/>
<path fill-rule="evenodd" clip-rule="evenodd" d="M66.5979 56.1184C66.9307 55.6668 67.7959 54.9762 68.2086 54.405C70.4715 51.1775 70.618 47.7375 71.603 45.3069L71.7894 41.6544C71.4699 40.3528 71.1637 39.0645 70.8576 37.723L70.8975 37.5902C70.7378 36.2221 70.2053 35.4119 70.9641 34.0838C71.4566 33.2204 71.9358 32.2243 72.4283 31.5336C73.4533 26.7389 73.2004 27.1108 70.8443 24.6802C70.4582 24.2817 70.3784 24.2419 70.0456 23.8833C69.4332 23.2856 69.6995 23.684 69.2735 22.9004C67.7294 22.1035 66.5713 20.4565 65.0405 19.3541C65.3733 15.7149 65.5596 16.7642 66.6245 14.918L66.9706 14.2008L66.9573 14.068L67.1171 13.032C67.1171 12.9257 67.1171 11.3585 67.2635 10.774C67.3433 10.4818 67.3966 10.0435 67.4498 9.61852C67.5031 9.18022 67.5297 8.7552 67.5563 8.44972C67.6096 7.8786 67.2768 6.36446 67.2635 6.28477L66.2119 2.63225L65.2801 3.00415L62.6977 5.3816L59.7691 7.00199L58.438 7.78562H58.4247C58.4247 7.78562 56.388 8.07783 55.8955 8.23721C55.4695 8.35675 54.591 8.34346 53.9786 8.33018C53.8588 8.33018 53.7524 8.33018 53.6326 8.33018C53.3929 8.33018 52.9137 8.37003 52.3813 8.40987C51.6625 8.463 50.8371 8.52941 50.2914 8.52941C49.8122 8.52941 49.506 8.51613 49.08 8.44972C48.6541 8.37003 48.1349 8.23721 47.2297 7.98485C46.1249 7.67937 45.6191 7.57311 45.1665 7.49342C44.8869 7.42701 44.6207 7.38717 44.248 7.28091C43.7954 7.17466 42.9435 7.04184 42.0516 6.90902C40.9334 6.73636 39.762 6.56369 39.2029 6.39103C38.8036 6.27149 38.2978 6.1918 37.8052 6.13867C37.0864 6.07226 36.4208 6.07226 36.2478 6.09883C36.0747 6.12539 35.3426 6.01913 34.6504 5.92616C34.1446 5.85975 33.6654 5.79334 33.4524 5.79334C33.2394 5.78006 32.8667 5.81991 32.494 5.84647C32.0414 5.88632 31.5755 5.92616 31.3492 5.8996C31.043 5.85975 30.3109 5.51442 29.7784 5.24879C29.6054 5.16909 29.4456 5.0894 29.3258 5.04956C28.8866 4.85033 27.1161 4.505 27.1028 4.505H27.0895C26.0645 3.86747 25.0529 3.22994 24.0279 2.59241L21.9646 0.00244141C21.6584 0.108696 20.0744 0.653254 19.8614 1.07827C19.6351 1.54314 19.4354 2.6721 19.4221 2.79164C19.4354 2.92446 19.5685 4.25264 19.675 4.81048C19.7682 5.39489 19.9945 7.16138 20.0211 7.2942L20.9929 9.76463V9.77791C21.0461 9.75134 21.0861 9.73806 21.126 9.72478C21.4055 14.7055 21.7117 15.1039 25.1194 16.7111C24.7467 20.7089 19.2491 20.5362 21.7649 26.9647C23.2425 30.7766 17.492 33.8447 25.6253 35.8502C25.7983 38.7058 21.2857 46.2765 27.0363 46.8609C28.7801 47.0469 30.1112 46.0507 31.3226 46.3031C33.5056 48.3618 32.0148 51.0049 37.2195 50.3408C39.3361 53.462 43.2496 52.001 45.8587 50.3009C45.9119 50.3275 46.0051 50.3275 46.0317 50.4072L47.0833 51.0447C51.0768 52.7846 54.8572 48.8399 57.9588 48.2688C61.0204 46.5156 60.5279 46.5422 61.4597 42.8631C62.1785 40.0208 64.9074 40.4192 62.072 36.594C60.6078 34.6283 61.4064 31.4274 62.285 29.382C63.9622 25.4771 62.8308 25.4638 62.072 22.0238L63.8424 20.948C64.3216 20.005 63.9622 20.6026 64.6278 20.2972C65.4931 22.7809 68.9274 26.0482 70.6047 27.4694C70.7644 32.1579 66.944 35.4651 67.2768 39.2504L67.4365 39.9809C67.4498 40.034 67.4765 40.127 67.5164 40.2067C68.0355 38.6926 68.568 38.1613 69.1138 37.0722C69.6862 36.6472 69.4599 38.666 69.6462 40.645C70.0855 45.2007 68.4349 48.1493 66.9573 51.6557C66.4249 52.9307 65.9456 53.5284 64.9739 54.3519C63.8691 55.2816 63.5895 55.2285 62.711 56.6098C61.8191 58.031 59.8623 61.1389 59.4896 62.3742C59.9022 62.7195 60.0487 62.9586 60.3815 63.2508L62.0853 61.046L65.2002 57.7521L66.5979 56.1184Z" fill="#090C3F"/>
<path fill-rule="evenodd" clip-rule="evenodd" d="M10.117 57.1674C11.0488 57.8714 11.7809 58.23 12.3932 59.3191C13.6445 60.1559 14.0971 61.2051 16.5464 62.9318C17.4249 63.556 18.1571 63.8217 18.9158 64.5522C20.0739 65.6678 21.3385 66.4515 22.6963 67.0093L23.1755 67.0492C26.3569 68.1781 30.0309 68.3641 34.3305 69.0016C39.7083 69.7852 45.978 70.6353 51.4889 69.3204H51.449C54.484 68.5367 57.2528 67.0492 59.4359 64.4592C59.2229 63.8349 59.0365 64.1006 58.6771 63.2638C58.2512 63.4232 58.5973 63.2904 58.1713 63.5029C55.9217 64.6451 55.0963 64.9772 52.4074 64.6584C52.86 65.11 53.1795 65.3225 54.1379 65.4686C54.9233 65.5881 55.6954 65.5483 56.4807 65.5881L55.5889 66.0397C48.8799 68.2445 45.552 68.0984 37.9379 67.2351C32.4536 66.6109 25.2254 66.3585 20.3934 64.8045L24.5333 64.8975L27.2222 64.6584C25.8378 64.2865 27.2089 64.7381 26.5699 64.1006C25.0923 64.167 21.6314 63.1841 20.3002 62.6396C18.2369 61.8028 13.4847 57.0877 11.6744 55.3213C10.5562 54.2321 8.53289 52.8774 6.97545 51.8016C2.91545 48.9991 6.61604 44.6692 3.72745 39.6486C3.15506 38.6525 2.383 38.3736 2.40962 36.8727C2.46287 34.3624 4.85893 32.6491 5.84397 28.2129L6.28325 29.7403L7.18843 34.2562C7.56115 33.26 7.57446 29.913 7.60109 28.3856C7.60109 26.8316 7.12187 25.0386 6.61604 23.7768C5.88391 21.9306 4.95211 21.7845 4.16673 20.4297C5.20502 17.8796 13.7909 15.9803 15.9207 13.8154C16.3733 12.7263 15.6678 13.8685 16.2935 13.2442C16.6262 12.9122 16.4665 13.0716 16.7727 12.8724C17.1055 12.6598 17.6113 12.4208 18.0373 12.195C18.3701 11.6504 19.395 10.5879 20.42 10.03V9.96362L16.0272 11.1723C15.9074 11.3582 16.0139 11.2785 15.5746 11.7035L13.4581 13.0317C9.18515 15.21 -2.67536 17.6804 3.60765 23.0728C5.20502 24.4409 4.68588 26.0745 3.92712 28.4387C3.88719 28.545 3.6609 29.1559 3.63427 29.2091C3.60765 29.2622 3.56772 29.3286 3.54109 29.395L2.95539 30.0458C2.46287 32.1311 -1.02474 34.6679 0.293098 38.5861L1.58431 40.937C2.10346 41.4018 1.71742 40.8971 2.22326 41.6808C3.00863 42.8761 3.88719 46.7146 3.82063 48.0029C3.7807 49.0389 3.72745 49.5436 3.6609 49.9022C3.6609 49.9022 4.75243 51.5625 5.00535 52.107C5.24496 52.6649 6.89558 53.754 6.89558 53.754L8.29328 55.0423L10.117 57.1674Z" fill="#090C3F"/>
<path fill-rule="evenodd" clip-rule="evenodd" d="M18.0371 12.195C17.4647 13.4037 15.9339 16.8171 15.3082 17.5211C12.8988 20.1907 12.9255 18.4641 13.2183 23.4448C14.0836 27.27 15.3881 25.5168 14.9355 34.2164C14.829 36.2751 14.8556 38.3603 15.2683 40.3261C15.8141 42.9027 16.5063 42.9426 17.3183 44.4302L15.5878 43.7262C12.6859 42.2254 11.2749 39.4627 10.6492 35.6641C10.2232 36.1688 10.1034 36.2485 9.99695 37.6697C9.9304 38.5729 9.95702 39.3963 9.87715 40.2862L8.97197 36.979C8.15997 39.5159 9.21158 43.8192 10.2366 45.6123C11.7141 48.1757 13.0453 50.075 15.4147 51.2969C15.3748 50.3539 15.2816 48.6405 15.5745 47.7241C15.7342 47.1662 15.7342 47.299 15.8141 47.1397C17.4647 49.3046 18.6361 51.3899 20.8458 53.6079C22.6695 55.4408 24.9058 57.0745 28.2203 57.8714C34.7563 59.4387 39.8146 57.6722 45.1259 61.1786L46.7499 62.6927C43.6616 62.467 38.6964 62.5201 35.8478 63.3834C37.4984 64.5257 45.5385 65.6413 48.6002 65.0835C49.2258 64.964 49.8781 64.778 50.344 64.4327C50.8498 64.0608 50.7433 64.0608 50.9563 63.7287L51.4355 62.9053C55.5221 63.4631 57.3724 63.742 60.1678 58.5886C61.1795 56.7026 61.5655 55.9854 62.8834 54.6705C63.8018 53.7408 65.8385 52.2266 66.9567 51.6555C68.4342 48.1491 70.0848 45.2005 69.6456 40.6448C69.4592 38.6658 69.6855 36.647 69.1131 37.072C69.3261 39.4096 69.0332 41.4019 68.6339 43.6731C68.4608 44.656 68.1547 45.4927 67.8751 46.3959C67.4758 47.7374 67.4492 48.2421 66.6106 48.9062L66.5972 47.6577C64.4674 50.3008 66.1047 50.0484 59.9548 55.1752C58.6636 56.2378 57.3192 58.4957 55.2559 59.1066C57.5854 54.5377 56.2276 55.7995 60.4873 51.7352C62.3376 49.9554 64.7336 47.6842 65.9184 44.2708C64.5473 45.3333 64.0015 47.6045 59.1961 51.2305C54.1244 55.0424 52.0079 54.8697 50.3972 55.9588C51.4754 56.5698 53.1527 56.3971 54.5238 56.3042C52.9397 58.8277 48.3606 58.2566 45.3921 57.9644C42.4902 57.6855 38.2971 57.4198 35.5816 56.8886C36.966 56.7292 38.6432 56.1448 39.5218 55.4143C34.6498 55.0822 32.2138 55.3479 27.9541 53.4087C25.385 52.2399 21.5779 49.1718 20.9922 46.6748C22.4432 47.3787 23.548 48.7999 25.3051 49.5437L23.9474 46.8873C26.4366 47.6444 27.5548 47.2725 30.0573 47.6311C32.3602 49.9687 30.1505 51.3235 35.6215 52.1071C38.0974 52.4657 38.5367 55.0955 43.7149 53.0501C46.3239 52.0274 44.7798 52.1469 47.2823 52.9173C50.943 54.0595 56.6403 49.9156 57.9581 48.2686C54.8565 48.8397 51.0761 52.7845 47.0827 51.0445L46.0311 50.407C46.0044 50.3273 45.9113 50.3273 45.858 50.3008C43.249 52.0008 39.3354 53.4618 37.2189 50.3406C32.0141 51.0047 33.505 48.3616 31.3219 46.3029C30.1106 46.0506 28.7794 47.0467 27.0356 46.8607C21.2851 46.2763 25.7976 38.7057 25.6246 35.8501C17.4913 33.8445 23.2418 30.7764 21.7643 26.9645C19.2484 20.5361 24.746 20.7087 25.1188 16.7109C21.711 15.1038 21.4049 14.7053 21.1253 9.72461C19.9007 10.0832 18.4497 11.5177 18.0371 12.195Z" fill="#807E84"/>
<path fill-rule="evenodd" clip-rule="evenodd" d="M16.3331 50.6594C16.9987 51.3102 17.7974 52.4126 18.5561 53.2361C20.1402 54.9627 24.746 58.3231 27.2485 58.8942C32.2936 60.0364 39.2288 59.2528 43.4086 61.6966C37.8311 61.7631 30.4566 62.3475 25.345 60.8068C22.7626 60.0364 16.4663 54.8698 16.3331 50.6594ZM15.9205 13.8155C14.4828 16.0734 8.22646 18.225 5.56417 20.2173C5.77715 21.6385 7.40115 22.7674 8.01348 25.0652C8.42613 26.5528 8.59918 29.8998 7.84043 31.3741L7.60082 28.3857C7.5742 29.9131 7.56089 33.2601 7.18817 34.2563L6.28299 29.7404C6.21643 31.2679 4.69893 33.7781 4.11322 35.2524C2.72883 38.6924 3.83368 37.6033 5.11158 40.4191C7.81381 46.4225 3.19473 47.7905 8.59918 51.7618C11.9803 54.2455 14.2166 55.9987 16.9055 58.8543C20.0071 62.1482 21.3649 62.5998 25.5846 63.8218C26.0106 63.9413 27.3816 64.0608 26.5696 64.1007C27.2086 64.7382 25.8375 64.2866 27.2219 64.6585L24.533 64.8976C26.7826 64.9109 30.0839 65.4023 32.4001 65.6812C35.0757 65.9867 37.5782 66.2391 40.1873 66.6109C48.7998 67.8462 55.3224 65.9867 55.5886 66.0398L56.4805 65.5882C55.6951 65.5484 54.923 65.5882 54.1377 65.4687C53.1792 65.3226 52.8598 65.1101 52.4072 64.6585C55.0961 64.9773 55.9214 64.6452 58.171 63.503C58.597 63.2905 58.2509 63.4233 58.6769 63.2639L59.4889 62.374C59.8616 61.1388 61.8184 58.0308 62.7102 56.6097C63.5888 55.2284 63.8683 55.2815 64.9732 54.3518C65.9449 53.5283 66.4241 52.9306 66.9566 51.6555C65.8384 52.2267 63.8018 53.7408 62.8833 54.6705C61.5655 55.9854 61.1794 56.7027 60.1678 58.5887C57.3723 63.7421 55.5221 63.4631 51.4354 62.9053L50.9562 63.7288C50.7432 64.0608 50.8497 64.0608 50.3439 64.4327C49.878 64.778 49.2257 64.964 48.6001 65.0835C45.5385 65.6414 37.4983 64.5257 35.8477 63.3834C38.6964 62.5201 43.6615 62.467 46.7498 62.6928L45.1258 61.1787C39.8145 57.6722 34.7562 59.4387 28.2203 57.8715C24.9057 57.0746 22.6694 55.4409 20.8457 53.608C18.636 51.3899 17.4646 49.3047 15.814 47.1397C15.7341 47.2991 15.7341 47.1663 15.5744 47.7241C15.2815 48.6406 15.3747 50.3539 15.4146 51.2969C13.0452 50.075 11.7141 48.1757 10.2365 45.6123C9.21151 43.8192 8.1599 39.5159 8.9719 36.9791L9.87708 40.2863C9.95695 39.3964 9.93033 38.5729 9.99688 37.6697C10.1034 36.2486 10.2232 36.1689 10.6491 35.6642C11.2748 39.4628 12.6858 42.2254 15.5877 43.7263C15.1617 42.9559 15.0952 43.0356 14.6958 42.4778C10.4761 36.5408 14.0968 31.9054 11.8339 25.4637C11.3147 24.0027 10.1167 21.3064 10.7689 19.9517C11.5943 21.1072 12.2332 22.6081 13.2183 23.4448C12.9254 18.4641 12.8988 20.1908 15.3082 17.5211C15.9338 16.8172 17.4646 13.4037 18.037 12.1951C17.611 12.4209 17.1052 12.6599 16.7724 12.8724C16.4663 13.0717 16.626 12.9123 16.2932 13.2443C15.6676 13.8686 16.3731 12.7263 15.9205 13.8155Z" fill="#555A5B"/>
<path fill-rule="evenodd" clip-rule="evenodd" d="M59.9151 22.5683C59.7687 20.9213 58.7171 19.9783 58.4642 18.079C58.9434 18.3447 59.2762 18.7165 59.7288 19.0486C60.2745 19.4205 60.4077 19.6064 60.9934 20.0447C61.3128 18.9291 61.4193 19.3009 61.6456 17.6407C61.5658 17.6141 61.0466 17.4149 60.8869 17.3219C60.3278 16.9766 60.7138 17.2688 60.3145 16.8571L61.5658 16.6844C61.9252 15.8477 62.6307 15.5953 63.2164 14.6789C64.2014 13.1514 64.1881 11.5443 64.8936 8.88795C65.1199 7.99806 65.1865 6.77613 65.5858 6.03234C65.6391 5.63389 65.7722 6.01906 65.5592 5.36825C65.293 4.55805 65.5192 4.95651 65.2397 5.24871C64.8137 7.06833 64.4011 7.17459 63.6024 8.43636C62.7771 9.72471 62.3644 10.6544 62.817 12.4741C61.0732 12.2615 62.2579 12.4076 61.8054 12.0358C61.3128 11.1857 60.9135 11.1459 59.9018 10.9334H58.5441L57.7853 11.9959C55.4025 9.61845 56.0548 13.5632 55.8019 14.8117L55.5889 15.5289L55.2561 15.0773C54.0448 14.639 54.4441 14.3202 53.5922 13.4968C51.276 11.2521 50.078 12.049 49.0131 12.0889C48.1079 12.1287 47.3225 11.81 46.3907 11.6771C40.8398 10.8802 43.6752 11.7834 38.9629 9.45907C38.0444 9.00749 38.0444 8.72857 36.8464 8.63559C37.6584 10.2693 37.5386 10.3091 37.1126 12.2483C36.8464 13.4304 36.873 14.4265 35.9545 15.2101L35.5286 14.0679C35.2224 13.9351 34.6633 14.2273 34.3838 12.2084C34.0643 9.85753 33.8646 10.256 31.4952 10.4286C30.5634 10.4951 30.3504 10.4419 29.8446 10.0966L28.0608 9.81768L29.4319 8.82154C29.9244 8.46293 30.164 8.23714 30.7231 7.83868C29.2455 7.66602 25.8644 7.05505 25.292 5.56748L23.7612 4.5979C23.881 5.89953 24.48 5.48779 26.2238 7.93165C27.2488 9.37938 27.1157 10.4419 29.0725 11.1724C32.7598 12.567 30.5234 11.531 31.6682 14.6921C32.3471 16.5914 33.625 16.5649 34.9029 17.561C35.5019 18.5704 35.4487 19.5533 36.5935 20.4033C38.0045 21.4393 38.4837 20.8682 39.9879 21.0276C42.9697 21.3331 41.7583 23.7105 46.9232 21.4659C47.1095 21.7847 47.3624 22.2761 47.6287 22.5683C49.1994 22.555 48.414 21.8643 50.251 23.1925C53.3659 25.4372 55.0831 23.2457 56.361 23.4449C57.8519 23.6574 58.0781 24.4012 59.8086 23.684L59.9151 22.5683Z" fill="#B2B2B2"/>
<path fill-rule="evenodd" clip-rule="evenodd" d="M57.9581 48.2686C56.6403 49.9155 50.943 54.0595 47.2823 52.9172C44.7798 52.1469 46.3239 52.0274 43.7148 53.0501C38.5367 55.0955 38.0974 52.4657 35.6215 52.107C30.1505 51.3234 32.3602 49.9687 30.0573 47.6311C27.5547 47.2724 26.4366 47.6443 23.9473 46.8873L25.3051 49.5436C23.548 48.7999 22.4431 47.3787 20.9922 46.6748C21.5779 49.1718 25.385 52.2399 27.9541 53.4087C32.2137 55.3478 34.6497 55.0822 39.5217 55.4142C38.6432 56.1447 36.9659 56.7291 35.5815 56.8885C38.2971 57.4198 42.4902 57.6854 45.3921 57.9644C48.3605 58.2566 52.9397 58.8277 54.5237 56.3041C53.1527 56.3971 51.4754 56.5698 50.3972 55.9588C52.0079 54.8697 54.1244 55.0423 59.1961 51.2304C64.0015 47.6045 64.5473 45.3333 65.9183 44.2707C65.9982 43.9387 65.9716 43.8988 66.1446 43.5934C66.5174 42.9027 66.331 43.2215 66.6771 42.8496C67.0365 45.2005 66.7969 45.5192 66.5972 47.6576L66.6105 48.9061C67.4492 48.242 67.4758 47.7373 67.8751 46.3958C68.1547 45.4927 68.4608 44.6559 68.6339 43.6731C69.0332 41.4019 69.3261 39.4096 69.1131 37.072C68.5673 38.1611 68.0349 38.6923 67.5157 40.2065C66.3842 39.7283 66.9699 35.7305 67.316 34.5882C67.7287 33.2202 69.2595 31.0553 69.4059 29.6872C69.6988 26.9246 64.2677 25.0253 63.8418 20.9478L62.0713 22.0236C62.8301 25.4636 63.9616 25.4769 62.2843 29.3817C61.4058 31.4272 60.6071 34.6281 62.0713 36.5938C64.9067 40.419 62.1778 40.0205 61.459 42.8629C60.5272 46.5419 61.0197 46.5154 57.9581 48.2686Z" fill="#B2B2B2"/>
<path fill-rule="evenodd" clip-rule="evenodd" d="M28.6863 25.6628C29.9908 20.8415 41.1458 26.9379 42.3838 27.3363C44.3672 27.9739 45.2457 26.1675 46.1509 25.4636C45.3655 29.8864 44.1808 28.1332 42.9295 30.2318C39.8013 35.4383 29.7645 33.7249 30.4434 25.3972L28.6863 25.6628ZM23.761 11.0129C24.3201 14.0677 25.5448 13.5364 27.8876 14.7318C29.485 15.5553 30.7229 17.614 31.1223 19.2875H31.2021C30.9093 19.6727 31.4417 20.0446 29.8843 19.4469C29.7246 19.3805 28.9658 18.9156 28.846 18.8492C27.9941 18.2648 27.9142 17.9328 26.9691 17.428C27.1954 23.2986 20.8192 22.6345 26.1837 27.841C26.2769 28.784 26.2769 28.1067 25.9574 28.359L26.1837 29.1294C25.6246 28.8505 25.1987 28.6247 24.2669 28.5981L24.0273 32.3702C25.9175 33.0608 32.1739 33.539 32.0275 36.6336C31.9476 38.2806 32.1739 36.9126 31.668 37.4837C30.9093 41.8401 36.367 42.0659 38.0575 37.6298L38.8829 36.1156C38.417 35.7438 39.7215 35.8102 38.0842 35.8102C37.951 37.7626 36.2339 39.4361 34.6764 38.4665C34.357 39.2502 34.4235 39.383 33.5316 39.383C32.5998 37.8821 33.6914 35.1195 32.0141 33.964C30.3502 32.8217 28.2603 33.8444 27.4483 31.56L28.3402 30.8693C28.3801 30.8427 28.46 30.8162 28.4999 30.7763C28.0873 30.0193 28.034 28.9036 28.3269 28.12C30.7496 27.7613 29.7778 29.9529 32.1339 31.9584C32.2005 32.0115 32.4002 32.1709 32.4534 32.2241C32.52 32.2639 32.5865 32.317 32.6398 32.3569L32.9992 32.6624L35.1556 33.3397C37.1524 33.4194 41.7714 34.0702 43.3954 31.1217C43.3688 32.1178 42.7698 32.8217 42.5302 33.5788C44.2873 32.5827 45.1525 29.0098 47.4155 29.9263C48.8398 30.5505 48.2275 32.2905 50.2508 34.1101C49.8648 33.2069 49.8781 33.0741 50.1843 32.5163C52.5803 38.254 58.6637 33.7648 59.449 33.6054L59.1429 32.9147C57.8916 34.0702 54.3374 36.1555 51.9281 33.9905C50.6102 32.8085 50.7966 32.4366 49.918 30.7099C49.5187 29.9396 48.4139 29.2489 48.9862 27.0972C49.6252 26.7652 48.6801 26.6722 49.4521 27.1902C50.73 28.0668 50.1443 29.9661 53.9514 28.5051C57.8916 26.991 57.5189 27.1105 60.2078 28.3723L60.7136 26.1011C58.8234 26.8449 58.677 26.0878 57.1994 25.7691C54.7102 25.2378 52.2875 29.4349 48.7733 24.7862C46.9762 26.2472 46.8564 24.8128 46.1243 23.5111C43.9944 25.1315 40.2273 24.6534 37.6449 23.3385C35.6349 22.3025 35.3154 22.9533 33.1323 22.5548C30.1905 22.0236 30.7496 22.6744 28.6064 22.7806C28.5132 21.6251 28.7661 21.147 29.3785 20.3501C31.0823 20.3899 32.6132 20.5891 33.7047 19.4867C30.4168 17.521 30.4434 13.3505 29.7778 12.8856C28.247 12.5137 27.4749 12.952 26.0107 12.2083C26.7428 11.8762 26.7561 12.195 27.5016 11.677C25.7977 9.9769 25.9175 8.68856 24.6529 7.09474C21.6046 3.24299 23.4948 5.55404 21.6711 2.80469C21.7111 4.74384 21.8974 5.83296 22.6029 7.47991C23.0422 8.47605 23.7877 10.2425 24.4399 10.8801C24.1604 11.159 25.1321 11.2785 23.761 11.0129Z" fill="#555A5B"/>
<path fill-rule="evenodd" clip-rule="evenodd" d="M21.6708 2.80474C23.4944 5.55409 21.6042 3.24304 24.6525 7.09478C25.9171 8.68861 25.7973 9.97695 27.5012 11.677C26.7557 12.195 26.7424 11.8763 26.0103 12.2083C27.4746 12.9521 28.2466 12.5138 29.7774 12.8857C30.443 13.3506 30.4164 17.5211 33.7043 19.4868C32.6128 20.5892 31.082 20.3899 29.3781 20.3501C28.7658 21.147 28.5129 21.6252 28.606 22.7807C30.7492 22.6744 30.1901 22.0236 33.1319 22.5549C35.315 22.9534 35.6345 22.3025 37.6445 23.3385C40.2269 24.6534 43.9941 25.1316 46.1239 23.5112C46.856 24.8128 46.9758 26.2473 48.7729 24.7863C52.2871 29.4349 54.7098 25.2378 57.199 25.7691C58.6766 26.0879 58.823 26.8449 60.7133 26.1012C60.6866 25.012 60.4204 23.3385 59.9146 22.5682L59.8081 23.6839C58.0776 24.4011 57.8513 23.6573 56.3604 23.4448C55.0825 23.2456 53.3653 25.4371 50.2505 23.1924C48.4135 21.8642 49.1988 22.5549 47.6281 22.5682C47.3619 22.276 47.1089 21.7845 46.9226 21.4658C41.7577 23.7104 42.9691 21.333 39.9873 21.0275C38.4831 20.8681 38.0039 21.4392 36.5929 20.4032C35.4481 19.5532 35.5014 18.5703 34.9023 17.5609C33.6244 16.5648 32.3465 16.5913 31.6677 14.692C30.5229 11.5309 32.7592 12.5669 29.0719 11.1723C27.1151 10.4418 27.2483 9.37927 26.2233 7.93154C24.4795 5.48768 23.8805 5.89942 23.7607 4.59779C23.0818 3.80088 22.4029 3.34929 21.937 2.32659C21.6042 2.65864 21.6042 1.84844 21.6708 2.80474Z" fill="#7E7D82"/>
<path fill-rule="evenodd" clip-rule="evenodd" d="M48.8667 44.5232C51.489 44.7756 51.875 44.3107 53.5656 43.3942C54.2179 43.7794 53.539 43.3942 54.0847 43.7528C54.1513 43.7927 54.351 43.9255 54.4175 43.9654L56.8269 44.749C56.8668 44.6959 56.96 44.7888 57.0266 44.8287C55.8152 45.7983 54.4708 45.3732 52.8468 46.4889C51.5423 47.3921 50.8367 48.096 48.7735 48.003L48.8667 44.5232ZM36.5136 44.2443C39.7483 42.9294 37.086 43.7263 40.5204 44.5763C44.0213 45.4396 44.6869 43.713 46.3641 42.8895C46.3641 45.1873 45.0463 46.8342 43.9813 46.9538C42.9564 47.06 44.8333 46.7147 43.3291 46.8874C42.8233 46.9538 42.1976 47.3124 41.532 47.3788C40.4405 47.4718 40.547 47.1663 40.0678 46.9803L39.7749 46.8741C37.7649 46.6085 37.898 48.7734 35.0227 44.8287L36.5136 44.2443ZM36.274 48.8797L41.1327 48.6539L38.7499 49.8094C40.8132 50.3274 43.2359 49.3711 44.6203 48.3882C46.1245 47.3124 46.7235 45.4662 47.855 44.6826C47.9082 45.6522 48.0014 46.8874 47.7485 47.7773C47.4689 48.7203 46.8566 49.0789 46.4706 49.8227C49.3459 50.6196 51.8351 48.8 53.5123 47.6976C56.6539 45.6123 58.5707 46.2366 58.8902 43.7927C56.8535 44.1513 55.4159 44.138 53.9516 42.5708C53.7386 42.345 53.8451 42.9559 53.6854 42.2786C53.6721 42.1856 53.6055 42.1723 53.5656 42.1325C51.5156 43.7528 49.2394 45.0678 46.7634 42.3184L46.1245 41.5879C45.2326 42.6903 43.9547 44.0052 41.8648 43.8325C39.8016 43.6599 39.1626 42.2254 38.1509 41.402C36.8331 42.8497 33.5718 44.1779 31.4952 42.1856C29.0326 39.8214 32.001 36.5939 27.7148 36.2751C27.768 38.1213 26.9693 42.863 27.4219 43.8458C29.7115 44.1646 31.016 42.3981 33.3056 44.3505C35.0227 45.8115 33.4653 45.8514 36.274 48.8797Z" fill="#555A5B"/>
<path fill-rule="evenodd" clip-rule="evenodd" d="M39.4554 34.7478C41.6119 32.9149 40.8265 35.7838 43.6885 33.6454C44.8732 32.7688 45.6452 31.1086 46.9231 30.6703C48.7335 31.6398 48.201 33.3798 50.4241 34.9869C52.3143 36.3416 51.0098 33.9774 52.2211 35.7971C53.113 37.1385 52.3941 37.7628 51.702 38.48C50.5439 38.48 50.89 37.7628 49.652 38.1745C48.6004 38.5331 48.8932 38.0019 47.8816 36.4346C47.3757 35.651 47.0429 35.5845 46.4706 34.7876C45.5787 35.6111 45.8183 36.6604 44.0079 38.4003L42.3041 37.9886C41.146 37.6432 41.5586 37.869 40.9995 37.2049C40.3606 36.4612 39.6018 35.5314 39.4554 34.7478ZM38.883 36.1158C40.0944 36.9924 40.6268 38.1081 40.9862 39.941C42.2774 39.6754 41.3323 40.1402 42.2908 39.1574C42.1443 39.941 42.3174 39.7816 42.9297 40.1535L44.4472 39.5293C45.4456 38.7324 45.7251 37.2581 46.4972 36.0494L46.79 36.8463C47.815 37.8159 47.7351 38.7988 48.7734 39.7285C49.3059 39.7152 49.7185 39.516 50.0247 39.4761C51.9282 39.2105 51.0364 40.9106 53.2594 38.2011C53.4857 37.7761 53.3659 37.7761 53.499 37.3909C53.5123 37.3245 53.5389 37.2448 53.5656 37.1784L53.8451 36.5143C56.1879 37.6698 55.722 37.7362 56.4408 40.2863C57.7853 40.3262 57.2129 40.4324 58.3444 38.8785C59.5158 39.7683 60.7804 40.2598 60.8469 38.3339C60.807 37.5237 61.02 37.8159 60.4076 37.1784C60.421 37.869 60.3677 37.9753 60.1281 38.4003C58.8635 38.6527 58.8502 38.387 58.3577 37.6565L57.2795 38.9183C56.0814 37.962 56.9067 37.1385 54.8435 36.3283C55.6555 35.8236 56.3343 35.9166 57.2928 35.5845C58.3044 35.2392 58.9168 34.7212 59.5291 34.2564L59.4492 33.6055C58.6638 33.7649 52.5805 38.2542 50.1844 32.5164C49.8783 33.0743 49.865 33.2071 50.251 34.1103C48.2277 32.2906 48.84 30.5507 47.4157 29.9265C45.1527 29.01 44.2875 32.5828 42.5304 33.579C42.77 32.8219 43.369 32.118 43.3956 31.1218C41.7716 34.0704 37.1525 33.4196 35.1558 33.3399C35.635 33.7649 34.7698 33.3532 35.9013 33.7782C36.6334 34.0571 36.873 33.8313 37.7915 34.3095C37.9379 35.8103 37.3389 36.7268 36.5535 37.4971C35.8613 37.2581 36.0211 37.3909 35.7548 36.6869C35.3289 37.0721 35.1159 37.351 34.2373 37.3643C33.7182 34.2165 34.4503 34.8806 32.3604 32.7289L32.9994 32.6625L32.64 32.3571C32.5867 32.3172 32.5202 32.2641 32.4536 32.2242C32.4003 32.1711 32.2007 32.0117 32.1341 31.9586C29.778 29.953 30.7497 27.7615 28.327 28.1201C28.0342 28.9038 28.0874 30.0194 28.5001 30.7765C28.4602 30.8164 28.3803 30.8429 28.3404 30.8695L27.4485 31.5601C28.2605 33.8446 30.3504 32.8219 32.0143 33.9642C33.6916 35.1197 32.6 37.8823 33.5318 39.3832C34.4237 39.3832 34.3571 39.2503 34.6766 38.4667C36.234 39.4363 37.9512 37.7628 38.0843 35.8103C39.7216 35.8103 38.4171 35.7439 38.883 36.1158Z" fill="#7E7D82"/>
<path fill-rule="evenodd" clip-rule="evenodd" d="M31.2958 25.5963C35.0363 26.3136 38.2311 28.266 41.6654 29.3684C40.9865 30.2848 39.8551 30.6966 38.6704 30.7763C37.5788 30.856 36.0081 30.5372 35.0097 30.2051C33.0529 29.5676 31.4955 26.5659 31.2958 25.5963ZM28.6868 25.6627L30.4439 25.3971C29.765 33.7248 39.8018 35.4382 42.93 30.2317C44.1813 28.1332 45.366 29.8864 46.1514 25.4635C45.2462 26.1675 44.3677 27.9738 42.3843 27.3363C41.1463 26.9378 29.9913 20.8414 28.6868 25.6627Z" fill="#090C3F"/>
<path fill-rule="evenodd" clip-rule="evenodd" d="M18.5563 53.2361C17.7975 52.4126 16.9988 51.3102 16.3333 50.6594C16.4664 54.8698 22.7627 60.0364 25.3451 60.8068C30.4567 62.3475 37.8312 61.7631 43.4087 61.6967C39.2289 59.2528 32.2937 60.0364 27.2486 58.8942C24.7461 58.3231 20.1403 54.9628 18.5563 53.2361Z" fill="#0C0B3C"/>
<path fill-rule="evenodd" clip-rule="evenodd" d="M39.4553 34.7477C39.6017 35.5313 40.3605 36.4611 40.9995 37.2049C41.5585 37.8689 41.1459 37.6432 42.304 37.9885L44.0078 38.4002C45.8182 36.6603 45.5786 35.611 46.4705 34.7875C47.0429 35.5845 47.3756 35.6509 47.8815 36.4345C48.8931 38.0018 48.6003 38.533 49.6519 38.1744C50.8899 37.7627 50.5438 38.4799 51.7019 38.4799C52.3941 37.7627 53.1129 37.1384 52.221 35.797C51.0097 33.9774 52.3142 36.3415 50.424 34.9868C48.2009 33.3797 48.7334 31.6397 46.923 30.6702C45.6451 31.1085 44.8731 32.7687 43.6884 33.6453C40.8264 35.7837 41.6118 32.9148 39.4553 34.7477Z" fill="#B2B0B0"/>
<path fill-rule="evenodd" clip-rule="evenodd" d="M15.5877 43.7262L17.3182 44.4302C16.5062 42.9426 15.814 42.9028 15.2683 40.3261C14.8556 38.3603 14.829 36.2751 14.9355 34.2164C15.3881 25.5168 14.0836 27.27 13.2183 23.4448C12.2333 22.608 11.5943 21.1072 10.769 19.9517C10.1167 21.3064 11.3148 24.0026 11.8339 25.4636C14.0969 31.9054 10.4761 36.5407 14.6959 42.4777C15.0952 43.0356 15.1618 42.9559 15.5877 43.7262Z" fill="#0C0B3C"/>
<path fill-rule="evenodd" clip-rule="evenodd" d="M26.5694 64.1005C27.3814 64.0607 26.0103 63.9412 25.5844 63.8216C21.3646 62.5997 20.0069 62.1481 16.9053 58.8542C14.2164 55.9986 11.9801 54.2454 8.59894 51.7617C3.19449 47.7904 7.81357 46.4223 5.11134 40.4189C3.83344 37.6032 2.72859 38.6923 4.11298 35.2523C4.69869 33.778 6.21619 31.2677 6.28275 29.7403L5.84347 28.2129C4.85843 32.649 2.46236 34.3624 2.40912 36.8727C2.38249 38.3735 3.15456 38.6524 3.72695 39.6486C6.61554 44.6691 2.91495 48.999 6.97495 51.8015C8.53239 52.8773 10.5557 54.2321 11.6739 55.3212C13.4842 57.0877 18.2364 61.8028 20.2997 62.6395C21.6309 63.1841 25.0918 64.1669 26.5694 64.1005Z" fill="#28EBF7"/>
<path fill-rule="evenodd" clip-rule="evenodd" d="M65.9183 44.2708C64.7336 47.6842 62.3376 49.9554 60.4873 51.7352C56.2276 55.7994 57.5854 54.5377 55.2559 59.1066C57.3191 58.4957 58.6636 56.2377 59.9548 55.1752C66.1047 50.0484 64.4674 50.3007 66.5972 47.6577C66.7969 45.5193 67.0365 45.2005 66.6771 42.8496C66.331 43.2215 66.5173 42.9027 66.1446 43.5934C65.9716 43.8989 65.9982 43.9387 65.9183 44.2708Z" fill="#090B3E"/>
<path fill-rule="evenodd" clip-rule="evenodd" d="M35.0227 44.8286C37.898 48.7733 37.7649 46.6083 39.7749 46.874L40.0677 46.9802C40.547 47.1662 40.4405 47.4717 41.532 47.3787C42.1976 47.3123 42.8232 46.9537 43.3291 46.8873C44.8332 46.7146 42.9563 47.0599 43.9813 46.9537C45.0462 46.8341 46.3641 45.1872 46.3641 42.8894C44.6868 43.7129 44.0212 45.4395 40.5203 44.5762C37.086 43.7262 39.7483 42.9292 36.5136 44.2442L35.0227 44.8286Z" fill="#7E7D82"/>
<path fill-rule="evenodd" clip-rule="evenodd" d="M31.2952 25.5964C31.4948 26.566 33.0523 29.5677 35.0091 30.2052C36.0074 30.5373 37.5782 30.8561 38.6697 30.7764C39.8544 30.6967 40.9859 30.2849 41.6648 29.3685C38.2304 28.2661 35.0357 26.3137 31.2952 25.5964Z" fill="#05FCFC"/>
<path fill-rule="evenodd" clip-rule="evenodd" d="M63.842 20.9477C64.268 25.0252 69.6991 26.9245 69.4062 29.6872C69.2598 31.0552 67.729 33.2201 67.3163 34.5882C66.9702 35.7304 66.3845 39.7283 67.516 40.2064C67.4761 40.1267 67.4494 40.0338 67.4361 39.9806L67.2764 39.2501C66.9436 35.4648 70.764 32.1576 70.6043 27.4691C68.927 26.0479 65.4927 22.7806 64.6274 20.2969C63.9618 20.6024 64.3213 20.0047 63.842 20.9477Z" fill="#28EBF7"/>
<path fill-rule="evenodd" clip-rule="evenodd" d="M48.8669 44.5232L48.7737 48.0031C50.837 48.0961 51.5425 47.3921 52.847 46.489C54.471 45.3733 55.8154 45.7983 57.0268 44.8287C56.9602 44.7889 56.867 44.6959 56.8271 44.749L54.4177 43.9654C54.3512 43.9256 54.1515 43.7927 54.085 43.7529C53.5392 43.3943 54.2181 43.7795 53.5658 43.3943C51.8753 44.3107 51.4892 44.7756 48.8669 44.5232Z" fill="#7E7D82"/>
<path fill-rule="evenodd" clip-rule="evenodd" d="M7.60061 28.3857L7.84022 31.3741C8.59897 29.8998 8.42592 26.5528 8.01327 25.0652C7.40094 22.7674 5.77695 21.6385 5.56396 20.2173C8.22625 18.225 14.4826 16.0733 15.9203 13.8154C13.7904 15.9804 5.20455 17.8797 4.16626 20.4298C4.95164 21.7846 5.88344 21.9307 6.61557 23.7768C7.1214 25.0386 7.60061 26.8317 7.60061 28.3857Z" fill="#2FECED"/>
<path fill-rule="evenodd" clip-rule="evenodd" d="M36.8459 8.63543C38.044 8.72841 38.044 9.00733 38.9625 9.45891C43.6747 11.7832 40.8394 10.8801 46.3903 11.677C47.3221 11.8098 48.1074 12.1286 49.0126 12.0887C50.0775 12.0489 51.2756 11.252 53.5918 13.4966C54.4437 14.3201 54.0443 14.6388 55.2557 15.0771C52.9395 11.4645 52.3139 10.8269 46.9227 10.6144C44.8062 10.5347 43.1689 10.5613 41.3718 9.79096C40.5998 9.44563 37.2054 7.51976 36.8459 8.63543Z" fill="#2FECED"/>
<path fill-rule="evenodd" clip-rule="evenodd" d="M35.156 33.34L32.9995 32.6626L32.3606 32.729C34.4505 34.8807 33.7184 34.2166 34.2375 37.3644C35.1161 37.3511 35.329 37.0722 35.755 36.687C36.0212 37.3909 35.8615 37.2581 36.5537 37.4972C37.3391 36.7269 37.9381 35.8104 37.7917 34.3096C36.8732 33.8314 36.6336 34.0572 35.9014 33.7783C34.77 33.3533 35.6352 33.765 35.156 33.34Z" fill="#B2B0B0"/>
<path fill-rule="evenodd" clip-rule="evenodd" d="M60.4072 37.1784C60.2608 35.6377 60.0079 35.3853 59.5286 34.2563C58.9163 34.7212 58.304 35.2392 57.2923 35.5845C56.3339 35.9166 55.655 35.8236 54.843 36.3283C56.9063 37.1385 56.081 37.962 57.279 38.9183L58.3572 37.6565C58.8498 38.387 58.8631 38.6527 60.1277 38.4003C60.3673 37.9753 60.4205 37.869 60.4072 37.1784Z" fill="#B2B0B0"/>
<path fill-rule="evenodd" clip-rule="evenodd" d="M60.8466 38.3338C60.78 40.2597 59.5154 39.7682 58.344 38.8783C57.2125 40.4323 57.7849 40.3261 56.4405 40.2862C55.7216 37.7361 56.1875 37.6697 53.8447 36.5142C54.9895 38.0017 55.096 38.9182 54.3772 41.1097C57.8515 42.916 62.3907 39.5159 60.8466 38.3338Z" fill="#555A5B"/>
<path fill-rule="evenodd" clip-rule="evenodd" d="M36.2733 48.8798C33.4646 45.8515 35.022 45.8117 33.3049 44.3507C31.0153 42.3982 29.7108 44.1647 27.4212 43.846C26.9686 42.8631 27.7673 38.1215 27.714 36.2753L26.9154 36.0894C26.9287 38.0551 26.9819 38.5332 26.5959 40.4724C25.0251 48.3884 29.9371 42.0662 32.8523 44.5499C34.5162 45.9711 33.3847 48.043 36.2733 48.8798Z" fill="#2FCBD5"/>
<path fill-rule="evenodd" clip-rule="evenodd" d="M53.2587 38.2009C51.0356 40.9104 51.9275 39.2104 50.024 39.476C49.7178 39.5158 49.3052 39.7151 48.7727 39.7284C47.7344 38.7986 47.8143 37.8158 46.7893 36.8462C47.2419 39.0377 47.0156 38.9182 46.5364 40.937C47.974 41.1495 49.425 41.973 50.8094 41.2823C51.9142 40.7245 52.846 39.5557 53.2587 38.2009Z" fill="#555A5B"/>
<path fill-rule="evenodd" clip-rule="evenodd" d="M44.447 39.5292L42.9295 40.1534C42.3172 39.7815 42.1441 39.9409 42.2905 39.1573C41.3321 40.1401 42.2772 39.6753 40.986 39.9409C40.6266 38.108 40.0942 36.9923 38.8828 36.1157C39.2156 37.6431 39.6815 38.5463 38.9627 40.3128C41.1591 42.0262 43.4486 42.1191 44.447 39.5292Z" fill="#595A5C"/>
<path fill-rule="evenodd" clip-rule="evenodd" d="M52.3274 31.507C55.5355 34.1235 58.5705 31.0023 58.9432 29.7139C57.7318 29.1561 56.7468 29.9132 55.6153 30.4312C54.4705 30.9492 53.2459 31.1085 52.3274 31.507Z" fill="#17F6FA"/>
<path fill-rule="evenodd" clip-rule="evenodd" d="M61.5657 16.6843C63.6423 16.0733 64.401 14.8647 65 12.7396C65.5458 10.8403 66.1847 7.94482 65.5857 6.03223C65.1864 6.77601 65.1198 7.99794 64.8935 8.88783C64.188 11.5442 64.2013 13.1513 63.2163 14.6787C62.6306 15.5952 61.9251 15.8475 61.5657 16.6843Z" fill="#2FECED"/>
<path fill-rule="evenodd" clip-rule="evenodd" d="M31.6683 37.4838C32.1741 36.9127 31.9478 38.2807 32.0277 36.6338C32.1741 33.5391 25.9177 33.061 24.0275 32.3703L24.2671 28.5983L23.6149 28.3193L23.3752 32.543C26.2638 34.6415 31.6816 32.968 31.6683 37.4838Z" fill="#51CED6"/>
<path fill-rule="evenodd" clip-rule="evenodd" d="M25.9575 28.359C26.277 28.1067 26.277 28.7841 26.1838 27.841C20.8193 22.6345 27.1955 23.2986 26.9692 17.428L26.1173 16.9897C26.8228 20.1243 24.8261 21.1337 23.7745 23.0596C22.1638 25.9816 24.9725 26.659 25.9575 28.359Z" fill="#2FD8EE"/>
<path fill-rule="evenodd" clip-rule="evenodd" d="M61.8048 12.0356C62.2574 12.4075 61.0726 12.2614 62.8164 12.4739C62.3638 10.6543 62.7765 9.72453 63.6018 8.43619C64.4005 7.17441 64.8132 7.06815 65.2391 5.24854C63.695 6.59001 63.4953 7.53302 60.5002 8.47603C60.8064 8.83464 61.432 9.39248 61.7648 9.84407C61.8447 9.9636 62.1908 10.5746 62.2174 10.7605C62.6035 12.9786 62.3505 11.5973 61.8048 12.0356Z" fill="#7D8185"/>
<path fill-rule="evenodd" clip-rule="evenodd" d="M55.8015 14.8116C56.0545 13.5631 55.4022 9.61838 57.7849 11.9958L58.5437 10.9333H59.9015C58.2508 9.1668 56.3606 10.6012 54.6301 11.1724L55.5353 14.2803C55.7084 14.8382 55.5752 14.5061 55.8015 14.8116Z" fill="#7D8185"/>
<path fill-rule="evenodd" clip-rule="evenodd" d="M29.845 10.0965C30.3508 10.4418 30.5638 10.4949 31.4956 10.4285C33.865 10.2559 34.0647 9.85741 34.3842 12.2083C34.6637 14.2271 35.2228 13.9349 35.529 14.0678C35.0497 12.5802 35.2494 11.9294 35.1562 10.3754C32.8001 8.5425 32.667 9.60505 29.845 10.0965Z" fill="#2FECED"/>
<path fill-rule="evenodd" clip-rule="evenodd" d="M31.2017 19.2876H31.1218C30.7225 17.6141 29.4845 15.5554 27.8871 14.7319C25.5443 13.5365 24.3197 14.0678 23.7606 11.013L22.9885 10.4817C23.9203 14.6256 23.9869 13.417 27.1816 14.9178C29.6443 16.0866 29.8705 18.5969 31.2017 19.2876Z" fill="#51CED6"/>
<path fill-rule="evenodd" clip-rule="evenodd" d="M30.7233 7.83858L31.4022 7.37372C30.1509 6.45727 27.036 6.11194 25.2922 5.56738C25.8646 7.05495 29.2457 7.66592 30.7233 7.83858Z" fill="#2FECED"/>
<path fill-rule="evenodd" clip-rule="evenodd" d="M60.9934 20.0446L61.233 20.7486C61.4726 20.5228 61.4194 20.629 61.6723 20.297L62.258 19.2876C62.6707 18.5704 62.6973 18.5172 62.8969 17.6938L61.6457 17.6406C61.4194 19.3009 61.3129 18.929 60.9934 20.0446Z" fill="#2FECED"/>
</g>
<defs>
<clipPath id="clip0_1_440">
<rect width="73" height="70" fill="white"/>
</clipPath>
</defs>
</svg>
