<svg width="44" height="42" viewBox="0 0 44 42" fill="none" xmlns="http://www.w3.org/2000/svg">
<g clip-path="url(#clip0_1_1910)">
<path fill-rule="evenodd" clip-rule="evenodd" d="M11.9106 38.5807L12.6165 39.2723L25.2814 41.0956L31.8558 40.404L34.0842 39.2094L31.3244 39.4059L18.2947 38.7693L12.4737 38.3763L11.9106 38.5807Z" fill="#28EBF7"/>
<path fill-rule="evenodd" clip-rule="evenodd" d="M13.0529 2.10696C13.0133 1.54111 13.0133 2.02051 13.2116 1.82404C13.4891 2.42918 13.8936 2.69639 14.298 3.16793L15.21 3.74164C16.2489 4.06386 18.1047 4.26819 18.8501 4.81047L18.4457 5.08553C18.1126 5.3213 17.9698 5.45491 17.6764 5.6671L16.8596 6.25653L17.9223 6.42157C19.6035 6.13078 19.6828 5.50206 21.0865 6.58661C21.142 7.50611 21.0231 7.8912 21.3086 8.77141L21.5623 9.44729C22.1095 8.98361 22.0937 8.39418 22.2523 7.69473C22.5061 6.54731 22.5774 6.52373 22.0937 5.55707C22.3078 4.89692 24.3301 6.03647 24.79 6.24081C25.8607 6.69663 26.8361 6.68091 28.097 6.72807C31.3089 6.85381 31.6816 7.23105 33.0615 9.3687L33.2598 9.63591L33.3867 9.21152C33.2519 9.03076 33.3312 9.22724 33.2281 8.89716L32.6888 7.05815C33.7197 6.72021 34.8459 5.87143 35.8293 6.91668C36.432 7.04243 36.6699 7.06601 36.9633 7.56898C37.2885 7.30964 37.4391 8.12697 37.2092 6.81452C37.1933 6.70449 36.9871 6.34298 36.9395 6.27224C36.7413 6.00504 36.3685 5.67496 36.1861 5.46277C37.9705 4.90478 38.0894 4.34678 39.0094 3.55302C39.1759 3.38012 39.0411 3.14435 39.1997 3.62375C39.3266 4.00885 39.2473 3.78094 39.2156 4.01671C39.5724 5.1484 39.1918 6.86167 38.8666 7.98551C38.5098 9.24295 38.0577 9.95813 36.8206 10.3196L36.0751 10.4218C36.313 10.6654 36.083 10.4925 36.4161 10.6969C36.5113 10.7519 36.8206 10.8698 36.8681 10.8855L37.6136 10.9169C37.4947 11.4042 37.4788 11.4356 37.2329 11.86L36.884 12.4573C36.7333 12.6538 36.765 12.5909 36.6223 12.7245L36.4796 12.308C36.1306 12.0486 36.0513 11.9386 35.7262 11.7185C35.4565 11.5221 35.2583 11.302 34.9728 11.1448C35.1234 12.2687 35.7499 12.8267 35.8372 13.8012C36.1385 14.257 36.2972 15.2472 36.313 15.8917L36.0117 17.2356C34.4097 16.489 34.6318 16.4182 32.2843 17.3142C30.0162 18.1787 30.3652 17.0548 29.6038 16.5361C29.1439 16.2296 29.7069 16.2846 29.3263 16.4811C28.9853 17.7543 29.6435 18.1629 29.8814 18.6188C30.4048 19.6404 30.2938 19.8605 31.0789 20.5599C32.5143 21.841 34.6318 20.6071 35.3772 19.9234L35.5596 20.332L35.6072 20.7171C35.8927 21.3851 36.0434 21.5345 36.1306 22.4461C36.4954 22.8233 36.3685 22.6504 36.3923 23.1298C37.3123 23.8293 34.608 25.8412 32.5381 24.7724C32.9664 23.4756 32.9029 22.9334 32.2209 22.0532L32.0543 22.4461C32.0385 22.4854 32.0226 22.5326 32.0147 22.5719C31.9354 22.7998 32.0068 22.7998 31.872 23.0513C31.6261 23.8529 31.071 24.5445 30.4127 24.8745C29.588 25.2832 28.7236 24.796 27.8671 24.6702C28.1526 23.4756 28.2874 23.5464 28.0177 22.2496L27.8433 21.7781C27.3833 22.4933 27.2168 23.3656 26.622 23.8372C26.0272 25.3697 24.6632 25.3147 23.3546 24.3008C23.7829 23.2556 23.5053 22.7212 23.307 21.8174L22.8154 22.7133C21.8082 25.3382 18.5567 25.2046 19.0087 22.6269C19.0167 19.9548 15.789 20.945 14.068 19.7033L14.2108 17.2041L14.5994 17.3692C15.1545 17.3849 15.4083 17.5185 15.7414 17.6835L15.6066 17.2277C15.0197 16.2218 13.3464 15.821 14.306 14.092C14.9325 12.9524 16.122 12.3551 15.7017 10.5004L16.2093 10.7597C16.7723 11.0584 16.8199 11.2549 17.3275 11.6007C17.3988 11.64 17.8509 11.915 17.946 11.9543C18.8739 12.308 18.5567 12.0879 18.7312 11.86C17.9381 11.4513 17.8033 9.96598 16.3362 9.27439C14.4328 8.38632 14.3932 9.10149 13.8381 6.64948L14.298 6.96384C15.1149 7.12102 14.5359 7.05029 14.7025 6.88525C14.3139 6.50802 13.8698 5.46277 13.6081 4.87334C13.1878 3.89882 13.0767 3.25438 13.0529 2.10696Z" fill="#090C3F"/>
<path fill-rule="evenodd" clip-rule="evenodd" d="M31.3169 19.0901C31.8641 18.8543 32.5937 18.76 33.2757 18.4535C33.9498 18.147 34.5367 17.6991 35.2583 18.0291C35.0363 18.7915 33.2281 20.6383 31.3169 19.0901Z" fill="#090C3F"/>
<path fill-rule="evenodd" clip-rule="evenodd" d="M16.6526 21.9118C19.2062 22.1004 17.4377 24.0101 18.9049 25.409C20.142 26.5879 22.085 25.802 22.8701 24.9454C23.4728 25.4326 23.8535 26.2814 25.0827 26.3836C26.3278 26.4857 27.0891 25.7077 27.6205 25.0554L28.0011 25.4876C29.4762 27.1145 30.8323 26.3364 32.0536 25.3776C32.0774 25.4012 32.117 25.409 32.125 25.4641C32.2201 25.8649 32.1567 25.5034 32.2836 25.637C33.1559 26.5643 34.0124 26.5722 35.2258 26.36C35.0355 27.8061 33.8935 27.4367 32.0219 28.6705C31.0226 29.3228 29.5396 30.3995 27.8267 29.928C28.0566 29.4879 28.4214 29.2757 28.588 28.7177C28.7387 28.1911 28.6831 27.4603 28.6514 26.8865C27.9773 27.3502 27.6205 28.4426 26.7243 29.0792C25.8996 29.6608 24.4562 30.2266 23.227 29.9201L24.6465 29.2364L21.7519 29.37C20.031 28.8749 20.7051 27.6489 19.7138 26.808C17.977 25.3383 15.0507 29.0792 15.9865 24.3952C16.2165 23.2478 16.1847 22.9649 16.1768 21.8018L16.6526 21.9118Z" fill="#090C3F"/>
<path fill-rule="evenodd" clip-rule="evenodd" d="M39.8185 33.653C40.0167 33.3858 40.5322 32.9771 40.7781 32.6392C42.1262 30.7294 42.2135 28.6939 42.8003 27.2557L42.9114 25.0945C42.721 24.3243 42.5386 23.562 42.3562 22.7682L42.38 22.6896C42.2848 21.8802 41.9676 21.4008 42.4197 20.6149C42.7131 20.104 42.9986 19.5146 43.292 19.1059C43.9027 16.2688 43.752 16.4889 42.3483 15.0507C42.1183 14.8149 42.0707 14.7913 41.8725 14.5791C41.5077 14.2255 41.6663 14.4612 41.4125 13.9976C40.4926 13.526 39.8026 12.5515 38.8906 11.8992C39.0889 9.74583 39.1999 10.3667 39.8343 9.27429L40.0405 8.8499L40.0326 8.77131L40.1278 8.15831C40.1278 8.09544 40.1278 7.16807 40.215 6.82228C40.2626 6.64938 40.2943 6.39003 40.326 6.13854C40.3577 5.87919 40.3736 5.6277 40.3895 5.44695C40.4212 5.10901 40.2229 4.21308 40.215 4.16593L39.5885 2.00469L39.0334 2.22475L37.4948 3.63151L35.7501 4.59031L34.9571 5.054H34.9492C34.9492 5.054 33.7358 5.22689 33.4424 5.3212C33.1886 5.39193 32.6652 5.38407 32.3004 5.37622C32.229 5.37622 32.1656 5.37622 32.0942 5.37622C31.9514 5.37622 31.6659 5.39979 31.3487 5.42337C30.9205 5.45481 30.4288 5.4941 30.1036 5.4941C29.8181 5.4941 29.6357 5.48624 29.382 5.44695C29.1282 5.39979 28.8189 5.3212 28.2796 5.17188C27.6214 4.99112 27.3201 4.92825 27.0504 4.8811C26.8839 4.8418 26.7253 4.81822 26.5032 4.75535C26.2336 4.69248 25.726 4.61389 25.1947 4.5353C24.5285 4.43313 23.8306 4.33097 23.4976 4.2288C23.2597 4.15807 22.9583 4.11091 22.6649 4.07948C22.2366 4.04018 21.8401 4.04018 21.737 4.0559C21.6339 4.07162 21.1977 4.00875 20.7853 3.95373C20.484 3.91444 20.1985 3.87514 20.0716 3.87514C19.9447 3.86728 19.7227 3.89086 19.5006 3.90658C19.231 3.93016 18.9534 3.95373 18.8186 3.93801C18.6362 3.91444 18.2 3.7101 17.8828 3.55292C17.7797 3.50577 17.6845 3.45861 17.6132 3.43504C17.3515 3.31715 16.2967 3.11282 16.2888 3.11282H16.2808C15.6702 2.73558 15.0675 2.35835 14.4568 1.98112L13.2276 0.448608C13.0452 0.511481 12.1015 0.833701 11.9746 1.08519C11.8398 1.36026 11.7208 2.02827 11.7129 2.099C11.7208 2.17759 11.8001 2.9635 11.8636 3.29357C11.9191 3.63937 12.0539 4.68462 12.0698 4.76321L12.6487 6.22499V6.23285C12.6804 6.21713 12.7042 6.20927 12.728 6.20141C12.8945 9.14855 13.0769 9.38432 15.1071 10.3353C14.8851 12.7008 11.6098 12.5987 13.1087 16.4024C13.9889 18.658 10.563 20.4734 15.4085 21.6601C15.5116 23.3498 12.8232 27.8294 16.2491 28.1752C17.288 28.2853 18.0811 27.6958 18.8027 27.8452C20.1033 29.0633 19.2151 30.6273 22.3159 30.2343C23.5769 32.0812 25.9084 31.2167 27.4628 30.2107C27.4945 30.2264 27.55 30.2264 27.5659 30.2736L28.1924 30.6508C30.5715 31.6804 32.8238 29.3462 34.6716 29.0083C36.4956 27.9709 36.2022 27.9866 36.7573 25.8097C37.1856 24.1278 38.8113 24.3636 37.1221 22.1002C36.2498 20.9371 36.7256 19.0431 37.249 17.8328C38.2482 15.5222 37.5741 15.5144 37.1221 13.4789L38.1769 12.8423C38.4624 12.2843 38.2482 12.638 38.6448 12.4572C39.1602 13.9268 41.2063 15.8602 42.2055 16.7011C42.3007 19.4753 40.0247 21.4322 40.2229 23.672L40.3181 24.1043C40.326 24.1357 40.3419 24.1907 40.3657 24.2379C40.675 23.3419 40.9922 23.0276 41.3173 22.3831C41.6583 22.1317 41.5235 23.3262 41.6345 24.4972C41.8963 27.1929 40.9129 28.9376 40.0326 31.0123C39.7154 31.7668 39.4299 32.1205 38.851 32.6077C38.1927 33.1579 38.0262 33.1264 37.5028 33.9438C36.9714 34.7847 35.8057 36.6237 35.5836 37.3546C35.8294 37.5589 35.9167 37.7004 36.1149 37.8733L37.13 36.5687L38.9858 34.6196L39.8185 33.653Z" fill="#090C3F"/>
<path fill-rule="evenodd" clip-rule="evenodd" d="M6.16889 34.2739C6.72403 34.6904 7.1602 34.9026 7.525 35.547C8.27047 36.0421 8.5401 36.663 9.99931 37.6847C10.5227 38.054 10.9589 38.2112 11.4109 38.6435C12.1009 39.3036 12.8543 39.7673 13.6632 40.0974L13.9487 40.121C15.8441 40.789 18.0329 40.899 20.5944 41.2762C23.7983 41.7399 27.5336 42.2429 30.8168 41.4649H30.793C32.6011 41.0012 34.2507 40.121 35.5513 38.5885C35.4244 38.2191 35.3134 38.3763 35.0992 37.8811C34.8455 37.9755 35.0517 37.8969 34.7979 38.0226C33.4576 38.6985 32.9659 38.895 31.364 38.7063C31.6336 38.9736 31.824 39.0993 32.395 39.1857C32.8628 39.2565 33.3228 39.2329 33.7907 39.2565L33.2594 39.5237C29.2624 40.8283 27.2798 40.7418 22.7436 40.231C19.4762 39.8616 15.17 39.7123 12.2912 38.7928L14.7576 38.8478L16.3595 38.7063C15.5348 38.4863 16.3516 38.7535 15.971 38.3763C15.0907 38.4156 13.0287 37.834 12.2357 37.5118C11.0065 37.0167 8.1753 34.2267 7.09676 33.1815C6.4306 32.537 5.22517 31.7354 4.2973 31.0988C1.87851 29.4406 4.08318 26.8785 2.36227 23.9078C2.02126 23.3184 1.56129 23.1533 1.57715 22.2653C1.60887 20.7799 3.03636 19.7661 3.62321 17.1412L3.88492 18.045L4.42419 20.717C4.64624 20.1276 4.65417 18.1471 4.67003 17.2434C4.67003 16.3239 4.38454 15.2629 4.08318 14.5163C3.647 13.4239 3.09187 13.3374 2.62397 12.5358C3.24255 11.0269 8.3577 9.90303 9.62658 8.62201C9.89621 7.97757 9.4759 8.65345 9.84863 8.28407C10.0469 8.0876 9.95173 8.18191 10.1341 8.06402C10.3324 7.93828 10.6337 7.79681 10.8875 7.66321C11.0858 7.34099 11.6964 6.71227 12.3071 6.38219V6.3429L9.69002 7.05807C9.61865 7.16809 9.68209 7.12094 9.42039 7.37243L8.15944 8.15833C5.61376 9.44721 -1.45229 10.909 2.29089 14.0997C3.24255 14.9092 2.93326 15.8759 2.48123 17.2748C2.45743 17.3377 2.32262 17.6992 2.30676 17.7306C2.29089 17.7621 2.2671 17.8013 2.25124 17.8406L1.9023 18.2257C1.60887 19.4596 -0.468908 20.9607 0.316208 23.2791L1.08546 24.6701C1.39475 24.9452 1.16477 24.6466 1.46613 25.1102C1.93402 25.8176 2.45743 28.0888 2.41778 28.8511C2.39399 29.4641 2.36227 29.7628 2.32262 29.975C2.32262 29.975 2.97291 30.9573 3.12359 31.2796C3.26634 31.6096 4.24972 32.2541 4.24972 32.2541L5.08242 33.0164L6.16889 34.2739Z" fill="#090C3F"/>
<path fill-rule="evenodd" clip-rule="evenodd" d="M10.8873 7.66307C10.5463 8.37824 9.63433 10.398 9.2616 10.8145C7.82618 12.3942 7.84204 11.3725 8.01651 14.3197C8.53199 16.5831 9.30918 15.5457 9.03954 20.6933C8.9761 21.9115 8.99196 23.1453 9.23781 24.3085C9.56295 25.8331 9.97534 25.8567 10.4591 26.7369L9.42814 26.3204C7.69929 25.4323 6.85866 23.7976 6.48593 21.55C6.23216 21.8486 6.16078 21.8958 6.09734 22.7367C6.05769 23.2711 6.07355 23.7583 6.02597 24.2849L5.48669 22.328C5.00294 23.8291 5.62944 26.3754 6.24009 27.4364C7.12037 28.9532 7.91342 30.077 9.32504 30.8C9.30125 30.242 9.24574 29.2282 9.42021 28.686C9.51537 28.3559 9.51537 28.4345 9.56295 28.3402C10.5463 29.6212 11.2442 30.855 12.5607 32.1675C13.6471 33.252 14.9795 34.2187 16.9542 34.6902C20.848 35.6176 23.8616 34.5724 27.0258 36.6471L27.9934 37.5431C26.1535 37.4095 23.1954 37.4409 21.4983 37.9517C22.4817 38.6276 27.2717 39.2878 29.0957 38.9577C29.4684 38.887 29.857 38.7769 30.1346 38.5726C30.4359 38.3525 30.3725 38.3525 30.4994 38.1561L30.7849 37.6688C33.2195 37.9989 34.3219 38.1639 35.9873 35.1146C36.59 33.9986 36.82 33.5743 37.6051 32.7962C38.1523 32.2461 39.3657 31.3502 40.0318 31.0122C40.9121 28.9374 41.8955 27.1927 41.6338 24.4971C41.5227 23.3261 41.6576 22.1315 41.3166 22.383C41.4434 23.7662 41.269 24.9451 41.0311 26.2889C40.928 26.8705 40.7456 27.3656 40.579 27.9C40.3411 28.6938 40.3252 28.9925 39.8256 29.3854L39.8177 28.6467C38.5488 30.2106 39.5243 30.0613 35.8604 33.0949C35.0911 33.7236 34.2902 35.0596 33.0609 35.4211C34.4488 32.7176 33.6399 33.4642 36.1776 31.0594C37.2799 30.0063 38.7074 28.6624 39.4132 26.6426C38.5964 27.2713 38.2713 28.6152 35.4084 30.7607C32.3868 33.0163 31.1259 32.9141 30.1663 33.5585C30.8087 33.9201 31.8079 33.8179 32.6248 33.7629C31.681 35.2561 28.9529 34.9182 27.1845 34.7453C25.4556 34.5802 22.9575 34.423 21.3397 34.1087C22.1645 34.0144 23.1637 33.6686 23.6871 33.2363C20.7846 33.0398 19.3333 33.197 16.7955 32.0496C15.265 31.358 12.9968 29.5426 12.6479 28.0651C13.5123 28.4816 14.1706 29.3225 15.2174 29.7626L14.4085 28.1908C15.8915 28.6388 16.5576 28.4187 18.0486 28.6309C19.4205 30.0141 18.1041 30.8157 21.3635 31.2794C22.8386 31.4916 23.1003 33.0477 26.1852 31.8374C27.7396 31.2323 26.8197 31.303 28.3106 31.7588C30.4915 32.4347 33.8857 29.9827 34.6708 29.0082C32.823 29.3461 30.5708 31.6802 28.1916 30.6507L27.5651 30.2735C27.5493 30.2263 27.4937 30.2263 27.462 30.2106C25.9076 31.2166 23.5761 32.081 22.3151 30.2342C19.2143 30.6271 20.1025 29.0632 18.802 27.845C18.0803 27.6957 17.2872 28.2851 16.2483 28.1751C12.8224 27.8293 15.5108 23.3497 15.4077 21.66C10.5622 20.4733 13.9882 18.6578 13.1079 16.4023C11.609 12.5985 14.8843 12.7007 15.1064 10.3351C13.0762 9.3842 12.8938 9.14843 12.7272 6.20129C11.9976 6.41349 11.1332 7.26226 10.8873 7.66307Z" fill="#807E84"/>
<path fill-rule="evenodd" clip-rule="evenodd" d="M9.87273 30.4231C10.2693 30.8082 10.7451 31.4604 11.1971 31.9477C12.1408 32.9694 14.8848 34.9577 16.3757 35.2957C19.3814 35.9715 23.5131 35.5078 26.0033 36.9539C22.6804 36.9932 18.287 37.339 15.2417 36.4274C13.7031 35.9715 9.95204 32.9144 9.87273 30.4231ZM9.62689 8.62213C8.7704 9.95816 5.04308 11.2313 3.45698 12.4102C3.58387 13.2511 4.55139 13.9191 4.91619 15.2787C5.16203 16.1589 5.26513 18.1394 4.81309 19.0118L4.67035 17.2435C4.65448 18.1473 4.64655 20.1277 4.4245 20.7172L3.88523 18.0451C3.84558 18.9489 2.9415 20.4342 2.59256 21.3066C1.76779 23.3421 2.42602 22.6976 3.18735 24.3638C4.79723 27.916 2.04536 28.7255 5.26513 31.0754C7.27947 32.545 8.61179 33.5824 10.2137 35.2721C12.0615 37.2211 12.8705 37.4883 15.3844 38.2113C15.6382 38.2821 16.455 38.3528 15.9713 38.3764C16.3519 38.7536 15.5351 38.4864 16.3599 38.7065L14.7579 38.8479C16.0982 38.8558 18.0649 39.1466 19.4448 39.3116C21.0388 39.4924 22.5298 39.6417 24.0841 39.8617C29.2151 40.5926 33.1011 39.4924 33.2597 39.5238L33.791 39.2566C33.3231 39.233 32.8632 39.2566 32.3953 39.1859C31.8243 39.0994 31.6339 38.9737 31.3643 38.7065C32.9663 38.8951 33.4579 38.6986 34.7982 38.0227C35.052 37.897 34.8458 37.9756 35.0996 37.8813L35.5833 37.3547C35.8054 36.6238 36.9711 34.7848 37.5025 33.9439C38.0259 33.1266 38.1924 33.158 38.8507 32.6079C39.4296 32.1206 39.7151 31.767 40.0323 31.0125C39.3661 31.3504 38.1528 32.2464 37.6056 32.7965C36.8205 33.5745 36.5905 33.9989 35.9878 35.1149C34.3224 38.1642 33.22 37.9992 30.7854 37.6691L30.4999 38.1563C30.373 38.3528 30.4364 38.3528 30.1351 38.5729C29.8575 38.7772 29.4689 38.8872 29.0962 38.958C27.2722 39.288 22.4822 38.6279 21.4988 37.952C23.1959 37.4412 26.154 37.4097 27.9939 37.5433L27.0263 36.6474C23.8621 34.5726 20.8485 35.6179 16.9546 34.6905C14.98 34.219 13.6476 33.2523 12.5612 32.1678C11.2447 30.8553 10.5468 29.6214 9.56344 28.3404C9.51586 28.4347 9.51586 28.3561 9.4207 28.6862C9.24623 29.2285 9.30174 30.2423 9.32553 30.8003C7.91391 30.0773 7.12086 28.9534 6.24058 27.4366C5.62993 26.3757 5.00343 23.8293 5.48718 22.3283L6.02646 24.2852C6.07404 23.7586 6.05818 23.2713 6.09783 22.7369C6.16127 21.896 6.23265 21.8489 6.48642 21.5502C6.85916 23.7979 7.69978 25.4326 9.42863 26.3207C9.17485 25.8648 9.1352 25.912 8.89729 25.5819C6.38333 22.0689 8.54041 19.3261 7.19223 15.5145C6.88295 14.65 6.1692 13.0546 6.5578 12.253C7.04949 12.9367 7.43015 13.8248 8.017 14.3199C7.84253 11.3728 7.82667 12.3945 9.26209 10.8148C9.63482 10.3983 10.5468 8.3785 10.8878 7.66333C10.6341 7.79693 10.3327 7.9384 10.1344 8.06414C9.95204 8.18203 10.0472 8.08772 9.84894 8.28419C9.47621 8.65357 9.89652 7.97769 9.62689 8.62213Z" fill="#555A5B"/>
<path fill-rule="evenodd" clip-rule="evenodd" d="M35.8375 13.8012C35.7503 12.8267 35.1237 12.2687 34.9731 11.1449C35.2586 11.3021 35.4568 11.5221 35.7265 11.7186C36.0516 11.9386 36.1309 12.0487 36.4799 12.308C36.6702 11.6479 36.7336 11.8679 36.8684 10.8855C36.8209 10.8698 36.5116 10.7519 36.4164 10.6969C36.0833 10.4926 36.3133 10.6655 36.0754 10.4218L36.8209 10.3197C37.035 9.82456 37.4553 9.67524 37.8042 9.13297C38.3911 8.22918 38.3832 7.27824 38.8035 5.70643C38.9383 5.17988 38.978 4.45685 39.2159 4.01674C39.2476 3.78097 39.3269 4.00888 39.2 3.62379C39.0414 3.14439 39.1762 3.38016 39.0097 3.55306C38.7559 4.62975 38.5101 4.69262 38.0342 5.43923C37.5425 6.20155 37.2967 6.75168 37.5663 7.82837C36.5274 7.70263 37.2332 7.78907 36.9636 7.56902C36.6702 7.06604 36.4323 7.04247 35.8296 6.91672H35.0206L34.5686 7.54544C33.1491 6.13868 33.5377 8.47281 33.387 9.21156L33.2601 9.63594L33.0618 9.36874C32.3402 9.10939 32.5781 8.92077 32.0705 8.43351C30.6906 7.10534 29.9769 7.57688 29.3424 7.60046C28.8032 7.62403 28.3353 7.43542 27.7801 7.35683C24.4731 6.88529 26.1623 7.4197 23.3549 6.04437C22.8077 5.77716 22.8077 5.61212 22.094 5.55711C22.5777 6.52377 22.5064 6.54735 22.2526 7.69477C22.094 8.39422 22.1098 8.98365 21.5626 9.44733L21.3089 8.77145C21.1265 8.69286 20.7934 8.86576 20.6269 7.67119C20.4365 6.28014 20.3176 6.51591 18.9059 6.61808C18.3508 6.65738 18.2239 6.62594 17.9226 6.4216L16.8599 6.25656L17.6767 5.66714C17.9701 5.45494 18.1129 5.32134 18.446 5.08557C17.5657 4.9834 15.5514 4.62189 15.2103 3.74168L14.2983 3.16797C14.3697 3.93815 14.7266 3.69452 15.7655 5.14058C16.3761 5.99722 16.2968 6.62594 17.4626 7.05819C19.6593 7.88338 18.327 7.27038 19.009 9.14083C19.4135 10.2647 20.1748 10.2489 20.9361 10.8384C21.293 11.4357 21.2613 12.0172 21.9433 12.5202C22.7839 13.1332 23.0694 12.7953 23.9656 12.8896C25.742 13.0703 25.0203 14.4771 28.0974 13.1489C28.2084 13.3375 28.3591 13.6283 28.5177 13.8012C29.4535 13.7934 28.9856 13.3847 30.08 14.1706C31.9357 15.4988 32.9587 14.202 33.7201 14.3199C34.6083 14.4457 34.7431 14.8858 35.774 14.4614L35.8375 13.8012Z" fill="#B2B2B2"/>
<path fill-rule="evenodd" clip-rule="evenodd" d="M34.6709 29.0083C33.8857 29.9828 30.4915 32.4348 28.3106 31.7589C26.8197 31.3031 27.7396 31.2324 26.1853 31.8375C23.1003 33.0478 22.8386 31.4917 21.3635 31.2795C18.1041 30.8159 19.4206 30.0142 18.0486 28.6311C16.5577 28.4189 15.8915 28.6389 14.4085 28.191L15.2174 29.7628C14.1706 29.3227 13.5124 28.4817 12.6479 28.0652C12.9969 29.5427 15.265 31.3581 16.7956 32.0497C19.3333 33.1972 20.7846 33.04 23.6872 33.2364C23.1637 33.6687 22.1645 34.0145 21.3397 34.1088C22.9576 34.4232 25.4557 34.5803 27.1845 34.7454C28.953 34.9183 31.6811 35.2562 32.6248 33.763C31.808 33.818 30.8087 33.9202 30.1664 33.5587C31.1259 32.9142 32.3869 33.0164 35.4084 30.7609C38.2713 28.6153 38.5964 27.2714 39.4133 26.6427C39.4609 26.4463 39.445 26.4227 39.5481 26.2419C39.7701 25.8332 39.6591 26.0219 39.8653 25.8018C40.0794 27.1929 39.9367 27.3815 39.8177 28.6468L39.8257 29.3855C40.3253 28.9926 40.3411 28.6939 40.5791 27.9002C40.7456 27.3658 40.928 26.8706 41.0311 26.2891C41.269 24.9452 41.4435 23.7663 41.3166 22.3831C40.9914 23.0276 40.6742 23.3419 40.3649 24.2379C39.6908 23.9549 40.0398 21.5894 40.246 20.9135C40.4918 20.104 41.4038 18.823 41.4911 18.0135C41.6655 16.3788 38.4299 15.255 38.1761 12.8423L37.1214 13.4789C37.5734 15.5144 38.2475 15.5222 37.2483 17.8328C36.7248 19.0431 36.249 20.9371 37.1214 22.1002C38.8106 24.3636 37.1848 24.1278 36.7566 25.8097C36.2014 27.9866 36.4949 27.9709 34.6709 29.0083Z" fill="#B2B2B2"/>
<path fill-rule="evenodd" clip-rule="evenodd" d="M17.2316 15.6323C18.0088 12.7795 24.6545 16.3868 25.3921 16.6225C26.5737 16.9998 27.0971 15.931 27.6364 15.5144C27.1685 18.1315 26.4627 17.0941 25.7172 18.3358C23.8535 21.4165 17.874 20.4027 18.2784 15.4751L17.2316 15.6323ZM14.2973 6.96381C14.6304 8.77138 15.36 8.45702 16.7558 9.16433C17.7074 9.65159 18.445 10.8697 18.6829 11.86H18.7305C18.556 12.0879 18.8732 12.3079 17.9453 11.9543C17.8502 11.915 17.3981 11.6399 17.3268 11.6006C16.8192 11.2548 16.7716 11.0584 16.2086 10.7597C16.3434 14.2334 12.5447 13.8405 15.7407 16.9212C15.7962 17.4792 15.7962 17.0784 15.6059 17.2277L15.7407 17.6835C15.4076 17.5185 15.1538 17.3849 14.5987 17.3692L14.4559 19.6011C15.5821 20.0098 19.3094 20.2927 19.2221 22.1239C19.1746 23.0984 19.3094 22.2889 19.008 22.6268C18.556 25.2046 21.8075 25.3382 22.8147 22.7133L23.3063 21.8174C23.0288 21.5973 23.806 21.6366 22.8305 21.6366C22.7512 22.7919 21.7282 23.7821 20.8003 23.2084C20.61 23.6721 20.6496 23.7507 20.1183 23.7507C19.5632 22.8626 20.2135 21.2279 19.2142 20.5442C18.2229 19.8683 16.9778 20.4735 16.4941 19.1217L17.0254 18.713C17.0492 18.6973 17.0968 18.6816 17.1206 18.658C16.8747 18.2101 16.843 17.5499 17.0175 17.0862C18.4608 16.874 17.8819 18.1708 19.2856 19.3575C19.3252 19.3889 19.4442 19.4832 19.4759 19.5147C19.5156 19.5382 19.5552 19.5697 19.587 19.5933L19.8011 19.774L21.0858 20.1748C22.2754 20.222 25.0273 20.6071 25.9948 18.8624C25.9789 19.4518 25.622 19.8683 25.4793 20.3163C26.5261 19.7269 27.0416 17.6128 28.3898 18.1551C29.2383 18.5244 28.8735 19.554 30.079 20.6306C29.849 20.0962 29.8569 20.0176 30.0393 19.6876C31.4668 23.0827 35.091 20.4263 35.5589 20.332L35.3765 19.9233C34.631 20.6071 32.5136 21.8409 31.0782 20.5599C30.2931 19.8605 30.4041 19.6404 29.8807 18.6187C29.6428 18.1629 28.9846 17.7542 29.3256 16.4811C29.7062 16.2846 29.1432 16.2296 29.6031 16.5361C30.3645 17.0548 30.0155 18.1786 32.2836 17.3141C34.631 16.4182 34.409 16.4889 36.011 17.2355L36.3123 15.8917C35.1862 16.3318 35.0989 15.8838 34.2187 15.6952C32.7357 15.3808 31.2923 17.8643 29.1987 15.1136C28.1281 15.9781 28.0567 15.1293 27.6205 14.3591C26.3516 15.3179 24.1073 15.035 22.5688 14.257C21.3713 13.644 21.181 14.0291 19.8804 13.7933C18.1277 13.4789 18.4608 13.864 17.184 13.9269C17.1285 13.2432 17.2792 12.9602 17.644 12.4887C18.6591 12.5123 19.5711 12.6302 20.2214 11.9779C18.2626 10.8147 18.2784 8.347 17.8819 8.07193C16.9699 7.85188 16.5099 8.11123 15.6376 7.67112C16.0738 7.47465 16.0817 7.66326 16.5258 7.35676C15.5107 6.35081 15.5821 5.58848 14.8287 4.6454C13.0126 2.36628 14.1387 3.73375 13.0522 2.10693C13.076 3.25435 13.1871 3.89879 13.6074 4.87331C13.8691 5.46274 14.3132 6.50799 14.7018 6.88522C14.5352 7.05026 15.1142 7.12099 14.2973 6.96381Z" fill="#555A5B"/>
<path fill-rule="evenodd" clip-rule="evenodd" d="M13.0529 2.10696C14.1394 3.73378 13.0133 2.36631 14.8294 4.64543C15.5828 5.58851 15.5114 6.35083 16.5265 7.35679C16.0824 7.66329 16.0745 7.47467 15.6383 7.67115C16.5106 8.11126 16.9706 7.85191 17.8826 8.07196C18.2791 8.34703 18.2633 10.8148 20.2221 11.9779C19.5718 12.6302 18.6598 12.5123 17.6447 12.4887C17.2799 12.9603 17.1292 13.2432 17.1847 13.9269C18.4615 13.8641 18.1284 13.479 19.8811 13.7933C21.1817 14.0291 21.372 13.644 22.5695 14.257C24.108 15.0351 26.3523 15.318 27.6212 14.3592C28.0574 15.1294 28.1288 15.9781 29.1994 15.1136C31.293 17.8643 32.7364 15.3809 34.2194 15.6952C35.0996 15.8838 35.1869 16.3318 36.313 15.8917C36.2971 15.2472 36.1385 14.257 35.8372 13.8012L35.7737 14.4613C34.7428 14.8857 34.608 14.4456 33.7197 14.3199C32.9584 14.202 31.9354 15.4987 30.0797 14.1706C28.9853 13.3847 29.4532 13.7933 28.5174 13.8012C28.3587 13.6283 28.2081 13.3375 28.097 13.1489C25.02 14.4771 25.7417 13.0703 23.9653 12.8895C23.0691 12.7952 22.7836 13.1332 21.943 12.5202C21.261 12.0172 21.2927 11.4356 20.9358 10.8383C20.1745 10.2489 19.4132 10.2646 19.0087 9.14079C18.3267 7.27034 19.659 7.88334 17.4623 7.05815C16.2965 6.6259 16.3758 5.99718 15.7652 5.14055C14.7263 3.69449 14.3694 3.93812 14.298 3.16793C13.8936 2.69639 13.4891 2.42918 13.2116 1.82404C13.0133 2.02051 13.0133 1.54111 13.0529 2.10696Z" fill="#7E7D82"/>
<path fill-rule="evenodd" clip-rule="evenodd" d="M29.2541 26.7921C30.8164 26.9414 31.0464 26.6663 32.0535 26.1241C32.4421 26.352 32.0377 26.1241 32.3628 26.3363C32.4025 26.3598 32.5214 26.4384 32.5611 26.462L33.9965 26.9257C34.0203 26.8942 34.0758 26.9493 34.1154 26.9728C33.3938 27.5465 32.5928 27.2951 31.6253 27.9552C30.8481 28.4896 30.4278 28.9062 29.1986 28.8511L29.2541 26.7921ZM21.8946 26.627C23.8217 25.849 22.2356 26.3205 24.2817 26.8235C26.3674 27.3343 26.7639 26.3127 27.7631 25.8254C27.7631 27.185 26.978 28.1595 26.3436 28.2303C25.7329 28.2931 26.8511 28.0888 25.955 28.191C25.6536 28.2303 25.2809 28.4425 24.8844 28.4818C24.2341 28.5368 24.2975 28.356 24.012 28.246L23.8376 28.1831C22.6401 28.0259 22.7194 29.307 21.0064 26.9728L21.8946 26.627ZM21.7518 29.3698L24.6465 29.2362L23.2269 29.92C24.4561 30.2265 25.8995 29.6606 26.7243 29.079C27.6204 28.4425 27.9773 27.3501 28.6514 26.8864C28.6831 27.4601 28.7386 28.191 28.5879 28.7175C28.4214 29.2755 28.0566 29.4877 27.8266 29.9278C29.5396 30.3994 31.0226 29.3227 32.0218 28.6704C33.8934 27.4365 35.0354 27.8059 35.2257 26.3598C34.0124 26.572 33.1559 26.5642 32.2835 25.6368C32.1566 25.5032 32.2201 25.8647 32.1249 25.4639C32.117 25.4089 32.0773 25.401 32.0535 25.3774C30.8322 26.3363 29.4761 27.1143 28.0011 25.4875L27.6204 25.0552C27.0891 25.7075 26.3277 26.4856 25.0826 26.3834C23.8534 26.2812 23.4728 25.4325 22.87 24.9452C22.0849 25.8018 20.142 26.5877 18.9048 25.4089C17.4377 24.01 19.2062 22.1002 16.6526 21.9116C16.6843 23.004 16.2085 25.8097 16.4781 26.3913C17.8421 26.5799 18.6193 25.5346 19.9834 26.6899C21.0064 27.5544 20.0785 27.578 21.7518 29.3698Z" fill="#555A5B"/>
<path fill-rule="evenodd" clip-rule="evenodd" d="M23.6479 21.0079C24.9326 19.9233 24.4647 21.6209 26.1698 20.3556C26.8756 19.8369 27.3356 18.8545 28.0969 18.5951C29.1754 19.1689 28.8582 20.1984 30.1826 21.1493C31.3087 21.9509 30.5316 20.552 31.2532 21.6287C31.7846 22.4225 31.3563 22.7919 30.9439 23.2162C30.254 23.2162 30.4602 22.7919 29.7227 23.0355C29.0961 23.2477 29.2706 22.9333 28.6679 22.006C28.3665 21.5423 28.1683 21.503 27.8273 21.0314C27.2959 21.5187 27.4387 22.1396 26.3601 23.1691L25.345 22.9255C24.6551 22.7211 24.9009 22.8547 24.5678 22.4618C24.1872 22.0217 23.7351 21.4715 23.6479 21.0079ZM23.3069 21.8173C24.0286 22.336 24.3458 22.9962 24.5599 24.0807C25.3292 23.9236 24.7661 24.1986 25.3371 23.6171C25.2499 24.0807 25.353 23.9864 25.7178 24.2065L26.6218 23.8371C27.2166 23.3656 27.3832 22.4932 27.8431 21.778L28.0176 22.2496C28.6282 22.8233 28.5807 23.4049 29.1992 23.955C29.5165 23.9471 29.7623 23.8292 29.9447 23.8057C31.0788 23.6485 30.5474 24.6544 31.8718 23.0512C32.0066 22.7997 31.9353 22.7997 32.0146 22.5718C32.0225 22.5325 32.0383 22.4854 32.0542 22.4461L32.2207 22.0531C33.6165 22.7368 33.3389 22.7761 33.7672 24.2851C34.5682 24.3087 34.2272 24.3715 34.9012 23.452C35.5991 23.9786 36.3525 24.2694 36.3922 23.1298C36.3684 22.6504 36.4953 22.8233 36.1305 22.4461C36.1384 22.8547 36.1067 22.9176 35.9639 23.1691C35.2105 23.3184 35.2026 23.1612 34.9092 22.729L34.2668 23.4756C33.5531 22.9097 34.0448 22.4225 32.8155 21.9431C33.2993 21.6444 33.7037 21.6995 34.2747 21.503C34.8775 21.2986 35.2423 20.9921 35.6071 20.7171L35.5595 20.332C35.0916 20.4263 31.4674 23.0826 30.0399 19.6875C29.8575 20.0176 29.8495 20.0962 30.0795 20.6306C28.8741 19.5539 29.2389 18.5244 28.3903 18.155C27.0422 17.6128 26.5267 19.7268 25.4798 20.3163C25.6226 19.8683 25.9795 19.4518 25.9953 18.8623C25.0278 20.6071 22.2759 20.222 21.0864 20.1748C21.3719 20.4263 20.8564 20.1827 21.5305 20.4342C21.9667 20.5992 22.1094 20.4656 22.6566 20.7485C22.7438 21.6366 22.387 22.1789 21.9191 22.6347C21.5067 22.4932 21.6019 22.5718 21.4432 22.1553C21.1895 22.3832 21.0626 22.5482 20.5392 22.5561C20.2299 20.6935 20.6661 21.0865 19.421 19.8133L19.8016 19.774L19.5875 19.5932C19.5558 19.5697 19.5161 19.5382 19.4765 19.5146C19.4448 19.4832 19.3258 19.3889 19.2862 19.3575C17.8825 18.1708 18.4614 16.874 17.018 17.0862C16.8436 17.5499 16.8753 18.21 17.1211 18.658C17.0973 18.6816 17.0498 18.6973 17.026 18.713L16.4946 19.1217C16.9784 20.4734 18.2235 19.8683 19.2148 20.5442C20.214 21.2279 19.5637 22.8626 20.1189 23.7507C20.6502 23.7507 20.6105 23.6721 20.8009 23.2084C21.7287 23.7821 22.7518 22.7919 22.8311 21.6366C23.8065 21.6366 23.0293 21.5973 23.3069 21.8173Z" fill="#7E7D82"/>
<path fill-rule="evenodd" clip-rule="evenodd" d="M18.7863 15.5932C21.0148 16.0176 22.9181 17.1728 24.9641 17.8251C24.5597 18.3674 23.8856 18.611 23.1798 18.6582C22.5295 18.7053 21.5937 18.5167 20.9989 18.3202C19.8331 17.943 18.9053 16.1669 18.7863 15.5932ZM17.2319 15.6325L18.2788 15.4753C17.8743 20.4029 23.8539 21.4167 25.7175 18.336C26.463 17.0942 27.1688 18.1316 27.6367 15.5146C27.0974 15.9311 26.574 16.9999 25.3924 16.6227C24.6549 16.3869 18.0091 12.7796 17.2319 15.6325Z" fill="#090C3F"/>
<path fill-rule="evenodd" clip-rule="evenodd" d="M11.1965 31.9476C10.7444 31.4604 10.2686 30.8081 9.87207 30.423C9.95137 32.9143 13.7025 35.9714 15.241 36.4273C18.2863 37.3389 22.6798 36.9931 26.0026 36.9538C23.5125 35.5078 19.3807 35.9714 16.3751 35.2956C14.8841 34.9576 12.1402 32.9693 11.1965 31.9476Z" fill="#0C0B3C"/>
<path fill-rule="evenodd" clip-rule="evenodd" d="M23.6479 21.0079C23.7352 21.4716 24.1872 22.0217 24.5679 22.4619C24.901 22.8548 24.6551 22.7212 25.3451 22.9255L26.3602 23.1692C27.4387 22.1396 27.296 21.5188 27.8273 21.0315C28.1683 21.5031 28.3666 21.5423 28.6679 22.006C29.2707 22.9334 29.0962 23.2478 29.7227 23.0356C30.4602 22.7919 30.254 23.2163 30.944 23.2163C31.3564 22.7919 31.7846 22.4226 31.2533 21.6288C30.5316 20.5521 31.3088 21.951 30.1827 21.1494C28.8583 20.1985 29.1755 19.1689 28.0969 18.5952C27.3356 18.8546 26.8756 19.8369 26.1698 20.3556C24.4648 21.6209 24.9327 19.9234 23.6479 21.0079Z" fill="#B2B0B0"/>
<path fill-rule="evenodd" clip-rule="evenodd" d="M9.42767 26.3205L10.4586 26.737C9.97487 25.8568 9.56248 25.8332 9.23733 24.3085C8.99149 23.1454 8.97563 21.9115 9.03907 20.6934C9.30871 15.5457 8.53152 16.5831 8.01604 14.3197C7.42919 13.8246 7.04853 12.9365 6.55684 12.2528C6.16824 13.0544 6.88199 14.6498 7.19127 15.5143C8.53945 19.3259 6.38237 22.0687 8.89632 25.5817C9.13424 25.9118 9.17389 25.8646 9.42767 26.3205Z" fill="#0C0B3C"/>
<path fill-rule="evenodd" clip-rule="evenodd" d="M15.9709 38.3762C16.4546 38.3526 15.6378 38.2819 15.384 38.2111C12.87 37.4881 12.0611 37.2209 10.2133 35.2719C8.61138 33.5822 7.27907 32.5448 5.26473 31.0752C2.04496 28.7253 4.79683 27.9158 3.18694 24.3636C2.42562 22.6974 1.76739 23.3419 2.59216 21.3064C2.9411 20.434 3.84517 18.9487 3.88483 18.0449L3.62312 17.1411C3.03627 19.766 1.60878 20.7798 1.57706 22.2652C1.5612 23.1533 2.02117 23.3183 2.36218 23.9077C4.08309 26.8784 1.87842 29.4405 4.29721 31.0987C5.22508 31.7353 6.43051 32.5369 7.09667 33.1814C8.17521 34.2266 11.0064 37.0166 12.2356 37.5117C13.0287 37.8339 15.0906 38.4155 15.9709 38.3762Z" fill="#28EBF7"/>
<path fill-rule="evenodd" clip-rule="evenodd" d="M39.4138 26.6426C38.708 28.6623 37.2805 30.0062 36.1782 31.0593C33.6404 33.4642 34.4494 32.7176 33.0615 35.4211C34.2907 35.0596 35.0917 33.7235 35.861 33.0948C39.5249 30.0612 38.5494 30.2105 39.8183 28.6466C39.9372 27.3813 40.08 27.1927 39.8659 25.8016C39.6597 26.0217 39.7707 25.8331 39.5486 26.2417C39.4455 26.4225 39.4614 26.4461 39.4138 26.6426Z" fill="#090B3E"/>
<path fill-rule="evenodd" clip-rule="evenodd" d="M21.0068 26.9729C22.7198 29.307 22.6405 28.026 23.838 28.1831L24.0125 28.246C24.298 28.356 24.2345 28.5368 24.8848 28.4818C25.2814 28.4425 25.6541 28.2303 25.9554 28.191C26.8516 28.0888 25.7334 28.2932 26.344 28.2303C26.9785 28.1596 27.7636 27.1851 27.7636 25.8254C26.7644 26.3127 26.3678 27.3344 24.2821 26.8235C22.2361 26.3206 23.8222 25.849 21.895 26.6271L21.0068 26.9729Z" fill="#7E7D82"/>
<path fill-rule="evenodd" clip-rule="evenodd" d="M18.7861 15.5929C18.9051 16.1666 19.833 17.9427 20.9987 18.32C21.5935 18.5165 22.5293 18.7051 23.1796 18.6579C23.8854 18.6108 24.5595 18.3671 24.964 17.8249C22.9179 17.1726 21.0146 16.0173 18.7861 15.5929Z" fill="#05FCFC"/>
<path fill-rule="evenodd" clip-rule="evenodd" d="M38.1763 12.8422C38.43 15.255 41.6657 16.3788 41.4912 18.0135C41.404 18.823 40.492 20.104 40.2461 20.9135C40.0399 21.5893 39.691 23.9549 40.3651 24.2378C40.3413 24.1907 40.3254 24.1357 40.3175 24.1042L40.2223 23.672C40.0241 21.4322 42.3001 19.4753 42.2049 16.701C41.2057 15.8601 39.1596 13.9268 38.6442 12.4572C38.2476 12.6379 38.4618 12.2843 38.1763 12.8422Z" fill="#28EBF7"/>
<path fill-rule="evenodd" clip-rule="evenodd" d="M29.2552 26.7922L29.1997 28.8512C30.4289 28.9062 30.8492 28.4897 31.6264 27.9553C32.5939 27.2951 33.3949 27.5466 34.1166 26.9729C34.0769 26.9493 34.0214 26.8943 33.9976 26.9258L32.5622 26.4621C32.5226 26.4385 32.4036 26.3599 32.364 26.3363C32.0388 26.1241 32.4433 26.3521 32.0547 26.1241C31.0475 26.6664 30.8175 26.9415 29.2552 26.7922Z" fill="#7E7D82"/>
<path fill-rule="evenodd" clip-rule="evenodd" d="M4.67008 17.2433L4.81283 19.0116C5.26487 18.1392 5.16177 16.1587 4.91593 15.2785C4.55113 13.9189 3.58361 13.2509 3.45672 12.41C5.04282 11.2311 8.77014 9.95798 9.62663 8.62195C8.35775 9.90297 3.2426 11.0268 2.62402 12.5357C3.09192 13.3374 3.64705 13.4238 4.08323 14.5162C4.38459 15.2628 4.67008 16.3238 4.67008 17.2433Z" fill="#2FECED"/>
<path fill-rule="evenodd" clip-rule="evenodd" d="M22.0928 5.55702C22.8065 5.61204 22.8065 5.77708 23.3537 6.04428C26.1611 7.41961 24.4719 6.8852 27.7789 7.35674C28.3341 7.43533 28.8019 7.62395 29.3412 7.60037C29.9757 7.57679 30.6894 7.10525 32.0693 8.43342C32.5769 8.92068 32.3389 9.1093 33.0606 9.36865C31.6807 7.23099 31.308 6.85376 28.0961 6.72802C26.8352 6.68086 25.8597 6.69658 24.7891 6.24076C24.3292 6.03642 22.3069 4.89687 22.0928 5.55702Z" fill="#2FECED"/>
<path fill-rule="evenodd" clip-rule="evenodd" d="M21.0863 20.1751L19.8016 19.7743L19.4209 19.8136C20.666 21.0867 20.2298 20.6938 20.5391 22.5564C21.0625 22.5485 21.1894 22.3835 21.4432 22.1556C21.6018 22.5721 21.5066 22.4935 21.919 22.635C22.3869 22.1792 22.7438 21.6369 22.6565 20.7488C22.1093 20.4659 21.9666 20.5995 21.5304 20.4344C20.8563 20.183 21.3718 20.4266 21.0863 20.1751Z" fill="#B2B0B0"/>
<path fill-rule="evenodd" clip-rule="evenodd" d="M36.1299 22.4463C36.0426 21.5346 35.892 21.3853 35.6065 20.7173C35.2417 20.9924 34.8769 21.2989 34.2741 21.5032C33.7032 21.6997 33.2987 21.6446 32.8149 21.9433C34.0442 22.4227 33.5525 22.91 34.2662 23.4758L34.9086 22.7292C35.202 23.1614 35.2099 23.3186 35.9633 23.1693C36.1061 22.9178 36.1378 22.8549 36.1299 22.4463Z" fill="#B2B0B0"/>
<path fill-rule="evenodd" clip-rule="evenodd" d="M36.3926 23.1298C36.353 24.2693 35.5996 23.9786 34.9017 23.452C34.2276 24.3715 34.5686 24.3086 33.7676 24.2851C33.3394 22.7761 33.617 22.7368 32.2212 22.0531C32.9032 22.9333 32.9667 23.4756 32.5384 24.7723C34.6083 25.8411 37.3126 23.8292 36.3926 23.1298Z" fill="#555A5B"/>
<path fill-rule="evenodd" clip-rule="evenodd" d="M21.7519 29.37C20.0786 27.5781 21.0065 27.5546 19.9834 26.6901C18.6194 25.5348 17.8422 26.58 16.4782 26.3914C16.2085 25.8099 16.6843 23.0042 16.6526 21.9118L16.1768 21.8018C16.1847 22.9649 16.2165 23.2478 15.9865 24.3952C15.0507 29.0792 17.977 25.3383 19.7138 26.808C20.7051 27.6489 20.031 28.8749 21.7519 29.37Z" fill="#2FCBD5"/>
<path fill-rule="evenodd" clip-rule="evenodd" d="M31.8716 23.0513C30.5472 24.6545 31.0785 23.6485 29.9445 23.8057C29.7621 23.8293 29.5162 23.9472 29.199 23.955C28.5804 23.4049 28.628 22.8233 28.0174 22.2496C28.287 23.5464 28.1522 23.4756 27.8667 24.6702C28.7232 24.796 29.5876 25.2832 30.4124 24.8745C31.0706 24.5445 31.6257 23.8529 31.8716 23.0513Z" fill="#555A5B"/>
<path fill-rule="evenodd" clip-rule="evenodd" d="M26.6221 23.8372L25.718 24.2065C25.3532 23.9865 25.2501 24.0808 25.3373 23.6171C24.7663 24.1987 25.3294 23.9236 24.5601 24.0808C24.346 22.9962 24.0288 22.3361 23.3071 21.8174C23.5054 22.7212 23.783 23.2556 23.3547 24.3008C24.6632 25.3146 26.0273 25.3697 26.6221 23.8372Z" fill="#595A5C"/>
<path fill-rule="evenodd" clip-rule="evenodd" d="M31.3169 19.0901C33.2281 20.6383 35.0363 18.7915 35.2583 18.0291C34.5367 17.6991 33.9498 18.147 33.2757 18.4535C32.5937 18.76 31.8641 18.8543 31.3169 19.0901Z" fill="#17F6FA"/>
<path fill-rule="evenodd" clip-rule="evenodd" d="M36.8203 10.3198C38.0575 9.95827 38.5095 9.24309 38.8664 7.98565C39.1915 6.86181 39.5722 5.14854 39.2153 4.01685C38.9774 4.45695 38.9377 5.17998 38.8029 5.70654C38.3826 7.27834 38.3905 8.22928 37.8037 9.13307C37.4547 9.67534 37.0344 9.82466 36.8203 10.3198Z" fill="#2FECED"/>
<path fill-rule="evenodd" clip-rule="evenodd" d="M19.0081 22.6268C19.3094 22.2889 19.1746 23.0984 19.2222 22.1238C19.3094 20.2927 15.5821 20.0098 14.456 19.6011L14.5987 17.3691L14.2101 17.2041L14.0674 19.7033C15.7883 20.945 19.016 19.9548 19.0081 22.6268Z" fill="#51CED6"/>
<path fill-rule="evenodd" clip-rule="evenodd" d="M15.6065 17.2276C15.7968 17.0782 15.7968 17.4791 15.7413 16.9211C12.5454 13.8403 16.344 14.2333 16.2092 10.7596L15.7017 10.5002C16.122 12.355 14.9324 12.9523 14.3059 14.0918C13.3463 15.8208 15.0197 16.2216 15.6065 17.2276Z" fill="#2FD8EE"/>
<path fill-rule="evenodd" clip-rule="evenodd" d="M36.9622 7.56894C37.2319 7.78899 36.5261 7.70254 37.565 7.82829C37.2953 6.7516 37.5412 6.20147 38.0329 5.43914C38.5087 4.69254 38.7545 4.62966 39.0083 3.55298C38.0884 4.34674 37.9694 4.90473 36.1851 5.46272C36.3675 5.67491 36.7402 6.00499 36.9385 6.2722C36.986 6.34293 37.1922 6.70445 37.2081 6.81447C37.4381 8.12693 37.2874 7.30959 36.9622 7.56894Z" fill="#7D8185"/>
<path fill-rule="evenodd" clip-rule="evenodd" d="M33.3864 9.21153C33.537 8.47278 33.1484 6.13865 34.568 7.54542L35.02 6.9167H35.8289C34.8456 5.87145 33.7194 6.72022 32.6885 7.05816L33.2277 8.89717C33.3308 9.22725 33.2515 9.03077 33.3864 9.21153Z" fill="#7D8185"/>
<path fill-rule="evenodd" clip-rule="evenodd" d="M17.9224 6.42157C18.2237 6.62591 18.3506 6.65734 18.9057 6.61805C20.3174 6.51588 20.4363 6.28011 20.6267 7.67116C20.7932 8.86573 21.1263 8.69283 21.3087 8.77142C21.0232 7.89121 21.1421 7.50612 21.0866 6.58661C19.6829 5.50207 19.6036 6.13079 17.9224 6.42157Z" fill="#2FECED"/>
<path fill-rule="evenodd" clip-rule="evenodd" d="M18.7305 11.8599H18.6829C18.445 10.8697 17.7075 9.65156 16.7558 9.1643C15.3601 8.45699 14.6304 8.77135 14.2974 6.96377L13.8374 6.64941C14.3925 9.10143 14.4322 8.38626 16.3355 9.27433C17.8026 9.96592 17.9375 11.4513 18.7305 11.8599Z" fill="#51CED6"/>
<path fill-rule="evenodd" clip-rule="evenodd" d="M18.4456 5.08547L18.85 4.8104C18.1046 4.26813 16.2489 4.0638 15.21 3.74158C15.551 4.62179 17.5653 4.9833 18.4456 5.08547Z" fill="#2FECED"/>
<path fill-rule="evenodd" clip-rule="evenodd" d="M36.4795 12.3079L36.6222 12.7244C36.765 12.5908 36.7333 12.6537 36.8839 12.4572L37.2329 11.8599C37.4787 11.4355 37.4946 11.4041 37.6135 10.9168L36.8681 10.8854C36.7333 11.8678 36.6698 11.6477 36.4795 12.3079Z" fill="#2FECED"/>
<path fill-rule="evenodd" clip-rule="evenodd" d="M11.9106 38.5807L12.6165 39.2723L25.2814 41.0956L31.8558 40.404L34.0842 39.2094L31.3244 39.4059L18.2947 38.7693L12.4737 38.3763L11.9106 38.5807Z" fill="#28EBF7"/>
<path fill-rule="evenodd" clip-rule="evenodd" d="M13.0529 2.10696C13.0133 1.54111 13.0133 2.02051 13.2116 1.82404C13.4891 2.42918 13.8936 2.69639 14.298 3.16793L15.21 3.74164C16.2489 4.06386 18.1047 4.26819 18.8501 4.81047L18.4457 5.08553C18.1126 5.3213 17.9698 5.45491 17.6764 5.6671L16.8596 6.25653L17.9223 6.42157C19.6035 6.13078 19.6828 5.50206 21.0865 6.58661C21.142 7.50611 21.0231 7.8912 21.3086 8.77141L21.5623 9.44729C22.1095 8.98361 22.0937 8.39418 22.2523 7.69473C22.5061 6.54731 22.5774 6.52373 22.0937 5.55707C22.3078 4.89692 24.3301 6.03647 24.79 6.24081C25.8607 6.69663 26.8361 6.68091 28.097 6.72807C31.3089 6.85381 31.6816 7.23105 33.0615 9.3687L33.2598 9.63591L33.3867 9.21152C33.2519 9.03076 33.3312 9.22724 33.2281 8.89716L32.6888 7.05815C33.7197 6.72021 34.8459 5.87143 35.8293 6.91668C36.432 7.04243 36.6699 7.06601 36.9633 7.56898C37.2885 7.30964 37.4391 8.12697 37.2092 6.81452C37.1933 6.70449 36.9871 6.34298 36.9395 6.27224C36.7413 6.00504 36.3685 5.67496 36.1861 5.46277C37.9705 4.90478 38.0894 4.34678 39.0094 3.55302C39.1759 3.38012 39.0411 3.14435 39.1997 3.62375C39.3266 4.00885 39.2473 3.78094 39.2156 4.01671C39.5724 5.1484 39.1918 6.86167 38.8666 7.98551C38.5098 9.24295 38.0577 9.95813 36.8206 10.3196L36.0751 10.4218C36.313 10.6654 36.083 10.4925 36.4161 10.6969C36.5113 10.7519 36.8206 10.8698 36.8681 10.8855L37.6136 10.9169C37.4947 11.4042 37.4788 11.4356 37.2329 11.86L36.884 12.4573C36.7333 12.6538 36.765 12.5909 36.6223 12.7245L36.4796 12.308C36.1306 12.0486 36.0513 11.9386 35.7262 11.7185C35.4565 11.5221 35.2583 11.302 34.9728 11.1448C35.1234 12.2687 35.7499 12.8267 35.8372 13.8012C36.1385 14.257 36.2972 15.2472 36.313 15.8917L36.0117 17.2356C34.4097 16.489 34.6318 16.4182 32.2843 17.3142C30.0162 18.1787 30.3652 17.0548 29.6038 16.5361C29.1439 16.2296 29.7069 16.2846 29.3263 16.4811C28.9853 17.7543 29.6435 18.1629 29.8814 18.6188C30.4048 19.6404 30.2938 19.8605 31.0789 20.5599C32.5143 21.841 34.6318 20.6071 35.3772 19.9234L35.5596 20.332L35.6072 20.7171C35.8927 21.3851 36.0434 21.5345 36.1306 22.4461C36.4954 22.8233 36.3685 22.6504 36.3923 23.1298C37.3123 23.8293 34.608 25.8412 32.5381 24.7724C32.9664 23.4756 32.9029 22.9334 32.2209 22.0532L32.0543 22.4461C32.0385 22.4854 32.0226 22.5326 32.0147 22.5719C31.9354 22.7998 32.0068 22.7998 31.872 23.0513C31.6261 23.8529 31.071 24.5445 30.4127 24.8745C29.588 25.2832 28.7236 24.796 27.8671 24.6702C28.1526 23.4756 28.2874 23.5464 28.0177 22.2496L27.8433 21.7781C27.3833 22.4933 27.2168 23.3656 26.622 23.8372C26.0272 25.3697 24.6632 25.3147 23.3546 24.3008C23.7829 23.2556 23.5053 22.7212 23.307 21.8174L22.8154 22.7133C21.8082 25.3382 18.5567 25.2046 19.0087 22.6269C19.0167 19.9548 15.789 20.945 14.068 19.7033L14.2108 17.2041L14.5994 17.3692C15.1545 17.3849 15.4083 17.5185 15.7414 17.6835L15.6066 17.2277C15.0197 16.2218 13.3464 15.821 14.306 14.092C14.9325 12.9524 16.122 12.3551 15.7017 10.5004L16.2093 10.7597C16.7723 11.0584 16.8199 11.2549 17.3275 11.6007C17.3988 11.64 17.8509 11.915 17.946 11.9543C18.8739 12.308 18.5567 12.0879 18.7312 11.86C17.9381 11.4513 17.8033 9.96598 16.3362 9.27439C14.4328 8.38632 14.3932 9.10149 13.8381 6.64948L14.298 6.96384C15.1149 7.12102 14.5359 7.05029 14.7025 6.88525C14.3139 6.50802 13.8698 5.46277 13.6081 4.87334C13.1878 3.89882 13.0767 3.25438 13.0529 2.10696Z" fill="#090C3F"/>
<path fill-rule="evenodd" clip-rule="evenodd" d="M31.3169 19.0901C31.8641 18.8543 32.5937 18.76 33.2757 18.4535C33.9498 18.147 34.5367 17.6991 35.2583 18.0291C35.0363 18.7915 33.2281 20.6383 31.3169 19.0901Z" fill="#090C3F"/>
<path fill-rule="evenodd" clip-rule="evenodd" d="M16.6526 21.9118C19.2062 22.1004 17.4377 24.0101 18.9049 25.409C20.142 26.5879 22.085 25.802 22.8701 24.9454C23.4728 25.4326 23.8535 26.2814 25.0827 26.3836C26.3278 26.4857 27.0891 25.7077 27.6205 25.0554L28.0011 25.4876C29.4762 27.1145 30.8323 26.3364 32.0536 25.3776C32.0774 25.4012 32.117 25.409 32.125 25.4641C32.2201 25.8649 32.1567 25.5034 32.2836 25.637C33.1559 26.5643 34.0124 26.5722 35.2258 26.36C35.0355 27.8061 33.8935 27.4367 32.0219 28.6705C31.0226 29.3228 29.5396 30.3995 27.8267 29.928C28.0566 29.4879 28.4214 29.2757 28.588 28.7177C28.7387 28.1911 28.6831 27.4603 28.6514 26.8865C27.9773 27.3502 27.6205 28.4426 26.7243 29.0792C25.8996 29.6608 24.4562 30.2266 23.227 29.9201L24.6465 29.2364L21.7519 29.37C20.031 28.8749 20.7051 27.6489 19.7138 26.808C17.977 25.3383 15.0507 29.0792 15.9865 24.3952C16.2165 23.2478 16.1847 22.9649 16.1768 21.8018L16.6526 21.9118Z" fill="#090C3F"/>
<path fill-rule="evenodd" clip-rule="evenodd" d="M39.8185 33.653C40.0167 33.3858 40.5322 32.9771 40.7781 32.6392C42.1262 30.7294 42.2135 28.6939 42.8003 27.2557L42.9114 25.0945C42.721 24.3243 42.5386 23.562 42.3562 22.7682L42.38 22.6896C42.2848 21.8802 41.9676 21.4008 42.4197 20.6149C42.7131 20.104 42.9986 19.5146 43.292 19.1059C43.9027 16.2688 43.752 16.4889 42.3483 15.0507C42.1183 14.8149 42.0707 14.7913 41.8725 14.5791C41.5077 14.2255 41.6663 14.4612 41.4125 13.9976C40.4926 13.526 39.8026 12.5515 38.8906 11.8992C39.0889 9.74583 39.1999 10.3667 39.8343 9.27429L40.0405 8.8499L40.0326 8.77131L40.1278 8.15831C40.1278 8.09544 40.1278 7.16807 40.215 6.82228C40.2626 6.64938 40.2943 6.39003 40.326 6.13854C40.3577 5.87919 40.3736 5.6277 40.3895 5.44695C40.4212 5.10901 40.2229 4.21308 40.215 4.16593L39.5885 2.00469L39.0334 2.22475L37.4948 3.63151L35.7501 4.59031L34.9571 5.054H34.9492C34.9492 5.054 33.7358 5.22689 33.4424 5.3212C33.1886 5.39193 32.6652 5.38407 32.3004 5.37622C32.229 5.37622 32.1656 5.37622 32.0942 5.37622C31.9514 5.37622 31.6659 5.39979 31.3487 5.42337C30.9205 5.45481 30.4288 5.4941 30.1036 5.4941C29.8181 5.4941 29.6357 5.48624 29.382 5.44695C29.1282 5.39979 28.8189 5.3212 28.2796 5.17188C27.6214 4.99112 27.3201 4.92825 27.0504 4.8811C26.8839 4.8418 26.7253 4.81822 26.5032 4.75535C26.2336 4.69248 25.726 4.61389 25.1947 4.5353C24.5285 4.43313 23.8306 4.33097 23.4976 4.2288C23.2597 4.15807 22.9583 4.11091 22.6649 4.07948C22.2366 4.04018 21.8401 4.04018 21.737 4.0559C21.6339 4.07162 21.1977 4.00875 20.7853 3.95373C20.484 3.91444 20.1985 3.87514 20.0716 3.87514C19.9447 3.86728 19.7227 3.89086 19.5006 3.90658C19.231 3.93016 18.9534 3.95373 18.8186 3.93801C18.6362 3.91444 18.2 3.7101 17.8828 3.55292C17.7797 3.50577 17.6845 3.45861 17.6132 3.43504C17.3515 3.31715 16.2967 3.11282 16.2888 3.11282H16.2808C15.6702 2.73558 15.0675 2.35835 14.4568 1.98112L13.2276 0.448608C13.0452 0.511481 12.1015 0.833701 11.9746 1.08519C11.8398 1.36026 11.7208 2.02827 11.7129 2.099C11.7208 2.17759 11.8001 2.9635 11.8636 3.29357C11.9191 3.63937 12.0539 4.68462 12.0698 4.76321L12.6487 6.22499V6.23285C12.6804 6.21713 12.7042 6.20927 12.728 6.20141C12.8945 9.14855 13.0769 9.38432 15.1071 10.3353C14.8851 12.7008 11.6098 12.5987 13.1087 16.4024C13.9889 18.658 10.563 20.4734 15.4085 21.6601C15.5116 23.3498 12.8232 27.8294 16.2491 28.1752C17.288 28.2853 18.0811 27.6958 18.8027 27.8452C20.1033 29.0633 19.2151 30.6273 22.3159 30.2343C23.5769 32.0812 25.9084 31.2167 27.4628 30.2107C27.4945 30.2264 27.55 30.2264 27.5659 30.2736L28.1924 30.6508C30.5715 31.6804 32.8238 29.3462 34.6716 29.0083C36.4956 27.9709 36.2022 27.9866 36.7573 25.8097C37.1856 24.1278 38.8113 24.3636 37.1221 22.1002C36.2498 20.9371 36.7256 19.0431 37.249 17.8328C38.2482 15.5222 37.5741 15.5144 37.1221 13.4789L38.1769 12.8423C38.4624 12.2843 38.2482 12.638 38.6448 12.4572C39.1602 13.9268 41.2063 15.8602 42.2055 16.7011C42.3007 19.4753 40.0247 21.4322 40.2229 23.672L40.3181 24.1043C40.326 24.1357 40.3419 24.1907 40.3657 24.2379C40.675 23.3419 40.9922 23.0276 41.3173 22.3831C41.6583 22.1317 41.5235 23.3262 41.6345 24.4972C41.8963 27.1929 40.9129 28.9376 40.0326 31.0123C39.7154 31.7668 39.4299 32.1205 38.851 32.6077C38.1927 33.1579 38.0262 33.1264 37.5028 33.9438C36.9714 34.7847 35.8057 36.6237 35.5836 37.3546C35.8294 37.5589 35.9167 37.7004 36.1149 37.8733L37.13 36.5687L38.9858 34.6196L39.8185 33.653Z" fill="#090C3F"/>
<path fill-rule="evenodd" clip-rule="evenodd" d="M6.16889 34.2739C6.72403 34.6904 7.1602 34.9026 7.525 35.547C8.27047 36.0421 8.5401 36.663 9.99931 37.6847C10.5227 38.054 10.9589 38.2112 11.4109 38.6435C12.1009 39.3036 12.8543 39.7673 13.6632 40.0974L13.9487 40.121C15.8441 40.789 18.0329 40.899 20.5944 41.2762C23.7983 41.7399 27.5336 42.2429 30.8168 41.4649H30.793C32.6011 41.0012 34.2507 40.121 35.5513 38.5885C35.4244 38.2191 35.3134 38.3763 35.0992 37.8811C34.8455 37.9755 35.0517 37.8969 34.7979 38.0226C33.4576 38.6985 32.9659 38.895 31.364 38.7063C31.6336 38.9736 31.824 39.0993 32.395 39.1857C32.8628 39.2565 33.3228 39.2329 33.7907 39.2565L33.2594 39.5237C29.2624 40.8283 27.2798 40.7418 22.7436 40.231C19.4762 39.8616 15.17 39.7123 12.2912 38.7928L14.7576 38.8478L16.3595 38.7063C15.5348 38.4863 16.3516 38.7535 15.971 38.3763C15.0907 38.4156 13.0287 37.834 12.2357 37.5118C11.0065 37.0167 8.1753 34.2267 7.09676 33.1815C6.4306 32.537 5.22517 31.7354 4.2973 31.0988C1.87851 29.4406 4.08318 26.8785 2.36227 23.9078C2.02126 23.3184 1.56129 23.1533 1.57715 22.2653C1.60887 20.7799 3.03636 19.7661 3.62321 17.1412L3.88492 18.045L4.42419 20.717C4.64624 20.1276 4.65417 18.1471 4.67003 17.2434C4.67003 16.3239 4.38454 15.2629 4.08318 14.5163C3.647 13.4239 3.09187 13.3374 2.62397 12.5358C3.24255 11.0269 8.3577 9.90303 9.62658 8.62201C9.89621 7.97757 9.4759 8.65345 9.84863 8.28407C10.0469 8.0876 9.95173 8.18191 10.1341 8.06402C10.3324 7.93828 10.6337 7.79681 10.8875 7.66321C11.0858 7.34099 11.6964 6.71227 12.3071 6.38219V6.3429L9.69002 7.05807C9.61865 7.16809 9.68209 7.12094 9.42039 7.37243L8.15944 8.15833C5.61376 9.44721 -1.45229 10.909 2.29089 14.0997C3.24255 14.9092 2.93326 15.8759 2.48123 17.2748C2.45743 17.3377 2.32262 17.6992 2.30676 17.7306C2.29089 17.7621 2.2671 17.8013 2.25124 17.8406L1.9023 18.2257C1.60887 19.4596 -0.468908 20.9607 0.316208 23.2791L1.08546 24.6701C1.39475 24.9452 1.16477 24.6466 1.46613 25.1102C1.93402 25.8176 2.45743 28.0888 2.41778 28.8511C2.39399 29.4641 2.36227 29.7628 2.32262 29.975C2.32262 29.975 2.97291 30.9573 3.12359 31.2796C3.26634 31.6096 4.24972 32.2541 4.24972 32.2541L5.08242 33.0164L6.16889 34.2739Z" fill="#090C3F"/>
<path fill-rule="evenodd" clip-rule="evenodd" d="M10.8873 7.66307C10.5463 8.37824 9.63433 10.398 9.2616 10.8145C7.82618 12.3942 7.84204 11.3725 8.01651 14.3197C8.53199 16.5831 9.30918 15.5457 9.03954 20.6933C8.9761 21.9115 8.99196 23.1453 9.23781 24.3085C9.56295 25.8331 9.97534 25.8567 10.4591 26.7369L9.42814 26.3204C7.69929 25.4323 6.85866 23.7976 6.48593 21.55C6.23216 21.8486 6.16078 21.8958 6.09734 22.7367C6.05769 23.2711 6.07355 23.7583 6.02597 24.2849L5.48669 22.328C5.00294 23.8291 5.62944 26.3754 6.24009 27.4364C7.12037 28.9532 7.91342 30.077 9.32504 30.8C9.30125 30.242 9.24574 29.2282 9.42021 28.686C9.51537 28.3559 9.51537 28.4345 9.56295 28.3402C10.5463 29.6212 11.2442 30.855 12.5607 32.1675C13.6471 33.252 14.9795 34.2187 16.9542 34.6902C20.848 35.6176 23.8616 34.5724 27.0258 36.6471L27.9934 37.5431C26.1535 37.4095 23.1954 37.4409 21.4983 37.9517C22.4817 38.6276 27.2717 39.2878 29.0957 38.9577C29.4684 38.887 29.857 38.7769 30.1346 38.5726C30.4359 38.3525 30.3725 38.3525 30.4994 38.1561L30.7849 37.6688C33.2195 37.9989 34.3219 38.1639 35.9873 35.1146C36.59 33.9986 36.82 33.5743 37.6051 32.7962C38.1523 32.2461 39.3657 31.3502 40.0318 31.0122C40.9121 28.9374 41.8955 27.1927 41.6338 24.4971C41.5227 23.3261 41.6576 22.1315 41.3166 22.383C41.4434 23.7662 41.269 24.9451 41.0311 26.2889C40.928 26.8705 40.7456 27.3656 40.579 27.9C40.3411 28.6938 40.3252 28.9925 39.8256 29.3854L39.8177 28.6467C38.5488 30.2106 39.5243 30.0613 35.8604 33.0949C35.0911 33.7236 34.2902 35.0596 33.0609 35.4211C34.4488 32.7176 33.6399 33.4642 36.1776 31.0594C37.2799 30.0063 38.7074 28.6624 39.4132 26.6426C38.5964 27.2713 38.2713 28.6152 35.4084 30.7607C32.3868 33.0163 31.1259 32.9141 30.1663 33.5585C30.8087 33.9201 31.8079 33.8179 32.6248 33.7629C31.681 35.2561 28.9529 34.9182 27.1845 34.7453C25.4556 34.5802 22.9575 34.423 21.3397 34.1087C22.1645 34.0144 23.1637 33.6686 23.6871 33.2363C20.7846 33.0398 19.3333 33.197 16.7955 32.0496C15.265 31.358 12.9968 29.5426 12.6479 28.0651C13.5123 28.4816 14.1706 29.3225 15.2174 29.7626L14.4085 28.1908C15.8915 28.6388 16.5576 28.4187 18.0486 28.6309C19.4205 30.0141 18.1041 30.8157 21.3635 31.2794C22.8386 31.4916 23.1003 33.0477 26.1852 31.8374C27.7396 31.2323 26.8197 31.303 28.3106 31.7588C30.4915 32.4347 33.8857 29.9827 34.6708 29.0082C32.823 29.3461 30.5708 31.6802 28.1916 30.6507L27.5651 30.2735C27.5493 30.2263 27.4937 30.2263 27.462 30.2106C25.9076 31.2166 23.5761 32.081 22.3151 30.2342C19.2143 30.6271 20.1025 29.0632 18.802 27.845C18.0803 27.6957 17.2872 28.2851 16.2483 28.1751C12.8224 27.8293 15.5108 23.3497 15.4077 21.66C10.5622 20.4733 13.9882 18.6578 13.1079 16.4023C11.609 12.5985 14.8843 12.7007 15.1064 10.3351C13.0762 9.3842 12.8938 9.14843 12.7272 6.20129C11.9976 6.41349 11.1332 7.26226 10.8873 7.66307Z" fill="#807E84"/>
<path fill-rule="evenodd" clip-rule="evenodd" d="M9.87273 30.4231C10.2693 30.8082 10.7451 31.4604 11.1971 31.9477C12.1408 32.9694 14.8848 34.9577 16.3757 35.2957C19.3814 35.9715 23.5131 35.5078 26.0033 36.9539C22.6804 36.9932 18.287 37.339 15.2417 36.4274C13.7031 35.9715 9.95204 32.9144 9.87273 30.4231ZM9.62689 8.62213C8.7704 9.95816 5.04308 11.2313 3.45698 12.4102C3.58387 13.2511 4.55139 13.9191 4.91619 15.2787C5.16203 16.1589 5.26513 18.1394 4.81309 19.0118L4.67035 17.2435C4.65448 18.1473 4.64655 20.1277 4.4245 20.7172L3.88523 18.0451C3.84558 18.9489 2.9415 20.4342 2.59256 21.3066C1.76779 23.3421 2.42602 22.6976 3.18735 24.3638C4.79723 27.916 2.04536 28.7255 5.26513 31.0754C7.27947 32.545 8.61179 33.5824 10.2137 35.2721C12.0615 37.2211 12.8705 37.4883 15.3844 38.2113C15.6382 38.2821 16.455 38.3528 15.9713 38.3764C16.3519 38.7536 15.5351 38.4864 16.3599 38.7065L14.7579 38.8479C16.0982 38.8558 18.0649 39.1466 19.4448 39.3116C21.0388 39.4924 22.5298 39.6417 24.0841 39.8617C29.2151 40.5926 33.1011 39.4924 33.2597 39.5238L33.791 39.2566C33.3231 39.233 32.8632 39.2566 32.3953 39.1859C31.8243 39.0994 31.6339 38.9737 31.3643 38.7065C32.9663 38.8951 33.4579 38.6986 34.7982 38.0227C35.052 37.897 34.8458 37.9756 35.0996 37.8813L35.5833 37.3547C35.8054 36.6238 36.9711 34.7848 37.5025 33.9439C38.0259 33.1266 38.1924 33.158 38.8507 32.6079C39.4296 32.1206 39.7151 31.767 40.0323 31.0125C39.3661 31.3504 38.1528 32.2464 37.6056 32.7965C36.8205 33.5745 36.5905 33.9989 35.9878 35.1149C34.3224 38.1642 33.22 37.9992 30.7854 37.6691L30.4999 38.1563C30.373 38.3528 30.4364 38.3528 30.1351 38.5729C29.8575 38.7772 29.4689 38.8872 29.0962 38.958C27.2722 39.288 22.4822 38.6279 21.4988 37.952C23.1959 37.4412 26.154 37.4097 27.9939 37.5433L27.0263 36.6474C23.8621 34.5726 20.8485 35.6179 16.9546 34.6905C14.98 34.219 13.6476 33.2523 12.5612 32.1678C11.2447 30.8553 10.5468 29.6214 9.56344 28.3404C9.51586 28.4347 9.51586 28.3561 9.4207 28.6862C9.24623 29.2285 9.30174 30.2423 9.32553 30.8003C7.91391 30.0773 7.12086 28.9534 6.24058 27.4366C5.62993 26.3757 5.00343 23.8293 5.48718 22.3283L6.02646 24.2852C6.07404 23.7586 6.05818 23.2713 6.09783 22.7369C6.16127 21.896 6.23265 21.8489 6.48642 21.5502C6.85916 23.7979 7.69978 25.4326 9.42863 26.3207C9.17485 25.8648 9.1352 25.912 8.89729 25.5819C6.38333 22.0689 8.54041 19.3261 7.19223 15.5145C6.88295 14.65 6.1692 13.0546 6.5578 12.253C7.04949 12.9367 7.43015 13.8248 8.017 14.3199C7.84253 11.3728 7.82667 12.3945 9.26209 10.8148C9.63482 10.3983 10.5468 8.3785 10.8878 7.66333C10.6341 7.79693 10.3327 7.9384 10.1344 8.06414C9.95204 8.18203 10.0472 8.08772 9.84894 8.28419C9.47621 8.65357 9.89652 7.97769 9.62689 8.62213Z" fill="#555A5B"/>
<path fill-rule="evenodd" clip-rule="evenodd" d="M35.8375 13.8012C35.7503 12.8267 35.1237 12.2687 34.9731 11.1449C35.2586 11.3021 35.4568 11.5221 35.7265 11.7186C36.0516 11.9386 36.1309 12.0487 36.4799 12.308C36.6702 11.6479 36.7336 11.8679 36.8684 10.8855C36.8209 10.8698 36.5116 10.7519 36.4164 10.6969C36.0833 10.4926 36.3133 10.6655 36.0754 10.4218L36.8209 10.3197C37.035 9.82456 37.4553 9.67524 37.8042 9.13297C38.3911 8.22918 38.3832 7.27824 38.8035 5.70643C38.9383 5.17988 38.978 4.45685 39.2159 4.01674C39.2476 3.78097 39.3269 4.00888 39.2 3.62379C39.0414 3.14439 39.1762 3.38016 39.0097 3.55306C38.7559 4.62975 38.5101 4.69262 38.0342 5.43923C37.5425 6.20155 37.2967 6.75168 37.5663 7.82837C36.5274 7.70263 37.2332 7.78907 36.9636 7.56902C36.6702 7.06604 36.4323 7.04247 35.8296 6.91672H35.0206L34.5686 7.54544C33.1491 6.13868 33.5377 8.47281 33.387 9.21156L33.2601 9.63594L33.0618 9.36874C32.3402 9.10939 32.5781 8.92077 32.0705 8.43351C30.6906 7.10534 29.9769 7.57688 29.3424 7.60046C28.8032 7.62403 28.3353 7.43542 27.7801 7.35683C24.4731 6.88529 26.1623 7.4197 23.3549 6.04437C22.8077 5.77716 22.8077 5.61212 22.094 5.55711C22.5777 6.52377 22.5064 6.54735 22.2526 7.69477C22.094 8.39422 22.1098 8.98365 21.5626 9.44733L21.3089 8.77145C21.1265 8.69286 20.7934 8.86576 20.6269 7.67119C20.4365 6.28014 20.3176 6.51591 18.9059 6.61808C18.3508 6.65738 18.2239 6.62594 17.9226 6.4216L16.8599 6.25656L17.6767 5.66714C17.9701 5.45494 18.1129 5.32134 18.446 5.08557C17.5657 4.9834 15.5514 4.62189 15.2103 3.74168L14.2983 3.16797C14.3697 3.93815 14.7266 3.69452 15.7655 5.14058C16.3761 5.99722 16.2968 6.62594 17.4626 7.05819C19.6593 7.88338 18.327 7.27038 19.009 9.14083C19.4135 10.2647 20.1748 10.2489 20.9361 10.8384C21.293 11.4357 21.2613 12.0172 21.9433 12.5202C22.7839 13.1332 23.0694 12.7953 23.9656 12.8896C25.742 13.0703 25.0203 14.4771 28.0974 13.1489C28.2084 13.3375 28.3591 13.6283 28.5177 13.8012C29.4535 13.7934 28.9856 13.3847 30.08 14.1706C31.9357 15.4988 32.9587 14.202 33.7201 14.3199C34.6083 14.4457 34.7431 14.8858 35.774 14.4614L35.8375 13.8012Z" fill="#B2B2B2"/>
<path fill-rule="evenodd" clip-rule="evenodd" d="M34.6709 29.0083C33.8857 29.9828 30.4915 32.4348 28.3106 31.7589C26.8197 31.3031 27.7396 31.2324 26.1853 31.8375C23.1003 33.0478 22.8386 31.4917 21.3635 31.2795C18.1041 30.8159 19.4206 30.0142 18.0486 28.6311C16.5577 28.4189 15.8915 28.6389 14.4085 28.191L15.2174 29.7628C14.1706 29.3227 13.5124 28.4817 12.6479 28.0652C12.9969 29.5427 15.265 31.3581 16.7956 32.0497C19.3333 33.1972 20.7846 33.04 23.6872 33.2364C23.1637 33.6687 22.1645 34.0145 21.3397 34.1088C22.9576 34.4232 25.4557 34.5803 27.1845 34.7454C28.953 34.9183 31.6811 35.2562 32.6248 33.763C31.808 33.818 30.8087 33.9202 30.1664 33.5587C31.1259 32.9142 32.3869 33.0164 35.4084 30.7609C38.2713 28.6153 38.5964 27.2714 39.4133 26.6427C39.4609 26.4463 39.445 26.4227 39.5481 26.2419C39.7701 25.8332 39.6591 26.0219 39.8653 25.8018C40.0794 27.1929 39.9367 27.3815 39.8177 28.6468L39.8257 29.3855C40.3253 28.9926 40.3411 28.6939 40.5791 27.9002C40.7456 27.3658 40.928 26.8706 41.0311 26.2891C41.269 24.9452 41.4435 23.7663 41.3166 22.3831C40.9914 23.0276 40.6742 23.3419 40.3649 24.2379C39.6908 23.9549 40.0398 21.5894 40.246 20.9135C40.4918 20.104 41.4038 18.823 41.4911 18.0135C41.6655 16.3788 38.4299 15.255 38.1761 12.8423L37.1214 13.4789C37.5734 15.5144 38.2475 15.5222 37.2483 17.8328C36.7248 19.0431 36.249 20.9371 37.1214 22.1002C38.8106 24.3636 37.1848 24.1278 36.7566 25.8097C36.2014 27.9866 36.4949 27.9709 34.6709 29.0083Z" fill="#B2B2B2"/>
<path fill-rule="evenodd" clip-rule="evenodd" d="M17.2316 15.6323C18.0088 12.7795 24.6545 16.3868 25.3921 16.6225C26.5737 16.9998 27.0971 15.931 27.6364 15.5144C27.1685 18.1315 26.4627 17.0941 25.7172 18.3358C23.8535 21.4165 17.874 20.4027 18.2784 15.4751L17.2316 15.6323ZM14.2973 6.96381C14.6304 8.77138 15.36 8.45702 16.7558 9.16433C17.7074 9.65159 18.445 10.8697 18.6829 11.86H18.7305C18.556 12.0879 18.8732 12.3079 17.9453 11.9543C17.8502 11.915 17.3981 11.6399 17.3268 11.6006C16.8192 11.2548 16.7716 11.0584 16.2086 10.7597C16.3434 14.2334 12.5447 13.8405 15.7407 16.9212C15.7962 17.4792 15.7962 17.0784 15.6059 17.2277L15.7407 17.6835C15.4076 17.5185 15.1538 17.3849 14.5987 17.3692L14.4559 19.6011C15.5821 20.0098 19.3094 20.2927 19.2221 22.1239C19.1746 23.0984 19.3094 22.2889 19.008 22.6268C18.556 25.2046 21.8075 25.3382 22.8147 22.7133L23.3063 21.8174C23.0288 21.5973 23.806 21.6366 22.8305 21.6366C22.7512 22.7919 21.7282 23.7821 20.8003 23.2084C20.61 23.6721 20.6496 23.7507 20.1183 23.7507C19.5632 22.8626 20.2135 21.2279 19.2142 20.5442C18.2229 19.8683 16.9778 20.4735 16.4941 19.1217L17.0254 18.713C17.0492 18.6973 17.0968 18.6816 17.1206 18.658C16.8747 18.2101 16.843 17.5499 17.0175 17.0862C18.4608 16.874 17.8819 18.1708 19.2856 19.3575C19.3252 19.3889 19.4442 19.4832 19.4759 19.5147C19.5156 19.5382 19.5552 19.5697 19.587 19.5933L19.8011 19.774L21.0858 20.1748C22.2754 20.222 25.0273 20.6071 25.9948 18.8624C25.9789 19.4518 25.622 19.8683 25.4793 20.3163C26.5261 19.7269 27.0416 17.6128 28.3898 18.1551C29.2383 18.5244 28.8735 19.554 30.079 20.6306C29.849 20.0962 29.8569 20.0176 30.0393 19.6876C31.4668 23.0827 35.091 20.4263 35.5589 20.332L35.3765 19.9233C34.631 20.6071 32.5136 21.8409 31.0782 20.5599C30.2931 19.8605 30.4041 19.6404 29.8807 18.6187C29.6428 18.1629 28.9846 17.7542 29.3256 16.4811C29.7062 16.2846 29.1432 16.2296 29.6031 16.5361C30.3645 17.0548 30.0155 18.1786 32.2836 17.3141C34.631 16.4182 34.409 16.4889 36.011 17.2355L36.3123 15.8917C35.1862 16.3318 35.0989 15.8838 34.2187 15.6952C32.7357 15.3808 31.2923 17.8643 29.1987 15.1136C28.1281 15.9781 28.0567 15.1293 27.6205 14.3591C26.3516 15.3179 24.1073 15.035 22.5688 14.257C21.3713 13.644 21.181 14.0291 19.8804 13.7933C18.1277 13.4789 18.4608 13.864 17.184 13.9269C17.1285 13.2432 17.2792 12.9602 17.644 12.4887C18.6591 12.5123 19.5711 12.6302 20.2214 11.9779C18.2626 10.8147 18.2784 8.347 17.8819 8.07193C16.9699 7.85188 16.5099 8.11123 15.6376 7.67112C16.0738 7.47465 16.0817 7.66326 16.5258 7.35676C15.5107 6.35081 15.5821 5.58848 14.8287 4.6454C13.0126 2.36628 14.1387 3.73375 13.0522 2.10693C13.076 3.25435 13.1871 3.89879 13.6074 4.87331C13.8691 5.46274 14.3132 6.50799 14.7018 6.88522C14.5352 7.05026 15.1142 7.12099 14.2973 6.96381Z" fill="#555A5B"/>
<path fill-rule="evenodd" clip-rule="evenodd" d="M13.0529 2.10696C14.1394 3.73378 13.0133 2.36631 14.8294 4.64543C15.5828 5.58851 15.5114 6.35083 16.5265 7.35679C16.0824 7.66329 16.0745 7.47467 15.6383 7.67115C16.5106 8.11126 16.9706 7.85191 17.8826 8.07196C18.2791 8.34703 18.2633 10.8148 20.2221 11.9779C19.5718 12.6302 18.6598 12.5123 17.6447 12.4887C17.2799 12.9603 17.1292 13.2432 17.1847 13.9269C18.4615 13.8641 18.1284 13.479 19.8811 13.7933C21.1817 14.0291 21.372 13.644 22.5695 14.257C24.108 15.0351 26.3523 15.318 27.6212 14.3592C28.0574 15.1294 28.1288 15.9781 29.1994 15.1136C31.293 17.8643 32.7364 15.3809 34.2194 15.6952C35.0996 15.8838 35.1869 16.3318 36.313 15.8917C36.2971 15.2472 36.1385 14.257 35.8372 13.8012L35.7737 14.4613C34.7428 14.8857 34.608 14.4456 33.7197 14.3199C32.9584 14.202 31.9354 15.4987 30.0797 14.1706C28.9853 13.3847 29.4532 13.7933 28.5174 13.8012C28.3587 13.6283 28.2081 13.3375 28.097 13.1489C25.02 14.4771 25.7417 13.0703 23.9653 12.8895C23.0691 12.7952 22.7836 13.1332 21.943 12.5202C21.261 12.0172 21.2927 11.4356 20.9358 10.8383C20.1745 10.2489 19.4132 10.2646 19.0087 9.14079C18.3267 7.27034 19.659 7.88334 17.4623 7.05815C16.2965 6.6259 16.3758 5.99718 15.7652 5.14055C14.7263 3.69449 14.3694 3.93812 14.298 3.16793C13.8936 2.69639 13.4891 2.42918 13.2116 1.82404C13.0133 2.02051 13.0133 1.54111 13.0529 2.10696Z" fill="#7E7D82"/>
<path fill-rule="evenodd" clip-rule="evenodd" d="M29.2541 26.7921C30.8164 26.9414 31.0464 26.6663 32.0535 26.1241C32.4421 26.352 32.0377 26.1241 32.3628 26.3363C32.4025 26.3598 32.5214 26.4384 32.5611 26.462L33.9965 26.9257C34.0203 26.8942 34.0758 26.9493 34.1154 26.9728C33.3938 27.5465 32.5928 27.2951 31.6253 27.9552C30.8481 28.4896 30.4278 28.9062 29.1986 28.8511L29.2541 26.7921ZM21.8946 26.627C23.8217 25.849 22.2356 26.3205 24.2817 26.8235C26.3674 27.3343 26.7639 26.3127 27.7631 25.8254C27.7631 27.185 26.978 28.1595 26.3436 28.2303C25.7329 28.2931 26.8511 28.0888 25.955 28.191C25.6536 28.2303 25.2809 28.4425 24.8844 28.4818C24.2341 28.5368 24.2975 28.356 24.012 28.246L23.8376 28.1831C22.6401 28.0259 22.7194 29.307 21.0064 26.9728L21.8946 26.627ZM21.7518 29.3698L24.6465 29.2362L23.2269 29.92C24.4561 30.2265 25.8995 29.6606 26.7243 29.079C27.6204 28.4425 27.9773 27.3501 28.6514 26.8864C28.6831 27.4601 28.7386 28.191 28.5879 28.7175C28.4214 29.2755 28.0566 29.4877 27.8266 29.9278C29.5396 30.3994 31.0226 29.3227 32.0218 28.6704C33.8934 27.4365 35.0354 27.8059 35.2257 26.3598C34.0124 26.572 33.1559 26.5642 32.2835 25.6368C32.1566 25.5032 32.2201 25.8647 32.1249 25.4639C32.117 25.4089 32.0773 25.401 32.0535 25.3774C30.8322 26.3363 29.4761 27.1143 28.0011 25.4875L27.6204 25.0552C27.0891 25.7075 26.3277 26.4856 25.0826 26.3834C23.8534 26.2812 23.4728 25.4325 22.87 24.9452C22.0849 25.8018 20.142 26.5877 18.9048 25.4089C17.4377 24.01 19.2062 22.1002 16.6526 21.9116C16.6843 23.004 16.2085 25.8097 16.4781 26.3913C17.8421 26.5799 18.6193 25.5346 19.9834 26.6899C21.0064 27.5544 20.0785 27.578 21.7518 29.3698Z" fill="#555A5B"/>
<path fill-rule="evenodd" clip-rule="evenodd" d="M23.6479 21.0079C24.9326 19.9233 24.4647 21.6209 26.1698 20.3556C26.8756 19.8369 27.3356 18.8545 28.0969 18.5951C29.1754 19.1689 28.8582 20.1984 30.1826 21.1493C31.3087 21.9509 30.5316 20.552 31.2532 21.6287C31.7846 22.4225 31.3563 22.7919 30.9439 23.2162C30.254 23.2162 30.4602 22.7919 29.7227 23.0355C29.0961 23.2477 29.2706 22.9333 28.6679 22.006C28.3665 21.5423 28.1683 21.503 27.8273 21.0314C27.2959 21.5187 27.4387 22.1396 26.3601 23.1691L25.345 22.9255C24.6551 22.7211 24.9009 22.8547 24.5678 22.4618C24.1872 22.0217 23.7351 21.4715 23.6479 21.0079ZM23.3069 21.8173C24.0286 22.336 24.3458 22.9962 24.5599 24.0807C25.3292 23.9236 24.7661 24.1986 25.3371 23.6171C25.2499 24.0807 25.353 23.9864 25.7178 24.2065L26.6218 23.8371C27.2166 23.3656 27.3832 22.4932 27.8431 21.778L28.0176 22.2496C28.6282 22.8233 28.5807 23.4049 29.1992 23.955C29.5165 23.9471 29.7623 23.8292 29.9447 23.8057C31.0788 23.6485 30.5474 24.6544 31.8718 23.0512C32.0066 22.7997 31.9353 22.7997 32.0146 22.5718C32.0225 22.5325 32.0383 22.4854 32.0542 22.4461L32.2207 22.0531C33.6165 22.7368 33.3389 22.7761 33.7672 24.2851C34.5682 24.3087 34.2272 24.3715 34.9012 23.452C35.5991 23.9786 36.3525 24.2694 36.3922 23.1298C36.3684 22.6504 36.4953 22.8233 36.1305 22.4461C36.1384 22.8547 36.1067 22.9176 35.9639 23.1691C35.2105 23.3184 35.2026 23.1612 34.9092 22.729L34.2668 23.4756C33.5531 22.9097 34.0448 22.4225 32.8155 21.9431C33.2993 21.6444 33.7037 21.6995 34.2747 21.503C34.8775 21.2986 35.2423 20.9921 35.6071 20.7171L35.5595 20.332C35.0916 20.4263 31.4674 23.0826 30.0399 19.6875C29.8575 20.0176 29.8495 20.0962 30.0795 20.6306C28.8741 19.5539 29.2389 18.5244 28.3903 18.155C27.0422 17.6128 26.5267 19.7268 25.4798 20.3163C25.6226 19.8683 25.9795 19.4518 25.9953 18.8623C25.0278 20.6071 22.2759 20.222 21.0864 20.1748C21.3719 20.4263 20.8564 20.1827 21.5305 20.4342C21.9667 20.5992 22.1094 20.4656 22.6566 20.7485C22.7438 21.6366 22.387 22.1789 21.9191 22.6347C21.5067 22.4932 21.6019 22.5718 21.4432 22.1553C21.1895 22.3832 21.0626 22.5482 20.5392 22.5561C20.2299 20.6935 20.6661 21.0865 19.421 19.8133L19.8016 19.774L19.5875 19.5932C19.5558 19.5697 19.5161 19.5382 19.4765 19.5146C19.4448 19.4832 19.3258 19.3889 19.2862 19.3575C17.8825 18.1708 18.4614 16.874 17.018 17.0862C16.8436 17.5499 16.8753 18.21 17.1211 18.658C17.0973 18.6816 17.0498 18.6973 17.026 18.713L16.4946 19.1217C16.9784 20.4734 18.2235 19.8683 19.2148 20.5442C20.214 21.2279 19.5637 22.8626 20.1189 23.7507C20.6502 23.7507 20.6105 23.6721 20.8009 23.2084C21.7287 23.7821 22.7518 22.7919 22.8311 21.6366C23.8065 21.6366 23.0293 21.5973 23.3069 21.8173Z" fill="#7E7D82"/>
<path fill-rule="evenodd" clip-rule="evenodd" d="M18.7863 15.5932C21.0148 16.0176 22.9181 17.1728 24.9641 17.8251C24.5597 18.3674 23.8856 18.611 23.1798 18.6582C22.5295 18.7053 21.5937 18.5167 20.9989 18.3202C19.8331 17.943 18.9053 16.1669 18.7863 15.5932ZM17.2319 15.6325L18.2788 15.4753C17.8743 20.4029 23.8539 21.4167 25.7175 18.336C26.463 17.0942 27.1688 18.1316 27.6367 15.5146C27.0974 15.9311 26.574 16.9999 25.3924 16.6227C24.6549 16.3869 18.0091 12.7796 17.2319 15.6325Z" fill="#090C3F"/>
<path fill-rule="evenodd" clip-rule="evenodd" d="M11.1965 31.9476C10.7444 31.4604 10.2686 30.8081 9.87207 30.423C9.95137 32.9143 13.7025 35.9714 15.241 36.4273C18.2863 37.3389 22.6798 36.9931 26.0026 36.9538C23.5125 35.5078 19.3807 35.9714 16.3751 35.2956C14.8841 34.9576 12.1402 32.9693 11.1965 31.9476Z" fill="#0C0B3C"/>
<path fill-rule="evenodd" clip-rule="evenodd" d="M23.6479 21.0079C23.7352 21.4716 24.1872 22.0217 24.5679 22.4619C24.901 22.8548 24.6551 22.7212 25.3451 22.9255L26.3602 23.1692C27.4387 22.1396 27.296 21.5188 27.8273 21.0315C28.1683 21.5031 28.3666 21.5423 28.6679 22.006C29.2707 22.9334 29.0962 23.2478 29.7227 23.0356C30.4602 22.7919 30.254 23.2163 30.944 23.2163C31.3564 22.7919 31.7846 22.4226 31.2533 21.6288C30.5316 20.5521 31.3088 21.951 30.1827 21.1494C28.8583 20.1985 29.1755 19.1689 28.0969 18.5952C27.3356 18.8546 26.8756 19.8369 26.1698 20.3556C24.4648 21.6209 24.9327 19.9234 23.6479 21.0079Z" fill="#B2B0B0"/>
<path fill-rule="evenodd" clip-rule="evenodd" d="M9.42767 26.3205L10.4586 26.737C9.97487 25.8568 9.56248 25.8332 9.23733 24.3085C8.99149 23.1454 8.97563 21.9115 9.03907 20.6934C9.30871 15.5457 8.53152 16.5831 8.01604 14.3197C7.42919 13.8246 7.04853 12.9365 6.55684 12.2528C6.16824 13.0544 6.88199 14.6498 7.19127 15.5143C8.53945 19.3259 6.38237 22.0687 8.89632 25.5817C9.13424 25.9118 9.17389 25.8646 9.42767 26.3205Z" fill="#0C0B3C"/>
<path fill-rule="evenodd" clip-rule="evenodd" d="M15.9709 38.3762C16.4546 38.3526 15.6378 38.2819 15.384 38.2111C12.87 37.4881 12.0611 37.2209 10.2133 35.2719C8.61138 33.5822 7.27907 32.5448 5.26473 31.0752C2.04496 28.7253 4.79683 27.9158 3.18694 24.3636C2.42562 22.6974 1.76739 23.3419 2.59216 21.3064C2.9411 20.434 3.84517 18.9487 3.88483 18.0449L3.62312 17.1411C3.03627 19.766 1.60878 20.7798 1.57706 22.2652C1.5612 23.1533 2.02117 23.3183 2.36218 23.9077C4.08309 26.8784 1.87842 29.4405 4.29721 31.0987C5.22508 31.7353 6.43051 32.5369 7.09667 33.1814C8.17521 34.2266 11.0064 37.0166 12.2356 37.5117C13.0287 37.8339 15.0906 38.4155 15.9709 38.3762Z" fill="#28EBF7"/>
<path fill-rule="evenodd" clip-rule="evenodd" d="M39.4138 26.6426C38.708 28.6623 37.2805 30.0062 36.1782 31.0593C33.6404 33.4642 34.4494 32.7176 33.0615 35.4211C34.2907 35.0596 35.0917 33.7235 35.861 33.0948C39.5249 30.0612 38.5494 30.2105 39.8183 28.6466C39.9372 27.3813 40.08 27.1927 39.8659 25.8016C39.6597 26.0217 39.7707 25.8331 39.5486 26.2417C39.4455 26.4225 39.4614 26.4461 39.4138 26.6426Z" fill="#090B3E"/>
<path fill-rule="evenodd" clip-rule="evenodd" d="M21.0068 26.9729C22.7198 29.307 22.6405 28.026 23.838 28.1831L24.0125 28.246C24.298 28.356 24.2345 28.5368 24.8848 28.4818C25.2814 28.4425 25.6541 28.2303 25.9554 28.191C26.8516 28.0888 25.7334 28.2932 26.344 28.2303C26.9785 28.1596 27.7636 27.1851 27.7636 25.8254C26.7644 26.3127 26.3678 27.3344 24.2821 26.8235C22.2361 26.3206 23.8222 25.849 21.895 26.6271L21.0068 26.9729Z" fill="#7E7D82"/>
<path fill-rule="evenodd" clip-rule="evenodd" d="M18.7861 15.5929C18.9051 16.1666 19.833 17.9427 20.9987 18.32C21.5935 18.5165 22.5293 18.7051 23.1796 18.6579C23.8854 18.6108 24.5595 18.3671 24.964 17.8249C22.9179 17.1726 21.0146 16.0173 18.7861 15.5929Z" fill="#05FCFC"/>
<path fill-rule="evenodd" clip-rule="evenodd" d="M38.1763 12.8422C38.43 15.255 41.6657 16.3788 41.4912 18.0135C41.404 18.823 40.492 20.104 40.2461 20.9135C40.0399 21.5893 39.691 23.9549 40.3651 24.2378C40.3413 24.1907 40.3254 24.1357 40.3175 24.1042L40.2223 23.672C40.0241 21.4322 42.3001 19.4753 42.2049 16.701C41.2057 15.8601 39.1596 13.9268 38.6442 12.4572C38.2476 12.6379 38.4618 12.2843 38.1763 12.8422Z" fill="#28EBF7"/>
<path fill-rule="evenodd" clip-rule="evenodd" d="M29.2552 26.7922L29.1997 28.8512C30.4289 28.9062 30.8492 28.4897 31.6264 27.9553C32.5939 27.2951 33.3949 27.5466 34.1166 26.9729C34.0769 26.9493 34.0214 26.8943 33.9976 26.9258L32.5622 26.4621C32.5226 26.4385 32.4036 26.3599 32.364 26.3363C32.0388 26.1241 32.4433 26.3521 32.0547 26.1241C31.0475 26.6664 30.8175 26.9415 29.2552 26.7922Z" fill="#7E7D82"/>
<path fill-rule="evenodd" clip-rule="evenodd" d="M4.67008 17.2433L4.81283 19.0116C5.26487 18.1392 5.16177 16.1587 4.91593 15.2785C4.55113 13.9189 3.58361 13.2509 3.45672 12.41C5.04282 11.2311 8.77014 9.95798 9.62663 8.62195C8.35775 9.90297 3.2426 11.0268 2.62402 12.5357C3.09192 13.3374 3.64705 13.4238 4.08323 14.5162C4.38459 15.2628 4.67008 16.3238 4.67008 17.2433Z" fill="#2FECED"/>
<path fill-rule="evenodd" clip-rule="evenodd" d="M22.0928 5.55702C22.8065 5.61204 22.8065 5.77708 23.3537 6.04428C26.1611 7.41961 24.4719 6.8852 27.7789 7.35674C28.3341 7.43533 28.8019 7.62395 29.3412 7.60037C29.9757 7.57679 30.6894 7.10525 32.0693 8.43342C32.5769 8.92068 32.3389 9.1093 33.0606 9.36865C31.6807 7.23099 31.308 6.85376 28.0961 6.72802C26.8352 6.68086 25.8597 6.69658 24.7891 6.24076C24.3292 6.03642 22.3069 4.89687 22.0928 5.55702Z" fill="#2FECED"/>
<path fill-rule="evenodd" clip-rule="evenodd" d="M21.0863 20.1751L19.8016 19.7743L19.4209 19.8136C20.666 21.0867 20.2298 20.6938 20.5391 22.5564C21.0625 22.5485 21.1894 22.3835 21.4432 22.1556C21.6018 22.5721 21.5066 22.4935 21.919 22.635C22.3869 22.1792 22.7438 21.6369 22.6565 20.7488C22.1093 20.4659 21.9666 20.5995 21.5304 20.4344C20.8563 20.183 21.3718 20.4266 21.0863 20.1751Z" fill="#B2B0B0"/>
<path fill-rule="evenodd" clip-rule="evenodd" d="M36.1299 22.4463C36.0426 21.5346 35.892 21.3853 35.6065 20.7173C35.2417 20.9924 34.8769 21.2989 34.2741 21.5032C33.7032 21.6997 33.2987 21.6446 32.8149 21.9433C34.0442 22.4227 33.5525 22.91 34.2662 23.4758L34.9086 22.7292C35.202 23.1614 35.2099 23.3186 35.9633 23.1693C36.1061 22.9178 36.1378 22.8549 36.1299 22.4463Z" fill="#B2B0B0"/>
<path fill-rule="evenodd" clip-rule="evenodd" d="M36.3926 23.1298C36.353 24.2693 35.5996 23.9786 34.9017 23.452C34.2276 24.3715 34.5686 24.3086 33.7676 24.2851C33.3394 22.7761 33.617 22.7368 32.2212 22.0531C32.9032 22.9333 32.9667 23.4756 32.5384 24.7723C34.6083 25.8411 37.3126 23.8292 36.3926 23.1298Z" fill="#555A5B"/>
<path fill-rule="evenodd" clip-rule="evenodd" d="M21.7519 29.37C20.0786 27.5781 21.0065 27.5546 19.9834 26.6901C18.6194 25.5348 17.8422 26.58 16.4782 26.3914C16.2085 25.8099 16.6843 23.0042 16.6526 21.9118L16.1768 21.8018C16.1847 22.9649 16.2165 23.2478 15.9865 24.3952C15.0507 29.0792 17.977 25.3383 19.7138 26.808C20.7051 27.6489 20.031 28.8749 21.7519 29.37Z" fill="#2FCBD5"/>
<path fill-rule="evenodd" clip-rule="evenodd" d="M31.8716 23.0513C30.5472 24.6545 31.0785 23.6485 29.9445 23.8057C29.7621 23.8293 29.5162 23.9472 29.199 23.955C28.5804 23.4049 28.628 22.8233 28.0174 22.2496C28.287 23.5464 28.1522 23.4756 27.8667 24.6702C28.7232 24.796 29.5876 25.2832 30.4124 24.8745C31.0706 24.5445 31.6257 23.8529 31.8716 23.0513Z" fill="#555A5B"/>
<path fill-rule="evenodd" clip-rule="evenodd" d="M26.6221 23.8372L25.718 24.2065C25.3532 23.9865 25.2501 24.0808 25.3373 23.6171C24.7663 24.1987 25.3294 23.9236 24.5601 24.0808C24.346 22.9962 24.0288 22.3361 23.3071 21.8174C23.5054 22.7212 23.783 23.2556 23.3547 24.3008C24.6632 25.3146 26.0273 25.3697 26.6221 23.8372Z" fill="#595A5C"/>
<path fill-rule="evenodd" clip-rule="evenodd" d="M31.3169 19.0901C33.2281 20.6383 35.0363 18.7915 35.2583 18.0291C34.5367 17.6991 33.9498 18.147 33.2757 18.4535C32.5937 18.76 31.8641 18.8543 31.3169 19.0901Z" fill="#17F6FA"/>
<path fill-rule="evenodd" clip-rule="evenodd" d="M36.8203 10.3198C38.0575 9.95827 38.5095 9.24309 38.8664 7.98565C39.1915 6.86181 39.5722 5.14854 39.2153 4.01685C38.9774 4.45695 38.9377 5.17998 38.8029 5.70654C38.3826 7.27834 38.3905 8.22928 37.8037 9.13307C37.4547 9.67534 37.0344 9.82466 36.8203 10.3198Z" fill="#2FECED"/>
<path fill-rule="evenodd" clip-rule="evenodd" d="M19.0081 22.6268C19.3094 22.2889 19.1746 23.0984 19.2222 22.1238C19.3094 20.2927 15.5821 20.0098 14.456 19.6011L14.5987 17.3691L14.2101 17.2041L14.0674 19.7033C15.7883 20.945 19.016 19.9548 19.0081 22.6268Z" fill="#51CED6"/>
<path fill-rule="evenodd" clip-rule="evenodd" d="M15.6065 17.2276C15.7968 17.0782 15.7968 17.4791 15.7413 16.9211C12.5454 13.8403 16.344 14.2333 16.2092 10.7596L15.7017 10.5002C16.122 12.355 14.9324 12.9523 14.3059 14.0918C13.3463 15.8208 15.0197 16.2216 15.6065 17.2276Z" fill="#2FD8EE"/>
<path fill-rule="evenodd" clip-rule="evenodd" d="M36.9622 7.56894C37.2319 7.78899 36.5261 7.70254 37.565 7.82829C37.2953 6.7516 37.5412 6.20147 38.0329 5.43914C38.5087 4.69254 38.7545 4.62966 39.0083 3.55298C38.0884 4.34674 37.9694 4.90473 36.1851 5.46272C36.3675 5.67491 36.7402 6.00499 36.9385 6.2722C36.986 6.34293 37.1922 6.70445 37.2081 6.81447C37.4381 8.12693 37.2874 7.30959 36.9622 7.56894Z" fill="#7D8185"/>
<path fill-rule="evenodd" clip-rule="evenodd" d="M33.3864 9.21153C33.537 8.47278 33.1484 6.13865 34.568 7.54542L35.02 6.9167H35.8289C34.8456 5.87145 33.7194 6.72022 32.6885 7.05816L33.2277 8.89717C33.3308 9.22725 33.2515 9.03077 33.3864 9.21153Z" fill="#7D8185"/>
<path fill-rule="evenodd" clip-rule="evenodd" d="M17.9224 6.42157C18.2237 6.62591 18.3506 6.65734 18.9057 6.61805C20.3174 6.51588 20.4363 6.28011 20.6267 7.67116C20.7932 8.86573 21.1263 8.69283 21.3087 8.77142C21.0232 7.89121 21.1421 7.50612 21.0866 6.58661C19.6829 5.50207 19.6036 6.13079 17.9224 6.42157Z" fill="#2FECED"/>
<path fill-rule="evenodd" clip-rule="evenodd" d="M18.7305 11.8599H18.6829C18.445 10.8697 17.7075 9.65156 16.7558 9.1643C15.3601 8.45699 14.6304 8.77135 14.2974 6.96377L13.8374 6.64941C14.3925 9.10143 14.4322 8.38626 16.3355 9.27433C17.8026 9.96592 17.9375 11.4513 18.7305 11.8599Z" fill="#51CED6"/>
<path fill-rule="evenodd" clip-rule="evenodd" d="M18.4456 5.08547L18.85 4.8104C18.1046 4.26813 16.2489 4.0638 15.21 3.74158C15.551 4.62179 17.5653 4.9833 18.4456 5.08547Z" fill="#2FECED"/>
<path fill-rule="evenodd" clip-rule="evenodd" d="M36.4795 12.3079L36.6222 12.7244C36.765 12.5908 36.7333 12.6537 36.8839 12.4572L37.2329 11.8599C37.4787 11.4355 37.4946 11.4041 37.6135 10.9168L36.8681 10.8854C36.7333 11.8678 36.6698 11.6477 36.4795 12.3079Z" fill="#2FECED"/>
</g>
<defs>
<clipPath id="clip0_1_1910">
<rect width="43.4907" height="41.4197" fill="white" transform="translate(0.14209 0.447266)"/>
</clipPath>
</defs>
</svg>
