<svg width="42" height="40" viewBox="0 0 42 40" fill="none" xmlns="http://www.w3.org/2000/svg">
<g clip-path="url(#clip0_1_2397)">
<path fill-rule="evenodd" clip-rule="evenodd" d="M11.3652 36.8263L12.0469 37.4942L24.2777 39.255L30.6267 38.5871L32.7788 37.4335L30.1136 37.6232L17.5304 37.0084L11.909 36.629L11.3652 36.8263Z" fill="#28EBF7"/>
<path fill-rule="evenodd" clip-rule="evenodd" d="M12.4683 1.60285C12.43 1.05639 12.43 1.51936 12.6214 1.32962C12.8895 1.91402 13.2801 2.17207 13.6707 2.62745L14.5514 3.18149C15.5547 3.49267 17.3468 3.69 18.0667 4.21368L17.6761 4.47932C17.3545 4.70701 17.2166 4.83604 16.9332 5.04096L16.1444 5.61018L17.1707 5.76956C18.7943 5.48875 18.8709 4.88157 20.2265 5.92894C20.2801 6.81693 20.1652 7.18883 20.4409 8.03887L20.686 8.69158C21.2144 8.24379 21.1991 7.67456 21.3523 6.99908C21.5974 5.891 21.6663 5.86823 21.1991 4.9347C21.4059 4.29717 23.3588 5.39767 23.803 5.595C24.837 6.0352 25.779 6.02002 26.9967 6.06556C30.0984 6.18699 30.4584 6.5513 31.791 8.61568L31.9825 8.87373L32.105 8.46389C31.9748 8.28932 32.0514 8.47907 31.9518 8.1603L31.4311 6.38432C32.4267 6.05797 33.5142 5.23829 34.4639 6.24771C35.0459 6.36914 35.2757 6.39191 35.5591 6.87765C35.8731 6.62719 36.0186 7.41652 35.7965 6.14904C35.7812 6.04279 35.582 5.69367 35.5361 5.62536C35.3446 5.36731 34.9847 5.04855 34.8085 4.84363C36.5317 4.30476 36.6466 3.7659 37.535 2.99934C37.6958 2.83237 37.5656 2.60468 37.7188 3.06765C37.8413 3.43954 37.7648 3.21944 37.7341 3.44713C38.0788 4.54004 37.7111 6.19458 37.3971 7.2799C37.0525 8.49425 36.616 9.1849 35.4212 9.53403L34.7013 9.63269C34.9311 9.86797 34.709 9.701 35.0306 9.89833C35.1225 9.95146 35.4212 10.0653 35.4672 10.0805L36.1871 10.1108C36.0722 10.5814 36.0569 10.6118 35.8195 11.0216L35.4825 11.5984C35.337 11.7882 35.3676 11.7274 35.2297 11.8565L35.0919 11.4542C34.7549 11.2037 34.6783 11.0975 34.3643 10.885C34.1039 10.6952 33.9125 10.4827 33.6367 10.3309C33.7823 11.4163 34.3873 11.9551 34.4715 12.8962C34.7626 13.3364 34.9157 14.2927 34.9311 14.9151L34.64 16.2129C33.093 15.4919 33.3074 15.4236 31.0405 16.2888C28.8501 17.1237 29.1871 16.0384 28.4518 15.5374C28.0076 15.2414 28.5514 15.2946 28.1838 15.4843C27.8545 16.7138 28.4901 17.1085 28.7199 17.5487C29.2254 18.5353 29.1181 18.7479 29.8764 19.4233C31.2626 20.6604 33.3074 19.4689 34.0273 18.8086L34.2035 19.2032L34.2494 19.5751C34.5251 20.2202 34.6707 20.3645 34.7549 21.2449C35.1072 21.6092 34.9847 21.4422 35.0076 21.9051C35.896 22.5806 33.2844 24.5236 31.2855 23.4914C31.6991 22.2391 31.6378 21.7154 30.9792 20.8654L30.8184 21.2449C30.803 21.2828 30.7877 21.3283 30.7801 21.3663C30.7035 21.5864 30.7724 21.5864 30.6422 21.8293C30.4048 22.6034 29.8687 23.2713 29.233 23.5901C28.4365 23.9847 27.6017 23.5142 26.7746 23.3927C27.0503 22.2391 27.1805 22.3074 26.9201 21.0551L26.7516 20.5997C26.3074 21.2904 26.1466 22.1328 25.5722 22.5882C24.9978 24.0682 23.6805 24.0151 22.4168 23.036C22.8304 22.0266 22.5623 21.5105 22.3709 20.6377L21.896 21.5029C20.9234 24.0378 17.7834 23.9088 18.2199 21.4194C18.2276 18.8389 15.1105 19.7952 13.4486 18.5961L13.5864 16.1826L13.9617 16.3419C14.4978 16.3571 14.7429 16.4861 15.0645 16.6455L14.9343 16.2053C14.3676 15.2339 12.7516 14.8468 13.6783 13.1771C14.2834 12.0766 15.4321 11.4997 15.0262 9.70859L15.5164 9.95905C16.0602 10.2475 16.1061 10.4372 16.5963 10.7711C16.6652 10.8091 17.1017 11.0747 17.1936 11.1127C18.0897 11.4542 17.7834 11.2417 17.9518 11.0216C17.186 10.6269 17.0558 9.19249 15.6389 8.5246C13.8009 7.66697 13.7626 8.35763 13.2265 5.98966L13.6707 6.29325C14.4595 6.44504 13.9004 6.37673 14.0612 6.21735C13.686 5.85305 13.2571 4.84363 13.0044 4.2744C12.5984 3.33329 12.4912 2.71093 12.4683 1.60285Z" fill="#090C3F"/>
<path fill-rule="evenodd" clip-rule="evenodd" d="M30.1064 18.0039C30.6349 17.7762 31.3395 17.6851 31.9981 17.3891C32.6491 17.0931 33.2159 16.6605 33.9128 16.9793C33.6983 17.7155 31.9522 19.499 30.1064 18.0039Z" fill="#090C3F"/>
<path fill-rule="evenodd" clip-rule="evenodd" d="M15.9444 20.7288C18.4105 20.911 16.7026 22.7552 18.1195 24.1062C19.3142 25.2447 21.1906 24.4857 21.9488 23.6584C22.5308 24.129 22.8985 24.9487 24.0856 25.0473C25.288 25.146 26.0232 24.3946 26.5363 23.7647L26.9039 24.1821C28.3284 25.7532 29.6381 25.0018 30.8175 24.0758C30.8405 24.0986 30.8788 24.1062 30.8864 24.1593C30.9783 24.5464 30.9171 24.1973 31.0396 24.3263C31.8821 25.2219 32.7092 25.2295 33.881 25.0246C33.6971 26.421 32.5943 26.0643 30.7869 27.2559C29.8219 27.8859 28.3897 28.9256 26.7354 28.4703C26.9575 28.0452 27.3098 27.8403 27.4707 27.3014C27.6162 26.7929 27.5626 26.0871 27.5319 25.5331C26.881 25.9808 26.5363 27.0358 25.6709 27.6506C24.8744 28.2122 23.4805 28.7587 22.2934 28.4627L23.6643 27.8024L20.8689 27.9314C19.207 27.4532 19.858 26.2693 18.9007 25.4572C17.2234 24.0379 14.3974 27.6506 15.3011 23.1271C15.5232 22.0191 15.4926 21.7458 15.4849 20.6226L15.9444 20.7288Z" fill="#090C3F"/>
<path fill-rule="evenodd" clip-rule="evenodd" d="M38.3163 32.0676C38.5078 31.8096 39.0056 31.4149 39.243 31.0885C40.545 29.2443 40.6292 27.2785 41.196 25.8896L41.3032 23.8025C41.1194 23.0587 40.9432 22.3225 40.7671 21.5559L40.79 21.48C40.6981 20.6983 40.3918 20.2353 40.8283 19.4764C41.1117 18.983 41.3874 18.4138 41.6708 18.0192C42.2605 15.2793 42.115 15.4918 40.7594 14.1029C40.5373 13.8752 40.4914 13.8524 40.2999 13.6475C39.9476 13.306 40.1008 13.5337 39.8557 13.0859C38.9673 12.6305 38.301 11.6894 37.4202 11.0595C37.6117 8.9799 37.7189 9.57948 38.3316 8.52452L38.5307 8.11468L38.5231 8.03878L38.615 7.44679C38.615 7.38607 38.615 6.49049 38.6992 6.15655C38.7452 5.98957 38.7758 5.73912 38.8065 5.49625C38.8371 5.24579 38.8524 5.00292 38.8677 4.82836C38.8984 4.502 38.7069 3.63678 38.6992 3.59125L38.0942 1.50409L37.5581 1.7166L36.0723 3.07515L34.3874 4.00109L33.6216 4.44888H33.6139C33.6139 4.44888 32.4421 4.61585 32.1588 4.70692C31.9137 4.77523 31.4082 4.76764 31.0559 4.76005C30.987 4.76005 30.9257 4.76005 30.8568 4.76005C30.7189 4.76005 30.4432 4.78282 30.1369 4.80559C29.7233 4.83595 29.2485 4.8739 28.9345 4.8739C28.6588 4.8739 28.4826 4.86631 28.2375 4.82836C27.9925 4.78282 27.6938 4.70692 27.173 4.56272C26.5373 4.38816 26.2463 4.32744 25.9859 4.2819C25.8251 4.24396 25.6719 4.22119 25.4574 4.16047C25.197 4.09975 24.7069 4.02386 24.1938 3.94796C23.5504 3.84929 22.8765 3.75063 22.5548 3.65196C22.3251 3.58366 22.034 3.53812 21.7507 3.50776C21.3371 3.46981 20.9542 3.46981 20.8546 3.48499C20.755 3.50017 20.3338 3.43945 19.9356 3.38633C19.6445 3.34838 19.3688 3.31043 19.2463 3.31043C19.1237 3.30284 18.9093 3.32561 18.6949 3.34079C18.4345 3.36356 18.1664 3.38633 18.0362 3.37115C17.8601 3.34838 17.4388 3.15105 17.1325 2.99925C17.0329 2.95372 16.941 2.90818 16.8721 2.88541C16.6194 2.77156 15.6008 2.57423 15.5931 2.57423H15.5855C14.9957 2.20993 14.4137 1.84563 13.824 1.48132L12.6369 0.00134277C12.4607 0.06206 11.5493 0.373235 11.4268 0.616104C11.2966 0.881742 11.1817 1.52686 11.1741 1.59517C11.1817 1.67107 11.2583 2.43003 11.3196 2.7488C11.3732 3.08274 11.5034 4.09216 11.5187 4.16806L12.0778 5.57973V5.58732C12.1084 5.57214 12.1314 5.56455 12.1544 5.55696C12.3152 8.40308 12.4914 8.63077 14.452 9.54912C14.2375 11.8336 11.0745 11.7349 12.522 15.4083C13.3721 17.5866 10.0636 19.3398 14.743 20.4858C14.8426 22.1176 12.2463 26.4437 15.5548 26.7776C16.5581 26.8839 17.324 26.3146 18.0209 26.4589C19.2769 27.6352 18.4191 29.1456 21.4137 28.7661C22.6314 30.5497 24.883 29.7148 26.3841 28.7433C26.4148 28.7585 26.4684 28.7585 26.4837 28.8041L27.0887 29.1684C29.3863 30.1626 31.5614 27.9085 33.3458 27.5821C35.1073 26.5803 34.824 26.5955 35.3601 24.4931C35.7736 22.8689 37.3437 23.0966 35.7124 20.9108C34.8699 19.7876 35.3294 17.9584 35.8349 16.7896C36.7999 14.5583 36.1489 14.5507 35.7124 12.585L36.731 11.9702C37.0067 11.4314 36.7999 11.7729 37.1828 11.5983C37.6806 13.0176 39.6566 14.8846 40.6216 15.6967C40.7135 18.3759 38.5154 20.2657 38.7069 22.4287L38.7988 22.8462C38.8065 22.8765 38.8218 22.9297 38.8448 22.9752C39.1434 22.11 39.4498 21.8064 39.7638 21.184C40.0931 20.9412 39.9629 22.0948 40.0701 23.2257C40.3229 25.8289 39.3732 27.5138 38.5231 29.5175C38.2167 30.2461 37.941 30.5876 37.382 31.0582C36.7463 31.5895 36.5855 31.5591 36.08 32.3484C35.5669 33.1605 34.441 34.9365 34.2266 35.6423C34.464 35.8397 34.5483 35.9763 34.7397 36.1432L35.72 34.8834L37.5121 33.0011L38.3163 32.0676Z" fill="#090C3F"/>
<path fill-rule="evenodd" clip-rule="evenodd" d="M5.82041 32.6671C6.35651 33.0694 6.77774 33.2743 7.13003 33.8967C7.84995 34.3748 8.11034 34.9744 9.51953 35.9611C10.025 36.3178 10.4462 36.4696 10.8828 36.887C11.5491 37.5245 12.2766 37.9723 13.0578 38.2911L13.3335 38.3138C15.164 38.959 17.2777 39.0652 19.7515 39.4295C22.8456 39.8773 26.4528 40.363 29.6235 39.6117H29.6005C31.3467 39.1639 32.9397 38.3138 34.1957 36.8339C34.0731 36.4772 33.9659 36.6289 33.7591 36.1508C33.5141 36.2419 33.7132 36.166 33.4681 36.2874C32.1738 36.9401 31.699 37.1299 30.1519 36.9477C30.4123 37.2058 30.5961 37.3272 31.1475 37.4107C31.5994 37.479 32.0436 37.4562 32.4955 37.479L31.9823 37.737C28.1224 38.9969 26.2077 38.9134 21.827 38.4201C18.6716 38.0634 14.513 37.9192 11.7329 37.0312L14.1147 37.0843L15.6618 36.9477C14.8653 36.7352 15.6541 36.9932 15.2865 36.6289C14.4364 36.6669 12.4451 36.1053 11.6793 35.7941C10.4922 35.3159 7.75804 32.6216 6.71647 31.6122C6.07314 30.9898 4.90903 30.2157 4.01297 29.6009C1.67708 27.9995 3.80618 25.5253 2.14426 22.6564C1.81494 22.0872 1.37073 21.9278 1.38605 21.0702C1.41669 19.6357 2.79524 18.6567 3.36198 16.1217L3.61472 16.9945L4.1355 19.575C4.34995 19.0058 4.35761 17.0932 4.37292 16.2204C4.37292 15.3324 4.09721 14.3078 3.80618 13.5868C3.38496 12.5318 2.84885 12.4483 2.39699 11.6742C2.99437 10.217 7.93419 9.13165 9.15958 7.89454C9.41997 7.27219 9.01406 7.9249 9.37402 7.56819C9.56548 7.37844 9.47358 7.46952 9.64973 7.35568C9.84119 7.23424 10.1322 7.09763 10.3773 6.9686C10.5688 6.65743 11.1585 6.05026 11.7482 5.73149V5.69354L9.22084 6.3842C9.15192 6.49046 9.21319 6.44492 8.96045 6.68779L7.74273 7.44675C5.2843 8.69145 -1.53955 10.1031 2.07533 13.1845C2.99437 13.9663 2.69568 14.8998 2.25914 16.2507C2.23616 16.3115 2.10596 16.6606 2.09065 16.6909C2.07533 16.7213 2.05235 16.7592 2.03704 16.7972L1.70006 17.1691C1.41669 18.3607 -0.589878 19.8103 0.168328 22.0492L0.911216 23.3926C1.2099 23.6582 0.987803 23.3698 1.27883 23.8176C1.73069 24.5007 2.23616 26.6941 2.19787 27.4303C2.17489 28.0223 2.14426 28.3107 2.10596 28.5156C2.10596 28.5156 2.73397 29.4643 2.87949 29.7755C3.01734 30.0943 3.96701 30.7166 3.96701 30.7166L4.77117 31.4528L5.82041 32.6671Z" fill="#090C3F"/>
<path fill-rule="evenodd" clip-rule="evenodd" d="M10.3767 6.96856C10.0474 7.65922 9.16668 9.60976 8.80672 10.012C7.42051 11.5375 7.43583 10.5509 7.60432 13.397C8.10213 15.5828 8.85268 14.581 8.59228 19.5522C8.53101 20.7286 8.54633 21.9202 8.78375 23.0434C9.09775 24.5158 9.496 24.5386 9.96318 25.3886L8.96756 24.9864C7.29797 24.1287 6.48616 22.5501 6.1262 20.3795C5.88112 20.6679 5.81219 20.7134 5.75093 21.5255C5.71263 22.0416 5.72795 22.5122 5.682 23.0207L5.16121 21.1308C4.69403 22.5805 5.29907 25.0395 5.88878 26.0641C6.73889 27.5289 7.50476 28.6142 8.86799 29.3125C8.84502 28.7736 8.79141 27.7945 8.9599 27.2709C9.0518 26.9521 9.0518 27.028 9.09775 26.9369C10.0474 28.174 10.7214 29.3656 11.9927 30.6331C13.042 31.6804 14.3286 32.614 16.2356 33.0694C19.996 33.9649 22.9063 32.9555 25.9621 34.9592L26.8964 35.8244C25.1196 35.6954 22.263 35.7257 20.624 36.2191C21.5737 36.8718 26.1995 37.5093 27.961 37.1905C28.3209 37.1222 28.6962 37.016 28.9643 36.8186C29.2553 36.6061 29.194 36.6061 29.3166 36.4164L29.5923 35.9458C31.9435 36.2646 33.008 36.424 34.6164 33.4792C35.1984 32.4015 35.4205 31.9916 36.1787 31.2402C36.7072 30.709 37.8789 29.8438 38.5223 29.5174C39.3724 27.5137 40.322 25.8288 40.0693 23.2256C39.9621 22.0947 40.0923 20.9411 39.763 21.184C39.8855 22.5197 39.717 23.6582 39.4873 24.956C39.3877 25.5177 39.2115 25.9958 39.0507 26.5119C38.8209 27.2785 38.8056 27.5669 38.3231 27.9463L38.3155 27.2329C37.0901 28.7433 38.0321 28.599 34.4938 31.5287C33.7509 32.1358 32.9774 33.4261 31.7903 33.7752C33.1306 31.1643 32.3494 31.8854 34.8002 29.5629C35.8647 28.5459 37.2433 27.2481 37.9249 25.2976C37.136 25.9047 36.822 27.2026 34.0573 29.2745C31.1393 31.4528 29.9216 31.3541 28.9949 31.9764C29.6153 32.3256 30.5802 32.2269 31.3691 32.1738C30.4577 33.6158 27.8231 33.2894 26.1153 33.1225C24.4457 32.9631 22.0332 32.8113 20.4708 32.5077C21.2673 32.4166 22.2323 32.0827 22.7378 31.6653C19.9347 31.4755 18.5332 31.6273 16.0824 30.5192C14.6043 29.8513 12.4139 28.0981 12.077 26.6713C12.9118 27.0735 13.5474 27.8856 14.5584 28.3106L13.7772 26.7927C15.2094 27.2253 15.8527 27.0128 17.2925 27.2177C18.6174 28.5535 17.3461 29.3277 20.4938 29.7754C21.9183 29.9804 22.1711 31.4831 25.1503 30.3143C26.6514 29.7299 25.763 29.7982 27.2028 30.2384C29.3089 30.8911 32.5868 28.5232 33.345 27.582C31.5606 27.9084 29.3855 30.1625 27.0879 29.1683L26.4829 28.804C26.4676 28.7584 26.4139 28.7584 26.3833 28.7433C24.8822 29.7147 22.6306 30.5496 21.4129 28.766C18.4183 29.1455 19.2761 27.6352 18.0201 26.4588C17.3231 26.3146 16.5573 26.8838 15.554 26.7775C12.2455 26.4436 14.8417 22.1175 14.7422 20.4857C10.0627 19.3397 13.3713 17.5865 12.5212 15.4082C11.0737 11.7349 14.2367 11.8335 14.4511 9.54904C12.4905 8.63069 12.3144 8.403 12.1536 5.55688C11.449 5.76181 10.6142 6.58149 10.3767 6.96856Z" fill="#807E84"/>
<path fill-rule="evenodd" clip-rule="evenodd" d="M9.39723 28.9484C9.78016 29.3203 10.2397 29.9502 10.6762 30.4208C11.5876 31.4074 14.2375 33.3276 15.6773 33.654C18.5799 34.3067 22.5701 33.8589 24.9749 35.2554C21.7659 35.2933 17.523 35.6273 14.5821 34.7469C13.0964 34.3067 9.47381 31.3543 9.39723 28.9484ZM9.15981 7.89469C8.33268 9.18493 4.73311 10.4144 3.20138 11.5529C3.32392 12.365 4.25828 13.0101 4.61057 14.3231C4.84799 15.1732 4.94755 17.0858 4.51101 17.9282L4.37316 16.2205C4.35784 17.0933 4.35018 19.0059 4.13574 19.5752L3.61495 16.9947C3.57666 17.8675 2.70357 19.3019 2.36659 20.1444C1.57009 22.1101 2.20576 21.4877 2.94099 23.0968C4.49569 26.5273 1.83815 27.309 4.94755 29.5783C6.89285 30.9976 8.1795 31.9994 9.72655 33.6312C11.511 35.5134 12.2922 35.7715 14.72 36.4697C14.9651 36.538 15.7539 36.6063 15.2867 36.6291C15.6543 36.9934 14.8655 36.7353 15.662 36.9479L14.115 37.0845C15.4093 37.0921 17.3086 37.3729 18.6412 37.5323C20.1806 37.7068 21.6204 37.851 23.1215 38.0635C28.0767 38.7694 31.8294 37.7068 31.9826 37.7372L32.4957 37.4791C32.0438 37.4564 31.5996 37.4791 31.1478 37.4108C30.5964 37.3273 30.4125 37.2059 30.1522 36.9479C31.6992 37.13 32.174 36.9403 33.4683 36.2876C33.7134 36.1661 33.5143 36.242 33.7594 36.1509L34.2266 35.6424C34.441 34.9366 35.5668 33.1606 36.0799 32.3485C36.5854 31.5592 36.7462 31.5896 37.3819 31.0583C37.941 30.5877 38.2167 30.2462 38.5231 29.5176C37.8797 29.8439 36.708 30.7092 36.1795 31.2404C35.4213 31.9918 35.1992 32.4017 34.6171 33.4794C33.0088 36.4242 31.9443 36.2648 29.5931 35.946L29.3174 36.4166C29.1948 36.6063 29.2561 36.6063 28.9651 36.8188C28.697 37.0162 28.3217 37.1224 27.9618 37.1907C26.2003 37.5095 21.5745 36.872 20.6248 36.2193C22.2637 35.7259 25.1204 35.6956 26.8972 35.8246L25.9629 34.9594C22.9071 32.9557 19.9968 33.9651 16.2364 33.0695C14.3294 32.6142 13.0427 31.6806 11.9935 30.6333C10.7222 29.3658 10.0482 28.1742 9.09854 26.9371C9.05259 27.0282 9.05259 26.9523 8.96068 27.2711C8.79219 27.7947 8.8458 28.7738 8.86878 29.3127C7.50554 28.6144 6.73968 27.5291 5.88957 26.0643C5.29985 25.0397 4.69482 22.5807 5.162 21.131L5.68278 23.0209C5.72874 22.5123 5.71342 22.0418 5.75171 21.5257C5.81298 20.7136 5.88191 20.6681 6.12699 20.3797C6.48694 22.5503 7.29876 24.1289 8.96834 24.9866C8.72327 24.5464 8.68497 24.5919 8.45521 24.2731C6.02742 20.8806 8.11057 18.2318 6.80861 14.5508C6.50992 13.7159 5.82064 12.1752 6.19591 11.4011C6.67075 12.0614 7.03836 12.919 7.6051 13.3972C7.43661 10.5511 7.4213 11.5377 8.80751 10.0122C9.16747 9.60995 10.0482 7.65941 10.3775 6.96875C10.1325 7.09777 9.84143 7.23439 9.64996 7.35582C9.47381 7.46967 9.56572 7.37859 9.37425 7.56833C9.01429 7.92505 9.4202 7.27234 9.15981 7.89469Z" fill="#555A5B"/>
<path fill-rule="evenodd" clip-rule="evenodd" d="M34.4718 12.8962C34.3875 11.9551 33.7825 11.4163 33.637 10.3309C33.9127 10.4827 34.1042 10.6952 34.3646 10.885C34.6786 11.0975 34.7551 11.2037 35.0921 11.4542C35.2759 10.8167 35.3372 11.0292 35.4674 10.0805C35.4214 10.0653 35.1228 9.95145 35.0309 9.89832C34.7092 9.70099 34.9313 9.86797 34.7015 9.63269L35.4214 9.53402C35.6282 9.05587 36.0341 8.91167 36.3711 8.38798C36.9379 7.51517 36.9302 6.59683 37.3361 5.0789C37.4663 4.57039 37.5046 3.87214 37.7344 3.44712C37.765 3.21943 37.8416 3.43953 37.719 3.06764C37.5659 2.60467 37.6961 2.83236 37.5352 2.99933C37.2902 4.03912 37.0527 4.09983 36.5932 4.82085C36.1184 5.55705 35.881 6.08832 36.1414 7.1281C35.1381 7.00667 35.8197 7.09015 35.5593 6.87764C35.2759 6.39191 35.0462 6.36914 34.4641 6.2477H33.6829L33.2464 6.85488C31.8755 5.49633 32.2508 7.75045 32.1053 8.46388L31.9827 8.87372L31.7912 8.61567C31.0943 8.36522 31.3241 8.18306 30.8339 7.71251C29.5013 6.42986 28.812 6.88523 28.1993 6.908C27.6786 6.93077 27.2267 6.74862 26.6906 6.67272C23.4969 6.21734 25.1282 6.73344 22.4171 5.40525C21.8886 5.1472 21.8886 4.98782 21.1993 4.93469C21.6665 5.86822 21.5976 5.89099 21.3525 6.99908C21.1993 7.67456 21.2147 8.24378 20.6862 8.69157L20.4411 8.03886C20.265 7.96296 19.9433 8.12994 19.7825 6.97631C19.5987 5.63294 19.4838 5.86063 18.1206 5.9593C17.5845 5.99725 17.4619 5.96689 17.1709 5.76956L16.1446 5.61017L16.9335 5.04095C17.2169 4.83603 17.3547 4.70701 17.6764 4.47932C16.8263 4.38065 14.881 4.03153 14.5516 3.18149L13.6709 2.62744C13.7398 3.37123 14.0845 3.13595 15.0877 4.53244C15.6775 5.35971 15.6009 5.96689 16.7267 6.38432C18.8481 7.18123 17.5615 6.58924 18.2201 8.39557C18.6107 9.48089 19.346 9.46571 20.0812 10.0349C20.4258 10.6118 20.3952 11.1734 21.0538 11.6591C21.8656 12.2511 22.1414 11.9248 23.0068 12.0158C24.7223 12.1904 24.0254 13.5489 26.9969 12.2663C27.1042 12.4484 27.2497 12.7293 27.4028 12.8962C28.3066 12.8886 27.8547 12.494 28.9116 13.2529C30.7037 14.5356 31.6917 13.2833 32.4269 13.3972C33.2847 13.5186 33.4149 13.9436 34.4105 13.5338L34.4718 12.8962Z" fill="#B2B2B2"/>
<path fill-rule="evenodd" clip-rule="evenodd" d="M33.3452 27.5821C32.587 28.5232 29.3091 30.8912 27.203 30.2385C25.7631 29.7983 26.6515 29.73 25.1505 30.3144C22.1712 31.4832 21.9185 29.9804 20.494 29.7755C17.3463 29.3277 18.6176 28.5536 17.2927 27.2178C15.8529 27.0129 15.2095 27.2254 13.7774 26.7928L14.5585 28.3107C13.5476 27.8857 12.9119 27.0736 12.0771 26.6714C12.4141 28.0982 14.6045 29.8514 16.0826 30.5193C18.5334 31.6274 19.9349 31.4756 22.738 31.6653C22.2325 32.0828 21.2675 32.4167 20.471 32.5078C22.0334 32.8114 24.4459 32.9632 26.1154 33.1226C27.8233 33.2895 30.4579 33.6159 31.3693 32.1739C30.5804 32.227 29.6154 32.3256 28.9951 31.9765C29.9218 31.3542 31.1395 31.4528 34.0575 29.2746C36.8222 27.2026 37.1362 25.9048 37.9251 25.2976C37.971 25.1079 37.9557 25.0851 38.0553 24.9106C38.2697 24.5159 38.1625 24.6981 38.3616 24.4855C38.5684 25.8289 38.4305 26.0111 38.3157 27.233L38.3233 27.9464C38.8058 27.5669 38.8211 27.2785 39.0509 26.512C39.2117 25.9959 39.3879 25.5177 39.4874 24.9561C39.7172 23.6583 39.8857 22.5198 39.7631 21.184C39.4491 21.8064 39.1428 22.11 38.8441 22.9752C38.1931 22.702 38.5301 20.4175 38.7292 19.7648C38.9666 18.983 39.8474 17.7459 39.9316 16.9642C40.1001 15.3856 36.9754 14.3002 36.7303 11.9702L35.7117 12.585C36.1483 14.5507 36.7992 14.5583 35.8343 16.7896C35.3288 17.9584 34.8693 19.7876 35.7117 20.9108C37.343 23.0966 35.773 22.8689 35.3594 24.4931C34.8233 26.5955 35.1067 26.5803 33.3452 27.5821Z" fill="#B2B2B2"/>
<path fill-rule="evenodd" clip-rule="evenodd" d="M16.5039 14.6646C17.2544 11.9095 23.6724 15.3932 24.3846 15.6209C25.5258 15.9852 26.0312 14.953 26.552 14.5507C26.1002 17.0781 25.4185 16.0762 24.6986 17.2754C22.8988 20.2505 17.1242 19.2715 17.5148 14.5128L16.5039 14.6646ZM13.6702 6.29319C13.9918 8.0388 14.6964 7.73522 16.0444 8.41829C16.9634 8.88884 17.6757 10.0652 17.9054 11.0215H17.9514C17.7829 11.2416 18.0892 11.4541 17.1932 11.1126C17.1013 11.0747 16.6647 10.809 16.5958 10.7711C16.1056 10.4371 16.0597 10.2474 15.5159 9.95898C15.6461 13.3136 11.9776 12.9341 15.0641 15.9093C15.1177 16.4481 15.1177 16.0611 14.9339 16.2053L15.0641 16.6455C14.7424 16.4861 14.4973 16.3571 13.9612 16.3419L13.8234 18.4973C14.9109 18.892 18.5104 19.1652 18.4262 20.9336C18.3802 21.8747 18.5104 21.093 18.2194 21.4194C17.7829 23.9088 20.9229 24.0378 21.8956 21.5028L22.3704 20.6376C22.1023 20.4251 22.8529 20.4631 21.9109 20.4631C21.8343 21.5787 20.8463 22.535 19.9503 21.981C19.7665 22.4288 19.8048 22.5047 19.2916 22.5047C18.7555 21.647 19.3835 20.0684 18.4185 19.4081C17.4612 18.7554 16.2588 19.3398 15.7916 18.0344L16.3048 17.6397C16.3277 17.6245 16.3737 17.6093 16.3967 17.5866C16.1592 17.154 16.1286 16.5164 16.2971 16.0687C17.691 15.8637 17.1319 17.116 18.4875 18.2621C18.5258 18.2924 18.6406 18.3835 18.6713 18.4139C18.7096 18.4366 18.7479 18.467 18.7785 18.4897L18.9853 18.6643L20.226 19.0514C21.3748 19.0969 24.0323 19.4688 24.9667 17.7839C24.9514 18.3531 24.6067 18.7554 24.4689 19.188C25.4798 18.6188 25.9776 16.5772 27.2796 17.1008C28.0991 17.4576 27.7468 18.4518 28.9109 19.4916C28.6888 18.9755 28.6964 18.8996 28.8726 18.5808C30.2511 21.8596 33.7511 19.2943 34.203 19.2032L34.0269 18.8085C33.3069 19.4688 31.2621 20.6604 29.8759 19.4233C29.1177 18.7478 29.2249 18.5353 28.7194 17.5486C28.4897 17.1084 27.854 16.7138 28.1833 15.4842C28.5509 15.2945 28.0072 15.2414 28.4514 15.5374C29.1866 16.0383 28.8496 17.1236 31.04 16.2888C33.3069 15.4235 33.0925 15.4918 34.6395 16.2129L34.9306 14.915C33.843 15.34 33.7588 14.9074 32.9087 14.7253C31.4765 14.4217 30.0827 16.82 28.0608 14.1636C27.0269 14.9985 26.9579 14.1788 26.5367 13.435C25.3113 14.361 23.1439 14.0878 21.6581 13.3364C20.5017 12.7444 20.3179 13.1163 19.0619 12.8886C17.3693 12.585 17.691 12.9569 16.4579 13.0176C16.4043 12.3573 16.5498 12.0841 16.9021 11.6287C17.8824 11.6515 18.7632 11.7653 19.3912 11.1354C17.4995 10.0121 17.5148 7.62896 17.1319 7.36333C16.2511 7.15082 15.8069 7.40127 14.9645 6.97625C15.3857 6.78651 15.3934 6.96866 15.8223 6.67267C14.842 5.70119 14.9109 4.965 14.1833 4.05424C12.4295 1.85324 13.517 3.17384 12.4678 1.60278C12.4907 2.71087 12.598 3.33322 13.0039 4.27434C13.2566 4.84356 13.6855 5.85299 14.0608 6.21729C13.8999 6.37667 14.459 6.44498 13.6702 6.29319Z" fill="#555A5B"/>
<path fill-rule="evenodd" clip-rule="evenodd" d="M12.4683 1.60285C13.5175 3.1739 12.43 1.8533 14.1838 4.0543C14.9114 4.96506 14.8424 5.70126 15.8227 6.67273C15.3939 6.96873 15.3862 6.78657 14.965 6.97632C15.8074 7.40134 16.2516 7.15088 17.1324 7.36339C17.5153 7.62903 17.5 10.0122 19.3917 11.1354C18.7637 11.7654 17.8829 11.6515 16.9026 11.6288C16.5503 12.0841 16.4048 12.3574 16.4584 13.0177C17.6914 12.957 17.3698 12.5851 19.0623 12.8887C20.3184 13.1163 20.5022 12.7444 21.6586 13.3364C23.1444 14.0878 25.3118 14.361 26.5372 13.4351C26.9584 14.1789 27.0273 14.9986 28.0612 14.1637C30.0831 16.8201 31.477 14.4218 32.9092 14.7253C33.7593 14.9075 33.8435 15.3401 34.9311 14.9151C34.9157 14.2927 34.7626 13.3364 34.4715 12.8962L34.4103 13.5338C33.4146 13.9436 33.2844 13.5186 32.4267 13.3972C31.6914 13.2833 30.7035 14.5356 28.9114 13.253C27.8545 12.494 28.3063 12.8887 27.4026 12.8962C27.2494 12.7293 27.1039 12.4485 26.9967 12.2663C24.0251 13.549 24.7221 12.1904 23.0065 12.0158C22.1411 11.9248 21.8654 12.2511 21.0536 11.6591C20.3949 11.1734 20.4256 10.6118 20.0809 10.0349C19.3457 9.46572 18.6105 9.4809 18.2199 8.39558C17.5612 6.58924 18.8479 7.18124 16.7265 6.38432C15.6006 5.96689 15.6772 5.35972 15.0875 4.53245C14.0842 3.13595 13.7396 3.37123 13.6707 2.62745C13.2801 2.17207 12.8895 1.91402 12.6214 1.32962C12.43 1.51936 12.43 1.05639 12.4683 1.60285Z" fill="#7E7D82"/>
<path fill-rule="evenodd" clip-rule="evenodd" d="M28.1143 25.4418C29.6231 25.586 29.8452 25.3204 30.8178 24.7967C31.1931 25.0168 30.8025 24.7967 31.1165 25.0016C31.1548 25.0244 31.2697 25.1003 31.308 25.123L32.6942 25.5708C32.7172 25.5405 32.7708 25.5936 32.8091 25.6164C32.1122 26.1704 31.3386 25.9275 30.4043 26.5651C29.6537 27.0812 29.2478 27.4834 28.0607 27.4303L28.1143 25.4418ZM21.0071 25.2824C22.8682 24.5311 21.3364 24.9864 23.3124 25.4722C25.3266 25.9655 25.7095 24.9788 26.6745 24.5083C26.6745 25.8213 25.9163 26.7624 25.3036 26.8307C24.7139 26.8914 25.7938 26.6941 24.9283 26.7928C24.6373 26.8307 24.2774 27.0356 23.8944 27.0736C23.2664 27.1267 23.3277 26.9521 23.052 26.8459L22.8835 26.7852C21.727 26.6334 21.8036 27.8705 20.1494 25.6164L21.0071 25.2824ZM20.8693 27.9312L23.6647 27.8022L22.2938 28.4625C23.4809 28.7585 24.8747 28.212 25.6712 27.6504C26.5367 27.0356 26.8813 25.9807 27.5323 25.5329C27.5629 26.0869 27.6165 26.7928 27.471 27.3013C27.3102 27.8401 26.9579 28.0451 26.7358 28.4701C28.3901 28.9255 29.8222 27.8857 30.7872 27.2557C32.5946 26.0642 33.6975 26.4209 33.8813 25.0244C32.7095 25.2293 31.8824 25.2217 31.0399 24.3261C30.9174 24.1971 30.9787 24.5462 30.8868 24.1592C30.8791 24.106 30.8408 24.0984 30.8178 24.0757C29.6384 25.0016 28.3288 25.753 26.9043 24.1819L26.5367 23.7645C26.0235 24.3944 25.2883 25.1458 24.0859 25.0471C22.8988 24.9485 22.5312 24.1288 21.9491 23.6582C21.1909 24.4855 19.3146 25.2445 18.1198 24.106C16.703 22.7551 18.4108 20.9108 15.9448 20.7286C15.9754 21.7836 15.5159 24.4931 15.7763 25.0547C17.0936 25.2369 17.8441 24.2275 19.1614 25.3431C20.1494 26.178 19.2533 26.2008 20.8693 27.9312Z" fill="#555A5B"/>
<path fill-rule="evenodd" clip-rule="evenodd" d="M22.7001 19.8558C23.9408 18.8084 23.4889 20.4478 25.1355 19.2259C25.8172 18.725 26.2614 17.7762 26.9966 17.5258C28.0382 18.0798 27.7318 19.0741 29.0108 19.9924C30.0983 20.7666 29.3478 19.4156 30.0447 20.4554C30.5579 21.2219 30.1443 21.5787 29.746 21.9885C29.0797 21.9885 29.2789 21.5787 28.5666 21.8139C27.9616 22.0189 28.1301 21.7153 27.548 20.8197C27.257 20.3719 27.0655 20.334 26.7362 19.8786C26.2231 20.3491 26.3609 20.9487 25.3193 21.943L24.339 21.7077C23.6727 21.5104 23.9102 21.6394 23.5885 21.2599C23.2209 20.8349 22.7843 20.3036 22.7001 19.8558ZM22.3708 20.6375C23.0677 21.1385 23.374 21.776 23.5808 22.8234C24.3237 22.6716 23.78 22.9372 24.3314 22.3756C24.2471 22.8234 24.3467 22.7323 24.699 22.9448L25.5721 22.5881C26.1465 22.1327 26.3073 21.2903 26.7515 20.5996L26.92 21.055C27.5097 21.609 27.4638 22.1707 28.0611 22.7019C28.3675 22.6943 28.6049 22.5805 28.7811 22.5577C29.8762 22.4059 29.3631 23.3774 30.6421 21.8291C30.7723 21.5862 30.7034 21.5862 30.78 21.3661C30.7876 21.3282 30.8029 21.2827 30.8183 21.2447L30.9791 20.8652C32.327 21.5255 32.059 21.5635 32.4725 23.0207C33.246 23.0435 32.9167 23.1042 33.5677 22.2162C34.2417 22.7247 34.9692 23.0055 35.0075 21.905C34.9846 21.442 35.1071 21.609 34.7548 21.2447C34.7625 21.6394 34.7318 21.7001 34.594 21.943C33.8664 22.0872 33.8587 21.9354 33.5754 21.5179L32.955 22.239C32.2657 21.6925 32.7406 21.2219 31.5535 20.759C32.0207 20.4706 32.4112 20.5237 32.9627 20.334C33.5447 20.1366 33.897 19.8406 34.2493 19.575L34.2034 19.2031C33.7515 19.2942 30.2515 21.8595 28.873 18.5807C28.6968 18.8995 28.6891 18.9754 28.9112 19.4915C27.7471 18.4517 28.0994 17.4575 27.28 17.1008C25.978 16.5771 25.4802 18.6187 24.4692 19.1879C24.6071 18.7553 24.9517 18.3531 24.967 17.7838C24.0327 19.4687 21.3751 19.0968 20.2263 19.0513C20.5021 19.2942 20.0042 19.0589 20.6552 19.3018C21.0765 19.4611 21.2143 19.3321 21.7428 19.6054C21.827 20.463 21.4824 20.9867 21.0305 21.4269C20.6323 21.2903 20.7242 21.3661 20.571 20.9639C20.3259 21.184 20.2034 21.3434 19.6979 21.351C19.3992 19.5522 19.8204 19.9317 18.618 18.7022L18.9856 18.6642L18.7789 18.4897C18.7482 18.4669 18.7099 18.4365 18.6716 18.4138C18.641 18.3834 18.5261 18.2923 18.4878 18.262C17.1323 17.1159 17.6913 15.8637 16.2975 16.0686C16.129 16.5164 16.1596 17.1539 16.397 17.5865C16.374 17.6093 16.3281 17.6245 16.3051 17.6396L15.792 18.0343C16.2592 19.3397 17.4616 18.7553 18.4189 19.408C19.3839 20.0683 18.7559 21.647 19.292 22.5046C19.8051 22.5046 19.7668 22.4287 19.9506 21.9809C20.8467 22.535 21.8347 21.5787 21.9112 20.463C22.8533 20.463 22.1027 20.425 22.3708 20.6375Z" fill="#7E7D82"/>
<path fill-rule="evenodd" clip-rule="evenodd" d="M18.005 14.6268C20.1571 15.0366 21.9952 16.1523 23.9711 16.7822C23.5805 17.3059 22.9295 17.5412 22.2479 17.5867C21.6199 17.6323 20.7162 17.4501 20.1418 17.2604C19.0159 16.8961 18.1199 15.1808 18.005 14.6268ZM16.5039 14.6647L17.5148 14.5129C17.1243 19.2716 22.8989 20.2507 24.6987 17.2755C25.4186 16.0764 26.1002 17.0782 26.552 14.5509C26.0313 14.9531 25.5258 15.9853 24.3847 15.621C23.6724 15.3933 17.2545 11.9097 16.5039 14.6647Z" fill="#090C3F"/>
<path fill-rule="evenodd" clip-rule="evenodd" d="M10.6755 30.4206C10.2389 29.9501 9.77942 29.3201 9.39648 28.9482C9.47307 31.3542 13.0956 34.3065 14.5814 34.7467C17.5223 35.6271 21.7652 35.2932 24.9742 35.2552C22.5694 33.8587 18.5792 34.3065 15.6766 33.6538C14.2367 33.3275 11.5869 31.4073 10.6755 30.4206Z" fill="#0C0B3C"/>
<path fill-rule="evenodd" clip-rule="evenodd" d="M22.7002 19.856C22.7844 20.3038 23.221 20.835 23.5886 21.26C23.9103 21.6395 23.6728 21.5105 24.3391 21.7078L25.3195 21.9431C26.361 20.9489 26.2232 20.3493 26.7363 19.8787C27.0656 20.3341 27.2571 20.3721 27.5481 20.8198C28.1302 21.7154 27.9617 22.019 28.5667 21.8141C29.279 21.5788 29.0798 21.9887 29.7461 21.9887C30.1444 21.5788 30.558 21.2221 30.0448 20.4555C29.3479 19.4158 30.0984 20.7667 29.0109 19.9926C27.7319 19.0742 28.0383 18.08 26.9967 17.5259C26.2615 17.7764 25.8173 18.7251 25.1356 19.226C23.489 20.448 23.9409 18.8086 22.7002 19.856Z" fill="#B2B0B0"/>
<path fill-rule="evenodd" clip-rule="evenodd" d="M8.96748 24.9863L9.96311 25.3886C9.49593 24.5386 9.09768 24.5158 8.78368 23.0434C8.54626 21.9201 8.53094 20.7286 8.59221 19.5522C8.8526 14.5809 8.10206 15.5828 7.60424 13.397C7.0375 12.9188 6.66989 12.0612 6.19505 11.4009C5.81978 12.175 6.50906 13.7157 6.80775 14.5506C8.10971 18.2316 6.02656 20.8803 8.45435 24.2729C8.68411 24.5917 8.72241 24.5461 8.96748 24.9863Z" fill="#0C0B3C"/>
<path fill-rule="evenodd" clip-rule="evenodd" d="M15.2863 36.6289C15.7535 36.6061 14.9647 36.5378 14.7196 36.4695C12.2918 35.7712 11.5106 35.5132 9.72615 33.631C8.1791 31.9992 6.89245 30.9974 4.94715 29.5781C1.83774 27.3088 4.49529 26.527 2.94059 23.0965C2.20536 21.4875 1.56969 22.1099 2.36619 20.1442C2.70317 19.3017 3.57626 17.8673 3.61455 16.9945L3.36181 16.1216C2.79507 18.6566 1.41652 19.6356 1.38588 21.0701C1.37057 21.9277 1.81477 22.0871 2.14409 22.6563C3.80602 25.5252 1.67691 27.9994 4.0128 29.6009C4.90886 30.2156 6.07297 30.9898 6.7163 31.6121C7.75788 32.6215 10.492 35.3159 11.6791 35.794C12.445 36.1052 14.4362 36.6668 15.2863 36.6289Z" fill="#28EBF7"/>
<path fill-rule="evenodd" clip-rule="evenodd" d="M37.9256 25.2974C37.244 27.248 35.8654 28.5458 34.8009 29.5628C32.3501 31.8853 33.1313 31.1642 31.791 33.7751C32.9781 33.426 33.7516 32.1357 34.4945 31.5285C38.0328 28.5989 37.0908 28.7431 38.3162 27.2328C38.4311 26.0109 38.5689 25.8287 38.3621 24.4854C38.163 24.6979 38.2702 24.5157 38.0558 24.9104C37.9562 25.0849 37.9715 25.1077 37.9256 25.2974Z" fill="#090B3E"/>
<path fill-rule="evenodd" clip-rule="evenodd" d="M20.1494 25.6165C21.8037 27.8706 21.7271 26.6335 22.8835 26.7853L23.052 26.846C23.3278 26.9522 23.2665 27.1268 23.8945 27.0737C24.2774 27.0357 24.6374 26.8308 24.9284 26.7928C25.7938 26.6942 24.714 26.8915 25.3037 26.8308C25.9164 26.7625 26.6746 25.8214 26.6746 24.5084C25.7096 24.9789 25.3267 25.9656 23.3124 25.4722C21.3365 24.9865 22.8682 24.5311 21.0072 25.2825L20.1494 25.6165Z" fill="#7E7D82"/>
<path fill-rule="evenodd" clip-rule="evenodd" d="M18.0049 14.6265C18.1198 15.1806 19.0158 16.8958 20.1416 17.2601C20.716 17.4499 21.6198 17.632 22.2478 17.5865C22.9294 17.541 23.5804 17.3057 23.971 16.782C21.995 16.152 20.157 15.0364 18.0049 14.6265Z" fill="#05FCFC"/>
<path fill-rule="evenodd" clip-rule="evenodd" d="M36.7307 11.9702C36.9758 14.3002 40.1005 15.3855 39.932 16.9641C39.8478 17.7459 38.967 18.983 38.7296 19.7647C38.5305 20.4174 38.1935 22.7019 38.8445 22.9751C38.8215 22.9296 38.8062 22.8765 38.7985 22.8461L38.7066 22.4287C38.5152 20.2656 40.7132 18.3758 40.6213 15.6967C39.6563 14.8846 37.6804 13.0175 37.1826 11.5983C36.7996 11.7728 37.0064 11.4313 36.7307 11.9702Z" fill="#28EBF7"/>
<path fill-rule="evenodd" clip-rule="evenodd" d="M28.1151 25.4419L28.0615 27.4304C29.2486 27.4835 29.6545 27.0812 30.4051 26.5651C31.3394 25.9276 32.1129 26.1705 32.8099 25.6164C32.7716 25.5937 32.718 25.5405 32.695 25.5709L31.3088 25.1231C31.2705 25.1003 31.1556 25.0244 31.1173 25.0017C30.8033 24.7968 31.1939 25.0169 30.8186 24.7968C29.846 25.3204 29.6239 25.5861 28.1151 25.4419Z" fill="#7E7D82"/>
<path fill-rule="evenodd" clip-rule="evenodd" d="M4.37266 16.2204L4.51051 17.928C4.94706 17.0856 4.84749 15.173 4.61008 14.323C4.25778 13.01 3.32342 12.3648 3.20089 11.5527C4.73261 10.4143 8.33218 9.18477 9.15931 7.89453C7.93393 9.13164 2.9941 10.217 2.39673 11.6742C2.84859 12.4483 3.38469 12.5318 3.80592 13.5868C4.09695 14.3078 4.37266 15.3324 4.37266 16.2204Z" fill="#2FECED"/>
<path fill-rule="evenodd" clip-rule="evenodd" d="M21.1985 4.93469C21.8878 4.98782 21.8878 5.1472 22.4162 5.40525C25.1274 6.73344 23.4961 6.21734 26.6897 6.67272C27.2258 6.74862 27.6777 6.93077 28.1985 6.908C28.8112 6.88523 29.5005 6.42985 30.8331 7.7125C31.3232 8.18306 31.0935 8.36521 31.7904 8.61567C30.4578 6.55129 30.0978 6.18698 26.9961 6.06555C25.7784 6.02001 24.8363 6.03519 23.8024 5.59499C23.3582 5.39766 21.4053 4.29716 21.1985 4.93469Z" fill="#2FECED"/>
<path fill-rule="evenodd" clip-rule="evenodd" d="M20.2265 19.0516L18.9858 18.6646L18.6182 18.7025C19.8206 19.932 19.3993 19.5525 19.698 21.3513C20.2035 21.3437 20.326 21.1843 20.5711 20.9642C20.7243 21.3665 20.6324 21.2906 21.0306 21.4272C21.4825 20.987 21.8271 20.4633 21.7429 19.6057C21.2144 19.3324 21.0766 19.4615 20.6554 19.3021C20.0044 19.0592 20.5022 19.2945 20.2265 19.0516Z" fill="#B2B0B0"/>
<path fill-rule="evenodd" clip-rule="evenodd" d="M34.754 21.2449C34.6698 20.3645 34.5243 20.2203 34.2486 19.5752C33.8963 19.8408 33.544 20.1368 32.9619 20.3342C32.4105 20.5239 32.0199 20.4708 31.5527 20.7592C32.7398 21.2221 32.265 21.6927 32.9543 22.2392L33.5746 21.5181C33.858 21.9356 33.8656 22.0874 34.5932 21.9432C34.7311 21.7003 34.7617 21.6396 34.754 21.2449Z" fill="#B2B0B0"/>
<path fill-rule="evenodd" clip-rule="evenodd" d="M35.0079 21.905C34.9696 23.0055 34.2421 22.7247 33.5681 22.2162C32.9171 23.1042 33.2465 23.0435 32.4729 23.0207C32.0594 21.5635 32.3274 21.5255 30.9795 20.8652C31.6381 21.7153 31.6994 22.239 31.2858 23.4913C33.2847 24.5234 35.8963 22.5805 35.0079 21.905Z" fill="#555A5B"/>
<path fill-rule="evenodd" clip-rule="evenodd" d="M20.8689 27.9314C19.2529 26.2009 20.149 26.1782 19.161 25.3433C17.8438 24.2276 17.0932 25.2371 15.7759 25.0549C15.5155 24.4933 15.975 21.7838 15.9444 20.7288L15.4849 20.6226C15.4926 21.7458 15.5232 22.0191 15.3011 23.1271C14.3974 27.6506 17.2234 24.0379 18.9007 25.4572C19.858 26.2693 19.207 27.4532 20.8689 27.9314Z" fill="#2FCBD5"/>
<path fill-rule="evenodd" clip-rule="evenodd" d="M30.6418 21.8293C29.3628 23.3775 29.8759 22.4061 28.7807 22.5579C28.6046 22.5806 28.3672 22.6945 28.0608 22.7021C27.4634 22.1708 27.5094 21.6092 26.9197 21.0551C27.1801 22.3074 27.0499 22.2391 26.7742 23.3927C27.6013 23.5142 28.4361 23.9847 29.2326 23.5901C29.8683 23.2713 30.4044 22.6034 30.6418 21.8293Z" fill="#555A5B"/>
<path fill-rule="evenodd" clip-rule="evenodd" d="M25.5724 22.5882L24.6993 22.9449C24.347 22.7324 24.2475 22.8235 24.3317 22.3757C23.7803 22.9374 24.324 22.6717 23.5812 22.8235C23.3744 21.7761 23.068 21.1386 22.3711 20.6377C22.5626 21.5105 22.8306 22.0266 22.417 23.036C23.6807 24.0151 24.998 24.0682 25.5724 22.5882Z" fill="#595A5C"/>
<path fill-rule="evenodd" clip-rule="evenodd" d="M30.1064 18.0039C31.9522 19.499 33.6983 17.7155 33.9128 16.9793C33.2159 16.6605 32.6491 17.0931 31.9981 17.3891C31.3395 17.6851 30.6349 17.7762 30.1064 18.0039Z" fill="#17F6FA"/>
<path fill-rule="evenodd" clip-rule="evenodd" d="M35.4209 9.53416C36.6156 9.18504 37.0522 8.49438 37.3968 7.28004C37.7108 6.19472 38.0784 4.54017 37.7338 3.44727C37.504 3.87229 37.4658 4.57053 37.3356 5.07904C36.9297 6.59697 36.9373 7.51532 36.3706 8.38812C36.0336 8.91181 35.6277 9.05601 35.4209 9.53416Z" fill="#2FECED"/>
<path fill-rule="evenodd" clip-rule="evenodd" d="M18.2193 21.4193C18.5104 21.0929 18.3802 21.8747 18.4261 20.9336C18.5104 19.1652 14.9108 18.8919 13.8233 18.4973L13.9611 16.3418L13.5859 16.1824L13.448 18.5959C15.1099 19.7951 18.227 18.8388 18.2193 21.4193Z" fill="#51CED6"/>
<path fill-rule="evenodd" clip-rule="evenodd" d="M14.9345 16.2052C15.1183 16.061 15.1183 16.448 15.0647 15.9092C11.9783 12.934 15.6468 13.3135 15.5166 9.95889L15.0264 9.70844C15.4323 11.4996 14.2835 12.0764 13.6785 13.1769C12.7518 14.8466 14.3678 15.2337 14.9345 16.2052Z" fill="#2FD8EE"/>
<path fill-rule="evenodd" clip-rule="evenodd" d="M35.5584 6.87758C35.8188 7.09009 35.1372 7.0066 36.1405 7.12804C35.8801 6.08825 36.1175 5.55698 36.5923 4.82078C37.0518 4.09977 37.2893 4.03905 37.5343 2.99927C36.6459 3.76582 36.5311 4.30469 34.8079 4.84355C34.984 5.04847 35.344 5.36724 35.5354 5.62529C35.5814 5.69359 35.7805 6.04272 35.7958 6.14897C36.0179 7.41644 35.8724 6.62712 35.5584 6.87758Z" fill="#7D8185"/>
<path fill-rule="evenodd" clip-rule="evenodd" d="M32.1046 8.46384C32.2501 7.75041 31.8749 5.49629 33.2458 6.85483L33.6823 6.24766H34.4635C33.5138 5.23824 32.4263 6.05792 31.4307 6.38428L31.9515 8.16025C32.051 8.47902 31.9744 8.28928 32.1046 8.46384Z" fill="#7D8185"/>
<path fill-rule="evenodd" clip-rule="evenodd" d="M17.1711 5.76954C17.4622 5.96687 17.5847 5.99723 18.1208 5.95928C19.4841 5.86061 19.5989 5.63293 19.7827 6.97629C19.9436 8.12992 20.2652 7.96295 20.4414 8.03884C20.1657 7.1888 20.2806 6.81691 20.2269 5.92892C18.8714 4.88155 18.7948 5.48872 17.1711 5.76954Z" fill="#2FECED"/>
<path fill-rule="evenodd" clip-rule="evenodd" d="M17.951 11.0215H17.905C17.6753 10.0652 16.963 8.88881 16.044 8.41825C14.696 7.73518 13.9915 8.03877 13.6698 6.29315L13.2256 5.98956C13.7617 8.35753 13.8 7.66687 15.6381 8.5245C17.0549 9.19239 17.1851 10.6268 17.951 11.0215Z" fill="#51CED6"/>
<path fill-rule="evenodd" clip-rule="evenodd" d="M17.6762 4.47923L18.0668 4.21359C17.3469 3.6899 15.5548 3.49257 14.5515 3.1814C14.8808 4.03144 16.8261 4.38056 17.6762 4.47923Z" fill="#2FECED"/>
<path fill-rule="evenodd" clip-rule="evenodd" d="M35.0918 11.4541L35.2297 11.8564C35.3675 11.7273 35.3369 11.7881 35.4824 11.5983L35.8194 11.0215C36.0568 10.6117 36.0721 10.5813 36.187 10.1107L35.4671 10.0804C35.3369 11.0291 35.2756 10.8166 35.0918 11.4541Z" fill="#2FECED"/>
<path fill-rule="evenodd" clip-rule="evenodd" d="M11.3652 36.8263L12.0469 37.4942L24.2777 39.255L30.6267 38.5871L32.7788 37.4335L30.1136 37.6232L17.5304 37.0084L11.909 36.629L11.3652 36.8263Z" fill="#28EBF7"/>
<path fill-rule="evenodd" clip-rule="evenodd" d="M12.4683 1.60285C12.43 1.05639 12.43 1.51936 12.6214 1.32962C12.8895 1.91402 13.2801 2.17207 13.6707 2.62745L14.5514 3.18149C15.5547 3.49267 17.3468 3.69 18.0667 4.21368L17.6761 4.47932C17.3545 4.70701 17.2166 4.83604 16.9332 5.04096L16.1444 5.61018L17.1707 5.76956C18.7943 5.48875 18.8709 4.88157 20.2265 5.92894C20.2801 6.81693 20.1652 7.18883 20.4409 8.03887L20.686 8.69158C21.2144 8.24379 21.1991 7.67456 21.3523 6.99908C21.5974 5.891 21.6663 5.86823 21.1991 4.9347C21.4059 4.29717 23.3588 5.39767 23.803 5.595C24.837 6.0352 25.779 6.02002 26.9967 6.06556C30.0984 6.18699 30.4584 6.5513 31.791 8.61568L31.9825 8.87373L32.105 8.46389C31.9748 8.28932 32.0514 8.47907 31.9518 8.1603L31.4311 6.38432C32.4267 6.05797 33.5142 5.23829 34.4639 6.24771C35.0459 6.36914 35.2757 6.39191 35.5591 6.87765C35.8731 6.62719 36.0186 7.41652 35.7965 6.14904C35.7812 6.04279 35.582 5.69367 35.5361 5.62536C35.3446 5.36731 34.9847 5.04855 34.8085 4.84363C36.5317 4.30476 36.6466 3.7659 37.535 2.99934C37.6958 2.83237 37.5656 2.60468 37.7188 3.06765C37.8413 3.43954 37.7648 3.21944 37.7341 3.44713C38.0788 4.54004 37.7111 6.19458 37.3971 7.2799C37.0525 8.49425 36.616 9.1849 35.4212 9.53403L34.7013 9.63269C34.9311 9.86797 34.709 9.701 35.0306 9.89833C35.1225 9.95146 35.4212 10.0653 35.4672 10.0805L36.1871 10.1108C36.0722 10.5814 36.0569 10.6118 35.8195 11.0216L35.4825 11.5984C35.337 11.7882 35.3676 11.7274 35.2297 11.8565L35.0919 11.4542C34.7549 11.2037 34.6783 11.0975 34.3643 10.885C34.1039 10.6952 33.9125 10.4827 33.6367 10.3309C33.7823 11.4163 34.3873 11.9551 34.4715 12.8962C34.7626 13.3364 34.9157 14.2927 34.9311 14.9151L34.64 16.2129C33.093 15.4919 33.3074 15.4236 31.0405 16.2888C28.8501 17.1237 29.1871 16.0384 28.4518 15.5374C28.0076 15.2414 28.5514 15.2946 28.1838 15.4843C27.8545 16.7138 28.4901 17.1085 28.7199 17.5487C29.2254 18.5353 29.1181 18.7479 29.8764 19.4233C31.2626 20.6604 33.3074 19.4689 34.0273 18.8086L34.2035 19.2032L34.2494 19.5751C34.5251 20.2202 34.6707 20.3645 34.7549 21.2449C35.1072 21.6092 34.9847 21.4422 35.0076 21.9051C35.896 22.5806 33.2844 24.5236 31.2855 23.4914C31.6991 22.2391 31.6378 21.7154 30.9792 20.8654L30.8184 21.2449C30.803 21.2828 30.7877 21.3283 30.7801 21.3663C30.7035 21.5864 30.7724 21.5864 30.6422 21.8293C30.4048 22.6034 29.8687 23.2713 29.233 23.5901C28.4365 23.9847 27.6017 23.5142 26.7746 23.3927C27.0503 22.2391 27.1805 22.3074 26.9201 21.0551L26.7516 20.5997C26.3074 21.2904 26.1466 22.1328 25.5722 22.5882C24.9978 24.0682 23.6805 24.0151 22.4168 23.036C22.8304 22.0266 22.5623 21.5105 22.3709 20.6377L21.896 21.5029C20.9234 24.0378 17.7834 23.9088 18.2199 21.4194C18.2276 18.8389 15.1105 19.7952 13.4486 18.5961L13.5864 16.1826L13.9617 16.3419C14.4978 16.3571 14.7429 16.4861 15.0645 16.6455L14.9343 16.2053C14.3676 15.2339 12.7516 14.8468 13.6783 13.1771C14.2834 12.0766 15.4321 11.4997 15.0262 9.70859L15.5164 9.95905C16.0602 10.2475 16.1061 10.4372 16.5963 10.7711C16.6652 10.8091 17.1017 11.0747 17.1936 11.1127C18.0897 11.4542 17.7834 11.2417 17.9518 11.0216C17.186 10.6269 17.0558 9.19249 15.6389 8.5246C13.8009 7.66697 13.7626 8.35763 13.2265 5.98966L13.6707 6.29325C14.4595 6.44504 13.9004 6.37673 14.0612 6.21735C13.686 5.85305 13.2571 4.84363 13.0044 4.2744C12.5984 3.33329 12.4912 2.71093 12.4683 1.60285Z" fill="#090C3F"/>
<path fill-rule="evenodd" clip-rule="evenodd" d="M30.1064 18.0039C30.6349 17.7762 31.3395 17.6851 31.9981 17.3891C32.6491 17.0931 33.2159 16.6605 33.9128 16.9793C33.6983 17.7155 31.9522 19.499 30.1064 18.0039Z" fill="#090C3F"/>
<path fill-rule="evenodd" clip-rule="evenodd" d="M15.9444 20.7288C18.4105 20.911 16.7026 22.7552 18.1195 24.1062C19.3142 25.2447 21.1906 24.4857 21.9488 23.6584C22.5308 24.129 22.8985 24.9487 24.0856 25.0473C25.288 25.146 26.0232 24.3946 26.5363 23.7647L26.9039 24.1821C28.3284 25.7532 29.6381 25.0018 30.8175 24.0758C30.8405 24.0986 30.8788 24.1062 30.8864 24.1593C30.9783 24.5464 30.9171 24.1973 31.0396 24.3263C31.8821 25.2219 32.7092 25.2295 33.881 25.0246C33.6971 26.421 32.5943 26.0643 30.7869 27.2559C29.8219 27.8859 28.3897 28.9256 26.7354 28.4703C26.9575 28.0452 27.3098 27.8403 27.4707 27.3014C27.6162 26.7929 27.5626 26.0871 27.5319 25.5331C26.881 25.9808 26.5363 27.0358 25.6709 27.6506C24.8744 28.2122 23.4805 28.7587 22.2934 28.4627L23.6643 27.8024L20.8689 27.9314C19.207 27.4532 19.858 26.2693 18.9007 25.4572C17.2234 24.0379 14.3974 27.6506 15.3011 23.1271C15.5232 22.0191 15.4926 21.7458 15.4849 20.6226L15.9444 20.7288Z" fill="#090C3F"/>
<path fill-rule="evenodd" clip-rule="evenodd" d="M38.3163 32.0676C38.5078 31.8096 39.0056 31.4149 39.243 31.0885C40.545 29.2443 40.6292 27.2785 41.196 25.8896L41.3032 23.8025C41.1194 23.0587 40.9432 22.3225 40.7671 21.5559L40.79 21.48C40.6981 20.6983 40.3918 20.2353 40.8283 19.4764C41.1117 18.983 41.3874 18.4138 41.6708 18.0192C42.2605 15.2793 42.115 15.4918 40.7594 14.1029C40.5373 13.8752 40.4914 13.8524 40.2999 13.6475C39.9476 13.306 40.1008 13.5337 39.8557 13.0859C38.9673 12.6305 38.301 11.6894 37.4202 11.0595C37.6117 8.9799 37.7189 9.57948 38.3316 8.52452L38.5307 8.11468L38.5231 8.03878L38.615 7.44679C38.615 7.38607 38.615 6.49049 38.6992 6.15655C38.7452 5.98957 38.7758 5.73912 38.8065 5.49625C38.8371 5.24579 38.8524 5.00292 38.8677 4.82836C38.8984 4.502 38.7069 3.63678 38.6992 3.59125L38.0942 1.50409L37.5581 1.7166L36.0723 3.07515L34.3874 4.00109L33.6216 4.44888H33.6139C33.6139 4.44888 32.4421 4.61585 32.1588 4.70692C31.9137 4.77523 31.4082 4.76764 31.0559 4.76005C30.987 4.76005 30.9257 4.76005 30.8568 4.76005C30.7189 4.76005 30.4432 4.78282 30.1369 4.80559C29.7233 4.83595 29.2485 4.8739 28.9345 4.8739C28.6588 4.8739 28.4826 4.86631 28.2375 4.82836C27.9925 4.78282 27.6938 4.70692 27.173 4.56272C26.5373 4.38816 26.2463 4.32744 25.9859 4.2819C25.8251 4.24396 25.6719 4.22119 25.4574 4.16047C25.197 4.09975 24.7069 4.02386 24.1938 3.94796C23.5504 3.84929 22.8765 3.75063 22.5548 3.65196C22.3251 3.58366 22.034 3.53812 21.7507 3.50776C21.3371 3.46981 20.9542 3.46981 20.8546 3.48499C20.755 3.50017 20.3338 3.43945 19.9356 3.38633C19.6445 3.34838 19.3688 3.31043 19.2463 3.31043C19.1237 3.30284 18.9093 3.32561 18.6949 3.34079C18.4345 3.36356 18.1664 3.38633 18.0362 3.37115C17.8601 3.34838 17.4388 3.15105 17.1325 2.99925C17.0329 2.95372 16.941 2.90818 16.8721 2.88541C16.6194 2.77156 15.6008 2.57423 15.5931 2.57423H15.5855C14.9957 2.20993 14.4137 1.84563 13.824 1.48132L12.6369 0.00134277C12.4607 0.06206 11.5493 0.373235 11.4268 0.616104C11.2966 0.881742 11.1817 1.52686 11.1741 1.59517C11.1817 1.67107 11.2583 2.43003 11.3196 2.7488C11.3732 3.08274 11.5034 4.09216 11.5187 4.16806L12.0778 5.57973V5.58732C12.1084 5.57214 12.1314 5.56455 12.1544 5.55696C12.3152 8.40308 12.4914 8.63077 14.452 9.54912C14.2375 11.8336 11.0745 11.7349 12.522 15.4083C13.3721 17.5866 10.0636 19.3398 14.743 20.4858C14.8426 22.1176 12.2463 26.4437 15.5548 26.7776C16.5581 26.8839 17.324 26.3146 18.0209 26.4589C19.2769 27.6352 18.4191 29.1456 21.4137 28.7661C22.6314 30.5497 24.883 29.7148 26.3841 28.7433C26.4148 28.7585 26.4684 28.7585 26.4837 28.8041L27.0887 29.1684C29.3863 30.1626 31.5614 27.9085 33.3458 27.5821C35.1073 26.5803 34.824 26.5955 35.3601 24.4931C35.7736 22.8689 37.3437 23.0966 35.7124 20.9108C34.8699 19.7876 35.3294 17.9584 35.8349 16.7896C36.7999 14.5583 36.1489 14.5507 35.7124 12.585L36.731 11.9702C37.0067 11.4314 36.7999 11.7729 37.1828 11.5983C37.6806 13.0176 39.6566 14.8846 40.6216 15.6967C40.7135 18.3759 38.5154 20.2657 38.7069 22.4287L38.7988 22.8462C38.8065 22.8765 38.8218 22.9297 38.8448 22.9752C39.1434 22.11 39.4498 21.8064 39.7638 21.184C40.0931 20.9412 39.9629 22.0948 40.0701 23.2257C40.3229 25.8289 39.3732 27.5138 38.5231 29.5175C38.2167 30.2461 37.941 30.5876 37.382 31.0582C36.7463 31.5895 36.5855 31.5591 36.08 32.3484C35.5669 33.1605 34.441 34.9365 34.2266 35.6423C34.464 35.8397 34.5483 35.9763 34.7397 36.1432L35.72 34.8834L37.5121 33.0011L38.3163 32.0676Z" fill="#090C3F"/>
<path fill-rule="evenodd" clip-rule="evenodd" d="M5.82041 32.6671C6.35651 33.0694 6.77774 33.2743 7.13003 33.8967C7.84995 34.3748 8.11034 34.9744 9.51953 35.9611C10.025 36.3178 10.4462 36.4696 10.8828 36.887C11.5491 37.5245 12.2766 37.9723 13.0578 38.2911L13.3335 38.3138C15.164 38.959 17.2777 39.0652 19.7515 39.4295C22.8456 39.8773 26.4528 40.363 29.6235 39.6117H29.6005C31.3467 39.1639 32.9397 38.3138 34.1957 36.8339C34.0731 36.4772 33.9659 36.6289 33.7591 36.1508C33.5141 36.2419 33.7132 36.166 33.4681 36.2874C32.1738 36.9401 31.699 37.1299 30.1519 36.9477C30.4123 37.2058 30.5961 37.3272 31.1475 37.4107C31.5994 37.479 32.0436 37.4562 32.4955 37.479L31.9823 37.737C28.1224 38.9969 26.2077 38.9134 21.827 38.4201C18.6716 38.0634 14.513 37.9192 11.7329 37.0312L14.1147 37.0843L15.6618 36.9477C14.8653 36.7352 15.6541 36.9932 15.2865 36.6289C14.4364 36.6669 12.4451 36.1053 11.6793 35.7941C10.4922 35.3159 7.75804 32.6216 6.71647 31.6122C6.07314 30.9898 4.90903 30.2157 4.01297 29.6009C1.67708 27.9995 3.80618 25.5253 2.14426 22.6564C1.81494 22.0872 1.37073 21.9278 1.38605 21.0702C1.41669 19.6357 2.79524 18.6567 3.36198 16.1217L3.61472 16.9945L4.1355 19.575C4.34995 19.0058 4.35761 17.0932 4.37292 16.2204C4.37292 15.3324 4.09721 14.3078 3.80618 13.5868C3.38496 12.5318 2.84885 12.4483 2.39699 11.6742C2.99437 10.217 7.93419 9.13165 9.15958 7.89454C9.41997 7.27219 9.01406 7.9249 9.37402 7.56819C9.56548 7.37844 9.47358 7.46952 9.64973 7.35568C9.84119 7.23424 10.1322 7.09763 10.3773 6.9686C10.5688 6.65743 11.1585 6.05026 11.7482 5.73149V5.69354L9.22084 6.3842C9.15192 6.49046 9.21319 6.44492 8.96045 6.68779L7.74273 7.44675C5.2843 8.69145 -1.53955 10.1031 2.07533 13.1845C2.99437 13.9663 2.69568 14.8998 2.25914 16.2507C2.23616 16.3115 2.10596 16.6606 2.09065 16.6909C2.07533 16.7213 2.05235 16.7592 2.03704 16.7972L1.70006 17.1691C1.41669 18.3607 -0.589878 19.8103 0.168328 22.0492L0.911216 23.3926C1.2099 23.6582 0.987803 23.3698 1.27883 23.8176C1.73069 24.5007 2.23616 26.6941 2.19787 27.4303C2.17489 28.0223 2.14426 28.3107 2.10596 28.5156C2.10596 28.5156 2.73397 29.4643 2.87949 29.7755C3.01734 30.0943 3.96701 30.7166 3.96701 30.7166L4.77117 31.4528L5.82041 32.6671Z" fill="#090C3F"/>
<path fill-rule="evenodd" clip-rule="evenodd" d="M10.3767 6.96856C10.0474 7.65922 9.16668 9.60976 8.80672 10.012C7.42051 11.5375 7.43583 10.5509 7.60432 13.397C8.10213 15.5828 8.85268 14.581 8.59228 19.5522C8.53101 20.7286 8.54633 21.9202 8.78375 23.0434C9.09775 24.5158 9.496 24.5386 9.96318 25.3886L8.96756 24.9864C7.29797 24.1287 6.48616 22.5501 6.1262 20.3795C5.88112 20.6679 5.81219 20.7134 5.75093 21.5255C5.71263 22.0416 5.72795 22.5122 5.682 23.0207L5.16121 21.1308C4.69403 22.5805 5.29907 25.0395 5.88878 26.0641C6.73889 27.5289 7.50476 28.6142 8.86799 29.3125C8.84502 28.7736 8.79141 27.7945 8.9599 27.2709C9.0518 26.9521 9.0518 27.028 9.09775 26.9369C10.0474 28.174 10.7214 29.3656 11.9927 30.6331C13.042 31.6804 14.3286 32.614 16.2356 33.0694C19.996 33.9649 22.9063 32.9555 25.9621 34.9592L26.8964 35.8244C25.1196 35.6954 22.263 35.7257 20.624 36.2191C21.5737 36.8718 26.1995 37.5093 27.961 37.1905C28.3209 37.1222 28.6962 37.016 28.9643 36.8186C29.2553 36.6061 29.194 36.6061 29.3166 36.4164L29.5923 35.9458C31.9435 36.2646 33.008 36.424 34.6164 33.4792C35.1984 32.4015 35.4205 31.9916 36.1787 31.2402C36.7072 30.709 37.8789 29.8438 38.5223 29.5174C39.3724 27.5137 40.322 25.8288 40.0693 23.2256C39.9621 22.0947 40.0923 20.9411 39.763 21.184C39.8855 22.5197 39.717 23.6582 39.4873 24.956C39.3877 25.5177 39.2115 25.9958 39.0507 26.5119C38.8209 27.2785 38.8056 27.5669 38.3231 27.9463L38.3155 27.2329C37.0901 28.7433 38.0321 28.599 34.4938 31.5287C33.7509 32.1358 32.9774 33.4261 31.7903 33.7752C33.1306 31.1643 32.3494 31.8854 34.8002 29.5629C35.8647 28.5459 37.2433 27.2481 37.9249 25.2976C37.136 25.9047 36.822 27.2026 34.0573 29.2745C31.1393 31.4528 29.9216 31.3541 28.9949 31.9764C29.6153 32.3256 30.5802 32.2269 31.3691 32.1738C30.4577 33.6158 27.8231 33.2894 26.1153 33.1225C24.4457 32.9631 22.0332 32.8113 20.4708 32.5077C21.2673 32.4166 22.2323 32.0827 22.7378 31.6653C19.9347 31.4755 18.5332 31.6273 16.0824 30.5192C14.6043 29.8513 12.4139 28.0981 12.077 26.6713C12.9118 27.0735 13.5474 27.8856 14.5584 28.3106L13.7772 26.7927C15.2094 27.2253 15.8527 27.0128 17.2925 27.2177C18.6174 28.5535 17.3461 29.3277 20.4938 29.7754C21.9183 29.9804 22.1711 31.4831 25.1503 30.3143C26.6514 29.7299 25.763 29.7982 27.2028 30.2384C29.3089 30.8911 32.5868 28.5232 33.345 27.582C31.5606 27.9084 29.3855 30.1625 27.0879 29.1683L26.4829 28.804C26.4676 28.7584 26.4139 28.7584 26.3833 28.7433C24.8822 29.7147 22.6306 30.5496 21.4129 28.766C18.4183 29.1455 19.2761 27.6352 18.0201 26.4588C17.3231 26.3146 16.5573 26.8838 15.554 26.7775C12.2455 26.4436 14.8417 22.1175 14.7422 20.4857C10.0627 19.3397 13.3713 17.5865 12.5212 15.4082C11.0737 11.7349 14.2367 11.8335 14.4511 9.54904C12.4905 8.63069 12.3144 8.403 12.1536 5.55688C11.449 5.76181 10.6142 6.58149 10.3767 6.96856Z" fill="#807E84"/>
<path fill-rule="evenodd" clip-rule="evenodd" d="M9.39723 28.9484C9.78016 29.3203 10.2397 29.9502 10.6762 30.4208C11.5876 31.4074 14.2375 33.3276 15.6773 33.654C18.5799 34.3067 22.5701 33.8589 24.9749 35.2554C21.7659 35.2933 17.523 35.6273 14.5821 34.7469C13.0964 34.3067 9.47381 31.3543 9.39723 28.9484ZM9.15981 7.89469C8.33268 9.18493 4.73311 10.4144 3.20138 11.5529C3.32392 12.365 4.25828 13.0101 4.61057 14.3231C4.84799 15.1732 4.94755 17.0858 4.51101 17.9282L4.37316 16.2205C4.35784 17.0933 4.35018 19.0059 4.13574 19.5752L3.61495 16.9947C3.57666 17.8675 2.70357 19.3019 2.36659 20.1444C1.57009 22.1101 2.20576 21.4877 2.94099 23.0968C4.49569 26.5273 1.83815 27.309 4.94755 29.5783C6.89285 30.9976 8.1795 31.9994 9.72655 33.6312C11.511 35.5134 12.2922 35.7715 14.72 36.4697C14.9651 36.538 15.7539 36.6063 15.2867 36.6291C15.6543 36.9934 14.8655 36.7353 15.662 36.9479L14.115 37.0845C15.4093 37.0921 17.3086 37.3729 18.6412 37.5323C20.1806 37.7068 21.6204 37.851 23.1215 38.0635C28.0767 38.7694 31.8294 37.7068 31.9826 37.7372L32.4957 37.4791C32.0438 37.4564 31.5996 37.4791 31.1478 37.4108C30.5964 37.3273 30.4125 37.2059 30.1522 36.9479C31.6992 37.13 32.174 36.9403 33.4683 36.2876C33.7134 36.1661 33.5143 36.242 33.7594 36.1509L34.2266 35.6424C34.441 34.9366 35.5668 33.1606 36.0799 32.3485C36.5854 31.5592 36.7462 31.5896 37.3819 31.0583C37.941 30.5877 38.2167 30.2462 38.5231 29.5176C37.8797 29.8439 36.708 30.7092 36.1795 31.2404C35.4213 31.9918 35.1992 32.4017 34.6171 33.4794C33.0088 36.4242 31.9443 36.2648 29.5931 35.946L29.3174 36.4166C29.1948 36.6063 29.2561 36.6063 28.9651 36.8188C28.697 37.0162 28.3217 37.1224 27.9618 37.1907C26.2003 37.5095 21.5745 36.872 20.6248 36.2193C22.2637 35.7259 25.1204 35.6956 26.8972 35.8246L25.9629 34.9594C22.9071 32.9557 19.9968 33.9651 16.2364 33.0695C14.3294 32.6142 13.0427 31.6806 11.9935 30.6333C10.7222 29.3658 10.0482 28.1742 9.09854 26.9371C9.05259 27.0282 9.05259 26.9523 8.96068 27.2711C8.79219 27.7947 8.8458 28.7738 8.86878 29.3127C7.50554 28.6144 6.73968 27.5291 5.88957 26.0643C5.29985 25.0397 4.69482 22.5807 5.162 21.131L5.68278 23.0209C5.72874 22.5123 5.71342 22.0418 5.75171 21.5257C5.81298 20.7136 5.88191 20.6681 6.12699 20.3797C6.48694 22.5503 7.29876 24.1289 8.96834 24.9866C8.72327 24.5464 8.68497 24.5919 8.45521 24.2731C6.02742 20.8806 8.11057 18.2318 6.80861 14.5508C6.50992 13.7159 5.82064 12.1752 6.19591 11.4011C6.67075 12.0614 7.03836 12.919 7.6051 13.3972C7.43661 10.5511 7.4213 11.5377 8.80751 10.0122C9.16747 9.60995 10.0482 7.65941 10.3775 6.96875C10.1325 7.09777 9.84143 7.23439 9.64996 7.35582C9.47381 7.46967 9.56572 7.37859 9.37425 7.56833C9.01429 7.92505 9.4202 7.27234 9.15981 7.89469Z" fill="#555A5B"/>
<path fill-rule="evenodd" clip-rule="evenodd" d="M34.4718 12.8962C34.3875 11.9551 33.7825 11.4163 33.637 10.3309C33.9127 10.4827 34.1042 10.6952 34.3646 10.885C34.6786 11.0975 34.7551 11.2037 35.0921 11.4542C35.2759 10.8167 35.3372 11.0292 35.4674 10.0805C35.4214 10.0653 35.1228 9.95145 35.0309 9.89832C34.7092 9.70099 34.9313 9.86797 34.7015 9.63269L35.4214 9.53402C35.6282 9.05587 36.0341 8.91167 36.3711 8.38798C36.9379 7.51517 36.9302 6.59683 37.3361 5.0789C37.4663 4.57039 37.5046 3.87214 37.7344 3.44712C37.765 3.21943 37.8416 3.43953 37.719 3.06764C37.5659 2.60467 37.6961 2.83236 37.5352 2.99933C37.2902 4.03912 37.0527 4.09983 36.5932 4.82085C36.1184 5.55705 35.881 6.08832 36.1414 7.1281C35.1381 7.00667 35.8197 7.09015 35.5593 6.87764C35.2759 6.39191 35.0462 6.36914 34.4641 6.2477H33.6829L33.2464 6.85488C31.8755 5.49633 32.2508 7.75045 32.1053 8.46388L31.9827 8.87372L31.7912 8.61567C31.0943 8.36522 31.3241 8.18306 30.8339 7.71251C29.5013 6.42986 28.812 6.88523 28.1993 6.908C27.6786 6.93077 27.2267 6.74862 26.6906 6.67272C23.4969 6.21734 25.1282 6.73344 22.4171 5.40525C21.8886 5.1472 21.8886 4.98782 21.1993 4.93469C21.6665 5.86822 21.5976 5.89099 21.3525 6.99908C21.1993 7.67456 21.2147 8.24378 20.6862 8.69157L20.4411 8.03886C20.265 7.96296 19.9433 8.12994 19.7825 6.97631C19.5987 5.63294 19.4838 5.86063 18.1206 5.9593C17.5845 5.99725 17.4619 5.96689 17.1709 5.76956L16.1446 5.61017L16.9335 5.04095C17.2169 4.83603 17.3547 4.70701 17.6764 4.47932C16.8263 4.38065 14.881 4.03153 14.5516 3.18149L13.6709 2.62744C13.7398 3.37123 14.0845 3.13595 15.0877 4.53244C15.6775 5.35971 15.6009 5.96689 16.7267 6.38432C18.8481 7.18123 17.5615 6.58924 18.2201 8.39557C18.6107 9.48089 19.346 9.46571 20.0812 10.0349C20.4258 10.6118 20.3952 11.1734 21.0538 11.6591C21.8656 12.2511 22.1414 11.9248 23.0068 12.0158C24.7223 12.1904 24.0254 13.5489 26.9969 12.2663C27.1042 12.4484 27.2497 12.7293 27.4028 12.8962C28.3066 12.8886 27.8547 12.494 28.9116 13.2529C30.7037 14.5356 31.6917 13.2833 32.4269 13.3972C33.2847 13.5186 33.4149 13.9436 34.4105 13.5338L34.4718 12.8962Z" fill="#B2B2B2"/>
<path fill-rule="evenodd" clip-rule="evenodd" d="M33.3452 27.5821C32.587 28.5232 29.3091 30.8912 27.203 30.2385C25.7631 29.7983 26.6515 29.73 25.1505 30.3144C22.1712 31.4832 21.9185 29.9804 20.494 29.7755C17.3463 29.3277 18.6176 28.5536 17.2927 27.2178C15.8529 27.0129 15.2095 27.2254 13.7774 26.7928L14.5585 28.3107C13.5476 27.8857 12.9119 27.0736 12.0771 26.6714C12.4141 28.0982 14.6045 29.8514 16.0826 30.5193C18.5334 31.6274 19.9349 31.4756 22.738 31.6653C22.2325 32.0828 21.2675 32.4167 20.471 32.5078C22.0334 32.8114 24.4459 32.9632 26.1154 33.1226C27.8233 33.2895 30.4579 33.6159 31.3693 32.1739C30.5804 32.227 29.6154 32.3256 28.9951 31.9765C29.9218 31.3542 31.1395 31.4528 34.0575 29.2746C36.8222 27.2026 37.1362 25.9048 37.9251 25.2976C37.971 25.1079 37.9557 25.0851 38.0553 24.9106C38.2697 24.5159 38.1625 24.6981 38.3616 24.4855C38.5684 25.8289 38.4305 26.0111 38.3157 27.233L38.3233 27.9464C38.8058 27.5669 38.8211 27.2785 39.0509 26.512C39.2117 25.9959 39.3879 25.5177 39.4874 24.9561C39.7172 23.6583 39.8857 22.5198 39.7631 21.184C39.4491 21.8064 39.1428 22.11 38.8441 22.9752C38.1931 22.702 38.5301 20.4175 38.7292 19.7648C38.9666 18.983 39.8474 17.7459 39.9316 16.9642C40.1001 15.3856 36.9754 14.3002 36.7303 11.9702L35.7117 12.585C36.1483 14.5507 36.7992 14.5583 35.8343 16.7896C35.3288 17.9584 34.8693 19.7876 35.7117 20.9108C37.343 23.0966 35.773 22.8689 35.3594 24.4931C34.8233 26.5955 35.1067 26.5803 33.3452 27.5821Z" fill="#B2B2B2"/>
<path fill-rule="evenodd" clip-rule="evenodd" d="M16.5039 14.6646C17.2544 11.9095 23.6724 15.3932 24.3846 15.6209C25.5258 15.9852 26.0312 14.953 26.552 14.5507C26.1002 17.0781 25.4185 16.0762 24.6986 17.2754C22.8988 20.2505 17.1242 19.2715 17.5148 14.5128L16.5039 14.6646ZM13.6702 6.29319C13.9918 8.0388 14.6964 7.73522 16.0444 8.41829C16.9634 8.88884 17.6757 10.0652 17.9054 11.0215H17.9514C17.7829 11.2416 18.0892 11.4541 17.1932 11.1126C17.1013 11.0747 16.6647 10.809 16.5958 10.7711C16.1056 10.4371 16.0597 10.2474 15.5159 9.95898C15.6461 13.3136 11.9776 12.9341 15.0641 15.9093C15.1177 16.4481 15.1177 16.0611 14.9339 16.2053L15.0641 16.6455C14.7424 16.4861 14.4973 16.3571 13.9612 16.3419L13.8234 18.4973C14.9109 18.892 18.5104 19.1652 18.4262 20.9336C18.3802 21.8747 18.5104 21.093 18.2194 21.4194C17.7829 23.9088 20.9229 24.0378 21.8956 21.5028L22.3704 20.6376C22.1023 20.4251 22.8529 20.4631 21.9109 20.4631C21.8343 21.5787 20.8463 22.535 19.9503 21.981C19.7665 22.4288 19.8048 22.5047 19.2916 22.5047C18.7555 21.647 19.3835 20.0684 18.4185 19.4081C17.4612 18.7554 16.2588 19.3398 15.7916 18.0344L16.3048 17.6397C16.3277 17.6245 16.3737 17.6093 16.3967 17.5866C16.1592 17.154 16.1286 16.5164 16.2971 16.0687C17.691 15.8637 17.1319 17.116 18.4875 18.2621C18.5258 18.2924 18.6406 18.3835 18.6713 18.4139C18.7096 18.4366 18.7479 18.467 18.7785 18.4897L18.9853 18.6643L20.226 19.0514C21.3748 19.0969 24.0323 19.4688 24.9667 17.7839C24.9514 18.3531 24.6067 18.7554 24.4689 19.188C25.4798 18.6188 25.9776 16.5772 27.2796 17.1008C28.0991 17.4576 27.7468 18.4518 28.9109 19.4916C28.6888 18.9755 28.6964 18.8996 28.8726 18.5808C30.2511 21.8596 33.7511 19.2943 34.203 19.2032L34.0269 18.8085C33.3069 19.4688 31.2621 20.6604 29.8759 19.4233C29.1177 18.7478 29.2249 18.5353 28.7194 17.5486C28.4897 17.1084 27.854 16.7138 28.1833 15.4842C28.5509 15.2945 28.0072 15.2414 28.4514 15.5374C29.1866 16.0383 28.8496 17.1236 31.04 16.2888C33.3069 15.4235 33.0925 15.4918 34.6395 16.2129L34.9306 14.915C33.843 15.34 33.7588 14.9074 32.9087 14.7253C31.4765 14.4217 30.0827 16.82 28.0608 14.1636C27.0269 14.9985 26.9579 14.1788 26.5367 13.435C25.3113 14.361 23.1439 14.0878 21.6581 13.3364C20.5017 12.7444 20.3179 13.1163 19.0619 12.8886C17.3693 12.585 17.691 12.9569 16.4579 13.0176C16.4043 12.3573 16.5498 12.0841 16.9021 11.6287C17.8824 11.6515 18.7632 11.7653 19.3912 11.1354C17.4995 10.0121 17.5148 7.62896 17.1319 7.36333C16.2511 7.15082 15.8069 7.40127 14.9645 6.97625C15.3857 6.78651 15.3934 6.96866 15.8223 6.67267C14.842 5.70119 14.9109 4.965 14.1833 4.05424C12.4295 1.85324 13.517 3.17384 12.4678 1.60278C12.4907 2.71087 12.598 3.33322 13.0039 4.27434C13.2566 4.84356 13.6855 5.85299 14.0608 6.21729C13.8999 6.37667 14.459 6.44498 13.6702 6.29319Z" fill="#555A5B"/>
<path fill-rule="evenodd" clip-rule="evenodd" d="M12.4683 1.60285C13.5175 3.1739 12.43 1.8533 14.1838 4.0543C14.9114 4.96506 14.8424 5.70126 15.8227 6.67273C15.3939 6.96873 15.3862 6.78657 14.965 6.97632C15.8074 7.40134 16.2516 7.15088 17.1324 7.36339C17.5153 7.62903 17.5 10.0122 19.3917 11.1354C18.7637 11.7654 17.8829 11.6515 16.9026 11.6288C16.5503 12.0841 16.4048 12.3574 16.4584 13.0177C17.6914 12.957 17.3698 12.5851 19.0623 12.8887C20.3184 13.1163 20.5022 12.7444 21.6586 13.3364C23.1444 14.0878 25.3118 14.361 26.5372 13.4351C26.9584 14.1789 27.0273 14.9986 28.0612 14.1637C30.0831 16.8201 31.477 14.4218 32.9092 14.7253C33.7593 14.9075 33.8435 15.3401 34.9311 14.9151C34.9157 14.2927 34.7626 13.3364 34.4715 12.8962L34.4103 13.5338C33.4146 13.9436 33.2844 13.5186 32.4267 13.3972C31.6914 13.2833 30.7035 14.5356 28.9114 13.253C27.8545 12.494 28.3063 12.8887 27.4026 12.8962C27.2494 12.7293 27.1039 12.4485 26.9967 12.2663C24.0251 13.549 24.7221 12.1904 23.0065 12.0158C22.1411 11.9248 21.8654 12.2511 21.0536 11.6591C20.3949 11.1734 20.4256 10.6118 20.0809 10.0349C19.3457 9.46572 18.6105 9.4809 18.2199 8.39558C17.5612 6.58924 18.8479 7.18124 16.7265 6.38432C15.6006 5.96689 15.6772 5.35972 15.0875 4.53245C14.0842 3.13595 13.7396 3.37123 13.6707 2.62745C13.2801 2.17207 12.8895 1.91402 12.6214 1.32962C12.43 1.51936 12.43 1.05639 12.4683 1.60285Z" fill="#7E7D82"/>
<path fill-rule="evenodd" clip-rule="evenodd" d="M28.1143 25.4418C29.6231 25.586 29.8452 25.3204 30.8178 24.7967C31.1931 25.0168 30.8025 24.7967 31.1165 25.0016C31.1548 25.0244 31.2697 25.1003 31.308 25.123L32.6942 25.5708C32.7172 25.5405 32.7708 25.5936 32.8091 25.6164C32.1122 26.1704 31.3386 25.9275 30.4043 26.5651C29.6537 27.0812 29.2478 27.4834 28.0607 27.4303L28.1143 25.4418ZM21.0071 25.2824C22.8682 24.5311 21.3364 24.9864 23.3124 25.4722C25.3266 25.9655 25.7095 24.9788 26.6745 24.5083C26.6745 25.8213 25.9163 26.7624 25.3036 26.8307C24.7139 26.8914 25.7938 26.6941 24.9283 26.7928C24.6373 26.8307 24.2774 27.0356 23.8944 27.0736C23.2664 27.1267 23.3277 26.9521 23.052 26.8459L22.8835 26.7852C21.727 26.6334 21.8036 27.8705 20.1494 25.6164L21.0071 25.2824ZM20.8693 27.9312L23.6647 27.8022L22.2938 28.4625C23.4809 28.7585 24.8747 28.212 25.6712 27.6504C26.5367 27.0356 26.8813 25.9807 27.5323 25.5329C27.5629 26.0869 27.6165 26.7928 27.471 27.3013C27.3102 27.8401 26.9579 28.0451 26.7358 28.4701C28.3901 28.9255 29.8222 27.8857 30.7872 27.2557C32.5946 26.0642 33.6975 26.4209 33.8813 25.0244C32.7095 25.2293 31.8824 25.2217 31.0399 24.3261C30.9174 24.1971 30.9787 24.5462 30.8868 24.1592C30.8791 24.106 30.8408 24.0984 30.8178 24.0757C29.6384 25.0016 28.3288 25.753 26.9043 24.1819L26.5367 23.7645C26.0235 24.3944 25.2883 25.1458 24.0859 25.0471C22.8988 24.9485 22.5312 24.1288 21.9491 23.6582C21.1909 24.4855 19.3146 25.2445 18.1198 24.106C16.703 22.7551 18.4108 20.9108 15.9448 20.7286C15.9754 21.7836 15.5159 24.4931 15.7763 25.0547C17.0936 25.2369 17.8441 24.2275 19.1614 25.3431C20.1494 26.178 19.2533 26.2008 20.8693 27.9312Z" fill="#555A5B"/>
<path fill-rule="evenodd" clip-rule="evenodd" d="M22.7001 19.8558C23.9408 18.8084 23.4889 20.4478 25.1355 19.2259C25.8172 18.725 26.2614 17.7762 26.9966 17.5258C28.0382 18.0798 27.7318 19.0741 29.0108 19.9924C30.0983 20.7666 29.3478 19.4156 30.0447 20.4554C30.5579 21.2219 30.1443 21.5787 29.746 21.9885C29.0797 21.9885 29.2789 21.5787 28.5666 21.8139C27.9616 22.0189 28.1301 21.7153 27.548 20.8197C27.257 20.3719 27.0655 20.334 26.7362 19.8786C26.2231 20.3491 26.3609 20.9487 25.3193 21.943L24.339 21.7077C23.6727 21.5104 23.9102 21.6394 23.5885 21.2599C23.2209 20.8349 22.7843 20.3036 22.7001 19.8558ZM22.3708 20.6375C23.0677 21.1385 23.374 21.776 23.5808 22.8234C24.3237 22.6716 23.78 22.9372 24.3314 22.3756C24.2471 22.8234 24.3467 22.7323 24.699 22.9448L25.5721 22.5881C26.1465 22.1327 26.3073 21.2903 26.7515 20.5996L26.92 21.055C27.5097 21.609 27.4638 22.1707 28.0611 22.7019C28.3675 22.6943 28.6049 22.5805 28.7811 22.5577C29.8762 22.4059 29.3631 23.3774 30.6421 21.8291C30.7723 21.5862 30.7034 21.5862 30.78 21.3661C30.7876 21.3282 30.8029 21.2827 30.8183 21.2447L30.9791 20.8652C32.327 21.5255 32.059 21.5635 32.4725 23.0207C33.246 23.0435 32.9167 23.1042 33.5677 22.2162C34.2417 22.7247 34.9692 23.0055 35.0075 21.905C34.9846 21.442 35.1071 21.609 34.7548 21.2447C34.7625 21.6394 34.7318 21.7001 34.594 21.943C33.8664 22.0872 33.8587 21.9354 33.5754 21.5179L32.955 22.239C32.2657 21.6925 32.7406 21.2219 31.5535 20.759C32.0207 20.4706 32.4112 20.5237 32.9627 20.334C33.5447 20.1366 33.897 19.8406 34.2493 19.575L34.2034 19.2031C33.7515 19.2942 30.2515 21.8595 28.873 18.5807C28.6968 18.8995 28.6891 18.9754 28.9112 19.4915C27.7471 18.4517 28.0994 17.4575 27.28 17.1008C25.978 16.5771 25.4802 18.6187 24.4692 19.1879C24.6071 18.7553 24.9517 18.3531 24.967 17.7838C24.0327 19.4687 21.3751 19.0968 20.2263 19.0513C20.5021 19.2942 20.0042 19.0589 20.6552 19.3018C21.0765 19.4611 21.2143 19.3321 21.7428 19.6054C21.827 20.463 21.4824 20.9867 21.0305 21.4269C20.6323 21.2903 20.7242 21.3661 20.571 20.9639C20.3259 21.184 20.2034 21.3434 19.6979 21.351C19.3992 19.5522 19.8204 19.9317 18.618 18.7022L18.9856 18.6642L18.7789 18.4897C18.7482 18.4669 18.7099 18.4365 18.6716 18.4138C18.641 18.3834 18.5261 18.2923 18.4878 18.262C17.1323 17.1159 17.6913 15.8637 16.2975 16.0686C16.129 16.5164 16.1596 17.1539 16.397 17.5865C16.374 17.6093 16.3281 17.6245 16.3051 17.6396L15.792 18.0343C16.2592 19.3397 17.4616 18.7553 18.4189 19.408C19.3839 20.0683 18.7559 21.647 19.292 22.5046C19.8051 22.5046 19.7668 22.4287 19.9506 21.9809C20.8467 22.535 21.8347 21.5787 21.9112 20.463C22.8533 20.463 22.1027 20.425 22.3708 20.6375Z" fill="#7E7D82"/>
<path fill-rule="evenodd" clip-rule="evenodd" d="M18.005 14.6268C20.1571 15.0366 21.9952 16.1523 23.9711 16.7822C23.5805 17.3059 22.9295 17.5412 22.2479 17.5867C21.6199 17.6323 20.7162 17.4501 20.1418 17.2604C19.0159 16.8961 18.1199 15.1808 18.005 14.6268ZM16.5039 14.6647L17.5148 14.5129C17.1243 19.2716 22.8989 20.2507 24.6987 17.2755C25.4186 16.0764 26.1002 17.0782 26.552 14.5509C26.0313 14.9531 25.5258 15.9853 24.3847 15.621C23.6724 15.3933 17.2545 11.9097 16.5039 14.6647Z" fill="#090C3F"/>
<path fill-rule="evenodd" clip-rule="evenodd" d="M10.6755 30.4206C10.2389 29.9501 9.77942 29.3201 9.39648 28.9482C9.47307 31.3542 13.0956 34.3065 14.5814 34.7467C17.5223 35.6271 21.7652 35.2932 24.9742 35.2552C22.5694 33.8587 18.5792 34.3065 15.6766 33.6538C14.2367 33.3275 11.5869 31.4073 10.6755 30.4206Z" fill="#0C0B3C"/>
<path fill-rule="evenodd" clip-rule="evenodd" d="M22.7002 19.856C22.7844 20.3038 23.221 20.835 23.5886 21.26C23.9103 21.6395 23.6728 21.5105 24.3391 21.7078L25.3195 21.9431C26.361 20.9489 26.2232 20.3493 26.7363 19.8787C27.0656 20.3341 27.2571 20.3721 27.5481 20.8198C28.1302 21.7154 27.9617 22.019 28.5667 21.8141C29.279 21.5788 29.0798 21.9887 29.7461 21.9887C30.1444 21.5788 30.558 21.2221 30.0448 20.4555C29.3479 19.4158 30.0984 20.7667 29.0109 19.9926C27.7319 19.0742 28.0383 18.08 26.9967 17.5259C26.2615 17.7764 25.8173 18.7251 25.1356 19.226C23.489 20.448 23.9409 18.8086 22.7002 19.856Z" fill="#B2B0B0"/>
<path fill-rule="evenodd" clip-rule="evenodd" d="M8.96748 24.9863L9.96311 25.3886C9.49593 24.5386 9.09768 24.5158 8.78368 23.0434C8.54626 21.9201 8.53094 20.7286 8.59221 19.5522C8.8526 14.5809 8.10206 15.5828 7.60424 13.397C7.0375 12.9188 6.66989 12.0612 6.19505 11.4009C5.81978 12.175 6.50906 13.7157 6.80775 14.5506C8.10971 18.2316 6.02656 20.8803 8.45435 24.2729C8.68411 24.5917 8.72241 24.5461 8.96748 24.9863Z" fill="#0C0B3C"/>
<path fill-rule="evenodd" clip-rule="evenodd" d="M15.2863 36.6289C15.7535 36.6061 14.9647 36.5378 14.7196 36.4695C12.2918 35.7712 11.5106 35.5132 9.72615 33.631C8.1791 31.9992 6.89245 30.9974 4.94715 29.5781C1.83774 27.3088 4.49529 26.527 2.94059 23.0965C2.20536 21.4875 1.56969 22.1099 2.36619 20.1442C2.70317 19.3017 3.57626 17.8673 3.61455 16.9945L3.36181 16.1216C2.79507 18.6566 1.41652 19.6356 1.38588 21.0701C1.37057 21.9277 1.81477 22.0871 2.14409 22.6563C3.80602 25.5252 1.67691 27.9994 4.0128 29.6009C4.90886 30.2156 6.07297 30.9898 6.7163 31.6121C7.75788 32.6215 10.492 35.3159 11.6791 35.794C12.445 36.1052 14.4362 36.6668 15.2863 36.6289Z" fill="#28EBF7"/>
<path fill-rule="evenodd" clip-rule="evenodd" d="M37.9256 25.2974C37.244 27.248 35.8654 28.5458 34.8009 29.5628C32.3501 31.8853 33.1313 31.1642 31.791 33.7751C32.9781 33.426 33.7516 32.1357 34.4945 31.5285C38.0328 28.5989 37.0908 28.7431 38.3162 27.2328C38.4311 26.0109 38.5689 25.8287 38.3621 24.4854C38.163 24.6979 38.2702 24.5157 38.0558 24.9104C37.9562 25.0849 37.9715 25.1077 37.9256 25.2974Z" fill="#090B3E"/>
<path fill-rule="evenodd" clip-rule="evenodd" d="M20.1494 25.6165C21.8037 27.8706 21.7271 26.6335 22.8835 26.7853L23.052 26.846C23.3278 26.9522 23.2665 27.1268 23.8945 27.0737C24.2774 27.0357 24.6374 26.8308 24.9284 26.7928C25.7938 26.6942 24.714 26.8915 25.3037 26.8308C25.9164 26.7625 26.6746 25.8214 26.6746 24.5084C25.7096 24.9789 25.3267 25.9656 23.3124 25.4722C21.3365 24.9865 22.8682 24.5311 21.0072 25.2825L20.1494 25.6165Z" fill="#7E7D82"/>
<path fill-rule="evenodd" clip-rule="evenodd" d="M18.0049 14.6265C18.1198 15.1806 19.0158 16.8958 20.1416 17.2601C20.716 17.4499 21.6198 17.632 22.2478 17.5865C22.9294 17.541 23.5804 17.3057 23.971 16.782C21.995 16.152 20.157 15.0364 18.0049 14.6265Z" fill="#05FCFC"/>
<path fill-rule="evenodd" clip-rule="evenodd" d="M36.7307 11.9702C36.9758 14.3002 40.1005 15.3855 39.932 16.9641C39.8478 17.7459 38.967 18.983 38.7296 19.7647C38.5305 20.4174 38.1935 22.7019 38.8445 22.9751C38.8215 22.9296 38.8062 22.8765 38.7985 22.8461L38.7066 22.4287C38.5152 20.2656 40.7132 18.3758 40.6213 15.6967C39.6563 14.8846 37.6804 13.0175 37.1826 11.5983C36.7996 11.7728 37.0064 11.4313 36.7307 11.9702Z" fill="#28EBF7"/>
<path fill-rule="evenodd" clip-rule="evenodd" d="M28.1151 25.4419L28.0615 27.4304C29.2486 27.4835 29.6545 27.0812 30.4051 26.5651C31.3394 25.9276 32.1129 26.1705 32.8099 25.6164C32.7716 25.5937 32.718 25.5405 32.695 25.5709L31.3088 25.1231C31.2705 25.1003 31.1556 25.0244 31.1173 25.0017C30.8033 24.7968 31.1939 25.0169 30.8186 24.7968C29.846 25.3204 29.6239 25.5861 28.1151 25.4419Z" fill="#7E7D82"/>
<path fill-rule="evenodd" clip-rule="evenodd" d="M4.37266 16.2204L4.51051 17.928C4.94706 17.0856 4.84749 15.173 4.61008 14.323C4.25778 13.01 3.32342 12.3648 3.20089 11.5527C4.73261 10.4143 8.33218 9.18477 9.15931 7.89453C7.93393 9.13164 2.9941 10.217 2.39673 11.6742C2.84859 12.4483 3.38469 12.5318 3.80592 13.5868C4.09695 14.3078 4.37266 15.3324 4.37266 16.2204Z" fill="#2FECED"/>
<path fill-rule="evenodd" clip-rule="evenodd" d="M21.1985 4.93469C21.8878 4.98782 21.8878 5.1472 22.4162 5.40525C25.1274 6.73344 23.4961 6.21734 26.6897 6.67272C27.2258 6.74862 27.6777 6.93077 28.1985 6.908C28.8112 6.88523 29.5005 6.42985 30.8331 7.7125C31.3232 8.18306 31.0935 8.36521 31.7904 8.61567C30.4578 6.55129 30.0978 6.18698 26.9961 6.06555C25.7784 6.02001 24.8363 6.03519 23.8024 5.59499C23.3582 5.39766 21.4053 4.29716 21.1985 4.93469Z" fill="#2FECED"/>
<path fill-rule="evenodd" clip-rule="evenodd" d="M20.2265 19.0516L18.9858 18.6646L18.6182 18.7025C19.8206 19.932 19.3993 19.5525 19.698 21.3513C20.2035 21.3437 20.326 21.1843 20.5711 20.9642C20.7243 21.3665 20.6324 21.2906 21.0306 21.4272C21.4825 20.987 21.8271 20.4633 21.7429 19.6057C21.2144 19.3324 21.0766 19.4615 20.6554 19.3021C20.0044 19.0592 20.5022 19.2945 20.2265 19.0516Z" fill="#B2B0B0"/>
<path fill-rule="evenodd" clip-rule="evenodd" d="M34.754 21.2449C34.6698 20.3645 34.5243 20.2203 34.2486 19.5752C33.8963 19.8408 33.544 20.1368 32.9619 20.3342C32.4105 20.5239 32.0199 20.4708 31.5527 20.7592C32.7398 21.2221 32.265 21.6927 32.9543 22.2392L33.5746 21.5181C33.858 21.9356 33.8656 22.0874 34.5932 21.9432C34.7311 21.7003 34.7617 21.6396 34.754 21.2449Z" fill="#B2B0B0"/>
<path fill-rule="evenodd" clip-rule="evenodd" d="M35.0079 21.905C34.9696 23.0055 34.2421 22.7247 33.5681 22.2162C32.9171 23.1042 33.2465 23.0435 32.4729 23.0207C32.0594 21.5635 32.3274 21.5255 30.9795 20.8652C31.6381 21.7153 31.6994 22.239 31.2858 23.4913C33.2847 24.5234 35.8963 22.5805 35.0079 21.905Z" fill="#555A5B"/>
<path fill-rule="evenodd" clip-rule="evenodd" d="M20.8689 27.9314C19.2529 26.2009 20.149 26.1782 19.161 25.3433C17.8438 24.2276 17.0932 25.2371 15.7759 25.0549C15.5155 24.4933 15.975 21.7838 15.9444 20.7288L15.4849 20.6226C15.4926 21.7458 15.5232 22.0191 15.3011 23.1271C14.3974 27.6506 17.2234 24.0379 18.9007 25.4572C19.858 26.2693 19.207 27.4532 20.8689 27.9314Z" fill="#2FCBD5"/>
<path fill-rule="evenodd" clip-rule="evenodd" d="M30.6418 21.8293C29.3628 23.3775 29.8759 22.4061 28.7807 22.5579C28.6046 22.5806 28.3672 22.6945 28.0608 22.7021C27.4634 22.1708 27.5094 21.6092 26.9197 21.0551C27.1801 22.3074 27.0499 22.2391 26.7742 23.3927C27.6013 23.5142 28.4361 23.9847 29.2326 23.5901C29.8683 23.2713 30.4044 22.6034 30.6418 21.8293Z" fill="#555A5B"/>
<path fill-rule="evenodd" clip-rule="evenodd" d="M25.5724 22.5882L24.6993 22.9449C24.347 22.7324 24.2475 22.8235 24.3317 22.3757C23.7803 22.9374 24.324 22.6717 23.5812 22.8235C23.3744 21.7761 23.068 21.1386 22.3711 20.6377C22.5626 21.5105 22.8306 22.0266 22.417 23.036C23.6807 24.0151 24.998 24.0682 25.5724 22.5882Z" fill="#595A5C"/>
<path fill-rule="evenodd" clip-rule="evenodd" d="M30.1064 18.0039C31.9522 19.499 33.6983 17.7155 33.9128 16.9793C33.2159 16.6605 32.6491 17.0931 31.9981 17.3891C31.3395 17.6851 30.6349 17.7762 30.1064 18.0039Z" fill="#17F6FA"/>
<path fill-rule="evenodd" clip-rule="evenodd" d="M35.4209 9.53416C36.6156 9.18504 37.0522 8.49438 37.3968 7.28004C37.7108 6.19472 38.0784 4.54017 37.7338 3.44727C37.504 3.87229 37.4658 4.57053 37.3356 5.07904C36.9297 6.59697 36.9373 7.51532 36.3706 8.38812C36.0336 8.91181 35.6277 9.05601 35.4209 9.53416Z" fill="#2FECED"/>
<path fill-rule="evenodd" clip-rule="evenodd" d="M18.2193 21.4193C18.5104 21.0929 18.3802 21.8747 18.4261 20.9336C18.5104 19.1652 14.9108 18.8919 13.8233 18.4973L13.9611 16.3418L13.5859 16.1824L13.448 18.5959C15.1099 19.7951 18.227 18.8388 18.2193 21.4193Z" fill="#51CED6"/>
<path fill-rule="evenodd" clip-rule="evenodd" d="M14.9345 16.2052C15.1183 16.061 15.1183 16.448 15.0647 15.9092C11.9783 12.934 15.6468 13.3135 15.5166 9.95889L15.0264 9.70844C15.4323 11.4996 14.2835 12.0764 13.6785 13.1769C12.7518 14.8466 14.3678 15.2337 14.9345 16.2052Z" fill="#2FD8EE"/>
<path fill-rule="evenodd" clip-rule="evenodd" d="M35.5584 6.87758C35.8188 7.09009 35.1372 7.0066 36.1405 7.12804C35.8801 6.08825 36.1175 5.55698 36.5923 4.82078C37.0518 4.09977 37.2893 4.03905 37.5343 2.99927C36.6459 3.76582 36.5311 4.30469 34.8079 4.84355C34.984 5.04847 35.344 5.36724 35.5354 5.62529C35.5814 5.69359 35.7805 6.04272 35.7958 6.14897C36.0179 7.41644 35.8724 6.62712 35.5584 6.87758Z" fill="#7D8185"/>
<path fill-rule="evenodd" clip-rule="evenodd" d="M32.1046 8.46384C32.2501 7.75041 31.8749 5.49629 33.2458 6.85483L33.6823 6.24766H34.4635C33.5138 5.23824 32.4263 6.05792 31.4307 6.38428L31.9515 8.16025C32.051 8.47902 31.9744 8.28928 32.1046 8.46384Z" fill="#7D8185"/>
<path fill-rule="evenodd" clip-rule="evenodd" d="M17.1711 5.76954C17.4622 5.96687 17.5847 5.99723 18.1208 5.95928C19.4841 5.86061 19.5989 5.63293 19.7827 6.97629C19.9436 8.12992 20.2652 7.96295 20.4414 8.03884C20.1657 7.1888 20.2806 6.81691 20.2269 5.92892C18.8714 4.88155 18.7948 5.48872 17.1711 5.76954Z" fill="#2FECED"/>
<path fill-rule="evenodd" clip-rule="evenodd" d="M17.951 11.0215H17.905C17.6753 10.0652 16.963 8.88881 16.044 8.41825C14.696 7.73518 13.9915 8.03877 13.6698 6.29315L13.2256 5.98956C13.7617 8.35753 13.8 7.66687 15.6381 8.5245C17.0549 9.19239 17.1851 10.6268 17.951 11.0215Z" fill="#51CED6"/>
<path fill-rule="evenodd" clip-rule="evenodd" d="M17.6762 4.47923L18.0668 4.21359C17.3469 3.6899 15.5548 3.49257 14.5515 3.1814C14.8808 4.03144 16.8261 4.38056 17.6762 4.47923Z" fill="#2FECED"/>
<path fill-rule="evenodd" clip-rule="evenodd" d="M35.0918 11.4541L35.2297 11.8564C35.3675 11.7273 35.3369 11.7881 35.4824 11.5983L35.8194 11.0215C36.0568 10.6117 36.0721 10.5813 36.187 10.1107L35.4671 10.0804C35.3369 11.0291 35.2756 10.8166 35.0918 11.4541Z" fill="#2FECED"/>
</g>
<defs>
<clipPath id="clip0_1_2397">
<rect width="42" height="40" fill="white"/>
</clipPath>
</defs>
</svg>
