<svg width="61" height="58" viewBox="0 0 61 58" fill="none" xmlns="http://www.w3.org/2000/svg">
<g clip-path="url(#clip0_1_2578)">
<path fill-rule="evenodd" clip-rule="evenodd" d="M16.5078 53.3979L17.4978 54.3664L35.2616 56.9195L44.4828 55.9511L47.6085 54.2783L43.7376 54.5535L25.462 53.6621L17.2976 53.1118L16.5078 53.3979Z" fill="#28EBF7"/>
<path fill-rule="evenodd" clip-rule="evenodd" d="M18.1091 2.32398C18.0535 1.53162 18.0535 2.20293 18.3316 1.9278C18.7209 2.77518 19.2882 3.14935 19.8555 3.80965L21.1347 4.61302C22.5918 5.06422 25.1947 5.35035 26.2402 6.1097L25.673 6.49487C25.2058 6.82502 25.0056 7.01211 24.594 7.30924L23.4483 8.13461L24.9388 8.36572C27.297 7.95853 27.4082 7.07814 29.377 8.59682C29.4549 9.88441 29.288 10.4237 29.6885 11.6562L30.0444 12.6026C30.8119 11.9533 30.7897 11.128 31.0121 10.1485C31.3681 8.5418 31.4682 8.50878 30.7897 7.15517C31.09 6.23075 33.9264 7.82647 34.5716 8.1126C36.0732 8.75089 37.4414 8.72888 39.21 8.79491C43.7149 8.97099 44.2377 9.49923 46.1731 12.4926L46.4512 12.8668L46.6292 12.2725C46.4401 12.0194 46.5513 12.2945 46.4067 11.8323L45.6504 9.25712C47.0964 8.78391 48.6759 7.59537 50.0552 9.05903C50.9005 9.23511 51.2342 9.26813 51.6458 9.97245C52.1019 9.60928 52.3132 10.7538 51.9906 8.91597C51.9684 8.7619 51.6792 8.25567 51.6124 8.15662C51.3343 7.78245 50.8116 7.32025 50.5557 7.02311C53.0585 6.24176 53.2253 5.4604 54.5156 4.3489C54.7492 4.10679 54.5601 3.77664 54.7826 4.44794C54.9605 4.98719 54.8493 4.66804 54.8048 4.99819C55.3054 6.58291 54.7714 8.982 54.3154 10.5557C53.8148 12.3165 53.1808 13.318 51.4456 13.8242L50.4 13.9673C50.7337 14.3084 50.4111 14.0663 50.8783 14.3524C51.0118 14.4295 51.4456 14.5945 51.5123 14.6166L52.5579 14.6606C52.3911 15.3429 52.3688 15.3869 52.024 15.9812L51.5346 16.8176C51.3232 17.0927 51.3677 17.0046 51.1675 17.1917L50.9673 16.6085C50.4779 16.2453 50.3666 16.0912 49.9106 15.7831C49.5324 15.508 49.2543 15.1998 48.8539 14.9797C49.0652 16.5534 49.9439 17.3348 50.0663 18.6994C50.489 19.3377 50.7114 20.7243 50.7337 21.6267L50.311 23.5086C48.0641 22.4631 48.3756 22.3641 45.0831 23.6186C41.9018 24.8292 42.3912 23.2555 41.3234 22.5291C40.6783 22.0999 41.468 22.177 40.9341 22.4521C40.4558 24.2349 41.379 24.8072 41.7127 25.4455C42.4469 26.8761 42.2911 27.1842 43.3923 28.1637C45.4056 29.9575 48.3756 28.2297 49.4211 27.2723L49.677 27.8445L49.7437 28.3838C50.1442 29.3192 50.3555 29.5283 50.4779 30.8049C50.9895 31.3331 50.8116 31.091 50.8449 31.7623C52.1352 32.7418 48.3422 35.559 45.439 34.0624C46.0397 32.2465 45.9507 31.4872 44.9941 30.2546L44.7605 30.8049C44.7382 30.8599 44.716 30.9259 44.7049 30.981C44.5936 31.3001 44.6938 31.3001 44.5047 31.6523C44.1598 32.7748 43.3812 33.7432 42.458 34.2054C41.3012 34.7777 40.0887 34.0954 38.8874 33.9193C39.2878 32.2465 39.4769 32.3456 39.0987 30.5298L38.854 29.8695C38.2089 30.8709 37.9753 32.0925 37.1411 32.7528C36.3068 34.8987 34.3936 34.8217 32.5583 33.4021C33.1589 31.9384 32.7696 31.1901 32.4915 29.9245L31.8019 31.1791C30.3892 34.8547 25.8287 34.6676 26.4627 31.058C26.4738 27.3163 21.9467 28.7029 19.5329 26.9641L19.7331 23.4646L20.2782 23.6957C21.0568 23.7177 21.4128 23.9048 21.8799 24.1359L21.6908 23.4976C20.8677 22.0889 18.5207 21.5277 19.8666 19.1066C20.7454 17.5109 22.4138 16.6745 21.8243 14.0773L22.5362 14.4405C23.326 14.8587 23.3927 15.1338 24.1046 15.618C24.2047 15.673 24.8387 16.0582 24.9722 16.1132C26.2736 16.6085 25.8287 16.3003 26.0734 15.9812C24.9611 15.4089 24.772 13.329 22.7142 12.3605C20.0446 11.117 19.989 12.1184 19.2103 8.68486L19.8555 9.12506C21.0012 9.34516 20.1892 9.24612 20.4228 9.01501C19.8777 8.48677 19.2548 7.02311 18.8878 6.19774C18.2982 4.83312 18.1425 3.93071 18.1091 2.32398Z" fill="#090C3F"/>
<path fill-rule="evenodd" clip-rule="evenodd" d="M43.7266 26.1057C44.4941 25.7755 45.5174 25.6435 46.474 25.2143C47.4195 24.7851 48.2426 24.1578 49.2548 24.62C48.9434 25.6875 46.4073 28.2737 43.7266 26.1057Z" fill="#090C3F"/>
<path fill-rule="evenodd" clip-rule="evenodd" d="M23.1589 30.0564C26.7406 30.3205 24.2601 32.9947 26.318 34.9536C28.0532 36.6044 30.7784 35.5039 31.8796 34.3043C32.725 34.9866 33.2589 36.1752 34.983 36.3183C36.7293 36.4613 37.7972 35.3718 38.5424 34.4584L39.0763 35.0637C41.1453 37.3417 43.0473 36.2522 44.7603 34.9096C44.7937 34.9426 44.8493 34.9536 44.8604 35.0307C44.9939 35.5919 44.9049 35.0857 45.0829 35.2728C46.3065 36.5714 47.5078 36.5824 49.2096 36.2852C48.9427 38.3102 47.3409 37.7929 44.7158 39.5207C43.3143 40.4341 41.2343 41.9418 38.8316 41.2815C39.1542 40.6652 39.6659 40.3681 39.8995 39.5867C40.1108 38.8494 40.0329 37.8259 39.9884 37.0226C39.043 37.6719 38.5424 39.2016 37.2855 40.093C36.1287 40.9073 34.1042 41.6997 32.3801 41.2705L34.3712 40.3131L30.3112 40.5001C27.8975 39.8068 28.8429 38.0901 27.4525 36.9125C25.0165 34.8546 20.912 40.093 22.2246 33.534C22.5472 31.9273 22.5027 31.5311 22.4915 29.9023L23.1589 30.0564Z" fill="#090C3F"/>
<path fill-rule="evenodd" clip-rule="evenodd" d="M55.6504 46.498C55.9284 46.1239 56.6514 45.5516 56.9963 45.0784C58.8872 42.4042 59.0096 39.5539 59.8327 37.54L59.9884 34.5136C59.7215 33.4351 59.4656 32.3676 59.2098 31.2561L59.2432 31.1461C59.1097 30.0126 58.6648 29.3413 59.2988 28.2408C59.7103 27.5254 60.1108 26.7001 60.5223 26.1278C61.3788 22.155 61.1675 22.4631 59.1987 20.4492C58.8761 20.1191 58.8094 20.0861 58.5313 19.7889C58.0196 19.2937 58.2421 19.6238 57.8861 18.9746C56.5958 18.3143 55.6281 16.9496 54.3489 16.0362C54.627 13.0209 54.7827 13.8902 55.6726 12.3606L55.9618 11.7663L55.9507 11.6562L56.0842 10.7978C56.0842 10.7098 56.0842 9.41122 56.2065 8.927C56.2733 8.68489 56.3177 8.32172 56.3622 7.96956C56.4067 7.6064 56.429 7.25424 56.4512 7.00113C56.4957 6.52791 56.2176 5.27334 56.2065 5.20731L55.3278 2.18094L54.5491 2.48908L52.3912 4.45897L49.9441 5.80158L48.8318 6.45088H48.8207C48.8207 6.45088 47.1188 6.69299 46.7072 6.82505C46.3513 6.92409 45.6172 6.91309 45.1055 6.90208C45.0054 6.90208 44.9164 6.90208 44.8163 6.90208C44.6161 6.90208 44.2156 6.9351 43.7707 6.96811C43.17 7.01213 42.4804 7.06716 42.0244 7.06716C41.6239 7.06716 41.3681 7.05615 41.0121 7.00113C40.6562 6.9351 40.2224 6.82505 39.466 6.61595C38.5428 6.36284 38.1201 6.2748 37.7419 6.20877C37.5083 6.15374 37.2858 6.12073 36.9744 6.03269C36.5962 5.94465 35.8843 5.8346 35.139 5.72455C34.2047 5.58148 33.2258 5.43842 32.7587 5.29535C32.425 5.19631 32.0023 5.13028 31.5907 5.08626C30.9901 5.03123 30.4339 5.03123 30.2893 5.05324C30.1447 5.07525 29.5329 4.98721 28.9545 4.91018C28.5318 4.85515 28.1314 4.80013 27.9534 4.80013C27.7754 4.78912 27.464 4.82214 27.1525 4.84415C26.7744 4.87716 26.385 4.91018 26.1959 4.88817C25.9401 4.85515 25.3283 4.56902 24.8834 4.34892C24.7388 4.28289 24.6053 4.21686 24.5052 4.18385C24.1381 4.01877 22.6587 3.73264 22.6476 3.73264H22.6365C21.78 3.2044 20.9346 2.67617 20.0781 2.14793L18.354 0.00195312C18.0982 0.089993 16.7745 0.541198 16.5966 0.893357C16.4075 1.27853 16.2406 2.21396 16.2295 2.313C16.2406 2.42305 16.3518 3.52355 16.4408 3.98576C16.5187 4.46998 16.7078 5.93364 16.73 6.04369L17.542 8.09062V8.10162C17.5865 8.07961 17.6199 8.06861 17.6533 8.0576C17.8869 12.1845 18.1427 12.5146 20.9903 13.8462C20.6788 17.1587 16.0849 17.0157 18.1872 22.3421C19.4219 25.5005 14.6166 28.0427 21.4129 29.7044C21.5575 32.0705 17.7867 38.3433 22.592 38.8276C24.0491 38.9816 25.1615 38.1562 26.1737 38.3653C27.9979 40.0711 26.7521 42.2611 31.1013 41.7109C32.8699 44.297 36.1401 43.0865 38.3203 41.6778C38.3648 41.6999 38.4427 41.6999 38.4649 41.7659L39.3436 42.2941C42.6806 43.7358 45.8396 40.4673 48.4314 39.9941C50.9897 38.5414 50.5781 38.5634 51.3568 35.515C51.9574 33.16 54.2377 33.4901 51.8684 30.3207C50.6449 28.692 51.3123 26.0398 52.0464 24.345C53.4479 21.1095 52.5025 21.0985 51.8684 18.2482L53.3478 17.3568C53.7483 16.5755 53.4479 17.0707 54.0041 16.8176C54.7271 18.8755 57.5969 21.5827 58.9985 22.7603C59.1319 26.645 55.9396 29.3853 56.2176 32.5217L56.3511 33.127C56.3622 33.171 56.3845 33.248 56.4179 33.3141C56.8517 32.0595 57.2966 31.6193 57.7527 30.7169C58.231 30.3647 58.0419 32.0375 58.1976 33.6772C58.5647 37.4519 57.1854 39.895 55.9507 42.8004C55.5058 43.8568 55.1053 44.3521 54.2933 45.0344C53.3701 45.8047 53.1365 45.7607 52.4024 46.9052C51.6571 48.0827 50.022 50.6579 49.7105 51.6814C50.0554 51.9675 50.1777 52.1656 50.4558 52.4077L51.8796 50.5809L54.4824 47.8516L55.6504 46.498Z" fill="#090C3F"/>
<path fill-rule="evenodd" clip-rule="evenodd" d="M8.45398 47.3673C9.2326 47.9505 9.84439 48.2477 10.3561 49.1501C11.4016 49.8434 11.7798 50.7128 13.8265 52.1434C14.5607 52.6607 15.1724 52.8808 15.8065 53.4861C16.7742 54.4105 17.8309 55.0598 18.9655 55.522L19.3659 55.555C22.0244 56.4904 25.0944 56.6445 28.6872 57.1727C33.181 57.822 38.4201 58.5263 43.0251 57.4368H42.9917C45.5278 56.7876 47.8415 55.555 49.6657 53.409C49.4877 52.8918 49.332 53.1119 49.0317 52.4186C48.6757 52.5506 48.9649 52.4406 48.609 52.6167C46.7291 53.5631 46.0395 53.8382 43.7926 53.5741C44.1708 53.9483 44.4377 54.1243 45.2386 54.2454C45.8949 54.3444 46.54 54.3114 47.1963 54.3444L46.4511 54.7186C40.8449 56.5454 38.0641 56.4244 31.7016 55.7091C27.1188 55.1918 21.0789 54.9827 17.0411 53.6951L20.5005 53.7722L22.7474 53.5741C21.5906 53.266 22.7363 53.6401 22.2023 53.1119C20.9677 53.1669 18.0756 52.3525 16.9633 51.9013C15.2392 51.208 11.2682 47.3013 9.7554 45.8376C8.82104 44.9352 7.13031 43.8127 5.82889 42.9213C2.43629 40.5992 5.52856 37.0116 3.11481 32.8517C2.63651 32.0263 1.99136 31.7952 2.0136 30.5517C2.0581 28.4717 4.06029 27.0521 4.88341 23.3764L5.25048 24.642L6.00686 28.3837C6.31831 27.5583 6.32943 24.785 6.35168 23.5195C6.35168 22.2319 5.95124 20.7462 5.52856 19.7007C4.91678 18.171 4.13815 18.05 3.48188 16.9275C4.34949 14.8145 11.524 13.2408 13.3037 11.447C13.6819 10.5446 13.0924 11.491 13.6152 10.9738C13.8933 10.6987 13.7598 10.8307 14.0156 10.6656C14.2937 10.4896 14.7164 10.2915 15.0723 10.1044C15.3504 9.65319 16.2069 8.77279 17.0634 8.31058V8.25555L13.3927 9.25701C13.2926 9.41108 13.3816 9.34505 13.0145 9.69721L11.2459 10.7977C7.67535 12.6025 -2.23548 14.6495 3.0147 19.1175C4.34949 20.251 3.91568 21.6046 3.28166 23.5635C3.24829 23.6515 3.05919 24.1578 3.03694 24.2018C3.0147 24.2458 2.98133 24.3008 2.95908 24.3559L2.46966 24.8951C2.0581 26.6229 -0.856199 28.7248 0.245005 31.9713L1.32396 33.9192C1.75777 34.3044 1.43519 33.8862 1.85788 34.5355C2.51415 35.5259 3.24829 38.7064 3.19267 39.7738C3.1593 40.6322 3.11481 41.0504 3.05919 41.3476C3.05919 41.3476 3.9713 42.7232 4.18264 43.1744C4.38286 43.6366 5.76215 44.539 5.76215 44.539L6.93009 45.6065L8.45398 47.3673Z" fill="#090C3F"/>
<path fill-rule="evenodd" clip-rule="evenodd" d="M15.0714 10.1041C14.5931 11.1055 13.3139 13.9338 12.7911 14.5171C10.7778 16.7291 10.8001 15.2984 11.0448 19.4253C11.7678 22.5947 12.8579 21.1421 12.4797 28.3503C12.3907 30.0561 12.413 31.7839 12.7578 33.4126C13.2138 35.5476 13.7922 35.5806 14.4708 36.8132L13.0247 36.2299C10.5999 34.9863 9.42079 32.6973 8.898 29.5499C8.54205 29.9681 8.44195 30.0341 8.35296 31.2116C8.29734 31.96 8.31959 32.6423 8.25285 33.3796L7.49647 30.6394C6.81795 32.7413 7.69669 36.3069 8.55318 37.7926C9.78786 39.9166 10.9002 41.4903 12.8801 42.5027C12.8468 41.7214 12.7689 40.3017 13.0136 39.5424C13.1471 39.0802 13.1471 39.1902 13.2138 39.0582C14.5931 40.852 15.572 42.5798 17.4184 44.4176C18.9423 45.9363 20.811 47.2899 23.5807 47.9502C29.0422 49.2488 33.2691 47.7851 37.7073 50.6904L39.0643 51.945C36.4837 51.7579 32.3347 51.8019 29.9543 52.5173C31.3336 53.4637 38.0521 54.3881 40.6104 53.9259C41.1332 53.8269 41.6783 53.6728 42.0676 53.3867C42.4903 53.0785 42.4013 53.0785 42.5793 52.8034L42.9797 52.1211C46.3945 52.5833 47.9407 52.8144 50.2766 48.5445C51.1219 46.9818 51.4445 46.3875 52.5457 45.298C53.3132 44.5277 55.0151 43.2731 55.9494 42.7999C57.1841 39.8946 58.5634 37.4514 58.1963 33.6767C58.0406 32.037 58.2297 30.3642 57.7514 30.7164C57.9294 32.6533 57.6847 34.304 57.351 36.1859C57.2064 37.0002 56.9505 37.6936 56.7169 38.4419C56.3832 39.5534 56.361 39.9716 55.6602 40.5218L55.6491 39.4874C53.8694 41.6774 55.2375 41.4683 50.0986 45.7162C49.0196 46.5966 47.8962 48.4674 46.1721 48.9737C48.1186 45.188 46.9841 46.2334 50.5435 42.8659C52.0896 41.3912 54.0918 39.5094 55.0818 36.6811C53.9361 37.5615 53.4801 39.4433 49.4646 42.4477C45.2266 45.6061 43.458 45.4631 42.1121 46.3655C43.0131 46.8717 44.4146 46.7286 45.5603 46.6516C44.2366 48.7426 40.4102 48.2693 37.9297 48.0272C35.5049 47.7961 32.001 47.576 29.7319 47.1358C30.8887 47.0038 32.2902 46.5196 33.0244 45.9143C28.9533 45.6392 26.9177 45.8593 23.3582 44.2525C21.2115 43.2841 18.0302 40.7419 17.5408 38.673C18.7532 39.2563 19.6764 40.4338 21.1447 41.0501L20.0101 38.8491C22.0902 39.4764 23.0245 39.1682 25.1157 39.4654C27.04 41.4022 25.1936 42.5247 29.7652 43.174C31.8342 43.4712 32.2012 45.6502 36.5282 43.9554C38.7084 43.108 37.4181 43.2071 39.5092 43.8453C42.5681 44.7918 47.3289 41.3582 48.4301 39.9936C45.8384 40.4668 42.6794 43.7353 39.3424 42.2936L38.4636 41.7654C38.4414 41.6994 38.3635 41.6994 38.319 41.6774C36.1389 43.086 32.8686 44.2965 31.1 41.7104C26.7508 42.2606 27.9967 40.0706 26.1724 38.3649C25.1602 38.1558 24.0479 38.9811 22.5907 38.8271C17.7855 38.3429 21.5563 32.07 21.4117 29.7039C14.6154 28.0422 19.4206 25.5 18.1859 22.3416C16.0836 17.0152 20.6775 17.1583 20.989 13.8458C18.1414 12.5141 17.8856 12.184 17.652 8.05713C16.6287 8.35426 15.4162 9.5428 15.0714 10.1041Z" fill="#807E84"/>
<path fill-rule="evenodd" clip-rule="evenodd" d="M13.6488 41.9748C14.2049 42.5141 14.8723 43.4275 15.5064 44.1098C16.83 45.5404 20.6787 48.3247 22.7699 48.7979C26.9856 49.7443 32.7808 49.095 36.2735 51.12C31.6129 51.175 25.4506 51.6592 21.1792 50.3826C19.0213 49.7443 13.76 45.4634 13.6488 41.9748ZM13.304 11.447C12.1026 13.3178 6.8747 15.1006 4.65005 16.7514C4.82802 17.9289 6.18506 18.8643 6.69673 20.7682C7.04155 22.0008 7.18615 24.774 6.55213 25.9956L6.35191 23.5195C6.32966 24.785 6.31854 27.5583 6.00709 28.3837L5.2507 24.642C5.19509 25.9075 3.92704 27.9875 3.43761 29.209C2.28079 32.0593 3.20402 31.1569 4.27186 33.49C6.52988 38.4642 2.67011 39.5977 7.18615 42.8882C10.0115 44.9462 11.8802 46.3988 14.1271 48.7649C16.7188 51.4941 17.8534 51.8683 21.3794 52.8808C21.7354 52.9798 22.8811 53.0789 22.2026 53.1119C22.7365 53.6401 21.5908 53.2659 22.7476 53.5741L20.5007 53.7722C22.3805 53.7832 25.1391 54.1904 27.0746 54.4215C29.3103 54.6746 31.4015 54.8837 33.5817 55.1918C40.7784 56.2153 46.2288 54.6746 46.4513 54.7186L47.1965 54.3444C46.5403 54.3114 45.8951 54.3444 45.2389 54.2454C44.438 54.1243 44.171 53.9482 43.7928 53.5741C46.0397 53.8382 46.7294 53.5631 48.6092 52.6166C48.9652 52.4406 48.6759 52.5506 49.0319 52.4186L49.7104 51.6812C50.0219 50.6578 51.657 48.0826 52.4022 46.9051C53.1364 45.7605 53.37 45.8046 54.2932 45.0342C55.1052 44.3519 55.5056 43.8567 55.9506 42.8002C55.0162 43.2734 53.3144 44.528 52.5468 45.2983C51.4456 46.3878 51.1231 46.9821 50.2777 48.5448C47.9418 52.8147 46.3957 52.5836 42.9808 52.1214L42.5804 52.8037C42.4024 53.0789 42.4914 53.0789 42.0687 53.387C41.6794 53.6731 41.1344 53.8272 40.6116 53.9262C38.0532 54.3884 31.3348 53.464 29.9555 52.5176C32.3359 51.8023 36.4848 51.7583 39.0654 51.9453L37.7084 50.6908C33.2702 47.7855 29.0434 49.2491 23.5819 47.9505C20.8122 47.2902 18.9434 45.9366 17.4196 44.4179C15.5731 42.5801 14.5942 40.8523 13.215 39.0585C13.1482 39.1906 13.1482 39.0805 13.0147 39.5427C12.77 40.3021 12.8479 41.7217 12.8813 42.5031C10.9013 41.4906 9.789 39.9169 8.55432 37.7929C7.69782 36.3072 6.81909 32.7416 7.4976 30.6397L8.25399 33.3799C8.32073 32.6426 8.29848 31.9603 8.3541 31.2119C8.44308 30.0344 8.54319 29.9684 8.89914 29.5502C9.42193 32.6976 10.601 34.9867 13.0259 36.2302C12.6699 35.5919 12.6143 35.658 12.2806 35.1957C8.75453 30.2765 11.7801 26.4358 9.88911 21.0984C9.4553 19.8878 8.45421 17.6538 8.99925 16.5313C9.68889 17.4887 10.2228 18.7323 11.0459 19.4256C10.8012 15.2987 10.779 16.7294 12.7923 14.5174C13.3151 13.9341 14.5943 11.1058 15.0726 10.1044C14.7166 10.2915 14.2939 10.4895 14.0158 10.6656C13.76 10.8307 13.8935 10.6986 13.6154 10.9738C13.0926 11.491 13.6821 10.5446 13.304 11.447Z" fill="#555A5B"/>
<path fill-rule="evenodd" clip-rule="evenodd" d="M50.0663 18.6993C49.9439 17.3346 49.0652 16.5533 48.8538 14.9796C49.2543 15.1997 49.5323 15.5078 49.9105 15.7829C50.3666 16.0911 50.4778 16.2451 50.9672 16.6083C51.2342 15.6839 51.3232 15.992 51.5123 14.6164C51.4455 14.5944 51.0117 14.4293 50.8783 14.3523C50.4111 14.0662 50.7337 14.3083 50.4 13.9671L51.4455 13.824C51.7459 13.1307 52.3354 12.9216 52.8248 12.1623C53.648 10.8967 53.6368 9.56512 54.2264 7.36412C54.4155 6.62679 54.4711 5.61433 54.8048 4.99805C54.8493 4.6679 54.9605 4.98704 54.7825 4.4478C54.5601 3.77649 54.7492 4.10664 54.5156 4.34875C54.1596 5.85644 53.8148 5.94448 53.1474 6.98995C52.4578 8.05744 52.1129 8.82778 52.4911 10.3355C51.034 10.1594 52.024 10.2804 51.6458 9.9723C51.2342 9.26798 50.9005 9.23497 50.0551 9.05889H48.9206L48.2865 9.93929C46.2955 7.9694 46.8405 11.2379 46.6292 12.2723L46.4512 12.8666L46.1731 12.4924C45.1609 12.1293 45.4946 11.8652 44.7827 11.1829C42.8473 9.32301 41.8462 9.98331 40.9563 10.0163C40.1999 10.0493 39.5437 9.78522 38.765 9.67517C34.1266 9.01487 36.4959 9.76321 32.5582 7.83734C31.7907 7.46317 31.7907 7.23206 30.7896 7.15503C31.4682 8.50864 31.368 8.54166 31.0121 10.1484C30.7896 11.1278 30.8119 11.9532 30.0444 12.6025L29.6884 11.6561C29.4326 11.546 28.9654 11.7881 28.7318 10.1154C28.4649 8.16749 28.298 8.49763 26.3181 8.6407C25.5395 8.69572 25.3615 8.6517 24.9388 8.36558L23.4483 8.13447L24.594 7.3091C25.0055 7.01196 25.2058 6.82488 25.6729 6.49473C24.4383 6.35166 21.6129 5.84543 21.1346 4.61287L19.8555 3.80951C19.9556 4.888 20.4561 4.54684 21.9133 6.57176C22.7698 7.77131 22.6585 8.6517 24.2937 9.25698C27.3748 10.4125 25.5061 9.55411 26.4627 12.1733C27.03 13.747 28.0978 13.725 29.1656 14.5504C29.6662 15.3868 29.6217 16.2011 30.5783 16.9054C31.7574 17.7638 32.1578 17.2906 33.4147 17.4227C35.9063 17.6758 34.8941 19.6457 39.21 17.7858C39.3657 18.05 39.577 18.4572 39.7995 18.6993C41.112 18.6883 40.4558 18.116 41.9908 19.2165C44.5936 21.0763 46.0285 19.2605 47.0963 19.4256C48.3422 19.6017 48.5313 20.2179 49.9773 19.6237L50.0663 18.6993Z" fill="#B2B2B2"/>
<path fill-rule="evenodd" clip-rule="evenodd" d="M48.4313 39.9939C47.3301 41.3585 42.5693 44.7921 39.5104 43.8456C37.4193 43.2073 38.7096 43.1083 36.5294 43.9557C32.2025 45.6504 31.8354 43.4715 29.7665 43.1743C25.1948 42.525 27.0413 41.4025 25.1169 39.4656C23.0258 39.1685 22.0914 39.4767 20.0114 38.8494L21.1459 41.0504C19.6777 40.4341 18.7544 39.2566 17.542 38.6733C18.0314 40.7422 21.2127 43.2844 23.3595 44.2528C26.9189 45.8595 28.9545 45.6394 33.0256 45.9146C32.2914 46.5198 30.8899 47.0041 29.7331 47.1361C32.0022 47.5763 35.5061 47.7964 37.9309 48.0275C40.4114 48.2696 44.2378 48.7429 45.5615 46.6519C44.4158 46.7289 43.0143 46.872 42.1133 46.3658C43.4592 45.4634 45.2278 45.6064 49.4658 42.448C53.4813 39.4436 53.9373 37.5618 55.083 36.6814C55.1498 36.4063 55.1275 36.3732 55.2721 36.1201C55.5836 35.5479 55.4278 35.812 55.717 35.5039C56.0174 37.4517 55.8172 37.7159 55.6503 39.4877L55.6614 40.5221C56.3622 39.9719 56.3844 39.5537 56.7181 38.4422C56.9517 37.6938 57.2076 37.0005 57.3522 36.1862C57.6859 34.3043 57.9306 32.6536 57.7526 30.7167C57.2966 31.6191 56.8516 32.0593 56.4178 33.3139C55.4723 32.9177 55.9618 29.6052 56.251 28.6588C56.5958 27.5252 57.875 25.7314 57.9973 24.5979C58.242 22.3089 53.7037 20.7352 53.3478 17.3566L51.8684 18.248C52.5024 21.0983 53.4479 21.1093 52.0464 24.3448C51.3122 26.0396 50.6448 28.6918 51.8684 30.3205C54.2377 33.4899 51.9574 33.1598 51.3567 35.5149C50.5781 38.5632 50.9897 38.5412 48.4313 39.9939Z" fill="#B2B2B2"/>
<path fill-rule="evenodd" clip-rule="evenodd" d="M23.9704 21.2635C25.0604 17.2687 34.3817 22.32 35.4162 22.6501C37.0736 23.1784 37.8077 21.6817 38.5641 21.0984C37.9078 24.7631 36.9178 23.3104 35.8723 25.0492C33.2583 29.3632 24.8713 27.9435 25.4386 21.0434L23.9704 21.2635ZM19.8548 9.125C20.3219 11.6561 21.3453 11.2159 23.303 12.2064C24.6378 12.8887 25.6722 14.5945 26.0059 15.9811H26.0727C25.8279 16.3002 26.2729 16.6084 24.9715 16.1132C24.838 16.0581 24.2039 15.673 24.1038 15.6179C23.392 15.1337 23.3252 14.8586 22.5355 14.4404C22.7246 19.3046 17.3965 18.7544 21.8792 23.0683C21.957 23.8497 21.957 23.2884 21.6901 23.4975L21.8792 24.1358C21.412 23.9047 21.0561 23.7176 20.2774 23.6956L20.0772 26.821C21.6567 27.3933 26.8847 27.7895 26.7623 30.3536C26.6956 31.7182 26.8847 30.5847 26.462 31.0579C25.8279 34.6676 30.3885 34.8547 31.8011 31.179L32.4908 29.9244C32.1015 29.6163 33.1915 29.6713 31.8234 29.6713C31.7122 31.289 30.2773 32.6757 28.9758 31.8723C28.7089 32.5216 28.7645 32.6317 28.0192 32.6317C27.2406 31.3881 28.1527 29.0991 26.7512 28.1416C25.3608 27.1952 23.6144 28.0426 22.9359 26.1497L23.6812 25.5775C23.7145 25.5554 23.7813 25.5334 23.8146 25.5004C23.4698 24.8731 23.4253 23.9487 23.67 23.2994C25.6945 23.0023 24.8825 24.8181 26.8513 26.4799C26.9069 26.5239 27.0738 26.6559 27.1182 26.7C27.1739 26.733 27.2295 26.777 27.274 26.81L27.5743 27.0631L29.3763 27.6244C31.0448 27.6904 34.9045 28.2297 36.2616 25.7865C36.2393 26.6119 35.7388 27.1952 35.5386 27.8225C37.0068 26.9971 37.7298 24.0368 39.6208 24.7961C40.811 25.3133 40.2993 26.755 41.9901 28.2627C41.6675 27.5143 41.6786 27.4043 41.9344 26.9421C43.9366 31.6962 49.02 27.9765 49.6762 27.8445L49.4204 27.2722C48.3748 28.2297 45.4049 29.9574 43.3916 28.1636C42.2904 27.1842 42.4461 26.876 41.712 25.4454C41.3783 24.8071 40.455 24.2348 40.9333 22.452C41.4673 22.1769 40.6775 22.0999 41.3227 22.5291C42.3905 23.2554 41.9011 24.8291 45.0823 23.6186C48.3748 22.364 48.0634 22.463 50.3103 23.5085L50.7329 21.6267C49.1534 22.2429 49.0311 21.6157 47.7964 21.3515C45.7163 20.9113 43.6919 24.3889 40.7554 20.5372C39.2537 21.7477 39.1536 20.5592 38.5418 19.4807C36.7621 20.8233 33.6142 20.4271 31.4563 19.3376C29.7767 18.4792 29.5097 19.0185 27.6855 18.6883C25.2273 18.2481 25.6945 18.7874 23.9036 18.8754C23.8258 17.918 24.0371 17.5218 24.5488 16.8615C25.9725 16.8945 27.2517 17.0596 28.1638 16.1462C25.4164 14.5174 25.4386 11.0619 24.8825 10.6767C23.6033 10.3686 22.9581 10.7317 21.7346 10.1154C22.3464 9.84032 22.3575 10.1044 22.9804 9.67525C21.5566 8.26661 21.6567 7.19912 20.6 5.87852C18.0528 2.68708 19.6323 4.60195 18.1084 2.32391C18.1418 3.93064 18.2975 4.83305 18.887 6.19767C19.2541 7.02304 19.877 8.48671 20.422 9.01495C20.1884 9.24605 21.0004 9.3451 19.8548 9.125Z" fill="#555A5B"/>
<path fill-rule="evenodd" clip-rule="evenodd" d="M18.1091 2.32398C19.633 4.60201 18.0535 2.68715 20.6008 5.87859C21.6575 7.19919 21.5574 8.26667 22.9811 9.67531C22.3582 10.1045 22.3471 9.84039 21.7353 10.1155C22.9589 10.7318 23.604 10.3686 24.8832 10.6768C25.4394 11.0619 25.4171 14.5175 28.1646 16.1462C27.2525 17.0597 25.9733 16.8946 24.5495 16.8616C24.0378 17.5219 23.8265 17.918 23.9044 18.8755C25.6952 18.7874 25.228 18.2482 27.6863 18.6884C29.5105 19.0185 29.7774 18.4793 31.4571 19.3377C33.615 20.4272 36.7629 20.8234 38.5426 19.4808C39.1544 20.5592 39.2545 21.7478 40.7561 20.5372C43.6927 24.389 45.7171 20.9114 47.7971 21.3516C49.0318 21.6157 49.1542 22.243 50.7337 21.6267C50.7114 20.7243 50.489 19.3377 50.0663 18.6994L49.9773 19.6238C48.5313 20.2181 48.3422 19.6018 47.0964 19.4257C46.0285 19.2607 44.5936 21.0765 41.9908 19.2166C40.4558 18.1161 41.1121 18.6884 39.7995 18.6994C39.577 18.4573 39.3657 18.0501 39.21 17.786C34.8942 19.6458 35.9064 17.6759 33.4148 17.4228C32.1578 17.2908 31.7574 17.764 30.5783 16.9056C29.6217 16.2013 29.6662 15.3869 29.1657 14.5505C28.0978 13.7251 27.03 13.7472 26.4627 12.1734C25.5061 9.55426 27.3748 10.4126 24.2937 9.25712C22.6586 8.65185 22.7698 7.77145 21.9133 6.57191C20.4561 4.54699 19.9556 4.88814 19.8555 3.80965C19.2882 3.14935 18.7209 2.77518 18.3316 1.9278C18.0535 2.20293 18.0535 1.53162 18.1091 2.32398Z" fill="#7E7D82"/>
<path fill-rule="evenodd" clip-rule="evenodd" d="M40.834 36.8907C43.0252 37.0998 43.3478 36.7147 44.7605 35.9553C45.3055 36.2745 44.7382 35.9553 45.1943 36.2524C45.2499 36.2855 45.4167 36.3955 45.4724 36.4285L47.4857 37.0778C47.519 37.0338 47.5969 37.1108 47.6525 37.1439C46.6403 37.9472 45.5168 37.5951 44.1598 38.5195C43.0697 39.2678 42.4802 39.8511 40.7561 39.774L40.834 36.8907ZM30.5116 36.6596C33.2145 35.5701 30.9899 36.2304 33.8597 36.9348C36.7851 37.6501 37.3412 36.2194 38.7428 35.5371C38.7428 37.441 37.6416 38.8056 36.7517 38.9047C35.8952 38.9927 37.4636 38.7066 36.2067 38.8496C35.784 38.9047 35.2612 39.2018 34.705 39.2568C33.7929 39.3338 33.8819 39.0807 33.4815 38.9267L33.2368 38.8386C31.5571 38.6185 31.6684 40.4123 29.2657 37.1439L30.5116 36.6596ZM30.3113 40.5004L34.3713 40.3133L32.3803 41.2707C34.1044 41.6999 36.1288 40.9076 37.2856 40.0932C38.5426 39.2018 39.0431 37.6721 39.9886 37.0228C40.0331 37.8262 40.1109 38.8496 39.8996 39.587C39.666 40.3683 39.1543 40.6655 38.8318 41.2817C41.2344 41.942 43.3144 40.4343 44.716 39.5209C47.3411 37.7931 48.9428 38.3104 49.2098 36.2855C47.5079 36.5826 46.3066 36.5716 45.083 35.273C44.9051 35.0859 44.9941 35.5922 44.8606 35.0309C44.8494 34.9539 44.7938 34.9429 44.7605 34.9098C43.0475 36.2524 41.1454 37.3419 39.0765 35.0639L38.5426 34.4586C37.7973 35.3721 36.7295 36.4615 34.9831 36.3185C33.259 36.1754 32.7251 34.9869 31.8797 34.3046C30.7785 35.5041 28.0533 36.6046 26.3181 34.9539C24.2603 32.995 26.7408 30.3208 23.1591 30.0566C23.2036 31.5863 22.5362 35.5151 22.9144 36.3295C24.8276 36.5936 25.9176 35.1299 27.8308 36.7477C29.2658 37.9582 27.9643 37.9912 30.3113 40.5004Z" fill="#555A5B"/>
<path fill-rule="evenodd" clip-rule="evenodd" d="M32.9707 28.7908C34.7727 27.2721 34.1164 29.6491 36.5079 27.8773C37.4979 27.151 38.143 25.7754 39.2108 25.4122C40.7236 26.2156 40.2787 27.6572 42.1363 28.9888C43.7158 30.1114 42.6257 28.1525 43.6379 29.6601C44.3832 30.7717 43.7825 31.2889 43.2041 31.8832C42.2364 31.8832 42.5256 31.2889 41.4911 31.63C40.6124 31.9272 40.8571 31.487 40.0117 30.1884C39.589 29.5391 39.311 29.4841 38.8327 28.8238C38.0874 29.5061 38.2876 30.3755 36.7748 31.8171L35.3511 31.476C34.3833 31.1898 34.7282 31.3769 34.261 30.8267C33.7271 30.2104 33.093 29.44 32.9707 28.7908ZM32.4924 29.9243C33.5046 30.6506 33.9495 31.575 34.2499 33.0937C35.3288 32.8736 34.5391 33.2588 35.3399 32.4444C35.2176 33.0937 35.3622 32.9616 35.8739 33.2698L37.1419 32.7525C37.9762 32.0922 38.2097 30.8707 38.8549 29.8692L39.0996 30.5295C39.9561 31.3329 39.8894 32.1473 40.757 32.9176C41.2019 32.9066 41.5467 32.7415 41.8026 32.7085C43.3932 32.4884 42.6479 33.8971 44.5055 31.6521C44.6946 31.2999 44.5945 31.2999 44.7057 30.9807C44.7169 30.9257 44.7391 30.8597 44.7614 30.8047L44.9949 30.2544C46.9526 31.2119 46.5633 31.2669 47.164 33.3798C48.2874 33.4128 47.8091 33.5009 48.7546 32.2133C49.7335 32.9506 50.7902 33.3578 50.8458 31.7621C50.8124 31.0908 50.9904 31.3329 50.4787 30.8047C50.4898 31.3769 50.4453 31.465 50.2451 31.8171C49.1884 32.0262 49.1773 31.8061 48.7657 31.2008L47.8647 32.2463C46.8637 31.454 47.5533 30.7717 45.8292 30.1003C46.5077 29.6822 47.075 29.7592 47.8759 29.4841C48.7212 29.1979 49.2329 28.7687 49.7446 28.3836L49.6778 27.8443C49.0216 27.9764 43.9382 31.6961 41.936 26.9419C41.6802 27.4041 41.6691 27.5142 41.9917 28.2625C40.3009 26.7548 40.8126 25.3132 39.6224 24.7959C37.7314 24.0366 37.0084 26.9969 35.5402 27.8223C35.7404 27.195 36.2409 26.6118 36.2632 25.7864C34.9061 28.2295 31.0464 27.6903 29.3779 27.6242C29.7783 27.9764 29.0553 27.6352 30.0008 27.9874C30.6126 28.2185 30.8128 28.0314 31.5803 28.4276C31.7026 29.6712 31.2021 30.4305 30.5458 31.0688C29.9674 30.8707 30.1009 30.9807 29.8784 30.3975C29.5225 30.7166 29.3445 30.9477 28.6104 30.9587C28.1766 28.3506 28.7883 28.9008 27.042 27.118L27.5759 27.063L27.2756 26.8099C27.2311 26.7768 27.1755 26.7328 27.1198 26.6998C27.0754 26.6558 26.9085 26.5237 26.8529 26.4797C24.8841 24.818 25.6961 23.0021 23.6716 23.2993C23.4269 23.9486 23.4714 24.873 23.8162 25.5003C23.7829 25.5333 23.7161 25.5553 23.6828 25.5773L22.9375 26.1496C23.616 28.0424 25.3624 27.195 26.7528 28.1415C28.1543 29.0989 27.2422 31.3879 28.0208 32.6315C28.7661 32.6315 28.7105 32.5214 28.9774 31.8721C30.2789 32.6755 31.7138 31.2889 31.825 29.6712C33.1932 29.6712 32.1031 29.6161 32.4924 29.9243Z" fill="#7E7D82"/>
<path fill-rule="evenodd" clip-rule="evenodd" d="M26.1518 21.2084C29.2775 21.8026 31.9471 23.4204 34.8169 24.3338C34.2496 25.0931 33.3041 25.4343 32.3141 25.5003C31.402 25.5663 30.0895 25.3022 29.2552 25.0271C27.6201 24.4988 26.3187 22.0117 26.1518 21.2084ZM23.9717 21.2634L25.44 21.0433C24.8727 27.9434 33.2596 29.3631 35.8736 25.0491C36.9192 23.3103 37.9091 24.763 38.5654 21.0983C37.809 21.6816 37.0749 23.1782 35.4175 22.65C34.3831 22.3199 25.0618 17.2686 23.9717 21.2634Z" fill="#090C3F"/>
<path fill-rule="evenodd" clip-rule="evenodd" d="M15.506 44.1098C14.872 43.4275 14.2046 42.514 13.6484 41.9748C13.7597 45.4634 19.021 49.7443 21.1789 50.3826C25.4502 51.6592 31.6125 51.175 36.2732 51.1199C32.7805 49.095 26.9852 49.7443 22.7695 48.7979C20.6783 48.3247 16.8297 45.5404 15.506 44.1098Z" fill="#0C0B3C"/>
<path fill-rule="evenodd" clip-rule="evenodd" d="M32.9707 28.7911C33.0931 29.4404 33.7271 30.2108 34.261 30.8271C34.7282 31.3773 34.3834 31.1902 35.3511 31.4763L36.7749 31.8175C38.2876 30.3758 38.0874 29.5065 38.8327 28.8241C39.311 29.4844 39.589 29.5395 40.0117 30.1888C40.8571 31.4874 40.6124 31.9276 41.4911 31.6304C42.5256 31.2893 42.2364 31.8835 43.2041 31.8835C43.7825 31.2893 44.3832 30.772 43.6379 29.6605C42.6257 28.1528 43.7158 30.1117 42.1363 28.9892C40.2787 27.6576 40.7236 26.216 39.2109 25.4126C38.143 25.7758 37.4979 27.1514 36.5079 27.8777C34.1164 29.6495 34.7727 27.2724 32.9707 28.7911Z" fill="#B2B0B0"/>
<path fill-rule="evenodd" clip-rule="evenodd" d="M13.0259 36.2302L14.4719 36.8134C13.7934 35.5809 13.215 35.5479 12.759 33.4129C12.4141 31.7842 12.3919 30.0564 12.4809 28.3506C12.8591 21.1423 11.769 22.595 11.046 19.4256C10.2229 18.7322 9.68894 17.4887 8.9993 16.5312C8.45426 17.6538 9.45535 19.8878 9.88916 21.0983C11.7801 26.4357 8.75459 30.2765 12.2807 35.1957C12.6144 35.6579 12.67 35.5919 13.0259 36.2302Z" fill="#0C0B3C"/>
<path fill-rule="evenodd" clip-rule="evenodd" d="M22.202 53.1119C22.8805 53.0789 21.7348 52.9799 21.3789 52.8808C17.8528 51.8684 16.7182 51.4942 14.1265 48.765C11.8796 46.3989 10.0109 44.9462 7.18558 42.8883C2.66953 39.5978 6.5293 38.4643 4.27128 33.49C3.20345 31.157 2.28021 32.0594 3.43703 29.2091C3.92646 27.9876 5.19451 25.9076 5.25013 24.642L4.88306 23.3765C4.05994 27.0521 2.05775 28.4718 2.01326 30.5517C1.99101 31.7953 2.63616 32.0264 3.11446 32.8518C5.52821 37.0116 2.43594 40.5993 5.82854 42.9213C7.12996 43.8127 8.8207 44.9352 9.75505 45.8376C11.2678 47.3013 15.2388 51.2081 16.9629 51.9014C18.0753 52.3526 20.9673 53.167 22.202 53.1119Z" fill="#28EBF7"/>
<path fill-rule="evenodd" clip-rule="evenodd" d="M55.0826 36.6814C54.0926 39.5097 52.0904 41.3916 50.5443 42.8662C46.9849 46.2338 48.1194 45.1883 46.1729 48.974C47.897 48.4678 49.0204 46.5969 50.0994 45.7165C55.2383 41.4686 53.8702 41.6777 55.6499 39.4877C55.8167 37.7159 56.0169 37.4518 55.7166 35.5039C55.4274 35.812 55.5831 35.5479 55.2717 36.1202C55.1271 36.3733 55.1493 36.4063 55.0826 36.6814Z" fill="#090B3E"/>
<path fill-rule="evenodd" clip-rule="evenodd" d="M29.2656 37.1437C31.6683 40.4122 31.557 38.6184 33.2366 38.8385L33.4813 38.9265C33.8818 39.0806 33.7928 39.3337 34.7049 39.2567C35.2611 39.2016 35.7839 38.9045 36.2065 38.8495C37.4635 38.7064 35.8951 38.9926 36.7516 38.9045C37.6414 38.8055 38.7427 37.4409 38.7427 35.537C37.3411 36.2193 36.785 37.6499 33.8595 36.9346C30.9897 36.2303 33.2144 35.57 30.5114 36.6595L29.2656 37.1437Z" fill="#7E7D82"/>
<path fill-rule="evenodd" clip-rule="evenodd" d="M26.1504 21.2083C26.3172 22.0117 27.6187 24.4988 29.2538 25.027C30.088 25.3022 31.4006 25.5663 32.3127 25.5003C33.3027 25.4342 34.2481 25.0931 34.8154 24.3337C31.9456 23.4203 29.276 21.8026 26.1504 21.2083Z" fill="#05FCFC"/>
<path fill-rule="evenodd" clip-rule="evenodd" d="M53.3477 17.3566C53.7036 20.7352 58.2419 22.3089 57.9972 24.5979C57.8748 25.7314 56.5957 27.5252 56.2508 28.6587C55.9616 29.6052 55.4722 32.9177 56.4177 33.3139C56.3843 33.2478 56.3621 33.1708 56.3509 33.1268L56.2175 32.5215C55.9394 29.3851 59.1318 26.6448 58.9983 22.7601C57.5967 21.5825 54.7269 18.8753 54.0039 16.8174C53.4478 17.0705 53.7481 16.5753 53.3477 17.3566Z" fill="#28EBF7"/>
<path fill-rule="evenodd" clip-rule="evenodd" d="M40.8347 36.8906L40.7568 39.7739C42.4809 39.8509 43.0705 39.2676 44.1606 38.5193C45.5176 37.5949 46.641 37.947 47.6533 37.1437C47.5976 37.1107 47.5198 37.0336 47.4864 37.0776L45.4731 36.4284C45.4175 36.3953 45.2506 36.2853 45.195 36.2523C44.739 35.9551 45.3063 36.2743 44.7612 35.9551C43.3486 36.7145 43.026 37.0997 40.8347 36.8906Z" fill="#7E7D82"/>
<path fill-rule="evenodd" clip-rule="evenodd" d="M6.35125 23.5192L6.55147 25.9954C7.18549 24.7738 7.04089 22.0006 6.69607 20.768C6.1844 18.8641 4.82736 17.9287 4.64939 16.7512C6.87404 15.1004 12.102 13.3176 13.3033 11.4468C11.5236 13.2406 4.34906 14.8143 3.48145 16.9273C4.13772 18.0498 4.91635 18.1708 5.52813 19.7005C5.95081 20.746 6.35125 22.2317 6.35125 23.5192Z" fill="#2FECED"/>
<path fill-rule="evenodd" clip-rule="evenodd" d="M30.7891 7.15515C31.7902 7.23218 31.7902 7.46329 32.5577 7.83746C36.4953 9.76333 34.126 9.01499 38.7644 9.67529C39.5431 9.78534 40.1993 10.0495 40.9557 10.0164C41.8456 9.98343 42.8467 9.32313 44.7821 11.183C45.494 11.8653 45.1603 12.1294 46.1725 12.4926C44.2371 9.49921 43.7143 8.97097 39.2094 8.79489C37.4408 8.72886 36.0726 8.75087 34.571 8.11258C33.9258 7.82645 31.0894 6.23073 30.7891 7.15515Z" fill="#2FECED"/>
<path fill-rule="evenodd" clip-rule="evenodd" d="M29.3779 27.6244L27.5759 27.0631L27.042 27.1181C28.7883 28.9009 28.1766 28.3507 28.6104 30.9589C29.3445 30.9479 29.5225 30.7168 29.8784 30.3976C30.1009 30.9809 29.9674 30.8708 30.5458 31.0689C31.2021 30.4306 31.7026 29.6713 31.5803 28.4277C30.8128 28.0315 30.6126 28.2186 30.0008 27.9875C29.0553 27.6354 29.7783 27.9765 29.3779 27.6244Z" fill="#B2B0B0"/>
<path fill-rule="evenodd" clip-rule="evenodd" d="M50.4777 30.8047C50.3553 29.5281 50.144 29.319 49.7435 28.3836C49.2318 28.7688 48.7202 29.198 47.8748 29.4841C47.0739 29.7592 46.5066 29.6822 45.8281 30.1004C47.5522 30.7717 46.8626 31.454 47.8637 32.2464L48.7647 31.2009C49.1762 31.8062 49.1874 32.0263 50.2441 31.8172C50.4443 31.465 50.4888 31.377 50.4777 30.8047Z" fill="#B2B0B0"/>
<path fill-rule="evenodd" clip-rule="evenodd" d="M50.845 31.762C50.7894 33.3577 49.7327 32.9506 48.7538 32.2132C47.8083 33.5008 48.2866 33.4128 47.1632 33.3798C46.5625 31.2668 46.9518 31.2118 44.9941 30.2543C45.9507 31.4869 46.0397 32.2462 45.4391 34.0621C48.3422 35.5587 52.1353 32.7415 50.845 31.762Z" fill="#555A5B"/>
<path fill-rule="evenodd" clip-rule="evenodd" d="M30.3112 40.5001C27.9642 37.991 29.2656 37.958 27.8307 36.7474C25.9175 35.1297 24.8274 36.5934 22.9142 36.3293C22.536 35.5149 23.2034 31.5861 23.1589 30.0564L22.4915 29.9023C22.5027 31.5311 22.5472 31.9273 22.2246 33.534C20.912 40.093 25.0165 34.8546 27.4525 36.9125C28.8429 38.0901 27.8975 39.8068 30.3112 40.5001Z" fill="#2FCBD5"/>
<path fill-rule="evenodd" clip-rule="evenodd" d="M44.504 31.6523C42.6464 33.8973 43.3916 32.4887 41.801 32.7088C41.5452 32.7418 41.2004 32.9069 40.7554 32.9179C39.8878 32.1475 39.9546 31.3331 39.0981 30.5298C39.4763 32.3456 39.2872 32.2466 38.8867 33.9193C40.088 34.0954 41.3005 34.7777 42.4573 34.2055C43.3805 33.7432 44.1591 32.7748 44.504 31.6523Z" fill="#555A5B"/>
<path fill-rule="evenodd" clip-rule="evenodd" d="M37.1407 32.7526L35.8727 33.2698C35.361 32.9617 35.2164 33.0938 35.3388 32.4445C34.5379 33.2588 35.3276 32.8737 34.2487 33.0938C33.9484 31.5751 33.5034 30.6506 32.4912 29.9243C32.7693 31.1899 33.1586 31.9382 32.558 33.4019C34.3933 34.8215 36.3065 34.8986 37.1407 32.7526Z" fill="#595A5C"/>
<path fill-rule="evenodd" clip-rule="evenodd" d="M43.7266 26.1057C46.4073 28.2737 48.9434 25.6875 49.2548 24.62C48.2426 24.1578 47.4195 24.7851 46.474 25.2143C45.5174 25.6435 44.4941 25.7755 43.7266 26.1057Z" fill="#17F6FA"/>
<path fill-rule="evenodd" clip-rule="evenodd" d="M51.4453 13.8241C53.1805 13.3179 53.8146 12.3164 54.3151 10.5556C54.7712 8.98191 55.3051 6.58283 54.8045 4.99811C54.4708 5.61439 54.4152 6.62685 54.2261 7.36418C53.6366 9.56518 53.6477 10.8968 52.8246 12.1624C52.3352 12.9217 51.7456 13.1308 51.4453 13.8241Z" fill="#2FECED"/>
<path fill-rule="evenodd" clip-rule="evenodd" d="M26.462 31.0578C26.8847 30.5846 26.6956 31.7181 26.7624 30.3535C26.8847 27.7893 21.6568 27.3931 20.0773 26.8209L20.2775 23.6955L19.7324 23.4644L19.5322 26.9639C21.946 28.7027 26.4731 27.3161 26.462 31.0578Z" fill="#51CED6"/>
<path fill-rule="evenodd" clip-rule="evenodd" d="M21.691 23.4974C21.958 23.2883 21.958 23.8496 21.8801 23.0682C17.3975 18.7543 22.7255 19.3045 22.5364 14.4403L21.8245 14.0771C22.4141 16.6743 20.7456 17.5107 19.8668 19.1064C18.5209 21.5275 20.8679 22.0888 21.691 23.4974Z" fill="#2FD8EE"/>
<path fill-rule="evenodd" clip-rule="evenodd" d="M51.6448 9.97218C52.023 10.2803 51.033 10.1593 52.4901 10.3353C52.1119 8.82766 52.4568 8.05731 53.1464 6.98983C53.8138 5.94436 54.1586 5.85632 54.5146 4.34863C53.2243 5.46014 53.0574 6.24149 50.5547 7.02284C50.8105 7.31998 51.3333 7.78219 51.6114 8.15636C51.6781 8.2554 51.9673 8.76163 51.9896 8.9157C52.3122 10.7535 52.1008 9.60902 51.6448 9.97218Z" fill="#7D8185"/>
<path fill-rule="evenodd" clip-rule="evenodd" d="M46.6292 12.2722C46.8406 11.2378 46.2955 7.9693 48.2866 9.93919L48.9206 9.05879H50.0552C48.6759 7.59513 47.0964 8.78367 45.6504 9.25688L46.4068 11.8321C46.5514 12.2943 46.4401 12.0191 46.6292 12.2722Z" fill="#7D8185"/>
<path fill-rule="evenodd" clip-rule="evenodd" d="M24.9395 8.36595C25.3621 8.65208 25.5401 8.6961 26.3187 8.64107C28.2987 8.49801 28.4655 8.16786 28.7325 10.1157C28.9661 11.7885 29.4333 11.5464 29.6891 11.6564C29.2887 10.4239 29.4555 9.88464 29.3776 8.59705C27.4088 7.07836 27.2976 7.95876 24.9395 8.36595Z" fill="#2FECED"/>
<path fill-rule="evenodd" clip-rule="evenodd" d="M26.073 15.9809H26.0063C25.6726 14.5942 24.6381 12.8885 23.3033 12.2062C21.3456 11.2157 20.3223 11.6559 19.8551 9.12477L19.21 8.68457C19.9886 12.1181 20.0442 11.1167 22.7138 12.3602C24.7716 13.3287 24.9607 15.4086 26.073 15.9809Z" fill="#51CED6"/>
<path fill-rule="evenodd" clip-rule="evenodd" d="M25.6731 6.49465L26.2403 6.10947C25.1948 5.35013 22.5919 5.064 21.1348 4.61279C21.6131 5.84535 24.4384 6.35158 25.6731 6.49465Z" fill="#2FECED"/>
<path fill-rule="evenodd" clip-rule="evenodd" d="M50.9678 16.6081L51.168 17.1914C51.3682 17.0043 51.3237 17.0923 51.5351 16.8172L52.0245 15.9808C52.3693 15.3866 52.3916 15.3425 52.5584 14.6602L51.5128 14.6162C51.3237 15.9918 51.2347 15.6837 50.9678 16.6081Z" fill="#2FECED"/>
<path fill-rule="evenodd" clip-rule="evenodd" d="M16.5078 53.3979L17.4978 54.3664L35.2616 56.9195L44.4828 55.9511L47.6085 54.2783L43.7376 54.5535L25.462 53.6621L17.2976 53.1118L16.5078 53.3979Z" fill="#28EBF7"/>
<path fill-rule="evenodd" clip-rule="evenodd" d="M18.1091 2.32398C18.0535 1.53162 18.0535 2.20293 18.3316 1.9278C18.7209 2.77518 19.2882 3.14935 19.8555 3.80965L21.1347 4.61302C22.5918 5.06422 25.1947 5.35035 26.2402 6.1097L25.673 6.49487C25.2058 6.82502 25.0056 7.01211 24.594 7.30924L23.4483 8.13461L24.9388 8.36572C27.297 7.95853 27.4082 7.07814 29.377 8.59682C29.4549 9.88441 29.288 10.4237 29.6885 11.6562L30.0444 12.6026C30.8119 11.9533 30.7897 11.128 31.0121 10.1485C31.3681 8.5418 31.4682 8.50878 30.7897 7.15517C31.09 6.23075 33.9264 7.82647 34.5716 8.1126C36.0732 8.75089 37.4414 8.72888 39.21 8.79491C43.7149 8.97099 44.2377 9.49923 46.1731 12.4926L46.4512 12.8668L46.6292 12.2725C46.4401 12.0194 46.5513 12.2945 46.4067 11.8323L45.6504 9.25712C47.0964 8.78391 48.6759 7.59537 50.0552 9.05903C50.9005 9.23511 51.2342 9.26813 51.6458 9.97245C52.1019 9.60928 52.3132 10.7538 51.9906 8.91597C51.9684 8.7619 51.6792 8.25567 51.6124 8.15662C51.3343 7.78245 50.8116 7.32025 50.5557 7.02311C53.0585 6.24176 53.2253 5.4604 54.5156 4.3489C54.7492 4.10679 54.5601 3.77664 54.7826 4.44794C54.9605 4.98719 54.8493 4.66804 54.8048 4.99819C55.3054 6.58291 54.7714 8.982 54.3154 10.5557C53.8148 12.3165 53.1808 13.318 51.4456 13.8242L50.4 13.9673C50.7337 14.3084 50.4111 14.0663 50.8783 14.3524C51.0118 14.4295 51.4456 14.5945 51.5123 14.6166L52.5579 14.6606C52.3911 15.3429 52.3688 15.3869 52.024 15.9812L51.5346 16.8176C51.3232 17.0927 51.3677 17.0046 51.1675 17.1917L50.9673 16.6085C50.4779 16.2453 50.3666 16.0912 49.9106 15.7831C49.5324 15.508 49.2543 15.1998 48.8539 14.9797C49.0652 16.5534 49.9439 17.3348 50.0663 18.6994C50.489 19.3377 50.7114 20.7243 50.7337 21.6267L50.311 23.5086C48.0641 22.4631 48.3756 22.3641 45.0831 23.6186C41.9018 24.8292 42.3912 23.2555 41.3234 22.5291C40.6783 22.0999 41.468 22.177 40.9341 22.4521C40.4558 24.2349 41.379 24.8072 41.7127 25.4455C42.4469 26.8761 42.2911 27.1842 43.3923 28.1637C45.4056 29.9575 48.3756 28.2297 49.4211 27.2723L49.677 27.8445L49.7437 28.3838C50.1442 29.3192 50.3555 29.5283 50.4779 30.8049C50.9895 31.3331 50.8116 31.091 50.8449 31.7623C52.1352 32.7418 48.3422 35.559 45.439 34.0624C46.0397 32.2465 45.9507 31.4872 44.9941 30.2546L44.7605 30.8049C44.7382 30.8599 44.716 30.9259 44.7049 30.981C44.5936 31.3001 44.6938 31.3001 44.5047 31.6523C44.1598 32.7748 43.3812 33.7432 42.458 34.2054C41.3012 34.7777 40.0887 34.0954 38.8874 33.9193C39.2878 32.2465 39.4769 32.3456 39.0987 30.5298L38.854 29.8695C38.2089 30.8709 37.9753 32.0925 37.1411 32.7528C36.3068 34.8987 34.3936 34.8217 32.5583 33.4021C33.1589 31.9384 32.7696 31.1901 32.4915 29.9245L31.8019 31.1791C30.3892 34.8547 25.8287 34.6676 26.4627 31.058C26.4738 27.3163 21.9467 28.7029 19.5329 26.9641L19.7331 23.4646L20.2782 23.6957C21.0568 23.7177 21.4128 23.9048 21.8799 24.1359L21.6908 23.4976C20.8677 22.0889 18.5207 21.5277 19.8666 19.1066C20.7454 17.5109 22.4138 16.6745 21.8243 14.0773L22.5362 14.4405C23.326 14.8587 23.3927 15.1338 24.1046 15.618C24.2047 15.673 24.8387 16.0582 24.9722 16.1132C26.2736 16.6085 25.8287 16.3003 26.0734 15.9812C24.9611 15.4089 24.772 13.329 22.7142 12.3605C20.0446 11.117 19.989 12.1184 19.2103 8.68486L19.8555 9.12506C21.0012 9.34516 20.1892 9.24612 20.4228 9.01501C19.8777 8.48677 19.2548 7.02311 18.8878 6.19774C18.2982 4.83312 18.1425 3.93071 18.1091 2.32398Z" fill="#090C3F"/>
<path fill-rule="evenodd" clip-rule="evenodd" d="M43.7266 26.1057C44.4941 25.7755 45.5174 25.6435 46.474 25.2143C47.4195 24.7851 48.2426 24.1578 49.2548 24.62C48.9434 25.6875 46.4073 28.2737 43.7266 26.1057Z" fill="#090C3F"/>
<path fill-rule="evenodd" clip-rule="evenodd" d="M23.1589 30.0564C26.7406 30.3205 24.2601 32.9947 26.318 34.9536C28.0532 36.6044 30.7784 35.5039 31.8796 34.3043C32.725 34.9866 33.2589 36.1752 34.983 36.3183C36.7293 36.4613 37.7972 35.3718 38.5424 34.4584L39.0763 35.0637C41.1453 37.3417 43.0473 36.2522 44.7603 34.9096C44.7937 34.9426 44.8493 34.9536 44.8604 35.0307C44.9939 35.5919 44.9049 35.0857 45.0829 35.2728C46.3065 36.5714 47.5078 36.5824 49.2096 36.2852C48.9427 38.3102 47.3409 37.7929 44.7158 39.5207C43.3143 40.4341 41.2343 41.9418 38.8316 41.2815C39.1542 40.6652 39.6659 40.3681 39.8995 39.5867C40.1108 38.8494 40.0329 37.8259 39.9884 37.0226C39.043 37.6719 38.5424 39.2016 37.2855 40.093C36.1287 40.9073 34.1042 41.6997 32.3801 41.2705L34.3712 40.3131L30.3112 40.5001C27.8975 39.8068 28.8429 38.0901 27.4525 36.9125C25.0165 34.8546 20.912 40.093 22.2246 33.534C22.5472 31.9273 22.5027 31.5311 22.4915 29.9023L23.1589 30.0564Z" fill="#090C3F"/>
<path fill-rule="evenodd" clip-rule="evenodd" d="M55.6504 46.498C55.9284 46.1239 56.6514 45.5516 56.9963 45.0784C58.8872 42.4042 59.0096 39.5539 59.8327 37.54L59.9884 34.5136C59.7215 33.4351 59.4656 32.3676 59.2098 31.2561L59.2432 31.1461C59.1097 30.0126 58.6648 29.3413 59.2988 28.2408C59.7103 27.5254 60.1108 26.7001 60.5223 26.1278C61.3788 22.155 61.1675 22.4631 59.1987 20.4492C58.8761 20.1191 58.8094 20.0861 58.5313 19.7889C58.0196 19.2937 58.2421 19.6238 57.8861 18.9746C56.5958 18.3143 55.6281 16.9496 54.3489 16.0362C54.627 13.0209 54.7827 13.8902 55.6726 12.3606L55.9618 11.7663L55.9507 11.6562L56.0842 10.7978C56.0842 10.7098 56.0842 9.41122 56.2065 8.927C56.2733 8.68489 56.3177 8.32172 56.3622 7.96956C56.4067 7.6064 56.429 7.25424 56.4512 7.00113C56.4957 6.52791 56.2176 5.27334 56.2065 5.20731L55.3278 2.18094L54.5491 2.48908L52.3912 4.45897L49.9441 5.80158L48.8318 6.45088H48.8207C48.8207 6.45088 47.1188 6.69299 46.7072 6.82505C46.3513 6.92409 45.6172 6.91309 45.1055 6.90208C45.0054 6.90208 44.9164 6.90208 44.8163 6.90208C44.6161 6.90208 44.2156 6.9351 43.7707 6.96811C43.17 7.01213 42.4804 7.06716 42.0244 7.06716C41.6239 7.06716 41.3681 7.05615 41.0121 7.00113C40.6562 6.9351 40.2224 6.82505 39.466 6.61595C38.5428 6.36284 38.1201 6.2748 37.7419 6.20877C37.5083 6.15374 37.2858 6.12073 36.9744 6.03269C36.5962 5.94465 35.8843 5.8346 35.139 5.72455C34.2047 5.58148 33.2258 5.43842 32.7587 5.29535C32.425 5.19631 32.0023 5.13028 31.5907 5.08626C30.9901 5.03123 30.4339 5.03123 30.2893 5.05324C30.1447 5.07525 29.5329 4.98721 28.9545 4.91018C28.5318 4.85515 28.1314 4.80013 27.9534 4.80013C27.7754 4.78912 27.464 4.82214 27.1525 4.84415C26.7744 4.87716 26.385 4.91018 26.1959 4.88817C25.9401 4.85515 25.3283 4.56902 24.8834 4.34892C24.7388 4.28289 24.6053 4.21686 24.5052 4.18385C24.1381 4.01877 22.6587 3.73264 22.6476 3.73264H22.6365C21.78 3.2044 20.9346 2.67617 20.0781 2.14793L18.354 0.00195312C18.0982 0.089993 16.7745 0.541198 16.5966 0.893357C16.4075 1.27853 16.2406 2.21396 16.2295 2.313C16.2406 2.42305 16.3518 3.52355 16.4408 3.98576C16.5187 4.46998 16.7078 5.93364 16.73 6.04369L17.542 8.09062V8.10162C17.5865 8.07961 17.6199 8.06861 17.6533 8.0576C17.8869 12.1845 18.1427 12.5146 20.9903 13.8462C20.6788 17.1587 16.0849 17.0157 18.1872 22.3421C19.4219 25.5005 14.6166 28.0427 21.4129 29.7044C21.5575 32.0705 17.7867 38.3433 22.592 38.8276C24.0491 38.9816 25.1615 38.1562 26.1737 38.3653C27.9979 40.0711 26.7521 42.2611 31.1013 41.7109C32.8699 44.297 36.1401 43.0865 38.3203 41.6778C38.3648 41.6999 38.4427 41.6999 38.4649 41.7659L39.3436 42.2941C42.6806 43.7358 45.8396 40.4673 48.4314 39.9941C50.9897 38.5414 50.5781 38.5634 51.3568 35.515C51.9574 33.16 54.2377 33.4901 51.8684 30.3207C50.6449 28.692 51.3123 26.0398 52.0464 24.345C53.4479 21.1095 52.5025 21.0985 51.8684 18.2482L53.3478 17.3568C53.7483 16.5755 53.4479 17.0707 54.0041 16.8176C54.7271 18.8755 57.5969 21.5827 58.9985 22.7603C59.1319 26.645 55.9396 29.3853 56.2176 32.5217L56.3511 33.127C56.3622 33.171 56.3845 33.248 56.4179 33.3141C56.8517 32.0595 57.2966 31.6193 57.7527 30.7169C58.231 30.3647 58.0419 32.0375 58.1976 33.6772C58.5647 37.4519 57.1854 39.895 55.9507 42.8004C55.5058 43.8568 55.1053 44.3521 54.2933 45.0344C53.3701 45.8047 53.1365 45.7607 52.4024 46.9052C51.6571 48.0827 50.022 50.6579 49.7105 51.6814C50.0554 51.9675 50.1777 52.1656 50.4558 52.4077L51.8796 50.5809L54.4824 47.8516L55.6504 46.498Z" fill="#090C3F"/>
<path fill-rule="evenodd" clip-rule="evenodd" d="M8.45398 47.3673C9.2326 47.9505 9.84439 48.2477 10.3561 49.1501C11.4016 49.8434 11.7798 50.7128 13.8265 52.1434C14.5607 52.6607 15.1724 52.8808 15.8065 53.4861C16.7742 54.4105 17.8309 55.0598 18.9655 55.522L19.3659 55.555C22.0244 56.4904 25.0944 56.6445 28.6872 57.1727C33.181 57.822 38.4201 58.5263 43.0251 57.4368H42.9917C45.5278 56.7876 47.8415 55.555 49.6657 53.409C49.4877 52.8918 49.332 53.1119 49.0317 52.4186C48.6757 52.5506 48.9649 52.4406 48.609 52.6167C46.7291 53.5631 46.0395 53.8382 43.7926 53.5741C44.1708 53.9483 44.4377 54.1243 45.2386 54.2454C45.8949 54.3444 46.54 54.3114 47.1963 54.3444L46.4511 54.7186C40.8449 56.5454 38.0641 56.4244 31.7016 55.7091C27.1188 55.1918 21.0789 54.9827 17.0411 53.6951L20.5005 53.7722L22.7474 53.5741C21.5906 53.266 22.7363 53.6401 22.2023 53.1119C20.9677 53.1669 18.0756 52.3525 16.9633 51.9013C15.2392 51.208 11.2682 47.3013 9.7554 45.8376C8.82104 44.9352 7.13031 43.8127 5.82889 42.9213C2.43629 40.5992 5.52856 37.0116 3.11481 32.8517C2.63651 32.0263 1.99136 31.7952 2.0136 30.5517C2.0581 28.4717 4.06029 27.0521 4.88341 23.3764L5.25048 24.642L6.00686 28.3837C6.31831 27.5583 6.32943 24.785 6.35168 23.5195C6.35168 22.2319 5.95124 20.7462 5.52856 19.7007C4.91678 18.171 4.13815 18.05 3.48188 16.9275C4.34949 14.8145 11.524 13.2408 13.3037 11.447C13.6819 10.5446 13.0924 11.491 13.6152 10.9738C13.8933 10.6987 13.7598 10.8307 14.0156 10.6656C14.2937 10.4896 14.7164 10.2915 15.0723 10.1044C15.3504 9.65319 16.2069 8.77279 17.0634 8.31058V8.25555L13.3927 9.25701C13.2926 9.41108 13.3816 9.34505 13.0145 9.69721L11.2459 10.7977C7.67535 12.6025 -2.23548 14.6495 3.0147 19.1175C4.34949 20.251 3.91568 21.6046 3.28166 23.5635C3.24829 23.6515 3.05919 24.1578 3.03694 24.2018C3.0147 24.2458 2.98133 24.3008 2.95908 24.3559L2.46966 24.8951C2.0581 26.6229 -0.856199 28.7248 0.245005 31.9713L1.32396 33.9192C1.75777 34.3044 1.43519 33.8862 1.85788 34.5355C2.51415 35.5259 3.24829 38.7064 3.19267 39.7738C3.1593 40.6322 3.11481 41.0504 3.05919 41.3476C3.05919 41.3476 3.9713 42.7232 4.18264 43.1744C4.38286 43.6366 5.76215 44.539 5.76215 44.539L6.93009 45.6065L8.45398 47.3673Z" fill="#090C3F"/>
<path fill-rule="evenodd" clip-rule="evenodd" d="M15.0714 10.1041C14.5931 11.1055 13.3139 13.9338 12.7911 14.5171C10.7778 16.7291 10.8001 15.2984 11.0448 19.4253C11.7678 22.5947 12.8579 21.1421 12.4797 28.3503C12.3907 30.0561 12.413 31.7839 12.7578 33.4126C13.2138 35.5476 13.7922 35.5806 14.4708 36.8132L13.0247 36.2299C10.5999 34.9863 9.42079 32.6973 8.898 29.5499C8.54205 29.9681 8.44195 30.0341 8.35296 31.2116C8.29734 31.96 8.31959 32.6423 8.25285 33.3796L7.49647 30.6394C6.81795 32.7413 7.69669 36.3069 8.55318 37.7926C9.78786 39.9166 10.9002 41.4903 12.8801 42.5027C12.8468 41.7214 12.7689 40.3017 13.0136 39.5424C13.1471 39.0802 13.1471 39.1902 13.2138 39.0582C14.5931 40.852 15.572 42.5798 17.4184 44.4176C18.9423 45.9363 20.811 47.2899 23.5807 47.9502C29.0422 49.2488 33.2691 47.7851 37.7073 50.6904L39.0643 51.945C36.4837 51.7579 32.3347 51.8019 29.9543 52.5173C31.3336 53.4637 38.0521 54.3881 40.6104 53.9259C41.1332 53.8269 41.6783 53.6728 42.0676 53.3867C42.4903 53.0785 42.4013 53.0785 42.5793 52.8034L42.9797 52.1211C46.3945 52.5833 47.9407 52.8144 50.2766 48.5445C51.1219 46.9818 51.4445 46.3875 52.5457 45.298C53.3132 44.5277 55.0151 43.2731 55.9494 42.7999C57.1841 39.8946 58.5634 37.4514 58.1963 33.6767C58.0406 32.037 58.2297 30.3642 57.7514 30.7164C57.9294 32.6533 57.6847 34.304 57.351 36.1859C57.2064 37.0002 56.9505 37.6936 56.7169 38.4419C56.3832 39.5534 56.361 39.9716 55.6602 40.5218L55.6491 39.4874C53.8694 41.6774 55.2375 41.4683 50.0986 45.7162C49.0196 46.5966 47.8962 48.4674 46.1721 48.9737C48.1186 45.188 46.9841 46.2334 50.5435 42.8659C52.0896 41.3912 54.0918 39.5094 55.0818 36.6811C53.9361 37.5615 53.4801 39.4433 49.4646 42.4477C45.2266 45.6061 43.458 45.4631 42.1121 46.3655C43.0131 46.8717 44.4146 46.7286 45.5603 46.6516C44.2366 48.7426 40.4102 48.2693 37.9297 48.0272C35.5049 47.7961 32.001 47.576 29.7319 47.1358C30.8887 47.0038 32.2902 46.5196 33.0244 45.9143C28.9533 45.6392 26.9177 45.8593 23.3582 44.2525C21.2115 43.2841 18.0302 40.7419 17.5408 38.673C18.7532 39.2563 19.6764 40.4338 21.1447 41.0501L20.0101 38.8491C22.0902 39.4764 23.0245 39.1682 25.1157 39.4654C27.04 41.4022 25.1936 42.5247 29.7652 43.174C31.8342 43.4712 32.2012 45.6502 36.5282 43.9554C38.7084 43.108 37.4181 43.2071 39.5092 43.8453C42.5681 44.7918 47.3289 41.3582 48.4301 39.9936C45.8384 40.4668 42.6794 43.7353 39.3424 42.2936L38.4636 41.7654C38.4414 41.6994 38.3635 41.6994 38.319 41.6774C36.1389 43.086 32.8686 44.2965 31.1 41.7104C26.7508 42.2606 27.9967 40.0706 26.1724 38.3649C25.1602 38.1558 24.0479 38.9811 22.5907 38.8271C17.7855 38.3429 21.5563 32.07 21.4117 29.7039C14.6154 28.0422 19.4206 25.5 18.1859 22.3416C16.0836 17.0152 20.6775 17.1583 20.989 13.8458C18.1414 12.5141 17.8856 12.184 17.652 8.05713C16.6287 8.35426 15.4162 9.5428 15.0714 10.1041Z" fill="#807E84"/>
<path fill-rule="evenodd" clip-rule="evenodd" d="M13.6488 41.9748C14.2049 42.5141 14.8723 43.4275 15.5064 44.1098C16.83 45.5404 20.6787 48.3247 22.7699 48.7979C26.9856 49.7443 32.7808 49.095 36.2735 51.12C31.6129 51.175 25.4506 51.6592 21.1792 50.3826C19.0213 49.7443 13.76 45.4634 13.6488 41.9748ZM13.304 11.447C12.1026 13.3178 6.8747 15.1006 4.65005 16.7514C4.82802 17.9289 6.18506 18.8643 6.69673 20.7682C7.04155 22.0008 7.18615 24.774 6.55213 25.9956L6.35191 23.5195C6.32966 24.785 6.31854 27.5583 6.00709 28.3837L5.2507 24.642C5.19509 25.9075 3.92704 27.9875 3.43761 29.209C2.28079 32.0593 3.20402 31.1569 4.27186 33.49C6.52988 38.4642 2.67011 39.5977 7.18615 42.8882C10.0115 44.9462 11.8802 46.3988 14.1271 48.7649C16.7188 51.4941 17.8534 51.8683 21.3794 52.8808C21.7354 52.9798 22.8811 53.0789 22.2026 53.1119C22.7365 53.6401 21.5908 53.2659 22.7476 53.5741L20.5007 53.7722C22.3805 53.7832 25.1391 54.1904 27.0746 54.4215C29.3103 54.6746 31.4015 54.8837 33.5817 55.1918C40.7784 56.2153 46.2288 54.6746 46.4513 54.7186L47.1965 54.3444C46.5403 54.3114 45.8951 54.3444 45.2389 54.2454C44.438 54.1243 44.171 53.9482 43.7928 53.5741C46.0397 53.8382 46.7294 53.5631 48.6092 52.6166C48.9652 52.4406 48.6759 52.5506 49.0319 52.4186L49.7104 51.6812C50.0219 50.6578 51.657 48.0826 52.4022 46.9051C53.1364 45.7605 53.37 45.8046 54.2932 45.0342C55.1052 44.3519 55.5056 43.8567 55.9506 42.8002C55.0162 43.2734 53.3144 44.528 52.5468 45.2983C51.4456 46.3878 51.1231 46.9821 50.2777 48.5448C47.9418 52.8147 46.3957 52.5836 42.9808 52.1214L42.5804 52.8037C42.4024 53.0789 42.4914 53.0789 42.0687 53.387C41.6794 53.6731 41.1344 53.8272 40.6116 53.9262C38.0532 54.3884 31.3348 53.464 29.9555 52.5176C32.3359 51.8023 36.4848 51.7583 39.0654 51.9453L37.7084 50.6908C33.2702 47.7855 29.0434 49.2491 23.5819 47.9505C20.8122 47.2902 18.9434 45.9366 17.4196 44.4179C15.5731 42.5801 14.5942 40.8523 13.215 39.0585C13.1482 39.1906 13.1482 39.0805 13.0147 39.5427C12.77 40.3021 12.8479 41.7217 12.8813 42.5031C10.9013 41.4906 9.789 39.9169 8.55432 37.7929C7.69782 36.3072 6.81909 32.7416 7.4976 30.6397L8.25399 33.3799C8.32073 32.6426 8.29848 31.9603 8.3541 31.2119C8.44308 30.0344 8.54319 29.9684 8.89914 29.5502C9.42193 32.6976 10.601 34.9867 13.0259 36.2302C12.6699 35.5919 12.6143 35.658 12.2806 35.1957C8.75453 30.2765 11.7801 26.4358 9.88911 21.0984C9.4553 19.8878 8.45421 17.6538 8.99925 16.5313C9.68889 17.4887 10.2228 18.7323 11.0459 19.4256C10.8012 15.2987 10.779 16.7294 12.7923 14.5174C13.3151 13.9341 14.5943 11.1058 15.0726 10.1044C14.7166 10.2915 14.2939 10.4895 14.0158 10.6656C13.76 10.8307 13.8935 10.6986 13.6154 10.9738C13.0926 11.491 13.6821 10.5446 13.304 11.447Z" fill="#555A5B"/>
<path fill-rule="evenodd" clip-rule="evenodd" d="M50.0663 18.6993C49.9439 17.3346 49.0652 16.5533 48.8538 14.9796C49.2543 15.1997 49.5323 15.5078 49.9105 15.7829C50.3666 16.0911 50.4778 16.2451 50.9672 16.6083C51.2342 15.6839 51.3232 15.992 51.5123 14.6164C51.4455 14.5944 51.0117 14.4293 50.8783 14.3523C50.4111 14.0662 50.7337 14.3083 50.4 13.9671L51.4455 13.824C51.7459 13.1307 52.3354 12.9216 52.8248 12.1623C53.648 10.8967 53.6368 9.56512 54.2264 7.36412C54.4155 6.62679 54.4711 5.61433 54.8048 4.99805C54.8493 4.6679 54.9605 4.98704 54.7825 4.4478C54.5601 3.77649 54.7492 4.10664 54.5156 4.34875C54.1596 5.85644 53.8148 5.94448 53.1474 6.98995C52.4578 8.05744 52.1129 8.82778 52.4911 10.3355C51.034 10.1594 52.024 10.2804 51.6458 9.9723C51.2342 9.26798 50.9005 9.23497 50.0551 9.05889H48.9206L48.2865 9.93929C46.2955 7.9694 46.8405 11.2379 46.6292 12.2723L46.4512 12.8666L46.1731 12.4924C45.1609 12.1293 45.4946 11.8652 44.7827 11.1829C42.8473 9.32301 41.8462 9.98331 40.9563 10.0163C40.1999 10.0493 39.5437 9.78522 38.765 9.67517C34.1266 9.01487 36.4959 9.76321 32.5582 7.83734C31.7907 7.46317 31.7907 7.23206 30.7896 7.15503C31.4682 8.50864 31.368 8.54166 31.0121 10.1484C30.7896 11.1278 30.8119 11.9532 30.0444 12.6025L29.6884 11.6561C29.4326 11.546 28.9654 11.7881 28.7318 10.1154C28.4649 8.16749 28.298 8.49763 26.3181 8.6407C25.5395 8.69572 25.3615 8.6517 24.9388 8.36558L23.4483 8.13447L24.594 7.3091C25.0055 7.01196 25.2058 6.82488 25.6729 6.49473C24.4383 6.35166 21.6129 5.84543 21.1346 4.61287L19.8555 3.80951C19.9556 4.888 20.4561 4.54684 21.9133 6.57176C22.7698 7.77131 22.6585 8.6517 24.2937 9.25698C27.3748 10.4125 25.5061 9.55411 26.4627 12.1733C27.03 13.747 28.0978 13.725 29.1656 14.5504C29.6662 15.3868 29.6217 16.2011 30.5783 16.9054C31.7574 17.7638 32.1578 17.2906 33.4147 17.4227C35.9063 17.6758 34.8941 19.6457 39.21 17.7858C39.3657 18.05 39.577 18.4572 39.7995 18.6993C41.112 18.6883 40.4558 18.116 41.9908 19.2165C44.5936 21.0763 46.0285 19.2605 47.0963 19.4256C48.3422 19.6017 48.5313 20.2179 49.9773 19.6237L50.0663 18.6993Z" fill="#B2B2B2"/>
<path fill-rule="evenodd" clip-rule="evenodd" d="M48.4313 39.9939C47.3301 41.3585 42.5693 44.7921 39.5104 43.8456C37.4193 43.2073 38.7096 43.1083 36.5294 43.9557C32.2025 45.6504 31.8354 43.4715 29.7665 43.1743C25.1948 42.525 27.0413 41.4025 25.1169 39.4656C23.0258 39.1685 22.0914 39.4767 20.0114 38.8494L21.1459 41.0504C19.6777 40.4341 18.7544 39.2566 17.542 38.6733C18.0314 40.7422 21.2127 43.2844 23.3595 44.2528C26.9189 45.8595 28.9545 45.6394 33.0256 45.9146C32.2914 46.5198 30.8899 47.0041 29.7331 47.1361C32.0022 47.5763 35.5061 47.7964 37.9309 48.0275C40.4114 48.2696 44.2378 48.7429 45.5615 46.6519C44.4158 46.7289 43.0143 46.872 42.1133 46.3658C43.4592 45.4634 45.2278 45.6064 49.4658 42.448C53.4813 39.4436 53.9373 37.5618 55.083 36.6814C55.1498 36.4063 55.1275 36.3732 55.2721 36.1201C55.5836 35.5479 55.4278 35.812 55.717 35.5039C56.0174 37.4517 55.8172 37.7159 55.6503 39.4877L55.6614 40.5221C56.3622 39.9719 56.3844 39.5537 56.7181 38.4422C56.9517 37.6938 57.2076 37.0005 57.3522 36.1862C57.6859 34.3043 57.9306 32.6536 57.7526 30.7167C57.2966 31.6191 56.8516 32.0593 56.4178 33.3139C55.4723 32.9177 55.9618 29.6052 56.251 28.6588C56.5958 27.5252 57.875 25.7314 57.9973 24.5979C58.242 22.3089 53.7037 20.7352 53.3478 17.3566L51.8684 18.248C52.5024 21.0983 53.4479 21.1093 52.0464 24.3448C51.3122 26.0396 50.6448 28.6918 51.8684 30.3205C54.2377 33.4899 51.9574 33.1598 51.3567 35.5149C50.5781 38.5632 50.9897 38.5412 48.4313 39.9939Z" fill="#B2B2B2"/>
<path fill-rule="evenodd" clip-rule="evenodd" d="M23.9704 21.2635C25.0604 17.2687 34.3817 22.32 35.4162 22.6501C37.0736 23.1784 37.8077 21.6817 38.5641 21.0984C37.9078 24.7631 36.9178 23.3104 35.8723 25.0492C33.2583 29.3632 24.8713 27.9435 25.4386 21.0434L23.9704 21.2635ZM19.8548 9.125C20.3219 11.6561 21.3453 11.2159 23.303 12.2064C24.6378 12.8887 25.6722 14.5945 26.0059 15.9811H26.0727C25.8279 16.3002 26.2729 16.6084 24.9715 16.1132C24.838 16.0581 24.2039 15.673 24.1038 15.6179C23.392 15.1337 23.3252 14.8586 22.5355 14.4404C22.7246 19.3046 17.3965 18.7544 21.8792 23.0683C21.957 23.8497 21.957 23.2884 21.6901 23.4975L21.8792 24.1358C21.412 23.9047 21.0561 23.7176 20.2774 23.6956L20.0772 26.821C21.6567 27.3933 26.8847 27.7895 26.7623 30.3536C26.6956 31.7182 26.8847 30.5847 26.462 31.0579C25.8279 34.6676 30.3885 34.8547 31.8011 31.179L32.4908 29.9244C32.1015 29.6163 33.1915 29.6713 31.8234 29.6713C31.7122 31.289 30.2773 32.6757 28.9758 31.8723C28.7089 32.5216 28.7645 32.6317 28.0192 32.6317C27.2406 31.3881 28.1527 29.0991 26.7512 28.1416C25.3608 27.1952 23.6144 28.0426 22.9359 26.1497L23.6812 25.5775C23.7145 25.5554 23.7813 25.5334 23.8146 25.5004C23.4698 24.8731 23.4253 23.9487 23.67 23.2994C25.6945 23.0023 24.8825 24.8181 26.8513 26.4799C26.9069 26.5239 27.0738 26.6559 27.1182 26.7C27.1739 26.733 27.2295 26.777 27.274 26.81L27.5743 27.0631L29.3763 27.6244C31.0448 27.6904 34.9045 28.2297 36.2616 25.7865C36.2393 26.6119 35.7388 27.1952 35.5386 27.8225C37.0068 26.9971 37.7298 24.0368 39.6208 24.7961C40.811 25.3133 40.2993 26.755 41.9901 28.2627C41.6675 27.5143 41.6786 27.4043 41.9344 26.9421C43.9366 31.6962 49.02 27.9765 49.6762 27.8445L49.4204 27.2722C48.3748 28.2297 45.4049 29.9574 43.3916 28.1636C42.2904 27.1842 42.4461 26.876 41.712 25.4454C41.3783 24.8071 40.455 24.2348 40.9333 22.452C41.4673 22.1769 40.6775 22.0999 41.3227 22.5291C42.3905 23.2554 41.9011 24.8291 45.0823 23.6186C48.3748 22.364 48.0634 22.463 50.3103 23.5085L50.7329 21.6267C49.1534 22.2429 49.0311 21.6157 47.7964 21.3515C45.7163 20.9113 43.6919 24.3889 40.7554 20.5372C39.2537 21.7477 39.1536 20.5592 38.5418 19.4807C36.7621 20.8233 33.6142 20.4271 31.4563 19.3376C29.7767 18.4792 29.5097 19.0185 27.6855 18.6883C25.2273 18.2481 25.6945 18.7874 23.9036 18.8754C23.8258 17.918 24.0371 17.5218 24.5488 16.8615C25.9725 16.8945 27.2517 17.0596 28.1638 16.1462C25.4164 14.5174 25.4386 11.0619 24.8825 10.6767C23.6033 10.3686 22.9581 10.7317 21.7346 10.1154C22.3464 9.84032 22.3575 10.1044 22.9804 9.67525C21.5566 8.26661 21.6567 7.19912 20.6 5.87852C18.0528 2.68708 19.6323 4.60195 18.1084 2.32391C18.1418 3.93064 18.2975 4.83305 18.887 6.19767C19.2541 7.02304 19.877 8.48671 20.422 9.01495C20.1884 9.24605 21.0004 9.3451 19.8548 9.125Z" fill="#555A5B"/>
<path fill-rule="evenodd" clip-rule="evenodd" d="M18.1091 2.32398C19.633 4.60201 18.0535 2.68715 20.6008 5.87859C21.6575 7.19919 21.5574 8.26667 22.9811 9.67531C22.3582 10.1045 22.3471 9.84039 21.7353 10.1155C22.9589 10.7318 23.604 10.3686 24.8832 10.6768C25.4394 11.0619 25.4171 14.5175 28.1646 16.1462C27.2525 17.0597 25.9733 16.8946 24.5495 16.8616C24.0378 17.5219 23.8265 17.918 23.9044 18.8755C25.6952 18.7874 25.228 18.2482 27.6863 18.6884C29.5105 19.0185 29.7774 18.4793 31.4571 19.3377C33.615 20.4272 36.7629 20.8234 38.5426 19.4808C39.1544 20.5592 39.2545 21.7478 40.7561 20.5372C43.6927 24.389 45.7171 20.9114 47.7971 21.3516C49.0318 21.6157 49.1542 22.243 50.7337 21.6267C50.7114 20.7243 50.489 19.3377 50.0663 18.6994L49.9773 19.6238C48.5313 20.2181 48.3422 19.6018 47.0964 19.4257C46.0285 19.2607 44.5936 21.0765 41.9908 19.2166C40.4558 18.1161 41.1121 18.6884 39.7995 18.6994C39.577 18.4573 39.3657 18.0501 39.21 17.786C34.8942 19.6458 35.9064 17.6759 33.4148 17.4228C32.1578 17.2908 31.7574 17.764 30.5783 16.9056C29.6217 16.2013 29.6662 15.3869 29.1657 14.5505C28.0978 13.7251 27.03 13.7472 26.4627 12.1734C25.5061 9.55426 27.3748 10.4126 24.2937 9.25712C22.6586 8.65185 22.7698 7.77145 21.9133 6.57191C20.4561 4.54699 19.9556 4.88814 19.8555 3.80965C19.2882 3.14935 18.7209 2.77518 18.3316 1.9278C18.0535 2.20293 18.0535 1.53162 18.1091 2.32398Z" fill="#7E7D82"/>
<path fill-rule="evenodd" clip-rule="evenodd" d="M40.834 36.8907C43.0252 37.0998 43.3478 36.7147 44.7605 35.9553C45.3055 36.2745 44.7382 35.9553 45.1943 36.2524C45.2499 36.2855 45.4167 36.3955 45.4724 36.4285L47.4857 37.0778C47.519 37.0338 47.5969 37.1108 47.6525 37.1439C46.6403 37.9472 45.5168 37.5951 44.1598 38.5195C43.0697 39.2678 42.4802 39.8511 40.7561 39.774L40.834 36.8907ZM30.5116 36.6596C33.2145 35.5701 30.9899 36.2304 33.8597 36.9348C36.7851 37.6501 37.3412 36.2194 38.7428 35.5371C38.7428 37.441 37.6416 38.8056 36.7517 38.9047C35.8952 38.9927 37.4636 38.7066 36.2067 38.8496C35.784 38.9047 35.2612 39.2018 34.705 39.2568C33.7929 39.3338 33.8819 39.0807 33.4815 38.9267L33.2368 38.8386C31.5571 38.6185 31.6684 40.4123 29.2657 37.1439L30.5116 36.6596ZM30.3113 40.5004L34.3713 40.3133L32.3803 41.2707C34.1044 41.6999 36.1288 40.9076 37.2856 40.0932C38.5426 39.2018 39.0431 37.6721 39.9886 37.0228C40.0331 37.8262 40.1109 38.8496 39.8996 39.587C39.666 40.3683 39.1543 40.6655 38.8318 41.2817C41.2344 41.942 43.3144 40.4343 44.716 39.5209C47.3411 37.7931 48.9428 38.3104 49.2098 36.2855C47.5079 36.5826 46.3066 36.5716 45.083 35.273C44.9051 35.0859 44.9941 35.5922 44.8606 35.0309C44.8494 34.9539 44.7938 34.9429 44.7605 34.9098C43.0475 36.2524 41.1454 37.3419 39.0765 35.0639L38.5426 34.4586C37.7973 35.3721 36.7295 36.4615 34.9831 36.3185C33.259 36.1754 32.7251 34.9869 31.8797 34.3046C30.7785 35.5041 28.0533 36.6046 26.3181 34.9539C24.2603 32.995 26.7408 30.3208 23.1591 30.0566C23.2036 31.5863 22.5362 35.5151 22.9144 36.3295C24.8276 36.5936 25.9176 35.1299 27.8308 36.7477C29.2658 37.9582 27.9643 37.9912 30.3113 40.5004Z" fill="#555A5B"/>
<path fill-rule="evenodd" clip-rule="evenodd" d="M32.9707 28.7908C34.7727 27.2721 34.1164 29.6491 36.5079 27.8773C37.4979 27.151 38.143 25.7754 39.2108 25.4122C40.7236 26.2156 40.2787 27.6572 42.1363 28.9888C43.7158 30.1114 42.6257 28.1525 43.6379 29.6601C44.3832 30.7717 43.7825 31.2889 43.2041 31.8832C42.2364 31.8832 42.5256 31.2889 41.4911 31.63C40.6124 31.9272 40.8571 31.487 40.0117 30.1884C39.589 29.5391 39.311 29.4841 38.8327 28.8238C38.0874 29.5061 38.2876 30.3755 36.7748 31.8171L35.3511 31.476C34.3833 31.1898 34.7282 31.3769 34.261 30.8267C33.7271 30.2104 33.093 29.44 32.9707 28.7908ZM32.4924 29.9243C33.5046 30.6506 33.9495 31.575 34.2499 33.0937C35.3288 32.8736 34.5391 33.2588 35.3399 32.4444C35.2176 33.0937 35.3622 32.9616 35.8739 33.2698L37.1419 32.7525C37.9762 32.0922 38.2097 30.8707 38.8549 29.8692L39.0996 30.5295C39.9561 31.3329 39.8894 32.1473 40.757 32.9176C41.2019 32.9066 41.5467 32.7415 41.8026 32.7085C43.3932 32.4884 42.6479 33.8971 44.5055 31.6521C44.6946 31.2999 44.5945 31.2999 44.7057 30.9807C44.7169 30.9257 44.7391 30.8597 44.7614 30.8047L44.9949 30.2544C46.9526 31.2119 46.5633 31.2669 47.164 33.3798C48.2874 33.4128 47.8091 33.5009 48.7546 32.2133C49.7335 32.9506 50.7902 33.3578 50.8458 31.7621C50.8124 31.0908 50.9904 31.3329 50.4787 30.8047C50.4898 31.3769 50.4453 31.465 50.2451 31.8171C49.1884 32.0262 49.1773 31.8061 48.7657 31.2008L47.8647 32.2463C46.8637 31.454 47.5533 30.7717 45.8292 30.1003C46.5077 29.6822 47.075 29.7592 47.8759 29.4841C48.7212 29.1979 49.2329 28.7687 49.7446 28.3836L49.6778 27.8443C49.0216 27.9764 43.9382 31.6961 41.936 26.9419C41.6802 27.4041 41.6691 27.5142 41.9917 28.2625C40.3009 26.7548 40.8126 25.3132 39.6224 24.7959C37.7314 24.0366 37.0084 26.9969 35.5402 27.8223C35.7404 27.195 36.2409 26.6118 36.2632 25.7864C34.9061 28.2295 31.0464 27.6903 29.3779 27.6242C29.7783 27.9764 29.0553 27.6352 30.0008 27.9874C30.6126 28.2185 30.8128 28.0314 31.5803 28.4276C31.7026 29.6712 31.2021 30.4305 30.5458 31.0688C29.9674 30.8707 30.1009 30.9807 29.8784 30.3975C29.5225 30.7166 29.3445 30.9477 28.6104 30.9587C28.1766 28.3506 28.7883 28.9008 27.042 27.118L27.5759 27.063L27.2756 26.8099C27.2311 26.7768 27.1755 26.7328 27.1198 26.6998C27.0754 26.6558 26.9085 26.5237 26.8529 26.4797C24.8841 24.818 25.6961 23.0021 23.6716 23.2993C23.4269 23.9486 23.4714 24.873 23.8162 25.5003C23.7829 25.5333 23.7161 25.5553 23.6828 25.5773L22.9375 26.1496C23.616 28.0424 25.3624 27.195 26.7528 28.1415C28.1543 29.0989 27.2422 31.3879 28.0208 32.6315C28.7661 32.6315 28.7105 32.5214 28.9774 31.8721C30.2789 32.6755 31.7138 31.2889 31.825 29.6712C33.1932 29.6712 32.1031 29.6161 32.4924 29.9243Z" fill="#7E7D82"/>
<path fill-rule="evenodd" clip-rule="evenodd" d="M26.1518 21.2084C29.2775 21.8026 31.9471 23.4204 34.8169 24.3338C34.2496 25.0931 33.3041 25.4343 32.3141 25.5003C31.402 25.5663 30.0895 25.3022 29.2552 25.0271C27.6201 24.4988 26.3187 22.0117 26.1518 21.2084ZM23.9717 21.2634L25.44 21.0433C24.8727 27.9434 33.2596 29.3631 35.8736 25.0491C36.9192 23.3103 37.9091 24.763 38.5654 21.0983C37.809 21.6816 37.0749 23.1782 35.4175 22.65C34.3831 22.3199 25.0618 17.2686 23.9717 21.2634Z" fill="#090C3F"/>
<path fill-rule="evenodd" clip-rule="evenodd" d="M15.506 44.1098C14.872 43.4275 14.2046 42.514 13.6484 41.9748C13.7597 45.4634 19.021 49.7443 21.1789 50.3826C25.4502 51.6592 31.6125 51.175 36.2732 51.1199C32.7805 49.095 26.9852 49.7443 22.7695 48.7979C20.6783 48.3247 16.8297 45.5404 15.506 44.1098Z" fill="#0C0B3C"/>
<path fill-rule="evenodd" clip-rule="evenodd" d="M32.9707 28.7911C33.0931 29.4404 33.7271 30.2108 34.261 30.8271C34.7282 31.3773 34.3834 31.1902 35.3511 31.4763L36.7749 31.8175C38.2876 30.3758 38.0874 29.5065 38.8327 28.8241C39.311 29.4844 39.589 29.5395 40.0117 30.1888C40.8571 31.4874 40.6124 31.9276 41.4911 31.6304C42.5256 31.2893 42.2364 31.8835 43.2041 31.8835C43.7825 31.2893 44.3832 30.772 43.6379 29.6605C42.6257 28.1528 43.7158 30.1117 42.1363 28.9892C40.2787 27.6576 40.7236 26.216 39.2109 25.4126C38.143 25.7758 37.4979 27.1514 36.5079 27.8777C34.1164 29.6495 34.7727 27.2724 32.9707 28.7911Z" fill="#B2B0B0"/>
<path fill-rule="evenodd" clip-rule="evenodd" d="M13.0259 36.2302L14.4719 36.8134C13.7934 35.5809 13.215 35.5479 12.759 33.4129C12.4141 31.7842 12.3919 30.0564 12.4809 28.3506C12.8591 21.1423 11.769 22.595 11.046 19.4256C10.2229 18.7322 9.68894 17.4887 8.9993 16.5312C8.45426 17.6538 9.45535 19.8878 9.88916 21.0983C11.7801 26.4357 8.75459 30.2765 12.2807 35.1957C12.6144 35.6579 12.67 35.5919 13.0259 36.2302Z" fill="#0C0B3C"/>
<path fill-rule="evenodd" clip-rule="evenodd" d="M22.202 53.1119C22.8805 53.0789 21.7348 52.9799 21.3789 52.8808C17.8528 51.8684 16.7182 51.4942 14.1265 48.765C11.8796 46.3989 10.0109 44.9462 7.18558 42.8883C2.66953 39.5978 6.5293 38.4643 4.27128 33.49C3.20345 31.157 2.28021 32.0594 3.43703 29.2091C3.92646 27.9876 5.19451 25.9076 5.25013 24.642L4.88306 23.3765C4.05994 27.0521 2.05775 28.4718 2.01326 30.5517C1.99101 31.7953 2.63616 32.0264 3.11446 32.8518C5.52821 37.0116 2.43594 40.5993 5.82854 42.9213C7.12996 43.8127 8.8207 44.9352 9.75505 45.8376C11.2678 47.3013 15.2388 51.2081 16.9629 51.9014C18.0753 52.3526 20.9673 53.167 22.202 53.1119Z" fill="#28EBF7"/>
<path fill-rule="evenodd" clip-rule="evenodd" d="M55.0826 36.6814C54.0926 39.5097 52.0904 41.3916 50.5443 42.8662C46.9849 46.2338 48.1194 45.1883 46.1729 48.974C47.897 48.4678 49.0204 46.5969 50.0994 45.7165C55.2383 41.4686 53.8702 41.6777 55.6499 39.4877C55.8167 37.7159 56.0169 37.4518 55.7166 35.5039C55.4274 35.812 55.5831 35.5479 55.2717 36.1202C55.1271 36.3733 55.1493 36.4063 55.0826 36.6814Z" fill="#090B3E"/>
<path fill-rule="evenodd" clip-rule="evenodd" d="M29.2656 37.1437C31.6683 40.4122 31.557 38.6184 33.2366 38.8385L33.4813 38.9265C33.8818 39.0806 33.7928 39.3337 34.7049 39.2567C35.2611 39.2016 35.7839 38.9045 36.2065 38.8495C37.4635 38.7064 35.8951 38.9926 36.7516 38.9045C37.6414 38.8055 38.7427 37.4409 38.7427 35.537C37.3411 36.2193 36.785 37.6499 33.8595 36.9346C30.9897 36.2303 33.2144 35.57 30.5114 36.6595L29.2656 37.1437Z" fill="#7E7D82"/>
<path fill-rule="evenodd" clip-rule="evenodd" d="M26.1504 21.2083C26.3172 22.0117 27.6187 24.4988 29.2538 25.027C30.088 25.3022 31.4006 25.5663 32.3127 25.5003C33.3027 25.4342 34.2481 25.0931 34.8154 24.3337C31.9456 23.4203 29.276 21.8026 26.1504 21.2083Z" fill="#05FCFC"/>
<path fill-rule="evenodd" clip-rule="evenodd" d="M53.3477 17.3566C53.7036 20.7352 58.2419 22.3089 57.9972 24.5979C57.8748 25.7314 56.5957 27.5252 56.2508 28.6587C55.9616 29.6052 55.4722 32.9177 56.4177 33.3139C56.3843 33.2478 56.3621 33.1708 56.3509 33.1268L56.2175 32.5215C55.9394 29.3851 59.1318 26.6448 58.9983 22.7601C57.5967 21.5825 54.7269 18.8753 54.0039 16.8174C53.4478 17.0705 53.7481 16.5753 53.3477 17.3566Z" fill="#28EBF7"/>
<path fill-rule="evenodd" clip-rule="evenodd" d="M40.8347 36.8906L40.7568 39.7739C42.4809 39.8509 43.0705 39.2676 44.1606 38.5193C45.5176 37.5949 46.641 37.947 47.6533 37.1437C47.5976 37.1107 47.5198 37.0336 47.4864 37.0776L45.4731 36.4284C45.4175 36.3953 45.2506 36.2853 45.195 36.2523C44.739 35.9551 45.3063 36.2743 44.7612 35.9551C43.3486 36.7145 43.026 37.0997 40.8347 36.8906Z" fill="#7E7D82"/>
<path fill-rule="evenodd" clip-rule="evenodd" d="M6.35125 23.5192L6.55147 25.9954C7.18549 24.7738 7.04089 22.0006 6.69607 20.768C6.1844 18.8641 4.82736 17.9287 4.64939 16.7512C6.87404 15.1004 12.102 13.3176 13.3033 11.4468C11.5236 13.2406 4.34906 14.8143 3.48145 16.9273C4.13772 18.0498 4.91635 18.1708 5.52813 19.7005C5.95081 20.746 6.35125 22.2317 6.35125 23.5192Z" fill="#2FECED"/>
<path fill-rule="evenodd" clip-rule="evenodd" d="M30.7891 7.15515C31.7902 7.23218 31.7902 7.46329 32.5577 7.83746C36.4953 9.76333 34.126 9.01499 38.7644 9.67529C39.5431 9.78534 40.1993 10.0495 40.9557 10.0164C41.8456 9.98343 42.8467 9.32313 44.7821 11.183C45.494 11.8653 45.1603 12.1294 46.1725 12.4926C44.2371 9.49921 43.7143 8.97097 39.2094 8.79489C37.4408 8.72886 36.0726 8.75087 34.571 8.11258C33.9258 7.82645 31.0894 6.23073 30.7891 7.15515Z" fill="#2FECED"/>
<path fill-rule="evenodd" clip-rule="evenodd" d="M29.3779 27.6244L27.5759 27.0631L27.042 27.1181C28.7883 28.9009 28.1766 28.3507 28.6104 30.9589C29.3445 30.9479 29.5225 30.7168 29.8784 30.3976C30.1009 30.9809 29.9674 30.8708 30.5458 31.0689C31.2021 30.4306 31.7026 29.6713 31.5803 28.4277C30.8128 28.0315 30.6126 28.2186 30.0008 27.9875C29.0553 27.6354 29.7783 27.9765 29.3779 27.6244Z" fill="#B2B0B0"/>
<path fill-rule="evenodd" clip-rule="evenodd" d="M50.4777 30.8047C50.3553 29.5281 50.144 29.319 49.7435 28.3836C49.2318 28.7688 48.7202 29.198 47.8748 29.4841C47.0739 29.7592 46.5066 29.6822 45.8281 30.1004C47.5522 30.7717 46.8626 31.454 47.8637 32.2464L48.7647 31.2009C49.1762 31.8062 49.1874 32.0263 50.2441 31.8172C50.4443 31.465 50.4888 31.377 50.4777 30.8047Z" fill="#B2B0B0"/>
<path fill-rule="evenodd" clip-rule="evenodd" d="M50.845 31.762C50.7894 33.3577 49.7327 32.9506 48.7538 32.2132C47.8083 33.5008 48.2866 33.4128 47.1632 33.3798C46.5625 31.2668 46.9518 31.2118 44.9941 30.2543C45.9507 31.4869 46.0397 32.2462 45.4391 34.0621C48.3422 35.5587 52.1353 32.7415 50.845 31.762Z" fill="#555A5B"/>
<path fill-rule="evenodd" clip-rule="evenodd" d="M30.3112 40.5001C27.9642 37.991 29.2656 37.958 27.8307 36.7474C25.9175 35.1297 24.8274 36.5934 22.9142 36.3293C22.536 35.5149 23.2034 31.5861 23.1589 30.0564L22.4915 29.9023C22.5027 31.5311 22.5472 31.9273 22.2246 33.534C20.912 40.093 25.0165 34.8546 27.4525 36.9125C28.8429 38.0901 27.8975 39.8068 30.3112 40.5001Z" fill="#2FCBD5"/>
<path fill-rule="evenodd" clip-rule="evenodd" d="M44.504 31.6523C42.6464 33.8973 43.3916 32.4887 41.801 32.7088C41.5452 32.7418 41.2004 32.9069 40.7554 32.9179C39.8878 32.1475 39.9546 31.3331 39.0981 30.5298C39.4763 32.3456 39.2872 32.2466 38.8867 33.9193C40.088 34.0954 41.3005 34.7777 42.4573 34.2055C43.3805 33.7432 44.1591 32.7748 44.504 31.6523Z" fill="#555A5B"/>
<path fill-rule="evenodd" clip-rule="evenodd" d="M37.1407 32.7526L35.8727 33.2698C35.361 32.9617 35.2164 33.0938 35.3388 32.4445C34.5379 33.2588 35.3276 32.8737 34.2487 33.0938C33.9484 31.5751 33.5034 30.6506 32.4912 29.9243C32.7693 31.1899 33.1586 31.9382 32.558 33.4019C34.3933 34.8215 36.3065 34.8986 37.1407 32.7526Z" fill="#595A5C"/>
<path fill-rule="evenodd" clip-rule="evenodd" d="M43.7266 26.1057C46.4073 28.2737 48.9434 25.6875 49.2548 24.62C48.2426 24.1578 47.4195 24.7851 46.474 25.2143C45.5174 25.6435 44.4941 25.7755 43.7266 26.1057Z" fill="#17F6FA"/>
<path fill-rule="evenodd" clip-rule="evenodd" d="M51.4453 13.8241C53.1805 13.3179 53.8146 12.3164 54.3151 10.5556C54.7712 8.98191 55.3051 6.58283 54.8045 4.99811C54.4708 5.61439 54.4152 6.62685 54.2261 7.36418C53.6366 9.56518 53.6477 10.8968 52.8246 12.1624C52.3352 12.9217 51.7456 13.1308 51.4453 13.8241Z" fill="#2FECED"/>
<path fill-rule="evenodd" clip-rule="evenodd" d="M26.462 31.0578C26.8847 30.5846 26.6956 31.7181 26.7624 30.3535C26.8847 27.7893 21.6568 27.3931 20.0773 26.8209L20.2775 23.6955L19.7324 23.4644L19.5322 26.9639C21.946 28.7027 26.4731 27.3161 26.462 31.0578Z" fill="#51CED6"/>
<path fill-rule="evenodd" clip-rule="evenodd" d="M21.691 23.4974C21.958 23.2883 21.958 23.8496 21.8801 23.0682C17.3975 18.7543 22.7255 19.3045 22.5364 14.4403L21.8245 14.0771C22.4141 16.6743 20.7456 17.5107 19.8668 19.1064C18.5209 21.5275 20.8679 22.0888 21.691 23.4974Z" fill="#2FD8EE"/>
<path fill-rule="evenodd" clip-rule="evenodd" d="M51.6448 9.97218C52.023 10.2803 51.033 10.1593 52.4901 10.3353C52.1119 8.82766 52.4568 8.05731 53.1464 6.98983C53.8138 5.94436 54.1586 5.85632 54.5146 4.34863C53.2243 5.46014 53.0574 6.24149 50.5547 7.02284C50.8105 7.31998 51.3333 7.78219 51.6114 8.15636C51.6781 8.2554 51.9673 8.76163 51.9896 8.9157C52.3122 10.7535 52.1008 9.60902 51.6448 9.97218Z" fill="#7D8185"/>
<path fill-rule="evenodd" clip-rule="evenodd" d="M46.6292 12.2722C46.8406 11.2378 46.2955 7.9693 48.2866 9.93919L48.9206 9.05879H50.0552C48.6759 7.59513 47.0964 8.78367 45.6504 9.25688L46.4068 11.8321C46.5514 12.2943 46.4401 12.0191 46.6292 12.2722Z" fill="#7D8185"/>
<path fill-rule="evenodd" clip-rule="evenodd" d="M24.9395 8.36595C25.3621 8.65208 25.5401 8.6961 26.3187 8.64107C28.2987 8.49801 28.4655 8.16786 28.7325 10.1157C28.9661 11.7885 29.4333 11.5464 29.6891 11.6564C29.2887 10.4239 29.4555 9.88464 29.3776 8.59705C27.4088 7.07836 27.2976 7.95876 24.9395 8.36595Z" fill="#2FECED"/>
<path fill-rule="evenodd" clip-rule="evenodd" d="M26.073 15.9809H26.0063C25.6726 14.5942 24.6381 12.8885 23.3033 12.2062C21.3456 11.2157 20.3223 11.6559 19.8551 9.12477L19.21 8.68457C19.9886 12.1181 20.0442 11.1167 22.7138 12.3602C24.7716 13.3287 24.9607 15.4086 26.073 15.9809Z" fill="#51CED6"/>
<path fill-rule="evenodd" clip-rule="evenodd" d="M25.6731 6.49465L26.2403 6.10947C25.1948 5.35013 22.5919 5.064 21.1348 4.61279C21.6131 5.84535 24.4384 6.35158 25.6731 6.49465Z" fill="#2FECED"/>
<path fill-rule="evenodd" clip-rule="evenodd" d="M50.9678 16.6081L51.168 17.1914C51.3682 17.0043 51.3237 17.0923 51.5351 16.8172L52.0245 15.9808C52.3693 15.3866 52.3916 15.3425 52.5584 14.6602L51.5128 14.6162C51.3237 15.9918 51.2347 15.6837 50.9678 16.6081Z" fill="#2FECED"/>
</g>
<defs>
<clipPath id="clip0_1_2578">
<rect width="61" height="58" fill="white"/>
</clipPath>
</defs>
</svg>
