<svg width="21" height="24" viewBox="0 0 21 24" fill="none" xmlns="http://www.w3.org/2000/svg">
<path fill-rule="evenodd" clip-rule="evenodd" d="M0 6.93141C2.99653 9.92677 3.57886 12.8974 3.99133 17.0562C5.04679 18.1454 6.36915 19.0737 7.42461 20.1753C8.60139 21.3883 9.5234 22.7746 10.7002 24C11.7314 20.7323 11.9497 18.9376 11.792 16.7468C11.3553 10.8179 8.00693 6.28778 4.12478 0C6.30849 5.70603 7.66724 8.24342 7.4974 14.5931C4.87695 9.93914 4.50087 9.4688 0 6.93141ZM11.6222 9.80299C12.3501 11.2264 12.8354 12.2414 13.3449 14.4322C13.9151 10.6323 15.201 5.22331 16.6447 1.67096C14.5338 3.76276 12.9324 7.22847 11.6222 9.80299ZM13.8666 20.6828C15.3224 13.2192 15.2132 12.1052 21 6.96854C18.1976 10.7189 17.8821 12.786 17.2998 17.5884C16.7539 17.8112 16.2565 18.1702 15.9289 18.4673C15.104 19.2099 14.3761 19.9278 13.8787 20.6828H13.8666Z" fill="white"/>
</svg>
