<svg width="20" height="16" viewBox="0 0 20 16" fill="none" xmlns="http://www.w3.org/2000/svg">
<path fill-rule="evenodd" clip-rule="evenodd" d="M9.48901 5.77951L7.78569 14.2111L10.0155 16L12.3134 14.2111L10.6101 5.72948L10.0341 6.19859L9.48901 5.77951ZM20 3.5778C17.8074 3.5778 15.6147 3.5778 13.4221 3.5778C12.8647 4.14074 12.3072 4.70367 11.7498 5.26661C12.0904 6.54261 12.4249 7.81861 12.7656 9.0946C13.7008 8.70055 14.6361 8.31274 15.5652 7.91869C14.9892 7.17435 14.4193 6.43002 13.8433 5.67944C14.7352 5.66067 15.4785 5.6982 16.0917 5.60438C17.541 5.3792 18.4949 4.69116 19.9876 3.5778H20ZM10.0341 4.55981L7.25921 1.16966L7.83524 0H12.2329L12.8461 1.18217L10.0341 4.55356V4.55981ZM0 3.5778C2.19263 3.5778 4.38526 3.5778 6.57789 3.5778C7.13534 4.14074 7.69278 4.70367 8.25023 5.26661C7.90957 6.54261 7.5751 7.81861 7.23444 9.0946C6.29916 8.70055 5.36389 8.31274 4.43481 7.91869C5.01084 7.17435 5.58067 6.43002 6.1567 5.67944C5.26479 5.66067 4.52152 5.6982 3.90833 5.60438C2.45897 5.3792 1.50511 4.69116 0.0123877 3.5778H0Z" fill="white"/>
</svg>
