<svg width="80" height="79" viewBox="0 0 80 79" fill="none" xmlns="http://www.w3.org/2000/svg">
<g style="mix-blend-mode:luminosity" opacity="0.4">
<mask id="mask0_1_13175" style="mask-type:alpha" maskUnits="userSpaceOnUse" x="0" y="0" width="80" height="79">
<rect x="0.942383" width="78.4275" height="78.4275" fill="#D9D9D9"/>
</mask>
<g mask="url(#mask0_1_13175)">
</g>
<g clip-path="url(#clip0_1_13175)">
<path fill-rule="evenodd" clip-rule="evenodd" d="M10.904 61.6019L6.75761 62.8414L5.52246 72.1381L7.55179 72.979L30.4456 77.849H35.6423L39.9341 79L44.3138 77.849H48.7225L71.6163 72.979L73.6457 72.1381L72.4105 62.8414L68.2641 61.6019L39.8858 59.2181V59.1671L39.5841 59.1924L39.2823 59.1671V59.2181L10.904 61.6019Z" fill="black"/>
<path fill-rule="evenodd" clip-rule="evenodd" d="M35.8577 3.79721C36.0314 3.60988 35.7122 3.69474 36.2973 3.49523C36.458 3.44061 36.5874 3.43881 36.7472 3.41895C36.5883 3.79946 36.3009 3.78592 35.8581 3.79721H35.8577Z" fill="#101314"/>
<path fill-rule="evenodd" clip-rule="evenodd" d="M35.8577 3.79721C36.0314 3.60988 35.7122 3.69474 36.2973 3.49523C36.458 3.44061 36.5874 3.43881 36.7472 3.41895C36.5883 3.79946 36.3009 3.78592 35.8581 3.79721H35.8577Z" fill="#101314"/>
<path fill-rule="evenodd" clip-rule="evenodd" d="M48.7977 9.86646C49.5239 10.1544 49.3394 10.2944 49.8354 10.7078L49.7679 12.5409L49.1868 11.663C49.7119 10.5954 49.2024 10.5724 48.7977 9.86646Z" fill="#101314"/>
<path fill-rule="evenodd" clip-rule="evenodd" d="M48.7977 9.86646C49.5239 10.1544 49.3394 10.2944 49.8354 10.7078L49.7679 12.5409L49.1868 11.663C49.7119 10.5954 49.2024 10.5724 48.7977 9.86646Z" fill="#101314"/>
<path fill-rule="evenodd" clip-rule="evenodd" d="M35.7689 9.97804C36.0322 10.0873 35.9538 9.80381 36.0026 10.1509C36.0474 10.4696 36.0102 10.2502 35.8956 10.4326C35.6373 10.2358 35.5388 10.3297 35.7689 9.97804Z" fill="#101314"/>
<path fill-rule="evenodd" clip-rule="evenodd" d="M35.7689 9.97804C36.0322 10.0873 35.9538 9.80381 36.0026 10.1509C36.0474 10.4696 36.0102 10.2502 35.8956 10.4326C35.6373 10.2358 35.5388 10.3297 35.7689 9.97804Z" fill="#101314"/>
<path fill-rule="evenodd" clip-rule="evenodd" d="M35.8896 10.9196C36.9735 10.6537 37.8473 11.1313 37.5044 12.2873C37.106 11.1096 36.9538 11.3579 35.8896 10.9196Z" fill="#101314"/>
<path fill-rule="evenodd" clip-rule="evenodd" d="M35.8896 10.9196C36.9735 10.6537 37.8473 11.1313 37.5044 12.2873C37.106 11.1096 36.9538 11.3579 35.8896 10.9196Z" fill="#101314"/>
<path fill-rule="evenodd" clip-rule="evenodd" d="M42.4958 13.0818L42.6059 14.5501C42.2652 13.9579 42.1466 13.6772 42.4958 13.0818Z" fill="#101314"/>
<path fill-rule="evenodd" clip-rule="evenodd" d="M42.4958 13.0818L42.6059 14.5501C42.2652 13.9579 42.1466 13.6772 42.4958 13.0818Z" fill="#101314"/>
<path fill-rule="evenodd" clip-rule="evenodd" d="M32.7305 15.1842C32.863 15.3977 32.8313 15.344 32.7305 15.5476C32.5103 15.2736 32.4512 15.9845 32.6155 15.3665C32.7762 14.7621 32.2546 15.4528 32.7305 15.1842Z" fill="#101314"/>
<path fill-rule="evenodd" clip-rule="evenodd" d="M32.7305 15.1842C32.863 15.3977 32.8313 15.344 32.7305 15.5476C32.5103 15.2736 32.4512 15.9845 32.6155 15.3665C32.7762 14.7621 32.2546 15.4528 32.7305 15.1842Z" fill="#101314"/>
<path fill-rule="evenodd" clip-rule="evenodd" d="M46.6768 15.4177C48.4137 15.3238 49.2299 16.8463 49.3199 18.5765C49.1497 18.3738 48.9577 18.1242 48.7674 17.9811C48.7603 16.8143 48.9286 17.012 48.1613 16.2708C47.6666 15.7933 47.3881 15.6863 46.6768 15.4177Z" fill="#101314"/>
<path fill-rule="evenodd" clip-rule="evenodd" d="M46.6768 15.4177C48.4137 15.3238 49.2299 16.8463 49.3199 18.5765C49.1497 18.3738 48.9577 18.1242 48.7674 17.9811C48.7603 16.8143 48.9286 17.012 48.1613 16.2708C47.6666 15.7933 47.3881 15.6863 46.6768 15.4177Z" fill="#101314"/>
<path fill-rule="evenodd" clip-rule="evenodd" d="M46.2742 16.0627C46.4761 16.3507 46.434 16.3327 46.2742 16.5696C45.9474 16.3182 45.852 16.3589 46.2742 16.0627Z" fill="#101314"/>
<path fill-rule="evenodd" clip-rule="evenodd" d="M46.2742 16.0627C46.4761 16.3507 46.434 16.3327 46.2742 16.5696C45.9474 16.3182 45.852 16.3589 46.2742 16.0627Z" fill="#101314"/>
<path fill-rule="evenodd" clip-rule="evenodd" d="M33.8242 16.6477C34.3198 16.7646 33.9626 16.5516 34.1721 16.9691C33.7145 16.8206 34.0481 16.9461 33.8242 16.6477Z" fill="#101314"/>
<path fill-rule="evenodd" clip-rule="evenodd" d="M33.8242 16.6477C34.3198 16.7646 33.9626 16.5516 34.1721 16.9691C33.7145 16.8206 34.0481 16.9461 33.8242 16.6477Z" fill="#101314"/>
<path fill-rule="evenodd" clip-rule="evenodd" d="M51.5536 17.9165C51.7188 17.6096 51.3683 17.6669 51.8979 17.7292C51.8777 18.1368 51.939 18.1702 51.5536 17.9165Z" fill="#101314"/>
<path fill-rule="evenodd" clip-rule="evenodd" d="M51.5536 17.9165C51.7188 17.6096 51.3683 17.6669 51.8979 17.7292C51.8777 18.1368 51.939 18.1702 51.5536 17.9165Z" fill="#101314"/>
<path fill-rule="evenodd" clip-rule="evenodd" d="M62.3265 24.012C62.0467 23.9303 61.2047 22.9652 60.3057 22.2805C57.8274 20.3932 55.0137 19.5659 52.6522 18.348C53.3542 18.4108 59.0818 20.4695 60.5032 21.9474C60.7015 22.1536 60.7068 22.2195 60.8935 22.4461C61.0829 22.6759 61.1962 22.7499 61.4075 22.9517C61.6967 23.2279 62.1855 23.6635 62.3265 24.012Z" fill="#101314"/>
<path fill-rule="evenodd" clip-rule="evenodd" d="M62.3265 24.012C62.0467 23.9303 61.2047 22.9652 60.3057 22.2805C57.8274 20.3932 55.0137 19.5659 52.6522 18.348C53.3542 18.4108 59.0818 20.4695 60.5032 21.9474C60.7015 22.1536 60.7068 22.2195 60.8935 22.4461C61.0829 22.6759 61.1962 22.7499 61.4075 22.9517C61.6967 23.2279 62.1855 23.6635 62.3265 24.012Z" fill="#101314"/>
<path fill-rule="evenodd" clip-rule="evenodd" d="M35.946 25.3737C35.9487 25.3173 35.8246 25.1426 36.1743 25.1742C36.5956 25.2126 36.2804 25.1792 36.4577 25.3186L35.946 25.3733V25.3737Z" fill="#101314"/>
<path fill-rule="evenodd" clip-rule="evenodd" d="M35.946 25.3737C35.9487 25.3173 35.8246 25.1426 36.1743 25.1742C36.5956 25.2126 36.2804 25.1792 36.4577 25.3186L35.946 25.3733V25.3737Z" fill="#101314"/>
<path fill-rule="evenodd" clip-rule="evenodd" d="M36.7713 25.957C36.4853 26.2184 36.7418 26.1732 36.3362 26.0333C36.3778 25.8875 36.3129 25.8496 36.47 25.7932C36.7624 25.688 36.7682 25.9538 36.7713 25.9575V25.957Z" fill="#101314"/>
<path fill-rule="evenodd" clip-rule="evenodd" d="M36.7713 25.957C36.4853 26.2184 36.7418 26.1732 36.3362 26.0333C36.3778 25.8875 36.3129 25.8496 36.47 25.7932C36.7624 25.688 36.7682 25.9538 36.7713 25.9575V25.957Z" fill="#101314"/>
<path fill-rule="evenodd" clip-rule="evenodd" d="M28.0107 29.7288C28.6979 30.0709 28.7955 31.4174 28.8282 32.2118C28.53 31.8661 28.5242 31.676 28.3649 31.1181C28.227 30.636 28.0792 30.2293 28.0107 29.7288Z" fill="#101314"/>
<path fill-rule="evenodd" clip-rule="evenodd" d="M28.0107 29.7288C28.6979 30.0709 28.7955 31.4174 28.8282 32.2118C28.53 31.8661 28.5242 31.676 28.3649 31.1181C28.227 30.636 28.0792 30.2293 28.0107 29.7288Z" fill="#101314"/>
<path fill-rule="evenodd" clip-rule="evenodd" d="M52.2784 32.5007C52.1522 32.3617 51.9749 32.5255 52.1576 31.7843C52.2198 31.5325 52.2883 31.3041 52.3416 31.0612C52.4665 30.4907 52.402 30.0659 52.9553 29.9255C52.8806 30.7999 52.577 31.848 52.2784 32.5007Z" fill="#101314"/>
<path fill-rule="evenodd" clip-rule="evenodd" d="M52.2784 32.5007C52.1522 32.3617 51.9749 32.5255 52.1576 31.7843C52.2198 31.5325 52.2883 31.3041 52.3416 31.0612C52.4665 30.4907 52.402 30.0659 52.9553 29.9255C52.8806 30.7999 52.577 31.848 52.2784 32.5007Z" fill="#101314"/>
<path fill-rule="evenodd" clip-rule="evenodd" d="M31.8249 39.5684L34.126 40.1078C33.5203 40.3963 32.5152 40.1665 31.8809 40.1263C32.2023 40.3859 32.6298 40.5908 33.091 40.6202C38.0347 40.8269 37.9501 37.7399 39.3356 36.8154C40.3711 36.1248 41.3327 36.5866 41.5942 37.5616C41.5879 37.5566 40.4924 36.0874 39.3486 37.2244C38.8109 37.7588 38.4913 38.6679 37.8789 39.3202C37.2803 39.9571 36.5878 40.3412 35.7954 40.6667C35.1091 40.9488 33.5037 41.3379 32.9119 40.7213C31.5384 40.589 29.2065 39.5328 28.778 38.4883C27.7031 37.275 27.5429 34.7987 27.375 32.8324C28.0644 33.1263 28.1616 33.5867 28.1141 34.4163C28.7055 34.8181 28.7073 34.6601 28.7346 35.6102L28.8899 35.4166C28.8922 35.4134 29.0404 35.1489 29.0511 35.1228C29.2351 34.6799 29.3936 32.8216 31.9409 32.7701C30.1882 32.9502 29.3994 34.1934 29.2749 36.0341C29.1308 38.1691 30.0911 39.1653 31.8245 39.568L31.8249 39.5684Z" fill="#101314"/>
<path fill-rule="evenodd" clip-rule="evenodd" d="M31.8249 39.5684L34.126 40.1078C33.5203 40.3963 32.5152 40.1665 31.8809 40.1263C32.2023 40.3859 32.6298 40.5908 33.091 40.6202C38.0347 40.8269 37.9501 37.7399 39.3356 36.8154C40.3711 36.1248 41.3327 36.5866 41.5942 37.5616C41.5879 37.5566 40.4924 36.0874 39.3486 37.2244C38.8109 37.7588 38.4913 38.6679 37.8789 39.3202C37.2803 39.9571 36.5878 40.3412 35.7954 40.6667C35.1091 40.9488 33.5037 41.3379 32.9119 40.7213C31.5384 40.589 29.2065 39.5328 28.778 38.4883C27.7031 37.275 27.5429 34.7987 27.375 32.8324C28.0644 33.1263 28.1616 33.5867 28.1141 34.4163C28.7055 34.8181 28.7073 34.6601 28.7346 35.6102L28.8899 35.4166C28.8922 35.4134 29.0404 35.1489 29.0511 35.1228C29.2351 34.6799 29.3936 32.8216 31.9409 32.7701C30.1882 32.9502 29.3994 34.1934 29.2749 36.0341C29.1308 38.1691 30.0911 39.1653 31.8245 39.568L31.8249 39.5684Z" fill="#101314"/>
<path fill-rule="evenodd" clip-rule="evenodd" d="M30.4694 36.4227L32.7503 37.1147L30.473 37.0804C30.0764 36.3378 30.0204 35.185 30.4529 34.4646C30.3172 35.1719 30.1789 35.6797 30.4694 36.4227Z" fill="#101314"/>
<path fill-rule="evenodd" clip-rule="evenodd" d="M30.4694 36.4227L32.7503 37.1147L30.473 37.0804C30.0764 36.3378 30.0204 35.185 30.4529 34.4646C30.3172 35.1719 30.1789 35.6797 30.4694 36.4227Z" fill="#101314"/>
<path fill-rule="evenodd" clip-rule="evenodd" d="M42.408 37.191L42.4174 36.973C41.8569 37.1486 42.2657 37.0719 42.1215 36.7559C42.0602 36.6214 42.0812 36.356 42.1103 36.2134C42.3839 34.8615 42.665 34.8308 43.9315 34.596C44.6151 34.4692 45.4343 34.4823 46.1426 34.5468C48.2543 34.7382 49.4639 38.6102 43.8661 38.1313C43.5013 38.1001 43.2438 38.0302 42.9533 37.8853C42.5589 37.6889 42.4635 37.6704 42.408 37.191Z" fill="#101314"/>
<path fill-rule="evenodd" clip-rule="evenodd" d="M42.408 37.191L42.4174 36.973C41.8569 37.1486 42.2657 37.0719 42.1215 36.7559C42.0602 36.6214 42.0812 36.356 42.1103 36.2134C42.3839 34.8615 42.665 34.8308 43.9315 34.596C44.6151 34.4692 45.4343 34.4823 46.1426 34.5468C48.2543 34.7382 49.4639 38.6102 43.8661 38.1313C43.5013 38.1001 43.2438 38.0302 42.9533 37.8853C42.5589 37.6889 42.4635 37.6704 42.408 37.191Z" fill="#101314"/>
<path fill-rule="evenodd" clip-rule="evenodd" d="M25.6702 46.6903C27.3132 48.8678 26.2679 49.6049 31.3351 54.4271C31.7671 54.8383 32.1159 55.1366 32.5694 55.4774C33.0036 55.8042 33.4956 56.089 33.8721 56.4551C31.3991 55.4219 28.5282 52.0713 27.0732 49.9083C26.5177 49.0827 25.9026 47.9312 25.4647 46.9147C25.3264 46.5211 24.6428 44.939 24.6397 44.5842C24.637 44.2849 25.4276 43.1713 25.6241 42.3959C26.1671 40.2559 25.2848 40.1922 27.708 39.0087C27.738 38.9938 27.961 38.8972 27.9699 38.8958C28.5909 38.7997 28.072 38.8326 28.3057 38.9748C28.089 39.4519 27.9476 39.3071 27.0097 39.8442C26.3753 40.2076 26.2826 40.4156 26.1582 41.267C26.0695 41.8754 25.9778 42.5435 25.7674 43.0508C24.8671 45.2175 24.598 43.5555 25.6702 46.6899V46.6903Z" fill="#101314"/>
<path fill-rule="evenodd" clip-rule="evenodd" d="M25.6702 46.6903C27.3132 48.8678 26.2679 49.6049 31.3351 54.4271C31.7671 54.8383 32.1159 55.1366 32.5694 55.4774C33.0036 55.8042 33.4956 56.089 33.8721 56.4551C31.3991 55.4219 28.5282 52.0713 27.0732 49.9083C26.5177 49.0827 25.9026 47.9312 25.4647 46.9147C25.3264 46.5211 24.6428 44.939 24.6397 44.5842C24.637 44.2849 25.4276 43.1713 25.6241 42.3959C26.1671 40.2559 25.2848 40.1922 27.708 39.0087C27.738 38.9938 27.961 38.8972 27.9699 38.8958C28.5909 38.7997 28.072 38.8326 28.3057 38.9748C28.089 39.4519 27.9476 39.3071 27.0097 39.8442C26.3753 40.2076 26.2826 40.4156 26.1582 41.267C26.0695 41.8754 25.9778 42.5435 25.7674 43.0508C24.8671 45.2175 24.598 43.5555 25.6702 46.6899V46.6903Z" fill="#101314"/>
<path fill-rule="evenodd" clip-rule="evenodd" d="M47.6892 54.991C47.5678 55.2022 47.6963 55.1404 47.3691 55.4139L46.2682 56.2075C45.812 56.4941 45.1687 56.9726 44.6387 57.117C45.0998 56.5613 46.2812 55.8752 46.7907 55.4351C47.2079 55.0745 46.9921 55.0357 47.6077 54.9057C48.1731 54.3712 48.6217 53.9839 49.2574 53.3416C49.8837 52.7088 50.274 52.2949 50.8381 51.616C52.439 49.6881 53.5555 47.7752 54.4545 45.3002C54.6899 44.6511 54.6237 44.6371 54.3005 44.1551C53.0881 42.3491 53.5278 41.12 53.1128 40.3743C52.9762 40.1283 52.538 39.866 52.1856 39.6593C50.8954 38.9032 51.2455 39.513 51.1882 38.8477C51.6413 38.6852 53.1011 39.6196 53.3245 39.9084C53.8044 40.5277 53.6849 41.8422 53.9934 42.6971C54.6201 44.4336 55.7254 43.8743 53.8796 47.4118C52.0455 50.9272 50.236 52.9453 47.6887 54.9914L47.6892 54.991Z" fill="#101314"/>
<path fill-rule="evenodd" clip-rule="evenodd" d="M47.6892 54.991C47.5678 55.2022 47.6963 55.1404 47.3691 55.4139L46.2682 56.2075C45.812 56.4941 45.1687 56.9726 44.6387 57.117C45.0998 56.5613 46.2812 55.8752 46.7907 55.4351C47.2079 55.0745 46.9921 55.0357 47.6077 54.9057C48.1731 54.3712 48.6217 53.9839 49.2574 53.3416C49.8837 52.7088 50.274 52.2949 50.8381 51.616C52.439 49.6881 53.5555 47.7752 54.4545 45.3002C54.6899 44.6511 54.6237 44.6371 54.3005 44.1551C53.0881 42.3491 53.5278 41.12 53.1128 40.3743C52.9762 40.1283 52.538 39.866 52.1856 39.6593C50.8954 38.9032 51.2455 39.513 51.1882 38.8477C51.6413 38.6852 53.1011 39.6196 53.3245 39.9084C53.8044 40.5277 53.6849 41.8422 53.9934 42.6971C54.6201 44.4336 55.7254 43.8743 53.8796 47.4118C52.0455 50.9272 50.236 52.9453 47.6887 54.9914L47.6892 54.991Z" fill="#101314"/>
<path fill-rule="evenodd" clip-rule="evenodd" d="M38.5526 39.7404C39.3503 39.8104 39.1552 40.9826 39.6875 40.7556C40.2126 39.8506 40.7673 39.0187 42.0978 38.835C42.797 39.656 43.0768 40.1851 44.064 40.692C44.8765 41.1095 46.3417 41.6146 47.1229 41.0318C47.4242 40.9479 47.1467 41.2643 47.7851 40.8901C48.171 40.6653 48.1347 40.5561 48.7767 40.292L48.7534 40.6057L49.0596 40.9908C49.296 40.743 49.1594 40.8247 49.5534 40.6351C49.7029 40.5917 49.6935 40.5917 49.7938 40.5254C50.0234 39.9553 50.318 39.5166 50.8543 39.3116L50.8857 40.7204C50.9251 41.7712 50.8342 41.9166 50.3691 42.5909C50.0678 43.0283 49.6693 43.7099 49.2378 43.9203C49.1742 44.1369 49.2839 43.9523 49.0994 44.2484C49.0323 44.3558 48.9513 44.4443 48.8702 44.5314C48.641 44.7788 48.4951 44.9232 48.2851 45.1155C47.8258 45.7244 47.1596 46.081 46.6717 46.7766C46.2486 47.3801 45.8918 48.2495 45.4961 48.9094C44.6674 50.2911 43.6852 51.717 42.6072 52.5945C43.1972 51.5699 44.1727 50.445 44.6164 49.1866C43.3468 50.7271 42.2034 53.3722 39.6087 53.4612C39.3172 52.3684 38.4895 50.4906 39.0065 49.1333C39.268 48.4467 41.1711 47.5593 41.8296 46.8786C40.8989 47.0524 39.9905 47.6374 39.037 47.0158C39.5491 45.9736 42.3744 45.7813 43.6172 45.2175L43.0227 45.1552L39.2774 45.0911C39.3687 44.9273 42.4734 42.8527 41.8779 42.1432C41.7418 42.0673 41.8462 42.0587 41.595 42.0696L40.0514 42.7679C39.6328 42.9308 40.2972 42.7792 39.67 42.9209L39.1753 42.479C39.1332 42.4835 38.9125 42.5205 38.9049 42.5183C38.5924 42.4393 38.9004 42.6058 38.6659 42.3788C38.1604 42.1477 38.4577 42.2452 37.9446 41.6412C37.5905 41.2241 37.7486 41.9107 37.6559 41.1767C37.6254 40.886 37.7118 41.0079 37.4325 40.6319C37.8148 40.218 37.9554 39.967 38.5526 39.74V39.7404Z" fill="#101314"/>
<path fill-rule="evenodd" clip-rule="evenodd" d="M38.5526 39.7404C39.3503 39.8104 39.1552 40.9826 39.6875 40.7556C40.2126 39.8506 40.7673 39.0187 42.0978 38.835C42.797 39.656 43.0768 40.1851 44.064 40.692C44.8765 41.1095 46.3417 41.6146 47.1229 41.0318C47.4242 40.9479 47.1467 41.2643 47.7851 40.8901C48.171 40.6653 48.1347 40.5561 48.7767 40.292L48.7534 40.6057L49.0596 40.9908C49.296 40.743 49.1594 40.8247 49.5534 40.6351C49.7029 40.5917 49.6935 40.5917 49.7938 40.5254C50.0234 39.9553 50.318 39.5166 50.8543 39.3116L50.8857 40.7204C50.9251 41.7712 50.8342 41.9166 50.3691 42.5909C50.0678 43.0283 49.6693 43.7099 49.2378 43.9203C49.1742 44.1369 49.2839 43.9523 49.0994 44.2484C49.0323 44.3558 48.9513 44.4443 48.8702 44.5314C48.641 44.7788 48.4951 44.9232 48.2851 45.1155C47.8258 45.7244 47.1596 46.081 46.6717 46.7766C46.2486 47.3801 45.8918 48.2495 45.4961 48.9094C44.6674 50.2911 43.6852 51.717 42.6072 52.5945C43.1972 51.5699 44.1727 50.445 44.6164 49.1866C43.3468 50.7271 42.2034 53.3722 39.6087 53.4612C39.3172 52.3684 38.4895 50.4906 39.0065 49.1333C39.268 48.4467 41.1711 47.5593 41.8296 46.8786C40.8989 47.0524 39.9905 47.6374 39.037 47.0158C39.5491 45.9736 42.3744 45.7813 43.6172 45.2175L43.0227 45.1552L39.2774 45.0911C39.3687 44.9273 42.4734 42.8527 41.8779 42.1432C41.7418 42.0673 41.8462 42.0587 41.595 42.0696L40.0514 42.7679C39.6328 42.9308 40.2972 42.7792 39.67 42.9209L39.1753 42.479C39.1332 42.4835 38.9125 42.5205 38.9049 42.5183C38.5924 42.4393 38.9004 42.6058 38.6659 42.3788C38.1604 42.1477 38.4577 42.2452 37.9446 41.6412C37.5905 41.2241 37.7486 41.9107 37.6559 41.1767C37.6254 40.886 37.7118 41.0079 37.4325 40.6319C37.8148 40.218 37.9554 39.967 38.5526 39.74V39.7404Z" fill="#101314"/>
<path fill-rule="evenodd" clip-rule="evenodd" d="M31.9524 41.6945C32.9064 41.8809 33.2834 43.217 33.706 44.1649L33.2279 42.2145C33.9464 42.4849 33.5667 42.2921 34.1783 42.0899L33.8837 42.7548C33.9504 42.7932 33.9911 42.7832 33.9988 42.8117C34.1237 43.2685 33.6469 42.6979 34.129 42.8708L34.3618 42.9317C34.1089 43.496 34.5763 44.1171 34.7374 44.7039C35.0016 44.7039 34.852 44.127 34.8556 43.7677C34.9639 43.8896 34.9581 43.7939 35.1126 44.1202C35.1475 44.1943 35.2035 44.4005 35.2411 44.5206C35.3642 44.9142 35.4031 44.9399 35.4671 45.3236L35.8947 47.2601C35.8544 47.2465 35.7429 47.0425 35.7402 47.0384L35.4788 46.7428C36.499 50.2582 39.3892 53.2088 39.511 53.4413C38.5695 53.3303 37.6885 52.7516 37.2113 52.3029L37.6966 52.9507L36.6911 52.4162C36.3173 52.0303 35.6887 51.5035 35.5025 51.1045C35.2688 50.8364 35.1233 50.7032 34.912 50.4306C34.655 50.0997 34.6027 49.9905 34.3784 49.6858C34.0198 49.1988 33.5712 48.6269 33.3268 48.0161C32.9839 47.558 32.7175 46.8272 32.4323 46.3744C31.631 45.6197 30.7526 44.619 30.039 43.6025C28.9261 42.0181 28.7041 42.0809 28.8581 39.5342L29.3805 40.023C30.1962 40.4573 30.8686 41.0079 31.3601 41.9608L31.1784 41.2896C31.7134 41.4192 31.6444 41.2743 31.9529 41.6936L31.9524 41.6945Z" fill="#101314"/>
<path fill-rule="evenodd" clip-rule="evenodd" d="M31.9524 41.6945C32.9064 41.8809 33.2834 43.217 33.706 44.1649L33.2279 42.2145C33.9464 42.4849 33.5667 42.2921 34.1783 42.0899L33.8837 42.7548C33.9504 42.7932 33.9911 42.7832 33.9988 42.8117C34.1237 43.2685 33.6469 42.6979 34.129 42.8708L34.3618 42.9317C34.1089 43.496 34.5763 44.1171 34.7374 44.7039C35.0016 44.7039 34.852 44.127 34.8556 43.7677C34.9639 43.8896 34.9581 43.7939 35.1126 44.1202C35.1475 44.1943 35.2035 44.4005 35.2411 44.5206C35.3642 44.9142 35.4031 44.9399 35.4671 45.3236L35.8947 47.2601C35.8544 47.2465 35.7429 47.0425 35.7402 47.0384L35.4788 46.7428C36.499 50.2582 39.3892 53.2088 39.511 53.4413C38.5695 53.3303 37.6885 52.7516 37.2113 52.3029L37.6966 52.9507L36.6911 52.4162C36.3173 52.0303 35.6887 51.5035 35.5025 51.1045C35.2688 50.8364 35.1233 50.7032 34.912 50.4306C34.655 50.0997 34.6027 49.9905 34.3784 49.6858C34.0198 49.1988 33.5712 48.6269 33.3268 48.0161C32.9839 47.558 32.7175 46.8272 32.4323 46.3744C31.631 45.6197 30.7526 44.619 30.039 43.6025C28.9261 42.0181 28.7041 42.0809 28.8581 39.5342L29.3805 40.023C30.1962 40.4573 30.8686 41.0079 31.3601 41.9608L31.1784 41.2896C31.7134 41.4192 31.6444 41.2743 31.9529 41.6936L31.9524 41.6945Z" fill="#101314"/>
<path fill-rule="evenodd" clip-rule="evenodd" d="M57.7934 46.462C57.7213 46.3112 57.6662 46.4606 57.6971 46.1532C57.715 45.9754 57.8981 45.8273 57.9962 45.2726C58.0826 45.38 58.2379 45.3859 58.2052 45.9488C58.1793 46.3961 58.3042 46.2774 57.7938 46.462H57.7934Z" fill="#101314"/>
<path fill-rule="evenodd" clip-rule="evenodd" d="M57.7934 46.462C57.7213 46.3112 57.6662 46.4606 57.6971 46.1532C57.715 45.9754 57.8981 45.8273 57.9962 45.2726C58.0826 45.38 58.2379 45.3859 58.2052 45.9488C58.1793 46.3961 58.3042 46.2774 57.7938 46.462H57.7934Z" fill="#101314"/>
<path fill-rule="evenodd" clip-rule="evenodd" d="M49.1948 47.7818C48.996 47.8699 48.9235 48.0026 48.6795 48.1393L48.012 48.7216C47.8751 48.9455 47.8939 48.9166 47.7305 49.1252L45.2861 51.2828C45.4571 50.8345 47.2917 48.546 47.6288 48.2486L48.0058 47.7742L48.6178 46.8082C49.0842 46.0047 49.6215 44.8551 50.0056 44.002C50.1023 46.081 50.6789 47.7119 48.6737 48.9243L49.1948 47.7827V47.7818Z" fill="#101314"/>
<path fill-rule="evenodd" clip-rule="evenodd" d="M49.1948 47.7818C48.996 47.8699 48.9235 48.0026 48.6795 48.1393L48.012 48.7216C47.8751 48.9455 47.8939 48.9166 47.7305 49.1252L45.2861 51.2828C45.4571 50.8345 47.2917 48.546 47.6288 48.2486L48.0058 47.7742L48.6178 46.8082C49.0842 46.0047 49.6215 44.8551 50.0056 44.002C50.1023 46.081 50.6789 47.7119 48.6737 48.9243L49.1948 47.7827V47.7818Z" fill="#101314"/>
<path fill-rule="evenodd" clip-rule="evenodd" d="M30.2696 45.1412C32.1602 48.7229 33.0403 49.2465 34.6453 51.8637C34.0131 51.5617 32.2211 49.9065 31.5263 49.2551C31.1534 48.9053 30.8091 48.5902 30.3825 48.3474L30.3435 48.3835L30.314 48.8195C29.9737 48.1862 29.4235 47.9371 29.42 46.8921C29.4173 46.058 29.5686 45.0072 29.6299 44.1658C29.9684 44.4506 30.0548 44.7228 30.2696 45.1412Z" fill="#101314"/>
<path fill-rule="evenodd" clip-rule="evenodd" d="M30.2696 45.1412C32.1602 48.7229 33.0403 49.2465 34.6453 51.8637C34.0131 51.5617 32.2211 49.9065 31.5263 49.2551C31.1534 48.9053 30.8091 48.5902 30.3825 48.3474L30.3435 48.3835L30.314 48.8195C29.9737 48.1862 29.4235 47.9371 29.42 46.8921C29.4173 46.058 29.5686 45.0072 29.6299 44.1658C29.9684 44.4506 30.0548 44.7228 30.2696 45.1412Z" fill="#101314"/>
<path fill-rule="evenodd" clip-rule="evenodd" d="M28.666 49.4489C29.0935 49.7386 29.4154 50.0903 29.8121 50.4649L33.4562 53.4278C35.2097 54.6181 37.3268 55.8319 40.0738 55.7578C42.7406 55.6856 46.3681 53.2919 48.1458 51.5798C48.4498 51.2869 48.5237 51.3284 48.8066 51.0892C49.2122 50.7466 50.3766 49.4488 51.0987 48.9456C50.6488 50.2284 47.811 52.6523 46.613 53.5009C41.7373 56.9527 38.4787 57.131 33.4786 53.7993C32.3016 53.0152 29.2314 50.6044 28.666 49.4498V49.4489Z" fill="#101314"/>
<path fill-rule="evenodd" clip-rule="evenodd" d="M28.666 49.4489C29.0935 49.7386 29.4154 50.0903 29.8121 50.4649L33.4562 53.4278C35.2097 54.6181 37.3268 55.8319 40.0738 55.7578C42.7406 55.6856 46.3681 53.2919 48.1458 51.5798C48.4498 51.2869 48.5237 51.3284 48.8066 51.0892C49.2122 50.7466 50.3766 49.4488 51.0987 48.9456C50.6488 50.2284 47.811 52.6523 46.613 53.5009C41.7373 56.9527 38.4787 57.131 33.4786 53.7993C32.3016 53.0152 29.2314 50.6044 28.666 49.4498V49.4489Z" fill="#101314"/>
<path fill-rule="evenodd" clip-rule="evenodd" d="M17.5219 54.4601L18.0112 54.5206C19.5892 51.8886 18.3984 52.6491 18.9343 51.244L19.1962 50.812C19.4137 52.4086 19.5427 52.0091 19.7455 52.8509C19.861 53.3312 19.7696 53.6115 19.8323 54.0299C19.9192 54.6113 20.1094 54.4141 20.3789 54.9101C20.3982 54.9336 20.43 54.9381 20.4376 54.9796C20.4452 55.0207 20.4846 55.0356 20.494 55.0501C20.4953 55.0519 20.631 55.2726 20.6399 55.2884L20.7075 55.6323L19.9666 55.4947C20.2576 55.6978 20.4837 56.012 20.8226 56.2056C20.7241 56.9007 20.8969 56.1894 20.5701 56.7414L21.2407 57.1941C20.105 56.973 17.5984 55.7628 17.1803 54.9914L16.8799 55.0004L17.0187 54.3761C17.0952 53.7067 17.786 52.2614 18.1746 51.9017C18.1164 52.5024 17.7837 54.039 17.5214 54.461L17.5219 54.4601Z" fill="#101314"/>
<path fill-rule="evenodd" clip-rule="evenodd" d="M17.5219 54.4601L18.0112 54.5206C19.5892 51.8886 18.3984 52.6491 18.9343 51.244L19.1962 50.812C19.4137 52.4086 19.5427 52.0091 19.7455 52.8509C19.861 53.3312 19.7696 53.6115 19.8323 54.0299C19.9192 54.6113 20.1094 54.4141 20.3789 54.9101C20.3982 54.9336 20.43 54.9381 20.4376 54.9796C20.4452 55.0207 20.4846 55.0356 20.494 55.0501C20.4953 55.0519 20.631 55.2726 20.6399 55.2884L20.7075 55.6323L19.9666 55.4947C20.2576 55.6978 20.4837 56.012 20.8226 56.2056C20.7241 56.9007 20.8969 56.1894 20.5701 56.7414L21.2407 57.1941C20.105 56.973 17.5984 55.7628 17.1803 54.9914L16.8799 55.0004L17.0187 54.3761C17.0952 53.7067 17.786 52.2614 18.1746 51.9017C18.1164 52.5024 17.7837 54.039 17.5214 54.461L17.5219 54.4601Z" fill="#101314"/>
<path fill-rule="evenodd" clip-rule="evenodd" d="M26.6198 15.2944C26.5356 15.9309 26.4546 16.4969 26.4004 17.1659C26.2656 17.2236 26.156 17.2715 26.0552 17.3397L25.5888 19.0305L21.5574 20.762L15.4023 24.3013C14.3095 25.4912 13.3018 26.714 13.291 27.8727C13.2785 29.2138 12.9432 29.4561 13.2266 30.1459C13.6613 30.3336 14.6605 32.4944 15.7551 33.0627C20.6468 35.6035 18.0033 33.9573 19.1314 34.3582C18.4528 34.9337 23.9937 36.4381 23.3056 36.6291C24.7417 37.4258 26.1295 36.314 26.4716 36.458C26.8418 36.6137 27.3517 36.9171 27.4417 37.3378L27.285 37.5996C27.5397 37.5946 27.5782 37.7381 27.6799 37.8262C27.5178 38.2288 27.4292 38.1823 26.4022 38.4152L22.874 39.5671C22.8539 39.5942 22.8194 39.5983 22.8078 39.643C22.7966 39.6872 22.7563 39.7017 22.7402 39.7161C22.0302 40.3553 20.4682 40.6162 21.1917 43.4685C22.0467 46.8412 24.4239 50.524 26.562 53.1082C26.9707 53.6025 27.7425 54.2926 27.9955 54.6619C28.2968 54.8293 28.2121 54.7684 28.4749 55.0131C28.6643 55.1891 28.7547 55.2667 28.9414 55.4342C29.1482 55.6197 29.1867 55.7159 29.3681 55.8883L31.811 57.7259C31.3155 57.5733 29.9993 56.7378 29.5811 56.4394C29.0887 56.0878 27.8222 55.3543 27.5648 54.8496C26.9201 54.6804 25.6841 53.4368 24.9177 53.027C25.2628 53.5429 24.0966 53.0577 24.5295 53.565C24.9508 54.0588 25.4495 55.5913 25.7123 55.9799C26.3323 56.0919 25.7186 56.0133 25.2566 56.555C26.0158 56.4647 25.8287 56.9093 25.8784 57.479C26.1063 57.7967 29.7996 58.7099 30.2446 58.8773L29.7472 59.1942C29.0735 59.3685 24.3438 57.9868 23.1332 57.3314C21.4468 56.4182 22.1819 56.6114 22.104 56.1356C22.0982 56.1 21.9867 55.8255 21.9563 55.7289C21.7956 53.8589 19.79 48.8007 18.8516 47.9895L18.6744 48.9203C18.5611 49.6804 18.5844 49.9648 18.1945 50.6003C17.8941 51.0896 17.6948 51.4643 17.4629 52.0389C17.0905 52.9624 16.3352 54.5093 16.9123 55.3805C18.5217 56.9612 23.041 59.4465 25.2288 59.7133C23.4475 59.5779 20.0711 58.0549 18.3202 57.2158L17.0247 56.3767L17.4267 56.2146L13.5552 51.4435L7.23484 55.1137L6.47648 56.4782C6.38202 56.606 6.27368 56.7265 6.08521 56.8461L6.23473 57.1133C6.27995 57.1801 6.33143 57.26 6.39097 57.3548C6.96042 58.2639 6.84178 58.0008 7.41123 58.6711C7.98067 59.3414 8.19466 59.2452 8.59802 59.9395C9.00138 60.6332 8.81157 60.4418 9.19164 61.1361C9.57128 61.8298 9.66618 61.4231 10.1649 62.3566C10.6632 63.2901 10.4971 63.3618 11.0191 63.6728C11.5411 63.9838 11.0428 63.6489 11.8974 64.2953C12.752 64.9412 13.7248 65.2048 14.0333 65.2288C14.3417 65.2527 18.044 64.7742 18.6614 64.7025C19.2783 64.6307 25.758 63.0513 26.6121 63.0991C27.4663 63.147 31.4538 62.6446 32.2372 62.9556C33.0207 63.2666 33.3766 63.1231 34.9193 63.5298C36.462 63.9365 39.1677 64.3915 39.9744 64.3915C40.7816 64.3915 50.9394 64.9421 51.6991 64.9421C52.4584 64.9421 51.9364 64.6072 54.5473 64.7029C57.1581 64.7986 56.2561 64.2723 57.8699 64.8943C59.4838 65.5163 59.6736 65.3249 60.7655 64.99C61.8574 64.6551 62.7116 64.1766 62.7116 64.1766C62.7116 64.1766 63.3522 66.4619 63.542 66.5337C63.7318 66.6055 65.0614 66.8289 65.3582 66.9129C67.2461 67.446 73.502 56.9784 73.3623 57.0416C72.8542 56.7008 72.4736 55.9592 72.0067 55.5335C71.5966 55.1597 70.9963 54.6926 70.3928 54.4384L67.7202 53.0306C68.2015 53.4467 68.9844 54.3057 69.5678 54.5287L70.0557 54.8821C69.1662 54.5495 68.1652 53.941 67.2407 53.4449C66.6113 53.1069 64.8278 51.9603 64.5488 51.9111C64.5251 51.8818 64.4951 51.8439 64.4763 51.8249L63.9413 51.4078C63.7211 51.2697 63.6405 51.2178 63.4328 51.109C63.3383 51.0048 63.2398 50.9163 63.1315 50.8265C63.0451 50.757 63.0075 50.747 62.9265 50.6852C62.7496 50.1765 62.1144 49.6813 61.1819 49.3522C61.1478 49.3206 60.9267 49.1211 60.9106 49.1103C60.659 48.9343 60.7203 48.0956 60.4118 47.9882C59.9816 48.055 59.8916 48.4111 59.4319 48.5555C59.1749 48.6363 59.4762 49.1153 59.1763 49.2191C58.4779 49.6231 57.1756 54.2714 56.9253 54.7151C56.8264 54.8903 56.8376 54.8673 56.7454 54.9733C56.8125 53.797 57.0959 52.7742 57.4831 51.8109C57.7298 51.1966 58.5911 49.4994 58.6283 49.2051L58.6928 48.7325C58.6986 48.7158 58.7169 48.6833 58.7237 48.6675C58.7299 48.6517 58.7514 48.6215 58.7581 48.6066C58.9542 48.1434 58.8311 48.4635 58.7944 47.79L58.3069 47.8076L58.0521 47.706C58.1533 47.535 58.6386 46.9252 58.3396 47.242C58.2728 46.8543 58.5867 47.2998 58.066 47.0958L57.8511 47.0181C58.3516 46.0152 58.2554 47.1608 58.4953 46.3519L58.6726 45.7484C58.6158 45.7502 58.5795 45.8017 58.5594 45.8026L58.2934 45.7714C58.267 45.7669 58.212 45.7592 58.1748 45.7421C58.2043 45.3214 58.2626 45.0158 58.4273 44.6172L58.2487 43.7519C58.2182 44.3112 57.8534 45.186 57.5995 45.6649C57.3265 46.1804 56.8107 46.8723 56.3031 47.1125C56.3613 46.6281 57.6425 44.2548 58.0772 43.6147L58.4573 43.1633L58.6265 41.644C58.4712 40.4758 57.7947 40.0461 56.7507 39.6448C56.1383 39.4092 54.2236 38.8282 53.8699 38.6089C53.3399 38.505 52.9132 38.2929 52.4239 38.2635L52.1871 37.605L52.4132 37.3035C57.3967 36.2657 63.782 35.8739 66.8096 30.8437C66.871 30.7417 66.9309 30.6379 66.9896 30.5318C67.251 30.618 67.3974 29.225 67.0899 28.199C66.5321 26.3384 65.1335 24.1894 64.8412 23.6586C64.8013 23.613 64.7628 23.5687 64.7243 23.5241L64.2359 23.5985L61.6457 20.8979L58.0969 18.6717L55.3522 18.7714L53.0838 5.80183L47.2882 2.74731L41.9756 0.666887L37.2776 0.53418L29.2588 5.74225L26.622 15.2971L26.6198 15.2944ZM50.2285 38.9063C49.5955 39.374 48.6867 39.9603 46.8696 40.0145L48.8671 39.1654C49.052 39.0778 49.2235 38.9885 49.3833 38.8973L50.2285 38.9063ZM51.2322 36.8579C51.5693 36.0012 51.6969 34.9396 51.9037 33.5425L52.5685 33.1259L52.171 34.2832L51.2949 36.8701L51.2327 36.8584L51.2322 36.8579Z" fill="black"/>
<path fill-rule="evenodd" clip-rule="evenodd" d="M15.1189 63.3095C15.0939 63.3104 14.7818 63.3262 14.7433 63.3126C14.2303 63.1357 14.5849 63.2409 14.451 63.0572C13.6868 62.6387 12.7803 61.8967 12.3389 61.2719C12.5408 60.9018 13.3802 60.1521 13.7835 59.9241C13.9107 59.7332 13.9357 59.6081 14.1949 59.4781C14.3888 59.3811 14.545 59.3883 14.738 59.4064C16.2574 58.3303 15.8616 58.5402 17.2378 58.1082C17.8278 57.9231 17.6792 57.9073 18.2316 58.1651C17.9541 58.3817 18.0082 58.2499 17.4683 58.2048C17.4482 58.686 17.4724 58.8169 17.6452 59.1455C18.4994 59.3694 18.3874 58.9347 18.6945 60.9293C17.9841 61.3721 16.8886 61.192 15.1189 63.3095ZM11.9941 61.387C12.5103 61.6204 12.3295 61.5532 12.9857 62.5281C12.1029 62.0921 12.1061 61.6944 11.9941 61.387ZM18.8951 58.6598C19.4466 58.8272 20.0483 59.2168 20.2941 59.5553C19.9982 59.4506 19.7784 59.3549 19.4641 59.2209C18.9846 59.0164 19.0039 59.1568 18.8951 58.6598Z" fill="#DD8D52"/>
<path fill-rule="evenodd" clip-rule="evenodd" d="M39.687 40.7556C39.4341 41.4607 39.5684 41.8827 39.1037 42.2736L39.1749 42.479L39.6695 42.9209C40.2963 42.7792 39.6324 42.9304 40.051 42.7679L41.5946 42.0696C41.8462 42.0587 41.7414 42.0673 41.8775 42.1432C42.4729 42.8532 39.3683 44.9277 39.2769 45.0911L43.0222 45.1552L43.7712 44.8447L43.1006 44.3229L44.8595 44.5057C44.7879 45.1629 44.474 46.2038 43.9494 46.5807C44.0644 45.348 44.2963 45.0266 43.6167 45.2175C42.3744 45.7809 39.5491 45.9731 39.0365 47.0158C39.9901 47.6374 40.8984 47.0524 41.8291 46.8786C41.1706 47.5593 39.268 48.4467 39.0061 49.1333C38.489 50.4906 39.3168 52.3684 39.6082 53.4612C42.203 53.3727 43.3459 50.7276 44.6159 49.1866C44.1723 50.445 43.1964 51.5699 42.6068 52.5945C43.6848 51.717 44.667 50.2906 45.4956 48.9094C45.8914 48.2499 46.2477 47.3806 46.6712 46.7766C47.1592 46.081 47.8253 45.7244 48.2847 45.1155C48.4946 44.9232 48.6401 44.7788 48.8698 44.5314C48.9508 44.4443 49.0318 44.3558 49.099 44.2484C49.2839 43.9523 49.1738 44.1369 49.2373 43.9203C49.6689 43.7095 50.0673 43.0279 50.3686 42.5909C50.8337 41.9166 50.9246 41.7712 50.8852 40.7204L50.8539 39.3116C50.3176 39.517 50.023 39.9553 49.7933 40.5254C49.6926 40.5917 49.7025 40.5913 49.5529 40.6351C49.159 40.8251 49.2955 40.743 49.0592 40.9908L48.7529 40.6057L48.7762 40.292C48.1342 40.5561 48.1705 40.6653 47.7846 40.8901C47.1462 41.2643 47.4238 40.9479 47.1225 41.0318C46.3413 41.6146 44.8765 41.109 44.0635 40.692C43.0764 40.1851 42.797 39.656 42.0973 38.835C40.7668 39.0187 40.2121 39.8506 39.687 40.7556Z" fill="#D3DEE5"/>
<path fill-rule="evenodd" clip-rule="evenodd" d="M59.723 51.402L59.9083 51.0571L60.3574 54.475C59.7682 54.2972 59.8452 54.21 59.8273 53.5316C59.8157 53.0969 59.7879 52.6275 59.8251 52.21C59.3649 53.366 59.8367 52.7846 59.21 53.1024C59.2516 52.6284 59.3035 52.5986 59.385 52.2145C59.6473 50.9795 59.4468 51.6787 59.7234 51.402H59.723ZM55.3008 60.3579L57.4434 59.4163C58.1046 59.155 58.9606 58.69 59.5654 58.6467L60.0646 59.215C59.381 59.41 58.9382 59.6375 58.4261 59.7973L58.4229 59.368C58.4234 59.3639 58.4314 59.3414 58.4261 59.3296C57.8642 59.8957 56.2105 60.301 55.3008 60.3579ZM57.6883 58.3528C57.6623 58.3795 57.6265 58.3849 57.6113 58.4332C57.597 58.4801 57.5531 58.4932 57.5325 58.5068L56.6882 58.8196C55.809 59.0737 54.0603 59.6312 53.3418 59.6813C53.3678 59.6601 53.4054 59.5914 53.4188 59.6167L57.4788 58.1082C59.0058 57.5381 61.3718 56.3961 62.4816 55.4396C62.5716 54.5346 61.7031 53.4007 61.5482 52.354C61.6614 52.46 61.6382 52.4185 61.7537 52.581C61.8302 52.6889 61.8383 52.711 61.9023 52.8275L62.6844 54.4696C63.1938 55.6324 62.8948 55.9072 62.0899 56.4566C61.3248 56.9788 58.7215 58.2007 57.6883 58.3533V58.3528Z" fill="#E6E6E6"/>
<path fill-rule="evenodd" clip-rule="evenodd" d="M21.1553 47.218C21.3254 47.2256 21.3773 47.1836 21.5358 47.3141C21.9118 47.6228 21.6692 47.1976 21.7386 47.793C21.3442 47.6567 21.1759 47.7009 21.1553 47.218Z" fill="#DD8D52"/>
<path fill-rule="evenodd" clip-rule="evenodd" d="M21.1553 47.218C21.3254 47.2256 21.3773 47.1836 21.5358 47.3141C21.9118 47.6228 21.6692 47.1976 21.7386 47.793C21.3442 47.6567 21.1759 47.7009 21.1553 47.218Z" fill="#DD8D52"/>
<path fill-rule="evenodd" clip-rule="evenodd" d="M20.891 47.6025C20.69 48.0738 20.9411 47.751 20.4805 47.9664C20.6851 47.4753 20.3077 47.6874 20.891 47.6025Z" fill="#DD8D52"/>
<path fill-rule="evenodd" clip-rule="evenodd" d="M20.891 47.6025C20.69 48.0738 20.9411 47.751 20.4805 47.9664C20.6851 47.4753 20.3077 47.6874 20.891 47.6025Z" fill="#DD8D52"/>
<path fill-rule="evenodd" clip-rule="evenodd" d="M22.7612 50.3141C22.3815 50.1358 22.4491 50.2121 22.6009 49.8514C22.8964 50.0397 22.9407 49.8961 22.7612 50.3141Z" fill="#DD8D52"/>
<path fill-rule="evenodd" clip-rule="evenodd" d="M22.7612 50.3141C22.3815 50.1358 22.4491 50.2121 22.6009 49.8514C22.8964 50.0397 22.9407 49.8961 22.7612 50.3141Z" fill="#DD8D52"/>
<path fill-rule="evenodd" clip-rule="evenodd" d="M24.4005 56.0508C23.5473 55.9668 23.451 55.5818 23.7084 54.7657C24.9355 54.3766 25.2153 55.3313 24.4005 56.0508Z" fill="#DD8D52"/>
<path fill-rule="evenodd" clip-rule="evenodd" d="M24.4005 56.0508C23.5473 55.9668 23.451 55.5818 23.7084 54.7657C24.9355 54.3766 25.2153 55.3313 24.4005 56.0508Z" fill="#DD8D52"/>
<path fill-rule="evenodd" clip-rule="evenodd" d="M27.5644 54.85C27.8219 55.3551 29.0883 56.0881 29.5808 56.4398C29.9989 56.7386 31.3155 57.5737 31.8107 57.7262L29.3677 55.8886C29.1864 55.7158 29.1483 55.6201 28.9411 55.4345C28.7544 55.2671 28.6639 55.1894 28.4746 55.0134C28.2113 54.7688 28.2964 54.8297 27.9951 54.6622C27.7426 54.293 26.9704 53.6024 26.5616 53.1086C24.4235 50.5244 22.0464 46.8416 21.1913 43.4688C20.4678 40.6165 22.0298 40.3556 22.7398 39.7165C22.7559 39.702 22.7962 39.6876 22.8074 39.6433C22.8191 39.5987 22.8535 39.5941 22.8737 39.5675C20.8488 39.8167 20.6492 41.6493 20.1254 42.2185C19.3607 43.0499 18.0432 44.0123 17.3704 44.9737C18.6292 46.6172 19.0415 46.1103 20.7011 49.4519C21.228 50.5127 22.6753 54.3693 21.9555 55.7293C21.9859 55.8263 22.0974 56.1003 22.1032 56.136C22.1807 56.6118 21.446 56.4186 23.1324 57.3317C24.3429 57.9871 29.0722 59.3684 29.7464 59.1946L30.2438 58.8777C29.7988 58.7102 29.0485 58.0842 28.8206 57.7664L28.1231 57.1503C27.8769 56.8961 28.0108 57.0433 27.8778 56.8271L27.748 56.8424C27.1418 56.2723 26.794 56.0191 26.5554 55.3601C26.9556 55.5907 27.1602 55.8146 27.5627 56.0281C27.2999 55.6399 26.5639 55.0405 26.1426 54.5467C25.7097 54.0398 25.262 53.5437 24.9169 53.0278C25.6833 53.4372 26.9193 54.6812 27.564 54.8505L27.5644 54.85Z" fill="#DD8D52"/>
<path fill-rule="evenodd" clip-rule="evenodd" d="M26.3506 56.312C26.929 56.4515 26.6819 56.3012 26.8314 56.7002C26.0726 56.4592 26.544 56.5084 26.3506 56.312Z" fill="#DD8D52"/>
<path fill-rule="evenodd" clip-rule="evenodd" d="M26.3506 56.312C26.929 56.4515 26.6819 56.3012 26.8314 56.7002C26.0726 56.4592 26.544 56.5084 26.3506 56.312Z" fill="#DD8D52"/>
<path fill-rule="evenodd" clip-rule="evenodd" d="M27.9847 19.5014C27.8665 18.6713 28.0143 18.7309 28.4266 18.5593L28.7194 19.2508L27.9847 19.5014Z" fill="#E4935A"/>
<path fill-rule="evenodd" clip-rule="evenodd" d="M27.9847 19.5014C27.8665 18.6713 28.0143 18.7309 28.4266 18.5593L28.7194 19.2508L27.9847 19.5014Z" fill="#E4935A"/>
<path fill-rule="evenodd" clip-rule="evenodd" d="M27.579 20.4993C27.3238 19.8416 27.1 20.2072 27.2992 19.3438L27.4107 19.4783C27.6251 19.6868 27.6882 19.5527 27.9072 19.7049L27.579 20.4993Z" fill="#E4935A"/>
<path fill-rule="evenodd" clip-rule="evenodd" d="M27.579 20.4993C27.3238 19.8416 27.1 20.2072 27.2992 19.3438L27.4107 19.4783C27.6251 19.6868 27.6882 19.5527 27.9072 19.7049L27.579 20.4993Z" fill="#E4935A"/>
<path fill-rule="evenodd" clip-rule="evenodd" d="M28.7156 20.5837L29.1807 20.8523C29.0317 21.2694 29.1275 21.111 28.5518 21.3299L28.7156 20.5837Z" fill="#E4935A"/>
<path fill-rule="evenodd" clip-rule="evenodd" d="M28.7156 20.5837L29.1807 20.8523C29.0317 21.2694 29.1275 21.111 28.5518 21.3299L28.7156 20.5837Z" fill="#E4935A"/>
<path fill-rule="evenodd" clip-rule="evenodd" d="M25.8225 22.6194C25.8744 22.4461 25.8359 22.3797 26.0105 22.2497C26.392 21.9658 26.242 22.2538 26.2751 22.2723C26.4014 22.6226 26.2053 22.6542 25.8225 22.6194Z" fill="#E4935A"/>
<path fill-rule="evenodd" clip-rule="evenodd" d="M25.8225 22.6194C25.8744 22.4461 25.8359 22.3797 26.0105 22.2497C26.392 21.9658 26.242 22.2538 26.2751 22.2723C26.4014 22.6226 26.2053 22.6542 25.8225 22.6194Z" fill="#E4935A"/>
<path fill-rule="evenodd" clip-rule="evenodd" d="M25.0099 23.2189C24.6563 23.1029 24.9065 23.0894 25.0099 22.9282C25.1098 23.0867 25.1232 23.0068 25.0099 23.2189Z" fill="#E4935A"/>
<path fill-rule="evenodd" clip-rule="evenodd" d="M25.0099 23.2189C24.6563 23.1029 24.9065 23.0894 25.0099 22.9282C25.1098 23.0867 25.1232 23.0068 25.0099 23.2189Z" fill="#E4935A"/>
<path fill-rule="evenodd" clip-rule="evenodd" d="M23.3642 23.3925C23.4274 23.4526 23.5433 23.2919 23.5652 23.6647C23.589 24.0628 23.4605 23.8367 23.3642 23.9076C23.1744 23.7017 23.2653 23.9816 23.238 23.6548C23.2017 23.2201 23.2886 23.5022 23.3642 23.3921V23.3925Z" fill="#E4935A"/>
<path fill-rule="evenodd" clip-rule="evenodd" d="M23.3642 23.3925C23.4274 23.4526 23.5433 23.2919 23.5652 23.6647C23.589 24.0628 23.4605 23.8367 23.3642 23.9076C23.1744 23.7017 23.2653 23.9816 23.238 23.6548C23.2017 23.2201 23.2886 23.5022 23.3642 23.3921V23.3925Z" fill="#E4935A"/>
<path fill-rule="evenodd" clip-rule="evenodd" d="M26.9763 14.974C26.9454 15.4669 26.7185 16.0623 26.628 16.6639C26.5407 17.244 26.457 17.7531 26.4011 18.3584C26.1052 18.4699 25.9319 18.5381 25.704 18.8491C25.6203 18.9637 25.5621 19.0955 25.4703 19.2093C25.2232 19.5162 25.4153 19.3163 25.1973 19.4693L25.0357 19.9798C24.5244 19.9663 24.6529 19.983 24.2043 20.1572C24.1851 20.1644 23.8542 20.3053 23.8533 20.3057C23.5717 20.4682 23.6859 20.377 23.4921 20.5937C23.1644 20.8239 21.764 21.2897 21.2362 21.5068C18.8922 22.4728 16.9376 23.4816 15.582 25.3531C20.0136 24.0229 29.6123 29.6918 33.6123 30.6577C32.6556 30.0249 29.9771 29.1619 29.354 28.5805C30.7923 29.0341 32.4295 29.8511 33.9995 30.1499L33.5653 29.8286C33.358 29.704 33.2841 29.6755 33.0957 29.5726C32.7876 29.4047 32.5128 29.2521 32.2258 29.1081C31.6098 28.7994 31.0014 28.4712 30.3541 28.1887C26.0094 26.2933 22.3276 24.8326 17.2089 24.4584C19.0529 24.2833 19.8023 24.4097 21.5854 24.7478C25.0258 25.4005 24.0011 25.2723 25.1413 24.2901C27.856 21.951 29.2546 22.1902 29.9185 21.7885C30.1034 21.6766 30.2838 21.4265 30.5564 21.2365C30.8586 21.0261 31.0842 20.9846 31.1679 20.7106L29.6893 20.8424C29.9364 19.6508 29.8688 20.2845 29.4305 19.4661C29.7143 19.1037 30.0353 18.9182 30.2041 18.5498L27.8484 19.0775C28.2925 18.6848 28.72 17.9165 29.6248 17.165C30.0796 16.7872 30.419 16.8192 30.4629 16.7759C31.176 15.0277 30.932 15.981 32.3042 15.3324C31.0274 15.1586 29.4453 16.1029 28.5374 16.7578C28.3355 16.9036 28.2424 16.9691 28.0423 17.1126L27.5292 17.3911C27.8842 17.0634 28.1211 16.724 28.4394 16.338C28.742 15.9715 29.0433 15.6352 29.3526 15.2412C29.6423 14.872 29.8742 14.3533 30.2815 14.1597C31.0632 13.7877 31.0798 14.1434 31.5359 13.3648C32.8893 11.055 32.6999 10.7553 34.4548 8.48397L34.0349 8.59275C33.7999 8.92768 33.5997 9.03782 33.2438 9.15833C33.2461 9.14931 33.2479 9.13983 33.2492 9.1308C33.234 9.13215 33.2188 9.13396 33.2035 9.13577C33.2188 8.89473 33.2138 8.97282 33.2116 8.97643C31.9456 9.35785 29.7287 11.1494 28.8799 12.467C28.5978 12.9048 28.2151 13.7128 27.9232 14.0847C27.9348 12.6597 28.2025 10.6741 28.4653 9.27163C28.8172 7.39162 29.1055 6.83326 30.6164 6.04695C33.0545 4.77765 36.7465 4.12405 38.0112 2.21921C36.9497 2.23185 36.4053 2.53744 35.4634 2.67646L37.2121 1.4013L38.3966 0.818115C37.829 0.841136 37.3047 1.05148 36.8445 1.15079L35.9303 1.6789C35.5297 1.94432 35.4061 2.04723 35.0063 2.31536C34.4024 2.7207 33.7703 3.1942 33.2116 3.52687C32.1085 4.18363 30.0022 5.01057 29.2577 5.73955C28.3391 6.63916 28.0535 8.7074 27.7468 10.1211C27.4339 11.562 26.9495 13.4713 26.9768 14.974H26.9763Z" fill="#E4935A"/>
<path fill-rule="evenodd" clip-rule="evenodd" d="M24.5192 23.8174C24.444 24.2281 24.6056 24.0173 24.2403 24.1559C24.1977 23.6152 24.1606 23.9253 24.5192 23.8174Z" fill="#E4935A"/>
<path fill-rule="evenodd" clip-rule="evenodd" d="M24.5192 23.8174C24.444 24.2281 24.6056 24.0173 24.2403 24.1559C24.1977 23.6152 24.1606 23.9253 24.5192 23.8174Z" fill="#E4935A"/>
<path fill-rule="evenodd" clip-rule="evenodd" d="M30.3999 11.9708C30.3852 11.407 30.3735 11.449 30.7549 11.4752C30.7576 11.481 31.0992 11.3948 30.7961 11.8593C30.6999 12.0069 30.549 11.9812 30.3999 11.9708Z" fill="#E4935A"/>
<path fill-rule="evenodd" clip-rule="evenodd" d="M30.3999 11.9708C30.3852 11.407 30.3735 11.449 30.7549 11.4752C30.7576 11.481 31.0992 11.3948 30.7961 11.8593C30.6999 12.0069 30.549 11.9812 30.3999 11.9708Z" fill="#E4935A"/>
<path fill-rule="evenodd" clip-rule="evenodd" d="M16.3397 55.9329L18.3202 57.2157C20.0711 58.0548 23.4479 59.5778 25.2288 59.7132C23.0405 59.4464 18.5212 56.9616 16.9123 55.3804C16.3357 54.5092 17.0909 52.9623 17.4629 52.0388C17.6944 51.4642 17.894 51.09 18.1944 50.6002C18.5843 49.9647 18.5611 49.6803 18.6743 48.9202L9.59766 54.1567L9.70823 54.2704C9.70823 54.2704 10.8332 53.9116 10.5355 54.3787C10.2378 54.8459 10.4362 54.5787 10.5355 54.9127C10.6349 55.2463 10.3368 55.2797 10.1716 55.5131C10.0059 55.7464 10.271 55.7135 11.032 56.2136C11.7931 56.7142 11.5947 56.2804 12.2233 56.1468C12.6925 56.0471 12.7932 56.0593 13.1849 56.0854C14.5414 55.6322 15.1314 55.7753 16.3397 55.932V55.9329Z" fill="#DD8D52"/>
<path fill-rule="evenodd" clip-rule="evenodd" d="M59.1212 34.5933C58.0065 35.6987 61.8605 33.8386 62.0741 33.7605C61.3878 34.4656 58.9891 35.5132 58.1291 35.771C56.1302 36.37 54.7594 36.3077 52.5806 36.3632L52.32 37.3472C55.2483 37.303 57.1635 37.4628 59.8191 36.6309C61.9008 35.9786 63.8209 35.0682 65.0775 33.8991C66.1654 32.8875 68.0935 31.2779 67.9243 28.9564C67.717 26.115 63.4404 21.2933 60.6522 19.8304C58.3718 18.6337 55.5357 17.7576 55.4847 17.6416L54.4013 8.14809C53.4254 2.95266 51.6096 4.74059 45.9339 1.74521C45.3116 1.41705 44.8098 1.27396 44.5152 0.9106L43.6163 0.530535C42.6771 0.337794 42.1663 0.129255 41.086 0.0398807L39.6709 0.000610352L39.6758 0.748553C40.9504 1.0722 42.1058 0.889836 43.4887 1.43466C44.4942 1.83097 45.5086 2.45659 46.429 2.91971C48.0022 3.71144 51.5442 4.74691 52.4794 5.72867C53.8001 7.11442 54.6081 16.8566 55.2134 19.1795C53.9644 18.7005 52.9262 18.3728 52.6522 18.348C55.0137 19.5658 57.8274 20.3928 60.3057 22.2805C61.2047 22.9652 62.0472 23.9303 62.3265 24.012C62.1855 23.6635 61.6967 23.2279 61.4075 22.9517C61.1962 22.7499 61.0829 22.6759 60.8935 22.4461C60.7068 22.2195 60.701 22.1536 60.5032 21.9473C59.6539 21.064 57.2669 19.9734 55.3338 19.2255L55.3513 18.7687C61.0569 20.1314 60.7342 20.9683 64.8403 24.8886C65.5324 26.0391 67.773 28.6138 66.4313 30.3106C66.4197 30.3449 66.4089 30.362 66.3973 30.4139C66.3861 30.4645 66.3686 30.4916 66.353 30.511C66.2227 30.6739 66.263 30.6265 66.1215 30.7299C65.0292 32.526 57.814 34.8714 54.5602 34.5784C54.8015 34.7657 54.5441 34.6384 54.8893 34.7391L55.7708 34.7716C56.1307 34.7554 56.4879 34.7368 56.8416 34.7107C57.3958 34.6696 58.6511 34.499 59.1216 34.5933H59.1212ZM62.3306 34.5409C62.5459 34.2769 62.8338 34.1446 63.2053 33.9171C63.5366 33.7145 63.7363 33.4969 64.1714 33.3118C63.8778 33.839 62.9488 34.3617 62.3306 34.5409Z" fill="#38DBFA"/>
<path fill-rule="evenodd" clip-rule="evenodd" d="M21.5995 35.6978C21.6389 35.6504 21.5695 35.3394 22.207 35.5777C22.523 35.6955 22.6869 35.7813 23.037 35.868C23.5863 36.0034 24.3505 36.0038 24.7167 36.2864C23.8531 36.2706 22.3431 36.0287 21.599 35.6983L21.5995 35.6978ZM35.8961 0.561639C35.8034 0.718269 34.652 1.45087 34.3408 1.67295C33.7866 2.06836 33.2825 2.457 32.7019 2.83842C32.2103 3.16116 29.5664 4.60468 29.1026 4.68638L28.7023 5.09714C27.3101 6.31994 27.5693 7.35135 27.1305 7.89888L27.1543 8.20537C27.0262 9.13071 25.4585 18.139 25.18 18.3367C21.3788 21.0351 15.482 22.2533 12.9029 26.9211C12.0241 28.5113 11.9149 30.6342 15.1014 33.2933C15.4475 33.5822 16.0196 34.1559 16.4252 34.2462C17.501 35.6874 21.6384 36.6945 22.4474 37.0298L22.6309 37.1255C23.3181 37.0619 24.1651 37.2894 24.8796 37.3399C25.7593 37.4022 26.5566 37.3828 27.4417 37.3417C27.3521 36.959 27.2371 35.7578 26.8669 35.6166C26.5248 35.4861 22.1734 34.8867 20.7372 34.1626C21.4253 33.9893 26.2244 35.1769 26.9031 34.6538C25.775 34.2895 22.0745 34.74 17.1822 32.4302C16.0877 31.9134 15.1104 31.1366 14.6757 30.9659C14.3919 30.339 13.5641 29.958 13.5766 28.7393C13.6142 25.0126 22.5324 20.7155 25.3022 19.4019L25.1961 20.1567C25.4141 19.9982 25.2221 20.205 25.4692 19.8876C25.561 19.7698 25.6192 19.6335 25.7029 19.5148C25.9308 19.193 26.104 19.1225 26.3999 19.007C26.4559 18.3805 26.5396 17.8537 26.6269 17.2534C26.7173 16.6309 26.9443 16.0148 26.9752 15.5047C26.9479 13.9497 27.4323 11.9744 27.7452 10.4831C28.0523 9.02012 28.3375 6.88011 29.2561 5.94936C30.0006 5.19509 32.1069 4.33972 33.21 3.65994C33.7687 3.31553 34.4013 2.82578 35.0047 2.40644C35.4041 2.12884 35.5281 2.02277 35.9288 1.74788L36.8429 1.2017C37.3031 1.09879 37.8274 0.881219 38.395 0.857296L39.6745 0.792748L39.6696 0.0457076C37.8104 0.0371314 37.4527 0.0917488 35.8952 0.562091L35.8961 0.561639Z" fill="#ECC29B"/>
<path fill-rule="evenodd" clip-rule="evenodd" d="M22.1608 38.8971C21.7579 39.409 20.8554 39.4808 20.392 39.9371C19.8307 40.49 19.9654 41.2028 19.3798 41.6614C19.1506 42.7009 16.5187 43.6804 16.5832 45.142L18.514 47.4355C18.7419 47.8268 18.6112 47.3335 18.7227 47.9929L18.852 47.9898C19.7908 48.8009 21.7964 53.8596 21.9567 55.7297C22.6765 54.3696 21.2292 50.513 20.7023 49.4523C19.0427 46.1107 18.6304 46.6176 17.3716 44.9741C18.044 44.0126 19.3619 43.0503 20.1266 42.2188C20.6504 41.6497 20.85 39.8175 22.8749 39.5679L26.4026 38.4159C26.6004 38.0801 26.5302 38.1582 26.7365 37.9605L26.5167 37.8675C25.4204 37.6991 23.2384 38.8601 22.1604 38.8971H22.1608Z" fill="#F5C9A8"/>
<path fill-rule="evenodd" clip-rule="evenodd" d="M60.6529 48.9865C60.9613 49.0939 60.6583 48.9323 60.9098 49.1079C60.926 49.1192 61.1471 49.3183 61.1811 49.3498C61.3866 49.5417 61.5402 49.6812 61.6619 49.7922C62.2511 49.9967 61.8459 49.8545 62.3133 50.2485C62.5018 50.4074 62.7391 50.5474 62.9262 50.6828C63.0072 50.7446 63.0448 50.7546 63.1312 50.8241L63.2812 50.9477C63.3031 50.9676 63.3385 51.0073 63.3569 51.0245C63.3757 51.0425 63.4079 51.0786 63.4325 51.1062C63.6402 51.215 63.7208 51.2669 63.9411 51.405L64.4761 51.8221C64.4949 51.8415 64.5248 51.8794 64.5486 51.9083C64.8275 51.9575 66.6115 53.104 67.2405 53.4421C68.1649 53.9386 69.1655 54.5466 70.0555 54.8793L69.5675 54.5259C68.9842 54.3029 68.2012 53.4439 67.7199 53.0277L70.3926 54.4356C70.996 54.6902 71.5968 55.1569 72.0064 55.5306C72.4729 55.9558 72.8535 56.6975 73.362 57.0387C73.255 54.5827 69.5232 53.0652 67.4988 51.9047C66.3214 51.2299 61.3248 48.262 60.4111 47.9849L60.6533 48.9856L60.6529 48.9865Z" fill="#38DBFA"/>
<path fill-rule="evenodd" clip-rule="evenodd" d="M58.494 46.3492C58.2544 47.158 58.3502 46.0124 57.8497 47.0154C58.173 47.1323 58.1475 47.395 58.0508 47.7033L58.3055 47.8049L58.793 47.7873C58.8302 48.4607 58.9533 48.1407 58.7567 48.6038C58.7505 48.6192 58.729 48.6494 58.7223 48.6652C58.7156 48.6815 58.6972 48.7135 58.6914 48.7302L58.6269 49.2028C58.5893 49.4971 57.7284 51.1943 57.4813 51.8087C57.0945 52.7719 56.8107 53.7943 56.7435 54.9711C56.8362 54.865 56.825 54.8885 56.9235 54.7129C57.1742 54.2687 58.8678 49.7165 59.5661 49.3121C59.94 48.3073 61.5306 46.6674 62.1689 45.9371C62.8306 45.1805 63.1274 45.0722 62.3803 44.1798C61.8583 43.5565 61.475 43.2613 60.9231 42.7092C58.9313 40.7182 59.7067 39.9454 58.3686 39.4069C57.5265 39.0679 54.7567 38.0563 53.8936 38.1204L53.4374 37.8835C53.3358 37.8532 53.1357 37.8212 53.0211 37.7964C52.7471 37.7372 52.4696 37.6776 52.1844 37.6018L51.8983 37.9733C51.9064 37.9801 52.0801 38.1259 52.0805 38.1263L52.2197 38.259C52.7977 38.2301 53.266 38.4879 53.8672 38.6057C54.2209 38.8251 56.136 39.406 56.748 39.6416C57.792 40.0429 58.4684 40.4726 58.6238 41.6408L58.4546 43.1601L58.0745 43.6111C57.6398 44.2511 56.3585 46.6245 56.3003 47.1089C56.7682 46.8872 57.2431 46.2824 57.5283 45.7849C57.7495 45.3999 58.648 45.8174 58.4922 46.3483L58.494 46.3492Z" fill="#29D9F9"/>
<path fill-rule="evenodd" clip-rule="evenodd" d="M13.1113 50.978C12.9832 51.2055 12.2584 51.5418 11.9513 51.7142C11.6832 51.8646 11.5618 51.9323 11.2995 52.083C10.8899 52.3186 11.0873 52.278 10.7014 52.3182C10.5904 52.4477 10.6468 52.4107 10.4843 52.5358C10.3706 52.6233 10.363 52.6143 10.2537 52.6856C9.85081 52.9488 10.0165 52.8734 9.56743 53.0183C9.27555 53.5089 6.0366 54.7056 5.96094 56.9169C6.51248 56.6221 6.49367 56.331 6.9033 55.9437C7.21712 55.6467 7.48081 55.4914 7.8573 55.1876C7.88416 55.1619 7.92535 55.0879 7.94012 55.1132L18.675 48.9197L18.8523 47.9885L18.7229 47.9917C17.0401 48.5374 14.8518 50.3452 13.1121 50.9771L13.1113 50.978Z" fill="#F1CEB3"/>
<path fill-rule="evenodd" clip-rule="evenodd" d="M65.5588 65.5266C66.6704 65.1411 68.9052 62.6563 69.6273 61.7079C70.1878 60.9722 70.7465 60.1741 71.2618 59.3932C71.7113 58.7121 72.7029 57.5137 71.551 57.0027C71.3057 57.3114 71.0926 57.8517 70.8773 58.2228L68.8018 61.5815C67.4615 63.5189 65.7916 65.1926 65.5588 65.5266Z" fill="#38DBFA"/>
<path fill-rule="evenodd" clip-rule="evenodd" d="M13.5557 64.3254C12.4441 63.94 10.2093 61.4551 9.48716 60.5067C8.92712 59.771 8.36797 58.9729 7.85269 58.192C7.40322 57.5109 6.41161 56.3125 7.56349 55.8015C7.80882 56.1103 8.02191 56.651 8.23725 57.0221L10.3127 60.3808C11.653 62.3181 13.3229 63.9919 13.5557 64.3259V64.3254Z" fill="#DD8D52"/>
<path fill-rule="evenodd" clip-rule="evenodd" d="M17.4066 54.8708C17.8248 55.6422 20.3313 56.8523 21.4671 57.0735L20.7965 56.6208C21.1228 56.0687 20.9505 56.7806 21.0489 56.085C20.7101 55.8913 20.484 55.5776 20.193 55.3741L20.9339 55.5117L20.8663 55.1678C20.8578 55.1524 20.7217 54.9313 20.7203 54.9295C20.7105 54.915 20.6711 54.9001 20.6639 54.859C20.6563 54.818 20.6245 54.8134 20.6053 54.7895C20.3358 54.2935 20.146 54.4907 20.0587 53.9093C19.996 53.4904 20.0873 53.2106 19.9718 52.7303C19.769 51.8885 19.6405 52.288 19.4225 50.6914L19.1606 51.1234C18.6248 52.5285 19.8156 51.768 18.2375 54.4L17.7482 54.3395C18.011 53.9179 18.3436 52.3809 18.4014 51.7801C18.0123 52.1399 17.322 53.5852 17.2455 54.2546L17.1067 54.8789L17.4071 54.8699L17.4066 54.8708Z" fill="#DD8D52"/>
<path fill-rule="evenodd" clip-rule="evenodd" d="M66.1211 30.0754C66.2626 29.9621 66.2223 30.0145 66.3526 29.8348C66.3682 29.8132 66.3862 29.7838 66.3969 29.7279C66.4081 29.671 66.4193 29.652 66.4309 29.6141C65.425 29.091 65.5351 28.91 63.9709 28.6716C62.884 28.506 61.8158 28.4572 60.7051 28.4771C58.4985 28.5168 56.4741 28.5574 54.3136 28.961C51.7381 29.4421 46.1578 31.5731 44.3917 32.5702C46.7895 32.2624 53.8212 28.3277 58.3481 28.9226L60.5757 28.826C62.135 28.7619 66.0553 28.431 66.1216 30.0754H66.1211Z" fill="#17718D"/>
<path fill-rule="evenodd" clip-rule="evenodd" d="M30.3439 48.3834L30.3828 48.3473C30.8095 48.5897 31.1533 48.9052 31.5266 49.255C32.2214 49.9064 34.0135 51.5611 34.6456 51.8636C33.0402 49.2464 32.1606 48.7228 30.27 45.1411C30.33 46.1278 30.0224 47.3059 30.253 48.1568C30.2637 48.197 30.2857 48.239 30.296 48.271C30.3063 48.3031 30.3242 48.3477 30.3439 48.3834Z" fill="#E38E58"/>
<path fill-rule="evenodd" clip-rule="evenodd" d="M30.3439 48.3834L30.3828 48.3473C30.8095 48.5897 31.1533 48.9052 31.5266 49.255C32.2214 49.9064 34.0135 51.5611 34.6456 51.8636C33.0402 49.2464 32.1606 48.7228 30.27 45.1411C30.33 46.1278 30.0224 47.3059 30.253 48.1568C30.2637 48.197 30.2857 48.239 30.296 48.271C30.3063 48.3031 30.3242 48.3477 30.3439 48.3834Z" fill="#E38E58"/>
<path fill-rule="evenodd" clip-rule="evenodd" d="M47.6888 54.9908C50.2361 52.9447 52.0456 50.9266 53.8798 47.4112C55.7255 43.8737 54.6202 44.433 53.9935 42.6965C53.685 41.8416 53.8046 40.5271 53.3246 39.9078C53.1008 39.6189 51.6414 38.6846 51.1883 38.8471C51.2456 39.5129 50.8955 38.9031 52.1858 39.6587C52.5381 39.8654 52.9764 40.1272 53.1129 40.3737C53.5274 41.1198 53.0883 42.3485 54.3006 44.1545C54.6243 44.6365 54.6905 44.6505 54.4546 45.2996C53.5556 47.775 52.4396 49.688 50.8382 51.6154C50.2742 52.2947 49.8838 52.7086 49.2575 53.341C48.6218 53.9833 48.1737 54.3706 47.6078 54.9051C46.9922 55.0351 47.208 55.0739 46.7908 55.4345C46.2813 55.8746 45.0995 56.5612 44.6388 57.1164C45.1688 56.9719 45.8122 56.4935 46.2683 56.2068L47.3692 55.4133C47.6964 55.1398 47.568 55.2012 47.6893 54.9904L47.6888 54.9908Z" fill="#2FB1CF"/>
<path fill-rule="evenodd" clip-rule="evenodd" d="M28.1143 34.4163C28.4746 35.6833 28.8037 36.9273 29.0951 38.2092C28.9559 38.3365 29.2312 38.2711 28.7782 38.4882C29.2066 39.5327 31.5385 40.5889 32.912 40.7212L33.0906 40.6201C32.63 40.5903 32.202 40.3858 31.8806 40.1263C31.9401 39.5201 31.7888 40.0567 31.8246 39.5683C30.0912 39.1653 29.1309 38.1695 29.2751 36.0345C29.3995 34.1937 30.1884 32.9506 31.941 32.7705C29.3937 32.822 29.2348 34.6803 29.0512 35.1231C29.0405 35.1493 28.8923 35.4134 28.8901 35.417L28.7347 35.6106C28.7074 34.66 28.7056 34.8184 28.1143 34.4167V34.4163Z" fill="#D4946A"/>
<path fill-rule="evenodd" clip-rule="evenodd" d="M32.4323 46.375C32.1078 45.4406 31.2769 44.1691 30.7996 43.3516C30.0502 42.0692 29.9602 41.5059 29.3805 40.024L28.8581 39.5352C28.7041 42.0819 28.9261 42.0187 30.039 43.6035C30.7531 44.62 31.6314 45.6207 32.4323 46.3754V46.375Z" fill="#F7D3B5"/>
<path fill-rule="evenodd" clip-rule="evenodd" d="M50.9577 38.4133C51.1901 37.8283 51.6158 37.3612 51.9229 36.4999C52.158 35.8409 52.1495 34.7648 52.5273 34.2827L52.5689 33.1254L51.9041 33.542C51.4636 36.5189 51.3835 37.9723 48.8675 39.1649L46.87 40.0139C49.4858 39.9363 50.2195 38.7555 50.9577 38.4133Z" fill="#29D9F9"/>
<path fill-rule="evenodd" clip-rule="evenodd" d="M28.778 38.4884C29.2311 38.2712 28.9562 38.3367 29.095 38.2094C28.8035 36.927 28.4745 35.6835 28.1141 34.4164C28.1611 33.5872 28.0644 33.1264 27.375 32.8325C27.5429 34.7987 27.7031 37.275 28.778 38.4884Z" fill="#ECC29B"/>
<path fill-rule="evenodd" clip-rule="evenodd" d="M25.4648 46.9151C25.9027 47.9321 26.5178 49.0831 27.0734 49.9087C28.5283 52.0713 31.3988 55.4219 33.8722 56.4556C33.4953 56.0895 33.0037 55.8042 32.5695 55.4779C32.1156 55.1366 31.7668 54.8383 31.3352 54.4275C26.268 49.6054 27.3133 48.8678 25.6703 46.6908C25.647 46.9765 25.7285 46.9156 25.4653 46.9156L25.4648 46.9151Z" fill="#BA845A"/>
<path fill-rule="evenodd" clip-rule="evenodd" d="M25.4652 46.9152C25.7284 46.9152 25.6469 46.9761 25.6702 46.6904C24.5985 43.556 24.8671 45.2175 25.7674 43.0513C25.9782 42.5444 26.0695 41.8759 26.1582 41.2674C26.2822 40.4161 26.3753 40.208 27.0097 39.8447C27.9476 39.3075 28.089 39.4524 28.3057 38.9753C28.072 38.8331 28.5909 38.8002 27.9699 38.8963C27.961 38.8977 27.7376 38.9943 27.708 39.0092C25.2848 40.1932 26.1671 40.2563 25.6241 42.3964C25.4276 43.1718 24.637 44.2854 24.6397 44.5847C24.6428 44.9399 25.3264 46.522 25.4647 46.9152H25.4652Z" fill="#E2B79C"/>
<path fill-rule="evenodd" clip-rule="evenodd" d="M30.3435 48.3835C30.3238 48.3478 30.3059 48.3032 30.2956 48.2711C30.2853 48.2391 30.2634 48.1971 30.2526 48.1569C30.0216 47.306 30.3292 46.1279 30.2696 45.1412C30.0548 44.7232 29.9684 44.4506 29.6299 44.1658C29.5686 45.0072 29.4173 46.058 29.42 46.8921C29.4235 47.9371 29.9737 48.1862 30.314 48.8195L30.3435 48.3835Z" fill="#F1CEB3"/>
<path fill-rule="evenodd" clip-rule="evenodd" d="M30.3435 48.3835C30.3238 48.3478 30.3059 48.3032 30.2956 48.2711C30.2853 48.2391 30.2634 48.1971 30.2526 48.1569C30.0216 47.306 30.3292 46.1279 30.2696 45.1412C30.0548 44.7232 29.9684 44.4506 29.6299 44.1658C29.5686 45.0072 29.4173 46.058 29.42 46.8921C29.4235 47.9371 29.9737 48.1862 30.314 48.8195L30.3435 48.3835Z" fill="#F1CEB3"/>
<path fill-rule="evenodd" clip-rule="evenodd" d="M47.6288 48.2481C47.2922 48.5456 45.4571 50.8341 45.2861 51.2823L47.7305 49.1247C47.8939 48.9162 47.8755 48.9451 48.012 48.7212L48.6795 48.1389C48.9231 48.0021 48.996 47.8694 49.1948 47.7814L48.6737 48.923C50.6789 47.7105 50.1023 46.0797 50.0056 44.0006C49.6215 44.8542 49.0842 46.0034 48.6178 46.8069L48.0058 47.7728L47.6288 48.2472V48.2481Z" fill="#29D9F9"/>
<path fill-rule="evenodd" clip-rule="evenodd" d="M30.4694 36.4227C30.1789 35.6797 30.3172 35.1715 30.4529 34.4646C30.0204 35.185 30.0764 36.3378 30.473 37.0804L32.7503 37.1147L30.4694 36.4227Z" fill="#E4935A"/>
<path fill-rule="evenodd" clip-rule="evenodd" d="M49.9533 36.4227C50.2439 35.6797 50.1055 35.1715 49.9699 34.4646C50.4023 35.185 50.3464 36.3378 49.9497 37.0804L47.6729 37.1147L49.9538 36.4227H49.9533Z" fill="#29D9F9"/>
<path fill-rule="evenodd" clip-rule="evenodd" d="M17.8838 33.8706L18.3015 33.9536C18.1246 33.352 17.6581 33.212 17.1012 32.9096C16.6625 32.6713 16.0944 32.2695 15.6709 32.1097C15.8688 32.7065 17.4016 33.4544 17.8838 33.8706Z" fill="#372A24"/>
<path fill-rule="evenodd" clip-rule="evenodd" d="M52.2784 32.5007C52.577 31.848 52.8806 30.7994 52.9553 29.9255C52.402 30.0659 52.4665 30.4911 52.3416 31.0612C52.2883 31.3041 52.2198 31.5325 52.1576 31.7843C51.9749 32.5255 52.1522 32.3617 52.2784 32.5007Z" fill="#1FAED6"/>
<path fill-rule="evenodd" clip-rule="evenodd" d="M31.881 40.1264C32.5153 40.1666 33.5204 40.3963 34.1261 40.1079L31.825 39.5685C31.7887 40.0569 31.9405 39.5202 31.881 40.1264Z" fill="#C6794D"/>
<path fill-rule="evenodd" clip-rule="evenodd" d="M31.881 40.1264C32.5153 40.1666 33.5204 40.3963 34.1261 40.1079L31.825 39.5685C31.7887 40.0569 31.9405 39.5202 31.881 40.1264Z" fill="#C6794D"/>
<path fill-rule="evenodd" clip-rule="evenodd" d="M35.5021 51.1044C35.6763 50.8494 34.708 49.7403 34.5016 49.4465L33.3895 47.9993C33.3833 47.9745 33.3412 48.0002 33.3264 48.016C33.5708 48.6268 34.0194 49.1987 34.378 49.6857C34.6023 49.9904 34.6547 50.0996 34.9116 50.4305C35.1229 50.7027 35.2684 50.8358 35.5021 51.1044Z" fill="#D6C4B4"/>
<path fill-rule="evenodd" clip-rule="evenodd" d="M22.2069 35.5764C21.5689 35.3367 21.6388 35.65 21.5994 35.6974C22.343 36.03 23.8534 36.2738 24.717 36.2896C24.3508 36.0052 23.5866 36.0052 23.0373 35.8684C22.6872 35.7813 22.5234 35.6951 22.2073 35.5764H22.2069Z" fill="#563B29"/>
<path fill-rule="evenodd" clip-rule="evenodd" d="M28.8282 32.2113C28.7955 31.4169 28.6979 30.0704 28.0107 29.7283C28.0792 30.2289 28.227 30.6356 28.3649 31.1176C28.5242 31.6755 28.5305 31.8651 28.8282 32.2113Z" fill="#CC936E"/>
<path fill-rule="evenodd" clip-rule="evenodd" d="M26.4021 38.4155C27.4291 38.1822 27.5177 38.2287 27.6798 37.8265C27.5262 37.6929 27.5177 37.4342 26.6873 37.7493L26.5163 37.8671L26.7361 37.9601C26.5297 38.1578 26.6 38.0797 26.4021 38.4155Z" fill="#E8B088"/>
<path fill-rule="evenodd" clip-rule="evenodd" d="M38.5526 39.7405C37.9554 39.9675 37.8144 40.2185 37.4325 40.6324C37.7118 41.0084 37.6254 40.8865 37.6559 41.1772C37.7486 41.9112 37.5905 41.2242 37.9446 41.6417C38.4572 42.2457 38.1604 42.1482 38.6659 42.3793C38.9004 42.6063 38.5924 42.4398 38.9049 42.5187C38.9125 42.5206 39.1337 42.484 39.1753 42.4795L39.1041 42.2741C39.5684 41.8832 39.4345 41.4612 39.6875 40.7561C39.1556 40.9831 39.3508 39.8109 38.5526 39.7409V39.7405Z" fill="#E4935A"/>
<path fill-rule="evenodd" clip-rule="evenodd" d="M62.3027 34.5468C62.9277 34.3694 63.8665 33.8516 64.1633 33.3298C63.7232 33.5131 63.5213 33.7284 63.1869 33.9288C62.8113 34.1541 62.5208 34.285 62.3027 34.5463V34.5468Z" fill="#17718D"/>
<path fill-rule="evenodd" clip-rule="evenodd" d="M36.6899 52.4162L37.6954 52.9507L37.2101 52.3029C37.6878 52.7516 38.5684 53.3303 39.5099 53.4413C39.3885 53.2088 36.4983 50.2582 35.4776 46.7428L35.7391 47.0384C35.7422 47.0425 35.8532 47.2465 35.8935 47.2601L35.466 45.3236C35.402 44.9399 35.363 44.9142 35.2399 44.5206C35.2023 44.4005 35.1463 44.1943 35.1114 44.1202C34.957 43.7939 34.9628 43.8891 34.8545 43.7677C34.8509 44.127 35.0004 44.7039 34.7363 44.7039C34.5751 44.1171 34.1077 43.496 34.3607 42.9317L34.1279 42.8708C33.6462 42.6979 34.123 43.2685 33.9976 42.8117C33.9895 42.7828 33.9488 42.7932 33.8825 42.7548L34.1771 42.0899C33.5656 42.2921 33.9452 42.4849 33.2267 42.2145L33.7048 44.1649C33.2822 43.217 32.9053 41.8809 31.9513 41.6945C31.6428 41.2752 31.7118 41.4201 31.1768 41.2905L31.3585 41.9617C30.867 41.0088 30.1946 40.4582 29.3789 40.0239C29.9591 41.5063 30.0491 42.0691 30.798 43.3515C31.2757 44.169 32.1066 45.4405 32.4307 46.3749C32.7159 46.8272 32.9823 47.558 33.3252 48.0166C33.34 48.0003 33.382 47.9751 33.3883 47.9999L34.5003 49.447C34.7067 49.7413 35.6751 50.8499 35.5009 51.1049C35.6871 51.5044 36.3157 52.0307 36.6895 52.4167L36.6899 52.4162Z" fill="#E38E58"/>
<path fill-rule="evenodd" clip-rule="evenodd" d="M46.6475 43.3005C47.3258 43.2202 47.5939 43.3515 47.9476 43.7519C48.5099 44.3884 48.4154 45.8116 46.6122 45.1846C45.7298 44.8781 44.2426 43.644 43.2286 43.1349C42.4076 42.7228 41.3014 42.4555 40.2292 42.7882C40.0519 43.3637 40.0953 44.3523 40.2874 44.8646C40.6115 45.7303 41.1895 45.6825 41.7034 45.78C42.9394 46.0138 44.3326 46.393 45.6242 46.444C46.4904 46.4783 47.7694 46.3817 48.3411 45.7132C48.4324 45.6062 48.7364 45.1823 48.7852 45.0095C48.8515 44.7766 48.8224 44.1071 48.7445 43.8932C48.6334 43.5881 48.4356 43.4156 48.2373 43.2545C47.5662 42.7092 46.7823 42.9674 46.6475 43.2996V43.3005Z" fill="black"/>
<path fill-rule="evenodd" clip-rule="evenodd" d="M47.2263 43.8773C47.1184 43.8372 46.9599 43.8336 46.7114 43.8629L45.7682 43.9748L46.1295 43.0861C46.163 43.0035 46.2087 42.9263 46.2647 42.8559C46.4343 42.6437 46.7226 42.4713 47.0629 42.4049C47.3655 42.3458 47.7254 42.3652 48.0876 42.5146C48.2577 42.5846 48.4265 42.683 48.5886 42.8143C48.7063 42.91 48.8258 43.0111 48.9449 43.1484C49.0756 43.2987 49.1898 43.4747 49.2713 43.6986C49.3304 43.8602 49.3689 44.1545 49.3792 44.4353C49.389 44.7079 49.3738 44.9945 49.3254 45.1647C49.2901 45.2893 49.2028 45.4513 49.1038 45.6084C48.9821 45.8011 48.8299 46.007 48.7649 46.0833C48.439 46.4642 47.9685 46.6994 47.4546 46.8375C46.8359 47.0041 46.1433 47.0303 45.6021 47.009C44.6038 46.9698 43.5817 46.7513 42.6076 46.5437C42.2535 46.4683 41.9061 46.3938 41.6003 46.336C41.5497 46.3266 41.4781 46.3157 41.406 46.3053C40.8155 46.2187 40.2071 46.1289 39.8091 45.1818C39.6654 45.5606 39.4917 45.8025 39.2312 45.9885C38.9505 46.1893 38.6367 46.2715 38.1733 46.378V46.3785L37.7279 46.4832C35.8723 46.921 33.1253 47.5688 31.3485 46.6895C30.7083 46.3726 30.2902 45.7569 30.1371 45.1119C30.0569 44.7742 30.0475 44.4258 30.1151 44.1048C30.1881 43.7564 30.3488 43.4368 30.604 43.1867C30.9559 42.8419 31.4658 42.6419 32.1422 42.7015L32.841 42.7633L32.6293 43.4363C32.5335 43.7406 32.366 43.8358 32.1494 43.9586C32.0424 44.0191 31.8951 44.103 31.7899 44.3671C31.7778 44.3978 31.7688 44.4217 31.7635 44.4393C31.7281 44.5553 31.7245 44.6546 31.7505 44.725C31.763 44.7594 31.7885 44.7864 31.8257 44.8013L31.8454 44.809C32.4108 44.9832 33.1495 44.4921 33.6518 44.1586C33.753 44.0913 33.847 44.029 33.8931 43.9997C34.0001 43.932 34.1881 43.8078 34.386 43.6774C35.3239 43.0585 36.4775 42.2966 37.5779 42.1896C37.7897 42.1689 38.2866 42.1476 38.7105 42.1544C39.0472 42.1598 39.3606 42.1856 39.5276 42.2474L39.7429 42.3273L39.768 42.3815L39.7823 42.335L40.0652 42.2469C40.6351 42.07 41.2081 42.038 41.7512 42.1007C42.3864 42.1743 42.9814 42.3765 43.4797 42.6266C43.947 42.8613 44.5017 43.2368 45.0568 43.6124C45.7104 44.0547 46.3645 44.4975 46.7952 44.6474C47.1806 44.7815 47.4327 44.8004 47.5831 44.7494H47.5853C47.6252 44.7359 47.6507 44.7169 47.6632 44.6953C47.6847 44.6596 47.6936 44.6063 47.6928 44.544C47.6901 44.3969 47.6287 44.2398 47.5289 44.1265C47.4116 43.9938 47.3194 43.9098 47.2267 43.8751L47.2263 43.8773Z" fill="black"/>
<path fill-rule="evenodd" clip-rule="evenodd" d="M39.3344 42.7801C39.0792 42.6858 37.9667 42.7205 37.6305 42.7535C36.4809 42.8654 35.1419 43.8779 34.1919 44.4796C33.6153 44.8447 32.6147 45.6374 31.6835 45.3507C31.2139 45.2063 31.0519 44.7061 31.2703 44.1582C31.5568 43.4382 32.018 43.5109 32.0945 43.2671C30.1995 43.0997 30.2675 45.5263 31.5949 46.1831C33.331 47.0421 36.2937 46.2318 38.0491 45.8278C38.8424 45.645 39.1105 45.5557 39.3487 44.7964C39.5179 44.2566 39.577 43.3037 39.3348 42.7805L39.3344 42.7801Z" fill="black"/>
<path fill-rule="evenodd" clip-rule="evenodd" d="M46.648 43.3005C47.3262 43.2201 47.5944 43.3515 47.948 43.7519C48.5103 44.3883 48.4159 45.8115 46.6126 45.1846C45.7303 44.8781 44.2431 43.644 43.2295 43.1348C42.4085 42.7227 41.3018 42.455 40.2301 42.7882C40.0528 43.3637 40.0962 44.3522 40.2878 44.8645C40.6119 45.7303 41.1899 45.6824 41.7038 45.7799C42.9399 46.0138 44.333 46.3929 45.6246 46.4439C46.4909 46.4782 47.7699 46.3816 48.3416 45.7131C48.4329 45.6061 48.7369 45.1823 48.7861 45.0094C48.8524 44.7765 48.8233 44.1071 48.7454 43.8931C48.6343 43.588 48.4365 43.4156 48.2381 43.2544C47.5671 42.7092 46.7832 42.9674 46.6484 43.2996L46.648 43.3005Z" fill="#D3DEE5"/>
<path fill-rule="evenodd" clip-rule="evenodd" d="M40.1201 43.8493C40.1327 44.233 40.1917 44.6086 40.2875 44.8649C40.6117 45.7307 41.1896 45.6828 41.7036 45.7803C42.9396 46.0142 44.3328 46.3933 45.6243 46.4443C45.7259 46.4484 45.8338 46.4507 45.9453 46.4502C44.0534 44.4095 42.7117 44.2181 40.3252 43.8782L40.1206 43.8489L40.1201 43.8493Z" fill="#D3DEE5"/>
<path fill-rule="evenodd" clip-rule="evenodd" d="M46.648 43.3005C47.3262 43.2202 47.5944 43.3515 47.9481 43.7519C48.5103 44.3884 48.4159 45.8116 46.6126 45.1846C45.7303 44.8781 44.2431 43.644 43.2291 43.1349C42.408 42.7228 41.3018 42.4555 40.2296 42.7882C40.1589 43.0184 40.1231 43.3145 40.1182 43.6201L40.3554 43.654C42.8508 44.0092 44.2274 44.2051 46.2437 46.4426C47.0187 46.4079 47.8952 46.2345 48.3416 45.7127C48.4329 45.6057 48.7369 45.1819 48.7857 45.009C48.8519 44.7761 48.8228 44.1067 48.7449 43.8927C48.6339 43.5876 48.436 43.4152 48.2377 43.254C47.5666 42.7088 46.7827 42.967 46.648 43.2992V43.3005Z" fill="#ABBBC7"/>
<path fill-rule="evenodd" clip-rule="evenodd" d="M32.7203 43.3005C32.0421 43.2201 31.774 43.3515 31.4203 43.7519C30.858 44.3883 30.9525 45.8115 32.7557 45.1846C33.6381 44.8781 35.1253 43.644 36.1393 43.1348C36.9603 42.7227 38.0665 42.455 39.1387 42.7882C39.316 43.3637 39.2726 44.3522 39.081 44.8645C38.7568 45.7303 38.1789 45.6824 37.6649 45.7799C36.4289 46.0138 35.0357 46.3929 33.7442 46.4439C32.8779 46.4782 31.5989 46.3816 31.0272 45.7131C30.9359 45.6061 30.6319 45.1823 30.5827 45.0094C30.5164 44.7765 30.5455 44.1071 30.6234 43.8931C30.7344 43.588 30.9323 43.4156 31.1306 43.2544C31.8017 42.7092 32.5856 42.9674 32.7203 43.2996V43.3005Z" fill="#D3DEE5"/>
<path fill-rule="evenodd" clip-rule="evenodd" d="M39.248 43.8493C39.2355 44.233 39.1769 44.6086 39.0806 44.8649C38.7565 45.7307 38.1785 45.6828 37.6646 45.7803C36.4286 46.0142 35.0354 46.3933 33.7438 46.4443C33.6422 46.4484 33.5343 46.4507 33.4229 46.4502C35.3147 44.4095 36.6564 44.2181 39.043 43.8782L39.2476 43.8489L39.248 43.8493Z" fill="#ABBBC7"/>
<path fill-rule="evenodd" clip-rule="evenodd" d="M32.7208 43.3005C32.0426 43.2202 31.7744 43.3515 31.4207 43.7519C30.8584 44.3884 30.9529 45.8116 32.7562 45.1846C33.6385 44.8781 35.1257 43.644 36.1393 43.1349C36.9603 42.7228 38.0665 42.4555 39.1387 42.7882C39.2094 43.0184 39.2453 43.3145 39.2502 43.6201L39.0129 43.654C36.5175 44.0092 35.1409 44.2051 33.1246 46.4426C32.3497 46.4079 31.4731 46.2345 31.0272 45.7127C30.9359 45.6057 30.6319 45.1819 30.5827 45.009C30.5164 44.7761 30.5455 44.1067 30.6234 43.8927C30.7344 43.5876 30.9323 43.4152 31.1306 43.254C31.8017 42.7088 32.5856 42.967 32.7203 43.2992L32.7208 43.3005Z" fill="#D3DEE5"/>
<path d="M22.377 69.4988V70.1601H23.686V72.8251H24.4349V70.1601H25.7574V69.4988H22.377ZM26.8721 69.4988H26.1231V72.8251H27.4093L29.2913 70.1601H29.3952V72.8251H30.1446V69.4988H28.8853L26.9764 72.1638H26.8725V69.4988H26.8721ZM30.7485 69.4988V72.8251H31.4979V70.1601H31.5973L32.6713 72.8251H33.7363L34.8103 70.1601H34.9097V72.8251H35.6587V69.4988H34.2642L33.226 72.1638H33.1808L32.1426 69.4988H30.7481H30.7485ZM36.4573 69.4988V71.5264C36.4573 72.0108 36.3853 72.1638 36.0016 72.1638V72.8251H36.3177C36.8773 72.8251 37.2067 72.4703 37.2067 71.6172V70.1601H38.967V72.8251H39.716V69.4988H36.4578H36.4573ZM40.2483 72.8251H43.4478V72.1972H40.9972V71.4353H43.3713V70.8552H40.9972V70.1267H43.4478V69.4988H40.2483V72.8251ZM46.8461 71.6749C46.8461 72.0776 46.6926 72.1638 46.2458 72.1638H45.2846C44.8558 72.1638 44.6798 72.0681 44.6798 71.5598V70.7356C44.6798 70.2134 44.7837 70.1222 45.2846 70.1222H46.2458C46.6792 70.1222 46.8461 70.2707 46.8461 70.6205H47.5951C47.5951 69.6857 47.1304 69.4604 46.3904 69.4604H45.145C44.2241 69.4604 43.9309 69.7335 43.9309 70.7067V71.651C43.9309 72.5425 44.2062 72.8255 45.0724 72.8255H46.467C47.3923 72.8255 47.5951 72.5619 47.5996 71.6754H46.8461V71.6749ZM50.9531 71.6749C50.9531 72.0776 50.7996 72.1638 50.3528 72.1638H49.3916C48.9628 72.1638 48.7868 72.0681 48.7868 71.5598V70.7356C48.7868 70.2134 48.8907 70.1222 49.3916 70.1222H50.3528C50.7862 70.1222 50.9531 70.2707 50.9531 70.6205H51.7021C51.7021 69.6857 51.2374 69.4604 50.4974 69.4604H49.252C48.3311 69.4604 48.0379 69.7335 48.0379 70.7067V71.651C48.0379 72.5425 48.3132 72.8255 49.1799 72.8255H50.5744C51.4998 72.8255 51.7026 72.5619 51.707 71.6754H50.9536L50.9531 71.6749ZM52.8307 72.8251L53.2368 71.9864H55.0915L55.4931 72.8251H56.3732L54.7257 69.4988H53.6155L51.9546 72.8251H52.8303H52.8307ZM53.5394 71.3585L54.1576 70.1217H54.1939L54.7898 71.3585H53.5398H53.5394Z" fill="white"/>
<path d="M9.17555 70.0585L9.49788 68.4574L12.7547 67.5316L13.8511 68.7296L15.3965 68.2904L10.9542 63.5671L9.00499 64.121L7.63867 70.4945L9.176 70.0576L9.17555 70.0585ZM9.73604 67.2599L10.2455 64.8901L10.3091 64.8721L11.9315 66.6361L9.73649 67.2599H9.73604ZM20.3366 63.2466L21.7034 63.0336C22.5088 62.9081 22.8065 63.0548 22.9332 63.8835L23.0084 64.3755C23.1265 65.1465 22.9694 65.3726 22.1072 65.5072L20.7158 65.7238L20.3362 63.2462L20.3366 63.2466ZM18.7447 61.8821L18.8127 62.3249L17.0636 62.5975C15.6642 62.8156 15.0854 63.3342 15.3307 64.9339L15.4502 65.7134C15.6678 67.1326 16.2117 67.5858 17.7902 67.3398L19.5397 67.0671L19.6176 67.5758L20.9683 67.3655L20.8904 66.8568L22.6234 66.5869C24.2019 66.3409 24.599 65.7247 24.3814 64.3056L24.2632 63.5346C24.0179 61.9349 23.2962 61.6275 21.8968 61.8455L20.1638 62.1155L20.0958 61.6722L18.7451 61.8825L18.7447 61.8821ZM18.986 63.4574L19.3656 65.9351L17.9823 66.1504C17.1196 66.2849 16.8958 66.1265 16.7776 65.355L16.701 64.8545C16.5739 64.0257 16.8219 63.7942 17.6273 63.6687L18.986 63.457V63.4574ZM25.7746 66.7119L31.5948 66.2641L31.5129 65.1799L27.0554 65.523L26.9555 64.2067L31.2734 63.8745L31.1977 62.8729L26.8799 63.2051L26.7845 61.9471L31.2421 61.604L31.1601 60.5198L25.3399 60.9676L25.7746 66.7119ZM33.8337 64.4803L36.376 64.3927C37.7831 64.3444 38.3476 63.7431 38.2984 62.2834C38.2491 60.8317 37.6622 60.2869 36.2225 60.3366L32.3304 60.4706L32.5251 66.2285L33.891 66.1815L33.8332 64.4807L33.8337 64.4803ZM33.7352 61.5684L36.0143 61.4898C36.7301 61.465 36.9132 61.7661 36.9325 62.3303C36.9535 62.9523 36.7651 63.2331 36.0743 63.257L33.7952 63.3355L33.7352 61.5684ZM40.6755 60.3158L39.3092 60.2874L39.1924 66.047L41.5382 66.0953L45.0641 61.5517L45.2535 61.5557L45.1599 66.1702L46.5262 66.1982L46.6431 60.4386L44.3465 60.3912L40.7713 64.9339L40.582 64.9298L40.6755 60.3153V60.3158ZM52.9339 64.7606C52.8712 65.4552 52.5788 65.5785 51.7672 65.504L50.0208 65.3438C49.2419 65.2724 48.937 65.0779 49.0162 64.2013L49.1443 62.7794C49.2257 61.8785 49.4281 61.7386 50.3382 61.8221L52.0846 61.9823C52.8716 62.0545 53.1519 62.3384 53.0977 62.9419L54.4586 63.0665C54.6041 61.4546 53.7943 60.9884 52.4499 60.8651L50.1869 60.6575C48.5144 60.504 47.9387 60.9265 47.7873 62.6048L47.6405 64.2334C47.5017 65.7712 47.9579 66.3048 49.5324 66.4487L52.0658 66.6812C53.7468 66.8351 54.1565 66.4144 54.3029 64.8856L52.9334 64.7601L52.9339 64.7606ZM55.679 61.2402L55.5058 62.3723L57.8655 62.7397L57.1667 67.301L58.5173 67.5113L59.2161 62.9501L61.6 63.3216L61.7737 62.1895L55.6795 61.2402H55.679ZM62.9981 62.3746L61.5803 67.9555L65.3529 68.93C66.6691 69.2699 67.4086 69.1011 67.7663 67.6937C68.1281 66.2704 67.5179 65.7613 66.2098 65.4237L63.7932 64.7994L64.3223 62.7167L62.9986 62.375L62.9981 62.3746ZM63.5111 65.9089L65.848 66.5124C66.5339 66.6893 66.5545 66.9092 66.4466 67.3353C66.3221 67.8259 66.1856 67.9618 65.4756 67.7785L63.1866 67.1872L63.5116 65.9084L63.5111 65.9089ZM71.3728 64.5371L70.049 64.1954L68.6312 69.7763L69.955 70.118L71.3728 64.5371Z" fill="white"/>
<path fill-rule="evenodd" clip-rule="evenodd" d="M8.98047 71.5403L17.3812 69.51L14.3275 71.9538L28.6062 76.5209L8.98047 71.5403Z" fill="#DD8D52"/>
<path fill-rule="evenodd" clip-rule="evenodd" d="M69.6435 71.5405L61.2428 69.5101L64.2959 71.9539L50.0177 76.521L69.6435 71.5405Z" fill="#38DBFA"/>
<path fill-rule="evenodd" clip-rule="evenodd" d="M39.9346 77.9817V77.3177L44.3908 76.2109L39.9346 77.9817Z" fill="#38DBFA"/>
<path fill-rule="evenodd" clip-rule="evenodd" d="M39.9342 77.9817V77.3177L35.4775 76.2109L39.9342 77.9817Z" fill="#DD8D52"/>
</g>
</g>
<defs>
<clipPath id="clip0_1_13175">
<rect width="68.1232" height="79" fill="white" transform="translate(5.52246)"/>
</clipPath>
</defs>
</svg>
