<svg width="139" height="82" viewBox="0 0 139 82" fill="none" xmlns="http://www.w3.org/2000/svg">
<path fill-rule="evenodd" clip-rule="evenodd" d="M80.4192 62.9215L83.3463 64.4437L82.5826 64.3002V69.5999L82.0128 70.0028L83.9903 70.1864L80.4192 71.2132V62.9201V62.9215ZM60.6674 62.9215L57.7142 64.4437L58.3183 64.5196L57.0014 65.425L58.4436 64.9655V69.8193L58.943 70.0442L57 70.1684L60.6647 71.2159V69.7282L61.7793 67.894L64.405 72.2096L66.578 72.832L67.2578 73.0253L62.8872 66.0778L66.5174 60.0771L66.4858 63.1838L77.2471 68.7939V70.3244L74.3794 70.9386L68.3904 67.5738V66.093H66.2174V68.885L74.0683 72.9397L79.4449 71.4588L79.4958 67.7919L68.693 62.1569V61.2392L70.522 60.1545L77.3161 63.8131V65.2857H79.489V62.502L71.6464 58.4472L70.522 57.8676L66.6496 59.8618L66.6551 59.8522L63.4432 61.518L60.6674 66.0848V62.9215ZM68.7358 72.4649L72.9124 73.3316L69.7417 73.2723L68.7344 72.4649H68.7358ZM65.9173 69.5336L67.9981 72.9825L68.4592 71.7459L73.3403 73.1177L67.9472 70.3161L67.8715 70.9717L65.9173 69.5336ZM57.0014 70.9633L70.522 76.8605L83.9917 70.8709L70.522 75.1602L57.0014 70.9633ZM66.278 56.9608L66.622 55.7836L70.5234 53L74.5404 55.7836L74.8844 56.9608L82.8358 63.1092L70.5234 56.6835L58.244 63.0182L66.278 56.9608ZM65.8253 77.6182L66.2023 78.9127L70.522 82L74.8995 78.9211L75.2766 77.6251L84 70.8792L70.522 77.9273L57.0096 70.9717L65.8335 77.6169L65.8253 77.6182Z" fill="#B9B9B9"/>
<path fill-rule="evenodd" clip-rule="evenodd" d="M13.5061 50.5389C12.8258 50.3622 7.65244 47.4454 2.78011 47.0492C4.12729 52.693 9.91806 57.1369 16.6844 53.6416C18.2527 55.9278 19.8704 56.2291 21.8483 57.9089C13.266 57.2113 15.5335 57.9089 9.9314 57.9089C12.3399 61.4208 17.0351 64.0028 21.4558 62.1817C23.4394 61.365 23.5633 60.8033 25.0267 59.8471L29.3578 61.4357C29.7104 61.5678 29.8209 61.5901 30.2115 61.765C30.987 62.1128 30.5411 61.8729 30.9832 62.1742C27.5705 62.1742 22.5972 64.4566 20.2591 65.6657C21.4806 67.2934 25.4554 68.5787 28.9081 67.9054C31.5701 67.3864 33.7786 65.1282 34.9581 62.9518C36.109 63.4912 39.4703 63.7274 41.3148 63.7274C41.0995 61.2069 40.4059 62.5481 35.3563 61.4004C35.2382 56.2775 32.6257 51.9359 28.2069 50.9295C28.2069 57.4066 29.4531 57.4196 31.3834 60.2359C30.2115 60.1411 26.8254 58.7664 25.8232 58.2976C26.9226 53.6919 26.1223 47.6742 22.2485 46.6642C22.117 48.1988 21.3091 49.8804 21.1318 51.4262C20.8746 53.6491 21.8388 54.2555 22.2485 55.9706C20.4192 55.0256 19.0034 54.1197 17.8792 52.479C18.5347 49.7372 21.9931 46.2363 19.0701 40.8456C17.5438 41.2437 16.7397 42.6946 16.0099 44.0618C15.0724 45.8141 15.0991 46.8539 15.0991 49.3763C13.9463 48.5522 12.6982 46.3163 12.3171 44.7222C14.5408 41.4799 18.9062 39.8337 17.4809 33.8644C13.5061 34.7684 11.8921 37.6424 11.0309 40.7526L10.7279 41.6213C10.665 40.8716 9.74657 35.8436 9.53696 35.4158C14.6494 32.7762 16.7473 32.5158 18.2755 26.1094C15.5354 26.1689 12.7591 27.5119 11.0156 29.4912L9.81516 31.422C9.78086 31.489 9.70465 31.621 9.67606 31.675C9.64748 31.7289 9.59222 31.848 9.53696 31.9261C9.53696 29.214 9.9333 28.2188 9.9333 25.7206C14.5674 25.3449 19.6265 23.2912 20.6593 19.5151C18.1307 19.4612 17.9325 18.6985 15.0724 19.4909C12.6296 20.1662 12.7668 20.7689 11.1242 21.844C12.138 17.5954 12.5876 19.4872 15.806 16.3305C18.1631 14.0183 17.681 12.2549 19.0682 9.43304C16.4539 9.43304 16.008 9.29538 14.274 10.1808C7.63338 13.57 12.5915 16.9909 9.13872 21.8422C9.13872 16.5351 7.33994 14.7066 6.3567 10.5956H5.56212C5.141 12.1359 2.56669 15.0024 3.31364 18.9775C3.97103 22.4746 5.92225 23.7488 8.34413 25.3318C8.34413 27.6384 7.94588 29.1489 7.94588 31.9243C7.58003 31.409 3.73857 23.3843 0.794588 22.6179C0.483993 26.2675 -0.255335 28.0179 1.51105 31.2248C2.60099 33.2059 5.21722 35.1926 7.94588 35.4139C8.00114 37.7949 8.9615 39.9416 9.13681 42.0063C7.31897 39.9639 8.23742 40.0643 5.11242 37.7912C3.90434 36.9132 1.4253 35.0103 0 34.6382C0 38.4069 0.815548 40.4289 2.53049 42.6369C4.28353 44.8952 6.78353 45.496 10.7241 45.496C11.1966 46.3647 11.4996 47.1311 12.0427 48.0872C12.822 49.4581 13.146 49.2238 13.5042 50.537L13.5061 50.5389Z" fill="url(#paint0_linear_1_3480)"/>
<path fill-rule="evenodd" clip-rule="evenodd" d="M123.908 47.4358C123.908 44.5972 123.073 39.7236 119.935 38.9051C116.997 44.3275 120.459 47.7428 121.126 50.5386C120.002 52.1792 118.586 53.0833 116.757 54.0301C117.166 52.315 118.131 51.7086 117.873 49.4857C117.696 47.9399 116.888 46.2565 116.757 44.7237C112.883 45.7319 112.083 51.7514 113.18 56.3572C112.178 56.8278 108.792 58.2006 107.62 58.2955C109.552 55.4792 110.798 55.4661 110.798 48.9891C106.378 49.9935 103.765 54.337 103.649 59.4599C98.6851 60.589 97.9057 59.2553 97.6904 61.787C99.5349 61.787 102.896 61.5507 104.045 61.0113C105.225 63.1877 107.433 65.4478 110.095 65.9649C113.548 66.6383 117.523 65.3529 118.744 63.7253C116.404 62.5162 111.433 60.2337 108.018 60.2337L109.356 59.5994C110.002 59.3464 110.305 59.2609 110.8 59.0711C111.795 58.6898 112.908 58.1504 113.977 57.9067C115.358 58.8089 115.366 59.2795 117.269 60.1203C121.892 62.1609 126.623 59.5343 129.07 55.9665C123.468 55.9665 125.735 55.269 117.153 55.9665L119.941 54.0338C120.905 53.3697 121.661 52.6573 122.317 51.6993C129.081 55.1946 134.874 50.7506 136.219 45.1069C134.586 45.239 132.065 46.0035 130.503 46.5057C127.515 47.4656 126.372 48.3696 125.495 48.5966L128.275 43.5555C135.623 43.5555 139.001 40.0528 139.001 32.6978C137.576 33.0698 135.097 34.9727 133.889 35.8507C133.049 36.4627 132.462 36.8422 131.745 37.6365C131.179 38.2652 131.368 38.0885 130.894 38.7433L129.865 40.0659C130.042 38.0011 131.002 35.8545 131.056 33.4735C133.681 33.2614 136.244 31.3715 137.347 29.5336C139.264 26.3435 138.529 24.4666 138.207 20.6774C136.166 21.2094 132.847 26.4123 131.863 28.4454L131.2 29.7364C131.172 29.7885 131.111 29.9057 131.056 29.9838C131.056 27.2066 130.659 25.698 130.659 23.3914C139.819 17.4035 134.287 11.7523 133.439 8.65517H132.645C131.663 12.7661 129.865 14.5947 129.865 19.9017C126.473 15.1378 131.324 11.8081 124.988 8.37429C123.136 7.37166 122.624 7.49071 119.935 7.49071C121.322 10.3126 120.84 12.076 123.197 14.3882C126.412 17.5412 126.865 15.6531 127.879 19.9017C122.012 16.0661 124.767 17.4351 118.346 17.5747C119.379 21.3508 124.44 23.4025 129.072 23.7801C129.072 26.2783 129.468 27.2717 129.468 29.9856C129.413 29.9075 129.35 29.6769 129.329 29.7345L129.055 29.2267C127.429 26.1593 124.32 24.247 120.728 24.1689C122.256 30.5753 124.352 30.8339 129.466 33.4753C129.257 33.9032 128.338 38.9312 128.275 39.6808L127.972 38.8121C127.214 35.9475 127.058 35.4043 124.194 33.1944C123.298 32.5024 122.719 32.1955 121.522 31.9239C120.099 37.8951 124.463 39.5394 126.686 42.7817C126.305 44.3759 125.057 46.6118 123.906 47.4358H123.908Z" fill="url(#paint1_linear_1_3480)"/>
<path fill-rule="evenodd" clip-rule="evenodd" d="M65.2747 46.8333H66.3055V0H54.3867V9.85328V46.8333H65.2747Z" fill="url(#paint2_linear_1_3480)"/>
<path fill-rule="evenodd" clip-rule="evenodd" d="M85.2375 46.8333H86.2665V0H74.3477V9.85328V46.8333H85.2375Z" fill="url(#paint3_linear_1_3480)"/>
<defs>
<linearGradient id="paint0_linear_1_3480" x1="20.8537" y1="9.42529" x2="20.8537" y2="68.0882" gradientUnits="userSpaceOnUse">
<stop stop-color="#E1E1E1"/>
<stop offset="1" stop-color="#B6B6B6"/>
</linearGradient>
<linearGradient id="paint1_linear_1_3480" x1="118.346" y1="7.48633" x2="118.346" y2="66.1478" gradientUnits="userSpaceOnUse">
<stop stop-color="#E1E1E1"/>
<stop offset="1" stop-color="#B6B6B6"/>
</linearGradient>
<linearGradient id="paint2_linear_1_3480" x1="60.3461" y1="0" x2="60.3461" y2="46.8333" gradientUnits="userSpaceOnUse">
<stop stop-color="#E1E1E1"/>
<stop offset="1" stop-color="#B6B6B6"/>
</linearGradient>
<linearGradient id="paint3_linear_1_3480" x1="80.3071" y1="0" x2="80.3071" y2="46.8333" gradientUnits="userSpaceOnUse">
<stop stop-color="#E1E1E1"/>
<stop offset="1" stop-color="#B6B6B6"/>
</linearGradient>
</defs>
</svg>
