<svg width="157" height="94" viewBox="0 0 157 94" fill="none" xmlns="http://www.w3.org/2000/svg">
<path fill-rule="evenodd" clip-rule="evenodd" d="M89.0266 74.9215L91.9537 76.4437L91.19 76.3002V81.5999L90.6202 82.0028L92.5977 82.1864L89.0266 83.2132V74.9201V74.9215ZM69.2748 74.9215L66.3216 76.4437L66.9257 76.5196L65.6088 77.425L67.051 76.9655V81.8193L67.5505 82.0442L65.6074 82.1684L69.2721 83.2159V81.7282L70.3867 79.894L73.0124 84.2096L75.1854 84.832L75.8652 85.0253L71.4946 78.0778L75.1248 72.0771L75.0932 75.1838L85.8546 80.7939V82.3244L82.9868 82.9386L76.9978 79.5738V78.093H74.8249V80.885L82.6757 84.9397L88.0524 83.4588L88.1032 79.7919L77.3004 74.1569V73.2392L79.1294 72.1545L85.9235 75.8131V77.2857H88.0964V74.502L80.2538 70.4472L79.1294 69.8676L75.257 71.8618L75.2625 71.8522L72.0506 73.518L69.2748 78.0848V74.9215ZM77.3432 84.4649L81.5198 85.3316L78.3491 85.2723L77.3418 84.4649H77.3432ZM74.5248 81.5336L76.6055 84.9825L77.0666 83.7459L81.9477 85.1177L76.5547 82.3161L76.479 82.9717L74.5248 81.5336ZM65.6088 82.9633L79.1294 88.8605L92.5991 82.8709L79.1294 87.1602L65.6088 82.9633ZM74.8854 68.9608L75.2294 67.7836L79.1308 65L83.1478 67.7836L83.4918 68.9608L91.4432 75.1092L79.1308 68.6835L66.8514 75.0182L74.8854 68.9608ZM74.4327 89.6182L74.8097 90.9127L79.1294 94L83.5069 90.9211L83.884 89.6251L92.6074 82.8792L79.1294 89.9273L65.617 82.9717L74.4409 89.6169L74.4327 89.6182Z" fill="url(#paint0_linear_1_3468)"/>
<path fill-rule="evenodd" clip-rule="evenodd" d="M15.0486 59.8333C14.2898 59.6254 8.52382 56.2171 3.09628 55.7545C4.59798 62.349 11.0518 67.5429 18.5902 63.4592C20.3376 66.1328 22.1398 66.4825 24.3452 68.4454C14.7809 67.6299 17.309 68.4454 11.0644 68.4454C13.7483 72.5483 18.9823 75.5667 23.9076 73.4395C26.1177 72.4854 26.2562 71.8295 27.8869 70.7111L32.7147 72.5676C33.1068 72.7222 33.2311 72.7481 33.6655 72.9527C34.5297 73.3589 34.0323 73.0785 34.5266 73.4297C30.7219 73.4297 25.181 76.0968 22.5743 77.5101C23.9359 79.4133 28.3655 80.9152 32.2126 80.1272C35.1782 79.5212 37.6401 76.8816 38.9546 74.3371C40.2359 74.9672 43.9823 75.2443 46.038 75.2443C45.7988 72.2985 45.0259 73.8664 39.3968 72.5257C39.2662 66.5389 36.3541 61.4642 31.4287 60.2894C31.4287 67.8587 32.8171 67.8748 34.9688 71.1656C33.6624 71.0544 29.8892 69.4493 28.7716 68.8997C29.9963 63.5172 29.1053 56.483 24.7875 55.3034C24.6411 57.0953 23.7423 59.0631 23.5424 60.8695C23.256 63.4673 24.3311 64.1748 24.7875 66.1795C22.7491 65.074 21.1717 64.0168 19.9173 62.0992C20.6461 58.8954 24.5026 54.8038 21.2458 48.5027C19.5442 48.9669 18.65 50.6638 17.8347 52.2609C16.7895 54.309 16.8194 55.5257 16.8194 58.4732C15.5349 57.5112 14.1434 54.8973 13.72 53.0343C16.1991 49.2456 21.0632 47.3214 19.4749 40.3436C15.0454 41.4008 13.2462 44.7592 12.2859 48.3948L11.9491 49.4085C11.8782 48.5317 10.8551 42.656 10.6221 42.1566C16.3205 39.0706 18.6564 38.7675 20.3612 31.2804C17.309 31.3497 14.2142 32.9193 12.2702 35.2334L10.9322 37.4895C10.8928 37.5669 10.8094 37.7217 10.7779 37.7846C10.7465 37.8473 10.6851 37.9859 10.6237 38.0794C10.6237 34.908 11.066 33.7461 11.066 30.8276C16.2307 30.3876 21.8676 27.9897 23.0182 23.5757C20.199 23.5113 19.9803 22.6201 16.7926 23.5466C14.071 24.3364 14.2221 25.0405 12.393 26.2959C13.5232 21.3309 14.0238 23.5419 17.6111 19.8532C20.2384 17.1522 19.7016 15.0911 21.2474 11.7923C18.3353 11.7923 17.8378 11.6311 15.9033 12.6673C8.50178 16.6285 14.0285 20.6266 10.1798 26.2959C10.1798 20.0949 8.17436 17.9579 7.08036 13.1524H6.19569C5.72504 14.9525 2.85859 18.3028 3.68972 22.9488C4.42168 27.0357 6.59711 28.5263 9.29512 30.3748C9.29512 33.0707 8.85281 34.8354 8.85281 38.0794C8.44353 37.4767 4.16509 28.0993 0.884651 27.2016C0.538346 31.4658 -0.284915 33.5123 1.68272 37.2624C2.89795 39.5766 5.81319 41.9003 8.85281 42.1581C8.9142 44.9412 9.98458 47.4505 10.1814 49.8628C8.15548 47.4762 9.18021 47.5938 5.69671 44.938C4.35085 43.9114 1.58827 41.6876 0 41.2525C0 45.6583 0.909836 48.0192 2.82081 50.6009C4.77428 53.2406 7.56046 53.9417 11.9522 53.9417C12.478 54.9568 12.8164 55.8512 13.4225 56.9697C14.2898 58.5716 14.6518 58.2992 15.0517 59.8333H15.0486Z" fill="url(#paint1_linear_1_3468)"/>
<path fill-rule="evenodd" clip-rule="evenodd" d="M139.234 58.1446C139.234 54.8796 138.294 49.27 134.765 48.3293C131.46 54.5672 135.355 58.4983 136.105 61.7139C134.84 63.6002 133.246 64.6425 131.19 65.7308C131.651 63.7574 132.736 63.0609 132.445 60.5035C132.245 58.7252 131.336 56.7881 131.19 55.024C126.831 56.1852 125.931 63.1085 127.166 68.4088C126.04 68.9498 122.231 70.5298 120.91 70.6393C123.084 67.3998 124.486 67.3838 124.486 59.9325C119.512 61.089 116.572 66.0846 116.442 71.9783C110.856 73.276 109.98 71.7419 109.737 74.6546C111.813 74.6546 115.593 74.3816 116.888 73.7614C118.215 76.2664 120.7 78.8649 123.694 79.4615C127.578 80.2372 132.049 78.7587 133.424 76.8851C130.793 75.4954 125.199 72.8682 121.358 72.8682L122.861 72.14C123.589 71.8497 123.929 71.7513 124.487 71.5325C125.606 71.0945 126.858 70.4726 128.061 70.1919C129.615 71.231 129.625 71.772 131.767 72.7397C136.966 75.0876 142.291 72.0671 145.043 67.9614C138.739 67.9614 141.292 67.1586 131.636 67.9614L134.772 65.7389C135.857 64.9741 136.707 64.1539 137.446 63.0529C145.058 67.0745 151.573 61.9614 153.088 55.4683C151.251 55.6204 148.414 56.4994 146.656 57.0769C143.295 58.181 142.01 59.2201 141.021 59.4834L144.149 53.6834C152.416 53.6834 156.216 49.6523 156.216 41.1903C154.612 41.6186 151.824 43.808 150.465 44.8184C149.52 45.5229 148.859 45.9591 148.055 46.8728C147.417 47.5963 147.63 47.3933 147.096 48.1468L145.938 49.6683C146.137 47.2934 147.219 44.8233 147.278 42.0835C150.232 41.8391 153.114 39.6641 154.355 37.5495C156.512 33.8784 155.686 31.7209 155.322 27.3598C153.025 27.9721 149.291 33.9578 148.185 36.2978L147.438 37.7842C147.405 37.8445 147.338 37.9793 147.276 38.0681C147.276 34.8732 146.829 33.1376 146.829 30.4835C157.135 23.5935 150.91 17.0939 149.957 13.5292H149.064C147.959 18.2599 145.935 20.3635 145.935 26.4682C142.12 20.9871 147.576 17.1558 140.448 13.2072C138.364 12.0539 137.786 12.1903 134.762 12.1903C136.323 15.4377 135.781 17.4668 138.433 20.1256C142.049 23.7538 142.56 21.5821 143.701 26.4682C137.1 22.0547 140.2 23.6301 132.974 23.7903C134.136 28.134 139.83 30.4961 145.04 30.9293C145.04 33.8023 145.487 34.9477 145.487 38.0681C145.425 37.9778 145.353 37.7128 145.329 37.7778L145.021 37.194C143.192 33.6658 139.693 31.4655 135.653 31.375C137.373 38.7472 139.731 39.0439 145.485 42.0819C145.248 42.5753 144.217 48.3594 144.145 49.2208L143.804 48.223C142.949 44.9279 142.776 44.3028 139.552 41.7598C138.544 40.9635 137.893 40.6112 136.547 40.2971C134.945 47.1664 139.853 49.059 142.356 52.7903C141.927 54.6243 140.524 57.1973 139.227 58.1446H139.234Z" fill="url(#paint2_linear_1_3468)"/>
<path fill-rule="evenodd" clip-rule="evenodd" d="M84.3746 55.7036H85.5634V0H71.8311V11.7208V55.7036H84.3746Z" fill="url(#paint3_linear_1_3468)"/>
<defs>
<linearGradient id="paint0_linear_1_3468" x1="79.1074" y1="65" x2="79.1074" y2="94" gradientUnits="userSpaceOnUse">
<stop stop-color="#D1A460"/>
<stop offset="1" stop-color="#D9C586"/>
</linearGradient>
<linearGradient id="paint1_linear_1_3468" x1="23.2395" y1="11.7832" x2="23.2395" y2="80.3415" gradientUnits="userSpaceOnUse">
<stop stop-color="#D1A460"/>
<stop offset="1" stop-color="#D9C586"/>
</linearGradient>
<linearGradient id="paint2_linear_1_3468" x1="132.977" y1="12.1853" x2="132.977" y2="79.6723" gradientUnits="userSpaceOnUse">
<stop stop-color="#D1A460"/>
<stop offset="1" stop-color="#D9C586"/>
</linearGradient>
<linearGradient id="paint3_linear_1_3468" x1="78.6971" y1="0" x2="78.6971" y2="55.7036" gradientUnits="userSpaceOnUse">
<stop stop-color="#D1A460"/>
<stop offset="1" stop-color="#D9C586"/>
</linearGradient>
</defs>
</svg>
