<svg width="139" height="83" viewBox="0 0 139 83" fill="none" xmlns="http://www.w3.org/2000/svg">
<path fill-rule="evenodd" clip-rule="evenodd" d="M79.4192 63.9215L82.3463 65.4437L81.5826 65.3002V70.5999L81.0128 71.0028L82.9903 71.1864L79.4192 72.2132V63.9201V63.9215ZM59.6674 63.9215L56.7142 65.4437L57.3183 65.5196L56.0014 66.425L57.4436 65.9655V70.8193L57.943 71.0442L56 71.1684L59.6647 72.2159V70.7282L60.7793 68.894L63.405 73.2096L65.578 73.832L66.2578 74.0253L61.8872 67.0778L65.5174 61.0771L65.4858 64.1838L76.2471 69.7939V71.3244L73.3794 71.9386L67.3904 68.5738V67.093H65.2174V69.885L73.0683 73.9397L78.4449 72.4588L78.4958 68.7919L67.693 63.1569V62.2392L69.522 61.1545L76.3161 64.8131V66.2857H78.489V63.502L70.6464 59.4472L69.522 58.8676L65.6496 60.8618L65.6551 60.8522L62.4432 62.518L59.6674 67.0848V63.9215ZM67.7358 73.4649L71.9124 74.3316L68.7417 74.2723L67.7344 73.4649H67.7358ZM64.9173 70.5336L66.9981 73.9825L67.4592 72.7459L72.3403 74.1177L66.9472 71.3161L66.8715 71.9717L64.9173 70.5336ZM56.0014 71.9633L69.522 77.8605L82.9917 71.8709L69.522 76.1602L56.0014 71.9633ZM65.278 57.9608L65.622 56.7836L69.5234 54L73.5404 56.7836L73.8844 57.9608L81.8358 64.1092L69.5234 57.6835L57.244 64.0182L65.278 57.9608ZM64.8253 78.6182L65.2023 79.9127L69.522 83L73.8995 79.9211L74.2766 78.6251L83 71.8792L69.522 78.9273L56.0096 71.9717L64.8335 78.6169L64.8253 78.6182Z" fill="url(#paint0_linear_1_3473)"/>
<path fill-rule="evenodd" clip-rule="evenodd" d="M13.5053 50.5471C12.8257 50.3707 7.65154 47.4535 2.77865 47.0559C4.12581 52.6997 9.91688 57.1437 16.6816 53.6478C18.248 55.9345 19.8675 56.2356 21.8461 57.9154C13.2619 57.219 15.532 57.9154 9.92893 57.9154C12.3389 61.4278 17.0334 64.0085 21.4532 62.1876C23.4366 61.3713 23.5595 60.809 25.0248 59.8539L29.3578 61.4419C29.7097 61.5736 29.8205 61.5971 30.2109 61.7712C30.9869 62.1194 30.5411 61.8795 30.9821 62.1806C27.5672 62.1806 22.5956 64.4626 20.2579 65.6718C21.4798 67.2998 25.4537 68.5843 28.9072 67.9114C31.5677 67.3939 33.7777 65.133 34.9561 62.9569C36.1056 63.4957 39.4675 63.7333 41.3135 63.7333C41.099 61.2137 40.405 62.5546 35.3537 61.4066C35.2357 56.2827 32.6233 51.9422 28.2035 50.9353C28.2035 57.4119 29.4494 57.426 31.3798 60.2421C30.2085 60.148 26.8226 58.7741 25.82 58.3035C26.919 53.6972 26.1189 47.6793 22.2437 46.6701C22.1136 48.204 21.3062 49.8861 21.1279 51.434C20.87 53.6572 21.8364 54.2618 22.2437 55.9769C20.4146 55.0311 18.9999 54.1254 17.8745 52.4856C18.53 49.7449 21.9882 46.2419 19.0674 40.8522C17.5419 41.2498 16.737 42.7013 16.0068 44.0682C15.0693 45.8208 15.0958 46.8607 15.0958 49.3826C13.9439 48.5592 12.6955 46.3219 12.3148 44.7292C14.5391 41.4874 18.9035 39.8406 17.4793 33.8698C13.5053 34.7732 11.8906 37.648 11.0279 40.7581L10.7242 41.6262C10.6616 40.8757 9.74337 35.8483 9.5337 35.4201C14.6476 32.7805 16.7442 32.5217 18.2721 26.1133C15.532 26.1722 12.7558 27.5155 11.011 29.4963L9.81085 31.4278C9.77711 31.4937 9.69999 31.6278 9.67107 31.6795C9.64215 31.7336 9.58913 31.8536 9.53129 31.9312C9.53129 29.2187 9.92893 28.2236 9.92893 25.7252C14.5632 25.3488 19.6217 23.2973 20.6556 19.5214C18.1251 19.4673 17.9299 18.7051 15.0693 19.4979C12.6281 20.1731 12.763 20.7777 11.1219 21.8505C12.1364 17.6018 12.5847 19.4932 15.8044 16.3384C18.1613 14.0258 17.6793 12.2638 19.0674 9.44069C16.4526 9.44069 16.0068 9.30424 14.2716 10.1888C7.62986 13.5789 12.5895 16.9995 9.13606 21.8505C9.13606 16.5431 7.33584 14.7151 6.355 10.6029H5.56213C5.14039 12.1438 2.56658 15.0092 3.31366 18.9851C3.97157 22.4833 5.92121 23.7584 8.34319 25.3393C8.34319 27.6449 7.94556 29.1552 7.94556 31.9312C7.57925 31.416 3.73781 23.3914 0.795278 22.6245C0.484397 26.2733 -0.253043 28.0236 1.51103 31.2325C2.60032 33.2134 5.21751 35.2013 7.94556 35.4201C8.00099 37.8009 8.96014 39.9488 9.13606 42.012C7.31656 39.97 8.23716 40.0711 5.11147 37.7986C3.90409 36.921 1.42427 35.0178 0 34.6461C0 38.4149 0.816968 40.4358 2.53043 42.6448C4.28486 44.9033 6.78397 45.5032 10.7242 45.5032C11.1966 46.3713 11.5002 47.1383 12.0424 48.0934C12.8209 49.4649 13.1462 49.2297 13.5053 50.5448V50.5471Z" fill="url(#paint1_linear_1_3473)"/>
<path fill-rule="evenodd" clip-rule="evenodd" d="M123.907 48.9956C123.907 46.1584 123.073 41.2815 119.935 40.4652C116.997 45.8878 120.46 49.3038 121.126 52.0986C120.003 53.7384 118.585 54.6441 116.756 55.5898C117.166 53.8748 118.13 53.2702 117.872 51.047C117.694 49.5014 116.886 47.8169 116.756 46.2831C112.881 47.2923 112.081 53.3102 113.18 57.9165C112.177 58.387 108.792 59.7609 107.618 59.855C109.551 57.039 110.797 57.0249 110.797 50.5483C106.374 51.5528 103.762 55.8957 103.646 61.0196C98.6818 62.1488 97.9034 60.8149 97.6865 63.3463C99.5301 63.3463 102.892 63.1086 104.042 62.5699C105.222 64.746 107.43 67.0045 110.09 67.5244C113.544 68.1996 117.518 66.9128 118.74 65.2848C116.4 64.0756 111.428 61.7936 108.013 61.7936L109.351 61.1607C109.996 60.909 110.3 60.8219 110.797 60.6337C111.789 60.2526 112.903 59.7115 113.973 59.4692C115.354 60.3726 115.363 60.8431 117.267 61.683C121.889 63.7227 126.623 61.0972 129.069 57.5307C123.466 57.5307 125.733 56.8343 117.152 57.5307L119.937 55.5992C120.901 54.9335 121.658 54.2206 122.314 53.2655C129.078 56.7614 134.872 52.3174 136.217 46.6736C134.583 46.8053 132.062 47.5699 130.5 48.071C127.512 49.0309 126.37 49.9343 125.492 50.1625L128.273 45.1209C135.621 45.1209 139 41.6179 139 34.2614C137.573 34.6331 135.096 36.5364 133.889 37.4139C133.047 38.0255 132.462 38.4067 131.746 39.1995C131.18 39.8276 131.368 39.6535 130.893 40.3075L129.864 41.6297C130.04 39.5641 131.001 37.4186 131.054 35.0378C133.679 34.8261 136.243 32.9346 137.347 31.0972C139.263 27.9071 138.53 26.0322 138.205 22.2422C136.164 22.7738 132.845 27.9777 131.862 30.0103L131.199 31.3019C131.17 31.3537 131.11 31.4713 131.054 31.5489C131.054 28.7729 130.657 27.2625 130.657 24.957C139.817 18.9674 134.284 13.3189 133.438 10.2205H132.645C131.664 14.3328 129.864 16.1608 129.864 21.4682C126.473 16.7042 131.324 13.3753 124.986 9.94058C123.135 8.93838 122.62 9.05601 119.933 9.05601C121.318 11.8791 120.839 13.6412 123.196 15.9537C126.411 19.1062 126.864 17.2194 127.878 21.4658C122.01 17.6288 124.767 18.998 118.344 19.1391C119.376 22.915 124.437 24.9688 129.071 25.3428C129.071 27.8413 129.469 28.8364 129.469 31.5489C129.413 31.4689 129.351 31.2407 129.329 31.2972L129.057 30.789C127.43 27.7213 124.321 25.8087 120.73 25.731C122.258 32.1371 124.355 32.3959 129.469 35.0378C129.259 35.466 128.341 40.4934 128.278 41.2439L127.975 40.3758C127.215 37.5127 127.061 36.9692 124.196 34.7578C123.299 34.0662 122.721 33.7603 121.526 33.4874C120.101 39.4583 124.466 41.1027 126.69 44.3469C126.309 45.9396 125.061 48.1769 123.909 49.0003L123.907 48.9956Z" fill="url(#paint2_linear_1_3473)"/>
<path fill-rule="evenodd" clip-rule="evenodd" d="M55.3021 46.8326H56.3336V0H44.4141V9.85491V46.8326H55.3021Z" fill="url(#paint3_linear_1_3473)"/>
<path fill-rule="evenodd" clip-rule="evenodd" d="M75.2635 46.8326H76.2926V0H64.373V9.85491V46.8326H75.2635Z" fill="url(#paint4_linear_1_3473)"/>
<path fill-rule="evenodd" clip-rule="evenodd" d="M95.2231 46.8326H96.2545V0H84.335V9.85491V46.8326H95.2231Z" fill="url(#paint5_linear_1_3473)"/>
<defs>
<linearGradient id="paint0_linear_1_3473" x1="69.4999" y1="54" x2="69.4999" y2="83" gradientUnits="userSpaceOnUse">
<stop stop-color="#8F5D2A"/>
<stop offset="1" stop-color="#8F5D2A"/>
</linearGradient>
<linearGradient id="paint1_linear_1_3473" x1="20.8568" y1="9.43311" x2="20.8568" y2="68.0941" gradientUnits="userSpaceOnUse">
<stop stop-color="#D3A15C"/>
<stop offset="1" stop-color="#8D5B29"/>
</linearGradient>
<linearGradient id="paint2_linear_1_3473" x1="118.343" y1="9.05176" x2="118.343" y2="67.708" gradientUnits="userSpaceOnUse">
<stop stop-color="#D3A15C"/>
<stop offset="1" stop-color="#8D5B29"/>
</linearGradient>
<linearGradient id="paint3_linear_1_3473" x1="50.3738" y1="0" x2="50.3738" y2="46.8326" gradientUnits="userSpaceOnUse">
<stop stop-color="#D3A15C"/>
<stop offset="1" stop-color="#8D5B29"/>
</linearGradient>
<linearGradient id="paint4_linear_1_3473" x1="70.3328" y1="0" x2="70.3328" y2="46.8326" gradientUnits="userSpaceOnUse">
<stop stop-color="#D3A15C"/>
<stop offset="1" stop-color="#8D5B29"/>
</linearGradient>
<linearGradient id="paint5_linear_1_3473" x1="90.2947" y1="0" x2="90.2947" y2="46.8326" gradientUnits="userSpaceOnUse">
<stop stop-color="#D3A15C"/>
<stop offset="1" stop-color="#8D5B29"/>
</linearGradient>
</defs>
</svg>
