<svg width="73" height="43" viewBox="0 0 73 43" fill="none" xmlns="http://www.w3.org/2000/svg">
<g clip-path="url(#clip0_1_563)">
<path d="M70.2825 43.0001H55.5183L49.495 31.6202H32.5456L30.6266 43.0001H19.5948L23.2996 21.0184H54.32C56.0232 21.0184 57.5336 20.5887 58.8512 19.7293C60.1688 18.8745 60.9538 17.6985 61.2063 16.1969C61.4864 14.5234 61.165 13.2705 60.2422 12.4383C59.3149 11.6015 57.8963 11.1809 55.9773 11.1854L2.4984 11.2849L0.000976562 0.104094L56.9552 6.52514e-05C58.9798 -0.00445773 61.0365 0.226214 63.1299 0.67399C65.2233 1.12629 67.0597 1.92686 68.6389 3.08474C70.2228 4.24262 71.4256 5.80758 72.2474 7.77507C73.0691 9.74709 73.2206 12.2754 72.7018 15.3601C72.4172 17.0336 71.9398 18.6167 71.2603 20.1183C70.5809 21.6154 69.7407 22.9678 68.7399 24.1664C67.7345 25.365 66.5868 26.3826 65.2922 27.2194C63.9976 28.0561 62.5928 28.6441 61.0778 28.9879C61.5874 29.5442 62.1429 30.2498 62.7443 31.1091C63.3457 31.964 64.1445 33.1445 65.1361 34.6416L70.2825 43.0001ZM19.7968 20.9731H5.26669L7.58967 31.4755H18.3598L19.7968 20.9731Z" fill="white"/>
</g>
<defs>
<clipPath id="clip0_1_563">
<rect width="73" height="43" fill="white"/>
</clipPath>
</defs>
</svg>
