<svg width="41" height="24" viewBox="0 0 41 24" fill="none" xmlns="http://www.w3.org/2000/svg">
<g opacity="0.3" clip-path="url(#clip0_1_1499)">
<path d="M39.4741 24H31.1819L27.799 17.6485H18.2795L17.2017 24H11.0057L13.0865 11.7312H30.5089C31.4655 11.7312 32.3138 11.4914 33.0539 11.0117C33.7939 10.5346 34.2348 9.87823 34.3766 9.04011C34.5339 8.10606 34.3534 7.40679 33.8351 6.94229C33.3143 6.47527 32.5175 6.24049 31.4398 6.24302L1.40364 6.29855L0.000976562 0.0580989L31.989 3.64194e-05C33.126 -0.00248804 34.2812 0.126259 35.4569 0.37618C36.6327 0.628626 37.6641 1.07545 38.5511 1.72172C39.4406 2.36798 40.1162 3.24144 40.5777 4.33958C41.0392 5.44024 41.1243 6.85141 40.833 8.57309C40.6731 9.50714 40.4049 10.3907 40.0233 11.2288C39.6417 12.0644 39.1699 12.8192 38.6078 13.4882C38.0431 14.1572 37.3985 14.7252 36.6714 15.1922C35.9443 15.6592 35.1553 15.9874 34.3044 16.1793C34.5906 16.4898 34.9026 16.8836 35.2404 17.3632C35.5781 17.8404 36.0268 18.4992 36.5837 19.3348L39.4741 24ZM11.1192 11.7059H2.95843L4.26312 17.5677H10.3121L11.1192 11.7059Z" fill="white"/>
</g>
<defs>
<clipPath id="clip0_1_1499">
<rect width="41" height="24" fill="white"/>
</clipPath>
</defs>
</svg>
