<svg width="59" height="35" viewBox="0 0 59 35" fill="none" xmlns="http://www.w3.org/2000/svg">
<g clip-path="url(#clip0_1_2725)">
<path d="M56.8038 35.0001H44.8711L40.003 25.7374H26.3042L24.7532 35.0001H15.8371L18.8314 17.108H43.9027C45.2793 17.108 46.5 16.7582 47.5649 16.0587C48.6298 15.3629 49.2642 14.4058 49.4683 13.1835C49.6947 11.8213 49.4349 10.8016 48.6891 10.1242C47.9396 9.4431 46.7931 9.10072 45.2421 9.1044L2.01945 9.18539L0.000976562 0.0847276L46.0325 5.31116e-05C47.6688 -0.00362839 49.331 0.184128 51.023 0.548596C52.7149 0.916746 54.1991 1.56837 55.4755 2.51083C56.7556 3.4533 57.7277 4.7271 58.3919 6.32855C59.056 7.93368 59.1785 9.99164 58.7592 12.5024C58.5292 13.8646 58.1433 15.1531 57.5941 16.3754C57.045 17.5939 56.366 18.6947 55.5571 19.6703C54.7445 20.6459 53.8169 21.4742 52.7706 22.1553C51.7243 22.8364 50.5889 23.315 49.3644 23.5948C49.7763 24.0476 50.2252 24.6219 50.7113 25.3214C51.1974 26.0172 51.843 26.9781 52.6444 28.1966L56.8038 35.0001ZM16.0003 17.0712H4.25683L6.1343 25.6196H14.839L16.0003 17.0712Z" fill="white"/>
</g>
<defs>
<clipPath id="clip0_1_2725">
<rect width="59" height="35" fill="white"/>
</clipPath>
</defs>
</svg>
