<svg width="93" height="55" viewBox="0 0 93 55" fill="none" xmlns="http://www.w3.org/2000/svg">
<g clip-path="url(#clip0_1_173)">
<path d="M88.8913 55.0001H70.2844L62.6935 40.4445H41.3325L38.9141 55.0001H25.0109L29.68 26.884H68.7743C70.9208 26.884 72.8243 26.3344 74.4848 25.2352C76.1453 24.1418 77.1347 22.6376 77.4529 20.7169C77.8058 18.5764 77.4008 16.9739 76.2379 15.9094C75.0692 14.8391 73.2814 14.3011 70.8629 14.3069L3.46483 14.4342L0.317383 0.133143L72.0953 8.34611e-05C74.6468 -0.00570175 77.2388 0.289344 79.8771 0.86208C82.5154 1.4406 84.8297 2.46458 86.82 3.9456C88.8161 5.42661 90.3319 7.42829 91.3676 9.94486C92.4032 12.4672 92.5942 15.7011 91.9404 19.6467C91.5817 21.7872 90.9799 23.812 90.1237 25.7327C89.2674 27.6476 88.2086 29.3774 86.9473 30.9105C85.6802 32.4435 84.2338 33.7452 82.6022 34.8155C80.9706 35.8857 79.2002 36.6378 77.2909 37.0775C77.9331 37.7891 78.6332 38.6916 79.3911 39.7908C80.149 40.8842 81.1558 42.3941 82.4055 44.309L88.8913 55.0001ZM25.2655 26.8261H6.95363L9.88121 40.2594H23.4546L25.2655 26.8261Z" fill="white"/>
</g>
<defs>
<clipPath id="clip0_1_173">
<rect width="92" height="55" fill="white" transform="translate(0.316406)"/>
</clipPath>
</defs>
</svg>
