<svg width="133" height="145" viewBox="0 0 133 145" fill="none" xmlns="http://www.w3.org/2000/svg">
<path fill-rule="evenodd" clip-rule="evenodd" d="M115.177 50.3L132.999 59.8003L124.823 58.9618L126.83 61.5018V83.0915L124.756 85.0273L132.999 85.3479L115.177 90.9703V50.3Z" fill="white"/>
<path fill-rule="evenodd" clip-rule="evenodd" d="M110.599 47.8587V61.434H99.9133V53.8079L66.5017 35.9911L57.5032 40.7875V44.8995L110.641 73.2399L110.387 92.4807L85.1094 100.458L45.3359 79.2445V65.472H56.0216V73.2954L86.3974 89.4907L99.5807 85.3294V81.0509L46.6543 52.877L46.8175 34.8321L66.5017 24.3394L110.599 47.8587Z" fill="white"/>
<path fill-rule="evenodd" clip-rule="evenodd" d="M43.3956 123.09L45.2521 129.563L66.5025 145L88.0311 129.606L89.8876 123.127L132.999 89.8174L66.5025 124.643L0.0360718 89.8174L43.3956 123.09ZM78.0832 132.306L85.3339 127.442L87.517 120.013L111.973 103.312L74.5878 124.668L78.2102 124.773L78.0832 132.306Z" fill="#984FFF"/>
<path fill-rule="evenodd" clip-rule="evenodd" d="M45.628 19.808L47.3152 13.9205L66.5035 0L86.2601 13.9205L87.9534 19.808L126.747 50.5466L66.5035 18.4209L6.25977 50.5466L45.628 19.808ZM66.5035 4.81484L51.6391 14.1979L49.9519 20.1286L38.0083 29.2034L66.5035 14.0068V6.70748H69.4546L66.5035 4.81484Z" fill="#984FFF"/>
<path fill-rule="evenodd" clip-rule="evenodd" d="M0.0478516 89.8174L66.5022 119.304L132.999 89.8174L66.5022 110.809L0.0478516 89.8174Z" fill="#C2D835"/>
<path fill-rule="evenodd" clip-rule="evenodd" d="M44.1621 83.677L54.3942 100.914L56.662 94.737L80.8574 101.802L54.1463 87.5856L53.7713 90.8654L44.1621 83.677Z" fill="#C2D835"/>
<path fill-rule="evenodd" clip-rule="evenodd" d="M58.205 98.3928L77.7259 102.788L66.502 106.333L56.0703 103.041L62.9341 102.918L58.205 98.3928Z" fill="#C2D835"/>
<path fill-rule="evenodd" clip-rule="evenodd" d="M18.0269 50.189L4.35989 57.4821L6.47647 57.6054L-0.000244141 62.1305L7.0933 59.831V84.0963L9.55457 85.2245L-0.000244141 85.841L18.0269 91.0812V83.6401L22.8104 75.6441L35.2437 96.4694L51.3296 101.543L28.9605 65.3856L47.29 34.5854L31.4036 43.0561L18.0269 65.4288V50.189Z" fill="white"/>
</svg>
