<svg width="73" height="47" viewBox="0 0 73 47" fill="none" xmlns="http://www.w3.org/2000/svg">
<g style="mix-blend-mode:luminosity" opacity="0.4">
<path fill-rule="evenodd" clip-rule="evenodd" d="M53.8075 2.90041C52.5054 3.36091 50.8372 4.03147 49.7142 4.77474C48.8923 5.31604 48.0215 5.95428 47.4112 6.58444C45.8569 8.19217 45.4582 9.35555 44.3921 11.7308L43.4725 14.3565L43.0413 16.9902C42.911 19.8906 41.7067 19.4624 40.7464 21.0782L39.1758 20.9813L36.6287 20.7874L33.87 20.5854L23.8769 19.7533C23.2259 19.729 21.2891 19.6482 20.6788 19.3574C20.4835 19.2685 20.5242 19.2766 20.4103 19.1877L19.0919 18.9292C17.5865 18.8484 16.8866 19.0181 16.0484 19.8987C15.4625 20.5046 14.7301 21.2721 14.5836 22.2981C14.9743 22.4597 15.3242 22.799 15.5439 23.203L14.014 23.2919L14.193 24.2371L12.5736 24.5441C12.3458 24.738 12.1423 24.9157 11.947 25.0773C11.4913 25.8771 11.3123 26.6931 11.06 27.5737C10.7101 29.2461 10.1486 31.2174 11.4343 32.6393C11.8819 33.1321 11.9307 33.0352 12.3783 33.2856C12.7282 33.4876 12.004 33.0432 12.5492 33.3987C12.598 33.423 12.6794 33.4795 12.7201 33.5199L15.1045 33.8835L25.8462 35.782L28.548 36.3233C30.1348 36.7111 34.342 37.7775 35.2616 39.1914C35.5627 39.66 35.8475 40.0316 36.1486 40.5325C36.6206 41.2273 36.8322 41.7605 37.2716 42.6007C37.6704 43.3682 38.1179 43.8449 39.1433 43.9984L41.788 44.1357C42.968 44.1681 43.3749 44.1277 44.4409 43.8368C45.7674 43.1259 45.8325 42.94 46.6951 41.8817C47.0043 41.5101 47.3136 41.0415 47.9239 41.0011C48.4691 40.9607 49.2259 41.098 49.6572 41.2758C50.3164 41.4293 52.0334 41.7443 52.5542 41.9786C53.1971 42.3341 56.3952 42.835 57.7705 43.4652C58.2751 43.6106 58.6738 43.7803 59.1458 43.9742C59.4143 44.0873 59.5364 44.1357 59.805 44.2408C60.7245 44.572 61.1395 44.7336 62.1486 44.9517C64.6794 45.0487 68.3821 41.2435 69.9364 39.4903C71.3442 37.9068 71.3931 37.2282 72.3289 35.475C73.1996 32.0091 73.1915 31.0235 72.4835 27.493L71.5395 24.9157L71.0594 23.8897L70.9129 23.7443C69.3912 22.2658 65.2816 22.3305 63.0519 22.3062C59.6503 22.2577 55.9884 22.1042 52.5787 21.8215L49.8118 21.6599L47.1589 21.4983C45.4175 21.4014 43.6597 21.2398 41.9182 21.1752C42.081 20.6743 42.2438 20.6662 42.6018 20.2784C42.9029 19.9552 43.0087 19.6967 43.5621 19.6725C43.8469 19.4462 43.9527 19.4301 44.7013 19.5109C45.0513 19.5513 45.4175 19.6159 45.7755 19.6563C46.5405 19.7452 47.2078 19.7533 47.9971 19.7371C49.2585 19.6967 49.584 19.5917 50.5117 19.0181C51.8463 18.2021 52.9286 17.2891 53.9621 16.1177C55.0444 14.9058 55.9884 13.29 56.6963 11.8277C57.0707 11.0441 57.4287 9.88068 57.7949 9.20205C57.9007 8.66883 58.0716 8.22448 58.2262 7.68319C58.7959 5.71191 59.6096 3.02967 59.9107 1.1311C58.7389 1.22805 58.4785 1.31692 57.4694 1.65624C56.1999 2.08443 55.0769 2.40759 53.8075 2.90041Z" fill="black"/>
<path fill-rule="evenodd" clip-rule="evenodd" d="M31.0618 31.1447C32.0302 30.9589 32.6568 31.379 33.0148 31.8799C32.0871 32.2192 31.4605 31.7668 31.0618 31.1447ZM44.8715 29.6339C45.3516 29.1653 49.9494 28.5998 50.9748 28.5756C52.0408 28.5513 53.1313 28.7856 54.0508 29.1088C54.7507 29.3511 55.9469 29.6258 56.0771 30.2237C56.126 30.4661 56.1015 30.3368 56.0446 30.4661C55.6865 30.5468 54.2706 29.8924 53.6846 29.7228C49.9169 28.6402 47.5569 30.5307 44.8715 29.6339ZM36.0665 29.8117C34.6587 29.3188 34.2843 29.44 34.268 28.8583C34.7563 28.6887 37.8324 29.5127 38.3206 29.8601L38.1986 30.5307C37.4743 30.3449 36.7989 30.0702 36.0665 29.8117ZM57.9 28.3332C57.1025 28.7371 55.182 27.7434 54.8077 27.4283C55.9713 27.3476 57.2408 27.6626 57.9 28.3332ZM48.9729 26.7174C48.4602 27.2344 48.1184 27.089 47.3779 26.9113C46.5804 26.7174 46.3688 26.6528 45.9782 26.0307C47.3698 26.0307 48.0127 26.0953 48.9729 26.7174ZM31.0536 29.1249C30.7119 29.852 30.2236 29.5612 29.3773 29.335L20.5479 27.2748C19.4167 27.0244 17.8787 26.9113 17.4474 26.1599C18.2612 26.1357 23.1438 27.2021 24.3807 27.4364C25.5688 27.6546 26.7407 27.8727 27.9125 28.1555C28.4333 28.2766 30.6956 28.721 31.0536 29.1249ZM15.6327 26.3538C14.884 27.0486 13.6715 26.5073 13.2402 25.9822C14.1597 25.8691 14.9654 25.8368 15.6327 26.3538ZM45.1238 28.2362C44.8471 29.1573 44.31 29.1169 43.1707 29.0603C34.7726 28.6079 32.7463 25.2551 35.0737 24.94C35.6026 24.8673 38.7275 25.4167 39.1425 26.3458C37.7022 26.4508 36.7582 25.651 35.3178 25.8125C36.3106 28.0666 42.2593 28.2201 45.1238 28.2362ZM19.8887 24.6572C20.6455 24.1483 21.9964 24.8027 22.8264 25.0127C24.0064 25.3036 25.4142 25.2389 25.8781 25.5702C23.8111 26.3781 21.5895 25.5055 19.8887 24.6572ZM58.7056 26.0872C57.9814 26.3538 55.4098 25.4894 54.4821 25.247C53.8067 25.0612 53.1069 24.8511 52.4396 24.6411C51.8862 24.4633 50.8283 24.3341 50.6086 23.817C51.7804 23.7928 55.5319 24.8269 57.0374 25.2147C57.9976 25.4651 58.3638 25.3197 58.7056 26.0872ZM46.5235 23.7443C47.4105 23.8655 48.5253 23.607 49.0461 24.5199C48.1347 24.5764 46.7188 24.6249 46.5235 23.7443ZM17.0161 21.2317C17.4555 20.8359 17.9275 20.9894 18.5948 21.0298C18.1065 21.6195 17.6671 21.7246 17.0161 21.2317ZM16.3976 29.9248C17.2602 30.1671 19.2377 30.9993 20.0026 30.5711L19.2458 30.256C19.8073 30.1671 24.1284 30.2237 24.4458 30.8619C24.8039 31.1689 24.8202 31.0073 25.7234 31.1366C26.2036 31.2093 26.3582 31.3144 26.7488 31.2336C26.7813 31.2255 26.8709 31.1851 26.9115 31.1689C28.3519 31.7021 29.5075 31.7102 30.8177 32.5181C32.7137 33.6896 34.797 36.0891 35.863 38.0603C36.5385 39.3207 36.4164 39.2964 37.2627 40.6375L37.6208 41.195C37.751 41.3566 37.7266 41.3162 37.8242 41.405L39.7203 39.7246C39.3134 37.0343 37.4987 35.1034 35.8224 33.4876C35.5213 33.1968 35.4073 33.0433 35.2853 32.4939C37.1407 33.2937 38.7438 35.2731 39.6471 36.9454C40.0133 37.616 40.233 38.432 40.6155 39.0783L42.1942 38.2138C41.9256 36.3233 40.8352 34.6187 40.3713 33.0513C42.5197 34.8287 42.1372 36.7111 43.2765 37.9957L44.8064 37.8584L43.0568 33.1644C42.7394 32.3565 42.6662 32.1303 43.2765 31.6941L44.2612 33.5603C46.4014 34.0693 50.9341 34.1016 54.9216 35.0953L54.6205 35.4508C55.0192 35.6851 55.9144 35.7013 56.484 35.7255L58.5754 35.7013L58.8928 34.3359C58.1278 34.1986 55.9388 33.326 55.2634 33.0029C56.6061 32.9463 57.7698 33.4068 59.2102 33.326C58.7138 32.712 57.7779 32.2434 57.428 31.791C57.6884 31.5244 57.9407 31.379 58.2092 30.967L57.8267 29.9571L60.439 30.0702C60.0565 29.5127 58.4045 28.4221 58.5266 27.8C58.8928 27.186 59.3485 27.0567 60.0646 26.6608C61.1713 26.0307 62.1479 25.247 63.2221 24.5199C63.5476 24.3098 63.6696 24.221 64.0358 24.0109C64.9961 23.4615 64.695 23.607 64.817 23.2515L52.0734 22.4921C52.049 22.5163 52.0001 22.5325 51.9757 22.5486C51.9513 22.5567 51.9106 22.5809 51.8781 22.5971C51.3247 22.8233 50.5272 22.8475 49.2008 23.1061C48.6881 23.203 46.8734 23.4211 46.5235 23.7443C45.8562 23.7281 45.5795 23.9059 44.961 24.0513C44.546 24.1483 43.6427 24.0836 43.4067 24.2048C43.5857 24.4149 43.5857 24.3664 43.7892 24.5199C44.2123 24.8592 43.9275 24.4876 44.1635 24.8996C43.2521 25.7075 42.8208 24.1402 38.7601 23.8655C33.853 23.5343 27.1638 25.4732 22.7369 23.7847C22.2812 23.607 20.7432 22.993 20.377 22.6536C20.6455 22.4517 20.5479 22.4759 20.9547 22.4193C20.5479 21.87 18.4565 20.0522 17.8054 19.9391C16.7394 20.0199 16.1209 21.1429 15.8117 22.0881C16.3325 22.4436 18.1309 23.2757 18.4402 23.712C18.017 24.528 17.5694 24.019 16.6011 24.1483L16.9184 25.1824C13.4111 25.6186 12.9554 23.3565 11.751 28.624L15.5594 29.1815C16.2349 29.3027 16.3651 29.2946 16.3976 29.9248Z" fill="#A57E70"/>
<path fill-rule="evenodd" clip-rule="evenodd" d="M65.6966 36.4688L66.25 34.9176C66.8115 35.7336 66.5429 36.1941 65.6966 36.4688ZM63.5727 42.3745C61.4813 42.7381 61.5952 41.502 61.2209 38.9975C60.8791 36.6788 61.2616 35.8225 61.5545 33.6492C61.7417 33.7381 62.0672 33.9966 62.1567 34.2874C62.2869 34.7479 61.4162 37.5514 62.3032 40.8395C62.6857 42.2453 63.1983 41.809 63.5727 42.3745ZM68.5123 30.1348C69.562 30.1267 69.5051 30.5388 69.619 31.6214C69.7817 33.2776 69.4562 34.7237 68.9273 36.2506C68.6018 37.204 68.5855 37.5029 67.4544 37.4787C68.675 33.8996 69.0494 35.1519 68.5123 30.1348ZM64.7608 40.274C62.0997 38.1896 63.6866 29.4239 66.0303 29.1573C66.9417 29.0522 67.0393 29.7713 67.1207 30.5388C67.2428 31.8072 67.4218 31.7749 66.7789 32.6393L66.3151 30.1267C64.1911 30.6196 63.9226 36.0971 64.3702 37.8584C64.6224 38.8359 65.3386 39.5873 64.7608 40.274ZM63.0112 29.6097C63.5808 28.0343 64.2888 26.9194 65.2816 26.168C66.3965 25.3278 67.316 25.5459 68.6099 26.0064C69.5539 26.3377 69.4156 26.3134 69.4562 26.6124C68.553 27.6061 67.0149 25.5459 65.5094 27.0486C64.6468 27.9212 63.947 29.5127 63.0112 29.6097ZM59.6177 27.9373C59.9921 29.1734 61.5138 29.2784 62.0997 30.4176C61.5627 31.0397 61.3836 30.7569 60.4152 30.8619C60.0328 31.3951 60.6187 31.2336 60.0572 31.6698C59.7968 31.8718 59.4875 31.7749 59.0969 32.0253C59.3004 32.2677 59.6177 32.5828 59.9107 32.8171C59.8619 35.5801 58.7063 36.4688 59.3817 39.6438C59.813 41.6474 60.2525 44.3701 62.6531 44.0065C64.7445 43.6995 69.7655 38.8925 70.8478 36.7031C72.5648 33.2452 72.3289 30.8377 71.3442 27.2425C70.9699 25.8772 70.8234 25.4086 69.9852 24.633C68.3007 23.0657 66.1035 23.7362 64.2562 24.7461L59.6177 27.9373Z" fill="#DDB496"/>
<path fill-rule="evenodd" clip-rule="evenodd" d="M54.361 38.9651C55.4514 38.8843 57.5021 38.7632 58.2752 39.4418C57.7788 40.0477 57.0301 39.8296 56.1838 39.6599C55.5409 39.5226 54.7109 39.3448 54.361 38.9651ZM49.7062 39.0217C48.8517 39.1186 48.2658 38.9732 47.8427 38.3834C48.0135 38.2057 48.6727 38.1653 49.0145 38.335C49.2586 38.4562 49.5678 38.8036 49.7062 39.0217ZM56.4849 35.7254C55.9153 35.7012 55.0201 35.6851 54.6214 35.4508C53.5065 35.6851 51.057 35.1114 49.7794 34.9418C48.038 34.7236 46.2965 34.6752 44.5225 34.4974L45.1653 36.0648C47.3707 35.8709 48.6239 35.887 50.3247 36.905C50.878 37.2443 53.5146 39.2317 53.7425 39.6438C52.5707 40.0396 51.5128 38.7632 50.3247 37.826C49.161 36.9131 47.6067 36.6465 45.8408 36.8404C45.7268 37.5675 47.216 39.4903 47.7124 39.7569C48.4042 40.1285 50.6258 40.6052 51.5372 40.8395C54.0355 41.4777 56.7372 42.3422 59.211 42.8431C59.0808 41.8736 58.3729 37.01 58.0311 36.493C57.1603 36.2263 56.786 36.5253 56.4849 35.7254Z" fill="#776671"/>
<path fill-rule="evenodd" clip-rule="evenodd" d="M26.3014 22.8718C25.7644 22.8233 25.4633 22.694 25.1866 22.3305C26.1468 22.2012 26.7327 22.2335 27.5872 22.5082C27.2698 22.8152 26.8548 22.9202 26.3014 22.8718ZM20.955 22.4193C22.4604 22.7506 23.1521 23.4696 26.0329 23.6635C28.1243 23.8089 30.0122 23.6231 32.0711 23.3888C34.0892 23.1545 36.0423 23.0253 38.093 23.0899C41.8852 23.2111 40.6727 23.3242 43.4069 24.2048C43.6429 24.0836 44.5462 24.1482 44.9612 24.0513C45.5797 23.9059 45.8564 23.7281 46.5237 23.7443C46.8736 23.4211 48.6883 23.203 49.201 23.1061C50.5274 22.8475 51.3249 22.8233 51.8783 22.5971C51.9109 22.5809 51.9515 22.5567 51.976 22.5486C52.0004 22.5324 52.0492 22.5163 52.0736 22.492C49.2742 22.1931 46.1168 22.2658 43.2442 22.0558C40.339 21.8538 37.442 21.5549 34.5043 21.4741C29.4996 21.3367 26.155 20.6823 21.6385 20.343C20.6539 20.2703 18.5299 19.3251 17.8057 19.9391C18.4567 20.0522 20.5481 21.87 20.955 22.4193Z" fill="#776671"/>
<path fill-rule="evenodd" clip-rule="evenodd" d="M26.9125 31.169C26.8718 31.1852 26.7823 31.2255 26.7498 31.2336C26.3592 31.3144 26.2045 31.2094 25.7244 31.1367C24.8211 31.0074 24.8049 31.169 24.4468 30.862C24.1538 31.2175 24.1945 31.371 23.5354 31.3144C23.1692 31.2902 22.6484 31.1448 22.2903 31.072C21.5009 30.9185 20.7767 30.757 20.0036 30.5711C19.2387 30.9993 17.2612 30.1672 16.3986 29.9248L11.7031 29.432C11.5485 29.9087 11.4753 29.9006 11.6462 30.45C12.5088 30.7489 22.4286 32.0658 24.5526 33.3342C22.388 33.5927 20.2884 32.801 18.2052 32.3728C16.1219 31.9527 13.9817 31.476 11.9228 31.1448C11.9798 32.8979 15.0803 33.0029 16.716 33.3342C20.5732 34.1098 24.9839 34.7561 28.5808 35.5317C30.9163 36.0326 33.1704 37.3091 34.0574 37.0182C32.8449 35.3055 33.0972 35.564 31.5999 35.3135C30.9 35.2004 28.9063 34.5541 28.6621 34.0047C29.2236 33.8189 30.8024 34.3279 31.5429 34.3925C30.9814 33.7543 30.2409 33.1564 29.362 32.6475C28.2308 31.9931 27.2218 32.0173 26.9125 31.169Z" fill="#776671"/>
<path fill-rule="evenodd" clip-rule="evenodd" d="M42.2192 41.6636C42.4145 42.1403 42.2599 42.9078 41.7391 42.6493C41.4136 42.4877 41.3241 41.6556 42.2192 41.6636ZM44.0502 39.8297C44.6443 40.2821 44.628 40.6457 44.2374 41.4293C43.8956 42.1241 43.7898 42.213 42.9191 42.0514L44.0502 39.8297ZM42.4552 43.3522C43.7247 43.2633 43.4643 43.3198 44.0421 42.6816C44.864 41.7606 46.3857 41.5667 46.4508 40.5891C46.4915 39.9832 45.9382 39.3692 45.6452 39.1672C44.5873 38.4724 42.854 38.8845 41.9751 39.45C42.1541 39.9509 42.2274 39.8701 42.4064 40.371C40.8928 40.9285 41.0392 42.2292 40.0464 42.4796C39.9325 41.1385 40.3557 41.09 40.7382 40.1852C36.832 42.8109 39.7209 43.5299 42.4552 43.3522Z" fill="#DDB496"/>
<path fill-rule="evenodd" clip-rule="evenodd" d="M44.5547 18.5656C49.6815 20.8923 53.6038 15.5117 53.5876 15.0835C52.7087 14.8007 47.4599 16.877 46.4589 17.2487C45.6207 17.5638 44.8476 17.7334 44.5547 18.5656Z" fill="#47B960"/>
<path fill-rule="evenodd" clip-rule="evenodd" d="M51.3096 10.8663C52.7337 10.6078 54.2798 10.4462 55.6633 10.1473C57.128 9.83223 57.1036 9.29093 57.6977 7.02881C56.9002 7.19847 56.4852 7.40852 55.6307 7.48123C54.1252 7.62666 53.3603 8.04677 52.4082 9.29901C51.9687 9.8807 51.5944 10.0504 51.3096 10.8663Z" fill="#47B960"/>
<path fill-rule="evenodd" clip-rule="evenodd" d="M48.7373 13.8314C50.1533 13.6052 51.6262 13.2416 53.0666 12.975C55.0522 12.5953 55.8415 12.9427 56.2159 10.7614C53.3677 11.0845 49.5429 11.5531 48.7373 13.8314Z" fill="#187D49"/>
<path fill-rule="evenodd" clip-rule="evenodd" d="M45.9631 15.5521C46.3293 15.3663 46.7768 14.8573 46.9884 14.4695C47.6313 13.2738 47.379 8.45873 47.2325 8.02246C46.8257 8.25675 45.5236 10.527 45.4667 11.0521C45.3771 11.9731 45.8817 14.421 45.9631 15.5521Z" fill="#187D49"/>
<path fill-rule="evenodd" clip-rule="evenodd" d="M50.3166 10.2684C50.8212 10.22 50.5201 10.3735 50.9025 9.91296C51.0816 9.71099 51.1548 9.59788 51.3257 9.40399C52.0499 8.55569 52.115 5.69571 51.9686 4.64544C51.7895 4.62928 49.8039 5.07363 49.8283 6.53593C49.8446 7.34383 49.9992 9.66251 50.3166 10.2684Z" fill="#39DE5D"/>
<path fill-rule="evenodd" clip-rule="evenodd" d="M48.1923 12.7245C49.1037 12.3771 49.7141 11.3753 49.535 9.99382C49.3804 8.8466 49.3072 7.44893 49.0061 6.40674C47.818 7.02074 48.176 7.19848 48.0133 9.33942C47.9319 10.3493 47.6471 11.9086 48.1923 12.7245Z" fill="#47B960"/>
<path fill-rule="evenodd" clip-rule="evenodd" d="M47.0127 15.9076C48.0543 15.8107 49.8609 15.132 50.9839 14.8654C52.172 14.5746 54.5238 14.316 54.6622 13.6132C53.7589 13.1931 51.342 13.8313 50.3492 14.106C49.2343 14.413 47.151 14.8654 47.0127 15.9076Z" fill="#39DE5D"/>
<path fill-rule="evenodd" clip-rule="evenodd" d="M54.3529 5.90579C55.0446 5.75229 56.07 4.55659 56.6234 3.98298L57.901 2.41565C55.0121 3.00542 53.9786 3.3205 54.3529 5.90579Z" fill="#39DE5D"/>
<path fill-rule="evenodd" clip-rule="evenodd" d="M43.8061 17.9193C45.3766 16.9337 45.5719 15.0432 44.8477 12.6356C43.863 13.7344 43.7247 16.2308 43.8061 17.9193Z" fill="#39DE5D"/>
<path fill-rule="evenodd" clip-rule="evenodd" d="M54.9385 7.02069C55.4023 6.95606 57.4368 6.35821 57.7134 6.11584C57.9576 5.89771 58.6086 3.77292 58.397 3.38513L55.264 6.31782C54.9222 6.71369 55.0199 6.46324 54.9385 7.02069Z" fill="#187D49"/>
<path fill-rule="evenodd" clip-rule="evenodd" d="M52.5869 7.8044C53.9052 6.98034 53.4577 5.48572 53.7181 3.85376C52.6276 4.08805 52.8473 4.16076 52.6846 5.37262C52.5706 6.20476 52.5951 6.96418 52.5869 7.8044Z" fill="#187D49"/>
<path fill-rule="evenodd" clip-rule="evenodd" d="M31.0628 31.1446C31.4616 31.7667 32.0882 32.2191 33.0159 31.8798C32.6578 31.3789 32.0312 30.9588 31.0628 31.1446ZM42.2196 41.6635C41.3245 41.6554 41.414 42.4876 41.7395 42.6491C42.2603 42.9077 42.4149 42.1402 42.2196 41.6635ZM65.697 36.4687C66.5433 36.194 66.8118 35.7335 66.2503 34.9175L65.697 36.4687ZM63.0115 29.6096C63.9473 29.5127 64.6472 27.9211 65.5098 27.0486C67.0153 25.5459 68.5533 27.606 69.4566 26.6123C69.4159 26.3134 69.5542 26.3376 68.6103 26.0064C67.3164 25.5459 66.3968 25.3277 65.2819 26.1679C64.2891 26.9193 63.5811 28.0342 63.0115 29.6096ZM69.6193 31.6213C69.5054 30.5387 69.5624 30.1267 68.5126 30.1347C69.0497 35.1518 68.6754 33.8996 67.4547 37.4786C68.5858 37.5028 68.6021 37.2039 68.9276 36.2506C69.4566 34.7236 69.7821 33.2775 69.6193 31.6213ZM63.573 42.3745C63.1987 41.8089 62.686 42.2452 62.3035 40.8394C61.4165 37.5513 62.2872 34.7479 62.157 34.2874C62.0675 33.9965 61.742 33.738 61.5549 33.6491C61.2619 35.8224 60.8794 36.6788 61.2212 38.9974C61.5955 41.5019 61.4816 42.738 63.573 42.3745ZM64.7611 40.2739C65.3389 39.5872 64.6228 38.8359 64.3705 37.8583C63.9229 36.0971 64.1915 30.6195 66.3154 30.1267L66.7793 32.6392C67.4221 31.7748 67.2431 31.8071 67.1211 30.5387C67.0397 29.7712 66.942 29.0522 66.0306 29.1572C63.6869 29.4238 62.1001 38.1895 64.7611 40.2739ZM58.7066 26.0872C58.3649 25.3196 57.9987 25.4651 57.0384 25.2146C55.5329 24.8268 51.7815 23.7927 50.6096 23.8169C50.8293 24.334 51.8872 24.4633 52.4406 24.641C53.1079 24.8511 53.8077 25.0611 54.4832 25.2469C55.4109 25.4893 57.9824 26.3538 58.7066 26.0872ZM57.901 28.3331C57.2419 27.6626 55.9724 27.3475 54.8087 27.4283C55.183 27.7434 57.1035 28.7371 57.901 28.3331ZM44.8725 29.6338C47.558 30.5306 49.9179 28.6401 53.6857 29.7227C54.2716 29.8924 55.6876 30.5468 56.0456 30.466C56.1026 30.3367 56.127 30.466 56.0782 30.2236C55.948 29.6258 54.7517 29.3511 54.0519 29.1087C53.1323 28.7855 52.0419 28.5513 50.9758 28.5755C49.9505 28.5997 45.3527 29.1653 44.8725 29.6338ZM48.9739 26.7173C48.0137 26.0952 47.3708 26.0306 45.9793 26.0306C46.3699 26.6527 46.5814 26.7173 47.3789 26.9112C48.1195 27.089 48.4613 27.2344 48.9739 26.7173ZM46.5245 23.7442C46.7198 24.6249 48.1358 24.5764 49.0472 24.5198C48.5264 23.6069 47.4115 23.8654 46.5245 23.7442ZM47.8428 38.3834C48.266 38.9732 48.8519 39.1186 49.7063 39.0217C49.568 38.8035 49.2588 38.4561 49.0146 38.335C48.6728 38.1653 48.0137 38.2057 47.8428 38.3834ZM54.3611 38.9651C54.711 39.3448 55.5411 39.5226 56.184 39.6599C57.0303 39.8296 57.7789 40.0477 58.2754 39.4418C57.5023 38.7631 55.4516 38.8843 54.3611 38.9651ZM42.9195 42.0513C43.7902 42.2129 43.896 42.124 44.2378 41.4292C44.6284 40.6456 44.6447 40.282 44.0506 39.8296L42.9195 42.0513ZM45.1248 28.2362C42.2603 28.22 36.3116 28.0665 35.3188 25.8125C36.7592 25.6509 37.7032 26.4507 39.1436 26.3457C38.7285 25.4166 35.6037 24.8672 35.0747 24.9399C32.7473 25.255 34.7736 28.6078 43.1717 29.0602C44.311 29.1168 44.8481 29.1572 45.1248 28.2362ZM34.2691 28.8583C34.2854 29.4399 34.6597 29.3188 36.0675 29.8116C36.7999 30.0701 37.4753 30.3448 38.1996 30.5306L38.3217 29.8601C37.8334 29.5127 34.7573 28.6886 34.2691 28.8583ZM43.4077 24.2047C40.6735 23.3241 41.886 23.211 38.0938 23.0898C36.0431 23.0252 34.09 23.1545 32.0719 23.3888C30.0131 23.6231 28.1251 23.8089 26.0337 23.6634C23.153 23.4696 22.4612 22.7505 20.9558 22.4193C20.5489 22.4758 20.6465 22.4516 20.378 22.6536C20.7442 22.9929 22.2822 23.6069 22.7379 23.7846C27.1648 25.4731 33.8541 23.5342 38.7611 23.8654C42.8218 24.1401 43.2531 25.7074 44.1645 24.8995C43.9286 24.4875 44.2134 24.8591 43.7902 24.5198C43.5868 24.3663 43.5868 24.4148 43.4077 24.2047ZM25.1874 22.3304C25.4641 22.694 25.7652 22.8232 26.3023 22.8717C26.8556 22.9202 27.2706 22.8151 27.588 22.5081C26.7336 22.2335 26.1476 22.2011 25.1874 22.3304ZM17.0171 21.2317C17.6681 21.7245 18.1076 21.6195 18.5958 21.0297C17.9285 20.9893 17.4565 20.8358 17.0171 21.2317ZM15.6337 26.3538C14.9664 25.8367 14.1608 25.869 13.2412 25.9821C13.6725 26.5073 14.885 27.0486 15.6337 26.3538ZM31.0547 29.1249C30.6966 28.7209 28.4343 28.2766 27.9135 28.1554C26.7417 27.8726 25.5699 27.6545 24.3817 27.4363C23.1448 27.2021 18.2622 26.1356 17.4484 26.1599C17.8797 26.9112 19.4177 27.0243 20.5489 27.2748L29.3783 29.3349C30.2246 29.5611 30.7129 29.852 31.0547 29.1249ZM19.8897 24.6572C21.5905 25.5055 23.8121 26.378 25.8791 25.5701C25.4152 25.2389 24.0074 25.3035 22.8274 25.0126C21.9974 24.8026 20.6465 24.1482 19.8897 24.6572ZM20.0037 30.571C20.7767 30.7568 21.501 30.9184 22.2904 31.0719C22.6484 31.1446 23.1692 31.29 23.5354 31.3143C24.1946 31.3708 24.1539 31.2173 24.4469 30.8619C24.1295 30.2236 19.8084 30.1671 19.2468 30.2559L20.0037 30.571Z" fill="black"/>
<path fill-rule="evenodd" clip-rule="evenodd" d="M10.6702 4.38691C11.1178 5.316 11.7362 6.49553 12.3791 7.2792C12.8511 7.84473 13.3963 8.44258 13.909 8.84653C15.2436 9.88064 16.1469 10.0907 18.0104 10.6966L20.0448 11.1814L22.063 11.3026C23.0802 11.246 23.5766 11.4157 23.9428 11.6742L24.2195 11.1329C24.13 11.0359 24.0649 10.9228 24.0323 10.7209C23.8451 10.527 23.8289 10.4462 23.8289 9.88872C23.837 9.62212 23.8533 9.34743 23.8614 9.08082C23.8696 8.49913 23.8289 8.01439 23.7475 7.42462C23.6336 6.49553 23.5196 6.26124 23.0232 5.623C22.3153 4.69391 21.5422 3.95872 20.5901 3.28008C19.5891 2.56913 18.3115 1.99552 17.1641 1.58349C16.5456 1.35728 15.6423 1.18762 15.1052 0.961404C14.6984 0.921009 14.3484 0.832139 13.9253 0.759428C12.4035 0.484741 10.3284 0.0807902 8.87988 0C9.04264 0.856376 9.12401 1.05027 9.45766 1.76931C9.87268 2.67416 10.2063 3.48206 10.6702 4.38691Z" fill="black"/>
<path fill-rule="evenodd" clip-rule="evenodd" d="M23.1288 10.0664C24.4959 6.09152 20.1585 3.5951 19.833 3.63549C19.6865 4.31413 21.6396 8.03856 21.9977 8.74951C22.2988 9.35544 22.4778 9.91289 23.1288 10.0664Z" fill="#47B960"/>
<path fill-rule="evenodd" clip-rule="evenodd" d="M16.8382 5.63914C16.5371 4.60503 16.3011 3.47396 15.9756 2.47216C15.6257 1.40573 15.2188 1.47037 13.4773 1.19568C13.6645 1.77737 13.8516 2.06821 13.9737 2.6903C14.1934 3.79712 14.5677 4.33842 15.5768 4.94434C16.0488 5.22711 16.2034 5.48564 16.8382 5.63914Z" fill="#47B960"/>
<path fill-rule="evenodd" clip-rule="evenodd" d="M19.2639 7.31961C18.9791 6.29358 18.6047 5.22715 18.2955 4.18495C17.8642 2.73881 18.0595 2.1248 16.3994 2.01978C16.847 4.09608 17.4899 6.8995 19.2639 7.31961Z" fill="#187D49"/>
<path fill-rule="evenodd" clip-rule="evenodd" d="M20.7609 9.25041C20.5982 8.99188 20.1832 8.70103 19.8658 8.57177C18.9218 8.18398 15.3249 8.73335 15.0076 8.87069C15.2191 9.15346 17.0176 9.95328 17.4163 9.95328C18.1162 9.9452 19.9228 9.39583 20.7609 9.25041Z" fill="#187D49"/>
<path fill-rule="evenodd" clip-rule="evenodd" d="M16.4643 6.41474C16.391 6.05118 16.5294 6.26123 16.155 6.01078C15.9842 5.89768 15.8946 5.8492 15.74 5.7361C15.0483 5.26751 12.8918 5.4291 12.1106 5.62299C12.1187 5.75226 12.5989 7.19032 13.6975 7.06106C14.2996 6.98835 16.033 6.6975 16.4643 6.41474Z" fill="#39DE5D"/>
<path fill-rule="evenodd" clip-rule="evenodd" d="M18.4744 7.80426C18.1408 7.15794 17.3433 6.77823 16.3179 7.0206C15.4716 7.22257 14.4218 7.37607 13.665 7.675C14.2103 8.51522 14.3161 8.23245 15.9355 8.20013C16.7085 8.1759 17.8967 8.27285 18.4744 7.80426Z" fill="#47B960"/>
<path fill-rule="evenodd" clip-rule="evenodd" d="M20.9484 8.44247C20.8019 7.67496 20.159 6.39039 19.8661 5.58249C19.5569 4.72612 19.1907 2.9972 18.6536 2.94873C18.4013 3.65161 19.0686 5.39667 19.3453 6.10763C19.6626 6.91553 20.159 8.41823 20.9484 8.44247Z" fill="#39DE5D"/>
<path fill-rule="evenodd" clip-rule="evenodd" d="M12.8838 3.75666C12.721 3.25576 11.7445 2.5852 11.2725 2.22164L9.99487 1.39758C10.654 3.48197 10.9714 4.22524 12.8838 3.75666Z" fill="#39DE5D"/>
<path fill-rule="evenodd" clip-rule="evenodd" d="M22.6978 10.6643C21.8433 9.58168 20.4111 9.5736 18.6533 10.2926C19.5566 10.939 21.4364 10.8582 22.6978 10.6643Z" fill="#39DE5D"/>
<path fill-rule="evenodd" clip-rule="evenodd" d="M13.6812 3.23964C13.5917 2.90033 12.9895 1.43802 12.7942 1.25221C12.6152 1.09062 10.9632 0.767464 10.6865 0.953281L13.1278 3.05383C13.4533 3.28004 13.2499 3.22349 13.6812 3.23964Z" fill="#187D49"/>
<path fill-rule="evenodd" clip-rule="evenodd" d="M14.4463 4.92819C13.722 4.00718 12.6315 4.45152 11.3865 4.37881C11.6469 5.17056 11.6876 5.00898 12.6071 5.03321C13.2419 5.05745 13.8115 4.98474 14.4463 4.92819Z" fill="#187D49"/>
<path fill-rule="evenodd" clip-rule="evenodd" d="M21.4199 35.4022L22.2256 34.4893L24.3576 34.869L36.9955 21.5709L33.2766 21.4012L21.5664 34.1419L21.4199 35.4022Z" fill="black" fill-opacity="0.701961"/>
<path fill-rule="evenodd" clip-rule="evenodd" d="M29.8261 26.6203L30.2899 26.0952L31.8036 24.4147L33.4311 22.5808L39.4123 16.0287C39.7867 15.5925 40.8853 14.2756 41.4142 14.0009C41.5851 13.912 41.5607 13.9363 41.6827 13.912L42.5779 13.1203C43.4405 12.1104 43.709 11.5287 43.53 10.4623C43.4079 9.73516 43.2696 8.80607 42.6104 8.15167C42.2849 8.33749 41.8536 8.39404 41.4468 8.32941L42.2117 7.2145L41.4468 6.83479L42.0978 5.52599C42.0815 5.26746 42.0734 5.02509 42.0571 4.79888C41.7397 4.05561 41.2514 3.49008 40.7632 2.83567C39.7541 1.68845 38.6637 0.226151 36.9547 0.363494C36.3688 0.411968 36.4095 0.500837 35.9863 0.678576C35.6527 0.815919 36.3607 0.549311 35.8155 0.743208C35.7666 0.759366 35.6852 0.783603 35.6364 0.791682L34.0984 2.27014L26.9535 8.77376L25.1143 10.3734C23.9751 11.2783 20.9478 13.6535 19.4505 13.5323C18.9541 13.4919 18.5391 13.4919 18.0183 13.4354C17.2777 13.3869 16.7732 13.2495 15.9431 13.1041C15.1863 12.9668 14.6004 13.0233 13.9413 13.6616L12.4195 15.447C11.7522 16.2469 11.5732 16.5619 11.1988 17.4587C10.9873 18.7756 11.0931 18.921 11.3779 20.0925C11.4755 20.5126 11.6383 20.9812 11.3372 21.4336C11.0686 21.8375 10.5641 22.29 10.206 22.5C9.74219 22.8797 8.59478 23.9138 8.1472 24.1481C7.54501 24.4067 5.46175 26.3779 4.28178 27.0081C3.89931 27.2828 3.56566 27.4686 3.17505 27.6948C2.9472 27.8241 2.84955 27.8806 2.62983 28.018C1.89743 28.4785 1.55565 28.6805 0.855804 29.2702C-0.576435 30.9911 0.131546 35.6365 0.538432 37.6724C0.912768 39.5144 1.36848 39.9103 2.10901 41.518C4.10275 43.9983 4.81074 44.5154 7.69963 45.9292L10.0433 46.6563L11.028 46.8744L11.2151 46.8421C13.0868 46.5836 15.2596 43.6671 16.4721 42.1159C18.3438 39.7568 20.427 37.2685 22.4615 35.0306L24.0727 33.1805L25.6189 31.4112C26.3757 30.5306 27.1651 29.6661 27.93 28.7855C28.1823 28.4946 28.4264 28.2038 28.6705 27.913L28.6868 27.9291L29.8261 26.6203Z" fill="black"/>
<path fill-rule="evenodd" clip-rule="evenodd" d="M27.4414 14.93C27.0508 15.7056 26.416 15.9237 25.8545 15.8995C26.1231 15.0673 26.7741 14.8734 27.4414 14.93ZM21.0696 25.4246C21.1428 26.0063 19.0677 29.5369 18.5306 30.2721C17.9691 31.0315 17.2204 31.6616 16.488 32.1383C15.9428 32.4938 15.0965 33.1886 14.6082 32.9543C14.4048 32.8573 14.5106 32.9139 14.4536 32.8008C14.5838 32.5019 15.8126 31.8636 16.2439 31.5485C19.0514 29.4965 18.9782 26.8142 21.0696 25.4246ZM25.6918 19.1553C26.7985 18.4363 26.9124 18.105 27.3356 18.404C27.1891 18.8402 24.9512 20.553 24.4386 20.7146L24.0235 20.2541C24.5444 19.8501 25.1059 19.527 25.6918 19.1553ZM14.9663 35.2568C15.1127 34.4731 16.8461 33.6652 17.2774 33.5764C16.7077 34.4327 15.8044 35.1518 14.9663 35.2568ZM20.9312 29.8681C20.8417 29.2299 21.1265 29.0683 21.6555 28.6401C22.217 28.1957 22.3797 28.0746 23.0307 28.1392C22.2821 29.1168 21.8833 29.5288 20.9312 29.8681ZM28.8818 16.0126C28.5481 15.3824 29.0201 15.1966 29.6304 14.728L35.8558 9.63823C36.6452 8.98383 37.5566 7.96587 38.3215 8.0709C37.9065 8.65259 34.5131 11.5045 33.6749 12.2478C32.8774 12.9587 32.0962 13.6616 31.2661 14.3321C30.8918 14.6311 29.3619 15.9803 28.8818 16.0126ZM39.1678 6.69747C39.0783 5.8007 40.1118 5.24324 40.714 5.21901C40.299 5.92188 39.8921 6.51165 39.1678 6.69747ZM21.924 26.3537C21.4195 25.6589 21.7368 25.3035 22.396 24.5359C27.2379 18.8968 30.7209 19.2846 29.6874 21.0862C29.4514 21.4902 27.3763 23.3887 26.4893 23.1787C27.1973 22.1122 28.2714 21.886 28.9387 20.7873C26.7985 20.2621 23.4783 24.3501 21.924 26.3537ZM38.0774 10.5916C38.0286 11.3995 36.8323 11.9973 36.2383 12.4659C35.3919 13.1364 34.684 14.1544 34.1957 14.2998C34.7328 12.4174 36.5556 11.3267 38.0774 10.5916ZM16.13 37.0261C16.3334 36.3798 18.3271 35.0387 19.0026 34.5216C19.499 34.15 20.0279 33.7703 20.5406 33.4148C20.9638 33.132 21.6311 32.4534 22.1112 32.5746C21.4927 33.4148 18.734 35.483 17.6517 36.3313C16.9519 36.8726 16.8542 37.2039 16.13 37.0261ZM24.3653 29.755C23.7957 30.3124 23.3807 31.2254 22.453 31.1042C22.9005 30.4336 23.6329 29.4157 24.3653 29.755ZM42.0649 10.43C42.1056 10.947 41.7394 11.1975 41.3488 11.6418C41.2023 10.9874 41.3569 10.6158 42.0649 10.43ZM36.2139 5.30788C35.571 5.78454 33.919 6.7217 33.8132 7.48113L34.4398 7.12566C34.2038 7.57 31.8276 10.5592 31.201 10.4381C30.7941 10.5269 30.8999 10.632 30.3221 11.1894C30.0129 11.4883 29.8502 11.5368 29.7037 11.86C29.6874 11.8842 29.663 11.965 29.6549 12.0054C28.4993 12.7325 27.8727 13.5323 26.5869 14.0171C24.7397 14.7199 21.8996 14.8815 19.9303 14.5584C18.6689 14.3564 18.7584 14.2837 17.3506 14.1544L16.7484 14.1059C16.5694 14.114 16.6101 14.114 16.488 14.1382L16.667 16.3681C18.7991 17.5395 21.1509 17.3052 23.2016 16.9982C23.576 16.9417 23.7469 16.9497 24.2026 17.1598C22.632 18.0323 20.3616 18.0808 18.6852 17.8142C18.0098 17.7092 17.3099 17.4264 16.6426 17.3456L16.4066 18.921C17.8958 19.7451 19.6943 19.9067 21.0614 20.4237C18.6445 20.9731 17.5134 19.6885 15.9835 19.7936L15.2511 20.9408L19.5315 22.2496C20.2802 22.4596 20.4755 22.5323 20.4592 23.1868L18.6038 22.8797C17.0821 24.0997 14.6163 27.2667 11.76 29.5207L11.6786 29.1248C11.2962 29.2703 10.7998 29.8923 10.4742 30.2721L9.35938 31.7505L10.165 32.7119C10.6695 32.2514 12.4761 31.185 13.062 30.8941C12.3866 31.8636 11.4264 32.4291 10.7102 33.4794C11.4101 33.4633 12.2483 33.0593 12.7609 33.0593C12.8098 33.3825 12.7772 33.641 12.9237 34.053L13.8514 34.3196L12.3622 36.097C12.9644 36.1293 14.6326 35.5638 15.007 35.9758C15.2511 36.5656 15.0883 36.9615 14.9907 37.6724C14.8361 38.7873 14.8686 39.8942 14.8035 41.0414C14.7872 41.3807 14.7791 41.518 14.7303 41.8897C14.6001 42.8511 14.657 42.5602 14.8523 42.843L22.2577 34.3196C22.2577 34.2873 22.2658 34.2469 22.2739 34.2227C22.2821 34.1985 22.2902 34.1581 22.2902 34.1257C22.4286 33.6168 22.8436 33.0432 23.3807 31.9767C23.5841 31.5647 24.406 30.1751 24.3653 29.755C24.7315 29.2945 24.7559 29.0036 24.9919 28.4947C25.1466 28.1553 25.6755 27.5494 25.7162 27.3232C25.4639 27.3313 25.5046 27.3636 25.2849 27.4202C24.8129 27.5333 25.2361 27.5333 24.8129 27.4767C24.7315 26.4022 26.0743 26.9516 28.4667 24.2451C31.3475 20.9893 33.5691 15.2532 37.1578 13.0637C37.5322 12.8375 38.7935 12.0862 39.2329 12.0135C39.2329 12.3124 39.2655 12.2316 39.0865 12.5467C39.6968 12.5548 42.1218 12.0781 42.5531 11.6741C43.074 10.8905 42.602 9.84829 42.0974 9.12117C41.5685 9.29891 40.006 10.1068 39.5259 10.0907C39.176 9.34739 39.7782 9.31507 40.2095 8.56372L39.3062 8.23248C40.8849 5.53409 42.7403 6.43894 39.6398 2.74683L37.1904 5.12206C36.7428 5.52601 36.6777 5.62296 36.2139 5.30788Z" fill="#A57E70"/>
<path fill-rule="evenodd" clip-rule="evenodd" d="M4.98217 36.3313L5.78781 37.5593C4.89266 37.5109 4.72177 37.0665 4.98217 36.3313ZM1.92239 31.6536C2.79313 29.9974 3.61504 30.7406 5.5925 31.8313C7.42349 32.8412 7.83038 33.5764 9.21379 34.9498C9.05103 35.0306 8.69297 35.1195 8.4407 35.0225C8.04196 34.869 6.51206 32.7523 3.69641 31.597C2.49203 31.1042 2.53272 31.702 1.92239 31.6536ZM7.96058 41.72C7.39908 42.4633 7.13867 42.1967 6.30862 41.6958C5.04727 40.9202 4.19281 39.9103 3.38718 38.7146C2.89078 37.9714 2.68734 37.8017 3.31394 37.018C5.20189 39.8053 4.1033 39.3933 7.96058 41.72ZM2.77685 33.6168C5.69015 32.8816 11.0692 38.7227 9.99501 40.5082C9.57998 41.203 9.01034 40.8879 8.42443 40.5243C7.45604 39.9265 7.3828 40.0638 7.11426 39.159L9.15682 40.185C9.94618 38.4319 6.20283 35.2891 4.70549 34.6509C3.87544 34.3035 2.95588 34.4004 2.77685 33.6168ZM11.3052 38.1491C12.119 39.3933 12.5258 40.492 12.5258 41.5988C12.5258 42.8349 11.8748 43.3601 10.8495 44.0145C10.1008 44.4992 10.1985 44.4103 9.96246 44.273C9.74274 43.1177 12.0376 43.1419 11.7772 41.2757C11.6226 40.2012 10.8657 38.8601 11.3052 38.1491ZM14.3243 36.6706C13.242 36.2586 12.3468 37.2766 11.2238 37.0746C11.0692 36.3556 11.3703 36.3879 11.8097 35.6527C11.6388 35.0952 11.4354 35.5961 11.4272 34.966C11.4272 34.6751 11.6632 34.5135 11.6958 34.1015C11.4191 34.1096 11.0204 34.1661 10.6949 34.2469C8.75808 32.72 8.74994 31.4274 6.12145 30.1913C4.4695 29.4157 2.29673 28.2523 1.2551 30.1347C0.351811 31.7667 1.05979 37.8825 2.03632 39.8134C3.56621 42.8834 5.40533 44.0145 8.48953 45.2667C9.6695 45.7434 10.0845 45.8888 11.0773 45.7191C13.1036 45.3798 13.8116 43.4732 14.0883 41.6392L14.3243 36.6706Z" fill="#DDB496"/>
<path fill-rule="evenodd" clip-rule="evenodd" d="M9.31922 27.0404C8.78213 27.8483 7.76491 29.351 6.86977 29.5288C6.70701 28.8582 7.26038 28.4462 7.84629 27.9453C8.28573 27.5656 8.85537 27.0808 9.31922 27.0404ZM11.7849 23.7442C12.1756 23.0898 12.5987 22.7666 13.2416 22.7909C13.2742 23.0009 12.9486 23.4856 12.6475 23.6311C12.4278 23.7442 12.0128 23.7684 11.7849 23.7442ZM10.4748 30.272C10.8003 29.8923 11.2967 29.2702 11.6792 29.1248C12.1105 28.2119 13.8357 26.8061 14.6413 25.9982C15.7399 24.8995 16.7164 23.7038 17.7906 22.5566L16.3339 22.1607C15.2842 23.8169 14.6006 24.6733 12.9568 25.3196C12.4197 25.5296 9.57963 26.3052 9.1646 26.2406C9.51452 25.2065 10.9875 25.1499 12.3058 24.8268C13.5752 24.5036 14.6006 23.5584 15.4225 22.2172C14.9668 21.7406 12.794 21.7487 12.3383 21.9506C11.6954 22.2334 10.1655 23.5422 9.50639 24.0512C7.69981 25.4569 5.63283 26.8788 3.94019 28.3492C4.70513 28.7855 8.538 30.9022 9.0995 30.9426C9.75052 30.4821 9.74238 30.0539 10.4748 30.272Z" fill="#776671"/>
<path fill-rule="evenodd" clip-rule="evenodd" d="M35.8885 16.0529C36.214 15.6974 36.4581 15.5601 36.8732 15.5601C36.45 16.3034 36.1082 16.6992 35.4491 17.1516C35.4084 16.7558 35.5548 16.4165 35.8885 16.0529ZM39.0866 12.5466C38.045 13.4272 37.158 13.5242 35.4653 15.4389C34.2447 16.8204 33.3495 18.2423 32.4055 19.8177C31.486 21.3608 30.5257 22.7989 29.3702 24.2046C27.2462 26.7899 27.8159 25.877 25.7163 27.3231C25.6757 27.5494 25.1467 28.1553 24.9921 28.4946C24.7561 29.0036 24.7317 29.2944 24.3655 29.7549C24.4062 30.175 23.5843 31.5646 23.3808 31.9767C22.8437 33.0431 22.4287 33.6167 22.2904 34.1257C22.2904 34.158 22.2822 34.1984 22.2741 34.2226C22.266 34.2469 22.2578 34.2873 22.2578 34.3196C23.983 32.518 25.635 30.272 27.3276 28.3653C29.0447 26.4344 30.8106 24.5682 32.4544 22.5565C35.2538 19.1229 37.5242 17.1274 40.2015 14.1463C40.7874 13.4999 42.6021 12.5143 42.5533 11.6741C42.122 12.078 39.6969 12.5547 39.0866 12.5466Z" fill="#776671"/>
<path fill-rule="evenodd" clip-rule="evenodd" d="M29.6552 12.0054C29.6634 11.965 29.6878 11.8842 29.704 11.86C29.8505 11.5368 30.0133 11.4884 30.3225 11.1894C30.9003 10.632 30.7945 10.5269 31.2014 10.4381C31.1119 10.0503 30.9817 9.99373 31.3804 9.55747C31.592 9.32317 31.9745 9.03233 32.2186 8.8142C32.7557 8.34561 33.2602 7.9255 33.8136 7.48116C33.9194 6.72173 35.5713 5.78456 36.2142 5.3079L39.0868 2.28635C38.8346 1.91471 38.8834 1.86624 38.3951 1.69658C37.7197 2.14092 31.4374 8.38601 29.3948 9.18583C30.3713 7.52963 32.0721 6.48744 33.4962 5.25135C34.9203 4.02333 36.4095 2.77917 37.7604 1.51076C36.4828 0.605909 34.7332 2.72261 33.6183 3.69209C30.9898 5.97846 28.1416 8.71725 25.6515 10.8259C24.0402 12.1831 21.9244 13.0799 21.6477 13.8555C23.5194 13.9363 23.202 13.9686 24.1785 13.0557C24.6342 12.6275 26.1723 11.5772 26.7012 11.7065C26.5222 12.1993 25.3178 13.0234 24.8702 13.5162C25.627 13.4677 26.449 13.2657 27.2871 12.9264C28.3613 12.4902 28.8903 11.763 29.6552 12.0054Z" fill="#776671"/>
<path fill-rule="evenodd" clip-rule="evenodd" d="M13.9414 17.071C13.5019 16.9579 13.03 16.4327 13.5019 16.2065C13.7868 16.0692 14.4296 16.457 13.9414 17.071ZM14.2588 19.3493C13.6159 19.5189 13.3717 19.3169 13.0218 18.6221C12.7126 18.0001 12.7045 17.8789 13.2904 17.3537L14.2588 19.3493ZM12.6149 16.3358C11.9965 17.2649 12.0941 17.0629 12.2406 17.8062C12.444 18.8726 11.7686 20.0521 12.4196 20.6177C12.8347 20.9731 13.567 20.9247 13.8681 20.8196C14.9342 20.4642 15.5771 19.018 15.6503 18.097C15.1946 17.9516 15.2109 18.0485 14.7633 17.9031C15.1783 16.5458 14.1774 15.9399 14.5273 15.1158C15.5445 15.7541 15.3573 16.0772 15.7886 16.8286C16.0328 12.6841 13.9577 14.316 12.6149 16.3358Z" fill="#DDB496"/>
<path fill-rule="evenodd" clip-rule="evenodd" d="M27.442 14.93C26.7747 14.8734 26.1237 15.0673 25.8552 15.8995C26.4167 15.9237 27.0514 15.7056 27.442 14.93ZM13.9415 17.0709C14.4298 16.4569 13.7869 16.0691 13.5021 16.2065C13.0301 16.4327 13.5021 16.9578 13.9415 17.0709ZM4.9819 36.3313C4.72149 37.0665 4.89239 37.5108 5.78754 37.5593L4.9819 36.3313ZM11.3049 38.1491C10.8655 38.86 11.6223 40.2012 11.7769 41.2757C12.0373 43.1419 9.74247 43.1177 9.96219 44.273C10.1982 44.4103 10.1005 44.4992 10.8492 44.0145C11.8745 43.3601 12.5256 42.8349 12.5256 41.5988C12.5256 40.492 12.1187 39.3933 11.3049 38.1491ZM6.30835 41.6958C7.1384 42.1967 7.3988 42.4633 7.96031 41.72C4.10303 39.3933 5.20162 39.8053 3.31367 37.018C2.68706 37.8017 2.89051 37.9713 3.38691 38.7146C4.19254 39.9103 5.047 40.9202 6.30835 41.6958ZM1.92212 31.6536C2.53245 31.702 2.49176 31.1042 3.69614 31.597C6.51179 32.7523 8.04168 34.869 8.44043 35.0225C8.6927 35.1195 9.05076 35.0306 9.21352 34.9498C7.8301 33.5764 7.42322 32.8412 5.59223 31.8313C3.61476 30.7406 2.79286 29.9974 1.92212 31.6536ZM2.77658 33.6168C2.95561 34.4004 3.87517 34.3035 4.70522 34.6509C6.20256 35.2891 9.94591 38.4319 9.15655 40.185L7.11398 39.159C7.38253 40.0638 7.45577 39.9265 8.42416 40.5243C9.01007 40.8879 9.57971 41.203 9.99474 40.5082C11.0689 38.7227 5.68988 32.8816 2.77658 33.6168ZM16.1306 37.0261C16.8548 37.2038 16.9525 36.8726 17.6523 36.3313C18.7346 35.483 21.4933 33.4148 22.1118 32.5746C21.6317 32.4534 20.9644 33.132 20.5412 33.4148C20.0285 33.7703 19.4996 34.15 19.0032 34.5216C18.3278 35.0387 16.334 36.3798 16.1306 37.0261ZM14.9669 35.2568C15.8051 35.1518 16.7084 34.4327 17.278 33.5764C16.8467 33.6652 15.1134 34.4731 14.9669 35.2568ZM21.0702 25.4246C18.9788 26.8142 19.052 29.4965 16.2445 31.5485C15.8132 31.8636 14.5844 32.5018 14.4542 32.8008C14.5112 32.9139 14.4054 32.8573 14.6088 32.9543C15.0971 33.1886 15.9434 32.4938 16.4886 32.1383C17.221 31.6616 17.9697 31.0315 18.5312 30.272C19.0683 29.5368 21.1434 26.0063 21.0702 25.4246ZM20.9318 29.8681C21.8839 29.5288 22.2827 29.1167 23.0314 28.1392C22.3803 28.0745 22.2176 28.1957 21.6561 28.6401C21.1271 29.0683 20.8423 29.2298 20.9318 29.8681ZM24.3659 29.755C23.6336 29.4157 22.9012 30.4336 22.4536 31.1042C23.3813 31.2254 23.7963 30.3124 24.3659 29.755ZM13.2417 22.7909C12.5988 22.7666 12.1756 23.0898 11.785 23.7442C12.0129 23.7684 12.4279 23.7442 12.6476 23.6311C12.9487 23.4857 13.2742 23.0009 13.2417 22.7909ZM9.31931 27.0404C8.85546 27.0808 8.28582 27.5656 7.84638 27.9453C7.26046 28.4462 6.7071 28.8582 6.86985 29.5288C7.765 29.351 8.78222 27.8483 9.31931 27.0404ZM13.2905 17.3537C12.7046 17.8788 12.7127 18 13.022 18.6221C13.3719 19.3169 13.616 19.5189 14.2589 19.3492L13.2905 17.3537ZM21.9246 26.3537C23.4789 24.3501 26.7991 20.2621 28.9393 20.7873C28.2721 21.886 27.1979 22.1122 26.4899 23.1787C27.3769 23.3887 29.452 21.4901 29.688 21.0862C30.7215 19.2846 27.2386 18.8968 22.3966 24.5359C21.7375 25.3034 21.4201 25.6589 21.9246 26.3537ZM27.3362 18.404C26.9131 18.105 26.7991 18.4363 25.6924 19.1553C25.1065 19.5269 24.545 19.8501 24.0242 20.2541L24.4392 20.7146C24.9519 20.553 27.1897 18.8402 27.3362 18.404ZM25.7168 27.3232C27.8163 25.8771 27.2467 26.79 29.3706 24.2047C30.5262 22.7989 31.4865 21.3609 32.406 19.8178C33.35 18.2424 34.2451 16.8205 35.4658 15.439C37.1584 13.5242 38.0455 13.4273 39.0871 12.5467C39.2661 12.2316 39.2336 12.3124 39.2336 12.0135C38.7941 12.0862 37.5328 12.8375 37.1584 13.0637C33.5697 15.2531 31.3481 20.9892 28.4674 24.2451C26.0749 26.9516 24.7321 26.4022 24.8135 27.4767C25.2367 27.5333 24.8135 27.5333 25.2855 27.4201C25.5052 27.3636 25.4645 27.3313 25.7168 27.3232ZM36.8736 15.5601C36.4586 15.5601 36.2145 15.6975 35.889 16.053C35.5553 16.4165 35.4088 16.7558 35.4495 17.1517C36.1087 16.6993 36.4505 16.3034 36.8736 15.5601ZM42.0655 10.43C41.3575 10.6158 41.2029 10.9874 41.3494 11.6418C41.74 11.1975 42.1062 10.947 42.0655 10.43ZM39.1685 6.69746C39.8927 6.51164 40.2996 5.92187 40.7146 5.21899C40.1124 5.24323 39.0789 5.80068 39.1685 6.69746ZM28.8824 16.0126C29.3625 15.9803 30.8924 14.6311 31.2667 14.3321C32.0968 13.6616 32.878 12.9587 33.6755 12.2477C34.5137 11.5045 37.9071 8.65258 38.3221 8.07089C37.5572 7.96586 36.6458 8.98382 35.8564 9.63822L29.6311 14.728C29.0207 15.1966 28.5487 15.3824 28.8824 16.0126ZM38.078 10.5915C36.5563 11.3267 34.7334 12.4174 34.1963 14.2998C34.6846 14.1544 35.3926 13.1364 36.2389 12.4659C36.8329 11.9973 38.0292 11.3994 38.078 10.5915ZM33.8138 7.48112C33.2605 7.92547 32.7559 8.34558 32.2188 8.81416C31.9747 9.03229 31.5922 9.32314 31.3807 9.55743C30.9819 9.9937 31.1121 10.0502 31.2016 10.438C31.8282 10.5592 34.2045 7.56999 34.4404 7.12564L33.8138 7.48112Z" fill="black"/>
<path fill-rule="evenodd" clip-rule="evenodd" d="M24.7486 32.4049C25.3671 33.1562 26.2134 34.0853 26.9783 34.6428C27.5398 35.0548 28.1746 35.4749 28.7442 35.7173C30.1927 36.3555 31.0635 36.3313 32.8945 36.4606L34.8719 36.4282L36.7273 36.0808C37.6469 35.79 38.1352 35.8304 38.5258 35.9839L38.656 35.4264C38.5502 35.3618 38.4607 35.2729 38.3874 35.0952C38.1677 34.9579 38.1352 34.8932 38.0131 34.3843C37.948 34.1419 37.9073 33.8834 37.8503 33.641C37.7201 33.1158 37.5655 32.6796 37.3621 32.1625C37.0366 31.3465 36.8819 31.1526 36.2797 30.6841C35.4172 30.0054 34.5464 29.5126 33.5129 29.1167C32.4469 28.6966 31.1448 28.4704 29.9974 28.3573C29.3871 28.3007 28.5245 28.3492 27.9793 28.2684C27.6049 28.325 27.2632 28.325 26.8644 28.3492C25.4159 28.4543 23.4303 28.5674 22.0957 28.8259C22.4456 29.5692 22.5596 29.7227 23.0315 30.3043C23.6256 31.0315 24.1139 31.6939 24.7486 32.4049Z" fill="black"/>
<path fill-rule="evenodd" clip-rule="evenodd" d="M37.4185 34.7074C37.7277 30.781 33.2031 29.5045 32.9102 29.6096C32.9427 30.264 35.5875 33.2047 36.0757 33.7703C36.4908 34.2469 36.7918 34.7155 37.4185 34.7074Z" fill="#47B960"/>
<path fill-rule="evenodd" clip-rule="evenodd" d="M30.6561 32.1302C30.1353 31.2496 29.6552 30.2801 29.1262 29.448C28.5647 28.5593 28.2066 28.7047 26.5547 28.8582C26.8639 29.343 27.0999 29.5611 27.3603 30.1024C27.816 31.0557 28.2799 31.4597 29.3459 31.7828C29.8423 31.9363 30.0458 32.1383 30.6561 32.1302Z" fill="#47B960"/>
<path fill-rule="evenodd" clip-rule="evenodd" d="M33.2525 33.0997C32.7561 32.2272 32.162 31.3466 31.6331 30.466C30.9088 29.2541 30.9495 28.6482 29.4033 28.931C30.3066 30.7164 31.5354 33.124 33.2525 33.0997Z" fill="#187D49"/>
<path fill-rule="evenodd" clip-rule="evenodd" d="M35.0674 34.5055C34.8558 34.3116 34.4083 34.1419 34.099 34.1015C33.1469 33.9642 29.9976 35.2891 29.7454 35.4911C29.9976 35.7012 31.8286 36.0082 32.1867 35.9193C32.8296 35.7496 34.335 34.8286 35.0674 34.5055Z" fill="#187D49"/>
<path fill-rule="evenodd" clip-rule="evenodd" d="M30.4939 32.922C30.3474 32.6069 30.5183 32.7685 30.1196 32.623C29.9405 32.5584 29.8429 32.5342 29.6801 32.4695C28.9396 32.2029 27.011 32.8412 26.3518 33.1966C26.3844 33.3178 27.1574 34.5135 28.1258 34.1419C28.6629 33.9399 30.1684 33.2774 30.4939 32.922Z" fill="#39DE5D"/>
<path fill-rule="evenodd" clip-rule="evenodd" d="M32.6509 33.7219C32.1952 33.2048 31.3814 33.0513 30.5025 33.5037C29.7783 33.8834 28.8587 34.2632 28.2402 34.7156C28.9319 35.3457 28.9645 35.0711 30.4374 34.659C31.1291 34.4651 32.2359 34.2793 32.6509 33.7219Z" fill="#47B960"/>
<path fill-rule="evenodd" clip-rule="evenodd" d="M35.0504 33.7299C34.733 33.0674 33.846 32.0495 33.3984 31.3789C32.9183 30.6679 32.1778 29.1814 31.6732 29.2622C31.6162 29.957 32.6253 31.387 33.0485 31.9767C33.5205 32.6392 34.3261 33.8915 35.0504 33.7299Z" fill="#39DE5D"/>
<path fill-rule="evenodd" clip-rule="evenodd" d="M26.6122 31.3224C26.3518 30.9103 25.302 30.5225 24.7893 30.2963L23.4385 29.8358C24.5208 31.589 24.9846 32.1949 26.6122 31.3224Z" fill="#39DE5D"/>
<path fill-rule="evenodd" clip-rule="evenodd" d="M37.1584 35.3538C36.133 34.562 34.8229 34.8852 33.3906 35.9435C34.359 36.3233 36.0598 35.8143 37.1584 35.3538Z" fill="#39DE5D"/>
<path fill-rule="evenodd" clip-rule="evenodd" d="M27.2222 30.6679C27.0595 30.377 26.1724 29.1894 25.9446 29.0682C25.7411 28.9632 24.1706 29.044 23.959 29.2783L26.6688 30.6275C27.0188 30.7567 26.8235 30.7487 27.2222 30.6679Z" fill="#187D49"/>
<path fill-rule="evenodd" clip-rule="evenodd" d="M28.3046 32.0252C27.442 31.3627 26.5468 32.0171 25.3994 32.2353C25.8226 32.8977 25.8226 32.7362 26.6608 32.5503C27.2467 32.4292 27.7512 32.2272 28.3046 32.0252Z" fill="#187D49"/>
</g>
</svg>
