<svg width="51" height="34" viewBox="0 0 51 34" fill="none" xmlns="http://www.w3.org/2000/svg">
<g clip-path="url(#clip0_1_2100)">
<path fill-rule="evenodd" clip-rule="evenodd" d="M37.3052 2.8765C36.4186 3.20201 35.2827 3.67599 34.518 4.20138C33.9584 4.58399 33.3655 5.03514 32.9499 5.48057C31.8915 6.617 31.62 7.43934 30.8941 9.11829L30.268 10.9743L29.9743 12.8359C29.8857 14.8861 29.0656 14.5834 28.4117 15.7256L27.3423 15.657L25.6079 15.52L23.7295 15.3772L16.925 14.789C16.4817 14.7719 15.163 14.7148 14.7474 14.5092C14.6144 14.4464 14.6421 14.4521 14.5645 14.3893L13.6669 14.2065C12.6418 14.1494 12.1652 14.2693 11.5945 14.8918C11.1955 15.3201 10.6968 15.8626 10.5971 16.5879C10.8631 16.7021 11.1013 16.9419 11.2509 17.2275L10.2092 17.2903L10.3311 17.9584L9.22844 18.1754C9.07329 18.3125 8.93477 18.4381 8.80178 18.5524C8.49148 19.1177 8.36957 19.6945 8.1978 20.317C7.95953 21.4991 7.5772 22.8925 8.45269 23.8976C8.75745 24.2459 8.7907 24.1774 9.09546 24.3544C9.33373 24.4972 8.84057 24.1831 9.21182 24.4344C9.24507 24.4515 9.30048 24.4915 9.32818 24.52L10.9517 24.777L18.266 26.119L20.1056 26.5016C21.1861 26.7758 24.0509 27.5296 24.677 28.5289C24.882 28.8602 25.076 29.1229 25.281 29.4769C25.6024 29.968 25.7465 30.3449 26.0457 30.9389C26.3172 31.4814 26.6219 31.8183 27.3201 31.9268L29.121 32.0239C29.9244 32.0467 30.2015 32.0182 30.9274 31.8126C31.8306 31.31 31.8749 31.1787 32.4623 30.4306C32.6728 30.1679 32.8834 29.8367 33.299 29.8081C33.6702 29.7796 34.1855 29.8767 34.4792 30.0023C34.9281 30.1108 36.0972 30.3335 36.4519 30.4991C36.8896 30.7504 39.0673 31.1045 40.0037 31.5499C40.3472 31.6527 40.6188 31.7726 40.9401 31.9097C41.123 31.9896 41.2061 32.0239 41.389 32.0981C42.0151 32.3323 42.2977 32.4465 42.9848 32.6007C44.7081 32.6692 47.2293 29.9795 48.2876 28.7402C49.2462 27.6209 49.2795 27.1412 49.9167 25.902C50.5096 23.4521 50.5041 22.7554 50.022 20.2599L49.3792 18.4381L49.0523 17.7129L48.9526 17.6101C47.9164 16.565 45.1181 16.6107 43.5999 16.5936C41.2837 16.5593 38.7902 16.4508 36.4685 16.2509L34.5845 16.1367L32.7781 16.0225C31.5923 15.954 30.3954 15.8398 29.2096 15.7941C29.3205 15.44 29.4313 15.4343 29.6751 15.1602C29.8801 14.9318 29.9521 14.749 30.3289 14.7319C30.5229 14.572 30.5949 14.5606 31.1047 14.6177C31.343 14.6462 31.5923 14.6919 31.8361 14.7205C32.357 14.7833 32.8114 14.789 33.3488 14.7776C34.2077 14.749 34.4294 14.6748 35.061 14.2693C35.9698 13.6926 36.7067 13.0472 37.4105 12.2192C38.1474 11.3626 38.7902 10.2205 39.2723 9.18681C39.5272 8.63288 39.771 7.81054 40.0203 7.33084C40.0924 6.95393 40.2087 6.63984 40.314 6.25723C40.7019 4.86382 41.256 2.96787 41.461 1.62585C40.6631 1.69438 40.4858 1.7572 39.7987 1.99705C38.9343 2.29972 38.1696 2.52814 37.3052 2.8765Z" fill="black"/>
<path fill-rule="evenodd" clip-rule="evenodd" d="M21.8177 22.8411C22.4771 22.7098 22.9038 23.0068 23.1476 23.3608C22.5159 23.6007 22.0892 23.2809 21.8177 22.8411ZM31.221 21.7732C31.5479 21.442 34.6786 21.0423 35.3768 21.0251C36.1027 21.008 36.8452 21.1736 37.4713 21.402C37.9479 21.5734 38.7624 21.7675 38.8511 22.1901C38.8843 22.3614 38.8677 22.2701 38.8289 22.3614C38.5851 22.4186 37.6209 21.956 37.222 21.8361C34.6564 21.0708 33.0495 22.4071 31.221 21.7732ZM25.2255 21.8989C24.2669 21.5505 24.012 21.6362 24.0009 21.225C24.3334 21.1051 26.4279 21.6876 26.7604 21.9331L26.6773 22.4071C26.1841 22.2758 25.7242 22.0816 25.2255 21.8989ZM40.0923 20.8538C39.5492 21.1394 38.2415 20.4369 37.9866 20.2142C38.779 20.1571 39.6434 20.3798 40.0923 20.8538ZM34.0137 19.7117C33.6646 20.0772 33.4319 19.9744 32.9276 19.8487C32.3846 19.7117 32.2405 19.666 31.9746 19.2263C32.9221 19.2263 33.3598 19.272 34.0137 19.7117ZM21.8122 21.4135C21.5795 21.9274 21.247 21.7218 20.6707 21.5619L14.6586 20.1057C13.8884 19.9287 12.8411 19.8487 12.5475 19.3176C13.1016 19.3005 16.4262 20.0543 17.2685 20.2199C18.0775 20.3741 18.8754 20.5283 19.6733 20.7282C20.028 20.8138 21.5684 21.1279 21.8122 21.4135ZM11.3118 19.4547C10.802 19.9458 9.9764 19.5632 9.68272 19.192C10.3089 19.1121 10.8574 19.0892 11.3118 19.4547ZM31.3927 20.7853C31.2043 21.4363 30.8386 21.4078 30.0629 21.3678C24.3445 21.048 22.9647 18.678 24.5495 18.4553C24.9097 18.4039 27.0374 18.7923 27.32 19.449C26.3393 19.5232 25.6965 18.9579 24.7157 19.0721C25.3917 20.6654 29.4423 20.7739 31.3927 20.7853ZM14.2098 18.2555C14.7251 17.8957 15.6449 18.3582 16.2101 18.5067C17.0136 18.7123 17.9722 18.6666 18.288 18.9008C16.8806 19.4718 15.3679 18.8551 14.2098 18.2555ZM40.6408 19.2662C40.1477 19.4547 38.3967 18.8437 37.765 18.6723C37.3051 18.541 36.8286 18.3925 36.3742 18.244C35.9974 18.1184 35.277 18.027 35.1274 17.6615C35.9254 17.6444 38.4798 18.3754 39.5049 18.6495C40.1588 18.8265 40.4081 18.7237 40.6408 19.2662ZM32.3458 17.6101C32.9498 17.6958 33.7089 17.5131 34.0635 18.1584C33.4429 18.1983 32.4788 18.2326 32.3458 17.6101ZM12.2538 15.8341C12.553 15.5543 12.8744 15.6628 13.3288 15.6914C12.9963 16.1082 12.6971 16.1825 12.2538 15.8341ZM11.8327 21.9788C12.42 22.1501 13.7665 22.7384 14.2874 22.4357L13.7721 22.213C14.1544 22.1501 17.0967 22.1901 17.3128 22.6413C17.5566 22.8583 17.5677 22.7441 18.1828 22.8354C18.5097 22.8868 18.615 22.9611 18.8809 22.904C18.9031 22.8983 18.9641 22.8697 18.9918 22.8583C19.9725 23.2352 20.7594 23.2409 21.6515 23.812C22.9426 24.64 24.3611 26.3361 25.087 27.7295C25.5469 28.6204 25.4638 28.6032 26.04 29.5512L26.2838 29.9452C26.3725 30.0595 26.3559 30.0309 26.4224 30.0937L27.7135 28.9059C27.4364 27.0042 26.2007 25.6394 25.0593 24.4972C24.8542 24.2917 24.7767 24.1832 24.6936 23.7948C25.9569 24.3602 27.0485 25.7593 27.6636 26.9414C27.9129 27.4154 28.0625 27.9922 28.323 28.449L29.3979 27.838C29.2151 26.5017 28.4726 25.2967 28.1567 24.1889C29.6196 25.4452 29.3592 26.7758 30.1349 27.6838L31.1766 27.5867L29.9853 24.2688C29.7692 23.6977 29.7193 23.5378 30.1349 23.2295L30.8054 24.5486C32.2627 24.9084 35.3491 24.9313 38.0642 25.6337L37.8592 25.8849C38.1307 26.0506 38.7402 26.062 39.1281 26.0791L40.5522 26.062L40.7683 25.0969C40.2474 24.9998 38.7569 24.383 38.2969 24.1546C39.2112 24.1146 40.0036 24.4401 40.9844 24.383C40.6464 23.949 40.0091 23.6178 39.7709 23.298C39.9482 23.1095 40.12 23.0068 40.3028 22.7155L40.0424 22.0017L41.8211 22.0816C41.5607 21.6876 40.4358 20.9166 40.5189 20.4769C40.7683 20.0429 41.0786 19.9515 41.5662 19.6717C42.3198 19.2263 42.9847 18.6723 43.7161 18.1584C43.9378 18.0099 44.0209 17.9471 44.2702 17.7986C44.9241 17.4103 44.7191 17.5131 44.8022 17.2618L36.1248 16.725C36.1082 16.7421 36.075 16.7535 36.0583 16.765C36.0417 16.7707 36.014 16.7878 35.9918 16.7992C35.6151 16.9591 35.072 16.9763 34.1688 17.159C33.8197 17.2275 32.5841 17.3817 32.3458 17.6101C31.8914 17.5987 31.703 17.7244 31.2819 17.8272C30.9993 17.8957 30.3843 17.85 30.2236 17.9357C30.3455 18.0841 30.3455 18.0499 30.484 18.1584C30.7721 18.3982 30.5782 18.1355 30.7389 18.4268C30.1183 18.9978 29.8246 17.89 27.0596 17.6958C23.7183 17.4617 19.1635 18.8322 16.1492 17.6387C15.8389 17.5131 14.7916 17.0791 14.5423 16.8392C14.7251 16.6964 14.6586 16.7136 14.9357 16.6736C14.6586 16.2853 13.2346 15.0004 12.7913 14.9204C12.0654 14.9775 11.6443 15.7713 11.4337 16.4395C11.7883 16.6907 13.0129 17.2789 13.2235 17.5873C12.9353 18.1641 12.6306 17.8043 11.9712 17.8957L12.1873 18.6267C9.79908 18.935 9.48878 17.336 8.6687 21.0594L11.2619 21.4534C11.7218 21.5391 11.8105 21.5334 11.8327 21.9788Z" fill="#A57E70"/>
<path fill-rule="evenodd" clip-rule="evenodd" d="M45.4003 26.6045L45.7771 25.5081C46.1595 26.0849 45.9766 26.4104 45.4003 26.6045ZM43.9541 30.7791C42.53 31.036 42.6076 30.1623 42.3527 28.392C42.12 26.753 42.3804 26.1477 42.5799 24.6115C42.7074 24.6743 42.929 24.8571 42.9899 25.0627C43.0786 25.3882 42.4857 27.3698 43.0897 29.694C43.3501 30.6877 43.6992 30.3793 43.9541 30.7791ZM47.3175 22.1274C48.0323 22.1216 47.9936 22.4129 48.0711 23.1781C48.182 24.3488 47.9603 25.371 47.6001 26.4503C47.3785 27.1242 47.3674 27.3355 46.5972 27.3184C47.4284 24.7885 47.6833 25.6737 47.3175 22.1274ZM44.7631 29.2943C42.9512 27.8209 44.0317 21.6248 45.6275 21.4364C46.2481 21.3621 46.3146 21.8704 46.37 22.4129C46.4531 23.3095 46.575 23.2866 46.1373 23.8977L45.8214 22.1216C44.3752 22.47 44.1924 26.3418 44.4971 27.5868C44.6689 28.2778 45.1565 28.8089 44.7631 29.2943ZM43.5718 21.7562C43.9596 20.6426 44.4417 19.8545 45.1177 19.3234C45.8769 18.7295 46.503 18.8837 47.384 19.2092C48.0268 19.4433 47.9326 19.4262 47.9603 19.6375C47.3452 20.3399 46.298 18.8837 45.2729 19.9459C44.6855 20.5626 44.209 21.6876 43.5718 21.7562ZM41.2611 20.574C41.516 21.4478 42.5522 21.522 42.9512 22.3272C42.5854 22.767 42.4635 22.5671 41.8042 22.6413C41.5437 23.0182 41.9427 22.904 41.5603 23.2124C41.383 23.3552 41.1725 23.2866 40.9065 23.4637C41.045 23.635 41.2611 23.8577 41.4606 24.0233C41.4274 25.9764 40.6405 26.6045 41.1004 28.8488C41.3941 30.2651 41.6933 32.1896 43.328 31.9326C44.752 31.7156 48.1709 28.3177 48.9078 26.7701C50.077 24.326 49.9163 22.6242 49.2458 20.0829C48.991 19.1178 48.8912 18.7866 48.3205 18.2384C47.1735 17.1305 45.6774 17.6045 44.4195 18.3183L41.2611 20.574Z" fill="#DDB496"/>
<path fill-rule="evenodd" clip-rule="evenodd" d="M37.6816 28.3691C38.4241 28.312 39.8205 28.2263 40.3469 28.706C40.0089 29.1343 39.4991 28.9801 38.9228 28.8602C38.4851 28.7631 37.9199 28.6375 37.6816 28.3691ZM34.5121 28.409C33.9303 28.4776 33.5313 28.3748 33.2432 27.9579C33.3596 27.8323 33.8084 27.8037 34.0411 27.9236C34.2073 28.0093 34.4179 28.2549 34.5121 28.409ZM39.1278 26.0791C38.74 26.062 38.1304 26.0505 37.8589 25.8849C37.0998 26.0505 35.4319 25.6451 34.562 25.5251C33.3762 25.371 32.1904 25.3367 30.9824 25.2111L31.4202 26.3189C32.9218 26.1819 33.7751 26.1933 34.9332 26.9128C35.31 27.1527 37.1053 28.5575 37.2605 28.8488C36.4626 29.1286 35.7422 28.2263 34.9332 27.5639C34.1408 26.9186 33.0825 26.7301 31.8801 26.8672C31.8025 27.3811 32.8165 28.7403 33.1545 28.9287C33.6255 29.1914 35.1382 29.5283 35.7588 29.694C37.46 30.1451 39.2996 30.7561 40.9841 31.1102C40.8954 30.4249 40.4134 26.9871 40.1806 26.6216C39.5877 26.4331 39.3329 26.6444 39.1278 26.0791Z" fill="#776671"/>
<path fill-rule="evenodd" clip-rule="evenodd" d="M18.5764 16.9932C18.2107 16.9589 18.0057 16.8676 17.8173 16.6106C18.4711 16.5192 18.8701 16.5421 19.4519 16.7362C19.2358 16.9532 18.9532 17.0275 18.5764 16.9932ZM14.9359 16.6734C15.961 16.9076 16.432 17.4158 18.3936 17.5529C19.8176 17.6557 21.1031 17.5243 22.505 17.3587C23.8792 17.1931 25.2091 17.1017 26.6055 17.1474C29.1876 17.2331 28.362 17.313 30.2238 17.9355C30.3845 17.8498 30.9995 17.8955 31.2821 17.827C31.7033 17.7242 31.8917 17.5985 32.346 17.61C32.5843 17.3815 33.82 17.2273 34.1691 17.1588C35.0723 16.9761 35.6153 16.9589 35.9921 16.799C36.0142 16.7876 36.0419 16.7705 36.0586 16.7648C36.0752 16.7534 36.1084 16.7419 36.1251 16.7248C34.2189 16.5135 32.069 16.5649 30.113 16.4164C28.1348 16.2737 26.1622 16.0624 24.1618 16.0053C20.7541 15.9082 18.4767 15.4456 15.4014 15.2058C14.7309 15.1544 13.2847 14.4862 12.7915 14.9202C13.2348 15.0002 14.6589 16.2851 14.9359 16.6734Z" fill="#776671"/>
<path fill-rule="evenodd" clip-rule="evenodd" d="M18.9913 22.8583C18.9636 22.8697 18.9027 22.8983 18.8805 22.904C18.6145 22.9611 18.5093 22.8868 18.1823 22.8354C17.5673 22.7441 17.5562 22.8583 17.3124 22.6413C17.1129 22.8926 17.1406 23.0011 16.6918 22.9611C16.4424 22.944 16.0878 22.8412 15.844 22.7898C15.3065 22.6813 14.8134 22.567 14.2869 22.4357C13.7661 22.7384 12.4196 22.1502 11.8322 21.9788L8.63503 21.6305C8.52975 21.9674 8.47988 21.9617 8.59624 22.35C9.1836 22.5613 15.9382 23.4922 17.3844 24.3888C15.9105 24.5715 14.4809 24.0119 13.0624 23.7092C11.6438 23.4122 10.1865 23.0753 8.78464 22.8412C8.82343 24.0804 10.9346 24.1546 12.0483 24.3888C14.6748 24.937 17.6781 25.3938 20.1273 25.9421C21.7176 26.2961 23.2524 27.1984 23.8564 26.9928C23.0308 25.7822 23.2026 25.9649 22.183 25.7879C21.7065 25.7079 20.3489 25.2511 20.1827 24.8627C20.565 24.7314 21.64 25.0912 22.1442 25.1369C21.7619 24.6857 21.2576 24.2631 20.6592 23.9033C19.889 23.4408 19.2019 23.4579 18.9913 22.8583Z" fill="#776671"/>
<path fill-rule="evenodd" clip-rule="evenodd" d="M29.4151 30.2765C29.548 30.6134 29.4428 31.1559 29.0881 30.9732C28.8665 30.859 28.8055 30.2708 29.4151 30.2765ZM30.6618 28.9802C31.0663 29.3 31.0552 29.5569 30.7892 30.1109C30.5565 30.602 30.4845 30.6648 29.8916 30.5506L30.6618 28.9802ZM29.5757 31.47C30.4402 31.4072 30.2628 31.4472 30.6563 30.996C31.2159 30.345 32.2521 30.208 32.2964 29.517C32.3241 29.0887 31.9473 28.6547 31.7479 28.5119C31.0275 28.0208 29.8473 28.312 29.2488 28.7118C29.3707 29.0658 29.4206 29.0087 29.5425 29.3628C28.5119 29.7568 28.6116 30.6762 27.9356 30.8533C27.858 29.9053 28.1461 29.871 28.4066 29.2314C25.7468 31.0874 27.7139 31.5957 29.5757 31.47Z" fill="#DDB496"/>
<path fill-rule="evenodd" clip-rule="evenodd" d="M31.0049 13.9494C34.4958 15.5941 37.1666 11.7908 37.1555 11.4881C36.5571 11.2882 32.9831 12.7559 32.3015 13.0186C31.7308 13.2413 31.2044 13.3612 31.0049 13.9494Z" fill="#47B960"/>
<path fill-rule="evenodd" clip-rule="evenodd" d="M35.6038 8.50726C36.5735 8.32452 37.6263 8.2103 38.5682 7.99901C39.5656 7.77629 39.549 7.39367 39.9535 5.79468C39.4105 5.9146 39.1279 6.06308 38.5461 6.11448C37.521 6.21727 37.0001 6.51423 36.3518 7.39938C36.0526 7.81055 35.7977 7.93048 35.6038 8.50726Z" fill="#47B960"/>
<path fill-rule="evenodd" clip-rule="evenodd" d="M33.8533 10.6029C34.8174 10.443 35.8204 10.186 36.8011 9.99759C38.1532 9.72919 38.6906 9.97475 38.9455 8.43286C37.0062 8.66129 34.4018 8.99251 33.8533 10.6029Z" fill="#187D49"/>
<path fill-rule="evenodd" clip-rule="evenodd" d="M31.9636 11.8198C32.213 11.6885 32.5177 11.3287 32.6618 11.0546C33.0996 10.2094 32.9278 6.80581 32.828 6.49744C32.551 6.66305 31.6644 8.26775 31.6256 8.63895C31.5647 9.28997 31.9082 11.0203 31.9636 11.8198Z" fill="#187D49"/>
<path fill-rule="evenodd" clip-rule="evenodd" d="M34.9281 8.08468C35.2716 8.05042 35.0666 8.15892 35.327 7.83341C35.4489 7.69064 35.4988 7.61069 35.6152 7.47364C36.1083 6.87402 36.1527 4.85243 36.0529 4.11004C35.931 4.09862 34.579 4.41271 34.5956 5.44634C34.6067 6.01741 34.712 7.65638 34.9281 8.08468Z" fill="#39DE5D"/>
<path fill-rule="evenodd" clip-rule="evenodd" d="M33.4816 9.8205C34.1022 9.57494 34.5178 8.86681 34.3958 7.89028C34.2906 7.07937 34.2407 6.09142 34.0357 5.35474C33.2267 5.78875 33.4705 5.91438 33.3597 7.42772C33.3042 8.14156 33.1103 9.24372 33.4816 9.8205Z" fill="#47B960"/>
<path fill-rule="evenodd" clip-rule="evenodd" d="M32.678 12.0706C33.3872 12.0021 34.6174 11.5224 35.382 11.334C36.191 11.1284 37.7924 10.9456 37.8866 10.4488C37.2715 10.1518 35.6258 10.603 34.9498 10.7972C34.1907 11.0142 32.7722 11.334 32.678 12.0706Z" fill="#39DE5D"/>
<path fill-rule="evenodd" clip-rule="evenodd" d="M37.6764 5.00083C38.1474 4.89233 38.8455 4.04715 39.2223 3.64169L40.0923 2.53381C38.1252 2.95069 37.4215 3.17341 37.6764 5.00083Z" fill="#39DE5D"/>
<path fill-rule="evenodd" clip-rule="evenodd" d="M30.4951 13.4924C31.5645 12.7957 31.6975 11.4594 31.2043 9.75757C30.5339 10.5342 30.4397 12.2988 30.4951 13.4924Z" fill="#39DE5D"/>
<path fill-rule="evenodd" clip-rule="evenodd" d="M38.0762 5.78881C38.392 5.74312 39.7773 5.32053 39.9657 5.14921C40.1319 4.99502 40.5752 3.49311 40.4311 3.21899L38.2978 5.29198C38.0651 5.5718 38.1316 5.39477 38.0762 5.78881Z" fill="#187D49"/>
<path fill-rule="evenodd" clip-rule="evenodd" d="M36.4744 6.3427C37.372 5.76021 37.0673 4.70373 37.2446 3.55017C36.5021 3.71578 36.6517 3.76718 36.5409 4.62378C36.4633 5.21198 36.4799 5.74879 36.4744 6.3427Z" fill="#187D49"/>
<path fill-rule="evenodd" clip-rule="evenodd" d="M21.8181 22.841C22.0896 23.2807 22.5163 23.6005 23.148 23.3607C22.9042 23.0066 22.4775 22.7097 21.8181 22.841ZM29.415 30.2763C28.8054 30.2706 28.8664 30.8588 29.088 30.9731C29.4427 31.1558 29.5479 30.6133 29.415 30.2763ZM45.401 26.6044C45.9773 26.4102 46.1601 26.0847 45.7778 25.5079L45.401 26.6044ZM43.5725 21.756C44.2097 21.6875 44.6862 20.5625 45.2736 19.9457C46.2987 18.8835 47.3459 20.3397 47.961 19.6373C47.9333 19.426 48.0275 19.4432 47.3847 19.209C46.5037 18.8835 45.8776 18.7293 45.1184 19.3232C44.4424 19.8543 43.9603 20.6424 43.5725 21.756ZM48.0718 23.178C47.9943 22.4127 48.033 22.1215 47.3182 22.1272C47.6839 25.6735 47.4291 24.7884 46.5979 27.3182C47.3681 27.3353 47.3792 27.124 47.6008 26.4502C47.961 25.3709 48.1826 24.3486 48.0718 23.178ZM43.9548 30.7789C43.6999 30.3791 43.3508 30.6875 43.0904 29.6939C42.4864 27.3696 43.0793 25.388 42.9906 25.0625C42.9297 24.8569 42.708 24.6742 42.5806 24.6113C42.3811 26.1475 42.1207 26.7528 42.3534 28.3918C42.6083 30.1621 42.5307 31.0359 43.9548 30.7789ZM44.7638 29.2941C45.1572 28.8087 44.6696 28.2776 44.4978 27.5866C44.1931 26.3417 44.3759 22.4698 45.8221 22.1215L46.138 23.8975C46.5757 23.2865 46.4538 23.3093 46.3707 22.4127C46.3153 21.8702 46.2488 21.362 45.6282 21.4362C44.0324 21.6246 42.9519 27.8207 44.7638 29.2941ZM40.6412 19.2661C40.4085 18.7236 40.1591 18.8264 39.5053 18.6494C38.4802 18.3753 35.9257 17.6443 35.1278 17.6614C35.2774 18.0269 35.9978 18.1183 36.3746 18.2439C36.8289 18.3924 37.3055 18.5409 37.7654 18.6722C38.3971 18.8435 40.1481 19.4546 40.6412 19.2661ZM40.0926 20.8537C39.6438 20.3797 38.7794 20.157 37.987 20.2141C38.2419 20.4368 39.5496 21.1392 40.0926 20.8537ZM31.2213 21.7731C33.0499 22.407 34.6568 21.0707 37.2224 21.8359C37.6213 21.9559 38.5855 22.4184 38.8293 22.3613C38.8681 22.27 38.8847 22.3613 38.8514 22.19C38.7628 21.7674 37.9482 21.5732 37.4717 21.4019C36.8456 21.1735 36.1031 21.0079 35.3772 21.025C34.679 21.0422 31.5483 21.4419 31.2213 21.7731ZM34.0141 19.7116C33.3602 19.2718 32.9225 19.2262 31.9749 19.2262C32.2409 19.6659 32.385 19.7116 32.928 19.8486C33.4322 19.9743 33.665 20.077 34.0141 19.7116ZM32.3462 17.61C32.4792 18.2325 33.4433 18.1982 34.0639 18.1583C33.7093 17.5129 32.9502 17.6957 32.3462 17.61ZM33.2438 27.9578C33.532 28.3747 33.9309 28.4775 34.5128 28.409C34.4186 28.2548 34.208 28.0092 34.0418 27.9235C33.809 27.8036 33.3602 27.8322 33.2438 27.9578ZM37.6823 28.369C37.9205 28.6374 38.4857 28.763 38.9235 28.8601C39.4997 28.98 40.0095 29.1342 40.3475 28.7059C39.8211 28.2262 38.4248 28.3119 37.6823 28.369ZM29.8915 30.5505C30.4844 30.6647 30.5564 30.6019 30.7891 30.1107C31.0551 29.5568 31.0662 29.2998 30.6617 28.98L29.8915 30.5505ZM31.3931 20.7852C29.4427 20.7738 25.3921 20.6652 24.7161 19.072C25.6969 18.9577 26.3396 19.5231 27.3204 19.4489C27.0378 18.7921 24.91 18.4038 24.5499 18.4552C22.9651 18.6779 24.3448 21.0479 30.0633 21.3677C30.839 21.4076 31.2047 21.4362 31.3931 20.7852ZM24.0013 21.2249C24.0124 21.6361 24.2673 21.5504 25.2259 21.8988C25.7246 22.0815 26.1845 22.2757 26.6777 22.407L26.7608 21.933C26.4283 21.6875 24.3338 21.105 24.0013 21.2249ZM30.224 17.9355C28.3621 17.3131 29.1878 17.2331 26.6056 17.1475C25.2093 17.1018 23.8794 17.1931 22.5052 17.3588C21.1033 17.5244 19.8178 17.6557 18.3937 17.5529C16.4322 17.4159 15.9612 16.9076 14.9361 16.6735C14.659 16.7134 14.7255 16.6963 14.5426 16.8391C14.792 17.0789 15.8393 17.5129 16.1496 17.6386C19.1639 18.8321 23.7187 17.4615 27.06 17.6957C29.825 17.8898 30.1187 18.9977 30.7393 18.4267C30.5786 18.1354 30.7725 18.3981 30.4844 18.1583C30.3459 18.0497 30.3459 18.084 30.224 17.9355ZM17.8174 16.6107C18.0058 16.8676 18.2109 16.959 18.5766 16.9933C18.9534 17.0275 19.236 16.9533 19.4521 16.7363C18.8702 16.5421 18.4713 16.5193 17.8174 16.6107ZM12.2542 15.834C12.6975 16.1824 12.9967 16.1081 13.3291 15.6912C12.8748 15.6627 12.5534 15.5542 12.2542 15.834ZM11.3122 19.4546C10.8578 19.0891 10.3092 19.1119 9.68311 19.1919C9.97678 19.5631 10.8024 19.9457 11.3122 19.4546ZM21.8126 21.4133C21.5688 21.1278 20.0283 20.8137 19.6737 20.7281C18.8758 20.5282 18.0779 20.374 17.2689 20.2198C16.4266 20.0542 13.102 19.3004 12.5479 19.3175C12.8415 19.8486 13.8888 19.9286 14.659 20.1056L20.6711 21.5618C21.2474 21.7217 21.5798 21.9273 21.8126 21.4133ZM14.2102 18.2553C15.3683 18.855 16.881 19.4717 18.2884 18.9006C17.9726 18.6665 17.014 18.7122 16.2105 18.5066C15.6453 18.3581 14.7255 17.8956 14.2102 18.2553ZM14.2878 22.4356C14.8142 22.5669 15.3073 22.6811 15.8448 22.7896C16.0886 22.841 16.4432 22.9438 16.6926 22.9609C17.1414 23.0009 17.1137 22.8924 17.3132 22.6411C17.0971 22.19 14.1548 22.15 13.7724 22.2128L14.2878 22.4356Z" fill="black"/>
<path fill-rule="evenodd" clip-rule="evenodd" d="M7.93144 3.92757C8.2362 4.5843 8.65733 5.41806 9.09507 5.972C9.41646 6.37175 9.78771 6.79434 10.1368 7.07987C11.0455 7.81084 11.6606 7.95932 12.9295 8.38762L14.3148 8.73026L15.689 8.81592C16.3816 8.77595 16.7196 8.89587 16.969 9.07861L17.1574 8.696C17.0964 8.62747 17.0521 8.54752 17.0299 8.40475C16.9025 8.2677 16.8914 8.21059 16.8914 7.81655C16.8969 7.6281 16.908 7.43393 16.9136 7.24548C16.9191 6.83431 16.8914 6.49167 16.836 6.07479C16.7584 5.41806 16.6808 5.25245 16.3428 4.8013C15.8608 4.14457 15.3343 3.6249 14.686 3.1452C14.0045 2.64266 13.1345 2.2372 12.3532 1.94596C11.9321 1.78606 11.3171 1.66613 10.9513 1.50623C10.6743 1.47768 10.436 1.41486 10.1479 1.36347C9.1117 1.1693 7.69872 0.883767 6.7124 0.82666C6.82322 1.43199 6.87864 1.56905 7.10582 2.0773C7.38842 2.7169 7.6156 3.28797 7.93144 3.92757Z" fill="black"/>
<path fill-rule="evenodd" clip-rule="evenodd" d="M16.4155 7.94217C17.3464 5.13251 14.393 3.36791 14.1713 3.39646C14.0716 3.87616 15.4015 6.50879 15.6453 7.01133C15.8503 7.43963 15.9722 7.83367 16.4155 7.94217Z" fill="#47B960"/>
<path fill-rule="evenodd" clip-rule="evenodd" d="M12.1317 4.81263C11.9267 4.08167 11.766 3.28217 11.5444 2.57404C11.3061 1.82023 11.0291 1.86592 9.84326 1.67175C9.97071 2.08292 10.0982 2.28851 10.1813 2.72823C10.3309 3.5106 10.5858 3.89321 11.2729 4.32152C11.5942 4.52139 11.6995 4.70413 12.1317 4.81263Z" fill="#47B960"/>
<path fill-rule="evenodd" clip-rule="evenodd" d="M13.7827 6.00073C13.5888 5.27547 13.3339 4.52166 13.1234 3.78498C12.8297 2.76277 12.9627 2.32876 11.8323 2.25452C12.137 3.72217 12.5748 5.70378 13.7827 6.00073Z" fill="#187D49"/>
<path fill-rule="evenodd" clip-rule="evenodd" d="M14.8023 7.36542C14.6915 7.18267 14.4089 6.97709 14.1928 6.88572C13.55 6.61161 11.1009 6.99993 10.8848 7.09701C11.0288 7.29689 12.2534 7.86225 12.5249 7.86225C13.0015 7.85654 14.2316 7.46821 14.8023 7.36542Z" fill="#187D49"/>
<path fill-rule="evenodd" clip-rule="evenodd" d="M11.8773 5.36128C11.8275 5.1043 11.9217 5.25278 11.6668 5.07575C11.5504 4.9958 11.4895 4.96153 11.3842 4.88158C10.9132 4.55036 9.44479 4.66458 8.91284 4.80163C8.91838 4.893 9.24531 5.90951 9.99336 5.81814C10.4034 5.76674 11.5837 5.56116 11.8773 5.36128Z" fill="#39DE5D"/>
<path fill-rule="evenodd" clip-rule="evenodd" d="M13.2452 6.34321C13.0181 5.88636 12.475 5.61796 11.7769 5.78928C11.2006 5.93204 10.4858 6.04055 9.97046 6.25184C10.3417 6.84576 10.4137 6.64588 11.5164 6.62304C12.0428 6.60591 12.8518 6.67443 13.2452 6.34321Z" fill="#47B960"/>
<path fill-rule="evenodd" clip-rule="evenodd" d="M14.9305 6.79453C14.8308 6.25201 14.393 5.34401 14.1935 4.77294C13.983 4.16761 13.7336 2.94552 13.3679 2.91125C13.1961 3.40809 13.6505 4.6416 13.8389 5.14414C14.055 5.71521 14.393 6.7774 14.9305 6.79453Z" fill="#39DE5D"/>
<path fill-rule="evenodd" clip-rule="evenodd" d="M9.43901 3.4821C9.32819 3.12804 8.66326 2.65405 8.34188 2.39707L7.47192 1.81458C7.92075 3.28793 8.13686 3.81332 9.43901 3.4821Z" fill="#39DE5D"/>
<path fill-rule="evenodd" clip-rule="evenodd" d="M16.1211 8.36473C15.5393 7.5995 14.5641 7.59379 13.3672 8.10204C13.9822 8.55889 15.2622 8.50179 16.1211 8.36473Z" fill="#39DE5D"/>
<path fill-rule="evenodd" clip-rule="evenodd" d="M9.98126 3.11685C9.92031 2.877 9.51027 1.84337 9.37728 1.71202C9.25538 1.59781 8.13054 1.36938 7.94214 1.50072L9.60447 2.98551C9.82611 3.14541 9.68758 3.10543 9.98126 3.11685Z" fill="#187D49"/>
<path fill-rule="evenodd" clip-rule="evenodd" d="M10.5026 4.31019C10.0095 3.65917 9.26698 3.97326 8.41919 3.92186C8.5965 4.48151 8.62421 4.36729 9.25035 4.38443C9.68256 4.40156 10.0704 4.35016 10.5026 4.31019Z" fill="#187D49"/>
<path fill-rule="evenodd" clip-rule="evenodd" d="M15.251 25.8507L15.7995 25.2054L17.2513 25.4738L25.8566 16.074L23.3244 15.9541L15.3507 24.9599L15.251 25.8507Z" fill="black" fill-opacity="0.701961"/>
<path fill-rule="evenodd" clip-rule="evenodd" d="M20.9753 19.6433L21.2911 19.2721L22.3218 18.0843L23.43 16.7879L27.5027 12.1566C27.7576 11.8482 28.5056 10.9173 28.8658 10.7232C28.9822 10.6603 28.9656 10.6775 29.0487 10.6603L29.6582 10.1007C30.2456 9.38686 30.4284 8.97569 30.3065 8.22188C30.2234 7.70792 30.1292 7.05119 29.6804 6.58862C29.4587 6.71997 29.165 6.75994 28.888 6.71426L29.4088 5.92618L28.888 5.65778L29.3313 4.73265C29.3202 4.5499 29.3146 4.37858 29.3036 4.21868C29.0875 3.6933 28.755 3.29355 28.4225 2.83098C27.7354 2.02007 26.9929 0.98643 25.8293 1.08351C25.4303 1.11778 25.458 1.18059 25.1699 1.30623C24.9427 1.40331 25.4248 1.21486 25.0535 1.35191C25.0203 1.36334 24.9649 1.38047 24.9316 1.38618L23.8844 2.43124L19.0193 7.02835L17.767 8.15906C16.9912 8.79866 14.93 10.4776 13.9104 10.3919C13.5724 10.3634 13.2898 10.3634 12.9352 10.3234C12.4309 10.2892 12.0874 10.1921 11.5222 10.0893C11.0069 9.9922 10.6079 10.0322 10.1591 10.4833L9.12289 11.7454C8.66852 12.3107 8.54661 12.5335 8.29172 13.1673C8.14766 14.0982 8.21969 14.201 8.41363 15.029C8.48012 15.326 8.59094 15.6572 8.38592 15.977C8.20307 16.2625 7.85952 16.5823 7.61571 16.7308C7.29987 16.9992 6.51857 17.7302 6.21381 17.8958C5.80377 18.0785 4.38525 19.472 3.58179 19.9174C3.32136 20.1115 3.09417 20.2429 2.8282 20.4028C2.67305 20.4942 2.60656 20.5341 2.45695 20.6312C1.95825 20.9567 1.72552 21.0995 1.24899 21.5164C0.273756 22.7328 0.755832 26.0164 1.03289 27.4555C1.28778 28.7575 1.59808 29.0374 2.10232 30.1738C3.45989 31.927 3.94196 32.2925 5.90905 33.2918L7.50489 33.8058L8.17536 33.96L8.30281 33.9371C9.57726 33.7544 11.0567 31.6928 11.8824 30.5964C13.1568 28.9289 14.5753 27.17 15.9606 25.5881L17.0577 24.2804L18.1105 23.0297C18.6259 22.4072 19.1634 21.7962 19.6842 21.1737C19.856 20.9682 20.0222 20.7626 20.1885 20.557L20.1995 20.5684L20.9753 19.6433Z" fill="black"/>
<path fill-rule="evenodd" clip-rule="evenodd" d="M19.3514 11.3802C19.0854 11.9284 18.6532 12.0826 18.2709 12.0654C18.4537 11.4772 18.897 11.3402 19.3514 11.3802ZM15.0127 18.7984C15.0626 19.2095 13.6496 21.7051 13.2839 22.2248C12.9015 22.7616 12.3918 23.207 11.8931 23.5439C11.5218 23.7952 10.9455 24.2863 10.6131 24.1207C10.4745 24.0522 10.5466 24.0922 10.5078 24.0122C10.5964 23.8009 11.4332 23.3498 11.7268 23.1271C13.6385 21.6765 13.5886 19.7806 15.0127 18.7984ZM18.16 14.3669C18.9136 13.8586 18.9912 13.6245 19.2793 13.8358C19.1796 14.1441 17.6558 15.3548 17.3067 15.469L17.0241 15.1435C17.3787 14.858 17.7611 14.6295 18.16 14.3669ZM10.8569 25.7483C10.9566 25.1943 12.1369 24.6233 12.4306 24.5604C12.0427 25.1658 11.4276 25.674 10.8569 25.7483ZM14.9185 21.9392C14.8576 21.4881 15.0515 21.3739 15.4117 21.0712C15.794 20.7571 15.9048 20.6715 16.3481 20.7171C15.8383 21.4081 15.5668 21.6994 14.9185 21.9392ZM20.3322 12.1454C20.105 11.7 20.4264 11.5686 20.8419 11.2374L25.0809 7.63966C25.6184 7.17709 26.239 6.45754 26.7598 6.53178C26.4772 6.94295 24.1666 8.95883 23.5959 9.48421C23.0528 9.98675 22.5209 10.4836 21.9557 10.9576C21.7008 11.1689 20.6591 12.1226 20.3322 12.1454ZM27.3361 5.56096C27.2752 4.92708 27.9789 4.53304 28.3889 4.51591C28.1063 5.01274 27.8293 5.42962 27.3361 5.56096ZM15.5945 19.4551C15.251 18.964 15.4671 18.7127 15.9159 18.1702C19.2129 14.1841 21.5844 14.4582 20.8807 15.7317C20.72 16.0172 19.3071 17.3593 18.7031 17.2108C19.1851 16.457 19.9166 16.2971 20.3709 15.5204C18.9136 15.1492 16.6529 18.0388 15.5945 19.4551ZM26.5936 8.31352C26.5603 8.88459 25.7458 9.30718 25.3413 9.6384C24.765 10.1124 24.283 10.8319 23.9505 10.9347C24.3162 9.60413 25.5574 8.83319 26.5936 8.31352ZM11.6493 26.9989C11.7878 26.5421 13.1454 25.5941 13.6053 25.2286C13.9433 24.9659 14.3034 24.6975 14.6525 24.4462C14.9407 24.2464 15.395 23.7667 15.722 23.8523C15.3008 24.4462 13.4224 25.9082 12.6854 26.5078C12.2089 26.8904 12.1424 27.1245 11.6493 26.9989ZM17.2568 21.8593C16.869 22.2533 16.5864 22.8986 15.9547 22.813C16.2594 22.339 16.7581 21.6194 17.2568 21.8593ZM29.3087 8.1993C29.3364 8.56479 29.0871 8.74182 28.8211 9.05591C28.7214 8.59334 28.8267 8.33065 29.3087 8.1993ZM25.3247 4.57872C24.8869 4.91565 23.7621 5.57809 23.6901 6.1149L24.1167 5.86363C23.956 6.17772 22.338 8.29067 21.9114 8.20501C21.6343 8.26783 21.7063 8.34207 21.3129 8.73611C21.1024 8.9474 20.9915 8.98167 20.8918 9.2101C20.8807 9.22723 20.8641 9.28434 20.8586 9.31289C20.0717 9.82685 19.6451 10.3922 18.7696 10.7349C17.5117 11.2317 15.5779 11.3459 14.2369 11.1175C13.3781 10.9747 13.439 10.9233 12.4804 10.8319L12.0704 10.7977C11.9485 10.8034 11.9762 10.8034 11.8931 10.8205L12.015 12.3967C13.4667 13.2247 15.0681 13.0591 16.4645 12.8421C16.7194 12.8021 16.8357 12.8078 17.146 12.9563C16.0766 13.5731 14.5306 13.6073 13.3892 13.4189C12.9292 13.3446 12.4527 13.1448 11.9983 13.0877L11.8377 14.2012C12.8517 14.7837 14.0763 14.8979 15.0072 15.2634C13.3615 15.6518 12.5912 14.7438 11.5495 14.818L11.0508 15.6289L13.9654 16.554C14.4752 16.7025 14.6082 16.7539 14.5971 17.2165L13.3337 16.9995C12.2976 17.8618 10.6186 20.1004 8.67369 21.6937L8.61828 21.4139C8.35784 21.5166 8.01984 21.9564 7.79819 22.2248L7.03906 23.2698L7.58763 23.9494C7.93118 23.6239 9.1613 22.8701 9.56026 22.6645C9.10035 23.3498 8.4465 23.7495 7.95888 24.4919C8.43542 24.4805 9.00615 24.195 9.35524 24.195C9.38849 24.4234 9.36632 24.6061 9.46606 24.8974L10.0977 25.0858L9.08373 26.3422C9.49377 26.365 10.6297 25.9653 10.8846 26.2565C11.0508 26.6734 10.94 26.9532 10.8735 27.4558C10.7682 28.2438 10.7904 29.0262 10.7461 29.8371C10.735 30.077 10.7294 30.1741 10.6962 30.4367C10.6075 31.1163 10.6463 30.9107 10.7793 31.1106L15.8217 25.0858C15.8217 25.063 15.8272 25.0344 15.8328 25.0173C15.8383 25.0002 15.8439 24.9716 15.8439 24.9488C15.9381 24.589 16.2207 24.1835 16.5864 23.4297C16.7249 23.1385 17.2846 22.1562 17.2568 21.8593C17.5062 21.5338 17.5228 21.3282 17.6835 20.9684C17.7888 20.7286 18.149 20.3003 18.1767 20.1404C18.0049 20.1461 18.0326 20.1689 17.883 20.2089C17.5616 20.2888 17.8497 20.2888 17.5616 20.2489C17.5062 19.4893 18.4205 19.8777 20.0496 17.9646C22.0111 15.6632 23.5238 11.6086 25.9675 10.061C26.2223 9.90109 27.0812 9.37 27.3804 9.3186C27.3804 9.52989 27.4026 9.47279 27.2807 9.69551C27.6963 9.70122 29.3475 9.36428 29.6412 9.07875C29.9958 8.52481 29.6744 7.78813 29.3309 7.27417C28.9707 7.39981 27.9068 7.97088 27.5799 7.95945C27.3416 7.43407 27.7517 7.41123 28.0454 6.88013L27.4303 6.64599C28.5053 4.73862 29.7686 5.37822 27.6575 2.76843L25.9896 4.44738C25.6849 4.73291 25.6405 4.80144 25.3247 4.57872Z" fill="#A57E70"/>
<path fill-rule="evenodd" clip-rule="evenodd" d="M4.05781 26.5076L4.60638 27.3756C3.99686 27.3413 3.8805 27.0272 4.05781 26.5076ZM1.97436 23.2011C2.56726 22.0304 3.12691 22.5558 4.47339 23.3267C5.72014 24.0405 5.9972 24.5602 6.93918 25.531C6.82836 25.5881 6.58455 25.651 6.41278 25.5824C6.14126 25.4739 5.09954 23.9777 3.18232 23.1611C2.36224 22.8127 2.38994 23.2353 1.97436 23.2011ZM6.08585 30.3166C5.70352 30.842 5.5262 30.6535 4.96101 30.2995C4.10214 29.7512 3.52033 29.0374 2.97176 28.1922C2.63375 27.6668 2.49522 27.5469 2.92189 26.993C4.20742 28.9632 3.45937 28.6719 6.08585 30.3166ZM2.55617 24.5888C4.53989 24.0691 8.20255 28.1979 7.47113 29.46C7.18853 29.9511 6.80065 29.7284 6.4017 29.4714C5.74231 29.0488 5.69244 29.1459 5.50958 28.5063L6.90039 29.2316C7.43788 27.9923 4.88898 25.7709 3.86941 25.3197C3.30422 25.0742 2.67808 25.1427 2.55617 24.5888ZM8.36324 27.7925C8.91735 28.6719 9.19441 29.4486 9.19441 30.2309C9.19441 31.1047 8.75112 31.4759 8.05294 31.9384C7.54316 32.2811 7.60965 32.2183 7.44896 32.1212C7.29935 31.3045 8.86194 31.3217 8.68463 30.0025C8.57935 29.243 8.06402 28.295 8.36324 27.7925ZM10.419 26.7474C9.68202 26.4562 9.0725 27.1757 8.30783 27.0329C8.20255 26.5247 8.40757 26.5475 8.70679 26.0279C8.59043 25.6338 8.4519 25.9879 8.44636 25.5425C8.44636 25.3369 8.60705 25.2227 8.62922 24.9314C8.44082 24.9371 8.16931 24.9771 7.94766 25.0342C6.62888 23.9549 6.62334 23.0412 4.83357 22.1674C3.70872 21.6192 2.22925 20.7969 1.51999 22.1275C0.904928 23.281 1.387 27.604 2.05194 28.9689C3.09366 31.1389 4.34595 31.9384 6.44602 32.8236C7.24948 33.1605 7.53208 33.2633 8.20809 33.1434C9.58783 32.9035 10.0699 31.5558 10.2583 30.2595L10.419 26.7474Z" fill="#DDB496"/>
<path fill-rule="evenodd" clip-rule="evenodd" d="M7.01179 19.9404C6.64607 20.5114 5.95344 21.5736 5.34392 21.6993C5.23309 21.2253 5.60989 20.934 6.00885 20.58C6.30807 20.3116 6.69594 19.9689 7.01179 19.9404ZM8.69074 17.6104C8.95671 17.1478 9.24485 16.9194 9.68259 16.9365C9.70476 17.085 9.48311 17.4277 9.27809 17.5304C9.12848 17.6104 8.84589 17.6275 8.69074 17.6104ZM7.79862 22.2246C8.02027 21.9562 8.35827 21.5165 8.6187 21.4137C8.91238 20.7684 10.0871 19.7747 10.6357 19.2037C11.3837 18.427 12.0486 17.5818 12.7801 16.7709L11.7882 16.4911C11.0734 17.6618 10.608 18.2671 9.48866 18.724C9.12294 18.8725 7.1891 19.4207 6.90651 19.375C7.14477 18.644 8.14771 18.6041 9.04537 18.3756C9.90978 18.1472 10.608 17.479 11.1676 16.5311C10.8573 16.1941 9.37783 16.1999 9.06753 16.3426C8.62979 16.5425 7.58806 17.4676 7.13923 17.8274C5.90911 18.8211 4.50167 19.8261 3.34912 20.8655C3.86998 21.1739 6.47984 22.6701 6.86218 22.6986C7.30546 22.3731 7.29992 22.0704 7.79862 22.2246Z" fill="#776671"/>
<path fill-rule="evenodd" clip-rule="evenodd" d="M25.1038 12.1737C25.3255 11.9224 25.4917 11.8253 25.7743 11.8253C25.4862 12.3507 25.2535 12.6305 24.8046 12.9503C24.7769 12.6705 24.8767 12.4307 25.1038 12.1737ZM27.2815 9.69525C26.5722 10.3177 25.9683 10.3862 24.8157 11.7397C23.9845 12.7162 23.375 13.7213 22.7323 14.8349C22.1061 15.9256 21.4523 16.9421 20.6654 17.9358C19.2192 19.7632 19.6071 19.1179 18.1775 20.1401C18.1498 20.3 17.7896 20.7283 17.6843 20.9682C17.5236 21.3279 17.507 21.5335 17.2577 21.859C17.2854 22.156 16.7257 23.1382 16.5872 23.4295C16.2215 24.1833 15.9389 24.5887 15.8447 24.9485C15.8447 24.9714 15.8391 24.9999 15.8336 25.017C15.8281 25.0342 15.8225 25.0627 15.8225 25.0856C16.9972 23.8121 18.1221 22.2245 19.2746 20.8768C20.4438 19.5119 21.6462 18.1928 22.7655 16.7708C24.6716 14.3438 26.2176 12.9332 28.0406 10.826C28.4396 10.3691 29.6753 9.6724 29.642 9.07849C29.3483 9.36403 27.6971 9.70096 27.2815 9.69525Z" fill="#776671"/>
<path fill-rule="evenodd" clip-rule="evenodd" d="M20.8582 9.31271C20.8637 9.28415 20.8804 9.22705 20.8914 9.20991C20.9912 8.98149 21.102 8.94722 21.3126 8.73593C21.706 8.34189 21.634 8.26765 21.911 8.20483C21.8501 7.93072 21.7614 7.89074 22.0329 7.58237C22.177 7.41676 22.4374 7.21117 22.6036 7.05698C22.9694 6.72576 23.3129 6.42881 23.6897 6.11472C23.7617 5.57791 24.8866 4.91547 25.3243 4.57854L27.2803 2.44274C27.1086 2.18005 27.1418 2.14578 26.8093 2.02586C26.3494 2.33995 22.0717 6.75431 20.6809 7.31967C21.3458 6.14898 22.5039 5.4123 23.4736 4.53856C24.4433 3.67054 25.4573 2.79109 26.3771 1.89451C25.5072 1.25491 24.3158 2.75112 23.5567 3.4364C21.7669 5.05253 19.8276 6.98845 18.132 8.47894C17.0348 9.43834 15.5942 10.0722 15.4058 10.6205C16.6802 10.6776 16.4641 10.7004 17.129 10.0551C17.4393 9.75243 18.4866 9.01004 18.8468 9.10141C18.7249 9.44976 17.9048 10.0323 17.6 10.3806C18.1154 10.3463 18.675 10.2036 19.2457 9.96373C19.9772 9.65535 20.3373 9.14139 20.8582 9.31271Z" fill="#776671"/>
<path fill-rule="evenodd" clip-rule="evenodd" d="M10.1592 12.8932C9.85997 12.8133 9.53859 12.4421 9.85997 12.2822C10.0539 12.1851 10.4917 12.4592 10.1592 12.8932ZM10.3753 14.5036C9.93755 14.6236 9.77132 14.4808 9.53305 13.9897C9.32249 13.5499 9.31695 13.4643 9.7159 13.0931L10.3753 14.5036ZM9.25599 12.3735C8.83487 13.0303 8.90136 12.8875 9.0011 13.4129C9.13963 14.1667 8.67972 15.0005 9.12301 15.4002C9.4056 15.6515 9.9043 15.6172 10.1093 15.543C10.8352 15.2917 11.273 14.2695 11.3228 13.6185C11.0125 13.5157 11.0236 13.5842 10.7188 13.4814C11.0014 12.522 10.3199 12.0937 10.5582 11.5112C11.2508 11.9624 11.1233 12.1908 11.417 12.7219C11.5833 9.7923 10.1703 10.9459 9.25599 12.3735Z" fill="#DDB496"/>
<path fill-rule="evenodd" clip-rule="evenodd" d="M19.3517 11.3799C18.8974 11.3399 18.4541 11.477 18.2712 12.0652C18.6536 12.0823 19.0858 11.9281 19.3517 11.3799ZM10.1591 12.8932C10.4915 12.4592 10.0538 12.1851 9.85983 12.2822C9.53845 12.4421 9.85983 12.8133 10.1591 12.8932ZM4.05831 26.5075C3.88099 27.0272 3.99735 27.3413 4.60687 27.3755L4.05831 26.5075ZM8.36374 27.7924C8.06452 28.295 8.57984 29.2429 8.68512 30.0025C8.86244 31.3216 7.29985 31.3045 7.44946 32.1211C7.61015 32.2182 7.54366 32.281 8.05344 31.9384C8.75162 31.4758 9.1949 31.1046 9.1949 30.2309C9.1949 29.4485 8.91785 28.6719 8.36374 27.7924ZM4.9615 30.2994C5.5267 30.6535 5.70401 30.8419 6.08635 30.3165C3.45987 28.6719 4.20792 28.9631 2.92238 26.9929C2.49572 27.5469 2.63424 27.6668 2.97225 28.1922C3.52082 29.0374 4.10263 29.7512 4.9615 30.2994ZM1.97485 23.201C2.39044 23.2353 2.36273 22.8127 3.18281 23.161C5.10003 23.9777 6.14176 25.4739 6.41327 25.5824C6.58505 25.6509 6.82885 25.5881 6.93968 25.531C5.99769 24.5602 5.72063 24.0405 4.47389 23.3267C3.1274 22.5557 2.56775 22.0303 1.97485 23.201ZM2.55667 24.5887C2.67857 25.1427 3.30472 25.0741 3.86991 25.3197C4.88947 25.7708 7.43837 27.9923 6.90089 29.2315L5.51007 28.5063C5.69293 29.1459 5.7428 29.0488 6.40219 29.4714C6.80115 29.7283 7.18903 29.9511 7.47162 29.4599C8.20305 28.1979 4.54038 24.069 2.55667 24.5887ZM11.6496 26.9986C12.1428 27.1243 12.2093 26.8901 12.6858 26.5075C13.4228 25.9079 15.3012 24.446 15.7223 23.852C15.3954 23.7664 14.941 24.2461 14.6529 24.446C14.3038 24.6972 13.9436 24.9656 13.6056 25.2283C13.1457 25.5938 11.7881 26.5418 11.6496 26.9986ZM10.8572 25.748C11.428 25.6738 12.043 25.1655 12.4309 24.5602C12.1372 24.623 10.957 25.1941 10.8572 25.748ZM15.0131 18.7981C13.589 19.7803 13.6389 21.6763 11.7272 23.1268C11.4335 23.3495 10.5968 23.8006 10.5081 24.0119C10.5469 24.0919 10.4749 24.0519 10.6134 24.1204C10.9459 24.2861 11.5222 23.7949 11.8934 23.5437C12.3921 23.2067 12.9019 22.7613 13.2842 22.2245C13.6499 21.7048 15.0629 19.2092 15.0131 18.7981ZM14.9189 21.939C15.5672 21.6991 15.8387 21.4079 16.3485 20.7169C15.9052 20.6712 15.7943 20.7568 15.412 21.0709C15.0518 21.3736 14.8579 21.4878 14.9189 21.939ZM17.2572 21.859C16.7585 21.6192 16.2598 22.3387 15.955 22.8127C16.5867 22.8984 16.8693 22.253 17.2572 21.859ZM9.68252 16.9364C9.24477 16.9193 8.95664 17.1477 8.69066 17.6102C8.84581 17.6274 9.12841 17.6102 9.27802 17.5303C9.48304 17.4275 9.70468 17.0849 9.68252 16.9364ZM7.01171 19.9402C6.69587 19.9688 6.30799 20.3114 6.00877 20.5798C5.60981 20.9339 5.23302 21.2251 5.34384 21.6991C5.95336 21.5735 6.646 20.5113 7.01171 19.9402ZM9.71577 13.0931C9.31681 13.4643 9.32235 13.5499 9.53291 13.9897C9.77118 14.4808 9.93741 14.6236 10.3752 14.5036L9.71577 13.0931ZM15.5949 19.4548C16.6532 18.0386 18.914 15.1489 20.3713 15.5201C19.9169 16.2968 19.1855 16.4567 18.7034 17.2105C19.3074 17.359 20.7204 16.017 20.8811 15.7314C21.5848 14.4579 19.2132 14.1838 15.9163 18.1699C15.4674 18.7124 15.2513 18.9637 15.5949 19.4548ZM19.2797 13.8355C18.9916 13.6242 18.914 13.8583 18.1604 14.3666C17.7614 14.6293 17.3791 14.8577 17.0245 15.1432L17.3071 15.4687C17.6562 15.3545 19.18 14.1439 19.2797 13.8355ZM18.177 20.1401C19.6066 19.1179 19.2187 19.7632 20.665 17.9358C21.4518 16.9421 22.1057 15.9256 22.7318 14.8349C23.3746 13.7213 23.9841 12.7162 24.8153 11.7397C25.9678 10.3862 26.5718 10.3177 27.281 9.69523C27.4029 9.47251 27.3808 9.52962 27.3808 9.31832C27.0816 9.36972 26.2227 9.90081 25.9678 10.0607C23.5242 11.6083 22.0115 15.6629 20.0499 17.9643C18.4208 19.8774 17.5065 19.4891 17.562 20.2486C17.8501 20.2886 17.562 20.2886 17.8833 20.2086C18.033 20.1686 18.0052 20.1458 18.177 20.1401ZM25.7739 11.8253C25.4913 11.8253 25.325 11.9224 25.1034 12.1737C24.8762 12.4306 24.7765 12.6705 24.8042 12.9503C25.253 12.6305 25.4857 12.3507 25.7739 11.8253ZM29.3091 8.19902C28.827 8.33037 28.7217 8.59306 28.8215 9.05563C29.0874 8.74154 29.3368 8.56451 29.3091 8.19902ZM27.3365 5.56068C27.8296 5.42934 28.1067 5.01246 28.3893 4.51562C27.9792 4.53276 27.2755 4.9268 27.3365 5.56068ZM20.3325 12.1451C20.6594 12.1223 21.7012 11.1686 21.956 10.9573C22.5212 10.4833 23.0532 9.98647 23.5962 9.48393C24.1669 8.95855 26.4776 6.94267 26.7602 6.5315C26.2393 6.45726 25.6187 7.17681 25.0812 7.63938L20.8423 11.2371C20.4267 11.5683 20.1053 11.6997 20.3325 12.1451ZM26.5939 8.31324C25.5578 8.83291 24.3166 9.60385 23.9508 10.9344C24.2833 10.8317 24.7654 10.1121 25.3417 9.63812C25.7462 9.3069 26.5607 8.88431 26.5939 8.31324ZM23.6904 6.11462C23.3136 6.42871 22.9701 6.72566 22.6044 7.05688C22.4381 7.21107 22.1777 7.41666 22.0336 7.58227C21.7621 7.89065 21.8508 7.93062 21.9117 8.20473C22.3384 8.29039 23.9564 6.17744 24.1171 5.86335L23.6904 6.11462Z" fill="black"/>
<path fill-rule="evenodd" clip-rule="evenodd" d="M17.5176 23.732C17.9387 24.2631 18.515 24.9198 19.0358 25.3138C19.4182 25.6051 19.8504 25.902 20.2383 26.0734C21.2246 26.5245 21.8175 26.5074 23.0642 26.5988L24.4107 26.5759L25.6741 26.3303C26.3002 26.1248 26.6327 26.1533 26.8987 26.2618L26.9873 25.8678C26.9153 25.8221 26.8543 25.7593 26.8045 25.6336C26.6548 25.5366 26.6327 25.4909 26.5496 25.1311C26.5052 24.9598 26.4775 24.777 26.4387 24.6057C26.3501 24.2345 26.2448 23.9261 26.1063 23.5607C25.8846 22.9839 25.7794 22.8468 25.3693 22.5156C24.782 22.0359 24.1891 21.6876 23.4853 21.4077C22.7595 21.1108 21.8729 20.9509 21.0916 20.8709C20.676 20.8309 20.0886 20.8652 19.7174 20.8081C19.4625 20.8481 19.2298 20.8481 18.9583 20.8652C17.9719 20.9395 16.6199 21.0194 15.7112 21.2021C15.9494 21.7275 16.027 21.836 16.3484 22.2472C16.7529 22.7612 17.0854 23.2294 17.5176 23.732Z" fill="black"/>
<path fill-rule="evenodd" clip-rule="evenodd" d="M26.1447 25.3597C26.3553 22.5843 23.2744 21.682 23.075 21.7563C23.0971 22.2188 24.898 24.2975 25.2304 24.6973C25.513 25.0342 25.7181 25.3654 26.1447 25.3597Z" fill="#47B960"/>
<path fill-rule="evenodd" clip-rule="evenodd" d="M21.5405 23.5376C21.1859 22.9151 20.859 22.2298 20.4988 21.6416C20.1165 21.0134 19.8726 21.1162 18.7478 21.2247C18.9584 21.5674 19.1191 21.7216 19.2964 22.1042C19.6067 22.778 19.9225 23.0636 20.6484 23.292C20.9864 23.4005 21.1249 23.5433 21.5405 23.5376Z" fill="#47B960"/>
<path fill-rule="evenodd" clip-rule="evenodd" d="M23.3084 24.223C22.9704 23.6063 22.5659 22.9838 22.2058 22.3613C21.7126 21.5047 21.7403 21.0764 20.6875 21.2763C21.3026 22.5384 22.1393 24.2402 23.3084 24.223Z" fill="#187D49"/>
<path fill-rule="evenodd" clip-rule="evenodd" d="M24.5438 25.2168C24.3997 25.0797 24.095 24.9598 23.8844 24.9312C23.2361 24.8342 21.0917 25.7707 20.9199 25.9135C21.0917 26.062 22.3384 26.279 22.5823 26.2161C23.02 26.0962 24.0451 25.4452 24.5438 25.2168Z" fill="#187D49"/>
<path fill-rule="evenodd" clip-rule="evenodd" d="M21.4295 24.0975C21.3298 23.8748 21.4462 23.989 21.1747 23.8862C21.0528 23.8405 20.9863 23.8234 20.8754 23.7777C20.3712 23.5893 19.058 24.0404 18.6091 24.2917C18.6313 24.3773 19.1577 25.2225 19.8171 24.9598C20.1828 24.8171 21.2079 24.3488 21.4295 24.0975Z" fill="#39DE5D"/>
<path fill-rule="evenodd" clip-rule="evenodd" d="M22.898 24.6628C22.5877 24.2973 22.0336 24.1888 21.4352 24.5086C20.942 24.777 20.3159 25.0454 19.8948 25.3652C20.3658 25.8107 20.3879 25.6165 21.3909 25.3253C21.8619 25.1882 22.6155 25.0569 22.898 24.6628Z" fill="#47B960"/>
<path fill-rule="evenodd" clip-rule="evenodd" d="M24.5328 24.6684C24.3167 24.2002 23.7127 23.4806 23.408 23.0066C23.0811 22.5041 22.5768 21.4533 22.2333 21.5104C22.1945 22.0015 22.8816 23.0123 23.1697 23.4292C23.4911 23.8975 24.0397 24.7826 24.5328 24.6684Z" fill="#39DE5D"/>
<path fill-rule="evenodd" clip-rule="evenodd" d="M18.7865 22.9668C18.6092 22.6755 17.8944 22.4014 17.5453 22.2415L16.6255 21.916C17.3625 23.1552 17.6783 23.5835 18.7865 22.9668Z" fill="#39DE5D"/>
<path fill-rule="evenodd" clip-rule="evenodd" d="M25.9671 25.8161C25.269 25.2564 24.3768 25.4849 23.4016 26.233C24.061 26.5014 25.2191 26.1416 25.9671 25.8161Z" fill="#39DE5D"/>
<path fill-rule="evenodd" clip-rule="evenodd" d="M19.2022 22.5042C19.0914 22.2986 18.4874 21.4591 18.3323 21.3734C18.1937 21.2992 17.1243 21.3563 16.9802 21.5219L18.8254 22.4756C19.0637 22.567 18.9307 22.5613 19.2022 22.5042Z" fill="#187D49"/>
<path fill-rule="evenodd" clip-rule="evenodd" d="M19.9394 23.4635C19.352 22.9952 18.7425 23.4578 17.9612 23.612C18.2493 24.0802 18.2493 23.966 18.8201 23.8347C19.219 23.749 19.5626 23.6062 19.9394 23.4635Z" fill="#187D49"/>
</g>
<defs>
<clipPath id="clip0_1_2100">
<rect width="49.7036" height="33.1358" fill="white" transform="translate(0.667236 0.825195)"/>
</clipPath>
</defs>
</svg>
