<svg width="74" height="48" viewBox="0 0 74 48" fill="none" xmlns="http://www.w3.org/2000/svg">
<g clip-path="url(#clip0_1_2666)">
<path fill-rule="evenodd" clip-rule="evenodd" d="M54.5482 2.97133C53.2282 3.44286 51.537 4.12947 50.3986 4.89054C49.5653 5.44479 48.6826 6.09831 48.0639 6.74356C46.4882 8.38977 46.084 9.58101 45.0033 12.0131L44.071 14.7016L43.6338 17.3985C43.5018 20.3683 42.2808 19.9298 41.3074 21.5843L39.7152 21.485L37.133 21.2865L34.3364 21.0797L24.2057 20.2276C23.5457 20.2028 21.5823 20.1201 20.9636 19.8223C20.7656 19.7313 20.8068 19.7396 20.6913 19.6486L19.3549 19.3838C17.8287 19.3011 17.1192 19.4748 16.2695 20.3765C15.6755 20.997 14.933 21.7828 14.7845 22.8334C15.1805 22.9989 15.5352 23.3463 15.758 23.76L14.207 23.851L14.3885 24.8188L12.7468 25.1332C12.5158 25.3317 12.3096 25.5137 12.1116 25.6792C11.6496 26.4981 11.4681 27.3336 11.2124 28.2353C10.8577 29.9477 10.2884 31.9662 11.5919 33.4222C12.0456 33.9268 12.0951 33.8275 12.5488 34.084C12.9036 34.2908 12.1694 33.8358 12.7221 34.1998C12.7716 34.2246 12.8541 34.2825 12.8953 34.3239L15.3125 34.6961L26.2021 36.6401L28.941 37.1944C30.5497 37.5915 34.8148 38.6834 35.7471 40.1311C36.0523 40.6109 36.341 40.9914 36.6463 41.5043C37.1248 42.2158 37.3393 42.7617 37.7847 43.6221C38.189 44.408 38.6427 44.896 39.6822 45.0532L42.3633 45.1938C43.5595 45.2269 43.972 45.1856 45.0527 44.8878C46.3975 44.1598 46.4634 43.9695 47.3379 42.8858C47.6514 42.5053 47.9649 42.0255 48.5836 41.9841C49.1364 41.9428 49.9036 42.0834 50.3408 42.2654C51.009 42.4226 52.7497 42.7452 53.2777 42.9851C53.9294 43.3491 57.1716 43.862 58.5658 44.5072C59.0773 44.6561 59.4815 44.8298 59.96 45.0284C60.2322 45.1442 60.356 45.1938 60.6282 45.3014C61.5604 45.6405 61.9812 45.806 63.0041 46.0293C65.5698 46.1286 69.3234 42.2323 70.8991 40.4372C72.3263 38.8158 72.3758 38.1209 73.3245 36.3258C74.2073 32.7769 74.199 31.7677 73.4813 28.1526L72.5243 25.5137L72.0376 24.4631L71.8891 24.3142C70.3464 22.8004 66.1803 22.8665 63.9199 22.8417C60.4715 22.7921 56.7591 22.6349 53.3025 22.3454L50.4976 22.1799L47.8082 22.0145C46.0427 21.9152 44.2608 21.7498 42.4953 21.6836C42.6603 21.1707 42.8253 21.1624 43.1883 20.7653C43.4935 20.4344 43.6008 20.1697 44.1618 20.1449C44.4505 19.9133 44.5578 19.8967 45.3167 19.9795C45.6715 20.0208 46.0427 20.087 46.4057 20.1284C47.1812 20.2194 47.8577 20.2276 48.6579 20.2111C49.9366 20.1697 50.2666 20.0622 51.207 19.4748C52.56 18.6393 53.6572 17.7045 54.7049 16.505C55.8021 15.2642 56.7591 13.6097 57.4768 12.1124C57.8563 11.3099 58.2193 10.1187 58.5905 9.42383C58.6978 8.87785 58.871 8.42286 59.0278 7.86861C59.6053 5.85014 60.4302 3.10369 60.7355 1.15967C59.5475 1.25894 59.2835 1.34993 58.2606 1.69738C56.9736 2.13582 55.8351 2.46671 54.5482 2.97133Z" fill="black"/>
<path fill-rule="evenodd" clip-rule="evenodd" d="M31.4897 31.8918C32.4714 31.7016 33.1066 32.1317 33.4696 32.6446C32.5291 32.9921 31.8939 32.5288 31.4897 31.8918ZM45.4895 30.3449C45.9762 29.8651 50.6373 29.286 51.6767 29.2612C52.7575 29.2364 53.8629 29.4763 54.7951 29.8072C55.5046 30.0554 56.7173 30.3366 56.8493 30.9488C56.8988 31.197 56.8741 31.0646 56.8163 31.197C56.4533 31.2797 55.0179 30.6096 54.4239 30.4359C50.6043 29.3274 48.2119 31.2631 45.4895 30.3449ZM36.5633 30.5269C35.1361 30.0223 34.7566 30.1464 34.7401 29.5507C35.235 29.377 38.3534 30.2208 38.8484 30.5765L38.7247 31.2631C37.9905 31.0729 37.3057 30.7916 36.5633 30.5269ZM58.6973 29.013C57.8888 29.4267 55.9418 28.4091 55.5624 28.0865C56.7421 28.0038 58.029 28.3264 58.6973 29.013ZM49.6473 27.3585C49.1276 27.888 48.7811 27.7391 48.0304 27.5571C47.2219 27.3585 47.0074 27.2924 46.6114 26.6554C48.0221 26.6554 48.6738 26.7216 49.6473 27.3585ZM31.4814 29.8237C31.1349 30.5682 30.64 30.2704 29.782 30.0388L20.831 27.9293C19.6843 27.6729 18.1251 27.5571 17.6879 26.7877C18.5129 26.7629 23.4627 27.8549 24.7167 28.0948C25.9211 28.3181 27.1091 28.5415 28.297 28.831C28.825 28.9551 31.1184 29.4101 31.4814 29.8237ZM15.8482 26.9863C15.0892 27.6977 13.86 27.1435 13.4228 26.6057C14.355 26.4899 15.1717 26.4568 15.8482 26.9863ZM45.7452 28.9138C45.4647 29.8568 44.9202 29.8155 43.7653 29.7575C35.2515 29.2943 33.1974 25.8612 35.5568 25.5386C36.093 25.4642 39.2609 26.0267 39.6816 26.978C38.2214 27.0856 37.2645 26.2666 35.8043 26.432C36.8107 28.74 42.8413 28.8972 45.7452 28.9138ZM20.1628 25.2491C20.93 24.7279 22.2995 25.398 23.141 25.6131C24.3372 25.9109 25.7644 25.8447 26.2346 26.1839C24.1392 27.0111 21.887 26.1177 20.1628 25.2491ZM59.514 26.7133C58.7798 26.9863 56.1728 26.1011 55.2324 25.853C54.5476 25.6627 53.8382 25.4476 53.1617 25.2325C52.6007 25.0505 51.5282 24.9182 51.3055 24.3887C52.4935 24.3639 56.2966 25.4228 57.8228 25.8199C58.7963 26.0763 59.1675 25.9274 59.514 26.7133ZM47.1641 24.3143C48.0634 24.4384 49.1936 24.1737 49.7216 25.1084C48.7976 25.1663 47.3621 25.216 47.1641 24.3143ZM17.2507 21.7416C17.6961 21.3362 18.1746 21.4934 18.8511 21.5347C18.3561 22.1386 17.9106 22.2462 17.2507 21.7416ZM16.6237 30.6427C17.4981 30.8909 19.5028 31.7429 20.2783 31.3045L19.5111 30.9819C20.0803 30.8909 24.4609 30.9488 24.7827 31.6023C25.1456 31.9167 25.1621 31.7512 26.0779 31.8836C26.5646 31.958 26.7213 32.0656 27.1173 31.9828C27.1503 31.9746 27.2411 31.9332 27.2823 31.9167C28.7425 32.4626 29.914 32.4709 31.2422 33.2981C33.1644 34.4977 35.2763 36.9546 36.357 38.973C37.0417 40.2635 36.918 40.2387 37.776 41.6119L38.139 42.1827C38.2709 42.3482 38.2462 42.3068 38.3452 42.3978L40.2674 40.6772C39.8549 37.9224 38.0152 35.9453 36.3158 34.2908C36.0105 33.993 35.895 33.8359 35.7713 33.2733C37.6522 34.0923 39.2774 36.1191 40.1931 37.8314C40.5644 38.5181 40.7871 39.3536 41.1748 40.0154L42.7753 39.1302C42.5031 37.1945 41.3976 35.449 40.9274 33.8441C43.1053 35.6641 42.7175 37.5915 43.8725 38.9069L45.4235 38.7662L43.6498 33.9599C43.328 33.1327 43.2538 32.9011 43.8725 32.4544L44.8707 34.3653C47.0404 34.8865 51.6355 34.9195 55.6779 35.9371L55.3726 36.301C55.7769 36.5409 56.6843 36.5575 57.2618 36.5823L59.382 36.5575L59.7037 35.1594C58.9282 35.0188 56.7091 34.1254 56.0243 33.7945C57.3856 33.7366 58.5653 34.2081 60.0255 34.1254C59.5222 33.4967 58.5735 33.0169 58.2188 32.5536C58.4828 32.2806 58.7385 32.1317 59.0107 31.7098L58.623 30.6758L61.2712 30.7916C60.8834 30.2208 59.2087 29.104 59.3325 28.467C59.7037 27.8383 60.1657 27.706 60.8917 27.3006C62.0136 26.6554 63.0036 25.853 64.0926 25.1084C64.4226 24.8934 64.5463 24.8024 64.9175 24.5873C65.891 24.0248 65.5858 24.1737 65.7095 23.8097L52.7905 23.0321C52.7657 23.0569 52.7162 23.0734 52.6915 23.09C52.6667 23.0982 52.6255 23.1231 52.5925 23.1396C52.0315 23.3712 51.223 23.396 49.8783 23.6608C49.3586 23.76 47.5189 23.9834 47.1641 24.3143C46.4877 24.2977 46.2072 24.4797 45.5802 24.6286C45.1595 24.7279 44.2437 24.6617 44.0045 24.7858C44.186 25.0009 44.186 24.9513 44.3922 25.1084C44.8212 25.4559 44.5325 25.0753 44.7717 25.4972C43.8478 26.3245 43.4105 24.7196 39.2939 24.4384C34.3193 24.0992 27.5381 26.0846 23.0502 24.3556C22.5882 24.1737 21.029 23.5449 20.6578 23.1975C20.93 22.9907 20.831 23.0155 21.2435 22.9576C20.831 22.3951 18.7109 20.5338 18.0509 20.418C16.9702 20.5007 16.3432 21.6506 16.0297 22.6184C16.5577 22.9824 18.3809 23.8345 18.6944 24.2812C18.2654 25.1167 17.8116 24.5955 16.8299 24.7279L17.1517 25.7868C13.596 26.2335 13.134 23.9172 11.9131 29.3108L15.774 29.8816C16.4587 30.0057 16.5907 29.9974 16.6237 30.6427Z" fill="#A57E70"/>
<path fill-rule="evenodd" clip-rule="evenodd" d="M66.6007 37.3433L67.1617 35.755C67.7309 36.5905 67.4587 37.0621 66.6007 37.3433ZM64.4475 43.3905C62.3273 43.7627 62.4428 42.4971 62.0633 39.9326C61.7168 37.5584 62.1046 36.6815 62.4016 34.4563C62.5913 34.5472 62.9213 34.812 63.0121 35.1098C63.144 35.5813 62.2613 38.4518 63.1605 41.8187C63.5483 43.2581 64.068 42.8114 64.4475 43.3905ZM69.4551 30.8577C70.5193 30.8495 70.4616 31.2714 70.577 32.3799C70.742 34.0757 70.4121 35.5565 69.8758 37.12C69.5458 38.0961 69.5293 38.4022 68.3826 38.3774C69.6201 34.7127 69.9996 35.9949 69.4551 30.8577ZM65.652 41.2396C62.9543 39.1054 64.563 30.1298 66.9389 29.8568C67.8629 29.7492 67.9619 30.4855 68.0444 31.2714C68.1681 32.5701 68.3496 32.537 67.6979 33.4222L67.2277 30.8495C65.0745 31.3541 64.8022 36.9628 65.256 38.7662C65.5117 39.7672 66.2377 40.5365 65.652 41.2396ZM63.8783 30.32C64.4558 28.7069 65.1735 27.5653 66.1799 26.796C67.3102 25.9356 68.2424 26.159 69.5541 26.6305C70.511 26.9697 70.3708 26.9449 70.4121 27.251C69.4963 28.2685 67.9371 26.159 66.4109 27.6977C65.5365 28.5911 64.827 30.2208 63.8783 30.32ZM60.4381 28.6076C60.8176 29.8733 62.3603 29.9809 62.9543 31.1473C62.4098 31.7843 62.2283 31.4947 61.2466 31.6023C60.8589 32.1482 61.4529 31.9828 60.8836 32.4295C60.6196 32.6363 60.3061 32.537 59.9102 32.7935C60.1164 33.0417 60.4381 33.3643 60.7351 33.6042C60.6856 36.4334 59.5142 37.3433 60.1989 40.5944C60.6361 42.646 61.0816 45.4338 63.5153 45.0615C65.6355 44.7472 70.7255 39.8251 71.8228 37.5832C73.5634 34.0426 73.3242 31.5774 72.326 27.8962C71.9465 26.4982 71.798 26.0184 70.9483 25.2242C69.2406 23.6194 67.0132 24.306 65.1405 25.34L60.4381 28.6076Z" fill="#DDB496"/>
<path fill-rule="evenodd" clip-rule="evenodd" d="M55.1087 39.8995C56.2141 39.8168 58.2931 39.6927 59.0768 40.3876C58.5736 41.008 57.8146 40.7846 56.9566 40.6109C56.3049 40.4703 55.4634 40.2883 55.1087 39.8995ZM50.3898 39.9574C49.5236 40.0567 48.9296 39.9078 48.5007 39.3039C48.6739 39.1219 49.3421 39.0805 49.6886 39.2542C49.9361 39.3783 50.2496 39.734 50.3898 39.9574ZM57.2619 36.5822C56.6844 36.5574 55.7769 36.5409 55.3727 36.301C54.2425 36.5409 51.7593 35.9535 50.4641 35.7798C48.6986 35.5565 46.9332 35.5068 45.1348 35.3248L45.7865 36.9297C48.0222 36.7311 49.2926 36.7477 51.0168 37.79C51.5778 38.1375 54.2507 40.1725 54.4817 40.5944C53.2937 40.9997 52.2213 39.6927 51.0168 38.7331C49.8371 37.7983 48.2614 37.5253 46.4712 37.7238C46.3557 38.4684 47.8654 40.4372 48.3687 40.7102C49.0699 41.0907 51.3221 41.5788 52.246 41.8187C54.7787 42.4722 57.5176 43.3574 60.0255 43.8703C59.8935 42.8776 59.1758 37.8976 58.8293 37.3681C57.9466 37.0951 57.5671 37.4012 57.2619 36.5822Z" fill="#776671"/>
<path fill-rule="evenodd" clip-rule="evenodd" d="M26.6645 23.4207C26.12 23.371 25.8147 23.2387 25.5343 22.8664C26.5077 22.7341 27.1017 22.7671 27.9679 23.0484C27.6462 23.3628 27.2254 23.4703 26.6645 23.4207ZM21.2444 22.9574C22.7706 23.2966 23.4718 24.0328 26.3922 24.2314C28.5124 24.3803 30.4263 24.19 32.5135 23.9501C34.5595 23.7102 36.5394 23.5778 38.6183 23.644C42.4627 23.7681 41.2335 23.8839 44.0054 24.7856C44.2446 24.6615 45.1603 24.7277 45.5811 24.6284C46.2081 24.4795 46.4885 24.2975 47.165 24.3141C47.5198 23.9832 49.3595 23.7598 49.8792 23.6606C51.2239 23.3958 52.0324 23.371 52.5933 23.1394C52.6263 23.1229 52.6676 23.098 52.6923 23.0898C52.7171 23.0732 52.7666 23.0567 52.7913 23.0319C49.9534 22.7258 46.7525 22.8002 43.8404 22.5851C40.8952 22.3783 37.9583 22.0723 34.9802 21.9895C29.9066 21.8489 26.516 21.1788 21.9374 20.8314C20.9392 20.7569 18.786 19.7891 18.0518 20.4178C18.7117 20.5336 20.8319 22.3949 21.2444 22.9574Z" fill="#776671"/>
<path fill-rule="evenodd" clip-rule="evenodd" d="M27.2822 31.9168C27.241 31.9333 27.1502 31.9747 27.1172 31.9829C26.7212 32.0657 26.5645 31.9581 26.0777 31.8837C25.162 31.7513 25.1455 31.9168 24.7825 31.6024C24.4855 31.9664 24.5268 32.1236 23.8586 32.0657C23.4873 32.0408 22.9593 31.8919 22.5964 31.8175C21.7961 31.6603 21.0619 31.4949 20.2782 31.3046C19.5027 31.743 17.498 30.891 16.6236 30.6428L11.8635 30.1382C11.7067 30.6263 11.6325 30.618 11.8057 31.1805C12.6802 31.4866 22.7366 32.835 24.8898 34.1338C22.6954 34.3985 20.5669 33.5878 18.455 33.1493C16.3431 32.7192 14.1734 32.2311 12.0862 31.8919C12.144 33.6871 15.2871 33.7946 16.9453 34.1338C20.8557 34.9279 25.327 35.5897 28.9734 36.3839C31.3411 36.8968 33.6262 38.2038 34.5255 37.906C33.2962 36.1522 33.552 36.417 32.034 36.1605C31.3246 36.0447 29.3034 35.3829 29.0559 34.8204C29.6251 34.6301 31.2256 35.1513 31.9763 35.2175C31.4071 34.5639 30.6563 33.9518 29.7654 33.4306C28.6187 32.7605 27.5957 32.7854 27.2822 31.9168Z" fill="#776671"/>
<path fill-rule="evenodd" clip-rule="evenodd" d="M42.8009 42.6624C42.9989 43.1505 42.8422 43.9364 42.3142 43.6717C41.9842 43.5062 41.8935 42.6542 42.8009 42.6624ZM44.6571 40.7846C45.2594 41.2479 45.2429 41.6201 44.8469 42.4225C44.5004 43.134 44.3931 43.225 43.5104 43.0595L44.6571 40.7846ZM43.0402 44.3914C44.3271 44.3004 44.0631 44.3583 44.6489 43.7048C45.4821 42.7617 47.0248 42.5632 47.0908 41.5622C47.132 40.9418 46.5711 40.3131 46.2741 40.1063C45.2016 39.3948 43.4444 39.8167 42.5534 40.3958C42.7349 40.9087 42.8092 40.826 42.9907 41.3389C41.4562 41.9096 41.6047 43.2415 40.5983 43.498C40.4828 42.1247 40.9118 42.0751 41.2995 41.1486C37.3396 43.8371 40.2683 44.5734 43.0402 44.3914Z" fill="#DDB496"/>
<path fill-rule="evenodd" clip-rule="evenodd" d="M45.168 19.0114C50.3653 21.3938 54.3417 15.8844 54.3252 15.4459C53.4342 15.1564 48.1131 17.2824 47.0984 17.663C46.2487 17.9856 45.465 18.1593 45.168 19.0114Z" fill="#47B960"/>
<path fill-rule="evenodd" clip-rule="evenodd" d="M52.0156 11.128C53.4593 10.8632 55.0268 10.6978 56.4292 10.3917C57.9142 10.0691 57.8894 9.51483 58.4917 7.19855C57.6832 7.37227 57.2624 7.58735 56.3962 7.6618C54.87 7.81071 54.0946 8.24087 53.1293 9.5231C52.6839 10.1187 52.3044 10.2924 52.0156 11.128Z" fill="#47B960"/>
<path fill-rule="evenodd" clip-rule="evenodd" d="M49.4082 14.164C50.8437 13.9324 52.3369 13.5601 53.7971 13.2872C55.81 12.8984 56.6102 13.2541 56.9897 11.0205C54.1023 11.3514 50.2249 11.8312 49.4082 14.164Z" fill="#187D49"/>
<path fill-rule="evenodd" clip-rule="evenodd" d="M46.596 15.9262C46.9672 15.736 47.421 15.2148 47.6355 14.8177C48.2872 13.5934 48.0315 8.66302 47.883 8.21631C47.4705 8.45621 46.1505 10.7808 46.0928 11.3185C46.002 12.2615 46.5135 14.7681 46.596 15.9262Z" fill="#187D49"/>
<path fill-rule="evenodd" clip-rule="evenodd" d="M51.0089 10.5158C51.5204 10.4662 51.2151 10.6233 51.6029 10.1518C51.7844 9.945 51.8586 9.82919 52.0318 9.63065C52.7661 8.76204 52.8321 5.8336 52.6836 4.75818C52.5021 4.74164 50.4891 5.19662 50.5139 6.69393C50.5304 7.52118 50.6871 9.89536 51.0089 10.5158Z" fill="#39DE5D"/>
<path fill-rule="evenodd" clip-rule="evenodd" d="M48.856 13.0306C49.7799 12.6749 50.3987 11.6491 50.2172 10.2345C50.0604 9.0598 49.9862 7.62867 49.6809 6.56152C48.4765 7.19023 48.8395 7.37222 48.6745 9.56442C48.592 10.5985 48.3032 12.1951 48.856 13.0306Z" fill="#47B960"/>
<path fill-rule="evenodd" clip-rule="evenodd" d="M47.6592 16.2898C48.7151 16.1906 50.5466 15.4957 51.685 15.2227C52.8895 14.9249 55.2737 14.6602 55.4139 13.9405C54.4982 13.5103 52.048 14.1638 51.0416 14.4451C49.9114 14.7594 47.7994 15.2227 47.6592 16.2898Z" fill="#39DE5D"/>
<path fill-rule="evenodd" clip-rule="evenodd" d="M55.101 6.04867C55.8022 5.89149 56.8417 4.66717 57.4027 4.07983L58.6979 2.47498C55.7692 3.07886 54.7215 3.40149 55.101 6.04867Z" fill="#39DE5D"/>
<path fill-rule="evenodd" clip-rule="evenodd" d="M44.4086 18.3496C46.0008 17.3404 46.1988 15.4046 45.4646 12.9395C44.4664 14.0645 44.3261 16.6207 44.4086 18.3496Z" fill="#39DE5D"/>
<path fill-rule="evenodd" clip-rule="evenodd" d="M55.6953 7.19037C56.1655 7.12419 58.228 6.51203 58.5085 6.26386C58.756 6.0405 59.4159 3.86485 59.2014 3.46777L56.0253 6.47067C55.6788 6.87602 55.7778 6.61957 55.6953 7.19037Z" fill="#187D49"/>
<path fill-rule="evenodd" clip-rule="evenodd" d="M53.3105 7.99249C54.647 7.1487 54.1933 5.6183 54.4573 3.94727C53.3518 4.18717 53.5745 4.26162 53.4095 5.50248C53.294 6.35454 53.3188 7.13215 53.3105 7.99249Z" fill="#187D49"/>
<path fill-rule="evenodd" clip-rule="evenodd" d="M31.4907 31.8918C31.895 32.5287 32.5302 32.992 33.4707 32.6446C33.1077 32.1317 32.4724 31.7015 31.4907 31.8918ZM42.8011 42.6625C41.8936 42.6542 41.9844 43.5063 42.3144 43.6717C42.8423 43.9364 42.9991 43.1505 42.8011 42.6625ZM66.6015 37.3433C67.4595 37.062 67.7317 36.5905 67.1625 35.755L66.6015 37.3433ZM63.8791 30.32C64.8278 30.2207 65.5373 28.5911 66.4118 27.6976C67.938 26.159 69.4972 28.2684 70.4129 27.2509C70.3717 26.9448 70.5119 26.9697 69.5549 26.6305C68.2432 26.159 67.311 25.9356 66.1808 26.7959C65.1743 27.5653 64.4566 28.7069 63.8791 30.32ZM70.5779 32.3798C70.4624 31.2713 70.5201 30.8494 69.4559 30.8577C70.0004 35.9949 69.6209 34.7127 68.3835 38.3774C69.5302 38.4022 69.5467 38.0961 69.8767 37.1199C70.4129 35.5565 70.7429 34.0757 70.5779 32.3798ZM64.4484 43.3904C64.0689 42.8114 63.5491 43.2581 63.1614 41.8187C62.2622 38.4518 63.1449 35.5813 63.0129 35.1097C62.9222 34.8119 62.5922 34.5472 62.4024 34.4562C62.1054 36.6815 61.7177 37.5584 62.0642 39.9326C62.4437 42.497 62.3282 43.7627 64.4484 43.3904ZM65.6528 41.2396C66.2385 40.5365 65.5126 39.7671 65.2568 38.7662C64.8031 36.9628 65.0753 31.3541 67.2285 30.8494L67.6987 33.4222C68.3505 32.537 68.169 32.5701 68.0452 31.2713C67.9627 30.4854 67.8637 29.7492 66.9398 29.8567C64.5639 30.1297 62.9552 39.1053 65.6528 41.2396ZM59.515 26.7132C59.1685 25.9273 58.7973 26.0762 57.8238 25.8198C56.2976 25.4227 52.4945 24.3638 51.3065 24.3887C51.5293 24.9181 52.6018 25.0505 53.1627 25.2325C53.8392 25.4475 54.5487 25.6626 55.2334 25.8529C56.1739 26.1011 58.7808 26.9862 59.515 26.7132ZM58.6983 29.013C58.0301 28.3263 56.7431 28.0037 55.5634 28.0864C55.9429 28.4091 57.8898 29.4266 58.6983 29.013ZM45.4905 30.3448C48.2129 31.2631 50.6053 29.3273 54.4249 30.4358C55.0189 30.6095 56.4544 31.2796 56.8174 31.1969C56.8751 31.0645 56.8999 31.1969 56.8504 30.9487C56.7184 30.3365 55.5057 30.0553 54.7962 29.8071C53.864 29.4762 52.7585 29.2363 51.6778 29.2611C50.6383 29.2859 45.9772 29.865 45.4905 30.3448ZM49.6484 27.3585C48.6749 26.7215 48.0232 26.6553 46.6125 26.6553C47.0084 27.2923 47.2229 27.3585 48.0314 27.557C48.7821 27.739 49.1286 27.8879 49.6484 27.3585ZM47.1652 24.3142C47.3632 25.2159 48.7986 25.1663 49.7226 25.1084C49.1946 24.1736 48.0644 24.4383 47.1652 24.3142ZM48.5016 39.3039C48.9306 39.9078 49.5246 40.0567 50.3908 39.9574C50.2506 39.734 49.9371 39.3783 49.6896 39.2542C49.3431 39.0805 48.6749 39.1219 48.5016 39.3039ZM55.1097 39.8995C55.4644 40.2883 56.3059 40.4703 56.9576 40.6109C57.8156 40.7846 58.5746 41.008 59.0778 40.3876C58.2941 39.6927 56.2151 39.8168 55.1097 39.8995ZM43.5106 43.0596C44.3933 43.225 44.5005 43.134 44.847 42.4226C45.243 41.6201 45.2595 41.2479 44.6573 40.7846L43.5106 43.0596ZM45.7462 28.9137C42.8423 28.8971 36.8118 28.74 35.8053 26.432C37.2655 26.2665 38.2225 27.0855 39.6827 26.9779C39.262 26.0266 36.0941 25.4641 35.5578 25.5385C33.1984 25.8612 35.2526 29.2942 43.7663 29.7575C44.9213 29.8154 45.4657 29.8567 45.7462 28.9137ZM34.7411 29.5507C34.7576 30.1463 35.1371 30.0222 36.5643 30.5268C37.3068 30.7915 37.9915 31.0728 38.7257 31.2631L38.8495 30.5764C38.3545 30.2207 35.2361 29.3769 34.7411 29.5507ZM44.0055 24.7857C41.2336 23.884 42.4628 23.7682 38.6185 23.6441C36.5395 23.578 34.5596 23.7103 32.5137 23.9502C30.4265 24.1901 28.5126 24.3804 26.3924 24.2315C23.472 24.033 22.7708 23.2967 21.2446 22.9575C20.8321 23.0154 20.9311 22.9906 20.6588 23.1974C21.0301 23.5449 22.5893 24.1736 23.0513 24.3556C27.5391 26.0845 34.3204 24.0991 39.295 24.4383C43.4116 24.7196 43.8488 26.3244 44.7728 25.4972C44.5335 25.0753 44.8223 25.4558 44.3933 25.1084C44.187 24.9512 44.187 25.0008 44.0055 24.7857ZM25.5344 22.8665C25.8149 23.2388 26.1201 23.3712 26.6646 23.4208C27.2256 23.4704 27.6463 23.3629 27.9681 23.0485C27.1019 22.7673 26.5079 22.7342 25.5344 22.8665ZM17.2517 21.7415C17.9117 22.2461 18.3572 22.1386 18.8521 21.5347C18.1757 21.4933 17.6972 21.3361 17.2517 21.7415ZM15.8492 26.9862C15.1728 26.4568 14.356 26.4899 13.4238 26.6057C13.8611 27.1434 15.0903 27.6976 15.8492 26.9862ZM31.4825 29.8237C31.1195 29.41 28.8261 28.955 28.2981 28.831C27.1101 28.5414 25.9222 28.3181 24.7177 28.0947C23.4637 27.8548 18.5139 26.7629 17.6889 26.7877C18.1262 27.557 19.6854 27.6728 20.8321 27.9293L29.783 30.0387C30.641 30.2704 31.136 30.5682 31.4825 29.8237ZM20.1639 25.249C21.888 26.1176 24.1402 27.011 26.2356 26.1838C25.7654 25.8446 24.3382 25.9108 23.142 25.613C22.3005 25.3979 20.9311 24.7278 20.1639 25.249ZM20.2793 31.3044C21.0631 31.4947 21.7973 31.6601 22.5975 31.8173C22.9605 31.8918 23.4885 32.0407 23.8597 32.0655C24.528 32.1234 24.4867 31.9662 24.7837 31.6022C24.462 30.9487 20.0814 30.8908 19.5121 30.9818L20.2793 31.3044Z" fill="black"/>
<path fill-rule="evenodd" clip-rule="evenodd" d="M10.8159 4.49364C11.2696 5.44497 11.8966 6.65275 12.5484 7.45517C13.0268 8.03424 13.5796 8.6464 14.0993 9.06003C15.4523 10.1189 16.368 10.334 18.2572 10.9544L20.3196 11.4508L22.3655 11.5748C23.3967 11.5169 23.9 11.6907 24.2712 11.9554L24.5517 11.4011C24.461 11.3019 24.395 11.186 24.362 10.9792C24.1722 10.7807 24.1557 10.698 24.1557 10.1272C24.164 9.85418 24.1805 9.57292 24.1887 9.29993C24.197 8.70431 24.1557 8.20796 24.0732 7.60408C23.9577 6.65275 23.8422 6.41285 23.339 5.75932C22.6213 4.80799 21.8375 4.0552 20.8723 3.36032C19.8576 2.63234 18.5624 2.045 17.3992 1.62311C16.7722 1.39148 15.8565 1.21776 15.312 0.986129C14.8995 0.944767 14.5448 0.85377 14.1158 0.779318C12.5731 0.498055 10.4694 0.0844333 9.00098 0.00170898C9.16597 0.878587 9.24847 1.07713 9.58671 1.81337C10.0074 2.73988 10.3457 3.56713 10.8159 4.49364Z" fill="black"/>
<path fill-rule="evenodd" clip-rule="evenodd" d="M23.4467 10.3092C24.8327 6.23919 20.4356 3.68301 20.1056 3.72437C19.9571 4.41926 21.937 8.23285 22.3 8.96082C22.6053 9.58125 22.7868 10.1521 23.4467 10.3092Z" fill="#47B960"/>
<path fill-rule="evenodd" clip-rule="evenodd" d="M17.0692 5.77567C16.764 4.7168 16.5248 3.55866 16.1948 2.53287C15.84 1.44091 15.4275 1.50709 13.6621 1.22583C13.8519 1.82145 14.0416 2.11925 14.1653 2.75623C14.3881 3.88955 14.7676 4.44381 15.7905 5.06424C16.269 5.35377 16.4258 5.61849 17.0692 5.77567Z" fill="#47B960"/>
<path fill-rule="evenodd" clip-rule="evenodd" d="M19.5279 7.49654C19.2392 6.44594 18.8597 5.35398 18.5462 4.28684C18.109 2.80607 18.307 2.17737 16.624 2.06982C17.0778 4.19584 17.7295 7.06637 19.5279 7.49654Z" fill="#187D49"/>
<path fill-rule="evenodd" clip-rule="evenodd" d="M21.0454 9.47365C20.8804 9.20893 20.4597 8.91113 20.138 8.77877C19.181 8.38169 15.5346 8.94421 15.2129 9.08485C15.4274 9.37438 17.2506 10.1934 17.6548 10.1934C18.3643 10.1851 20.1957 9.62255 21.0454 9.47365Z" fill="#187D49"/>
<path fill-rule="evenodd" clip-rule="evenodd" d="M16.69 6.57025C16.6157 6.19799 16.756 6.41307 16.3765 6.15663C16.2032 6.04081 16.1125 5.99118 15.9557 5.87537C15.2545 5.39556 13.0683 5.56101 12.2764 5.75955C12.2846 5.89191 12.7714 7.3644 13.8851 7.23204C14.4955 7.15759 16.2527 6.85978 16.69 6.57025Z" fill="#39DE5D"/>
<path fill-rule="evenodd" clip-rule="evenodd" d="M18.7281 7.99288C18.3899 7.33108 17.5814 6.94228 16.5419 7.19045C15.684 7.39726 14.6198 7.55444 13.8525 7.86052C14.4053 8.72085 14.5125 8.43132 16.1542 8.39823C16.9379 8.37341 18.1424 8.47268 18.7281 7.99288Z" fill="#47B960"/>
<path fill-rule="evenodd" clip-rule="evenodd" d="M21.2356 8.6465C21.0871 7.86061 20.4354 6.5453 20.1384 5.71805C19.8249 4.84118 19.4537 3.07087 18.9092 3.02124C18.6535 3.74094 19.33 5.52779 19.6104 6.25576C19.9322 7.083 20.4354 8.62168 21.2356 8.6465Z" fill="#39DE5D"/>
<path fill-rule="evenodd" clip-rule="evenodd" d="M13.0605 3.84841C12.8955 3.33552 11.9055 2.64891 11.427 2.27665L10.1318 1.43286C10.8001 3.56715 11.1218 4.32821 13.0605 3.84841Z" fill="#39DE5D"/>
<path fill-rule="evenodd" clip-rule="evenodd" d="M23.0083 10.9213C22.1421 9.81277 20.6901 9.8045 18.9082 10.5407C19.8239 11.2025 21.7296 11.1198 23.0083 10.9213Z" fill="#39DE5D"/>
<path fill-rule="evenodd" clip-rule="evenodd" d="M13.8679 3.31897C13.7772 2.97153 13.1667 1.47422 12.9687 1.28396C12.7872 1.11851 11.1125 0.787609 10.832 0.977875L13.3069 3.12871C13.6369 3.36034 13.4307 3.30243 13.8679 3.31897Z" fill="#187D49"/>
<path fill-rule="evenodd" clip-rule="evenodd" d="M14.6439 5.04788C13.9097 4.10482 12.8042 4.5598 11.542 4.48535C11.806 5.29605 11.8472 5.1306 12.7795 5.15542C13.4229 5.18024 14.0004 5.10578 14.6439 5.04788Z" fill="#187D49"/>
<path fill-rule="evenodd" clip-rule="evenodd" d="M21.7139 36.2515L22.5306 35.3167L24.692 35.7056L37.5038 22.0891L33.7337 21.9154L21.8624 34.961L21.7139 36.2515Z" fill="black" fill-opacity="0.701961"/>
<path fill-rule="evenodd" clip-rule="evenodd" d="M30.2356 27.2594L30.7059 26.7217L32.2403 25.001L33.8902 23.1232L39.9538 16.4142C40.3333 15.9675 41.447 14.6191 41.9832 14.3378C42.1565 14.2468 42.1317 14.2717 42.2555 14.2468L43.1629 13.4361C44.0374 12.4021 44.3096 11.8065 44.1282 10.7145C44.0044 9.96999 43.8642 9.01866 43.1959 8.34859C42.8659 8.53886 42.4287 8.59676 42.0162 8.53058L42.7917 7.38899L42.0162 7.00018L42.6762 5.66005C42.6597 5.39533 42.6515 5.14716 42.6349 4.91553C42.3132 4.15447 41.8182 3.5754 41.3232 2.90533C40.3003 1.73064 39.1948 0.233332 37.4624 0.373963C36.8684 0.423598 36.9096 0.514595 36.4807 0.696588C36.1424 0.83722 36.8601 0.564229 36.3074 0.762768C36.2579 0.779313 36.1754 0.80413 36.1259 0.812402L34.5667 2.32626L27.3235 8.98557L25.459 10.6235C24.3041 11.55 21.2352 13.9821 19.7172 13.858C19.214 13.8167 18.7933 13.8167 18.2653 13.7588C17.5145 13.7091 17.0031 13.5685 16.1616 13.4196C15.3944 13.279 14.8004 13.3369 14.1322 13.9904L12.5895 15.8186C11.913 16.6376 11.7315 16.9602 11.352 17.8784C11.1375 19.2268 11.2448 19.3757 11.5335 20.5752C11.6325 21.0054 11.7975 21.4852 11.4922 21.9485C11.22 22.3621 10.7085 22.8254 10.3455 23.0404C9.8753 23.4292 8.71209 24.4881 8.25836 24.728C7.64788 24.9927 5.53595 27.0112 4.33974 27.6565C3.952 27.9377 3.61376 28.128 3.21778 28.3596C2.98678 28.492 2.88779 28.5499 2.66505 28.6905C1.92257 29.162 1.57608 29.3688 0.866606 29.9727C-0.585346 31.7348 0.13238 36.4914 0.544866 38.5761C0.924354 40.4622 1.38634 40.8675 2.13706 42.5137C4.15824 45.0534 4.87597 45.5828 7.80462 47.0305L10.1805 47.775L11.1788 47.9984L11.3685 47.9653C13.2659 47.7006 15.4686 44.7142 16.6978 43.1259C18.5953 40.7104 20.7072 38.1624 22.7696 35.871L24.4031 33.9766L25.9705 32.1649C26.7377 31.2632 27.538 30.3781 28.3134 29.4764C28.5692 29.1786 28.8167 28.8808 29.0642 28.583L29.0807 28.5995L30.2356 27.2594Z" fill="black"/>
<path fill-rule="evenodd" clip-rule="evenodd" d="M27.8182 15.2893C27.4222 16.0834 26.7787 16.3068 26.2095 16.282C26.4817 15.4299 27.1417 15.2314 27.8182 15.2893ZM21.3587 26.0352C21.4329 26.6308 19.3292 30.2458 18.7847 30.9986C18.2155 31.7762 17.4565 32.4215 16.7141 32.9096C16.1613 33.2736 15.3034 33.985 14.8084 33.7451C14.6021 33.6458 14.7094 33.7037 14.6516 33.5879C14.7836 33.2818 16.0293 32.6283 16.4666 32.3057C19.3127 30.2045 19.2385 27.458 21.3587 26.0352ZM26.0445 19.6158C27.1665 18.8795 27.282 18.5403 27.7109 18.8464C27.5624 19.2931 25.2938 21.0469 24.774 21.2123L24.3533 20.7408C24.8813 20.3272 25.4505 19.9963 26.0445 19.6158ZM15.1714 36.1027C15.3199 35.3003 17.077 34.4731 17.5143 34.3821C16.9368 35.2589 16.0211 35.9952 15.1714 36.1027ZM21.2184 30.585C21.1277 29.9315 21.4164 29.766 21.9526 29.3276C22.5219 28.8726 22.6869 28.7485 23.3468 28.8147C22.5879 29.8157 22.1836 30.2376 21.2184 30.585ZM29.2784 16.3978C28.9401 15.7525 29.4186 15.5623 30.0374 15.0825L36.3484 9.87084C37.1486 9.20077 38.0726 8.15845 38.8481 8.26599C38.4273 8.8616 34.9872 11.7818 34.1375 12.5428C33.329 13.2708 32.537 13.9905 31.6956 14.6771C31.3161 14.9832 29.7651 16.3647 29.2784 16.3978ZM39.706 6.85967C39.6153 5.94143 40.663 5.37064 41.2735 5.34582C40.8527 6.06552 40.4403 6.66941 39.706 6.85967ZM22.2249 26.9865C21.7134 26.2751 22.0351 25.9111 22.7034 25.1252C27.6119 19.351 31.1428 19.7481 30.0951 21.5929C29.8559 22.0065 27.7522 23.9505 26.853 23.7354C27.5707 22.6435 28.6597 22.4118 29.3361 21.2868C27.1665 20.7491 23.8006 24.9349 22.2249 26.9865ZM38.6006 10.847C38.5511 11.6742 37.3384 12.2864 36.7361 12.7662C35.8782 13.4528 35.1604 14.4951 34.6655 14.644C35.2099 12.7166 37.0579 11.5998 38.6006 10.847ZM16.3511 37.9144C16.5573 37.2526 18.5785 35.8794 19.2632 35.3499C19.7665 34.9694 20.3027 34.5806 20.8224 34.2166C21.2514 33.9271 21.9279 33.2322 22.4146 33.3563C21.7876 34.2166 18.991 36.3344 17.8938 37.203C17.1843 37.7572 17.0853 38.0964 16.3511 37.9144ZM24.6998 30.4692C24.1223 31.04 23.7016 31.9748 22.7611 31.8507C23.2148 31.1641 23.9573 30.1218 24.6998 30.4692ZM42.6429 10.6815C42.6842 11.211 42.313 11.4674 41.917 11.9224C41.7685 11.2523 41.9252 10.8718 42.6429 10.6815ZM36.7114 5.43681C36.0597 5.92489 34.385 6.88449 34.2777 7.6621L34.9129 7.29811C34.6737 7.7531 32.2648 10.8139 31.6296 10.6898C31.2171 10.7808 31.3243 10.8883 30.7386 11.4591C30.4251 11.7652 30.2601 11.8149 30.1116 12.1458C30.0951 12.1706 30.0704 12.2533 30.0621 12.2947C28.8907 13.0392 28.2554 13.8582 26.952 14.3545C25.0793 15.0742 22.2001 15.2396 20.2037 14.9088C18.925 14.7019 19.0157 14.6275 17.5885 14.4951L16.9781 14.4455C16.7966 14.4538 16.8378 14.4538 16.7141 14.4786L16.8956 16.7618C19.057 17.9613 21.4412 17.7214 23.5201 17.407C23.8996 17.3491 24.0728 17.3574 24.5348 17.5725C22.9426 18.4659 20.6409 18.5155 18.9415 18.2425C18.2568 18.135 17.5473 17.8455 16.8708 17.7627L16.6316 19.3759C18.1413 20.2197 19.9645 20.3851 21.3504 20.9145C18.9002 21.4771 17.7535 20.1617 16.2026 20.2693L15.4601 21.444L19.7995 22.7841C20.5584 22.9992 20.7564 23.0736 20.7399 23.7437L18.859 23.4294C17.3163 24.6785 14.8166 27.9213 11.921 30.2293L11.8385 29.8239C11.4507 29.9729 10.9475 30.6098 10.6175 30.9986L9.4873 32.5125L10.304 33.4969C10.8155 33.0254 12.6469 31.9334 13.2409 31.6356C12.5562 32.6283 11.5827 33.2074 10.8568 34.2828C11.5662 34.2662 12.416 33.8526 12.9357 33.8526C12.9852 34.1835 12.9522 34.4482 13.1007 34.8701L14.0412 35.1431L12.5315 36.9631C13.1419 36.9961 14.8331 36.4171 15.2126 36.839C15.4601 37.4429 15.2951 37.8482 15.1961 38.5762C15.0394 39.7178 15.0724 40.8511 15.0064 42.0258C14.9899 42.3732 14.9816 42.5139 14.9321 42.8944C14.8001 43.8788 14.8579 43.581 15.0559 43.8705L22.5631 35.1431C22.5631 35.11 22.5714 35.0687 22.5796 35.0439C22.5879 35.019 22.5961 34.9777 22.5961 34.9446C22.7364 34.4234 23.1571 33.8361 23.7016 32.7441C23.9078 32.3222 24.741 30.8994 24.6998 30.4692C25.071 29.9977 25.0958 29.6999 25.335 29.1787C25.4918 28.8313 26.028 28.2108 26.0692 27.9792C25.8135 27.9875 25.8548 28.0206 25.632 28.0785C25.1535 28.1943 25.5825 28.1943 25.1535 28.1364C25.071 27.0361 26.4322 27.5987 28.8577 24.8274C31.7781 21.4936 34.0302 15.6202 37.6684 13.3784C38.0478 13.1467 39.3266 12.3774 39.772 12.3029C39.772 12.609 39.805 12.5263 39.6235 12.8489C40.2423 12.8572 42.7007 12.3691 43.1379 11.9555C43.6659 11.1531 43.1874 10.0859 42.6759 9.3414C42.1397 9.5234 40.5558 10.3506 40.069 10.3341C39.7143 9.57303 40.3248 9.53994 40.762 8.77061L39.8463 8.43144C41.4467 5.66844 43.3277 6.59496 40.1845 2.81445L37.7014 5.24655C37.2476 5.66017 37.1816 5.75944 36.7114 5.43681Z" fill="#A57E70"/>
<path fill-rule="evenodd" clip-rule="evenodd" d="M5.04896 37.2029L5.86569 38.4603C4.95822 38.4106 4.78497 37.9557 5.04896 37.2029ZM1.94707 32.4131C2.82979 30.7173 3.66301 31.4783 5.66769 32.5951C7.52388 33.6292 7.93637 34.382 9.33882 35.7883C9.17383 35.871 8.81084 35.962 8.5551 35.8627C8.15086 35.7056 6.59991 33.5382 3.74551 32.3552C2.52455 31.8506 2.5658 32.4628 1.94707 32.4131ZM8.06836 42.7206C7.49913 43.4816 7.23514 43.2087 6.39367 42.6958C5.11496 41.9016 4.24874 40.8676 3.43202 39.6432C2.92879 38.8822 2.72254 38.7084 3.35777 37.906C5.27171 40.76 4.15799 40.3381 8.06836 42.7206ZM2.81329 34.4233C5.76669 33.6705 11.2198 39.6515 10.1308 41.4797C9.71006 42.1911 9.13258 41.8685 8.5386 41.4963C7.55688 40.8841 7.48263 41.0247 7.21039 40.0982L9.28107 41.1488C10.0813 39.3537 6.28642 36.1357 4.76847 35.4822C3.927 35.1265 2.99478 35.2258 2.81329 34.4233ZM11.459 39.0642C12.284 40.3381 12.6965 41.4632 12.6965 42.5965C12.6965 43.8622 12.0365 44.3999 10.997 45.07C10.238 45.5663 10.337 45.4753 10.0978 45.3347C9.87505 44.1517 12.2015 44.1765 11.9375 42.2656C11.7807 41.1654 11.0135 39.7921 11.459 39.0642ZM14.5196 37.5503C13.4224 37.1284 12.515 38.1707 11.3765 37.9639C11.2198 37.2277 11.525 37.2608 11.9705 36.508C11.7972 35.9372 11.591 36.4501 11.5827 35.8048C11.5827 35.507 11.822 35.3416 11.855 34.9197C11.5745 34.9279 11.1703 34.9859 10.8403 35.0686C8.87684 33.5051 8.86859 32.1815 6.20393 30.9158C4.52923 30.1217 2.32656 28.9304 1.27059 30.8579C0.354873 32.5289 1.0726 38.7912 2.06257 40.7683C3.61351 43.9118 5.47795 45.07 8.60459 46.3522C9.8008 46.8403 10.2215 46.9892 11.228 46.8154C13.2822 46.468 13.9999 44.5157 14.2804 42.6379L14.5196 37.5503Z" fill="#DDB496"/>
<path fill-rule="evenodd" clip-rule="evenodd" d="M9.44623 27.6897C8.90175 28.5169 7.87053 30.0556 6.96306 30.2376C6.79807 29.551 7.35905 29.1291 7.95303 28.6162C8.39852 28.2274 8.976 27.731 9.44623 27.6897ZM11.9459 24.3145C12.3419 23.6445 12.7709 23.3136 13.4226 23.3384C13.4556 23.5535 13.1256 24.0498 12.8204 24.1987C12.5976 24.3145 12.1769 24.3394 11.9459 24.3145ZM10.6177 30.9987C10.9477 30.6099 11.4509 29.9729 11.8386 29.824C12.2759 28.8892 14.0248 27.4498 14.8415 26.6225C15.9553 25.4975 16.9452 24.2732 18.0342 23.0985L16.5575 22.6931C15.4933 24.389 14.8003 25.2659 13.1339 25.9277C12.5894 26.1427 9.71022 26.9369 9.28949 26.8707C9.64422 25.8118 11.1374 25.7539 12.4739 25.423C13.7608 25.0921 14.8003 24.1243 15.6335 22.751C15.1715 22.263 12.9689 22.2712 12.5069 22.4781C11.8551 22.7676 10.3042 24.1077 9.63597 24.6289C7.80454 26.0683 5.70911 27.5242 3.99316 29.0298C4.76864 29.4765 8.65426 31.6439 9.22349 31.6853C9.88347 31.2137 9.87522 30.7753 10.6177 30.9987Z" fill="#776671"/>
<path fill-rule="evenodd" clip-rule="evenodd" d="M36.3818 16.4392C36.7117 16.0752 36.9592 15.9346 37.38 15.9346C36.951 16.6957 36.6045 17.101 35.9363 17.5643C35.895 17.1589 36.0435 16.8115 36.3818 16.4392ZM39.6239 12.849C38.5679 13.7507 37.6687 13.85 35.9528 15.8105C34.7153 17.2251 33.8078 18.6811 32.8509 20.2942C31.9187 21.8742 30.9452 23.3467 29.7737 24.7861C27.6206 27.4333 28.198 26.4985 26.0696 27.9793C26.0284 28.2109 25.4921 28.8313 25.3354 29.1788C25.0961 29.6999 25.0714 29.9977 24.7002 30.4693C24.7414 30.8994 23.9082 32.3223 23.7019 32.7442C23.1575 33.8362 22.7367 34.4235 22.5965 34.9447C22.5965 34.9777 22.5882 35.0191 22.58 35.0439C22.5717 35.0687 22.5635 35.1101 22.5635 35.1432C24.3124 33.2984 25.9871 30.9987 27.7031 29.0464C29.4437 27.0693 31.2339 25.1584 32.9004 23.0985C35.7383 19.5828 38.04 17.5395 40.7541 14.4869C41.3481 13.8251 43.1878 12.8159 43.1383 11.9556C42.701 12.3692 40.2426 12.8573 39.6239 12.849Z" fill="#776671"/>
<path fill-rule="evenodd" clip-rule="evenodd" d="M30.0621 12.2944C30.0703 12.253 30.0951 12.1703 30.1116 12.1455C30.2601 11.8146 30.425 11.765 30.7385 11.4589C31.3243 10.8881 31.217 10.7805 31.6295 10.6895C31.5388 10.2925 31.4068 10.2346 31.811 9.78784C32.0255 9.54794 32.4132 9.25013 32.6607 9.02678C33.2052 8.54698 33.7167 8.11681 34.2777 7.66183C34.3849 6.88422 36.0596 5.92461 36.7113 5.43654L39.6235 2.34265C39.3677 1.96212 39.4172 1.91248 38.9223 1.73876C38.2375 2.19375 31.8687 8.58834 29.7981 9.40731C30.788 7.71146 32.5122 6.64432 33.9559 5.37863C35.3996 4.12122 36.9093 2.84727 38.2788 1.5485C36.9836 0.621984 35.2099 2.78936 34.0797 3.78205C31.415 6.12315 28.5276 8.92751 26.0032 11.0866C24.3698 12.4764 22.2248 13.3946 21.9443 14.1888C23.8418 14.2715 23.52 14.3046 24.51 13.3698C24.972 12.9314 26.5312 11.8559 27.0674 11.9883C26.8859 12.4929 25.665 13.3367 25.2112 13.8413C25.9784 13.7917 26.8117 13.5849 27.6614 13.2374C28.7504 12.7907 29.2866 12.0462 30.0621 12.2944Z" fill="#776671"/>
<path fill-rule="evenodd" clip-rule="evenodd" d="M14.1323 17.4814C13.6869 17.3656 13.2084 16.8278 13.6869 16.5962C13.9756 16.4556 14.6273 16.8527 14.1323 17.4814ZM14.4541 19.8142C13.8024 19.9879 13.5549 19.7811 13.2001 19.0697C12.8866 18.4327 12.8784 18.3086 13.4724 17.7709L14.4541 19.8142ZM12.7876 16.7286C12.1607 17.6799 12.2597 17.4731 12.4082 18.2342C12.6144 19.3261 11.9297 20.5339 12.5896 21.113C13.0104 21.477 13.7529 21.4273 14.0581 21.3198C15.1388 20.9558 15.7905 19.475 15.8648 18.532C15.4028 18.3831 15.4193 18.4823 14.9656 18.3334C15.3863 16.9437 14.3716 16.3232 14.7263 15.4794C15.7575 16.133 15.5678 16.4639 16.005 17.2332C16.2525 12.9894 14.1488 14.6605 12.7876 16.7286Z" fill="#DDB496"/>
<path fill-rule="evenodd" clip-rule="evenodd" d="M27.8184 15.2892C27.1419 15.2313 26.4819 15.4298 26.2097 16.2819C26.7789 16.3067 27.4224 16.0833 27.8184 15.2892ZM14.1321 17.4814C14.6271 16.8527 13.9754 16.4556 13.6866 16.5962C13.2081 16.8278 13.6866 17.3655 14.1321 17.4814ZM5.04916 37.2028C4.78517 37.9556 4.95841 38.4106 5.86588 38.4603L5.04916 37.2028ZM11.4592 39.0641C11.0137 39.7921 11.7809 41.1653 11.9377 42.2656C12.2017 44.1765 9.87525 44.1517 10.098 45.3346C10.3372 45.4753 10.2382 45.5663 10.9972 45.0699C12.0367 44.3999 12.6967 43.8622 12.6967 42.5965C12.6967 41.4632 12.2842 40.3381 11.4592 39.0641ZM6.39387 42.6957C7.23534 43.2086 7.49933 43.4816 8.06856 42.7206C4.15819 40.3381 5.2719 40.76 3.35797 37.906C2.72274 38.7084 2.92898 38.8821 3.43222 39.6432C4.24894 40.8675 5.11516 41.9016 6.39387 42.6957ZM1.94727 32.4131C2.56599 32.4627 2.52475 31.8506 3.7457 32.3552C6.60011 33.5382 8.15106 35.7055 8.55529 35.8627C8.81103 35.962 9.17402 35.871 9.33902 35.7883C7.93656 34.3819 7.52408 33.6292 5.66789 32.5951C3.66321 31.4783 2.82999 30.7173 1.94727 32.4131ZM2.81349 34.4233C2.99498 35.2257 3.9272 35.1265 4.76867 35.4822C6.28662 36.1357 10.0815 39.3537 9.28127 41.1488L7.21059 40.0982C7.48283 41.0247 7.55708 40.8841 8.53879 41.4962C9.13277 41.8685 9.71025 42.1911 10.131 41.4797C11.22 39.6515 5.76689 33.6705 2.81349 34.4233ZM16.3513 37.9143C17.0855 38.0963 17.1845 37.7571 17.894 37.2028C18.9912 36.3342 21.7878 34.2165 22.4148 33.3562C21.9281 33.2321 21.2516 33.927 20.8226 34.2165C20.3029 34.5805 19.7667 34.9693 19.2634 35.3498C18.5787 35.8793 16.5575 37.2525 16.3513 37.9143ZM15.1716 36.1026C16.0213 35.9951 16.937 35.2588 17.5145 34.3819C17.0773 34.4729 15.3201 35.3002 15.1716 36.1026ZM21.3589 26.0351C19.2387 27.4579 19.3129 30.2044 16.4668 32.3056C16.0295 32.6282 14.7838 33.2817 14.6518 33.5878C14.7096 33.7036 14.6023 33.6457 14.8086 33.745C15.3036 33.9849 16.1615 33.2734 16.7143 32.9095C17.4567 32.4214 18.2157 31.7761 18.7849 30.9985C19.3294 30.2457 21.4331 26.6307 21.3589 26.0351ZM21.2186 30.5849C22.1838 30.2375 22.5881 29.8156 23.347 28.8146C22.6871 28.7484 22.5221 28.8725 21.9528 29.3275C21.4166 29.7659 21.1279 29.9314 21.2186 30.5849ZM24.7 30.4691C23.9575 30.1216 23.215 31.164 22.7613 31.8506C23.7018 31.9747 24.1225 31.0399 24.7 30.4691ZM13.4226 23.3382C12.7709 23.3134 12.3419 23.6443 11.9459 24.3144C12.1769 24.3392 12.5977 24.3144 12.8204 24.1986C13.1256 24.0497 13.4556 23.5533 13.4226 23.3382ZM9.44626 27.6895C8.97603 27.7309 8.39855 28.2273 7.95306 28.6161C7.35908 29.129 6.7981 29.5508 6.9631 30.2375C7.87057 30.0555 8.90178 28.5168 9.44626 27.6895ZM13.4721 17.7709C12.8781 18.3086 12.8864 18.4327 13.1999 19.0697C13.5546 19.7811 13.8021 19.9879 14.4538 19.8142L13.4721 17.7709ZM22.2251 26.9864C23.8008 24.9348 27.1667 20.749 29.3363 21.2867C28.6599 22.4117 27.5709 22.6434 26.8532 23.7353C27.7524 23.9504 29.8561 22.0064 30.0953 21.5928C31.143 19.748 27.6121 19.3509 22.7036 25.1251C22.0353 25.911 21.7136 26.275 22.2251 26.9864ZM27.7111 18.8463C27.2822 18.5402 27.1667 18.8794 26.0447 19.6157C25.4507 19.9962 24.8815 20.3271 24.3535 20.7407L24.7742 21.2122C25.294 21.0468 27.5627 19.293 27.7111 18.8463ZM26.0695 27.9791C28.1979 26.4983 27.6204 27.4331 29.7736 24.7859C30.945 23.3465 31.9185 21.874 32.8507 20.294C33.8077 18.6809 34.7152 17.2249 35.9526 15.8103C37.6686 13.8498 38.5678 13.7505 39.6237 12.8488C39.8052 12.5262 39.7722 12.6089 39.7722 12.3028C39.3268 12.3773 38.048 13.1466 37.6686 13.3782C34.0304 15.6201 31.7783 21.4935 28.8579 24.8273C26.4324 27.5985 25.0712 27.036 25.1537 28.1363C25.5827 28.1942 25.1537 28.1942 25.6322 28.0784C25.855 28.0204 25.8137 27.9874 26.0695 27.9791ZM37.3798 15.9344C36.9591 15.9344 36.7116 16.075 36.3816 16.439C36.0434 16.8113 35.8949 17.1587 35.9361 17.5641C36.6043 17.1008 36.9508 16.6955 37.3798 15.9344ZM42.6431 10.6814C41.9254 10.8717 41.7687 11.2522 41.9172 11.9223C42.3132 11.4673 42.6844 11.2109 42.6431 10.6814ZM39.7062 6.85956C40.4405 6.66929 40.853 6.0654 41.2737 5.3457C40.6632 5.37052 39.6155 5.94132 39.7062 6.85956ZM29.2786 16.3977C29.7653 16.3646 31.3163 14.9831 31.6958 14.677C32.5372 13.9904 33.3292 13.2707 34.1377 12.5427C34.9874 11.7817 38.4275 8.86149 38.8483 8.26587C38.0728 8.15833 37.1488 9.20066 36.3486 9.87072L30.0376 15.0824C29.4188 15.5622 28.9404 15.7524 29.2786 16.3977ZM38.6008 10.8469C37.0581 11.5997 35.2101 12.7164 34.6657 14.6439C35.1606 14.495 35.8784 13.4527 36.7363 12.7661C37.3386 12.2863 38.5513 11.6741 38.6008 10.8469ZM34.2779 7.66198C33.7169 8.11697 33.2055 8.54713 32.661 9.02694C32.4135 9.25029 32.0258 9.5481 31.8113 9.788C31.407 10.2347 31.539 10.2926 31.6298 10.6897C32.265 10.8138 34.6739 7.75298 34.9132 7.298L34.2779 7.66198Z" fill="black"/>
<path fill-rule="evenodd" clip-rule="evenodd" d="M25.0878 33.1823C25.7148 33.9516 26.5728 34.9029 27.3483 35.4737C27.9175 35.8956 28.561 36.3258 29.1385 36.574C30.6069 37.2275 31.4896 37.2027 33.3458 37.335L35.3505 37.3019L37.2314 36.9462C38.1637 36.6484 38.6586 36.6898 39.0546 36.847L39.1866 36.2762C39.0794 36.21 38.9886 36.119 38.9144 35.937C38.6916 35.7964 38.6586 35.7302 38.5349 35.209C38.4689 34.9608 38.4276 34.6961 38.3699 34.4479C38.2379 33.9102 38.0812 33.4635 37.8749 32.9341C37.5449 32.0986 37.3882 31.9 36.7777 31.4202C35.9032 30.7254 35.0205 30.2207 33.9728 29.8154C32.8921 29.3852 31.5721 29.1536 30.4089 29.0378C29.7902 28.9799 28.9157 29.0295 28.363 28.9468C27.9835 29.0047 27.637 29.0047 27.2328 29.0295C25.7643 29.137 23.7514 29.2529 22.3984 29.5176C22.7532 30.2786 22.8687 30.4358 23.3472 31.0314C23.9494 31.7759 24.4444 32.4543 25.0878 33.1823Z" fill="black"/>
<path fill-rule="evenodd" clip-rule="evenodd" d="M37.9327 35.5399C38.2461 31.5195 33.6593 30.2125 33.3623 30.32C33.3953 30.9901 36.0765 34.0013 36.5714 34.5803C36.9922 35.0684 37.2974 35.5482 37.9327 35.5399Z" fill="#47B960"/>
<path fill-rule="evenodd" clip-rule="evenodd" d="M31.0768 32.9009C30.5488 31.9992 30.0621 31.0065 29.5259 30.1545C28.9566 29.2445 28.5936 29.3934 26.9189 29.5506C27.2324 30.0469 27.4717 30.2703 27.7357 30.8245C28.1977 31.8007 28.6679 32.2143 29.7486 32.5452C30.2518 32.7024 30.4581 32.9092 31.0768 32.9009Z" fill="#47B960"/>
<path fill-rule="evenodd" clip-rule="evenodd" d="M33.7088 33.8937C33.2055 33.0003 32.6033 32.0986 32.0671 31.1969C31.3328 29.956 31.3741 29.3356 29.8066 29.6251C30.7224 31.4533 31.9681 33.9185 33.7088 33.8937Z" fill="#187D49"/>
<path fill-rule="evenodd" clip-rule="evenodd" d="M35.5486 35.3331C35.3341 35.1346 34.8804 34.9609 34.5669 34.9195C33.6017 34.7789 30.4091 36.1355 30.1533 36.3424C30.4091 36.5574 32.2652 36.8718 32.6282 36.7808C33.28 36.6071 34.8062 35.664 35.5486 35.3331Z" fill="#187D49"/>
<path fill-rule="evenodd" clip-rule="evenodd" d="M30.912 33.7117C30.7635 33.3891 30.9367 33.5545 30.5325 33.4056C30.351 33.3394 30.252 33.3146 30.087 33.2485C29.3363 32.9755 27.3811 33.629 26.7129 33.993C26.7459 34.1171 27.5296 35.3414 28.5113 34.9608C29.0558 34.754 30.582 34.0757 30.912 33.7117Z" fill="#39DE5D"/>
<path fill-rule="evenodd" clip-rule="evenodd" d="M33.0983 34.5306C32.6363 34.0012 31.8113 33.844 30.9204 34.3072C30.1862 34.6961 29.2539 35.0849 28.627 35.5481C29.3282 36.1934 29.3612 35.9121 30.8544 35.4902C31.5556 35.2917 32.6776 35.1014 33.0983 34.5306Z" fill="#47B960"/>
<path fill-rule="evenodd" clip-rule="evenodd" d="M35.5324 34.5388C35.2107 33.8605 34.3115 32.8182 33.8577 32.1316C33.371 31.4036 32.6203 29.8815 32.1088 29.9642C32.051 30.6756 33.074 32.1398 33.503 32.7437C33.9815 33.4221 34.7982 34.7043 35.5324 34.5388Z" fill="#39DE5D"/>
<path fill-rule="evenodd" clip-rule="evenodd" d="M26.9772 32.0738C26.7132 31.6519 25.649 31.2548 25.1292 31.0232L23.7598 30.5516C24.857 32.3468 25.3272 32.9672 26.9772 32.0738Z" fill="#39DE5D"/>
<path fill-rule="evenodd" clip-rule="evenodd" d="M37.6683 36.2015C36.6288 35.3908 35.3006 35.7217 33.8486 36.8054C34.8303 37.1942 36.5545 36.673 37.6683 36.2015Z" fill="#39DE5D"/>
<path fill-rule="evenodd" clip-rule="evenodd" d="M27.5962 31.4037C27.4312 31.1059 26.532 29.8898 26.301 29.7657C26.0948 29.6582 24.5026 29.7409 24.2881 29.9808L27.0352 31.3623C27.39 31.4947 27.192 31.4864 27.5962 31.4037Z" fill="#187D49"/>
<path fill-rule="evenodd" clip-rule="evenodd" d="M28.6932 32.7935C27.8187 32.1151 26.9113 32.7852 25.748 33.0086C26.177 33.6869 26.177 33.5215 27.0268 33.3312C27.6207 33.2071 28.1322 33.0003 28.6932 32.7935Z" fill="#187D49"/>
</g>
<defs>
<clipPath id="clip0_1_2666">
<rect width="74" height="48" fill="white"/>
</clipPath>
</defs>
</svg>
