<svg width="59" height="42" viewBox="0 0 59 42" fill="none" xmlns="http://www.w3.org/2000/svg">
<g clip-path="url(#clip0_1_2100)" filter="url(#filter0_d_1_2100)">
<path fill-rule="evenodd" clip-rule="evenodd" d="M41.3052 2.8765C40.4186 3.20201 39.2827 3.67599 38.518 4.20138C37.9584 4.58399 37.3655 5.03514 36.9499 5.48057C35.8915 6.617 35.62 7.43934 34.8941 9.11829L34.268 10.9743L33.9743 12.8359C33.8857 14.8861 33.0656 14.5834 32.4117 15.7256L31.3423 15.657L29.6079 15.52L27.7295 15.3772L20.925 14.789C20.4817 14.7719 19.163 14.7148 18.7474 14.5092C18.6144 14.4464 18.6421 14.4521 18.5645 14.3893L17.6669 14.2065C16.6418 14.1494 16.1652 14.2693 15.5945 14.8918C15.1955 15.3201 14.6968 15.8626 14.5971 16.5879C14.8631 16.7021 15.1013 16.9419 15.2509 17.2275L14.2092 17.2903L14.3311 17.9584L13.2284 18.1754C13.0733 18.3125 12.9348 18.4381 12.8018 18.5524C12.4915 19.1177 12.3696 19.6945 12.1978 20.317C11.9595 21.4991 11.5772 22.8925 12.4527 23.8976C12.7575 24.2459 12.7907 24.1774 13.0955 24.3544C13.3337 24.4972 12.8406 24.1831 13.2118 24.4344C13.2451 24.4515 13.3005 24.4915 13.3282 24.52L14.9517 24.777L22.266 26.119L24.1056 26.5016C25.1861 26.7758 28.0509 27.5296 28.677 28.5289C28.882 28.8602 29.076 29.1229 29.281 29.4769C29.6024 29.968 29.7465 30.3449 30.0457 30.9389C30.3172 31.4814 30.6219 31.8183 31.3201 31.9268L33.121 32.0239C33.9244 32.0467 34.2015 32.0182 34.9274 31.8126C35.8306 31.31 35.8749 31.1787 36.4623 30.4306C36.6728 30.1679 36.8834 29.8367 37.299 29.8081C37.6702 29.7796 38.1855 29.8767 38.4792 30.0023C38.9281 30.1108 40.0972 30.3335 40.4519 30.4991C40.8896 30.7504 43.0673 31.1045 44.0037 31.5499C44.3472 31.6527 44.6188 31.7726 44.9401 31.9097C45.123 31.9896 45.2061 32.0239 45.389 32.0981C46.0151 32.3323 46.2977 32.4465 46.9848 32.6007C48.7081 32.6692 51.2293 29.9795 52.2876 28.7402C53.2462 27.6209 53.2795 27.1412 53.9167 25.902C54.5096 23.4521 54.5041 22.7554 54.022 20.2599L53.3792 18.4381L53.0523 17.7129L52.9526 17.6101C51.9164 16.565 49.1181 16.6107 47.5999 16.5936C45.2837 16.5593 42.7902 16.4508 40.4685 16.2509L38.5845 16.1367L36.7781 16.0225C35.5923 15.954 34.3954 15.8398 33.2096 15.7941C33.3205 15.44 33.4313 15.4343 33.6751 15.1602C33.8801 14.9318 33.9521 14.749 34.3289 14.7319C34.5229 14.572 34.5949 14.5606 35.1047 14.6177C35.343 14.6462 35.5923 14.6919 35.8361 14.7205C36.357 14.7833 36.8114 14.789 37.3488 14.7776C38.2077 14.749 38.4294 14.6748 39.061 14.2693C39.9698 13.6926 40.7067 13.0472 41.4105 12.2192C42.1474 11.3626 42.7902 10.2205 43.2723 9.18681C43.5272 8.63288 43.771 7.81054 44.0203 7.33084C44.0924 6.95393 44.2087 6.63984 44.314 6.25723C44.7019 4.86382 45.256 2.96787 45.461 1.62585C44.6631 1.69438 44.4858 1.7572 43.7987 1.99705C42.9343 2.29972 42.1696 2.52814 41.3052 2.8765Z" fill="black"/>
<path fill-rule="evenodd" clip-rule="evenodd" d="M25.8177 22.8411C26.4771 22.7098 26.9038 23.0068 27.1476 23.3608C26.5159 23.6007 26.0892 23.2809 25.8177 22.8411ZM35.221 21.7732C35.5479 21.442 38.6786 21.0423 39.3768 21.0251C40.1027 21.008 40.8452 21.1736 41.4713 21.402C41.9479 21.5734 42.7624 21.7675 42.8511 22.1901C42.8843 22.3614 42.8677 22.2701 42.8289 22.3614C42.5851 22.4186 41.6209 21.956 41.222 21.8361C38.6564 21.0708 37.0495 22.4071 35.221 21.7732ZM29.2255 21.8989C28.2669 21.5505 28.012 21.6362 28.0009 21.225C28.3334 21.1051 30.4279 21.6876 30.7604 21.9331L30.6773 22.4071C30.1841 22.2758 29.7242 22.0816 29.2255 21.8989ZM44.0923 20.8538C43.5492 21.1394 42.2415 20.4369 41.9866 20.2142C42.779 20.1571 43.6434 20.3798 44.0923 20.8538ZM38.0137 19.7117C37.6646 20.0772 37.4319 19.9744 36.9276 19.8487C36.3846 19.7117 36.2405 19.666 35.9746 19.2263C36.9221 19.2263 37.3598 19.272 38.0137 19.7117ZM25.8122 21.4135C25.5795 21.9274 25.247 21.7218 24.6707 21.5619L18.6586 20.1057C17.8884 19.9287 16.8411 19.8487 16.5475 19.3176C17.1016 19.3005 20.4262 20.0543 21.2685 20.2199C22.0775 20.3741 22.8754 20.5283 23.6733 20.7282C24.028 20.8138 25.5684 21.1279 25.8122 21.4135ZM15.3118 19.4547C14.802 19.9458 13.9764 19.5632 13.6827 19.192C14.3089 19.1121 14.8574 19.0892 15.3118 19.4547ZM35.3927 20.7853C35.2043 21.4363 34.8386 21.4078 34.0629 21.3678C28.3445 21.048 26.9647 18.678 28.5495 18.4553C28.9097 18.4039 31.0374 18.7923 31.32 19.449C30.3393 19.5232 29.6965 18.9579 28.7157 19.0721C29.3917 20.6654 33.4423 20.7739 35.3927 20.7853ZM18.2098 18.2555C18.7251 17.8957 19.6449 18.3582 20.2101 18.5067C21.0136 18.7123 21.9722 18.6666 22.288 18.9008C20.8806 19.4718 19.3679 18.8551 18.2098 18.2555ZM44.6408 19.2662C44.1477 19.4547 42.3967 18.8437 41.765 18.6723C41.3051 18.541 40.8286 18.3925 40.3742 18.244C39.9974 18.1184 39.277 18.027 39.1274 17.6615C39.9254 17.6444 42.4798 18.3754 43.5049 18.6495C44.1588 18.8265 44.4081 18.7237 44.6408 19.2662ZM36.3458 17.6101C36.9498 17.6958 37.7089 17.5131 38.0635 18.1584C37.4429 18.1983 36.4788 18.2326 36.3458 17.6101ZM16.2538 15.8341C16.553 15.5543 16.8744 15.6628 17.3288 15.6914C16.9963 16.1082 16.6971 16.1825 16.2538 15.8341ZM15.8327 21.9788C16.42 22.1501 17.7665 22.7384 18.2874 22.4357L17.7721 22.213C18.1544 22.1501 21.0967 22.1901 21.3128 22.6413C21.5566 22.8583 21.5677 22.7441 22.1828 22.8354C22.5097 22.8868 22.615 22.9611 22.8809 22.904C22.9031 22.8983 22.9641 22.8697 22.9918 22.8583C23.9725 23.2352 24.7594 23.2409 25.6515 23.812C26.9426 24.64 28.3611 26.3361 29.087 27.7295C29.5469 28.6204 29.4638 28.6032 30.04 29.5512L30.2838 29.9452C30.3725 30.0595 30.3559 30.0309 30.4224 30.0937L31.7135 28.9059C31.4364 27.0042 30.2007 25.6394 29.0593 24.4972C28.8542 24.2917 28.7767 24.1832 28.6936 23.7948C29.9569 24.3602 31.0485 25.7593 31.6636 26.9414C31.9129 27.4154 32.0625 27.9922 32.323 28.449L33.3979 27.838C33.2151 26.5017 32.4726 25.2967 32.1567 24.1889C33.6196 25.4452 33.3592 26.7758 34.1349 27.6838L35.1766 27.5867L33.9853 24.2688C33.7692 23.6977 33.7193 23.5378 34.1349 23.2295L34.8054 24.5486C36.2627 24.9084 39.3491 24.9313 42.0642 25.6337L41.8592 25.8849C42.1307 26.0506 42.7402 26.062 43.1281 26.0791L44.5522 26.062L44.7683 25.0969C44.2474 24.9998 42.7569 24.383 42.2969 24.1546C43.2112 24.1146 44.0036 24.4401 44.9844 24.383C44.6464 23.949 44.0091 23.6178 43.7709 23.298C43.9482 23.1095 44.12 23.0068 44.3028 22.7155L44.0424 22.0017L45.8211 22.0816C45.5607 21.6876 44.4358 20.9166 44.5189 20.4769C44.7683 20.0429 45.0786 19.9515 45.5662 19.6717C46.3198 19.2263 46.9847 18.6723 47.7161 18.1584C47.9378 18.0099 48.0209 17.9471 48.2702 17.7986C48.9241 17.4103 48.7191 17.5131 48.8022 17.2618L40.1248 16.725C40.1082 16.7421 40.075 16.7535 40.0583 16.765C40.0417 16.7707 40.014 16.7878 39.9918 16.7992C39.6151 16.9591 39.072 16.9763 38.1688 17.159C37.8197 17.2275 36.5841 17.3817 36.3458 17.6101C35.8914 17.5987 35.703 17.7244 35.2819 17.8272C34.9993 17.8957 34.3843 17.85 34.2236 17.9357C34.3455 18.0841 34.3455 18.0499 34.484 18.1584C34.7721 18.3982 34.5782 18.1355 34.7389 18.4268C34.1183 18.9978 33.8246 17.89 31.0596 17.6958C27.7183 17.4617 23.1635 18.8322 20.1492 17.6387C19.8389 17.5131 18.7916 17.0791 18.5423 16.8392C18.7251 16.6964 18.6586 16.7136 18.9357 16.6736C18.6586 16.2853 17.2346 15.0004 16.7913 14.9204C16.0654 14.9775 15.6443 15.7713 15.4337 16.4395C15.7883 16.6907 17.0129 17.2789 17.2235 17.5873C16.9353 18.1641 16.6306 17.8043 15.9712 17.8957L16.1873 18.6267C13.7991 18.935 13.4888 17.336 12.6687 21.0594L15.2619 21.4534C15.7218 21.5391 15.8105 21.5334 15.8327 21.9788Z" fill="#A57E70"/>
<path fill-rule="evenodd" clip-rule="evenodd" d="M49.4003 26.6045L49.7771 25.5081C50.1595 26.0849 49.9766 26.4104 49.4003 26.6045ZM47.9541 30.7791C46.53 31.036 46.6076 30.1623 46.3527 28.392C46.12 26.753 46.3804 26.1477 46.5799 24.6115C46.7074 24.6743 46.929 24.8571 46.9899 25.0627C47.0786 25.3882 46.4857 27.3698 47.0897 29.694C47.3501 30.6877 47.6992 30.3793 47.9541 30.7791ZM51.3175 22.1274C52.0323 22.1216 51.9936 22.4129 52.0711 23.1781C52.182 24.3488 51.9603 25.371 51.6001 26.4503C51.3785 27.1242 51.3674 27.3355 50.5972 27.3184C51.4284 24.7885 51.6833 25.6737 51.3175 22.1274ZM48.7631 29.2943C46.9512 27.8209 48.0317 21.6248 49.6275 21.4364C50.2481 21.3621 50.3146 21.8704 50.37 22.4129C50.4531 23.3095 50.575 23.2866 50.1373 23.8977L49.8214 22.1216C48.3752 22.47 48.1924 26.3418 48.4971 27.5868C48.6689 28.2778 49.1565 28.8089 48.7631 29.2943ZM47.5718 21.7562C47.9596 20.6426 48.4417 19.8545 49.1177 19.3234C49.8769 18.7295 50.503 18.8837 51.384 19.2092C52.0268 19.4433 51.9326 19.4262 51.9603 19.6375C51.3452 20.3399 50.298 18.8837 49.2729 19.9459C48.6855 20.5626 48.209 21.6876 47.5718 21.7562ZM45.2611 20.574C45.516 21.4478 46.5522 21.522 46.9512 22.3272C46.5854 22.767 46.4635 22.5671 45.8042 22.6413C45.5437 23.0182 45.9427 22.904 45.5603 23.2124C45.383 23.3552 45.1725 23.2866 44.9065 23.4637C45.045 23.635 45.2611 23.8577 45.4606 24.0233C45.4274 25.9764 44.6405 26.6045 45.1004 28.8488C45.3941 30.2651 45.6933 32.1896 47.328 31.9326C48.752 31.7156 52.1709 28.3177 52.9078 26.7701C54.077 24.326 53.9163 22.6242 53.2458 20.0829C52.991 19.1178 52.8912 18.7866 52.3205 18.2384C51.1735 17.1305 49.6774 17.6045 48.4195 18.3183L45.2611 20.574Z" fill="#DDB496"/>
<path fill-rule="evenodd" clip-rule="evenodd" d="M41.6816 28.3691C42.4241 28.312 43.8205 28.2263 44.3469 28.706C44.0089 29.1343 43.4991 28.9801 42.9228 28.8602C42.4851 28.7631 41.9199 28.6375 41.6816 28.3691ZM38.5121 28.409C37.9303 28.4776 37.5313 28.3748 37.2432 27.9579C37.3596 27.8323 37.8084 27.8037 38.0411 27.9236C38.2073 28.0093 38.4179 28.2549 38.5121 28.409ZM43.1278 26.0791C42.74 26.062 42.1304 26.0505 41.8589 25.8849C41.0998 26.0505 39.4319 25.6451 38.562 25.5251C37.3762 25.371 36.1904 25.3367 34.9824 25.2111L35.4202 26.3189C36.9218 26.1819 37.7751 26.1933 38.9332 26.9128C39.31 27.1527 41.1053 28.5575 41.2605 28.8488C40.4626 29.1286 39.7422 28.2263 38.9332 27.5639C38.1408 26.9186 37.0825 26.7301 35.8801 26.8672C35.8025 27.3811 36.8165 28.7403 37.1545 28.9287C37.6255 29.1914 39.1382 29.5283 39.7588 29.694C41.46 30.1451 43.2996 30.7561 44.9841 31.1102C44.8954 30.4249 44.4134 26.9871 44.1806 26.6216C43.5877 26.4331 43.3329 26.6444 43.1278 26.0791Z" fill="#776671"/>
<path fill-rule="evenodd" clip-rule="evenodd" d="M22.5764 16.9932C22.2107 16.9589 22.0057 16.8676 21.8173 16.6106C22.4711 16.5192 22.8701 16.5421 23.4519 16.7362C23.2358 16.9532 22.9532 17.0275 22.5764 16.9932ZM18.9359 16.6734C19.961 16.9076 20.432 17.4158 22.3936 17.5529C23.8176 17.6557 25.1031 17.5243 26.505 17.3587C27.8792 17.1931 29.2091 17.1017 30.6055 17.1474C33.1876 17.2331 32.362 17.313 34.2238 17.9355C34.3845 17.8498 34.9995 17.8955 35.2821 17.827C35.7033 17.7242 35.8917 17.5985 36.346 17.61C36.5843 17.3815 37.82 17.2273 38.1691 17.1588C39.0723 16.9761 39.6153 16.9589 39.9921 16.799C40.0142 16.7876 40.0419 16.7705 40.0586 16.7648C40.0752 16.7534 40.1084 16.7419 40.1251 16.7248C38.2189 16.5135 36.069 16.5649 34.113 16.4164C32.1348 16.2737 30.1622 16.0624 28.1618 16.0053C24.7541 15.9082 22.4767 15.4456 19.4014 15.2058C18.7309 15.1544 17.2847 14.4862 16.7915 14.9202C17.2348 15.0002 18.6589 16.2851 18.9359 16.6734Z" fill="#776671"/>
<path fill-rule="evenodd" clip-rule="evenodd" d="M22.9913 22.8583C22.9636 22.8697 22.9027 22.8983 22.8805 22.904C22.6145 22.9611 22.5093 22.8868 22.1823 22.8354C21.5673 22.7441 21.5562 22.8583 21.3124 22.6413C21.1129 22.8926 21.1406 23.0011 20.6918 22.9611C20.4424 22.944 20.0878 22.8412 19.844 22.7898C19.3065 22.6813 18.8134 22.567 18.2869 22.4357C17.7661 22.7384 16.4196 22.1502 15.8322 21.9788L12.635 21.6305C12.5297 21.9674 12.4799 21.9617 12.5962 22.35C13.1836 22.5613 19.9382 23.4922 21.3844 24.3888C19.9105 24.5715 18.4809 24.0119 17.0624 23.7092C15.6438 23.4122 14.1865 23.0753 12.7846 22.8412C12.8234 24.0804 14.9346 24.1546 16.0483 24.3888C18.6748 24.937 21.6781 25.3938 24.1273 25.9421C25.7176 26.2961 27.2524 27.1984 27.8564 26.9928C27.0308 25.7822 27.2026 25.9649 26.183 25.7879C25.7065 25.7079 24.3489 25.2511 24.1827 24.8627C24.565 24.7314 25.64 25.0912 26.1442 25.1369C25.7619 24.6857 25.2576 24.2631 24.6592 23.9033C23.889 23.4408 23.2019 23.4579 22.9913 22.8583Z" fill="#776671"/>
<path fill-rule="evenodd" clip-rule="evenodd" d="M33.4151 30.2765C33.548 30.6134 33.4428 31.1559 33.0881 30.9732C32.8665 30.859 32.8055 30.2708 33.4151 30.2765ZM34.6618 28.9802C35.0663 29.3 35.0552 29.5569 34.7892 30.1109C34.5565 30.602 34.4845 30.6648 33.8916 30.5506L34.6618 28.9802ZM33.5757 31.47C34.4402 31.4072 34.2628 31.4472 34.6563 30.996C35.2159 30.345 36.2521 30.208 36.2964 29.517C36.3241 29.0887 35.9473 28.6547 35.7479 28.5119C35.0275 28.0208 33.8473 28.312 33.2488 28.7118C33.3707 29.0658 33.4206 29.0087 33.5425 29.3628C32.5119 29.7568 32.6116 30.6762 31.9356 30.8533C31.858 29.9053 32.1461 29.871 32.4066 29.2314C29.7468 31.0874 31.7139 31.5957 33.5757 31.47Z" fill="#DDB496"/>
<path fill-rule="evenodd" clip-rule="evenodd" d="M35.0049 13.9494C38.4958 15.5941 41.1666 11.7908 41.1555 11.4881C40.5571 11.2882 36.9831 12.7559 36.3015 13.0186C35.7308 13.2413 35.2044 13.3612 35.0049 13.9494Z" fill="#47B960"/>
<path fill-rule="evenodd" clip-rule="evenodd" d="M39.6038 8.50726C40.5735 8.32452 41.6263 8.2103 42.5682 7.99901C43.5656 7.77629 43.549 7.39367 43.9535 5.79468C43.4105 5.9146 43.1279 6.06308 42.5461 6.11448C41.521 6.21727 41.0001 6.51423 40.3518 7.39938C40.0526 7.81055 39.7977 7.93048 39.6038 8.50726Z" fill="#47B960"/>
<path fill-rule="evenodd" clip-rule="evenodd" d="M37.8533 10.6029C38.8174 10.443 39.8204 10.186 40.8011 9.99759C42.1532 9.72919 42.6906 9.97475 42.9455 8.43286C41.0062 8.66129 38.4018 8.99251 37.8533 10.6029Z" fill="#187D49"/>
<path fill-rule="evenodd" clip-rule="evenodd" d="M35.9636 11.8198C36.213 11.6885 36.5177 11.3287 36.6618 11.0546C37.0996 10.2094 36.9278 6.80581 36.828 6.49744C36.551 6.66305 35.6644 8.26775 35.6256 8.63895C35.5647 9.28997 35.9082 11.0203 35.9636 11.8198Z" fill="#187D49"/>
<path fill-rule="evenodd" clip-rule="evenodd" d="M38.9281 8.08468C39.2716 8.05042 39.0666 8.15892 39.327 7.83341C39.4489 7.69064 39.4988 7.61069 39.6152 7.47364C40.1083 6.87402 40.1527 4.85243 40.0529 4.11004C39.931 4.09862 38.579 4.41271 38.5956 5.44634C38.6067 6.01741 38.712 7.65638 38.9281 8.08468Z" fill="#39DE5D"/>
<path fill-rule="evenodd" clip-rule="evenodd" d="M37.4816 9.8205C38.1022 9.57494 38.5178 8.86681 38.3958 7.89028C38.2906 7.07937 38.2407 6.09142 38.0357 5.35474C37.2267 5.78875 37.4705 5.91438 37.3597 7.42772C37.3042 8.14156 37.1103 9.24372 37.4816 9.8205Z" fill="#47B960"/>
<path fill-rule="evenodd" clip-rule="evenodd" d="M36.678 12.0706C37.3872 12.0021 38.6174 11.5224 39.382 11.334C40.191 11.1284 41.7924 10.9456 41.8866 10.4488C41.2715 10.1518 39.6258 10.603 38.9498 10.7972C38.1907 11.0142 36.7722 11.334 36.678 12.0706Z" fill="#39DE5D"/>
<path fill-rule="evenodd" clip-rule="evenodd" d="M41.6764 5.00083C42.1474 4.89233 42.8455 4.04715 43.2223 3.64169L44.0923 2.53381C42.1252 2.95069 41.4215 3.17341 41.6764 5.00083Z" fill="#39DE5D"/>
<path fill-rule="evenodd" clip-rule="evenodd" d="M34.4951 13.4924C35.5645 12.7957 35.6975 11.4594 35.2043 9.75757C34.5339 10.5342 34.4397 12.2988 34.4951 13.4924Z" fill="#39DE5D"/>
<path fill-rule="evenodd" clip-rule="evenodd" d="M42.0762 5.78881C42.392 5.74312 43.7773 5.32053 43.9657 5.14921C44.1319 4.99502 44.5752 3.49311 44.4311 3.21899L42.2978 5.29198C42.0651 5.5718 42.1316 5.39477 42.0762 5.78881Z" fill="#187D49"/>
<path fill-rule="evenodd" clip-rule="evenodd" d="M40.4744 6.3427C41.372 5.76021 41.0673 4.70373 41.2446 3.55017C40.5021 3.71578 40.6517 3.76718 40.5409 4.62378C40.4633 5.21198 40.4799 5.74879 40.4744 6.3427Z" fill="#187D49"/>
<path fill-rule="evenodd" clip-rule="evenodd" d="M25.8181 22.841C26.0896 23.2807 26.5163 23.6005 27.148 23.3607C26.9042 23.0066 26.4775 22.7097 25.8181 22.841ZM33.415 30.2763C32.8054 30.2706 32.8664 30.8588 33.088 30.9731C33.4427 31.1558 33.5479 30.6133 33.415 30.2763ZM49.401 26.6044C49.9773 26.4102 50.1601 26.0847 49.7778 25.5079L49.401 26.6044ZM47.5725 21.756C48.2097 21.6875 48.6862 20.5625 49.2736 19.9457C50.2987 18.8835 51.3459 20.3397 51.961 19.6373C51.9333 19.426 52.0275 19.4432 51.3847 19.209C50.5037 18.8835 49.8776 18.7293 49.1184 19.3232C48.4424 19.8543 47.9603 20.6424 47.5725 21.756ZM52.0718 23.178C51.9943 22.4127 52.033 22.1215 51.3182 22.1272C51.6839 25.6735 51.4291 24.7884 50.5979 27.3182C51.3681 27.3353 51.3792 27.124 51.6008 26.4502C51.961 25.3709 52.1826 24.3486 52.0718 23.178ZM47.9548 30.7789C47.6999 30.3791 47.3508 30.6875 47.0904 29.6939C46.4864 27.3696 47.0793 25.388 46.9906 25.0625C46.9297 24.8569 46.708 24.6742 46.5806 24.6113C46.3811 26.1475 46.1207 26.7528 46.3534 28.3918C46.6083 30.1621 46.5307 31.0359 47.9548 30.7789ZM48.7638 29.2941C49.1572 28.8087 48.6696 28.2776 48.4978 27.5866C48.1931 26.3417 48.3759 22.4698 49.8221 22.1215L50.138 23.8975C50.5757 23.2865 50.4538 23.3093 50.3707 22.4127C50.3153 21.8702 50.2488 21.362 49.6282 21.4362C48.0324 21.6246 46.9519 27.8207 48.7638 29.2941ZM44.6412 19.2661C44.4085 18.7236 44.1591 18.8264 43.5053 18.6494C42.4802 18.3753 39.9257 17.6443 39.1278 17.6614C39.2774 18.0269 39.9978 18.1183 40.3746 18.2439C40.8289 18.3924 41.3055 18.5409 41.7654 18.6722C42.3971 18.8435 44.1481 19.4546 44.6412 19.2661ZM44.0926 20.8537C43.6438 20.3797 42.7794 20.157 41.987 20.2141C42.2419 20.4368 43.5496 21.1392 44.0926 20.8537ZM35.2213 21.7731C37.0499 22.407 38.6568 21.0707 41.2224 21.8359C41.6213 21.9559 42.5855 22.4184 42.8293 22.3613C42.8681 22.27 42.8847 22.3613 42.8514 22.19C42.7628 21.7674 41.9482 21.5732 41.4717 21.4019C40.8456 21.1735 40.1031 21.0079 39.3772 21.025C38.679 21.0422 35.5483 21.4419 35.2213 21.7731ZM38.0141 19.7116C37.3602 19.2718 36.9225 19.2262 35.9749 19.2262C36.2409 19.6659 36.385 19.7116 36.928 19.8486C37.4322 19.9743 37.665 20.077 38.0141 19.7116ZM36.3462 17.61C36.4792 18.2325 37.4433 18.1982 38.0639 18.1583C37.7093 17.5129 36.9502 17.6957 36.3462 17.61ZM37.2438 27.9578C37.532 28.3747 37.9309 28.4775 38.5128 28.409C38.4186 28.2548 38.208 28.0092 38.0418 27.9235C37.809 27.8036 37.3602 27.8322 37.2438 27.9578ZM41.6823 28.369C41.9205 28.6374 42.4857 28.763 42.9235 28.8601C43.4997 28.98 44.0095 29.1342 44.3475 28.7059C43.8211 28.2262 42.4248 28.3119 41.6823 28.369ZM33.8915 30.5505C34.4844 30.6647 34.5564 30.6019 34.7891 30.1107C35.0551 29.5568 35.0662 29.2998 34.6617 28.98L33.8915 30.5505ZM35.3931 20.7852C33.4427 20.7738 29.3921 20.6652 28.7161 19.072C29.6969 18.9577 30.3396 19.5231 31.3204 19.4489C31.0378 18.7921 28.91 18.4038 28.5499 18.4552C26.9651 18.6779 28.3448 21.0479 34.0633 21.3677C34.839 21.4076 35.2047 21.4362 35.3931 20.7852ZM28.0013 21.2249C28.0124 21.6361 28.2673 21.5504 29.2259 21.8988C29.7246 22.0815 30.1845 22.2757 30.6777 22.407L30.7608 21.933C30.4283 21.6875 28.3338 21.105 28.0013 21.2249ZM34.224 17.9355C32.3621 17.3131 33.1878 17.2331 30.6056 17.1475C29.2093 17.1018 27.8794 17.1931 26.5052 17.3588C25.1033 17.5244 23.8178 17.6557 22.3937 17.5529C20.4322 17.4159 19.9612 16.9076 18.9361 16.6735C18.659 16.7134 18.7255 16.6963 18.5426 16.8391C18.792 17.0789 19.8393 17.5129 20.1496 17.6386C23.1639 18.8321 27.7187 17.4615 31.06 17.6957C33.825 17.8898 34.1187 18.9977 34.7393 18.4267C34.5786 18.1354 34.7725 18.3981 34.4844 18.1583C34.3459 18.0497 34.3459 18.084 34.224 17.9355ZM21.8174 16.6107C22.0058 16.8676 22.2109 16.959 22.5766 16.9933C22.9534 17.0275 23.236 16.9533 23.4521 16.7363C22.8702 16.5421 22.4713 16.5193 21.8174 16.6107ZM16.2542 15.834C16.6975 16.1824 16.9967 16.1081 17.3291 15.6912C16.8748 15.6627 16.5534 15.5542 16.2542 15.834ZM15.3122 19.4546C14.8578 19.0891 14.3092 19.1119 13.6831 19.1919C13.9768 19.5631 14.8024 19.9457 15.3122 19.4546ZM25.8126 21.4133C25.5688 21.1278 24.0283 20.8137 23.6737 20.7281C22.8758 20.5282 22.0779 20.374 21.2689 20.2198C20.4266 20.0542 17.102 19.3004 16.5479 19.3175C16.8415 19.8486 17.8888 19.9286 18.659 20.1056L24.6711 21.5618C25.2474 21.7217 25.5798 21.9273 25.8126 21.4133ZM18.2102 18.2553C19.3683 18.855 20.881 19.4717 22.2884 18.9006C21.9726 18.6665 21.014 18.7122 20.2105 18.5066C19.6453 18.3581 18.7255 17.8956 18.2102 18.2553ZM18.2878 22.4356C18.8142 22.5669 19.3073 22.6811 19.8448 22.7896C20.0886 22.841 20.4432 22.9438 20.6926 22.9609C21.1414 23.0009 21.1137 22.8924 21.3132 22.6411C21.0971 22.19 18.1548 22.15 17.7724 22.2128L18.2878 22.4356Z" fill="black"/>
<path fill-rule="evenodd" clip-rule="evenodd" d="M11.9314 3.92757C12.2362 4.5843 12.6573 5.41806 13.0951 5.972C13.4165 6.37175 13.7877 6.79434 14.1368 7.07987C15.0455 7.81084 15.6606 7.95932 16.9295 8.38762L18.3148 8.73026L19.689 8.81592C20.3816 8.77595 20.7196 8.89587 20.969 9.07861L21.1574 8.696C21.0964 8.62747 21.0521 8.54752 21.0299 8.40475C20.9025 8.2677 20.8914 8.21059 20.8914 7.81655C20.8969 7.6281 20.908 7.43393 20.9136 7.24548C20.9191 6.83431 20.8914 6.49167 20.836 6.07479C20.7584 5.41806 20.6808 5.25245 20.3428 4.8013C19.8608 4.14457 19.3343 3.6249 18.686 3.1452C18.0045 2.64266 17.1345 2.2372 16.3532 1.94596C15.9321 1.78606 15.3171 1.66613 14.9513 1.50623C14.6743 1.47768 14.436 1.41486 14.1479 1.36347C13.1117 1.1693 11.6987 0.883767 10.7124 0.82666C10.8232 1.43199 10.8786 1.56905 11.1058 2.0773C11.3884 2.7169 11.6156 3.28797 11.9314 3.92757Z" fill="black"/>
<path fill-rule="evenodd" clip-rule="evenodd" d="M20.4155 7.94217C21.3464 5.13251 18.393 3.36791 18.1713 3.39646C18.0716 3.87616 19.4015 6.50879 19.6453 7.01133C19.8503 7.43963 19.9722 7.83367 20.4155 7.94217Z" fill="#47B960"/>
<path fill-rule="evenodd" clip-rule="evenodd" d="M16.1317 4.81263C15.9267 4.08167 15.766 3.28217 15.5444 2.57404C15.3061 1.82023 15.0291 1.86592 13.8433 1.67175C13.9707 2.08292 14.0982 2.28851 14.1813 2.72823C14.3309 3.5106 14.5858 3.89321 15.2729 4.32152C15.5942 4.52139 15.6995 4.70413 16.1317 4.81263Z" fill="#47B960"/>
<path fill-rule="evenodd" clip-rule="evenodd" d="M17.7827 6.00073C17.5888 5.27547 17.3339 4.52166 17.1234 3.78498C16.8297 2.76277 16.9627 2.32876 15.8323 2.25452C16.137 3.72217 16.5748 5.70378 17.7827 6.00073Z" fill="#187D49"/>
<path fill-rule="evenodd" clip-rule="evenodd" d="M18.8023 7.36542C18.6915 7.18267 18.4089 6.97709 18.1928 6.88572C17.55 6.61161 15.1009 6.99993 14.8848 7.09701C15.0288 7.29689 16.2534 7.86225 16.5249 7.86225C17.0015 7.85654 18.2316 7.46821 18.8023 7.36542Z" fill="#187D49"/>
<path fill-rule="evenodd" clip-rule="evenodd" d="M15.8773 5.36128C15.8275 5.1043 15.9217 5.25278 15.6668 5.07575C15.5504 4.9958 15.4895 4.96153 15.3842 4.88158C14.9132 4.55036 13.4448 4.66458 12.9128 4.80163C12.9184 4.893 13.2453 5.90951 13.9934 5.81814C14.4034 5.76674 15.5837 5.56116 15.8773 5.36128Z" fill="#39DE5D"/>
<path fill-rule="evenodd" clip-rule="evenodd" d="M17.2452 6.34321C17.0181 5.88636 16.475 5.61796 15.7769 5.78928C15.2006 5.93204 14.4858 6.04055 13.9705 6.25184C14.3417 6.84576 14.4137 6.64588 15.5164 6.62304C16.0428 6.60591 16.8518 6.67443 17.2452 6.34321Z" fill="#47B960"/>
<path fill-rule="evenodd" clip-rule="evenodd" d="M18.9305 6.79453C18.8308 6.25201 18.393 5.34401 18.1935 4.77294C17.983 4.16761 17.7336 2.94552 17.3679 2.91125C17.1961 3.40809 17.6505 4.6416 17.8389 5.14414C18.055 5.71521 18.393 6.7774 18.9305 6.79453Z" fill="#39DE5D"/>
<path fill-rule="evenodd" clip-rule="evenodd" d="M13.439 3.4821C13.3282 3.12804 12.6633 2.65405 12.3419 2.39707L11.4719 1.81458C11.9208 3.28793 12.1369 3.81332 13.439 3.4821Z" fill="#39DE5D"/>
<path fill-rule="evenodd" clip-rule="evenodd" d="M20.1211 8.36473C19.5393 7.5995 18.5641 7.59379 17.3672 8.10204C17.9822 8.55889 19.2622 8.50179 20.1211 8.36473Z" fill="#39DE5D"/>
<path fill-rule="evenodd" clip-rule="evenodd" d="M13.9813 3.11685C13.9203 2.877 13.5103 1.84337 13.3773 1.71202C13.2554 1.59781 12.1305 1.36938 11.9421 1.50072L13.6045 2.98551C13.8261 3.14541 13.6876 3.10543 13.9813 3.11685Z" fill="#187D49"/>
<path fill-rule="evenodd" clip-rule="evenodd" d="M14.5026 4.31019C14.0095 3.65917 13.267 3.97326 12.4192 3.92186C12.5965 4.48151 12.6242 4.36729 13.2504 4.38443C13.6826 4.40156 14.0704 4.35016 14.5026 4.31019Z" fill="#187D49"/>
<path fill-rule="evenodd" clip-rule="evenodd" d="M19.251 25.8507L19.7995 25.2054L21.2513 25.4738L29.8566 16.074L27.3244 15.9541L19.3507 24.9599L19.251 25.8507Z" fill="black" fill-opacity="0.701961"/>
<path fill-rule="evenodd" clip-rule="evenodd" d="M24.9753 19.6433L25.2911 19.2721L26.3218 18.0843L27.43 16.7879L31.5027 12.1566C31.7576 11.8482 32.5056 10.9173 32.8658 10.7232C32.9822 10.6603 32.9656 10.6775 33.0487 10.6603L33.6582 10.1007C34.2456 9.38686 34.4284 8.97569 34.3065 8.22188C34.2234 7.70792 34.1292 7.05119 33.6804 6.58862C33.4587 6.71997 33.165 6.75994 32.888 6.71426L33.4088 5.92618L32.888 5.65778L33.3313 4.73265C33.3202 4.5499 33.3146 4.37858 33.3036 4.21868C33.0875 3.6933 32.755 3.29355 32.4225 2.83098C31.7354 2.02007 30.9929 0.98643 29.8293 1.08351C29.4303 1.11778 29.458 1.18059 29.1699 1.30623C28.9427 1.40331 29.4248 1.21486 29.0535 1.35191C29.0203 1.36334 28.9649 1.38047 28.9316 1.38618L27.8844 2.43124L23.0193 7.02835L21.767 8.15906C20.9912 8.79866 18.93 10.4776 17.9104 10.3919C17.5724 10.3634 17.2898 10.3634 16.9352 10.3234C16.4309 10.2892 16.0874 10.1921 15.5222 10.0893C15.0069 9.9922 14.6079 10.0322 14.1591 10.4833L13.1229 11.7454C12.6685 12.3107 12.5466 12.5335 12.2917 13.1673C12.1477 14.0982 12.2197 14.201 12.4136 15.029C12.4801 15.326 12.5909 15.6572 12.3859 15.977C12.2031 16.2625 11.8595 16.5823 11.6157 16.7308C11.2999 16.9992 10.5186 17.7302 10.2138 17.8958C9.80377 18.0785 8.38525 19.472 7.58179 19.9174C7.32136 20.1115 7.09417 20.2429 6.8282 20.4028C6.67305 20.4942 6.60656 20.5341 6.45695 20.6312C5.95825 20.9567 5.72552 21.0995 5.24899 21.5164C4.27376 22.7328 4.75583 26.0164 5.03289 27.4555C5.28778 28.7575 5.59808 29.0374 6.10232 30.1738C7.45989 31.927 7.94196 32.2925 9.90905 33.2918L11.5049 33.8058L12.1754 33.96L12.3028 33.9371C13.5773 33.7544 15.0567 31.6928 15.8824 30.5964C17.1568 28.9289 18.5753 27.17 19.9606 25.5881L21.0577 24.2804L22.1105 23.0297C22.6259 22.4072 23.1634 21.7962 23.6842 21.1737C23.856 20.9682 24.0222 20.7626 24.1885 20.557L24.1995 20.5684L24.9753 19.6433Z" fill="black"/>
<path fill-rule="evenodd" clip-rule="evenodd" d="M23.3514 11.3802C23.0854 11.9284 22.6532 12.0826 22.2709 12.0654C22.4537 11.4772 22.897 11.3402 23.3514 11.3802ZM19.0127 18.7984C19.0626 19.2095 17.6496 21.7051 17.2839 22.2248C16.9015 22.7616 16.3918 23.207 15.8931 23.5439C15.5218 23.7952 14.9455 24.2863 14.6131 24.1207C14.4745 24.0522 14.5466 24.0922 14.5078 24.0122C14.5964 23.8009 15.4332 23.3498 15.7268 23.1271C17.6385 21.6765 17.5886 19.7806 19.0127 18.7984ZM22.16 14.3669C22.9136 13.8586 22.9912 13.6245 23.2793 13.8358C23.1796 14.1441 21.6558 15.3548 21.3067 15.469L21.0241 15.1435C21.3787 14.858 21.7611 14.6295 22.16 14.3669ZM14.8569 25.7483C14.9566 25.1943 16.1369 24.6233 16.4306 24.5604C16.0427 25.1658 15.4276 25.674 14.8569 25.7483ZM18.9185 21.9392C18.8576 21.4881 19.0515 21.3739 19.4117 21.0712C19.794 20.7571 19.9048 20.6715 20.3481 20.7171C19.8383 21.4081 19.5668 21.6994 18.9185 21.9392ZM24.3322 12.1454C24.105 11.7 24.4264 11.5686 24.8419 11.2374L29.0809 7.63966C29.6184 7.17709 30.239 6.45754 30.7598 6.53178C30.4772 6.94295 28.1666 8.95883 27.5959 9.48421C27.0528 9.98675 26.5209 10.4836 25.9557 10.9576C25.7008 11.1689 24.6591 12.1226 24.3322 12.1454ZM31.3361 5.56096C31.2752 4.92708 31.9789 4.53304 32.3889 4.51591C32.1063 5.01274 31.8293 5.42962 31.3361 5.56096ZM19.5945 19.4551C19.251 18.964 19.4671 18.7127 19.9159 18.1702C23.2129 14.1841 25.5844 14.4582 24.8807 15.7317C24.72 16.0172 23.3071 17.3593 22.7031 17.2108C23.1851 16.457 23.9166 16.2971 24.3709 15.5204C22.9136 15.1492 20.6529 18.0388 19.5945 19.4551ZM30.5936 8.31352C30.5603 8.88459 29.7458 9.30718 29.3413 9.6384C28.765 10.1124 28.283 10.8319 27.9505 10.9347C28.3162 9.60413 29.5574 8.83319 30.5936 8.31352ZM15.6493 26.9989C15.7878 26.5421 17.1454 25.5941 17.6053 25.2286C17.9433 24.9659 18.3034 24.6975 18.6525 24.4462C18.9407 24.2464 19.395 23.7667 19.722 23.8523C19.3008 24.4462 17.4224 25.9082 16.6854 26.5078C16.2089 26.8904 16.1424 27.1245 15.6493 26.9989ZM21.2568 21.8593C20.869 22.2533 20.5864 22.8986 19.9547 22.813C20.2594 22.339 20.7581 21.6194 21.2568 21.8593ZM33.3087 8.1993C33.3364 8.56479 33.0871 8.74182 32.8211 9.05591C32.7214 8.59334 32.8267 8.33065 33.3087 8.1993ZM29.3247 4.57872C28.8869 4.91565 27.7621 5.57809 27.6901 6.1149L28.1167 5.86363C27.956 6.17772 26.338 8.29067 25.9114 8.20501C25.6343 8.26783 25.7063 8.34207 25.3129 8.73611C25.1024 8.9474 24.9915 8.98167 24.8918 9.2101C24.8807 9.22723 24.8641 9.28434 24.8586 9.31289C24.0717 9.82685 23.6451 10.3922 22.7696 10.7349C21.5117 11.2317 19.5779 11.3459 18.2369 11.1175C17.3781 10.9747 17.439 10.9233 16.4804 10.8319L16.0704 10.7977C15.9485 10.8034 15.9762 10.8034 15.8931 10.8205L16.015 12.3967C17.4667 13.2247 19.0681 13.0591 20.4645 12.8421C20.7194 12.8021 20.8357 12.8078 21.146 12.9563C20.0766 13.5731 18.5306 13.6073 17.3892 13.4189C16.9292 13.3446 16.4527 13.1448 15.9983 13.0877L15.8377 14.2012C16.8517 14.7837 18.0763 14.8979 19.0072 15.2634C17.3615 15.6518 16.5912 14.7438 15.5495 14.818L15.0508 15.6289L17.9654 16.554C18.4752 16.7025 18.6082 16.7539 18.5971 17.2165L17.3337 16.9995C16.2976 17.8618 14.6186 20.1004 12.6737 21.6937L12.6183 21.4139C12.3578 21.5166 12.0198 21.9564 11.7982 22.2248L11.0391 23.2698L11.5876 23.9494C11.9312 23.6239 13.1613 22.8701 13.5603 22.6645C13.1004 23.3498 12.4465 23.7495 11.9589 24.4919C12.4354 24.4805 13.0062 24.195 13.3552 24.195C13.3885 24.4234 13.3663 24.6061 13.4661 24.8974L14.0977 25.0858L13.0837 26.3422C13.4938 26.365 14.6297 25.9653 14.8846 26.2565C15.0508 26.6734 14.94 26.9532 14.8735 27.4558C14.7682 28.2438 14.7904 29.0262 14.7461 29.8371C14.735 30.077 14.7294 30.1741 14.6962 30.4367C14.6075 31.1163 14.6463 30.9107 14.7793 31.1106L19.8217 25.0858C19.8217 25.063 19.8272 25.0344 19.8328 25.0173C19.8383 25.0002 19.8439 24.9716 19.8439 24.9488C19.9381 24.589 20.2207 24.1835 20.5864 23.4297C20.7249 23.1385 21.2846 22.1562 21.2568 21.8593C21.5062 21.5338 21.5228 21.3282 21.6835 20.9684C21.7888 20.7286 22.149 20.3003 22.1767 20.1404C22.0049 20.1461 22.0326 20.1689 21.883 20.2089C21.5616 20.2888 21.8497 20.2888 21.5616 20.2489C21.5062 19.4893 22.4205 19.8777 24.0496 17.9646C26.0111 15.6632 27.5238 11.6086 29.9675 10.061C30.2223 9.90109 31.0812 9.37 31.3804 9.3186C31.3804 9.52989 31.4026 9.47279 31.2807 9.69551C31.6963 9.70122 33.3475 9.36428 33.6412 9.07875C33.9958 8.52481 33.6744 7.78813 33.3309 7.27417C32.9707 7.39981 31.9068 7.97088 31.5799 7.95945C31.3416 7.43407 31.7517 7.41123 32.0454 6.88013L31.4303 6.64599C32.5053 4.73862 33.7686 5.37822 31.6575 2.76843L29.9896 4.44738C29.6849 4.73291 29.6405 4.80144 29.3247 4.57872Z" fill="#A57E70"/>
<path fill-rule="evenodd" clip-rule="evenodd" d="M8.05781 26.5076L8.60638 27.3756C7.99686 27.3413 7.8805 27.0272 8.05781 26.5076ZM5.97436 23.2011C6.56726 22.0304 7.12691 22.5558 8.47339 23.3267C9.72014 24.0405 9.9972 24.5602 10.9392 25.531C10.8284 25.5881 10.5846 25.651 10.4128 25.5824C10.1413 25.4739 9.09954 23.9777 7.18232 23.1611C6.36224 22.8127 6.38994 23.2353 5.97436 23.2011ZM10.0859 30.3166C9.70352 30.842 9.5262 30.6535 8.96101 30.2995C8.10214 29.7512 7.52033 29.0374 6.97176 28.1922C6.63375 27.6668 6.49522 27.5469 6.92189 26.993C8.20742 28.9632 7.45937 28.6719 10.0859 30.3166ZM6.55617 24.5888C8.53989 24.0691 12.2026 28.1979 11.4711 29.46C11.1885 29.9511 10.8007 29.7284 10.4017 29.4714C9.74231 29.0488 9.69244 29.1459 9.50958 28.5063L10.9004 29.2316C11.4379 27.9923 8.88898 25.7709 7.86941 25.3197C7.30422 25.0742 6.67808 25.1427 6.55617 24.5888ZM12.3632 27.7925C12.9174 28.6719 13.1944 29.4486 13.1944 30.2309C13.1944 31.1047 12.7511 31.4759 12.0529 31.9384C11.5432 32.2811 11.6097 32.2183 11.449 32.1212C11.2994 31.3045 12.8619 31.3217 12.6846 30.0025C12.5793 29.243 12.064 28.295 12.3632 27.7925ZM14.419 26.7474C13.682 26.4562 13.0725 27.1757 12.3078 27.0329C12.2026 26.5247 12.4076 26.5475 12.7068 26.0279C12.5904 25.6338 12.4519 25.9879 12.4464 25.5425C12.4464 25.3369 12.6071 25.2227 12.6292 24.9314C12.4408 24.9371 12.1693 24.9771 11.9477 25.0342C10.6289 23.9549 10.6233 23.0412 8.83357 22.1674C7.70872 21.6192 6.22925 20.7969 5.51999 22.1275C4.90493 23.281 5.387 27.604 6.05194 28.9689C7.09366 31.1389 8.34595 31.9384 10.446 32.8236C11.2495 33.1605 11.5321 33.2633 12.2081 33.1434C13.5878 32.9035 14.0699 31.5558 14.2583 30.2595L14.419 26.7474Z" fill="#DDB496"/>
<path fill-rule="evenodd" clip-rule="evenodd" d="M11.0118 19.9404C10.6461 20.5114 9.95344 21.5736 9.34392 21.6993C9.23309 21.2253 9.60989 20.934 10.0088 20.58C10.3081 20.3116 10.6959 19.9689 11.0118 19.9404ZM12.6907 17.6104C12.9567 17.1478 13.2448 16.9194 13.6826 16.9365C13.7048 17.085 13.4831 17.4277 13.2781 17.5304C13.1285 17.6104 12.8459 17.6275 12.6907 17.6104ZM11.7986 22.2246C12.0203 21.9562 12.3583 21.5165 12.6187 21.4137C12.9124 20.7684 14.0871 19.7747 14.6357 19.2037C15.3837 18.427 16.0486 17.5818 16.7801 16.7709L15.7882 16.4911C15.0734 17.6618 14.608 18.2671 13.4887 18.724C13.1229 18.8725 11.1891 19.4207 10.9065 19.375C11.1448 18.644 12.1477 18.6041 13.0454 18.3756C13.9098 18.1472 14.608 17.479 15.1676 16.5311C14.8573 16.1941 13.3778 16.1999 13.0675 16.3426C12.6298 16.5425 11.5881 17.4676 11.1392 17.8274C9.90911 18.8211 8.50167 19.8261 7.34912 20.8655C7.86998 21.1739 10.4798 22.6701 10.8622 22.6986C11.3055 22.3731 11.2999 22.0704 11.7986 22.2246Z" fill="#776671"/>
<path fill-rule="evenodd" clip-rule="evenodd" d="M29.1038 12.1737C29.3255 11.9224 29.4917 11.8253 29.7743 11.8253C29.4862 12.3507 29.2535 12.6305 28.8046 12.9503C28.7769 12.6705 28.8767 12.4307 29.1038 12.1737ZM31.2815 9.69525C30.5722 10.3177 29.9683 10.3862 28.8157 11.7397C27.9845 12.7162 27.375 13.7213 26.7323 14.8349C26.1061 15.9256 25.4523 16.9421 24.6654 17.9358C23.2192 19.7632 23.6071 19.1179 22.1775 20.1401C22.1498 20.3 21.7896 20.7283 21.6843 20.9682C21.5236 21.3279 21.507 21.5335 21.2577 21.859C21.2854 22.156 20.7257 23.1382 20.5872 23.4295C20.2215 24.1833 19.9389 24.5887 19.8447 24.9485C19.8447 24.9714 19.8391 24.9999 19.8336 25.017C19.8281 25.0342 19.8225 25.0627 19.8225 25.0856C20.9972 23.8121 22.1221 22.2245 23.2746 20.8768C24.4438 19.5119 25.6462 18.1928 26.7655 16.7708C28.6716 14.3438 30.2176 12.9332 32.0406 10.826C32.4396 10.3691 33.6753 9.6724 33.642 9.07849C33.3483 9.36403 31.6971 9.70096 31.2815 9.69525Z" fill="#776671"/>
<path fill-rule="evenodd" clip-rule="evenodd" d="M24.8582 9.31271C24.8637 9.28415 24.8804 9.22705 24.8914 9.20991C24.9912 8.98149 25.102 8.94722 25.3126 8.73593C25.706 8.34189 25.634 8.26765 25.911 8.20483C25.8501 7.93072 25.7614 7.89074 26.0329 7.58237C26.177 7.41676 26.4374 7.21117 26.6036 7.05698C26.9694 6.72576 27.3129 6.42881 27.6897 6.11472C27.7617 5.57791 28.8866 4.91547 29.3243 4.57854L31.2803 2.44274C31.1086 2.18005 31.1418 2.14578 30.8093 2.02586C30.3494 2.33995 26.0717 6.75431 24.6809 7.31967C25.3458 6.14898 26.5039 5.4123 27.4736 4.53856C28.4433 3.67054 29.4573 2.79109 30.3771 1.89451C29.5072 1.25491 28.3158 2.75112 27.5567 3.4364C25.7669 5.05253 23.8276 6.98845 22.132 8.47894C21.0348 9.43834 19.5942 10.0722 19.4058 10.6205C20.6802 10.6776 20.4641 10.7004 21.129 10.0551C21.4393 9.75243 22.4866 9.01004 22.8468 9.10141C22.7249 9.44976 21.9048 10.0323 21.6 10.3806C22.1154 10.3463 22.675 10.2036 23.2457 9.96373C23.9772 9.65535 24.3373 9.14139 24.8582 9.31271Z" fill="#776671"/>
<path fill-rule="evenodd" clip-rule="evenodd" d="M14.1592 12.8932C13.86 12.8133 13.5386 12.4421 13.86 12.2822C14.0539 12.1851 14.4917 12.4592 14.1592 12.8932ZM14.3753 14.5036C13.9375 14.6236 13.7713 14.4808 13.533 13.9897C13.3225 13.5499 13.3169 13.4643 13.7159 13.0931L14.3753 14.5036ZM13.256 12.3735C12.8349 13.0303 12.9014 12.8875 13.0011 13.4129C13.1396 14.1667 12.6797 15.0005 13.123 15.4002C13.4056 15.6515 13.9043 15.6172 14.1093 15.543C14.8352 15.2917 15.273 14.2695 15.3228 13.6185C15.0125 13.5157 15.0236 13.5842 14.7188 13.4814C15.0014 12.522 14.3199 12.0937 14.5582 11.5112C15.2508 11.9624 15.1233 12.1908 15.417 12.7219C15.5833 9.7923 14.1703 10.9459 13.256 12.3735Z" fill="#DDB496"/>
<path fill-rule="evenodd" clip-rule="evenodd" d="M23.3517 11.3799C22.8974 11.3399 22.4541 11.477 22.2712 12.0652C22.6536 12.0823 23.0858 11.9281 23.3517 11.3799ZM14.1591 12.8932C14.4915 12.4592 14.0538 12.1851 13.8598 12.2822C13.5385 12.4421 13.8598 12.8133 14.1591 12.8932ZM8.05831 26.5075C7.88099 27.0272 7.99735 27.3413 8.60687 27.3755L8.05831 26.5075ZM12.3637 27.7924C12.0645 28.295 12.5798 29.2429 12.6851 30.0025C12.8624 31.3216 11.2998 31.3045 11.4495 32.1211C11.6101 32.2182 11.5437 32.281 12.0534 31.9384C12.7516 31.4758 13.1949 31.1046 13.1949 30.2309C13.1949 29.4485 12.9178 28.6719 12.3637 27.7924ZM8.9615 30.2994C9.5267 30.6535 9.70401 30.8419 10.0863 30.3165C7.45987 28.6719 8.20792 28.9631 6.92238 26.9929C6.49572 27.5469 6.63424 27.6668 6.97225 28.1922C7.52082 29.0374 8.10263 29.7512 8.9615 30.2994ZM5.97485 23.201C6.39044 23.2353 6.36273 22.8127 7.18281 23.161C9.10003 23.9777 10.1418 25.4739 10.4133 25.5824C10.585 25.6509 10.8289 25.5881 10.9397 25.531C9.99769 24.5602 9.72063 24.0405 8.47389 23.3267C7.1274 22.5557 6.56775 22.0303 5.97485 23.201ZM6.55667 24.5887C6.67857 25.1427 7.30472 25.0741 7.86991 25.3197C8.88947 25.7708 11.4384 27.9923 10.9009 29.2315L9.51007 28.5063C9.69293 29.1459 9.7428 29.0488 10.4022 29.4714C10.8011 29.7283 11.189 29.9511 11.4716 29.4599C12.203 28.1979 8.54038 24.069 6.55667 24.5887ZM15.6496 26.9986C16.1428 27.1243 16.2093 26.8901 16.6858 26.5075C17.4228 25.9079 19.3012 24.446 19.7223 23.852C19.3954 23.7664 18.941 24.2461 18.6529 24.446C18.3038 24.6972 17.9436 24.9656 17.6056 25.2283C17.1457 25.5938 15.7881 26.5418 15.6496 26.9986ZM14.8572 25.748C15.428 25.6738 16.043 25.1655 16.4309 24.5602C16.1372 24.623 14.957 25.1941 14.8572 25.748ZM19.0131 18.7981C17.589 19.7803 17.6389 21.6763 15.7272 23.1268C15.4335 23.3495 14.5968 23.8006 14.5081 24.0119C14.5469 24.0919 14.4749 24.0519 14.6134 24.1204C14.9459 24.2861 15.5222 23.7949 15.8934 23.5437C16.3921 23.2067 16.9019 22.7613 17.2842 22.2245C17.6499 21.7048 19.0629 19.2092 19.0131 18.7981ZM18.9189 21.939C19.5672 21.6991 19.8387 21.4079 20.3485 20.7169C19.9052 20.6712 19.7943 20.7568 19.412 21.0709C19.0518 21.3736 18.8579 21.4878 18.9189 21.939ZM21.2572 21.859C20.7585 21.6192 20.2598 22.3387 19.955 22.8127C20.5867 22.8984 20.8693 22.253 21.2572 21.859ZM13.6825 16.9364C13.2448 16.9193 12.9566 17.1477 12.6907 17.6102C12.8458 17.6274 13.1284 17.6102 13.278 17.5303C13.483 17.4275 13.7047 17.0849 13.6825 16.9364ZM11.0117 19.9402C10.6959 19.9688 10.308 20.3114 10.0088 20.5798C9.60981 20.9339 9.23302 21.2251 9.34384 21.6991C9.95336 21.5735 10.646 20.5113 11.0117 19.9402ZM13.7158 13.0931C13.3168 13.4643 13.3223 13.5499 13.5329 13.9897C13.7712 14.4808 13.9374 14.6236 14.3752 14.5036L13.7158 13.0931ZM19.5949 19.4548C20.6532 18.0386 22.914 15.1489 24.3713 15.5201C23.9169 16.2968 23.1855 16.4567 22.7034 17.2105C23.3074 17.359 24.7204 16.017 24.8811 15.7314C25.5848 14.4579 23.2132 14.1838 19.9163 18.1699C19.4674 18.7124 19.2513 18.9637 19.5949 19.4548ZM23.2797 13.8355C22.9916 13.6242 22.914 13.8583 22.1604 14.3666C21.7614 14.6293 21.3791 14.8577 21.0245 15.1432L21.3071 15.4687C21.6562 15.3545 23.18 14.1439 23.2797 13.8355ZM22.177 20.1401C23.6066 19.1179 23.2187 19.7632 24.665 17.9358C25.4518 16.9421 26.1057 15.9256 26.7318 14.8349C27.3746 13.7213 27.9841 12.7162 28.8153 11.7397C29.9678 10.3862 30.5718 10.3177 31.281 9.69523C31.4029 9.47251 31.3808 9.52962 31.3808 9.31832C31.0816 9.36972 30.2227 9.90081 29.9678 10.0607C27.5242 11.6083 26.0115 15.6629 24.0499 17.9643C22.4208 19.8774 21.5065 19.4891 21.562 20.2486C21.8501 20.2886 21.562 20.2886 21.8833 20.2086C22.033 20.1686 22.0052 20.1458 22.177 20.1401ZM29.7739 11.8253C29.4913 11.8253 29.325 11.9224 29.1034 12.1737C28.8762 12.4306 28.7765 12.6705 28.8042 12.9503C29.253 12.6305 29.4857 12.3507 29.7739 11.8253ZM33.3091 8.19902C32.827 8.33037 32.7217 8.59306 32.8215 9.05563C33.0874 8.74154 33.3368 8.56451 33.3091 8.19902ZM31.3365 5.56068C31.8296 5.42934 32.1067 5.01246 32.3893 4.51562C31.9792 4.53276 31.2755 4.9268 31.3365 5.56068ZM24.3325 12.1451C24.6594 12.1223 25.7012 11.1686 25.956 10.9573C26.5212 10.4833 27.0532 9.98647 27.5962 9.48393C28.1669 8.95855 30.4776 6.94267 30.7602 6.5315C30.2393 6.45726 29.6187 7.17681 29.0812 7.63938L24.8423 11.2371C24.4267 11.5683 24.1053 11.6997 24.3325 12.1451ZM30.5939 8.31324C29.5578 8.83291 28.3166 9.60385 27.9508 10.9344C28.2833 10.8317 28.7654 10.1121 29.3417 9.63812C29.7462 9.3069 30.5607 8.88431 30.5939 8.31324ZM27.6904 6.11462C27.3136 6.42871 26.9701 6.72566 26.6044 7.05688C26.4381 7.21107 26.1777 7.41666 26.0336 7.58227C25.7621 7.89065 25.8508 7.93062 25.9117 8.20473C26.3384 8.29039 27.9564 6.17744 28.1171 5.86335L27.6904 6.11462Z" fill="black"/>
<path fill-rule="evenodd" clip-rule="evenodd" d="M21.5176 23.732C21.9387 24.2631 22.515 24.9198 23.0358 25.3138C23.4182 25.6051 23.8504 25.902 24.2383 26.0734C25.2246 26.5245 25.8175 26.5074 27.0642 26.5988L28.4107 26.5759L29.6741 26.3303C30.3002 26.1248 30.6327 26.1533 30.8987 26.2618L30.9873 25.8678C30.9153 25.8221 30.8543 25.7593 30.8045 25.6336C30.6548 25.5366 30.6327 25.4909 30.5496 25.1311C30.5052 24.9598 30.4775 24.777 30.4387 24.6057C30.3501 24.2345 30.2448 23.9261 30.1063 23.5607C29.8846 22.9839 29.7794 22.8468 29.3693 22.5156C28.782 22.0359 28.1891 21.6876 27.4853 21.4077C26.7595 21.1108 25.8729 20.9509 25.0916 20.8709C24.676 20.8309 24.0886 20.8652 23.7174 20.8081C23.4625 20.8481 23.2298 20.8481 22.9583 20.8652C21.9719 20.9395 20.6199 21.0194 19.7112 21.2021C19.9494 21.7275 20.027 21.836 20.3484 22.2472C20.7529 22.7612 21.0854 23.2294 21.5176 23.732Z" fill="black"/>
<path fill-rule="evenodd" clip-rule="evenodd" d="M30.1447 25.3597C30.3553 22.5843 27.2744 21.682 27.075 21.7563C27.0971 22.2188 28.898 24.2975 29.2304 24.6973C29.513 25.0342 29.7181 25.3654 30.1447 25.3597Z" fill="#47B960"/>
<path fill-rule="evenodd" clip-rule="evenodd" d="M25.5405 23.5376C25.1859 22.9151 24.859 22.2298 24.4988 21.6416C24.1165 21.0134 23.8726 21.1162 22.7478 21.2247C22.9584 21.5674 23.1191 21.7216 23.2964 22.1042C23.6067 22.778 23.9225 23.0636 24.6484 23.292C24.9864 23.4005 25.1249 23.5433 25.5405 23.5376Z" fill="#47B960"/>
<path fill-rule="evenodd" clip-rule="evenodd" d="M27.3084 24.223C26.9704 23.6063 26.5659 22.9838 26.2058 22.3613C25.7126 21.5047 25.7403 21.0764 24.6875 21.2763C25.3026 22.5384 26.1393 24.2402 27.3084 24.223Z" fill="#187D49"/>
<path fill-rule="evenodd" clip-rule="evenodd" d="M28.5438 25.2168C28.3997 25.0797 28.095 24.9598 27.8844 24.9312C27.2361 24.8342 25.0917 25.7707 24.9199 25.9135C25.0917 26.062 26.3384 26.279 26.5823 26.2161C27.02 26.0962 28.0451 25.4452 28.5438 25.2168Z" fill="#187D49"/>
<path fill-rule="evenodd" clip-rule="evenodd" d="M25.4295 24.0975C25.3298 23.8748 25.4462 23.989 25.1747 23.8862C25.0528 23.8405 24.9863 23.8234 24.8754 23.7777C24.3712 23.5893 23.058 24.0404 22.6091 24.2917C22.6313 24.3773 23.1577 25.2225 23.8171 24.9598C24.1828 24.8171 25.2079 24.3488 25.4295 24.0975Z" fill="#39DE5D"/>
<path fill-rule="evenodd" clip-rule="evenodd" d="M26.898 24.6628C26.5877 24.2973 26.0336 24.1888 25.4352 24.5086C24.942 24.777 24.3159 25.0454 23.8948 25.3652C24.3658 25.8107 24.3879 25.6165 25.3909 25.3253C25.8619 25.1882 26.6155 25.0569 26.898 24.6628Z" fill="#47B960"/>
<path fill-rule="evenodd" clip-rule="evenodd" d="M28.5328 24.6684C28.3167 24.2002 27.7127 23.4806 27.408 23.0066C27.0811 22.5041 26.5768 21.4533 26.2333 21.5104C26.1945 22.0015 26.8816 23.0123 27.1697 23.4292C27.4911 23.8975 28.0397 24.7826 28.5328 24.6684Z" fill="#39DE5D"/>
<path fill-rule="evenodd" clip-rule="evenodd" d="M22.7865 22.9668C22.6092 22.6755 21.8944 22.4014 21.5453 22.2415L20.6255 21.916C21.3625 23.1552 21.6783 23.5835 22.7865 22.9668Z" fill="#39DE5D"/>
<path fill-rule="evenodd" clip-rule="evenodd" d="M29.9671 25.8161C29.269 25.2564 28.3768 25.4849 27.4016 26.233C28.061 26.5014 29.2191 26.1416 29.9671 25.8161Z" fill="#39DE5D"/>
<path fill-rule="evenodd" clip-rule="evenodd" d="M23.2022 22.5042C23.0914 22.2986 22.4874 21.4591 22.3323 21.3734C22.1937 21.2992 21.1243 21.3563 20.9802 21.5219L22.8254 22.4756C23.0637 22.567 22.9307 22.5613 23.2022 22.5042Z" fill="#187D49"/>
<path fill-rule="evenodd" clip-rule="evenodd" d="M23.9394 23.4635C23.352 22.9952 22.7425 23.4578 21.9612 23.612C22.2493 24.0802 22.2493 23.966 22.8201 23.8347C23.219 23.749 23.5626 23.6062 23.9394 23.4635Z" fill="#187D49"/>
</g>
<defs>
<filter id="filter0_d_1_2100" x="0.667236" y="0.825195" width="57.7036" height="41.1357" filterUnits="userSpaceOnUse" color-interpolation-filters="sRGB">
<feFlood flood-opacity="0" result="BackgroundImageFix"/>
<feColorMatrix in="SourceAlpha" type="matrix" values="0 0 0 0 0 0 0 0 0 0 0 0 0 0 0 0 0 0 127 0" result="hardAlpha"/>
<feOffset dy="4"/>
<feGaussianBlur stdDeviation="2"/>
<feComposite in2="hardAlpha" operator="out"/>
<feColorMatrix type="matrix" values="0 0 0 0 0 0 0 0 0 0 0 0 0 0 0 0 0 0 0.25 0"/>
<feBlend mode="normal" in2="BackgroundImageFix" result="effect1_dropShadow_1_2100"/>
<feBlend mode="normal" in="SourceGraphic" in2="effect1_dropShadow_1_2100" result="shape"/>
</filter>
<clipPath id="clip0_1_2100">
<rect width="49.7036" height="33.1358" fill="white" transform="translate(4.66724 0.825195)"/>
</clipPath>
</defs>
</svg>
