<svg width="109" height="70" viewBox="0 0 109 70" fill="none" xmlns="http://www.w3.org/2000/svg">
<g clip-path="url(#clip0_1_214)">
<path fill-rule="evenodd" clip-rule="evenodd" d="M80.3466 4.33317C78.4023 5.02082 75.9112 6.02213 74.2343 7.13201C73.007 7.9403 71.7068 8.89335 70.7954 9.83434C68.4744 12.2351 67.879 13.9723 66.2872 17.5191L64.914 21.4399L64.27 25.3727C64.0756 29.7037 62.2771 29.0643 60.8432 31.4771L58.498 31.3323L54.6945 31.0428L50.5751 30.7412L35.6529 29.4986C34.6808 29.4624 31.7887 29.3418 30.8773 28.9075C30.5857 28.7748 30.6465 28.7868 30.4763 28.6541L28.5078 28.2681C26.2597 28.1474 25.2147 28.4008 23.9631 29.7158C23.0882 30.6206 21.9945 31.7666 21.7758 33.2988C22.3591 33.54 22.8816 34.0467 23.2097 34.6499L20.9252 34.7826L21.1925 36.1941L18.7743 36.6525C18.4341 36.9421 18.1303 37.2075 17.8387 37.4488C17.1582 38.6431 16.8908 39.8615 16.5141 41.1765C15.9916 43.6738 15.1531 46.6174 17.0731 48.7406C17.7414 49.4765 17.8143 49.3318 18.4827 49.7057C19.0052 50.0073 17.9237 49.3438 18.7379 49.8746C18.8108 49.9108 18.9323 49.9953 18.9931 50.0556L22.5535 50.5985L38.5936 53.4335L42.628 54.2418C44.9975 54.8209 51.2799 56.4133 52.653 58.5245C53.1026 59.2242 53.528 59.7792 53.9776 60.5271C54.6824 61.5646 54.9983 62.3608 55.6545 63.6155C56.2499 64.7616 56.9183 65.4734 58.4494 65.7026L62.3986 65.9077C64.1606 65.9559 64.7682 65.8956 66.3601 65.4613C68.3408 64.3997 68.438 64.1222 69.7261 62.5418C70.1878 61.9869 70.6496 61.2872 71.561 61.2268C72.3751 61.1665 73.5052 61.3716 74.1492 61.637C75.1335 61.8662 77.6975 62.3367 78.4752 62.6866C79.4352 63.2174 84.2108 63.9654 86.2644 64.9063C87.0178 65.1235 87.6132 65.3768 88.318 65.6664C88.719 65.8353 88.9013 65.9077 89.3023 66.0645C90.6754 66.5591 91.2952 66.8004 92.802 67.1261C96.5811 67.2709 102.11 61.5888 104.431 58.9709C106.533 56.6063 106.606 55.593 108.004 52.9751C109.304 47.7996 109.292 46.3278 108.235 41.0559L106.825 37.2075L106.108 35.6754L105.889 35.4582C103.617 33.2505 97.4803 33.347 94.1508 33.3108C89.0714 33.2384 83.6032 33.0092 78.5117 32.587L74.3801 32.3457L70.4187 32.1044C67.8183 31.9597 65.1935 31.7184 62.5931 31.6219C62.8361 30.8739 63.0791 30.8618 63.6138 30.2828C64.0634 29.8002 64.2214 29.4142 65.0477 29.378C65.473 29.0402 65.631 29.016 66.7489 29.1367C67.2714 29.197 67.8183 29.2935 68.3529 29.3538C69.4952 29.4865 70.4916 29.4986 71.6703 29.4745C73.5538 29.4142 74.0399 29.2573 75.4252 28.4008C77.418 27.1823 79.0342 25.8191 80.5775 24.0698C82.1936 22.2602 83.6032 19.8474 84.6604 17.6639C85.2194 16.4936 85.754 14.7564 86.3009 13.7431C86.4588 12.9468 86.714 12.2833 86.9449 11.475C87.7955 8.53143 89.0107 4.52619 89.4603 1.69116C87.7104 1.83593 87.3216 1.96863 85.8148 2.47532C83.9191 3.11471 82.2422 3.59727 80.3466 4.33317Z" fill="black"/>
<path fill-rule="evenodd" clip-rule="evenodd" d="M46.3824 46.5088C47.8285 46.2314 48.7641 46.8587 49.2988 47.6067C47.9135 48.1134 46.9778 47.4378 46.3824 46.5088ZM67.0037 44.2529C67.7207 43.5532 74.5863 42.7087 76.1174 42.6725C77.7093 42.6363 79.3376 42.9862 80.7107 43.4687C81.7558 43.8306 83.5421 44.2408 83.7365 45.1336C83.8094 45.4955 83.7729 45.3024 83.6879 45.4955C83.1532 45.6161 81.0388 44.6389 80.1639 44.3856C74.5377 42.769 71.0137 45.592 67.0037 44.2529ZM53.8557 44.5183C51.7534 43.7824 51.1945 43.9633 51.1702 43.0947C51.8993 42.8414 56.4926 44.0719 57.2217 44.5907L57.0394 45.592C55.9579 45.3145 54.9493 44.9043 53.8557 44.5183ZM86.4585 42.3106C85.2676 42.9138 82.3998 41.4299 81.8408 40.9594C83.5785 40.8388 85.4742 41.3093 86.4585 42.3106ZM73.1281 39.8978C72.3626 40.6699 71.8522 40.4527 70.7464 40.1873C69.5555 39.8978 69.2396 39.8013 68.6563 38.8724C70.7343 38.8724 71.6942 38.9689 73.1281 39.8978ZM46.3703 43.4929C45.8599 44.5786 45.1308 44.1443 43.867 43.8065L30.6825 40.7302C28.9935 40.3562 26.6968 40.1873 26.0528 39.0654C27.2679 39.0292 34.5589 40.6216 36.4059 40.9715C38.1801 41.2972 39.9299 41.6229 41.6797 42.0452C42.4574 42.2261 45.8356 42.8897 46.3703 43.4929ZM23.343 39.3549C22.225 40.3924 20.4144 39.5841 19.7704 38.8C21.1435 38.6311 22.3465 38.5828 23.343 39.3549ZM67.3804 42.1658C66.9673 43.5411 66.1652 43.4808 64.464 43.3963C51.9236 42.7208 48.8978 37.7142 52.3732 37.2437C53.163 37.1351 57.8292 37.9555 58.449 39.3428C56.2981 39.4997 54.8885 38.3053 52.7377 38.5466C54.2202 41.9125 63.103 42.1417 67.3804 42.1658ZM29.6982 36.8215C30.8283 36.0614 32.8455 37.0386 34.085 37.3523C35.847 37.7866 37.9492 37.6901 38.6418 38.1847C35.5553 39.3911 32.2379 38.0882 29.6982 36.8215ZM87.6615 38.9568C86.58 39.3549 82.7401 38.0641 81.3548 37.7021C80.3462 37.4247 79.3011 37.111 78.3047 36.7974C77.4784 36.5319 75.8987 36.3389 75.5706 35.5668C77.3204 35.5306 82.9223 37.0748 85.1704 37.6539C86.6043 38.0279 87.1511 37.8107 87.6615 38.9568ZM69.4705 35.4583C70.795 35.6392 72.4598 35.2532 73.2375 36.6164C71.8765 36.7008 69.7621 36.7732 69.4705 35.4583ZM25.4087 31.7064C26.0649 31.1152 26.7697 31.3444 27.7661 31.4048C27.037 32.2854 26.3809 32.4423 25.4087 31.7064ZM24.4852 44.6872C25.7733 45.0491 28.7261 46.2917 29.8684 45.6523L28.7383 45.1818C29.5767 45.0491 36.0292 45.1336 36.5032 46.0866C37.0378 46.545 37.0621 46.3038 38.411 46.4968C39.1279 46.6054 39.3588 46.7622 39.9421 46.6415C39.9907 46.6295 40.1243 46.5692 40.1851 46.545C42.3359 47.3413 44.0615 47.3533 46.0179 48.5597C48.8492 50.309 51.96 53.892 53.5519 56.8356C54.5605 58.7176 54.3782 58.6814 55.6419 60.684L56.1766 61.5164C56.371 61.7577 56.3346 61.6974 56.4804 61.8301L59.3117 59.3208C58.7042 55.3035 55.9943 52.4202 53.4911 50.0074C53.0415 49.5731 52.8714 49.3439 52.6891 48.5235C55.4597 49.7179 57.8535 52.6735 59.2024 55.1708C59.7492 56.1721 60.0773 57.3905 60.6484 58.3557L63.0058 57.0648C62.6048 54.2418 60.9765 51.6964 60.2839 49.3559C63.4919 52.01 62.9208 54.8209 64.622 56.7391L66.9065 56.534L64.2939 49.5248C63.82 48.3184 63.7106 47.9806 64.622 47.3292L66.0923 50.116C69.2882 50.876 76.0567 50.9243 82.011 52.4081L81.5613 52.9389C82.1568 53.2888 83.4935 53.3129 84.3441 53.3491L87.467 53.3129L87.9409 51.2741C86.7987 51.069 83.5299 49.7661 82.5213 49.2836C84.5263 49.1991 86.264 49.8868 88.4149 49.7661C87.6736 48.8493 86.2762 48.1495 85.7537 47.474C86.1425 47.0758 86.5192 46.8587 86.9202 46.2434L86.3491 44.7354L90.2498 44.9043C89.6786 44.0719 87.2118 42.4433 87.3941 41.5144C87.9409 40.5975 88.6214 40.4045 89.6908 39.8133C91.3434 38.8724 92.8016 37.7021 94.4056 36.6164C94.8917 36.3027 95.0739 36.17 95.6208 35.8564C97.0547 35.036 96.605 35.2532 96.7873 34.7223L77.7579 33.5883C77.7214 33.6245 77.6485 33.6487 77.6121 33.6728C77.5756 33.6848 77.5149 33.721 77.4663 33.7452C76.6399 34.083 75.4491 34.1192 73.4684 34.5052C72.7028 34.65 69.993 34.9757 69.4705 35.4583C68.4741 35.4341 68.0609 35.6995 67.1374 35.9167C66.5176 36.0614 65.1688 35.9649 64.8164 36.1459C65.0838 36.4596 65.0838 36.3872 65.3875 36.6164C66.0194 37.1231 65.5941 36.5681 65.9465 37.1834C64.5855 38.3898 63.9415 36.0494 57.8778 35.6392C50.5504 35.1446 40.5618 38.0399 33.9513 35.5186C33.2708 35.2532 30.9742 34.3363 30.4273 33.8296C30.8283 33.528 30.6825 33.5642 31.2901 33.4798C30.6825 32.6594 27.5596 29.945 26.5874 29.7761C24.9956 29.8968 24.072 31.5737 23.6103 32.9851C24.388 33.516 27.0735 34.7585 27.5353 35.41C26.9034 36.6285 26.235 35.8684 24.789 36.0614L25.2629 37.6056C20.0256 38.2571 19.3451 34.8792 17.5466 42.7449L23.2336 43.5773C24.2422 43.7583 24.4366 43.7462 24.4852 44.6872Z" fill="#A57E70"/>
<path fill-rule="evenodd" clip-rule="evenodd" d="M98.0998 54.4589L98.9261 52.1426C99.7646 53.3611 99.3636 54.0487 98.0998 54.4589ZM94.9283 63.2777C91.8053 63.8205 91.9754 61.9748 91.4164 58.2349C90.9061 54.7726 91.4772 53.4938 91.9147 50.2486C92.1941 50.3813 92.6802 50.7673 92.8139 51.2016C93.0083 51.8893 91.7081 56.0755 93.0326 60.9855C93.6037 63.0846 94.3693 62.4332 94.9283 63.2777ZM102.304 45.0008C103.872 44.9887 103.787 45.604 103.957 47.2205C104.2 49.6936 103.714 51.8531 102.924 54.1332C102.438 55.5567 102.414 56.0031 100.725 55.9669C102.547 50.6226 103.106 52.4925 102.304 45.0008ZM96.7024 60.141C92.7288 57.0285 95.0984 43.9391 98.5981 43.541C99.959 43.3842 100.105 44.4579 100.226 45.604C100.409 47.498 100.676 47.4497 99.716 48.7406L99.0234 44.9887C95.8518 45.7246 95.4508 53.904 96.1191 56.5339C96.4958 57.9937 97.5652 59.1156 96.7024 60.141ZM94.0898 44.2166C94.9404 41.8641 95.9976 40.1993 97.4801 39.0774C99.1449 37.8227 100.518 38.1484 102.45 38.8361C103.86 39.3307 103.653 39.2945 103.714 39.7409C102.365 41.2247 100.068 38.1484 97.8203 40.3923C96.5323 41.6952 95.4872 44.0718 94.0898 44.2166ZM89.0226 41.7194C89.5816 43.5651 91.8539 43.722 92.7288 45.423C91.9268 46.3519 91.6595 45.9297 90.2134 46.0865C89.6423 46.8827 90.5172 46.6415 89.6788 47.2929C89.2899 47.5945 88.8282 47.4497 88.2449 47.8237C88.5487 48.1856 89.0226 48.6561 89.46 49.006C89.3871 53.1319 87.6616 54.4589 88.6702 59.2001C89.3142 62.1919 89.9704 66.2575 93.5551 65.7146C96.6781 65.2562 104.176 58.0781 105.792 54.8088C108.356 49.6454 108.003 46.0503 106.533 40.6819C105.974 38.6431 105.755 37.9433 104.504 36.7852C101.988 34.4448 98.7074 35.4461 95.949 36.9541L89.0226 41.7194Z" fill="#DDB496"/>
<path fill-rule="evenodd" clip-rule="evenodd" d="M81.1725 58.1868C82.8008 58.0661 85.863 57.8852 87.0174 58.8985C86.2762 59.8033 85.1582 59.4776 83.8945 59.2243C82.9345 59.0192 81.695 58.7538 81.1725 58.1868ZM74.2218 58.2712C72.9459 58.416 72.0709 58.1988 71.4391 57.3181C71.6942 57.0527 72.6785 56.9924 73.1889 57.2458C73.5534 57.4267 74.0152 57.9455 74.2218 58.2712ZM84.3441 53.3491C83.4935 53.3129 82.1568 53.2888 81.5614 52.9389C79.8966 53.2888 76.2389 52.4322 74.3311 52.1789C71.7307 51.8532 69.1303 51.7808 66.4812 51.5154L67.4412 53.8558C70.7343 53.5663 72.6056 53.5904 75.1453 55.1104C75.9716 55.6171 79.9087 58.5849 80.249 59.2001C78.4992 59.7913 76.9194 57.8852 75.1453 56.4857C73.4076 55.1225 71.0867 54.7244 68.4498 55.0139C68.2796 56.0997 70.5034 58.9709 71.2446 59.369C72.2775 59.924 75.5949 60.6357 76.9559 60.9856C80.6864 61.9386 84.7208 63.2295 88.4149 63.9775C88.2204 62.5298 87.1633 55.2673 86.6529 54.4952C85.3527 54.0971 84.7937 54.5434 84.3441 53.3491Z" fill="#776671"/>
<path fill-rule="evenodd" clip-rule="evenodd" d="M39.2742 34.1553C38.4722 34.0829 38.0226 33.8899 37.6094 33.347C39.0433 33.154 39.9182 33.2022 41.1941 33.6124C40.7202 34.0708 40.1005 34.2277 39.2742 34.1553ZM31.2906 33.4797C33.5386 33.9743 34.5715 35.048 38.8732 35.3375C41.9961 35.5547 44.8153 35.2772 47.8897 34.9274C50.9033 34.5775 53.8197 34.3845 56.8819 34.481C62.5445 34.662 60.7339 34.8309 64.8169 36.1458C65.1693 35.9649 66.5181 36.0614 67.1378 35.9166C68.0614 35.6995 68.4745 35.4341 69.4709 35.4582C69.9935 34.9756 72.7033 34.6499 73.4688 34.5051C75.4495 34.1191 76.6404 34.0829 77.4667 33.7451C77.5153 33.721 77.5761 33.6848 77.6125 33.6727C77.649 33.6486 77.7219 33.6245 77.7584 33.5883C73.5782 33.1419 68.8634 33.2505 64.5738 32.9368C60.2357 32.6352 55.9097 32.1888 51.523 32.0682C44.0498 31.8631 39.0555 30.8859 32.3113 30.3793C30.841 30.2707 27.6694 28.8592 26.5879 29.7761C27.56 29.945 30.683 32.6593 31.2906 33.4797Z" fill="#776671"/>
<path fill-rule="evenodd" clip-rule="evenodd" d="M40.1852 46.5449C40.1244 46.5691 39.9908 46.6294 39.9422 46.6414C39.3589 46.7621 39.128 46.6052 38.4111 46.4967C37.0622 46.3036 37.0379 46.5449 36.5032 46.0865C36.0658 46.6173 36.1265 46.8465 35.1423 46.7621C34.5954 46.7259 33.8177 46.5087 33.2831 46.4002C32.1044 46.1709 31.0229 45.9297 29.8685 45.6522C28.7262 46.2916 25.7734 45.049 24.4853 44.6871L17.4738 43.9512C17.2429 44.6629 17.1336 44.6509 17.3888 45.4712C18.6768 45.9176 33.4896 47.884 36.6612 49.7781C33.4289 50.1641 30.2938 48.9818 27.183 48.3425C24.0721 47.7151 20.8763 47.0034 17.8019 46.5087C17.887 49.1266 22.5167 49.2834 24.9592 49.7781C30.7191 50.9362 37.3053 51.9013 42.6763 53.0595C46.1638 53.8074 49.5298 55.7135 50.8543 55.2792C49.0437 52.7217 49.4204 53.1077 47.1845 52.7337C46.1395 52.5648 43.1623 51.5997 42.7978 50.7794C43.6362 50.5019 45.9937 51.2619 47.0995 51.3584C46.261 50.4054 45.1552 49.5127 43.8428 48.7526C42.1537 47.7754 40.6469 47.8116 40.1852 46.5449Z" fill="#776671"/>
<path fill-rule="evenodd" clip-rule="evenodd" d="M63.043 62.2161C63.3347 62.9279 63.1038 64.074 62.3261 63.6879C61.84 63.4467 61.7064 62.2041 63.043 62.2161ZM65.7771 59.4776C66.6642 60.1532 66.6399 60.6961 66.0566 61.8663C65.5463 62.9038 65.3883 63.0365 64.0881 62.7952L65.7771 59.4776ZM63.3954 64.7375C65.2911 64.6048 64.9022 64.6892 65.765 63.7362C66.9923 62.3609 69.2647 62.0714 69.3619 60.6116C69.4226 59.7068 68.5963 58.79 68.1589 58.4884C66.5792 57.4509 63.9909 58.0661 62.6785 58.9106C62.9458 59.6586 63.0552 59.5379 63.3225 60.2859C61.0623 61.1183 61.2811 63.0606 59.7986 63.4346C59.6284 61.432 60.2603 61.3596 60.8314 60.0084C54.9987 63.9292 59.3125 65.0029 63.3954 64.7375Z" fill="#DDB496"/>
<path fill-rule="evenodd" clip-rule="evenodd" d="M66.5303 27.7253C74.1858 31.1997 80.0429 23.1651 80.0186 22.5257C78.7062 22.1035 70.8684 25.2039 69.3738 25.7588C68.1221 26.2293 66.9677 26.4827 66.5303 27.7253Z" fill="#47B960"/>
<path fill-rule="evenodd" clip-rule="evenodd" d="M76.616 16.2282C78.7425 15.8421 81.0513 15.6009 83.1171 15.1545C85.3044 14.684 85.2679 13.8757 86.155 10.4978C84.9641 10.7511 84.3444 11.0648 83.0685 11.1734C80.8204 11.3905 79.6782 12.0179 78.2564 13.8878C77.6002 14.7564 77.0413 15.0097 76.616 16.2282Z" fill="#47B960"/>
<path fill-rule="evenodd" clip-rule="evenodd" d="M72.7761 20.6556C74.8905 20.3178 77.0899 19.7749 79.2408 19.3768C82.2058 18.8098 83.3845 19.3286 83.9435 16.0713C79.6904 16.5538 73.9791 17.2536 72.7761 20.6556Z" fill="#187D49"/>
<path fill-rule="evenodd" clip-rule="evenodd" d="M68.6328 23.2253C69.1796 22.9478 69.848 22.1878 70.1639 21.6087C71.1239 19.8233 70.7472 12.6331 70.5285 11.9817C69.9209 12.3315 67.9766 15.7215 67.8916 16.5057C67.7579 17.881 68.5113 21.5364 68.6328 23.2253Z" fill="#187D49"/>
<path fill-rule="evenodd" clip-rule="evenodd" d="M75.1335 15.3356C75.8869 15.2632 75.4373 15.4925 76.0084 14.8048C76.2757 14.5032 76.3851 14.3343 76.6403 14.0448C77.7218 12.7781 77.819 8.50742 77.6003 6.93911C77.3329 6.91498 74.3679 7.5785 74.4044 9.76207C74.4287 10.9685 74.6596 14.4308 75.1335 15.3356Z" fill="#39DE5D"/>
<path fill-rule="evenodd" clip-rule="evenodd" d="M71.9623 19.0029C73.3233 18.4841 74.2346 16.9882 73.9673 14.9252C73.7364 13.2122 73.6271 11.1251 73.1774 9.56885C71.4033 10.4857 71.938 10.7511 71.6949 13.9481C71.5734 15.4561 71.1481 17.7844 71.9623 19.0029Z" fill="#47B960"/>
<path fill-rule="evenodd" clip-rule="evenodd" d="M70.2 23.7562C71.7554 23.6115 74.453 22.5981 76.1299 22.2C77.9041 21.7657 81.4159 21.3796 81.6225 20.3301C80.2736 19.7027 76.6646 20.6558 75.1821 21.066C73.5173 21.5244 70.4065 22.2 70.2 23.7562Z" fill="#39DE5D"/>
<path fill-rule="evenodd" clip-rule="evenodd" d="M81.1607 8.82101C82.1936 8.59179 83.7247 6.80633 84.551 5.94978L86.4588 3.60938C82.145 4.49004 80.6018 4.96054 81.1607 8.82101Z" fill="#39DE5D"/>
<path fill-rule="evenodd" clip-rule="evenodd" d="M65.412 26.76C67.7572 25.2881 68.0489 22.4652 66.9674 18.8701C65.497 20.5108 65.2904 24.2386 65.412 26.76Z" fill="#39DE5D"/>
<path fill-rule="evenodd" clip-rule="evenodd" d="M82.0359 10.4859C82.7285 10.3894 85.7664 9.49667 86.1796 9.13475C86.5441 8.80902 87.5163 5.6362 87.2003 5.05713L82.522 9.43635C82.0116 10.0275 82.1574 9.6535 82.0359 10.4859Z" fill="#187D49"/>
<path fill-rule="evenodd" clip-rule="evenodd" d="M78.5242 11.6561C80.4927 10.4256 79.8244 8.19376 80.2132 5.75684C78.5849 6.10669 78.913 6.21527 78.67 8.02486C78.4999 9.26745 78.5363 10.4015 78.5242 11.6561Z" fill="#187D49"/>
<path fill-rule="evenodd" clip-rule="evenodd" d="M46.3833 46.5089C46.9787 47.4378 47.9144 48.1134 49.2997 47.6067C48.765 46.8588 47.8293 46.2314 46.3833 46.5089ZM63.0431 62.2162C61.7065 62.2041 61.8401 63.4467 62.3262 63.688C63.1039 64.074 63.3348 62.928 63.0431 62.2162ZM98.1006 54.4591C99.3643 54.0489 99.7653 53.3612 98.9269 52.1428L98.1006 54.4591ZM94.0905 44.2168C95.488 44.072 96.533 41.6954 97.8211 40.3925C100.069 38.1486 102.366 41.2249 103.715 39.741C103.654 39.2947 103.86 39.3308 102.451 38.8362C100.519 38.1486 99.1456 37.8228 97.4808 39.0775C95.9983 40.1995 94.9411 41.8643 94.0905 44.2168ZM103.958 47.2207C103.788 45.6041 103.873 44.9888 102.305 45.0009C103.107 52.4926 102.548 50.6227 100.725 55.9671C102.414 56.0032 102.439 55.5569 102.925 54.1333C103.715 51.8532 104.201 49.6938 103.958 47.2207ZM94.929 63.2778C94.37 62.4333 93.6045 63.0848 93.0333 60.9857C91.7088 56.0756 93.009 51.8894 92.8146 51.2018C92.6809 50.7675 92.1949 50.3814 91.9154 50.2487C91.4779 53.4939 90.9068 54.7727 91.4172 58.2351C91.9761 61.9749 91.806 63.8207 94.929 63.2778ZM96.7031 60.1412C97.5659 59.1158 96.4965 57.9938 96.1199 56.5341C95.4515 53.9041 95.8525 45.7247 99.0241 44.9888L99.7167 48.7407C100.677 47.4499 100.409 47.4981 100.227 45.6041C100.106 44.458 99.9598 43.3843 98.5988 43.5412C95.0991 43.9393 92.7295 57.0287 96.7031 60.1412ZM87.6623 38.9569C87.152 37.8108 86.6051 38.0279 85.1712 37.654C82.9232 37.0749 77.3213 35.5307 75.5715 35.5669C75.8996 36.339 77.4793 36.532 78.3056 36.7974C79.302 37.1111 80.347 37.4247 81.3556 37.7022C82.7409 38.0641 86.5808 39.355 87.6623 38.9569ZM86.4593 42.3106C85.475 41.3093 83.5794 40.8388 81.8417 40.9595C82.4007 41.43 85.2685 42.9138 86.4593 42.3106ZM67.0046 44.2529C71.0146 45.592 74.5386 42.7691 80.1648 44.3856C81.0397 44.639 83.1541 45.6162 83.6887 45.4955C83.7738 45.3025 83.8103 45.4955 83.7374 45.1336C83.5429 44.2409 81.7566 43.8307 80.7116 43.4688C79.3385 42.9862 77.7101 42.6364 76.1183 42.6726C74.5872 42.7088 67.7215 43.5532 67.0046 44.2529ZM73.129 39.8979C71.6951 38.9689 70.7351 38.8724 68.6572 38.8724C69.2405 39.8013 69.5564 39.8979 70.7473 40.1874C71.8531 40.4528 72.3634 40.6699 73.129 39.8979ZM69.4714 35.4583C69.763 36.7733 71.8774 36.7009 73.2384 36.6165C72.4607 35.2532 70.7959 35.6393 69.4714 35.4583ZM71.4399 57.3182C72.0718 58.1989 72.9467 58.416 74.2226 58.2713C74.0161 57.9455 73.5543 57.4268 73.1897 57.2458C72.6794 56.9925 71.6951 57.0528 71.4399 57.3182ZM81.1734 58.1868C81.6959 58.7538 82.9353 59.0192 83.8953 59.2243C85.1591 59.4777 86.277 59.8034 87.0183 58.8986C85.8639 57.8852 82.8017 58.0662 81.1734 58.1868ZM64.0882 62.7953C65.3884 63.0365 65.5464 62.9038 66.0567 61.8663C66.64 60.6961 66.6643 60.1533 65.7773 59.4777L64.0882 62.7953ZM67.3813 42.1659C63.1039 42.1417 54.2211 41.9125 52.7386 38.5467C54.8894 38.3054 56.299 39.4997 58.4498 39.3429C57.8301 37.9556 53.1639 37.1352 52.374 37.2438C48.8987 37.7143 51.9244 42.7208 64.4649 43.3964C66.1661 43.4808 66.9681 43.5412 67.3813 42.1659ZM51.171 43.0948C51.1953 43.9634 51.7543 43.7824 53.8565 44.5183C54.9502 44.9044 55.9588 45.3146 57.0402 45.592L57.2225 44.5907C56.4934 44.072 51.9001 42.8415 51.171 43.0948ZM64.8173 36.146C60.7343 34.831 62.5449 34.6621 56.8823 34.4811C53.8201 34.3846 50.9037 34.5776 47.8901 34.9275C44.8157 35.2774 41.9965 35.5548 38.8736 35.3377C34.5719 35.0481 33.539 33.9744 31.291 33.4798C30.6834 33.5643 30.8292 33.5281 30.4282 33.8297C30.975 34.3364 33.2717 35.2532 33.9522 35.5186C40.5627 38.04 50.5513 35.1446 57.8787 35.6393C63.9424 36.0494 64.5864 38.3899 65.9474 37.1835C65.595 36.5682 66.0203 37.1231 65.3884 36.6165C65.0846 36.3872 65.0846 36.4596 64.8173 36.146ZM37.6098 33.3471C38.023 33.89 38.4726 34.083 39.2746 34.1554C40.1009 34.2278 40.7206 34.071 41.1945 33.6125C39.9186 33.2024 39.0437 33.1541 37.6098 33.3471ZM25.4096 31.7064C26.3817 32.4423 27.0379 32.2855 27.767 31.4048C26.7706 31.3445 26.0658 31.1153 25.4096 31.7064ZM23.3438 39.355C22.3474 38.5829 21.1444 38.6311 19.7712 38.8C20.4153 39.5842 22.2259 40.3925 23.3438 39.355ZM46.3711 43.4929C45.8365 42.8897 42.4583 42.2262 41.6806 42.0452C39.9308 41.623 38.1809 41.2973 36.4068 40.9715C34.5598 40.6217 27.2688 39.0292 26.0536 39.0654C26.6977 40.1874 28.9943 40.3563 30.6834 40.7303L43.8679 43.8066C45.1317 44.1444 45.8608 44.5787 46.3711 43.4929ZM29.6991 36.8215C32.2388 38.0883 35.5562 39.3912 38.6427 38.1848C37.9501 37.6901 35.8478 37.7867 34.0858 37.3524C32.8464 37.0387 30.8292 36.0615 29.6991 36.8215ZM29.8692 45.6524C31.0236 45.9298 32.1051 46.1711 33.2838 46.4003C33.8185 46.5089 34.5962 46.7261 35.143 46.7622C36.1273 46.8467 36.0666 46.6175 36.504 46.0867C36.0301 45.1336 29.5776 45.0492 28.7391 45.1819L29.8692 45.6524Z" fill="black"/>
<path fill-rule="evenodd" clip-rule="evenodd" d="M15.9309 6.55293C16.5993 7.94029 17.5228 9.70163 18.4828 10.8718C19.1876 11.7163 20.0017 12.609 20.7673 13.2122C22.7601 14.7564 24.109 15.0701 26.8917 15.9749L29.9296 16.6987L32.9432 16.8797C34.4621 16.7952 35.2034 17.0486 35.7502 17.4346L36.1634 16.6263C36.0297 16.4816 35.9325 16.3127 35.8839 16.0111C35.6044 15.7215 35.5801 15.6009 35.5801 14.7685C35.5922 14.3704 35.6165 13.9602 35.6287 13.5621C35.6408 12.6935 35.5801 11.9697 35.4586 11.089C35.2885 9.70163 35.1183 9.35177 34.3771 8.39872C33.3199 7.01136 32.1655 5.91354 30.7437 4.90017C29.2491 3.83854 27.3413 2.982 25.6279 2.36673C24.7044 2.02894 23.3556 1.7756 22.5536 1.43781C21.946 1.37749 21.4235 1.24479 20.7916 1.13621C18.5192 0.726035 15.4206 0.122837 13.2576 0.00219727C13.5006 1.28098 13.6221 1.57051 14.1203 2.64421C14.7401 3.99537 15.2383 5.20177 15.9309 6.55293Z" fill="black"/>
<path fill-rule="evenodd" clip-rule="evenodd" d="M34.5354 15.0338C36.5769 9.09834 30.1001 5.37058 29.614 5.4309C29.3953 6.44427 32.3116 12.0058 32.8463 13.0674C33.2959 13.9722 33.5633 14.8046 34.5354 15.0338Z" fill="#47B960"/>
<path fill-rule="evenodd" clip-rule="evenodd" d="M25.1414 8.42278C24.6918 6.87859 24.3394 5.18964 23.8533 3.6937C23.3308 2.10126 22.7232 2.19777 20.1228 1.7876C20.4023 2.6562 20.6818 3.09051 20.8641 4.01943C21.1921 5.67219 21.7511 6.48048 23.2579 7.38528C23.9627 7.80752 24.1936 8.19356 25.1414 8.42278Z" fill="#47B960"/>
<path fill-rule="evenodd" clip-rule="evenodd" d="M28.7635 10.932C28.3381 9.3999 27.7792 7.80746 27.3174 6.25121C26.6734 4.09176 26.965 3.1749 24.4861 3.01807C25.1544 6.11851 26.1144 10.3047 28.7635 10.932Z" fill="#187D49"/>
<path fill-rule="evenodd" clip-rule="evenodd" d="M30.9989 13.8154C30.7559 13.4294 30.1361 12.9951 29.6622 12.802C28.2526 12.223 22.8816 13.0433 22.4077 13.2484C22.7237 13.6707 25.4092 14.865 26.0046 14.865C27.0496 14.8529 29.7473 14.0326 30.9989 13.8154Z" fill="#187D49"/>
<path fill-rule="evenodd" clip-rule="evenodd" d="M24.5829 9.5811C24.4735 9.03822 24.6801 9.35188 24.1211 8.9779C23.866 8.809 23.7323 8.73662 23.5014 8.56772C22.4685 7.86801 19.2483 8.10929 18.0818 8.39883C18.0939 8.59185 18.8109 10.7392 20.4514 10.5462C21.3506 10.4376 23.9389 10.0033 24.5829 9.5811Z" fill="#39DE5D"/>
<path fill-rule="evenodd" clip-rule="evenodd" d="M27.5847 11.656C27.0865 10.6909 25.8956 10.1239 24.3645 10.4858C23.1007 10.7874 21.5332 11.0166 20.4031 11.463C21.2172 12.7176 21.3752 12.2954 23.7934 12.2471C24.9478 12.2109 26.7219 12.3557 27.5847 11.656Z" fill="#47B960"/>
<path fill-rule="evenodd" clip-rule="evenodd" d="M31.2783 12.609C31.0596 11.4629 30.0996 9.54477 29.6621 8.33837C29.2004 7.05959 28.6536 4.4779 27.8516 4.40552C27.4749 5.45508 28.4713 8.0609 28.8844 9.12253C29.3584 10.3289 30.0996 12.5728 31.2783 12.609Z" fill="#39DE5D"/>
<path fill-rule="evenodd" clip-rule="evenodd" d="M19.2364 5.61203C18.9934 4.86407 17.5352 3.86276 16.8304 3.31988L14.9226 2.08936C15.9069 5.20186 16.3808 6.31174 19.2364 5.61203Z" fill="#39DE5D"/>
<path fill-rule="evenodd" clip-rule="evenodd" d="M33.8907 15.9265C32.6148 14.3099 30.4761 14.2979 27.8513 15.3716C29.2001 16.3367 32.0072 16.216 33.8907 15.9265Z" fill="#39DE5D"/>
<path fill-rule="evenodd" clip-rule="evenodd" d="M20.4266 4.83992C20.293 4.33324 19.3937 2.14966 19.1021 1.87219C18.8348 1.63091 16.368 1.14835 15.9548 1.42582L19.6003 4.56245C20.0864 4.90024 19.7826 4.8158 20.4266 4.83992Z" fill="#187D49"/>
<path fill-rule="evenodd" clip-rule="evenodd" d="M21.5697 7.36123C20.4882 5.98594 18.8599 6.64945 17.0007 6.54088C17.3896 7.72315 17.4503 7.48187 18.8235 7.51806C19.7713 7.55425 20.6219 7.44568 21.5697 7.36123Z" fill="#187D49"/>
<path fill-rule="evenodd" clip-rule="evenodd" d="M31.9832 52.8666L33.1862 51.5033L36.3699 52.0704L55.2413 32.2131L49.6881 31.9597L32.2019 50.9846L31.9832 52.8666Z" fill="black" fill-opacity="0.701961"/>
<path fill-rule="evenodd" clip-rule="evenodd" d="M44.5357 39.7531L45.2284 38.9689L47.4886 36.4596L49.9189 33.7211L58.8503 23.9372C59.4093 23.2858 61.0498 21.3193 61.8396 20.9092C62.0948 20.7765 62.0584 20.8126 62.2406 20.7765L63.5773 19.5942C64.8654 18.0862 65.2664 17.2176 64.9991 15.6251C64.8168 14.5394 64.6102 13.152 63.6259 12.1748C63.1399 12.4523 62.4958 12.5368 61.8882 12.4403L63.0305 10.7754L61.8882 10.2084L62.8604 8.25406C62.8361 7.86801 62.8239 7.50609 62.7996 7.1683C62.3257 6.05841 61.5966 5.21394 60.8675 4.23675C59.3607 2.52367 57.7324 0.340093 55.1805 0.54518C54.3056 0.617564 54.3664 0.750267 53.7345 1.01567C53.2363 1.22076 54.2935 0.822651 53.4793 1.11219C53.4064 1.13631 53.2849 1.17251 53.212 1.18457L50.9153 3.39228L40.2462 13.1038L37.4999 15.4924C35.7987 16.8436 31.2783 20.3904 29.0424 20.2094C28.3012 20.1491 27.6814 20.1491 26.9037 20.0647C25.7979 19.9923 25.0445 19.7872 23.8051 19.5701C22.675 19.365 21.8001 19.4494 20.8158 20.4025L18.5434 23.0686C17.547 24.2629 17.2797 24.7334 16.7207 26.0725C16.4047 28.039 16.5627 28.2561 16.988 30.0054C17.1338 30.6327 17.3769 31.3324 16.9273 32.008C16.5263 32.6112 15.7729 33.2868 15.2382 33.6004C14.5455 34.1675 12.8322 35.7116 12.1638 36.0615C11.2646 36.4475 8.15379 39.3912 6.3918 40.3321C5.82068 40.7423 5.32246 41.0198 4.73918 41.3576C4.39894 41.5506 4.25312 41.6351 3.92502 41.8401C2.83138 42.5278 2.32101 42.8294 1.27597 43.7101C-0.862713 46.2797 0.194478 53.2165 0.802059 56.2566C1.36103 59.0072 2.04152 59.5983 3.14732 61.999C6.12447 65.7027 7.18166 66.4748 11.4955 68.586L14.9951 69.6717L16.4655 69.9974L16.745 69.9492C19.5399 69.5631 22.7843 65.208 24.5949 62.8918C27.3898 59.3691 30.5006 55.6534 33.5385 52.3117L35.9445 49.549L38.2533 46.907C39.3834 45.592 40.5622 44.3012 41.7044 42.9862C42.0811 42.5519 42.4457 42.1176 42.8102 41.6833L42.8345 41.7074L44.5357 39.7531Z" fill="black"/>
<path fill-rule="evenodd" clip-rule="evenodd" d="M40.9753 22.2965C40.392 23.4546 39.4442 23.7803 38.6057 23.7441C39.0067 22.5016 39.9788 22.212 40.9753 22.2965ZM31.4605 37.9676C31.5699 38.8362 28.4712 44.1081 27.6692 45.2059C26.8308 46.34 25.7128 47.2809 24.6192 47.9927C23.805 48.5235 22.5413 49.561 21.8122 49.2112C21.5084 49.0664 21.6663 49.1509 21.5813 48.982C21.7757 48.5356 23.6106 47.5825 24.2546 47.112C28.4469 44.0478 28.3376 40.0426 31.4605 37.9676ZM38.3627 28.6059C40.0153 27.5322 40.1854 27.0376 40.8173 27.484C40.5986 28.1354 37.2569 30.693 36.4913 30.9343L35.8716 30.2466C36.6493 29.6434 37.4877 29.1609 38.3627 28.6059ZM22.3468 52.6494C22.5656 51.4792 25.1539 50.2728 25.7979 50.1401C24.9473 51.4189 23.5984 52.4926 22.3468 52.6494ZM31.254 44.6027C31.1203 43.6497 31.5456 43.4084 32.3355 42.769C33.1739 42.1055 33.417 41.9245 34.3891 42.021C33.2711 43.4808 32.6757 44.0961 31.254 44.6027ZM43.1261 23.913C42.6279 22.972 43.3327 22.6946 44.244 21.9949L53.54 14.3946C54.7187 13.4174 56.0797 11.8973 57.222 12.0542C56.6022 12.9228 51.535 17.1813 50.2834 18.2912C49.0925 19.3529 47.926 20.4024 46.6865 21.4037C46.1275 21.8501 43.843 23.8648 43.1261 23.913ZM58.4857 10.0033C58.3521 8.66418 59.8953 7.83177 60.7945 7.79558C60.1748 8.84514 59.5672 9.72581 58.4857 10.0033ZM32.7365 39.3549C31.9831 38.3174 32.457 37.7866 33.4413 36.6405C40.6715 28.2199 45.8724 28.7989 44.3291 31.4892C43.9767 32.0924 40.878 34.9274 39.5535 34.6138C40.6107 33.0213 42.2147 32.6835 43.2112 31.0428C40.0153 30.2587 35.0574 36.363 32.7365 39.3549ZM56.8574 15.8181C56.7845 17.0245 54.9982 17.9172 54.1112 18.617C52.8474 19.6183 51.7902 21.1383 51.0611 21.3555C51.8631 18.5446 54.5851 16.9159 56.8574 15.8181ZM24.0845 55.2914C24.3883 54.3263 27.3654 52.3237 28.374 51.5516C29.1153 50.9966 29.9051 50.4296 30.6707 49.8988C31.3026 49.4766 32.299 48.4632 33.0159 48.6442C32.0924 49.8988 27.973 52.9872 26.3569 54.2539C25.3118 55.0622 25.166 55.5568 24.0845 55.2914ZM36.3819 44.4338C35.5313 45.2663 34.9116 46.6295 33.5263 46.4485C34.1947 45.4472 35.2883 43.9272 36.3819 44.4338ZM62.8117 15.5768C62.8725 16.3489 62.3257 16.7229 61.7424 17.3864C61.5236 16.4092 61.7545 15.8543 62.8117 15.5768ZM54.0747 7.92828C53.1147 8.64006 50.6479 10.0395 50.49 11.1735L51.4257 10.6427C51.0733 11.3062 47.525 15.7699 46.5893 15.5889C45.9817 15.7216 46.1397 15.8784 45.2769 16.7108C44.8152 17.1572 44.5721 17.2296 44.3534 17.7122C44.3291 17.7483 44.2927 17.869 44.2805 17.9293C42.555 19.0151 41.6193 20.2094 39.6993 20.9332C36.9409 21.9828 32.7 22.2241 29.7593 21.7415C27.8758 21.4399 28.0095 21.3313 25.9073 21.1383L25.008 21.0659C24.7407 21.078 24.8015 21.078 24.6192 21.1142L24.8865 24.4439C28.0702 26.1931 31.5821 25.8433 34.6443 25.3848C35.2032 25.3004 35.4584 25.3125 36.1389 25.6261C33.7937 26.929 30.4034 27.0014 27.9001 26.6033C26.8915 26.4465 25.8465 26.0242 24.8501 25.9036L24.4977 28.2561C26.7214 29.4866 29.4069 29.7279 31.4484 30.5C27.8394 31.3203 26.1503 29.4021 23.8658 29.559L22.7721 31.2721L29.1639 33.2264C30.2818 33.5401 30.5735 33.6487 30.5492 34.6258L27.7786 34.1674C25.5063 35.9891 21.8243 40.7181 17.5591 44.084L17.4376 43.4929C16.8665 43.71 16.1252 44.6389 15.6391 45.2059L13.9744 47.4136L15.1774 48.8493C15.9308 48.1616 18.6284 46.5692 19.5034 46.1349C18.4948 47.5825 17.0609 48.427 15.9915 49.9953C17.0366 49.9712 18.2882 49.368 19.0537 49.368C19.1267 49.8506 19.078 50.2366 19.2968 50.8519L20.6821 51.25L18.4583 53.9041C19.3575 53.9523 21.8486 53.1078 22.4076 53.7231C22.7721 54.6038 22.5291 55.1949 22.3833 56.2565C22.1524 57.9214 22.201 59.5741 22.1038 61.2872C22.0795 61.7939 22.0673 61.999 21.9944 62.5539C21.8 63.9895 21.8851 63.5552 22.1767 63.9775L33.2347 51.25C33.2347 51.2017 33.2468 51.1414 33.259 51.1052C33.2711 51.069 33.2833 51.0087 33.2833 50.9604C33.4899 50.2004 34.1096 49.3439 34.9116 47.7514C35.2154 47.1362 36.4427 45.0612 36.3819 44.4338C36.9288 43.7462 36.9652 43.3119 37.3176 42.5519C37.5485 42.0452 38.3384 41.1404 38.3991 40.8026C38.0224 40.8147 38.0832 40.8629 37.7551 40.9474C37.0503 41.1163 37.6822 41.1163 37.0503 41.0318C36.9288 39.4273 38.9338 40.2476 42.5064 36.2062C46.808 31.3444 50.1254 22.779 55.4843 19.5097C56.0433 19.1719 57.9268 18.0499 58.583 17.9414C58.583 18.3877 58.6316 18.2671 58.3642 18.7376C59.2756 18.7497 62.8968 18.0379 63.5408 17.4347C64.3185 16.2645 63.6137 14.7082 62.8603 13.6225C62.0705 13.8879 59.7374 15.0943 59.0204 15.0701C58.4979 13.9603 59.3971 13.912 60.0411 12.7901L58.6923 12.2954C61.0497 8.26607 63.8203 9.61724 59.1905 4.104L55.5329 7.65081C54.8646 8.25401 54.7673 8.39878 54.0747 7.92828Z" fill="#A57E70"/>
<path fill-rule="evenodd" clip-rule="evenodd" d="M7.43673 54.2539L8.63974 56.0876C7.30306 56.0152 7.04788 55.3517 7.43673 54.2539ZM2.86772 47.2688C4.16795 44.7957 5.39526 45.9056 8.3481 47.5342C11.0822 49.0422 11.6898 50.1401 13.7556 52.1909C13.5125 52.3116 12.9779 52.4443 12.6012 52.2995C12.0057 52.0703 9.72123 48.9095 5.51678 47.1844C3.71834 46.4485 3.77909 47.3412 2.86772 47.2688ZM11.8842 62.3005C11.0458 63.4104 10.6569 63.0123 9.41744 62.2643C7.53394 61.1062 6.25802 59.5982 5.05501 57.8127C4.31377 56.7029 4.00997 56.4495 4.94565 55.2793C7.76482 59.4414 6.12436 58.8261 11.8842 62.3005ZM4.14364 50.2004C8.49392 49.1026 16.5261 57.8248 14.9221 60.4909C14.3024 61.5284 13.4518 61.058 12.5769 60.5151C11.1308 59.6223 11.0215 59.8274 10.6205 58.4763L13.6705 60.0084C14.8492 57.3905 9.25947 52.6976 7.02358 51.7446C5.78411 51.2258 4.41098 51.3706 4.14364 50.2004ZM16.8785 56.9683C18.0937 58.8261 18.7013 60.4668 18.7013 62.1196C18.7013 63.9654 17.7292 64.7495 16.198 65.7267C15.0801 66.4505 15.2259 66.3178 14.8735 66.1128C14.5454 64.3876 17.9722 64.4238 17.5833 61.637C17.3524 60.0325 16.2224 58.0299 16.8785 56.9683ZM21.3868 54.7606C19.7706 54.1453 18.4339 55.6654 16.757 55.3638C16.5261 54.2901 16.9757 54.3383 17.6319 53.2405C17.3768 52.4081 17.073 53.1561 17.0608 52.2151C17.0608 51.7808 17.4132 51.5395 17.4618 50.9242C17.0487 50.9363 16.4532 51.0207 15.9672 51.1414C13.0751 48.8613 13.0629 46.931 9.13796 45.0853C6.67118 43.9271 3.4267 42.1899 1.87129 45.0008C0.522461 47.4377 1.57965 56.5702 3.03785 59.4534C5.32235 64.0378 8.06861 65.7267 12.6741 67.5966C14.4361 68.3084 15.0558 68.5255 16.5383 68.2722C19.564 67.7655 20.6212 64.9184 21.0344 62.1799L21.3868 54.7606Z" fill="#DDB496"/>
<path fill-rule="evenodd" clip-rule="evenodd" d="M13.9141 40.3804C13.112 41.5868 11.5931 43.8307 10.2564 44.0961C10.0134 43.0948 10.8397 42.4795 11.7146 41.7316C12.3708 41.1646 13.2214 40.4407 13.9141 40.3804ZM17.596 35.4583C18.1793 34.4811 18.8112 33.9986 19.7711 34.0348C19.8197 34.3484 19.3337 35.0723 18.8841 35.2894C18.556 35.4583 17.9362 35.4945 17.596 35.4583ZM15.6396 45.206C16.1256 44.639 16.8669 43.7101 17.438 43.4929C18.0821 42.1297 20.6582 40.0306 21.8612 38.8242C23.5017 37.1835 24.9599 35.398 26.5639 33.6849L24.3888 33.0938C22.8212 35.5669 21.8005 36.8457 19.3458 37.8108C18.5438 38.1244 14.3029 39.2826 13.6832 39.1861C14.2057 37.6419 16.4051 37.5574 18.3737 37.0749C20.2694 36.5923 21.8005 35.1808 23.0278 33.1782C22.3473 32.4664 19.1028 32.4785 18.4223 32.7801C17.4623 33.2023 15.1778 35.1567 14.1935 35.9167C11.4959 38.0159 8.40937 40.1391 5.88184 42.3348C7.02409 42.9862 12.7475 46.147 13.586 46.2073C14.5581 45.5197 14.5459 44.8803 15.6396 45.206Z" fill="#776671"/>
<path fill-rule="evenodd" clip-rule="evenodd" d="M53.5883 23.9735C54.0744 23.4427 54.4389 23.2376 55.0587 23.2376C54.4268 24.3475 53.9164 24.9386 52.9321 25.6142C52.8714 25.023 53.0901 24.5164 53.5883 23.9735ZM58.3639 18.7377C56.8085 20.0527 55.484 20.1975 52.9564 23.0566C51.1337 25.1196 49.797 27.2428 48.3874 29.5953C47.0143 31.8995 45.5804 34.0469 43.8549 36.146C40.6833 40.0065 41.5339 38.6433 38.3988 40.8027C38.3381 41.1405 37.5482 42.0453 37.3173 42.552C36.9649 43.312 36.9285 43.7463 36.3816 44.434C36.4424 45.0613 35.2151 47.1363 34.9113 47.7516C34.1093 49.344 33.4896 50.2005 33.283 50.9606C33.283 51.0088 33.2708 51.0692 33.2587 51.1053C33.2465 51.1415 33.2344 51.2019 33.2344 51.2501C35.8105 48.5598 38.2773 45.2061 40.8048 42.359C43.3688 39.4757 46.0057 36.6889 48.4604 33.685C52.6405 28.5578 56.0308 25.578 60.0287 21.1264C60.9036 20.1613 63.6134 18.6895 63.5405 17.4348C62.8965 18.038 59.2753 18.7498 58.3639 18.7377Z" fill="#776671"/>
<path fill-rule="evenodd" clip-rule="evenodd" d="M44.2804 17.9293C44.2926 17.869 44.329 17.7483 44.3533 17.7121C44.5721 17.2296 44.8151 17.1572 45.2769 16.7108C46.1396 15.8784 45.9817 15.7216 46.5892 15.5889C46.4556 15.0098 46.2611 14.9253 46.8566 14.2739C47.1725 13.924 47.7436 13.4897 48.1082 13.164C48.9102 12.4643 49.6636 11.837 50.4899 11.1735C50.6479 10.0394 53.1147 8.64002 54.0746 7.92825L58.3642 3.41632C57.9875 2.86138 58.0604 2.789 57.3313 2.53565C56.3227 3.19917 46.9416 12.5246 43.8916 13.719C45.3498 11.2458 47.8895 9.68959 50.016 7.8438C52.1425 6.01008 54.3663 4.15223 56.3834 2.25818C54.4756 0.907019 51.863 4.06778 50.1983 5.51545C46.2733 8.92956 42.0202 13.0192 38.3018 16.1679C35.8958 18.1947 32.7364 19.5338 32.3232 20.6919C35.1181 20.8126 34.6442 20.8608 36.1024 19.4976C36.7829 18.8582 39.0795 17.2899 39.8694 17.4829C39.6021 18.2188 37.8036 19.4493 37.1353 20.1852C38.2654 20.1129 39.4927 19.8113 40.7443 19.3046C42.3483 18.6531 43.1382 17.5674 44.2804 17.9293Z" fill="#776671"/>
<path fill-rule="evenodd" clip-rule="evenodd" d="M20.8159 25.4934C20.1597 25.3245 19.4549 24.5403 20.1597 24.2025C20.585 23.9974 21.5449 24.5765 20.8159 25.4934ZM21.2898 28.8954C20.3298 29.1487 19.9652 28.8471 19.4427 27.8096C18.981 26.8807 18.9688 26.6997 19.8437 25.9156L21.2898 28.8954ZM18.8351 24.3955C17.9116 25.7829 18.0574 25.4813 18.2762 26.5912C18.58 28.1836 17.5714 29.945 18.5435 30.7894C19.1632 31.3202 20.2569 31.2479 20.7065 31.091C22.2983 30.5602 23.2583 28.4008 23.3677 27.0255C22.6872 26.8083 22.7115 26.9531 22.0432 26.7359C22.6629 24.7092 21.1682 23.8044 21.6908 22.5739C23.2097 23.5269 22.9302 24.0095 23.5743 25.1314C23.9388 18.9426 20.8402 21.3795 18.8351 24.3955Z" fill="#DDB496"/>
<path fill-rule="evenodd" clip-rule="evenodd" d="M40.9756 22.2965C39.9792 22.2121 39.0071 22.5016 38.6061 23.7442C39.4445 23.7804 40.3924 23.4547 40.9756 22.2965ZM20.8161 25.4935C21.5452 24.5766 20.5852 23.9976 20.1599 24.2026C19.4551 24.5404 20.1599 25.3246 20.8161 25.4935ZM7.43717 54.254C7.04832 55.3518 7.3035 56.0153 8.64018 56.0877L7.43717 54.254ZM16.879 56.9684C16.2228 58.03 17.3529 60.0326 17.5838 61.6371C17.9726 64.4239 14.5459 64.3877 14.874 66.1129C15.2264 66.318 15.0805 66.4507 16.1985 65.7268C17.7296 64.7496 18.7017 63.9655 18.7017 62.1197C18.7017 60.4669 18.0941 58.8262 16.879 56.9684ZM9.41789 62.2645C10.6574 63.0124 11.0462 63.4105 11.8847 62.3007C6.1248 58.8262 7.76527 59.4415 4.94609 55.2794C4.01042 56.4496 4.31421 56.703 5.05545 57.8129C6.25847 59.5983 7.53438 61.1063 9.41789 62.2645ZM2.86816 47.269C3.77954 47.3413 3.71878 46.4486 5.51722 47.1845C9.72168 48.9097 12.0062 52.0704 12.6016 52.2996C12.9783 52.4444 13.513 52.3117 13.756 52.1911C11.6902 50.1402 11.0827 49.0424 8.34854 47.5344C5.3957 45.9057 4.16839 44.7958 2.86816 47.269ZM4.14408 50.2005C4.41142 51.3707 5.78455 51.2259 7.02402 51.7447C9.25991 52.6977 14.8497 57.3906 13.671 60.0085L10.6209 58.4764C11.0219 59.8275 11.1313 59.6225 12.5773 60.5152C13.4522 61.0581 14.3028 61.5286 14.9226 60.4911C16.5266 57.8249 8.49436 49.1027 4.14408 50.2005ZM24.0849 55.2915C25.1664 55.5569 25.3122 55.0623 26.3572 54.254C27.9734 52.9873 32.0928 49.8989 33.0163 48.6442C32.2994 48.4633 31.3029 49.4767 30.6711 49.8989C29.9055 50.4297 29.1157 50.9967 28.3744 51.5517C27.3658 52.3238 24.3887 54.3264 24.0849 55.2915ZM22.3472 52.6495C23.5988 52.4926 24.9477 51.419 25.7983 50.1402C25.1542 50.2729 22.5659 51.4793 22.3472 52.6495ZM31.4609 37.9676C28.338 40.0426 28.4473 44.0479 24.255 47.1121C23.611 47.5826 21.7761 48.5357 21.5817 48.982C21.6667 49.1509 21.5087 49.0665 21.8125 49.2113C22.5416 49.5611 23.8054 48.5236 24.6196 47.9928C25.7132 47.281 26.8312 46.34 27.6696 45.206C28.4716 44.1082 31.5703 38.8362 31.4609 37.9676ZM31.2543 44.6028C32.6761 44.0961 33.2715 43.4809 34.3895 42.0211C33.4173 41.9246 33.1743 42.1056 32.3358 42.7691C31.546 43.4085 31.1207 43.6498 31.2543 44.6028ZM36.3823 44.4339C35.2887 43.9272 34.195 45.4473 33.5267 46.4486C34.912 46.6296 35.5317 45.2663 36.3823 44.4339ZM19.7711 34.0348C18.8111 33.9986 18.1792 34.4811 17.5959 35.4583C17.9362 35.4945 18.5559 35.4583 18.884 35.2894C19.3336 35.0723 19.8197 34.3484 19.7711 34.0348ZM13.914 40.3804C13.2213 40.4407 12.3707 41.1646 11.7145 41.7316C10.8396 42.4796 10.0133 43.0948 10.2563 44.0961C11.593 43.8307 13.112 41.5868 13.914 40.3804ZM19.844 25.9157C18.9691 26.6999 18.9812 26.8808 19.443 27.8098C19.9655 28.8473 20.33 29.1489 21.29 28.8955L19.844 25.9157ZM32.7368 39.355C35.0578 36.3631 40.0157 30.2588 43.2115 31.0429C42.2151 32.6836 40.6111 33.0214 39.5539 34.6139C40.8784 34.9275 43.9771 32.0925 44.3295 31.4893C45.8727 28.799 40.6718 28.2199 33.4416 36.6406C32.4573 37.7867 31.9834 38.3175 32.7368 39.355ZM40.8177 27.484C40.1858 27.0377 40.0157 27.5323 38.363 28.606C37.4881 29.1609 36.6497 29.6435 35.872 30.2467L36.4917 30.9343C37.2572 30.6931 40.5989 28.1355 40.8177 27.484ZM38.3995 40.8027C41.5346 38.6432 40.684 40.0064 43.8556 36.146C45.5811 34.0468 47.015 31.8995 48.3881 29.5952C49.7977 27.2428 51.1344 25.1195 52.9571 23.0566C55.4847 20.1974 56.8092 20.0526 58.3646 18.7377C58.6319 18.2672 58.5833 18.3878 58.5833 17.9415C57.9271 18.05 56.0436 19.172 55.4847 19.5098C50.1258 22.7791 46.8084 31.3445 42.5067 36.2063C38.9342 40.2477 36.9291 39.4274 37.0507 41.0319C37.6825 41.1163 37.0507 41.1163 37.7555 40.9474C38.0835 40.863 38.0228 40.8147 38.3995 40.8027ZM55.0594 23.2375C54.4396 23.2375 54.0751 23.4426 53.589 23.9734C53.0908 24.5163 52.8721 25.023 52.9328 25.6141C53.9171 24.9386 54.4275 24.3474 55.0594 23.2375ZM62.8121 15.5769C61.7549 15.8544 61.524 16.4093 61.7427 17.3865C62.326 16.723 62.8728 16.349 62.8121 15.5769ZM58.4861 10.0034C59.5676 9.72589 60.1752 8.84522 60.7949 7.79565C59.8957 7.83185 58.3524 8.66426 58.4861 10.0034ZM43.1265 23.9131C43.8434 23.8649 46.1279 21.8502 46.6869 21.4038C47.9264 20.4025 49.0929 19.3529 50.2838 18.2913C51.5354 17.1814 56.6026 12.9228 57.2223 12.0542C56.0801 11.8974 54.7191 13.4175 53.5404 14.3946L44.2444 21.9949C43.333 22.6947 42.6283 22.9721 43.1265 23.9131ZM56.8578 15.8182C54.5854 16.916 51.8635 18.5446 51.0615 21.3556C51.7906 21.1384 52.8478 19.6183 54.1115 18.617C54.9986 17.9173 56.7849 17.0246 56.8578 15.8182ZM50.4903 11.1736C49.664 11.8371 48.9106 12.4644 48.1086 13.1641C47.7441 13.4898 47.173 13.9241 46.857 14.274C46.2616 14.9255 46.456 15.0099 46.5897 15.589C47.5254 15.7699 51.0736 11.3063 51.426 10.6428L50.4903 11.1736Z" fill="black"/>
<path fill-rule="evenodd" clip-rule="evenodd" d="M36.9536 48.3909C37.8771 49.5128 39.1409 50.9002 40.2832 51.7326C41.1216 52.3478 42.0694 52.9752 42.9201 53.3371C45.083 54.2901 46.3833 54.2539 49.1174 54.447L52.0702 54.3987L54.8408 53.88C56.2139 53.4457 56.943 53.506 57.5263 53.7352L57.7207 52.9028C57.5628 52.8063 57.4291 52.6736 57.3197 52.4082C56.9916 52.2031 56.943 52.1066 56.7607 51.3465C56.6635 50.9846 56.6028 50.5986 56.5177 50.2366C56.3233 49.4525 56.0924 48.801 55.7886 48.0289C55.3026 46.8105 55.0717 46.5209 54.1725 45.8212C52.8844 44.8079 51.5842 44.072 50.0409 43.4808C48.449 42.8535 46.5048 42.5157 44.7914 42.3468C43.88 42.2624 42.592 42.3348 41.7778 42.2141C41.2188 42.2986 40.7085 42.2986 40.113 42.3348C37.95 42.4916 34.9851 42.6605 32.9922 43.0465C33.5147 44.1564 33.6848 44.3856 34.3896 45.2542C35.2767 46.34 36.0058 47.3292 36.9536 48.3909Z" fill="black"/>
<path fill-rule="evenodd" clip-rule="evenodd" d="M55.8736 51.8292C56.3354 45.9661 49.5791 44.06 49.1416 44.2168C49.1902 45.194 53.1395 49.5853 53.8686 50.4298C54.4883 51.1416 54.9379 51.8413 55.8736 51.8292Z" fill="#47B960"/>
<path fill-rule="evenodd" clip-rule="evenodd" d="M45.7758 47.9808C44.9981 46.6658 44.2811 45.2181 43.4913 43.9755C42.6528 42.6485 42.1181 42.8656 39.6514 43.0949C40.1131 43.8187 40.4655 44.1444 40.8544 44.9527C41.5349 46.3763 42.2275 46.9795 43.8194 47.462C44.5606 47.6912 44.8644 47.9928 45.7758 47.9808Z" fill="#47B960"/>
<path fill-rule="evenodd" clip-rule="evenodd" d="M49.652 49.4284C48.9108 48.1255 48.0237 46.8105 47.2338 45.4955C46.1523 43.6859 46.2131 42.7811 43.9043 43.2034C45.2531 45.8695 47.088 49.4646 49.652 49.4284Z" fill="#187D49"/>
<path fill-rule="evenodd" clip-rule="evenodd" d="M52.3622 51.5275C52.0463 51.238 51.3779 50.9846 50.9162 50.9243C49.4944 50.7192 44.7917 52.6977 44.415 52.9993C44.7917 53.313 47.5259 53.7714 48.0605 53.6387C49.0205 53.3853 51.2686 52.0101 52.3622 51.5275Z" fill="#187D49"/>
<path fill-rule="evenodd" clip-rule="evenodd" d="M45.5326 49.1628C45.3139 48.6923 45.569 48.9336 44.9736 48.7165C44.7063 48.62 44.5605 48.5838 44.3174 48.4873C43.2116 48.0891 40.3317 49.0422 39.3474 49.573C39.396 49.754 40.5504 51.5394 41.9965 50.9845C42.7985 50.6829 45.0465 49.6936 45.5326 49.1628Z" fill="#39DE5D"/>
<path fill-rule="evenodd" clip-rule="evenodd" d="M48.7532 50.3572C48.0727 49.5851 46.8575 49.3559 45.5451 50.0315C44.4636 50.5985 43.0905 51.1655 42.167 51.8411C43.1999 52.7821 43.2485 52.3719 45.4479 51.7566C46.4808 51.4671 48.1334 51.1896 48.7532 50.3572Z" fill="#47B960"/>
<path fill-rule="evenodd" clip-rule="evenodd" d="M52.3376 50.3695C51.8637 49.3802 50.5392 47.8602 49.8709 46.8588C49.1539 45.7972 48.0481 43.5774 47.2947 43.6981C47.2097 44.7356 48.7165 46.8709 49.3483 47.7516C50.0531 48.7408 51.2561 50.6107 52.3376 50.3695Z" fill="#39DE5D"/>
<path fill-rule="evenodd" clip-rule="evenodd" d="M39.7364 46.7742C39.3476 46.159 37.78 45.5799 37.0145 45.2421L34.9973 44.5544C36.6135 47.1723 37.3061 48.0771 39.7364 46.7742Z" fill="#39DE5D"/>
<path fill-rule="evenodd" clip-rule="evenodd" d="M55.4848 52.7942C53.9537 51.6119 51.9973 52.0945 49.8586 53.6748C51.3047 54.2418 53.8444 53.4818 55.4848 52.7942Z" fill="#39DE5D"/>
<path fill-rule="evenodd" clip-rule="evenodd" d="M40.6482 45.7971C40.4052 45.3628 39.0806 43.5894 38.7404 43.4084C38.4366 43.2516 36.0913 43.3722 35.7754 43.7221L39.8219 45.7368C40.3444 45.9298 40.0528 45.9177 40.6482 45.7971Z" fill="#187D49"/>
<path fill-rule="evenodd" clip-rule="evenodd" d="M42.2639 47.824C40.9758 46.8347 39.6392 47.8119 37.9258 48.1376C38.5577 49.1269 38.5577 48.8856 39.8093 48.6081C40.6842 48.4271 41.4376 48.1256 42.2639 47.824Z" fill="#187D49"/>
</g>
<defs>
<clipPath id="clip0_1_214">
<rect width="109" height="70" fill="white"/>
</clipPath>
</defs>
</svg>
