<svg width="50" height="60" viewBox="0 0 50 60" fill="none" xmlns="http://www.w3.org/2000/svg">
<path fill-rule="evenodd" clip-rule="evenodd" d="M24.2955 47.7369C26.2207 48.8527 27.475 48.1016 28.4157 46.7379C29.4221 45.2794 28.9918 44.7617 28.7512 43.0407C23.4277 43.3542 19.1107 43.5219 14.3779 42.625C7.36991 41.2978 3.09657 37.2359 1.09846 31.3218C-1.15489 24.6638 -0.133954 19.7123 6.18125 16.088C6.53129 9.02168 7.15114 4.42019 14.7936 1.18237C18.3012 -0.30528 21.5974 0.0885088 26.1113 2.495C29.1596 4.1212 29.8086 5.14213 32.5724 10.3781C34.3663 13.7836 36.9478 17.9257 39.3033 17.3642C42.9203 16.5037 42.8401 13.3898 43.2411 13.3023C43.3578 13.5065 44.1162 14.7608 44.2402 14.9504C46.1362 17.933 48.8198 20.1572 49.1115 23.0085C49.5272 27.0849 45.881 28.4559 43.7881 31.3874C45.8299 31.7083 47.4197 31.7666 49.4543 31.6572C49.3668 34.2096 47.551 35.6243 45.6914 37.0171C43.5766 38.5923 41.2212 38.3225 38.9532 37.5349C35.5841 36.3681 33.7829 34.9753 32.2369 33.0501C28.2553 28.0986 26.9718 21.7688 19.6211 20.8208C17.324 20.5218 15.1144 21.0104 14.6769 23.7158C14.2612 26.29 15.3988 27.5225 16.8865 30.2498C18.5929 29.5789 18.5564 29.5789 19.5044 28.4413C19.942 27.9162 19.9639 27.9892 20.6785 28.2298C23.8069 29.2726 25.929 33.5022 28.547 35.4201C31.1723 37.338 34.1548 38.286 38.0854 39.5184C40.3096 40.4591 41.0753 40.5612 41.6441 41.553C43.6568 45.0606 43.2922 47.6203 41.7389 49.4944C38.8001 53.0312 33.1558 54.5553 29.021 52.8708C27.2562 52.0395 25.6082 51.6092 25.1342 52.5864C24.2226 54.4751 26.9573 56.2107 27.0958 57.8515C27.3073 60.3163 25.2363 59.711 23.2381 58.5807C20.3795 56.9618 18.4762 55.2408 17.4699 52.9583C16.3833 50.4935 16.2447 48.5099 17.324 46.2931C17.6668 45.5784 19.519 44.2512 20.4306 44.222C21.9036 44.171 23.0777 47.015 24.3174 47.7369H24.2955ZM4.4092 25.0576C5.08739 23.5992 7.45742 20.252 9.28052 21.9511C9.51387 22.1698 9.70347 22.4105 9.85661 22.673C10.8848 24.4597 10.2358 27.1578 10.8338 29.156C11.038 29.8341 11.2713 30.4467 11.3443 31.1103C11.4245 31.8468 12.2485 33.2397 11.5995 33.6262C10.2796 34.4138 6.45836 34.0054 5.63432 32.6636C3.82581 29.7248 2.89239 28.5434 4.4092 25.0503V25.0576ZM12.3871 15.1765C12.037 11.9095 11.6578 9.6707 13.6195 7.73822C15.8582 5.53592 20.1535 6.19223 22.8808 7.14024C17.098 9.71446 22.9975 14.2066 25.6373 16.9995C26.8552 17.9549 28.0657 18.9029 29.2835 19.8582C32.4265 21.6375 33.9725 22.4324 37.4 22.5491C38.3115 22.5782 41.4399 23.147 40.769 24.4888C40.5648 24.9045 40.2659 25.2399 39.9304 25.5243C38.6907 26.589 36.9478 26.9537 37.4656 28.0913C38.1365 29.5789 38.7345 29.382 38.9314 31.2416C39.1793 33.5824 35.905 31.3947 35.0518 30.3811C34.658 29.9144 33.3235 28.1861 32.9297 27.6975C32.5359 27.2016 30.8879 25.3566 30.319 24.6201C29.7502 23.8836 26.9937 21.0249 26.7458 20.777C26.4978 20.5291 24.7258 18.8518 24.033 18.2174C21.0942 15.4827 19.3513 14.5274 16.9229 14.5274C15.6759 14.5274 14.2466 14.7827 12.3725 15.1837L12.3871 15.1765ZM33.0974 45.8263C33.1995 46.4024 33.7173 46.541 34.2132 47.2338C34.4611 47.5765 34.782 48.3933 34.7528 48.7141C34.7309 49.035 34.483 49.3559 34.8257 49.5236C35.9123 50.0705 35.9925 49.1444 36.4301 48.2401C36.6343 47.8099 36.8093 47.4744 36.9332 47.1681C37.2176 46.4535 37.2395 45.8847 36.7655 44.6741C36.4301 43.8136 35.8175 43.0917 34.8768 43.0917C34.308 43.0917 33.3746 42.9459 33.3746 42.9459C33.4256 43.8866 32.9881 45.2065 33.0974 45.8263Z" fill="#CBFA20"/>
</svg>
