<svg width="56" height="65" viewBox="0 0 56 65" fill="none" xmlns="http://www.w3.org/2000/svg">
<path fill-rule="evenodd" clip-rule="evenodd" d="M23.7946 42.3792C29.5203 38.8549 35.0854 36.4267 37.4947 32.7702C40.5276 28.1689 38.6379 15.4797 38.4395 9.41391C45.2234 15.527 50.1366 26.128 48.9366 34.3575C48.2185 39.2801 45.7525 43.5697 38.9592 44.9869C23.0954 48.3033 26.8275 42.587 13.8644 54.0006C14.8943 48.7285 19.7602 45.4026 23.7851 42.3792H23.7946ZM12.6833 64.0442C10.0756 59.4807 9.13077 57.5532 9.34808 55.0399C9.72601 50.6748 11.6346 47.6513 14.2329 45.1286C16.5666 42.861 19.8357 40.4045 23.0954 38.014C28.1125 34.3386 33.5925 31.4096 33.5453 24.3706C33.4791 14.0908 25.3441 2.38435 15.2344 0.437988C16.5666 2.73393 17.7288 5.05823 18.872 7.44866C20.516 10.9067 20.6577 14.4688 20.2515 18.0213C19.4767 24.6919 16.8501 30.2475 13.1085 35.1984C8.35601 41.491 0.759541 46.3002 0.655609 53.7361C0.551678 61.2947 6.63641 64.6111 13.3636 64.6111C13.1369 64.4221 12.9101 64.2426 12.6833 64.0537V64.0442ZM16.8028 58.6303C20.1003 49.1442 29.1424 50.8449 36.975 50.4669C43.8629 50.1363 50.9302 42.6626 53.6513 36.7763C55.7394 37.929 55.73 45.6672 53.4718 52.659C51.5444 58.6587 47.68 64.0631 45.2612 64.8473C42.4078 58.9232 37.1829 55.9092 30.484 55.3234C25.5803 54.8888 20.6011 56.6462 16.8028 58.6398V58.6303Z" fill="#ADD3EE"/>
</svg>
