<svg width="49" height="67" viewBox="0 0 49 67" fill="none" xmlns="http://www.w3.org/2000/svg">
<path fill-rule="evenodd" clip-rule="evenodd" d="M20.4879 66.2827C13.9536 59.2656 7.40434 52.2484 0.870117 45.2313C0.870117 37.9577 0.870117 30.684 0.870117 23.4103C4.02405 20.2413 7.19307 17.0874 10.3621 13.9184C14.3611 27.6508 18.3752 41.3983 22.3742 55.1307C23.3853 58.6318 24.004 64.0493 20.503 66.2827H20.4879ZM28.6971 66.2827C35.2314 59.2656 41.7807 52.2484 48.3149 45.2313C48.3149 37.9577 48.3149 30.684 48.3149 23.4103C45.161 20.2413 41.9919 17.0874 38.8229 13.9184C34.7937 27.7413 30.7645 41.5492 26.7354 55.3722C25.6941 58.9487 25.1358 64.0342 28.6821 66.2827H28.6971ZM26.7354 38.9235C26.9617 38.2444 27.173 37.5502 27.3994 36.8711C30.0251 28.7071 32.6509 20.5582 35.2766 12.3942C35.8652 10.5381 35.9104 11.0512 34.6881 9.51192C32.2132 6.38817 29.7384 3.26442 27.2635 0.155762C25.1659 0.170852 23.0684 0.201033 20.9557 0.216124C18.8279 2.78152 16.7001 5.36201 14.5724 7.92741C13.0029 9.82882 13.0029 9.19502 13.8178 11.4586C16.7756 19.849 19.5975 28.5411 22.5553 36.9617C23.4758 39.6176 23.34 39.8893 24.9698 39.7685C26.1619 39.678 26.4034 39.9647 26.7505 38.9235H26.7354Z" fill="#A8805D"/>
</svg>
