<svg width="47" height="69" viewBox="0 0 47 69" fill="none" xmlns="http://www.w3.org/2000/svg">
<g clip-path="url(#clip0_1_24634)">
<path fill-rule="evenodd" clip-rule="evenodd" d="M24.5889 68.9994C20.2155 68.403 14.8566 64.4178 10.6803 61.4738C7.4988 59.2398 7.1891 58.0186 6.56969 54.4026C5.82827 51.2125 5.34964 49.2719 4.15774 46.1576C2.89077 43.9803 1.65195 42.1818 0.610221 39.872C-0.234427 37.6854 0.122202 35.6312 0.441292 33.5202C0.882386 30.6047 0.779151 29.9988 0.00958252 27.1022C3.67911 29.4971 4.08266 30.245 4.76777 34.5331C5.75319 33.3215 6.72923 32.1003 7.71465 30.8887C11.5343 26.1556 18.4511 19.9742 20.9944 16.6326C24.3824 12.193 23.885 9.04078 26.0717 0.000610352C27.7704 4.77155 30.8768 14.1336 29.15 18.7057C28.4179 20.6368 26.9633 22.4733 24.4199 24.3002C19.6336 27.4524 16.6679 30.1219 13.9087 34.2207C9.92013 40.1371 9.66673 44.4726 12.9609 48.6661C15.7107 52.1686 19.0705 53.4938 22.6368 53.2193C29.4878 52.6987 35.0719 47.3219 34.2554 41.3961C33.6641 37.1079 29.9852 34.0504 26.7474 33.7948C24.9173 33.6528 23.2186 34.4101 22.2895 36.3506C21.8484 37.2878 23.7911 37.5528 24.8141 37.6286C26.0435 37.7232 26.5128 39.2094 26.4283 40.3075C26.2218 42.9769 24.9549 44.2359 23.2186 44.4442C19.399 44.8891 17.8223 42.6362 17.4187 39.7679C16.8369 35.6501 18.9109 32.9049 21.6889 30.7845C25.0863 28.1908 27.3574 27.9542 30.5296 27.9068C32.4347 27.8784 35.0719 27.4619 36.4984 28.986C38.9667 31.627 39.22 33.9746 42.242 36.7671C44.1472 38.5278 45.2827 32.9239 45.4141 31.485C46.9439 35.8679 47.2724 39.5881 46.8125 43.8194C45.8646 52.5093 31.0926 63.3292 24.5982 68.9994H24.5889Z" fill="#F75F0D"/>
</g>
<defs>
<clipPath id="clip0_1_24634">
<rect width="47" height="69" fill="white"/>
</clipPath>
</defs>
</svg>
