<svg width="61" height="63" viewBox="0 0 61 63" fill="none" xmlns="http://www.w3.org/2000/svg">
<path fill-rule="evenodd" clip-rule="evenodd" d="M32.5338 0.313711L6.35948 31.8642L26.9447 49.4502L26.8381 62.9999L54.4588 30.4123L33.044 12.5179L32.5282 0.308105L32.5338 0.313711ZM7.85067 26.8468L3.66861 32.0436L24.3939 49.4222L24.0464 55.5551L21.9497 52.298L21.9441 50.4705L0.355469 32.3687L4.83465 27.0094L7.85067 26.8468ZM52.8499 35.3736L57.032 30.1768L36.3067 12.7982L36.6542 6.66529L38.7509 9.92237L38.7565 11.7499L60.3451 29.8517L55.8659 35.211L52.8499 35.3736ZM25.7226 20.6186L29.1366 23.102L33.2234 18.8359L29.8598 15.8591L25.7226 20.6186ZM13.7594 31.2475L21.4676 22.6592L30.5213 29.4873L37.3774 22.3508L46.56 30.2385L30.8352 46.1427L13.765 31.2475H13.7594Z" fill="#00A2FF"/>
</svg>
