<svg width="59" height="55" viewBox="0 0 59 55" fill="none" xmlns="http://www.w3.org/2000/svg">
<path fill-rule="evenodd" clip-rule="evenodd" d="M44.9456 52.5085C48.0555 45.3657 49.5061 41.7173 49.8247 35.9591C50.3302 27.047 45.9346 22.4535 37.2972 19.8162C38.561 15.97 40.3962 14.4096 42.9786 11.4205C37.3632 9.68428 27.7588 9.84912 27.7917 21.8931C25.2533 23.1788 23.1544 24.2338 23.7258 27.5854C24.1214 26.3766 24.1873 25.7612 25.1104 24.8382C26.6818 23.2447 28.6049 23.2557 31.0335 23.6623C34.8906 24.3107 37.3192 26.014 39.7918 29.8711C42.4621 34.036 42.9896 38.2668 40.9786 44.1569C36.6159 56.9591 12.7587 58.9921 4.49498 44.2228C1.03344 38.036 -0.977557 28.8052 3.54992 16.9151C4.45103 14.5414 7.79169 9.39856 9.17631 7.59636C9.44005 12.4205 10.506 15.7282 12.9675 18.1898C14.0115 13.7173 14.0005 12.9151 16.9675 8.73922C20.2203 4.16778 26.0445 1.1458 32.2862 0.78316C39.6599 0.354588 47.539 3.39855 51.4182 8.55241C55.5061 13.97 54.8577 21.9041 55.6489 31.9151C56.7588 31.6184 57.7588 29.0579 58.0006 32.1678C58.3962 37.3437 58.1434 40.4646 57.7039 45.6404C56.583 43.8052 55.7259 41.3437 53.6709 40.5195C52.9456 42.1789 47.0335 53.5415 44.9456 52.4976V52.5085Z" fill="#67C5B0"/>
</svg>
