<svg width="81" height="81" viewBox="0 0 81 81" fill="none" xmlns="http://www.w3.org/2000/svg">
<mask id="mask0_1_11373" style="mask-type:alpha" maskUnits="userSpaceOnUse" x="0" y="0" width="81" height="81">
<rect width="81" height="81" fill="#D9D9D9"/>
</mask>
<g mask="url(#mask0_1_11373)">
</g>
<g clip-path="url(#clip0_1_11373)">
<path fill-rule="evenodd" clip-rule="evenodd" d="M13.8406 37.083L15.7188 32.5865L12.5968 11.7151L17.183 10.6743L17.175 10.6042C17.1748 10.6019 17.0901 9.80367 17.1918 9.47884C17.2101 9.42034 17.2293 9.3531 17.2496 9.28107C17.321 9.02947 17.4069 8.72617 17.5284 8.50424L17.5312 8.47337C17.5493 8.25813 17.5673 8.05558 18.0619 7.67751C18.2242 7.55344 18.3132 7.46419 18.3843 7.393C18.5913 7.18554 18.7015 7.07535 19.1876 6.94781C19.3589 6.90295 19.447 6.86598 19.5147 6.83786C19.7204 6.75196 19.8114 6.71403 20.3368 6.72875C20.5571 6.73485 20.7254 6.7388 20.8648 6.74215C21.1862 6.74969 21.3675 6.75399 21.509 6.76775C21.6003 6.77673 21.7058 6.54402 22.1206 6.23439C22.8897 5.66059 24.0184 4.81843 25.0884 4.2518C26.1023 3.71497 27.4151 3.08362 28.3507 2.63353C28.9659 2.33765 29.4114 2.12337 29.4619 2.08868C29.659 1.953 30.6429 1.73956 31.5725 1.53784C32.0079 1.44345 32.4305 1.35168 32.7472 1.27535C33.1731 1.17282 33.8165 1.08955 34.4792 1.02853C35.3388 0.949565 36.2264 0.906494 36.7121 0.906494C37.1994 0.906494 37.8839 0.975169 38.5278 1.10019C39.0861 1.20871 39.6235 1.36233 39.996 1.55507C40.6395 1.88804 42.468 2.46459 42.7294 2.54643L46.1362 3.3369L46.169 3.34899C46.1721 3.35018 47.2705 3.75517 47.8542 4.0916L48.0042 4.17798C48.4588 4.43988 48.6158 4.53033 49.0063 4.77033C49.061 4.80395 49.1461 4.86054 49.2276 4.91486C49.4469 5.06082 49.6135 5.17185 49.8326 5.0564C50.0089 4.96355 50.115 4.88136 50.2093 4.80826C50.3984 4.66182 50.5528 4.54217 50.9917 4.40734L51.2923 4.31462C51.861 4.13587 52.4862 3.9393 52.9094 3.92123C53.0633 3.91465 53.2153 3.88737 53.3604 3.86141C53.6248 3.81415 53.8713 3.77 54.1546 3.81391C54.3543 3.8449 54.4421 3.87529 54.5299 3.9058C54.5977 3.92913 54.6654 3.9527 54.8991 3.97902C55.1948 4.01264 55.5729 3.85244 55.8798 3.72263C55.9416 3.69643 56.0012 3.67118 56.0986 3.6329C56.1844 3.59916 56.3116 3.53957 56.446 3.47664C56.8082 3.30699 57.2176 3.1152 57.5898 3.09774C57.7528 3.09008 58.356 3.0713 58.9989 3.05239C59.8497 3.02739 60.7373 3.00262 60.7886 3.00262C60.8768 3.00262 61.2237 3.01734 61.6204 3.05155C61.853 3.07154 62.1169 3.10025 62.3771 3.14021C62.7464 3.19692 63.3111 3.30496 63.7627 3.42532C64.1395 3.5257 64.4678 3.64582 64.626 3.77754C64.9146 4.01778 64.8948 4.27334 64.6736 4.53045C64.448 4.79259 63.8189 5.03438 63.5074 5.15402C63.4133 5.19016 63.5109 5.15115 63.4229 5.18573L63.4231 5.18633C63.3523 5.21408 63.2369 5.30393 63.1277 5.40898C63.3961 5.52898 63.7477 5.70354 64.1215 5.96448C64.5626 6.2722 64.8248 6.58925 65.0317 6.83942C65.1149 6.94004 65.1871 7.02726 65.2487 7.08313C65.4099 7.22945 65.5687 7.42889 65.7137 7.6866C65.8387 7.90854 65.9544 8.17379 66.0535 8.48533C66.1922 8.92203 66.6315 10.3563 66.8761 11.1568L69.3359 11.7151L62.281 58.878L44.6331 72.3252L43.3472 79.4077L38.3833 75.7339L36.6739 74.7358L36.5281 74.5218C36.5242 74.5163 35.2041 72.5859 35.101 72.4572C34.9105 72.2198 34.4438 71.6154 34.0083 71.049C33.8032 71.3373 33.5953 71.6458 33.4203 71.9055C33.3097 72.0697 33.2134 72.2126 33.0968 72.3788C32.9185 72.633 32.5183 73.1678 32.1651 73.6169C31.8821 73.9763 31.5982 74.3219 31.4103 74.5193C31.1535 74.7889 30.5316 75.1711 29.8775 75.5159C29.1499 75.8997 28.318 76.2793 27.9485 76.3899C27.6589 76.4765 27.2266 76.5455 26.7898 76.5969C26.1269 76.675 25.4 76.7212 25.2292 76.7212C24.9663 76.7212 23.2302 76.81 23.2253 76.8102L21.5873 76.8985L22.0321 75.3213C22.0328 75.3188 22.2861 74.4276 22.2861 74.2908C22.2861 73.927 22.4401 73.6709 22.6777 73.2755C23.0626 72.6348 23.8853 71.2659 23.9605 69.8891L23.9673 69.7656L24.4522 67.8309L24.5529 67.6723C24.8689 67.1755 25.0626 66.8408 25.2152 66.5775C25.563 65.977 25.7526 65.6495 26.1601 65.307C26.453 65.0605 26.7688 64.8895 27.2615 64.6764L19.6521 58.8784L18.9918 54.4639L18.2294 57.5722L16.9275 54.273L16.4978 56.3303L15.094 52.3726C15.0927 52.3689 14.8151 51.5787 14.5703 50.793L13.833 50.7163C13.8296 50.716 12.6321 50.6066 12.0682 50.0439C11.8017 49.778 11.584 49.3303 11.4072 48.8214C11.2625 48.4051 11.1421 47.9693 11.0466 47.588C10.8572 46.8324 11.0119 46.2719 11.155 45.7539L11.1562 45.7542C11.1968 45.6075 11.2349 45.4687 11.2349 45.3942C11.2349 45.0342 11.2776 44.4868 11.3793 43.9245C11.4595 43.4812 11.5807 43.0257 11.7536 42.6376C11.8866 42.3392 12.1824 41.5649 12.4485 40.8686C12.6066 40.4547 12.7531 40.0716 12.9031 39.7082C13.1428 39.1278 13.8117 37.1627 13.8136 37.1569L13.8412 37.0834L13.8406 37.083Z" fill="black"/>
<path fill-rule="evenodd" clip-rule="evenodd" d="M50.3163 3.68874C50.4301 3.64112 50.5633 3.59303 50.7249 3.54338L51.0169 3.45329L51.0226 3.45029C51.6406 3.25612 52.3195 3.04267 52.8696 3.01839C52.9687 3.01384 53.087 2.99278 53.1996 2.97256L53.2494 2.9618L53.25 2.96347C53.4033 2.93607 53.5501 2.91095 53.6717 2.90018C53.8591 2.88367 54.0596 2.88523 54.2925 2.92124C54.5711 2.96455 54.6977 3.00834 54.8239 3.05201L54.8335 3.05524L54.8346 3.05213L54.8352 3.05237L54.8341 3.05548C54.8506 3.06026 54.8825 3.06648 54.9978 3.07952C55.0628 3.08694 55.3171 2.97938 55.5245 2.89169L55.5239 2.89037L55.6275 2.84778L55.627 2.84658C55.6647 2.83103 55.7091 2.81296 55.7674 2.79011C55.8506 2.75733 55.9516 2.71007 56.0584 2.66006L56.062 2.65659L56.0652 2.65503L56.0659 2.65659C56.5026 2.452 56.9963 2.22157 57.5463 2.19489C57.5999 2.19226 57.7816 2.18604 58.0373 2.17778L58.9731 2.14931L60.1795 2.11461C60.5842 2.10337 60.7408 2.09595 60.7875 2.09595C60.8354 2.09595 60.9894 2.10205 61.2156 2.11533C61.3942 2.12574 61.5704 2.13746 61.6974 2.14847C61.8163 2.159 61.9553 2.173 62.1147 2.19166C62.2581 2.20853 62.3931 2.22612 62.5108 2.24418H62.5144C62.6936 2.2717 62.9615 2.32052 63.2826 2.38656C63.5424 2.43992 63.7939 2.49687 63.9958 2.55059C64.2147 2.60885 64.4343 2.67968 64.6409 2.76391C64.8622 2.85412 65.0553 2.96 65.2034 3.08335C65.2046 3.08335 65.2059 3.08335 65.207 3.08335C65.2647 3.13133 65.3176 3.18074 65.3655 3.23159C66.3545 3.88687 65.7085 4.9798 65.0195 5.51878C65.127 5.61091 65.2227 5.70148 65.3093 5.78953C65.4776 5.96074 65.6117 6.12274 65.7298 6.26559L65.8323 6.38296L65.8302 6.38475C65.8401 6.396 65.8494 6.40581 65.8582 6.41371C65.9762 6.52079 66.0939 6.64868 66.209 6.798C66.3157 6.93642 66.415 7.08514 66.5042 7.24366C66.5812 7.38041 66.6569 7.53463 66.7303 7.70704V7.71062C66.8044 7.88506 66.868 8.05316 66.9186 8.21252L67.2066 9.14729L67.5874 10.3916L70.3566 11.02L63.1237 59.3732L45.46 72.8325L43.977 80.9999L37.8773 76.4856L36.0362 75.4105L35.7778 75.0318L35.7742 75.0248C35.7719 75.0213 35.1928 74.1749 34.7711 73.5647C34.5698 73.2735 34.4141 73.0487 34.395 73.0226L34.3933 73.0239C34.3244 72.9381 34.2026 72.7825 34.0504 72.5867L34.0087 72.648C33.9491 72.7356 33.8923 72.818 33.8376 72.8959C33.7365 73.04 33.5766 73.2581 33.398 73.4955C33.1936 73.7671 33.0042 74.0155 32.8774 74.1765C32.7264 74.3684 32.5704 74.562 32.4221 74.7392L32.4203 74.7378C32.2794 74.9062 32.1567 75.0473 32.0656 75.1428C31.8953 75.3216 31.6378 75.5183 31.3328 75.7166C31.3081 75.7326 31.283 75.7487 31.2577 75.7649L31.6624 74.234C31.8147 74.0545 31.9894 73.8384 32.1636 73.6171C32.5169 73.1682 32.9169 72.6334 33.0954 72.379C33.2119 72.2128 33.3084 72.07 33.419 71.9058C33.594 71.6461 33.8018 71.3378 34.0069 71.0493C34.4423 71.6157 34.909 72.2201 35.0996 72.4575C35.2028 72.5862 36.523 74.5167 36.5267 74.5222L36.6726 74.7361L38.3819 75.7343L43.3458 79.408L44.6317 72.3255L62.2796 58.8784L69.3345 11.7154L66.8747 11.1572C66.6301 10.3566 66.1909 8.92236 66.0521 8.48567C65.9531 8.17412 65.8373 7.90887 65.7123 7.68694C65.5673 7.42923 65.4085 7.22978 65.2473 7.08346C65.1858 7.02759 65.1136 6.94037 65.0303 6.83975C64.8234 6.58946 64.5612 6.27253 64.1202 5.96481C63.7463 5.70387 63.3948 5.52931 63.1263 5.40931C63.2356 5.30427 63.3511 5.21441 63.4218 5.18666L63.4215 5.18606C63.5096 5.15148 63.4119 5.19049 63.5061 5.15435C63.8175 5.03471 64.4466 4.79292 64.6723 4.53078C64.8936 4.27367 64.9134 4.01811 64.6247 3.77787C64.4663 3.64615 64.1382 3.52603 63.7613 3.42565C63.3097 3.30529 62.7451 3.19725 62.3757 3.14054C62.1154 3.10058 61.8517 3.07187 61.6191 3.05189C61.2223 3.01767 60.8755 3.00295 60.7873 3.00295C60.736 3.00295 59.8484 3.02772 58.9977 3.05284C58.3548 3.07163 57.7516 3.09053 57.5886 3.09819C57.2163 3.11554 56.8069 3.30744 56.4448 3.47709C56.3104 3.54003 56.1832 3.59961 56.0973 3.63335C56.0002 3.67163 55.9405 3.69688 55.8787 3.72308C55.5718 3.85289 55.1938 4.01309 54.898 3.97947C54.6644 3.95303 54.5966 3.92958 54.5288 3.90613C54.441 3.87574 54.3532 3.84535 54.1535 3.81436C53.8703 3.77046 53.6236 3.8146 53.3593 3.86186C53.2142 3.88783 53.062 3.9151 52.9083 3.92168C52.485 3.93975 51.8598 4.13632 51.2912 4.31519L50.9906 4.40779C50.5517 4.54263 50.3973 4.66227 50.2082 4.80871C50.1429 4.85932 50.0719 4.91435 49.9759 4.97417L50.3157 3.68898L50.3163 3.68874Z" fill="#F352AA"/>
<path fill-rule="evenodd" clip-rule="evenodd" d="M13.002 36.7361L14.7831 32.4719L11.5744 11.0202L16.2384 9.96175C16.2405 9.69734 16.2611 9.41415 16.325 9.2098L16.326 9.21016C16.3491 9.13574 16.3431 9.15931 16.3492 9.13813L16.346 9.13718L16.3756 9.03321L16.3765 9.03345C16.4122 8.90758 16.4517 8.76868 16.5103 8.59472C16.5478 8.48369 16.5899 8.37219 16.638 8.26415C16.6569 8.10287 16.6953 7.9313 16.8218 7.70099C16.9454 7.47607 17.1484 7.23571 17.5108 6.95862C17.6263 6.87032 17.6901 6.80655 17.7408 6.7557V6.75211L17.7428 6.75379C17.8897 6.60651 18.0032 6.49333 18.2084 6.36854C18.3977 6.25333 18.6202 6.16132 18.9561 6.07315C19.0625 6.04527 19.1208 6.02098 19.1652 6.00244L19.1661 6.0022C19.3221 5.93699 19.4347 5.88997 19.6632 5.85312C19.8323 5.82585 20.0362 5.81663 20.361 5.82573L21.1828 5.84642C21.2804 5.75143 21.4067 5.63897 21.5768 5.51202C21.9742 5.21555 22.4646 4.84969 22.9763 4.49686C23.5229 4.11999 24.1052 3.74623 24.6617 3.45167C25.6475 2.92967 26.9869 2.28528 27.9452 1.8243L27.956 1.81916C28.4094 1.60105 28.6322 1.49505 28.7198 1.45221C28.8729 1.37756 28.9339 1.35375 28.9464 1.34501C29.1486 1.20575 29.543 1.07893 30.0252 0.959768C30.4678 0.850415 30.9305 0.750035 31.38 0.652527C31.9006 0.539585 31.6218 0.603713 32.0083 0.51805C32.1843 0.478927 32.3592 0.439086 32.5335 0.397211C32.7742 0.339185 33.0516 0.289414 33.3468 0.24742C33.6465 0.204707 34.0096 0.164747 34.3968 0.129213C34.8348 0.088894 35.2602 0.0583853 35.6308 0.0380461C36.0857 0.013041 36.4666 0 36.7114 0C36.9791 0 37.312 0.0203391 37.6749 0.0591031C38.0098 0.0948761 38.3611 0.146202 38.6975 0.211527C39.0162 0.273382 39.3346 0.350671 39.6308 0.442436C39.9199 0.532048 40.186 0.635179 40.4107 0.751471C40.6038 0.851372 40.946 0.985491 41.3176 1.12021C41.9737 1.35806 42.7373 1.60057 42.9635 1.67152L46.3953 2.46785L46.4807 2.4992C46.4969 2.50518 47.6559 2.93326 48.3081 3.30918L48.458 3.39556C48.7147 3.54344 48.885 3.64154 48.9901 3.70352C49.0815 3.75736 49.2223 3.84302 49.4812 4.00226C49.506 4.01746 49.5502 4.04617 49.6031 4.08087L49.6378 4.1036L49.651 4.09331C49.8178 3.96398 49.9651 3.85008 50.2098 3.73594L49.8653 5.03884L49.8317 5.05691C49.6128 5.17236 49.4462 5.06133 49.2267 4.91525C49.1453 4.86105 49.0601 4.80434 49.0054 4.77072C48.6149 4.53072 48.458 4.44027 48.0034 4.17838L47.8534 4.09199C47.2697 3.75556 46.1713 3.35057 46.1681 3.34938L46.1354 3.33729L42.7286 2.54682C42.467 2.4651 40.6386 1.88855 39.9952 1.55558C39.6228 1.36284 39.0853 1.20922 38.527 1.10071C37.8831 0.97568 37.1986 0.907006 36.7112 0.907006C36.2256 0.907006 35.338 0.950077 34.4784 1.02904C33.8157 1.09006 33.1724 1.17321 32.7464 1.27586C32.4296 1.35219 32.007 1.44396 31.5716 1.53836C30.6421 1.74007 29.6582 1.95351 29.4612 2.08919C29.4107 2.12388 28.9654 2.33816 28.3499 2.63404C27.4144 3.08413 26.1016 3.71548 25.0877 4.25232C24.0176 4.81894 22.8889 5.6611 22.1199 6.2349C21.705 6.54454 21.5995 6.77712 21.5083 6.76827C21.3666 6.75439 21.1854 6.75008 20.864 6.74254C20.7245 6.73931 20.5562 6.73536 20.336 6.72914C19.8106 6.71443 19.7196 6.75235 19.5139 6.83826C19.4463 6.86649 19.358 6.90334 19.1868 6.94821C18.7006 7.07563 18.5904 7.18606 18.3835 7.39339C18.3124 7.46458 18.2233 7.55383 18.0611 7.67778C17.5666 8.05597 17.5484 8.25853 17.5303 8.47376L17.5276 8.50463C17.4061 8.72657 17.3201 9.02986 17.2488 9.28146C17.2284 9.35349 17.2092 9.42073 17.191 9.47935C17.0893 9.80406 17.174 10.6023 17.1742 10.6046L17.1821 10.6747L12.5959 11.7155L15.718 32.5868L13.8398 37.0833L13.8122 37.1568C13.8103 37.1625 13.1412 39.1277 12.9017 39.7081C12.7518 40.0716 12.6053 40.4548 12.4471 40.8685C12.1809 41.5649 11.8852 42.3391 11.7521 42.6376C11.5793 43.0259 11.4582 43.4811 11.3779 43.9246C11.2763 44.4869 11.2335 45.0343 11.2335 45.3943C11.2335 45.4688 11.1954 45.6078 11.1548 45.7544L11.1536 45.7541C11.0105 46.2721 10.8558 46.8326 11.0452 47.5883C11.1408 47.9696 11.2611 48.4053 11.4057 48.8217C11.5825 49.3304 11.8002 49.7782 12.0667 50.0442C12.6307 50.6069 13.8281 50.7162 13.8316 50.7166L14.5689 50.7933C14.8136 51.579 15.0911 52.3692 15.0926 52.3729L16.4964 56.3304L16.9261 54.2733L18.2278 57.5724L18.9903 54.4641L19.6506 58.8786L27.26 64.6765C26.7674 64.8896 26.4516 65.0607 26.1585 65.3072C25.7511 65.6497 25.5615 65.9772 25.2137 66.5776C25.0612 66.841 24.8675 67.1756 24.5515 67.6724L24.4508 67.8309L23.9658 69.7656L23.9591 69.8891C23.8839 71.2659 23.0612 72.635 22.6763 73.2756C22.4387 73.6711 22.2847 73.9271 22.2847 74.2908C22.2847 74.4276 22.0314 75.3188 22.0307 75.3212L21.5859 76.8984L23.224 76.8101C23.2289 76.8099 24.965 76.7211 25.2279 76.7211C25.3987 76.7211 26.1256 76.6749 26.7885 76.5968C27.2253 76.5454 27.6576 76.4766 27.9471 76.3898C28.3168 76.2792 29.1486 75.8995 29.8762 75.5159C30.5303 75.171 31.1521 74.7889 31.409 74.5192C31.4452 74.4812 31.485 74.4376 31.5276 74.3897L31.1453 75.8352C30.8828 75.9974 30.5919 76.1617 30.2988 76.3163C29.9105 76.521 29.4981 76.7229 29.138 76.886C28.7637 77.0556 28.4282 77.1911 28.2063 77.2575C28.0511 77.3039 27.85 77.3478 27.6225 77.3884C27.3679 77.4338 27.1218 77.4691 26.8949 77.4959C26.5968 77.5315 26.2882 77.5603 26.0193 77.5817C25.6463 77.6114 25.3392 77.6277 25.2278 77.6277C24.9499 77.6277 23.4261 77.7051 23.2786 77.7125C22.3176 77.7839 21.3345 77.8175 20.3697 77.8696L21.1572 75.0768L21.1607 75.0662C21.1611 75.0647 21.2666 74.6936 21.3382 74.4029C21.3596 74.3162 21.3756 74.3209 21.3756 74.2908C21.3756 73.682 21.5812 73.3399 21.8984 72.8121L21.8987 72.8115C22.2469 72.2322 22.9907 70.9941 23.0537 69.843L23.0655 69.6243L23.6061 67.4679L23.7846 67.1871C24.1066 66.6807 24.286 66.3714 24.4268 66.1281L24.4291 66.1241C24.8252 65.44 25.0417 65.0664 25.5742 64.6183L25.5726 64.6165L25.6278 64.571L18.8068 59.3736L18.7733 59.1498L18.429 60.5532L17.1939 57.4231L16.7223 59.6809L14.2367 52.6737L14.2326 52.6651L14.2346 52.6644C14.2156 52.6099 14.0611 52.168 13.8855 51.631L13.739 51.6158L13.7391 51.6147C13.6036 51.6009 12.1796 51.4389 11.4238 50.6849V50.6813C11.2256 50.4834 11.0518 50.2304 10.8998 49.9415C10.7689 49.6926 10.6527 49.4115 10.5498 49.1153C10.4585 48.8527 10.3881 48.6296 10.3333 48.4394C10.2733 48.2311 10.2164 48.0152 10.1643 47.8076C10.0404 47.3131 10.0293 46.8805 10.0726 46.4863C10.1125 46.1225 10.1979 45.8134 10.2798 45.5167L10.297 45.4545C10.3048 45.4249 10.3135 45.3902 10.3244 45.3437C10.3266 45.1494 10.3411 44.8953 10.3701 44.5998C10.3956 44.3407 10.4337 44.0565 10.4864 43.7653C10.5341 43.5009 10.5947 43.2332 10.6696 42.9756C10.7388 42.7375 10.823 42.5005 10.9245 42.2729V42.2694C11.0314 42.0296 11.3298 41.2487 11.5981 40.5465C11.6204 40.488 11.6389 40.4398 11.8321 39.9437C11.9093 39.7454 11.9858 39.5529 12.0635 39.3646C12.1292 39.2052 12.253 38.8671 12.3884 38.4873C12.6787 37.6741 12.9516 36.8733 12.9527 36.8701L12.9909 36.7682L13.0015 36.7364L13.002 36.7361Z" fill="#28EBF7"/>
<path fill-rule="evenodd" clip-rule="evenodd" d="M35.9751 5.72578C31.721 6.68602 29.9706 6.61496 26.6207 8.99571C20.8904 13.0682 18.4334 19.4545 19.207 26.7658C19.6062 30.5404 21.0547 34.1159 21.1952 37.5014C22.1557 39.7242 21.3685 32.9943 21.2871 32.6294C20.8552 30.6913 20.4092 28.9654 20.867 26.7848L22.3538 34.9792C22.3916 35.1414 22.3595 35.5759 22.7949 36.1376C22.8405 33.5086 22.091 31.4116 22.0989 29.2085C22.1084 26.5716 23.2041 25.261 23.7166 23.6291L22.8979 26.9104L26.4241 23.8357L25.469 22.097L27.286 20.9444C27.963 21.4894 27.8155 21.7043 28.7615 22.0484C29.9673 21.2252 32.3577 18.8865 33.2574 17.8152C32.0868 20.5046 29.894 21.773 29.0823 22.8951L29.8905 24.6037C31.5314 24.4025 33.4362 22.3543 34.4343 21.5673C33.4315 23.5661 31.9995 23.5587 31.3783 26.3795L32.0488 25.7512C34.5741 22.5699 38.2932 20.1587 38.2601 13.6315C40.9292 16.5972 42.8506 22.4317 46.9063 24.904L46.9968 27.3622L47.9646 24.5776C48.3367 26.3963 47.7313 30.1263 47.8262 31.2997L47.9671 31.9878C47.9803 32.0433 48.0086 32.145 48.0427 32.2185C48.8559 28.5136 49.2422 28.4774 48.8582 24.2416C48.9199 24.2884 48.9997 24.2996 49.0243 24.4044C49.0483 24.5075 49.1518 24.5306 49.1841 24.568L50.0547 25.6586C51.1573 24.737 52.092 24.0659 53.9285 24.7171C53.7838 23.0073 54.1482 21.02 54.0068 19.1589C53.9417 18.303 53.8149 17.5169 53.6737 16.6815C53.5214 15.7798 53.4326 15.1643 52.8836 14.4343L52.8365 16.7844C52.3904 15.7659 52.7433 15.6745 51.6332 15.2343L52.177 21.4874C49.8745 20.9637 49.965 20.9377 49.6299 18.6605L48.7502 20.5316L49.0135 17.5392L47.8653 18.7449C47.57 19.1394 47.5567 19.3254 47.0263 19.6468L48.8841 14.6816C47.9924 15.7889 47.3482 16.6506 46.1863 17.1959C46.6899 15.7678 47.1377 16.1749 46.1763 15.4521C45.2067 15.0479 45.2395 15.0681 45.2126 13.725C45.2056 13.3788 45.2263 12.6264 45.2845 12.2893C45.518 10.9416 45.2302 11.9993 45.5872 11.5029C45.3511 8.29724 46.5653 8.66993 47.9805 8.22055L48.3911 8.06011C48.4348 8.04336 48.5271 8.01094 48.5852 7.96954C46.7216 6.41515 43.9163 4.89917 40.6378 5.23417C40.0294 5.97392 39.0667 7.36009 38.6465 8.38482C38.6112 7.55965 38.5807 7.82765 38.257 7.41452L36.2325 7.36822L37.8106 6.62094L36.9687 6.09499C36.4207 5.85571 36.5019 6.00502 35.9748 5.72554L35.9751 5.72578Z" fill="#F352AA"/>
<path fill-rule="evenodd" clip-rule="evenodd" d="M53.7315 8.31578C53.0797 8.60747 53.4097 8.26194 53.1669 8.78789C52.1227 8.66933 52.855 9.08783 52.1221 8.52623C51.9318 7.69759 52.4608 7.42254 53.5081 7.40662L53.7315 8.31578ZM52.8891 9.40644L54.9105 9.46734L53.7942 10.1287L55.578 10.6878L53.6015 10.9905L54.9683 11.9627L53.1705 12.5624C55.3496 14.1757 56.0896 14.4793 58.2209 16.7499C58.0444 17.5055 57.8019 16.3743 58.0323 19.1593C58.3854 23.4249 57.9264 25.3323 57.7112 29.3098C58.6311 28.6133 59.2889 27.1568 59.7222 25.9451C59.9995 25.1697 60.7431 22.663 60.7974 22.1974C61.2256 25.3134 59.3575 29.4848 58.3128 31.9895L55.5334 40.9252C55.6705 41.629 55.4702 41.1309 55.8102 41.5828C56.5604 41.0764 56.7385 39.5938 57.0494 38.7544C57.4452 37.6855 57.8252 36.8515 58.3637 36.1173C57.9223 40.248 56.2384 41.5143 58.1123 42.9773L59.9352 34.6389C60.0152 36.5609 59.4705 39.1775 60.4142 40.8506C60.892 39.9733 62.8927 28.6989 63.4379 26.5008C65.4372 18.4382 65.3837 18.954 61.365 13.4724C62.9125 13.8263 63.7898 15.4967 64.9348 16.5154C64.7793 14.6937 63.9516 12.3958 63.2633 10.8731C62.2851 8.70905 61.5519 7.95016 59.0045 7.64591L61.4709 6.06245C57.5509 5.44282 56.0255 7.50306 54.3355 7.57807L53.6582 6.45691C51.4144 6.69535 52.3094 7.56587 50.3311 8.28515C51.8101 9.27507 51.1955 8.20906 52.0695 9.9221L52.8892 9.40608L52.8891 9.40644Z" fill="#F352AA"/>
<path fill-rule="evenodd" clip-rule="evenodd" d="M43.9106 27.8896C43.8257 28.6048 43.7096 29.2492 43.4552 29.8105L42.534 31.0087C42.7996 28.3342 42.5752 29.1819 42.2856 28.7926C42.2595 28.8678 42.2446 28.967 42.2359 29.0265L41.9879 31.1574C41.5194 32.7157 39.5294 32.9394 38.5524 31.776L37.6816 30.3772C37.0947 31.055 36.597 31.3554 36.0928 32.2576C36.0742 29.5828 37.6046 29.6394 39.1178 28.1726L36.1253 29.059C37.0926 28.7306 37.8411 27.8647 39.4013 27.7262C40.6771 27.6129 42.4761 27.8812 43.9106 27.8896ZM32.8696 28.6352C33.6081 28.0254 33.9381 28.3451 34.9545 27.6335C35.518 27.2389 36.0574 26.6061 36.5678 26.0876C37.6924 24.9452 38.2854 24.2925 40.5675 24.0596C39.957 24.5124 39.1362 24.8446 38.4041 25.3466C36.9168 26.3663 35.586 29.7551 32.8695 28.6352H32.8696ZM32.0642 26.2914C31.8352 27.1923 31.1337 27.8518 30.288 28.5565L30.5468 26.0837C29.0741 26.6511 27.9631 27.6353 27.0617 28.6352C27.7144 29.1244 28.8601 29.5025 29.3333 30.0691C29.7284 30.5423 30.3862 32.035 30.5158 32.8982C28.8442 32.0729 28.2676 30.9983 25.85 32.0466C26.6816 32.704 27.7873 32.3454 28.783 32.671C29.6616 32.9583 30.1733 33.5275 30.4418 34.337C29.7137 34.8053 28.8301 35.3692 27.9033 34.3855C26.5609 32.9608 28.1258 32.6861 25.2664 32.9372C26.6544 36.0566 30.079 35.8008 31.0634 34.7373C31.7682 35.5079 31.5808 35.6558 32.882 35.9521C33.8658 36.176 34.942 36.3147 36.0256 36.5217C37.3492 35.3879 43.7236 33.7256 45.7123 32.3334C47.1362 31.3364 47.1884 31.5622 47.0991 29.2393C46.4927 30.0989 45.3758 31.3199 44.4167 31.7023C47.9552 23.7004 45.4884 26.4927 42.269 21.1812L39.2261 16.407C39.1269 18.042 39.1638 19.3156 38.658 20.7037C38.1107 22.2061 37.6395 22.4042 36.9264 23.356C37.4086 21.5647 38.3259 20.3055 38.3937 18.0749C37.5469 21.1912 33.9677 25.0772 32.0641 26.2916L32.0642 26.2914Z" fill="white"/>
<path fill-rule="evenodd" clip-rule="evenodd" d="M46.244 39.128C45.7074 39.705 45.772 39.5887 44.931 39.8995C44.7931 41.3107 45.2193 40.6398 44.9372 41.401C44.7407 41.9308 44.123 42.267 43.9056 42.445C43.8091 44.3521 40.445 47.9845 39.4096 48.6949C39.5651 50.0831 40.6808 52.3457 39.984 53.4742L39.4692 51.8253C38.6826 52.2483 38.2743 52.6123 37.9296 54.1922C41.998 54.5897 40.7678 55.1654 41.9981 55.9203C44.6614 54.1027 51.7912 48.9214 52.3902 45.826C50.6916 45.4682 50.4465 44.7533 50.1809 46.5714C49.2975 44.9421 49.0804 40.5649 49.0165 38.282C47.9538 38.3755 47.6423 39.0701 46.244 39.1281V39.128Z" fill="white"/>
<path fill-rule="evenodd" clip-rule="evenodd" d="M36.9059 36.6959L31.6587 36.5822L31.3199 40.3996C32.2318 41.3334 32.0992 40.5951 32.5115 41.6342L33.5362 44.2612C33.9849 45.1114 33.733 44.4874 34.1059 45.1627C34.5239 45.9203 34.3706 46.1968 34.8047 47.0396C39.1971 47.6639 41.8543 42.7638 43.716 41.9946C44.0705 40.6191 44.1673 38.8037 44.128 37.1525C43.4827 37.5011 43.9797 37.1988 43.517 37.5614L42.502 38.5994C42.0577 37.6401 42.5589 38.4627 42.4559 37.7626L40.3456 38.872L41.8266 36.9614L38.7305 37.8222C40.0159 36.7121 42.7889 36.1214 43.3462 34.4321C41.8177 34.5028 39.0624 36.3082 36.906 36.6958L36.9059 36.6959Z" fill="#F452A9"/>
<path fill-rule="evenodd" clip-rule="evenodd" d="M21.196 37.5014C21.0555 34.1159 19.607 30.5404 19.2078 26.7658C18.4344 19.4545 20.8912 13.0681 26.6215 8.99577C29.9713 6.61501 31.7218 6.68608 35.9759 5.72583C36.9955 5.66697 38.6649 6.05186 39.2856 5.67379C39.5512 4.16283 39.7687 5.17381 38.915 4.46277C36.5434 2.48737 30.9539 4.949 28.8503 6.03953C15.4426 12.9901 16.3682 24.8018 21.1958 37.5015L21.196 37.5014Z" fill="#7CFAFA"/>
<path fill-rule="evenodd" clip-rule="evenodd" d="M45.7374 38.9065C47.2469 37.1089 48.3185 39.538 49.9957 34.8824C50.1352 34.4953 50.2556 34.1843 50.2599 33.7874C50.2657 33.2422 50.2074 33.4316 50.1664 33.2575L50.0829 33.0143C50.0786 33.0007 50.0317 32.9457 50.0442 32.9112C53.3755 30.0612 53.2879 30.6256 53.3647 25.3929C52.3016 24.8919 51.0203 25.5684 50.3717 26.3779C49.7748 27.123 49.7649 28.6946 49.6596 29.8834C51.6319 28.8774 49.8615 29.0757 50.8249 27.4069C52.3296 24.8006 52.8991 26.6129 52.9081 26.6263C52.6362 27.6668 53.0431 26.5639 52.5226 27.0942C51.9954 27.631 51.9382 27.3655 51.7411 28.1028C51.4041 29.3631 52.3617 28.7973 51.1842 30.1033C49.8735 31.5567 51.9431 30.7227 50.6366 31.5201C50.0545 31.8753 50.5111 31.6902 49.8574 31.6633C48.6219 31.6125 49.9981 30.4098 47.9839 33.749C47.4976 34.5553 46.5511 35.9464 45.8401 36.334C46.1523 35.1365 46.8197 33.9174 46.7273 32.5656C46.4725 32.8037 44.9255 33.8221 44.2986 34.0893C45.7804 40.1454 44.1045 38.7 45.7374 38.9065Z" fill="white"/>
<path fill-rule="evenodd" clip-rule="evenodd" d="M40.1127 69.4543C39.2247 69.084 39.2458 69.0847 38.6605 68.3651C38.7519 69.3694 38.9786 69.4234 38.545 70.0612C36.9356 68.3621 36.8973 66.1873 35.6675 64.6018C35.0553 65.9836 36.3023 70.0047 37.1956 71.027C38.0601 72.016 40.8049 73.9608 41.8925 74.7518C42.9952 70.6503 40.1046 63.7286 36.5568 62.8169C36.4292 64.7739 39.4152 66.498 40.1127 69.4544V69.4543Z" fill="#F051A7"/>
<path fill-rule="evenodd" clip-rule="evenodd" d="M14.53 47.161C14.596 49.1234 14.4756 47.6614 15.0921 48.2348C15.1098 47.1741 16.3732 44.8583 16.9648 43.7113C16.9744 43.7358 16.7761 47.8478 16.9686 49.0635L17.4861 46.556C17.9745 47.5231 17.7721 50.0006 18.638 51.8083C18.557 48.0177 17.9692 46.9919 19.4933 43.192C20.8295 39.8607 21.488 38.9066 19.6302 35.2234C18.7713 38.3585 16.6401 41.1091 15.3726 45.3833C15.3057 45.6088 15.1727 46.1072 15.0892 46.2898C14.6467 47.2594 14.8979 46.7321 14.53 47.1608V47.161Z" fill="#EE52A7"/>
<path fill-rule="evenodd" clip-rule="evenodd" d="M26.6361 69.4209C26.6021 71.0726 25.4837 72.3032 24.9939 73.7448C27.7626 73.5563 32.8196 69.9283 33.9813 65.8691C32.777 66.4218 33.4737 66.2795 32.6278 66.9674C31.0174 68.277 32.6701 66.7452 31.2213 67.5623C30.132 68.1766 29.5727 69.3013 28.5133 69.9321C29.5442 66.8132 32.5968 65.5969 32.578 63.7419C30.8561 64.2391 28.4999 65.9778 27.7087 67.5026L26.7901 69.2433C26.7679 69.1963 26.6923 69.3664 26.6358 69.4209H26.6361Z" fill="#F051A7"/>
<path fill-rule="evenodd" clip-rule="evenodd" d="M38.0847 62.9489L48.766 56.6305C51.2213 55.2266 54.9398 53.3534 57.8036 52.6852C58.886 52.4327 60.8704 52.6992 61.7093 52.171C59.4436 48.386 42.1189 59.5647 38.9845 61.7953C38.0375 62.4693 38.156 62.0814 38.0847 62.9489Z" fill="#EBEBEB"/>
<path fill-rule="evenodd" clip-rule="evenodd" d="M38.9512 63.4805C42.2314 61.8728 46.0232 59.6301 49.628 57.7883C51.4915 56.8362 53.2752 56.0165 55.3434 55.1546C61.1071 52.7528 60.8564 54.6986 62.1959 53.6061C61.7107 52.7711 62.1091 52.9854 60.7252 52.9499C60.1304 52.9345 59.0614 53.0042 58.4762 53.1084C55.9098 53.5655 51.587 55.7186 49.3987 56.9666C47.7902 57.8839 39.4024 62.5776 38.951 63.4804L38.9512 63.4805Z" fill="#EBEBEB"/>
<path fill-rule="evenodd" clip-rule="evenodd" d="M49.8914 41.2643C51.4059 42.7131 55.0859 41.9365 56.1674 43.8475L56.1201 45.2842C55.202 45.9896 55.034 45.7708 54.4946 46.7177C55.4671 47.219 57.5309 46.7108 59.5895 49.8313C60.2282 50.7996 59.9245 50.9309 61.2187 50.9488C60.8177 49.5455 58.8045 46.8986 56.0627 46.6583L57.2467 45.9508C57.0799 42.6516 58.0206 42.8584 52.245 41.1645C49.2043 40.2728 50.2218 41.0066 49.8911 41.2643H49.8914Z" fill="#76E7EA"/>
<path fill-rule="evenodd" clip-rule="evenodd" d="M14.6014 45.5711L14.53 47.161C14.8979 46.7324 14.6467 47.2595 15.0892 46.2901C15.1726 46.1076 15.3057 45.6091 15.3726 45.3835C16.6401 41.1093 18.7714 38.3586 19.6302 35.2237L19.1111 33.9163C19.0858 33.8742 19.0247 33.7967 18.9789 33.739C17.8316 35.2007 15.0355 43.1219 14.6013 45.5711H14.6014Z" fill="#81F6FA"/>
<path fill-rule="evenodd" clip-rule="evenodd" d="M23.0075 30.3095L27.7342 26.0521L27.1293 24.5122C25.6559 24.9695 25.0544 25.8867 24.2337 26.9881C23.6555 27.7642 22.4132 29.1378 23.0074 30.3096L23.0075 30.3095Z" fill="#F051A7"/>
<path fill-rule="evenodd" clip-rule="evenodd" d="M34.3421 62.9729L34.0614 61.4129C34.0368 61.3432 33.9868 61.2446 33.9409 61.1652C33.9387 61.167 32.8892 61.2553 33.2548 63.3698C33.4352 64.4129 33.787 64.5331 34.5164 64.8066C35.139 63.9768 34.7991 63.923 36.5536 61.6959C37.102 61.8393 36.963 61.7554 37.3102 62.141L37.3104 60.67C35.5451 60.413 35.0082 61.6651 34.3421 62.9729Z" fill="#EE52A7"/>
<path fill-rule="evenodd" clip-rule="evenodd" d="M28.6047 43.3397C28.3161 42.0436 27.0916 39.0389 26.3275 38.024C28.9545 38.3492 29.3559 38.7603 29.7792 37.6991L25.5922 37.4082C25.5791 38.6824 25.4902 37.7207 26.0304 38.933C26.7166 40.4733 27.3276 42.7429 28.6047 43.3397Z" fill="#6BDCDC"/>
<path fill-rule="evenodd" clip-rule="evenodd" d="M23.2952 46.6689C23.7234 45.7723 24.0021 44.2979 24.4176 43.2021C24.8626 42.0287 25.7273 41.1388 25.6834 39.7981C25.2046 40.1697 25.6406 39.5634 25.0203 40.421C24.536 41.0908 24.5942 41.6728 23.6583 42.7882C22.8521 43.7493 22.7751 45.6092 23.295 46.6688L23.2952 46.6689Z" fill="#68D4D4"/>
<path fill-rule="evenodd" clip-rule="evenodd" d="M35.0271 53.4204C36.3731 52.0212 35.1385 50.8483 37.1345 49.041C38.1159 48.1521 37.9404 48.832 37.9448 47.5438C36.8702 47.7291 37.3047 47.5328 36.7066 48.3277C35.4074 50.0545 34.9647 50.7403 35.0271 53.4204Z" fill="#6BDCDC"/>
<path fill-rule="evenodd" clip-rule="evenodd" d="M32.8066 61.1803C32.5481 59.2075 31.5579 57.2553 31.2094 54.6094C30.4226 56.1534 31.2791 58.9052 32.2408 60.4475L32.8066 61.1803Z" fill="#D7D7D7"/>
<path fill-rule="evenodd" clip-rule="evenodd" d="M33.4337 60.2276L32.3436 53.5897C31.3145 54.8965 32.4843 59.2331 33.4337 60.2276Z" fill="#D7D7D7"/>
<path fill-rule="evenodd" clip-rule="evenodd" d="M40.4154 30.7588C40.3104 30.7363 40.1668 30.5827 40.1045 30.673L38.5992 30.4124C38.7796 32.5819 41.4598 32.6635 41.4758 29.7488C40.2967 29.9924 40.7189 29.6998 40.4154 30.7588Z" fill="#7CFAFA"/>
<path fill-rule="evenodd" clip-rule="evenodd" d="M19.7556 12.6313C20.9413 11.759 20.2704 11.7687 20.9097 11.045C21.5064 10.3696 21.5834 10.8441 22.2565 9.64648C20.1328 10.0999 19.8774 10.3776 19.7556 12.6313Z" fill="#76E7EA"/>
<path fill-rule="evenodd" clip-rule="evenodd" d="M34.9158 60.1262C35.4762 59.5824 36.0642 58.3786 36.164 57.4887C36.2615 56.6193 36.2289 57.1124 35.9553 56.6531C34.987 57.3416 34.9738 58.883 34.9158 60.1262Z" fill="#77E5E7"/>
<path fill-rule="evenodd" clip-rule="evenodd" d="M47.4052 10.1512C47.9331 9.44973 48.2727 9.76271 49.0584 9.11796L46.7134 9.09595L46.3226 10.7767C46.2722 10.8421 46.224 10.8732 46.2084 10.9961L45.4527 12.8891C45.9857 12.4289 45.7951 12.4038 45.5878 11.5031C45.2308 11.9995 45.5186 10.9417 45.2852 12.2895C45.2269 12.6266 45.2062 13.379 45.2132 13.7253C45.2401 15.0684 45.2074 15.0483 46.177 15.4523C46.0157 14.3935 45.9953 15.0986 47.1952 13.7525L48.6547 12.2753C48.334 11.9636 48.1592 11.7762 47.8619 11.2865C47.828 11.2308 47.7841 11.1541 47.7535 11.0988C47.7243 11.046 47.6806 10.9682 47.655 10.9169L47.4053 10.1513L47.4052 10.1512Z" fill="#7CFAFA"/>
<path fill-rule="evenodd" clip-rule="evenodd" d="M33.2008 53.7634C33.4299 53.6385 33.7695 53.4783 33.9425 53.3488C35.1391 52.4536 34.4331 53.6135 34.6551 52.002C33.5711 52.328 33.118 52.3878 33.2007 53.7634H33.2008Z" fill="#6BDCDC"/>
<path fill-rule="evenodd" clip-rule="evenodd" d="M29.989 34.2348L27.7477 33.4819C28.3789 34.6959 28.6726 34.8872 29.989 34.2348Z" fill="#6BDCDC"/>
</g>
<defs>
<clipPath id="clip0_1_11373">
<rect width="60.3066" height="81" fill="white" transform="translate(10.0505)"/>
</clipPath>
</defs>
</svg>
