<svg width="52" height="52" viewBox="0 0 52 52" fill="none" xmlns="http://www.w3.org/2000/svg">
<g style="mix-blend-mode:luminosity" opacity="0.3">
<mask id="mask0_1_5203" style="mask-type:alpha" maskUnits="userSpaceOnUse" x="0" y="0" width="52" height="52">
<rect width="51.5973" height="51.5973" fill="#D9D9D9"/>
</mask>
<g mask="url(#mask0_1_5203)">
</g>
<g clip-path="url(#clip0_1_5203)">
<path fill-rule="evenodd" clip-rule="evenodd" d="M8.81695 23.6218L10.0134 20.7576L8.02463 7.46238L10.9461 6.7994L10.941 6.75474C10.9409 6.7533 10.8869 6.24481 10.9517 6.03789C10.9633 6.00062 10.9755 5.95779 10.9885 5.91191C11.034 5.75164 11.0887 5.55844 11.1661 5.41706L11.1679 5.3974C11.1794 5.26029 11.1909 5.13127 11.506 4.89044C11.6093 4.8114 11.666 4.75455 11.7113 4.7092C11.8432 4.57705 11.9133 4.50686 12.223 4.42562C12.3321 4.39704 12.3883 4.37349 12.4314 4.35558C12.5624 4.30086 12.6204 4.2767 12.955 4.28607C13.0954 4.28996 13.2026 4.29247 13.2914 4.29461C13.4962 4.29941 13.6116 4.30215 13.7018 4.31092C13.7599 4.31663 13.8271 4.1684 14.0913 3.97116C14.5813 3.60565 15.3002 3.06919 15.9818 2.70825C16.6277 2.36628 17.4639 1.96411 18.06 1.6774C18.4519 1.48892 18.7356 1.35243 18.7678 1.33033C18.8933 1.2439 19.5201 1.10794 20.1122 0.979443C20.3896 0.919312 20.6588 0.860857 20.8605 0.812233C21.1318 0.746919 21.5417 0.693876 21.9638 0.655007C22.5114 0.604707 23.0768 0.577271 23.3862 0.577271C23.6966 0.577271 24.1327 0.621016 24.5428 0.700658C24.8985 0.769783 25.2408 0.86764 25.4781 0.990418C25.888 1.20252 27.0527 1.56978 27.2193 1.62191L29.3894 2.12545L29.4103 2.13315C29.4122 2.13391 30.112 2.39189 30.4837 2.6062L30.5793 2.66122C30.8689 2.82805 30.9689 2.88567 31.2176 3.03855C31.2525 3.05997 31.3067 3.09601 31.3586 3.13061C31.4983 3.22359 31.6045 3.29432 31.744 3.22077C31.8563 3.16163 31.9239 3.10928 31.984 3.06271C32.1045 2.96943 32.2028 2.89321 32.4824 2.80732L32.6738 2.74826C33.0361 2.6344 33.4344 2.50918 33.7039 2.49767C33.8019 2.49348 33.8988 2.4761 33.9912 2.45956C34.1597 2.42946 34.3167 2.40134 34.4972 2.42931C34.6244 2.44905 34.6803 2.46841 34.7362 2.48784C34.7794 2.5027 34.8225 2.51771 34.9714 2.53448C35.1597 2.5559 35.4006 2.45385 35.5961 2.37116C35.6354 2.35447 35.6734 2.33839 35.7355 2.314C35.7902 2.29251 35.8711 2.25455 35.9568 2.21447C36.1875 2.1064 36.4483 1.98423 36.6854 1.9731C36.7892 1.96822 37.1735 1.95626 37.583 1.94422C38.1249 1.92829 38.6903 1.91251 38.723 1.91251C38.7792 1.91251 39.0002 1.92189 39.2529 1.94368C39.4011 1.95641 39.5692 1.9747 39.7349 2.00016C39.9701 2.03628 40.3298 2.1051 40.6175 2.18177C40.8576 2.24571 41.0667 2.32223 41.1675 2.40614C41.3513 2.55917 41.3387 2.72196 41.1978 2.88574C41.0541 3.05273 40.6533 3.20675 40.4549 3.28296C40.3949 3.30598 40.4571 3.28113 40.4011 3.30316L40.4012 3.30354C40.3561 3.32122 40.2826 3.37846 40.213 3.44537C40.384 3.52181 40.608 3.63301 40.8461 3.79923C41.1271 3.99524 41.2941 4.19721 41.4259 4.35657C41.4789 4.42066 41.5249 4.47622 41.5641 4.51181C41.6668 4.60502 41.7679 4.73207 41.8603 4.89623C41.9399 5.0376 42.0137 5.20656 42.0768 5.40502C42.1652 5.6832 42.445 6.59683 42.6008 7.10677L44.1677 7.46238L39.6737 37.5054L28.4319 46.0713L27.6128 50.5828L24.4507 48.2426L23.3619 47.6068L23.269 47.4705C23.2665 47.467 22.4256 46.2373 22.3599 46.1553C22.2386 46.0041 21.9413 45.6191 21.6639 45.2583C21.5332 45.442 21.4008 45.6385 21.2893 45.8039C21.2189 45.9085 21.1575 45.9996 21.0833 46.1054C20.9696 46.2674 20.7147 46.608 20.4897 46.8941C20.3095 47.123 20.1286 47.3432 20.0089 47.4689C19.8453 47.6406 19.4492 47.8841 19.0325 48.1038C18.5691 48.3483 18.0391 48.59 17.8037 48.6605C17.6193 48.7157 17.3439 48.7596 17.0656 48.7924C16.6434 48.8421 16.1803 48.8716 16.0715 48.8716C15.9041 48.8716 14.7982 48.9281 14.795 48.9283L13.7516 48.9845L14.035 47.9798C14.0354 47.9782 14.1968 47.4105 14.1968 47.3234C14.1968 47.0916 14.2949 46.9285 14.4462 46.6766C14.6914 46.2685 15.2155 45.3965 15.2634 44.5194L15.2677 44.4408L15.5766 43.2084L15.6408 43.1074C15.842 42.7909 15.9654 42.5777 16.0626 42.41C16.2842 42.0274 16.405 41.8189 16.6645 41.6007C16.8511 41.4437 17.0523 41.3347 17.3661 41.1989L12.5189 37.5056L12.0983 34.6935L11.6126 36.6735L10.7833 34.572L10.5096 35.8824L9.61538 33.3614C9.61454 33.3591 9.43774 32.8557 9.2818 32.3552L8.81214 32.3063C8.80992 32.3061 8.04717 32.2364 7.68791 31.878C7.51814 31.7086 7.37946 31.4234 7.26684 31.0993C7.1747 30.8341 7.09799 30.5565 7.03717 30.3136C6.91653 29.8322 7.01509 29.4752 7.10624 29.1453L7.107 29.1454C7.13283 29.052 7.15713 28.9636 7.15713 28.9161C7.15713 28.6868 7.18433 28.3381 7.24912 27.9799C7.30016 27.6975 7.3774 27.4074 7.4875 27.1602C7.57223 26.9701 7.76065 26.4768 7.93019 26.0333C8.03089 25.7697 8.12418 25.5256 8.21977 25.2941C8.37243 24.9244 8.79854 23.6726 8.79976 23.6689L8.81733 23.6221L8.81695 23.6218Z" fill="black"/>
<path fill-rule="evenodd" clip-rule="evenodd" d="M32.0522 2.34976C32.1248 2.31943 32.2096 2.28879 32.3126 2.25716L32.4985 2.19977L32.5022 2.19787C32.8958 2.07418 33.3283 1.93821 33.6788 1.92274C33.7419 1.91985 33.8172 1.90643 33.889 1.89355L33.9207 1.88669L33.921 1.88776C34.0187 1.87031 34.1122 1.8543 34.1897 1.84744C34.309 1.83693 34.4368 1.83792 34.5852 1.86086C34.7626 1.88845 34.8433 1.91634 34.9236 1.94416L34.9297 1.94622L34.9304 1.94423L34.9308 1.94439L34.9301 1.94637C34.9407 1.94942 34.961 1.95338 35.0344 1.96169C35.0758 1.96641 35.2378 1.8979 35.3699 1.84203L35.3695 1.84119L35.4355 1.81406L35.4352 1.8133C35.4592 1.80339 35.4875 1.79189 35.5246 1.77733C35.5777 1.75645 35.642 1.72634 35.71 1.69449L35.7123 1.69228L35.7143 1.69128L35.7148 1.69228C35.993 1.56195 36.3075 1.41517 36.6578 1.39817C36.6919 1.3965 36.8077 1.39253 36.9706 1.38727L37.5667 1.36913L38.3352 1.34703C38.593 1.33987 38.6927 1.33514 38.7225 1.33514C38.753 1.33514 38.8511 1.33903 38.9952 1.34749C39.1089 1.35412 39.2212 1.36159 39.3021 1.3686C39.3778 1.37531 39.4664 1.38422 39.5679 1.39611C39.6592 1.40686 39.7453 1.41806 39.8202 1.42957H39.8225C39.9366 1.4471 40.1073 1.47819 40.3119 1.52026C40.4774 1.55425 40.6376 1.59053 40.7662 1.62475C40.9056 1.66187 41.0455 1.70698 41.1771 1.76064C41.318 1.8181 41.4411 1.88555 41.5354 1.96413C41.5362 1.96413 41.537 1.96413 41.5377 1.96413C41.5745 1.99469 41.6082 2.02616 41.6386 2.05855C42.2687 2.47597 41.8572 3.17217 41.4183 3.5155C41.4867 3.57419 41.5477 3.63188 41.6029 3.68797C41.7101 3.79703 41.7955 3.90023 41.8708 3.99122L41.936 4.06599L41.9347 4.06713C41.941 4.07429 41.9469 4.08054 41.9525 4.08557C42.0277 4.15378 42.1026 4.23526 42.176 4.33037C42.2439 4.41855 42.3072 4.51328 42.364 4.61426C42.4131 4.70137 42.4613 4.79961 42.5081 4.90943V4.91172C42.5553 5.02283 42.5958 5.12991 42.628 5.23143L42.8115 5.82688L43.054 6.61948L44.818 7.01983L40.2106 37.821L28.9588 46.3946L28.0141 51.5973L24.1286 48.7217L22.9558 48.0368L22.7912 47.7956L22.7889 47.7911C22.7874 47.7889 22.4186 47.2497 22.1499 46.861C22.0217 46.6755 21.9225 46.5323 21.9103 46.5157L21.9092 46.5165C21.8654 46.4619 21.7878 46.3627 21.6908 46.238L21.6643 46.2771C21.6263 46.3329 21.5901 46.3854 21.5553 46.435C21.4909 46.5268 21.389 46.6658 21.2752 46.817C21.145 46.99 21.0244 47.1482 20.9436 47.2508C20.8474 47.373 20.748 47.4963 20.6536 47.6092L20.6525 47.6083C20.5627 47.7156 20.4845 47.8054 20.4265 47.8663C20.318 47.9802 20.154 48.1055 19.9597 48.2318C19.944 48.242 19.928 48.2523 19.9119 48.2626L20.1697 47.2873C20.2667 47.173 20.3779 47.0354 20.489 46.8944C20.714 46.6084 20.9688 46.2678 21.0825 46.1057C21.1567 45.9999 21.2182 45.9089 21.2886 45.8043C21.4001 45.6389 21.5325 45.4425 21.6631 45.2587C21.9405 45.6195 22.2378 46.0045 22.3592 46.1557C22.4249 46.2377 23.2659 47.4674 23.2683 47.4709L23.3612 47.6072L24.45 48.243L27.612 50.5832L28.4312 46.0717L39.673 37.5058L44.167 7.46277L42.6 7.10717C42.4443 6.59723 42.1645 5.6836 42.0761 5.40542C42.013 5.20696 41.9392 5.038 41.8596 4.89663C41.7672 4.73246 41.6661 4.60542 41.5634 4.51221C41.5242 4.47662 41.4782 4.42106 41.4252 4.35697C41.2934 4.19753 41.1263 3.99564 40.8454 3.79962C40.6073 3.63341 40.3833 3.52221 40.2123 3.44577C40.2819 3.37886 40.3555 3.32162 40.4005 3.30394L40.4003 3.30356C40.4564 3.28153 40.3942 3.30638 40.4542 3.28336C40.6526 3.20715 41.0533 3.05312 41.1971 2.88614C41.3381 2.72236 41.3507 2.55957 41.1668 2.40654C41.0659 2.32263 40.8569 2.24611 40.6168 2.18217C40.3291 2.1055 39.9695 2.03668 39.7342 2.00055C39.5684 1.9751 39.4004 1.95681 39.2522 1.94408C38.9995 1.92228 38.7785 1.91291 38.7223 1.91291C38.6896 1.91291 38.1242 1.92869 37.5824 1.94469C37.1728 1.95666 36.7886 1.9687 36.6848 1.97358C36.4476 1.98463 36.1868 2.10687 35.9562 2.21494C35.8705 2.25503 35.7895 2.29298 35.7348 2.31447C35.6729 2.33886 35.6349 2.35494 35.5955 2.37163C35.4 2.45432 35.1593 2.55637 34.9708 2.53496C34.822 2.51811 34.7788 2.50318 34.7357 2.48824C34.6797 2.46888 34.6238 2.44952 34.4966 2.42978C34.3162 2.40181 34.159 2.42994 33.9906 2.46004C33.8983 2.47658 33.8013 2.49395 33.7034 2.49815C33.4337 2.50965 33.0355 2.63487 32.6733 2.74881L32.4818 2.8078C32.2022 2.89369 32.1039 2.9699 31.9834 3.06318C31.9418 3.09542 31.8966 3.13048 31.8354 3.16859L32.0519 2.34991L32.0522 2.34976Z" fill="#F352AA"/>
<path fill-rule="evenodd" clip-rule="evenodd" d="M8.28303 23.401L9.41765 20.6847L7.37366 7.01993L10.3447 6.34567C10.346 6.17724 10.3591 5.99685 10.3998 5.86668L10.4004 5.86691C10.4152 5.8195 10.4114 5.83452 10.4153 5.82103L10.4132 5.82042L10.4321 5.75419L10.4326 5.75434C10.4554 5.67417 10.4805 5.58568 10.5179 5.47487C10.5417 5.40415 10.5685 5.33312 10.5992 5.2643C10.6112 5.16156 10.6357 5.05227 10.7163 4.90556C10.795 4.76228 10.9244 4.60917 11.1552 4.43267C11.2288 4.37642 11.2694 4.3358 11.3017 4.30341V4.30112L11.3029 4.30219C11.3965 4.20837 11.4688 4.13628 11.5995 4.05679C11.7201 3.98339 11.8618 3.92479 12.0759 3.86862C12.1436 3.85086 12.1808 3.83539 12.209 3.82358L12.2096 3.82342C12.309 3.78189 12.3807 3.75194 12.5263 3.72846C12.634 3.71109 12.7639 3.70522 12.9708 3.71101L13.4942 3.7242C13.5564 3.66368 13.6369 3.59204 13.7452 3.51118C13.9984 3.32233 14.3108 3.08927 14.6367 2.86452C14.9849 2.62445 15.3558 2.38636 15.7104 2.19873C16.3383 1.86621 17.1915 1.45573 17.802 1.16209L17.8088 1.15881C18.0976 1.01987 18.2395 0.95235 18.2954 0.925066C18.3929 0.87751 18.4318 0.862343 18.4397 0.85678C18.5685 0.768069 18.8197 0.687284 19.1269 0.611376C19.4088 0.541718 19.7036 0.477776 19.9899 0.415662C20.3216 0.343718 20.1439 0.384568 20.3902 0.33C20.5023 0.305078 20.6137 0.2797 20.7247 0.253025C20.878 0.216062 21.0547 0.184358 21.2428 0.157607C21.4337 0.130399 21.665 0.104944 21.9116 0.0823094C22.1907 0.0566258 22.4616 0.0371917 22.6977 0.0242355C22.9875 0.00830715 23.2301 0 23.386 0C23.5566 0 23.7687 0.0129561 23.9998 0.0376489C24.2131 0.0604364 24.4369 0.0931316 24.6512 0.134744C24.8542 0.174145 25.057 0.223379 25.2457 0.281833C25.4299 0.338917 25.5994 0.404612 25.7425 0.47869C25.8655 0.542328 26.0835 0.627762 26.3202 0.713577C26.7381 0.865087 27.2245 1.01957 27.3686 1.06476L29.5547 1.57203L29.6091 1.592C29.6195 1.59581 30.3578 1.8685 30.7732 2.10796L30.8687 2.16298C31.0322 2.25718 31.1407 2.31968 31.2076 2.35916C31.2658 2.39345 31.3555 2.44802 31.5205 2.54946C31.5362 2.55914 31.5644 2.57743 31.5981 2.59953L31.6202 2.61401L31.6286 2.60746C31.7349 2.52507 31.8287 2.45252 31.9846 2.37981L31.7651 3.20976L31.7437 3.22127C31.6043 3.29482 31.4982 3.22409 31.3584 3.13103C31.3065 3.09651 31.2522 3.06039 31.2174 3.03897C30.9686 2.88609 30.8687 2.82847 30.5791 2.66164L30.4835 2.60662C30.1117 2.39231 29.412 2.13433 29.41 2.13357L29.3892 2.12587L27.219 1.62233C27.0524 1.57028 25.8877 1.20301 25.4778 0.990914C25.2406 0.868136 24.8982 0.770279 24.5426 0.701154C24.1324 0.621512 23.6964 0.577766 23.3859 0.577766C23.0766 0.577766 22.5112 0.605203 21.9636 0.655503C21.5414 0.694371 21.1317 0.747339 20.8603 0.812729C20.6585 0.861353 20.3893 0.919808 20.112 0.979939C19.5198 1.10843 18.8931 1.2444 18.7676 1.33082C18.7355 1.35292 18.4518 1.48942 18.0597 1.67789C17.4638 1.9646 16.6275 2.36678 15.9817 2.70874C15.3001 3.06968 14.581 3.60614 14.0912 3.97166C13.8269 4.1689 13.7597 4.31705 13.7016 4.31141C13.6114 4.30257 13.4959 4.29983 13.2912 4.29503C13.2023 4.29297 13.0951 4.29045 12.9548 4.28649C12.6202 4.27712 12.5622 4.30128 12.4311 4.356C12.3881 4.37398 12.3319 4.39746 12.2228 4.42604C11.9131 4.5072 11.8429 4.57755 11.7111 4.70962C11.6658 4.75497 11.609 4.81182 11.5057 4.89078C11.1907 5.13169 11.1792 5.26071 11.1676 5.39782L11.1659 5.41748C11.0885 5.55886 11.0337 5.75206 10.9883 5.91233C10.9753 5.95821 10.9631 6.00104 10.9515 6.03839C10.8867 6.24523 10.9406 6.75372 10.9408 6.75516L10.9458 6.79982L8.0244 7.4628L10.0131 20.7579L8.81672 23.6222L8.79915 23.6691C8.79792 23.6726 8.37174 24.9245 8.21916 25.2942C8.12365 25.5257 8.03036 25.7699 7.92958 26.0334C7.76004 26.477 7.57162 26.9702 7.48689 27.1604C7.37679 27.4077 7.29962 27.6976 7.24851 27.9802C7.18379 28.3384 7.15651 28.687 7.15651 28.9164C7.15651 28.9638 7.13222 29.0523 7.10639 29.1458L7.10563 29.1455C7.01448 29.4755 6.91591 29.8326 7.03656 30.3139C7.09745 30.5568 7.17409 30.8344 7.26623 31.0996C7.37885 31.4237 7.51753 31.7089 7.6873 31.8784C8.04656 32.2368 8.80931 32.3064 8.81152 32.3067L9.28119 32.3555C9.43705 32.856 9.61385 33.3594 9.61477 33.3618L10.509 35.8827L10.7827 34.5723L11.6119 36.6739L12.0976 34.6939L12.5182 37.5059L17.3655 41.1992C17.0517 41.3349 16.8505 41.4439 16.6638 41.6009C16.4043 41.8191 16.2835 42.0277 16.062 42.4102C15.9648 42.578 15.8414 42.7911 15.6402 43.1076L15.576 43.2086L15.2671 44.441L15.2628 44.5196C15.2149 45.3967 14.6908 46.2688 14.4456 46.6768C14.2943 46.9288 14.1962 47.0919 14.1962 47.3236C14.1962 47.4107 14.0348 47.9784 14.0343 47.9799L13.751 48.9846L14.7945 48.9284C14.7976 48.9282 15.9035 48.8717 16.071 48.8717C16.1798 48.8717 16.6428 48.8422 17.0651 48.7925C17.3434 48.7597 17.6187 48.7159 17.8032 48.6606C18.0387 48.5901 18.5685 48.3483 19.032 48.1039C19.4486 47.8843 19.8447 47.6408 20.0084 47.4691C20.0315 47.4448 20.0568 47.4171 20.0839 47.3865L19.8404 48.3073C19.6732 48.4107 19.4879 48.5153 19.3012 48.6138C19.0539 48.7442 18.7912 48.8728 18.5617 48.9767C18.3233 49.0848 18.1096 49.171 17.9683 49.2133C17.8694 49.2429 17.7413 49.2709 17.5964 49.2967C17.4342 49.3257 17.2774 49.3481 17.1329 49.3652C16.943 49.3879 16.7464 49.4062 16.5751 49.4199C16.3375 49.4388 16.1419 49.4491 16.0709 49.4491C15.8939 49.4491 14.9232 49.4984 14.8293 49.5032C14.2171 49.5487 13.5909 49.5701 12.9763 49.6032L13.478 47.8242L13.4802 47.8175C13.4804 47.8165 13.5476 47.5801 13.5933 47.395C13.6069 47.3397 13.6171 47.3427 13.6171 47.3236C13.6171 46.9357 13.7481 46.7178 13.9501 46.3816L13.9503 46.3812C14.1721 46.0122 14.6459 45.2235 14.686 44.4903L14.6936 44.351L15.0379 42.9773L15.1516 42.7985C15.3568 42.4758 15.471 42.2788 15.5607 42.1239L15.5621 42.1213C15.8145 41.6855 15.9524 41.4476 16.2916 41.1621L16.2906 41.1609L16.3257 41.132L11.9807 37.8212L11.9594 37.6787L11.7401 38.5726L10.9533 36.5788L10.6529 38.017L9.06954 33.5534L9.06695 33.5479L9.06825 33.5474C9.0561 33.5127 8.95769 33.2312 8.84583 32.8892L8.75254 32.8795L8.75262 32.8788C8.66628 32.87 7.7592 32.7668 7.27777 32.2865V32.2842C7.15147 32.1581 7.04076 31.9969 6.94396 31.813C6.8606 31.6544 6.78656 31.4753 6.72101 31.2866C6.66286 31.1194 6.61801 30.9772 6.58309 30.8561C6.54489 30.7234 6.5086 30.5859 6.47544 30.4536C6.39651 30.1387 6.38941 29.8631 6.41699 29.612C6.44243 29.3802 6.49683 29.1833 6.54902 28.9943L6.55994 28.9547C6.56491 28.9359 6.57049 28.9138 6.57744 28.8841C6.57882 28.7604 6.58806 28.5985 6.60655 28.4102C6.62275 28.2452 6.64705 28.0642 6.68059 27.8787C6.711 27.7102 6.74958 27.5397 6.79733 27.3757C6.84142 27.224 6.89506 27.073 6.95969 26.928V26.9258C7.02777 26.773 7.21787 26.2756 7.38879 25.8283C7.403 25.791 7.41476 25.7603 7.53785 25.4443C7.58698 25.318 7.63573 25.1954 7.68524 25.0754C7.72711 24.9739 7.80596 24.7585 7.89222 24.5165C8.07712 23.9985 8.25094 23.4884 8.25163 23.4864L8.276 23.4215L8.28273 23.4013L8.28303 23.401Z" fill="#28EBF7"/>
<path fill-rule="evenodd" clip-rule="evenodd" d="M22.9173 3.64736C20.2074 4.25904 19.0924 4.21377 16.9585 5.73032C13.3082 8.32452 11.7432 12.3926 12.2359 17.0499C12.4903 19.4543 13.4129 21.732 13.5024 23.8885C14.1142 25.3045 13.6128 21.0175 13.561 20.7851C13.2859 19.5505 13.0017 18.4511 13.2933 17.062L14.2405 22.2819C14.2645 22.3853 14.2441 22.662 14.5214 23.0198C14.5505 21.3451 14.0731 20.0093 14.0781 18.606C14.0841 16.9262 14.7821 16.0914 15.1086 15.0519L14.587 17.1421L16.8333 15.1835L16.2249 14.0759L17.3823 13.3417C17.8135 13.6889 17.7196 13.8258 18.3222 14.0449C19.0903 13.5205 20.613 12.0308 21.1861 11.3484C20.4404 13.0615 19.0436 13.8695 18.5266 14.5843L19.0414 15.6727C20.0866 15.5445 21.3 14.2398 21.9358 13.7385C21.297 15.0117 20.3848 15.007 19.9891 16.8038L20.4162 16.4036C22.0248 14.3772 24.3939 12.8412 24.3728 8.68333C26.0731 10.5725 27.297 14.2891 29.8805 15.864L29.9381 17.4298L30.5546 15.6561C30.7916 16.8146 30.406 19.1906 30.4665 19.9381L30.5562 20.3764C30.5646 20.4117 30.5827 20.4765 30.6044 20.5233C31.1224 18.1633 31.3685 18.1402 31.1238 15.442C31.1632 15.4718 31.214 15.479 31.2297 15.5457C31.2449 15.6114 31.3109 15.6261 31.3314 15.6499L31.8861 16.3447C32.5884 15.7576 33.1838 15.3301 34.3536 15.7449C34.2615 14.6558 34.4936 13.3898 34.4035 12.2043C34.362 11.6591 34.2813 11.1583 34.1914 10.6262C34.0943 10.0518 34.0378 9.65976 33.6881 9.19471L33.6581 10.6918C33.3739 10.043 33.5987 9.98473 32.8916 9.70434L33.238 13.6876C31.7712 13.354 31.8289 13.3374 31.6154 11.8868L31.0551 13.0787L31.2228 11.1726L30.4914 11.9406C30.3033 12.1919 30.2948 12.3104 29.9569 12.5151L31.1404 9.35224C30.5724 10.0576 30.162 10.6065 29.4218 10.9538C29.7427 10.0442 30.0279 10.3035 29.4155 9.84305C28.7978 9.58561 28.8187 9.59848 28.8016 8.74292C28.7972 8.52237 28.8103 8.04307 28.8474 7.82838C28.9961 6.96984 28.8128 7.64364 29.0402 7.32743C28.8898 5.2854 29.6633 5.5228 30.5648 5.23654L30.8263 5.13434C30.8541 5.12367 30.913 5.10302 30.9499 5.07665C29.7628 4.0865 27.9759 3.12081 25.8874 3.33421C25.4999 3.80543 24.8867 4.68842 24.6189 5.34118C24.5965 4.81555 24.5771 4.98626 24.3709 4.7231L23.0812 4.69361L24.0865 4.21758L23.5502 3.88255C23.2011 3.73013 23.2528 3.82524 22.9171 3.64721L22.9173 3.64736Z" fill="#F352AA"/>
<path fill-rule="evenodd" clip-rule="evenodd" d="M34.2277 5.2972C33.8125 5.48301 34.0227 5.26291 33.8681 5.59794C33.2029 5.52241 33.6694 5.789 33.2025 5.43126C33.0813 4.90341 33.4183 4.7282 34.0855 4.71806L34.2277 5.2972ZM33.6911 5.99195L34.9788 6.03075L34.2677 6.45205L35.404 6.80819L34.1449 7.00101L35.0156 7.62031L33.8704 8.00229C35.2585 9.03001 35.7299 9.22336 37.0875 10.6698C36.9751 11.1511 36.8206 10.4305 36.9674 12.2046C37.1923 14.9218 36.8999 16.1368 36.7629 18.6705C37.3488 18.2268 37.7678 17.299 38.0439 16.5272C38.2205 16.0332 38.6941 14.4364 38.7288 14.1398C39.0015 16.1248 37.8115 18.7819 37.146 20.3774L35.3756 26.0695C35.4629 26.5179 35.3353 26.2006 35.5519 26.4884C36.0297 26.1658 36.1432 25.2214 36.3412 24.6867C36.5934 24.0058 36.8354 23.4745 37.1785 23.0069C36.8973 25.6381 35.8247 26.4448 37.0183 27.3767L38.1796 22.0652C38.2305 23.2894 37.8835 24.9563 38.4846 26.022C38.789 25.4632 40.0635 18.2814 40.4107 16.8811C41.6843 11.7452 41.6503 12.0738 39.0903 8.58196C40.0761 8.80739 40.6349 9.87147 41.3643 10.5204C41.2652 9.35993 40.738 7.8962 40.2996 6.92624C39.6764 5.54771 39.2093 5.0643 37.5866 4.87049L39.1578 3.86182C36.6607 3.46711 35.6891 4.77949 34.6125 4.82728L34.181 4.11309C32.7517 4.26498 33.3219 4.8195 32.0616 5.27769C33.0038 5.90827 32.6123 5.22922 33.1691 6.32043L33.6912 5.99173L33.6911 5.99195Z" fill="#F352AA"/>
<path fill-rule="evenodd" clip-rule="evenodd" d="M27.9721 17.7659C27.918 18.2215 27.844 18.632 27.682 18.9895L27.0952 19.7528C27.2643 18.0491 27.1214 18.5891 26.9369 18.3411C26.9203 18.389 26.9108 18.4522 26.9052 18.4901L26.7473 19.8475C26.4488 20.8402 25.1812 20.9826 24.5588 20.2415L24.0041 19.3505C23.6303 19.7823 23.3133 19.9736 22.9921 20.5483C22.9802 18.8445 23.9551 18.8805 24.919 17.9461L23.0128 18.5108C23.629 18.3016 24.1057 17.7501 25.0996 17.6618C25.9123 17.5896 27.0583 17.7606 27.9721 17.7659ZM20.9389 18.2409C21.4093 17.8524 21.6195 18.056 22.267 17.6027C22.6259 17.3514 22.9695 16.9483 23.2946 16.618C24.011 15.8903 24.3887 15.4745 25.8425 15.3262C25.4536 15.6146 24.9308 15.8262 24.4644 16.146C23.517 16.7956 22.6692 18.9542 20.9388 18.2409H20.9389ZM20.4258 16.7479C20.28 17.3217 19.8331 17.7418 19.2944 18.1907L19.4592 16.6156C18.5211 16.977 17.8134 17.6039 17.2392 18.2409C17.655 18.5525 18.3848 18.7933 18.6862 19.1543C18.9379 19.4557 19.3569 20.4065 19.4395 20.9564C18.3747 20.4307 18.0074 19.7461 16.4674 20.4139C16.9971 20.8327 17.7015 20.6043 18.3357 20.8117C18.8954 20.9946 19.2213 21.3573 19.3924 21.8729C18.9285 22.1712 18.3657 22.5304 17.7753 21.9038C16.9202 20.9962 17.9171 20.8213 16.0956 20.9812C16.9797 22.9683 19.1613 22.8054 19.7883 22.1279C20.2373 22.6188 20.1179 22.713 20.9468 22.9017C21.5734 23.0444 22.259 23.1327 22.9493 23.2646C23.7924 22.5424 27.8529 21.4835 29.1197 20.5966C30.0267 19.9615 30.06 20.1053 30.0031 18.6257C29.6168 19.1732 28.9053 19.951 28.2944 20.1946C30.5484 15.0973 28.9771 16.876 26.9263 13.4926L24.988 10.4514C24.9248 11.4929 24.9483 12.3042 24.6261 13.1884C24.2775 14.1455 23.9773 14.2716 23.5231 14.878C23.8302 13.7369 24.4146 12.9348 24.4577 11.5139C23.9183 13.499 21.6384 15.9744 20.4258 16.7479L20.4258 16.7479Z" fill="white"/>
<path fill-rule="evenodd" clip-rule="evenodd" d="M29.4584 24.9246C29.1166 25.2922 29.1578 25.2181 28.622 25.4161C28.5342 26.3151 28.8057 25.8877 28.626 26.3726C28.5008 26.7101 28.1074 26.9242 27.9688 27.0376C27.9074 28.2525 25.7645 30.5663 25.1049 31.0188C25.204 31.9031 25.9147 33.3444 25.4708 34.0633L25.1428 33.0129C24.6418 33.2823 24.3817 33.5142 24.1621 34.5206C26.7537 34.7738 25.9701 35.1405 26.7538 35.6214C28.4503 34.4636 32.992 31.1631 33.3736 29.1913C32.2916 28.9634 32.1354 28.508 31.9663 29.6661C31.4036 28.6283 31.2653 25.84 31.2245 24.3857C30.5476 24.4453 30.3492 24.8878 29.4584 24.9247V24.9246Z" fill="white"/>
<path fill-rule="evenodd" clip-rule="evenodd" d="M23.5094 23.3754L20.1669 23.303L19.9512 25.7347C20.532 26.3295 20.4476 25.8592 20.7102 26.5211L21.3629 28.1945C21.6487 28.7361 21.4883 28.3386 21.7258 28.7688C21.9921 29.2513 21.8945 29.4275 22.171 29.9644C24.9689 30.3621 26.6616 27.2406 27.8475 26.7507C28.0733 25.8744 28.135 24.7181 28.1099 23.6663C27.6989 23.8883 28.0155 23.6958 27.7207 23.9267L27.0742 24.5879C26.7912 23.9768 27.1104 24.5009 27.0448 24.0549L25.7006 24.7616L26.6439 23.5445L24.6717 24.0928C25.4905 23.3857 27.2569 23.0094 27.6119 21.9333C26.6383 21.9784 24.8831 23.1284 23.5095 23.3753L23.5094 23.3754Z" fill="#F452A9"/>
<path fill-rule="evenodd" clip-rule="evenodd" d="M13.5027 23.8886C13.4133 21.732 12.4906 19.4544 12.2362 17.05C11.7436 12.3926 13.3086 8.3245 16.9588 5.73038C19.0927 4.21383 20.2077 4.2591 22.9176 3.64742C23.5671 3.60992 24.6305 3.8551 25.0259 3.61426C25.1951 2.65178 25.3337 3.29577 24.7898 2.84284C23.2791 1.5845 19.7186 3.15257 18.3786 3.84725C9.83781 8.27481 10.4274 15.7989 13.5027 23.8887L13.5027 23.8886Z" fill="#7CFAFA"/>
<path fill-rule="evenodd" clip-rule="evenodd" d="M29.1353 24.7835C30.0969 23.6385 30.7795 25.1858 31.8478 22.2201C31.9367 21.9736 32.0134 21.7754 32.0162 21.5226C32.0198 21.1753 31.9827 21.296 31.9566 21.1851L31.9034 21.0302C31.9006 21.0215 31.8708 20.9865 31.8787 20.9645C34.0008 19.149 33.945 19.5086 33.9939 16.1753C33.3167 15.8562 32.5005 16.2871 32.0874 16.8027C31.7071 17.2774 31.7008 18.2785 31.6338 19.0358C32.8901 18.395 31.7623 18.5212 32.376 17.4582C33.3345 15.798 33.6973 16.9524 33.703 16.9609C33.5298 17.6238 33.7891 16.9212 33.4575 17.259C33.1217 17.601 33.0852 17.4319 32.9597 17.9015C32.745 18.7043 33.355 18.3439 32.6049 19.1758C31.77 20.1017 33.0884 19.5704 32.2561 20.0783C31.8853 20.3046 32.1762 20.1867 31.7597 20.1696C30.9727 20.1372 31.8494 19.3711 30.5663 21.4982C30.2565 22.0118 29.6536 22.8979 29.2007 23.1448C29.3996 22.382 29.8247 21.6054 29.7659 20.7444C29.6035 20.896 28.6181 21.5447 28.2188 21.7149C29.1627 25.5727 28.0951 24.652 29.1353 24.7835Z" fill="white"/>
<path fill-rule="evenodd" clip-rule="evenodd" d="M25.5525 44.2426C24.9869 44.0067 25.0003 44.0071 24.6275 43.5487C24.6857 44.1885 24.8301 44.2229 24.5539 44.6292C23.5287 43.5468 23.5043 42.1615 22.721 41.1515C22.331 42.0317 23.1253 44.5932 23.6944 45.2444C24.245 45.8744 25.9935 47.1133 26.6863 47.6171C27.3887 45.0045 25.5474 40.5953 23.2874 40.0145C23.2061 41.2611 25.1082 42.3594 25.5525 44.2426V44.2426Z" fill="#F051A7"/>
<path fill-rule="evenodd" clip-rule="evenodd" d="M9.25586 30.0418C9.29788 31.2918 9.22117 30.3605 9.61389 30.7258C9.6252 30.0501 10.43 28.5749 10.8068 27.8443C10.8129 27.8599 10.6866 30.4792 10.8093 31.2536L11.1389 29.6564C11.45 30.2724 11.3211 31.8506 11.8727 33.0021C11.8211 30.5874 11.4466 29.934 12.4175 27.5135C13.2687 25.3914 13.6881 24.7836 12.5047 22.4374C11.9575 24.4345 10.6 26.1866 9.79261 28.9093C9.74997 29.053 9.66524 29.3705 9.61206 29.4868C9.3302 30.1044 9.49019 29.7685 9.25586 30.0416V30.0418Z" fill="#EE52A7"/>
<path fill-rule="evenodd" clip-rule="evenodd" d="M16.9679 44.2214C16.9463 45.2736 16.2339 46.0574 15.9219 46.9758C17.6855 46.8557 20.9068 44.5446 21.6469 41.9589C20.8797 42.311 21.3236 42.2203 20.7847 42.6585C19.7589 43.4927 20.8116 42.517 19.8888 43.0375C19.1948 43.4288 18.8386 44.1452 18.1638 44.547C18.8205 42.5603 20.765 41.7855 20.753 40.6039C19.6561 40.9205 18.1552 42.0281 17.6512 42.9995L17.066 44.1083C17.0519 44.0783 17.0038 44.1867 16.9678 44.2214H16.9679Z" fill="#F051A7"/>
<path fill-rule="evenodd" clip-rule="evenodd" d="M24.2607 40.0987L31.0648 36.0739C32.6288 35.1796 34.9975 33.9863 36.8217 33.5607C37.5112 33.3999 38.7753 33.5696 39.3097 33.2331C37.8664 30.8221 26.8306 37.943 24.8339 39.3639C24.2306 39.7932 24.3061 39.5461 24.2607 40.0987Z" fill="#EBEBEB"/>
<path fill-rule="evenodd" clip-rule="evenodd" d="M24.8126 40.4373C26.9021 39.4132 29.3175 37.9846 31.6138 36.8114C32.8008 36.2049 33.937 35.6827 35.2545 35.1337C38.926 33.6037 38.7663 34.8432 39.6196 34.1473C39.3105 33.6154 39.5643 33.7519 38.6827 33.7292C38.3038 33.7195 37.6229 33.7638 37.2501 33.8302C35.6153 34.1214 32.8616 35.493 31.4677 36.2879C30.4431 36.8722 25.1 39.8621 24.8125 40.4372L24.8126 40.4373Z" fill="#EBEBEB"/>
<path fill-rule="evenodd" clip-rule="evenodd" d="M31.7816 26.2855C32.7464 27.2085 35.0906 26.7138 35.7795 27.931L35.7494 28.8463C35.1646 29.2956 35.0575 29.1562 34.7139 29.7594C35.3334 30.0787 36.648 29.755 37.9594 31.7428C38.3662 32.3596 38.1728 32.4432 38.9972 32.4546C38.7418 31.5607 37.4594 29.8746 35.7128 29.7216L36.467 29.2708C36.3608 27.1693 36.96 27.301 33.2809 26.222C31.344 25.654 31.9921 26.1214 31.7815 26.2855H31.7816Z" fill="#76E7EA"/>
<path fill-rule="evenodd" clip-rule="evenodd" d="M9.30132 29.029L9.25586 30.0418C9.49019 29.7687 9.3302 30.1045 9.61206 29.4869C9.66516 29.3707 9.74997 29.0531 9.79261 28.9095C10.6 26.1868 11.9576 24.4346 12.5047 22.4376L12.174 21.6048C12.1579 21.578 12.119 21.5286 12.0898 21.4919C11.359 22.423 9.57783 27.4688 9.30124 29.029H9.30132Z" fill="#81F6FA"/>
<path fill-rule="evenodd" clip-rule="evenodd" d="M14.6558 19.3073L17.6667 16.5953L17.2814 15.6144C16.3428 15.9057 15.9596 16.4899 15.4369 17.1915C15.0685 17.6859 14.2772 18.5609 14.6557 19.3073L14.6558 19.3073Z" fill="#F051A7"/>
<path fill-rule="evenodd" clip-rule="evenodd" d="M21.8769 40.114L21.6981 39.1203C21.6824 39.0759 21.6506 39.0131 21.6213 38.9625C21.6199 38.9637 20.9514 39.0199 21.1843 40.3669C21.2992 41.0313 21.5233 41.1079 21.9879 41.2821C22.3845 40.7535 22.168 40.7192 23.2856 39.3006C23.635 39.3919 23.5464 39.3385 23.7676 39.5841L23.7677 38.6471C22.6432 38.4834 22.3011 39.2809 21.8769 40.114Z" fill="#EE52A7"/>
<path fill-rule="evenodd" clip-rule="evenodd" d="M18.2214 27.6075C18.0376 26.7819 17.2576 24.8679 16.7708 24.2214C18.4442 24.4285 18.7 24.6904 18.9696 24.0144L16.3024 23.8291C16.2941 24.6408 16.2375 24.0282 16.5816 24.8004C17.0187 25.7816 17.4079 27.2273 18.2214 27.6075Z" fill="#6BDCDC"/>
<path fill-rule="evenodd" clip-rule="evenodd" d="M14.8398 29.7283C15.1126 29.1572 15.2902 28.218 15.5548 27.52C15.8383 26.7725 16.3891 26.2056 16.3611 25.3516C16.0561 25.5883 16.3339 25.202 15.9388 25.7483C15.6302 26.175 15.6673 26.5457 15.0712 27.2563C14.5576 27.8685 14.5085 29.0533 14.8398 29.7282L14.8398 29.7283Z" fill="#68D4D4"/>
<path fill-rule="evenodd" clip-rule="evenodd" d="M22.3134 34.029C23.1709 33.1377 22.3844 32.3906 23.6559 31.2393C24.281 30.673 24.1692 31.1062 24.1721 30.2856C23.4876 30.4036 23.7643 30.2786 23.3833 30.7849C22.5557 31.8849 22.2737 32.3218 22.3134 34.029Z" fill="#6BDCDC"/>
<path fill-rule="evenodd" clip-rule="evenodd" d="M20.8985 38.9721C20.7338 37.7153 20.103 36.4718 19.8811 34.7863C19.3799 35.7698 19.9255 37.5228 20.5381 38.5053L20.8985 38.9721Z" fill="#D7D7D7"/>
<path fill-rule="evenodd" clip-rule="evenodd" d="M21.2972 38.3652L20.6028 34.1368C19.9472 34.9692 20.6924 37.7317 21.2972 38.3652Z" fill="#D7D7D7"/>
<path fill-rule="evenodd" clip-rule="evenodd" d="M25.7443 19.5932C25.6774 19.5789 25.586 19.4811 25.5464 19.5386L24.5879 19.3726C24.7028 20.754 26.4093 20.806 26.4195 18.9501C25.6687 19.1052 25.9376 18.9189 25.7443 19.5932Z" fill="#7CFAFA"/>
<path fill-rule="evenodd" clip-rule="evenodd" d="M12.5848 8.0454C13.3398 7.48996 12.9126 7.49614 13.3197 7.03532C13.6997 6.60527 13.7487 6.90741 14.1772 6.14484C12.825 6.43356 12.6624 6.61038 12.5848 8.0454Z" fill="#76E7EA"/>
<path fill-rule="evenodd" clip-rule="evenodd" d="M22.2421 38.2997C22.5989 37.9534 22.9733 37.1869 23.0369 36.6202C23.099 36.0667 23.0782 36.3807 22.904 36.0882C22.2874 36.5266 22.279 37.5081 22.2421 38.2997Z" fill="#77E5E7"/>
<path fill-rule="evenodd" clip-rule="evenodd" d="M30.1981 6.46632C30.5343 6.01949 30.7506 6.21886 31.2511 5.80815L29.7573 5.79413L29.5084 6.86476C29.4763 6.90645 29.4456 6.92626 29.4357 7.00453L28.9543 8.21037C29.2938 7.91725 29.1724 7.90125 29.0404 7.32752C28.8129 7.64373 28.9963 6.96986 28.8476 7.82847C28.8105 8.04316 28.7972 8.52246 28.8018 8.74301C28.8189 9.59858 28.798 9.58577 29.4157 9.84314C29.3129 9.16866 29.2999 9.61786 30.0643 8.76039L30.994 7.8194C30.7897 7.62086 30.6783 7.50144 30.4889 7.1895C30.4674 7.15406 30.4394 7.10521 30.4199 7.06992C30.4013 7.03631 30.3735 6.98678 30.3571 6.95408L30.1981 6.4664L30.1981 6.46632Z" fill="#7CFAFA"/>
<path fill-rule="evenodd" clip-rule="evenodd" d="M21.1494 34.2471C21.2953 34.1676 21.5115 34.0656 21.6217 33.9831C22.3836 33.4131 21.9341 34.1516 22.0755 33.1255C21.3852 33.3331 21.0968 33.3712 21.1494 34.2471H21.1494Z" fill="#6BDCDC"/>
<path fill-rule="evenodd" clip-rule="evenodd" d="M19.1029 21.8075L17.6758 21.3281C18.0777 22.1011 18.2647 22.2229 19.1029 21.8075Z" fill="#6BDCDC"/>
</g>
</g>
<defs>
<clipPath id="clip0_1_5203">
<rect width="38.4155" height="51.5973" fill="white" transform="translate(6.40234)"/>
</clipPath>
</defs>
</svg>
