<svg width="131" height="175" viewBox="0 0 131 175" fill="none" xmlns="http://www.w3.org/2000/svg">
<g clip-path="url(#clip0_1_2933)">
<path fill-rule="evenodd" clip-rule="evenodd" d="M8.90297 80.1176L12.9608 70.4029L6.2157 25.3104L16.1241 23.0618L16.107 22.9103C16.1065 22.9054 15.9236 21.1808 16.1433 20.479C16.1827 20.3526 16.2242 20.2073 16.2682 20.0517C16.4224 19.5081 16.608 18.8529 16.8705 18.3734L16.8764 18.3067C16.9156 17.8417 16.9544 17.4041 18.0231 16.5872C18.3737 16.3192 18.566 16.1264 18.7197 15.9726C19.167 15.5243 19.4048 15.2863 20.4551 15.0107C20.8252 14.9138 21.0157 14.8339 21.1618 14.7732C21.6062 14.5876 21.8029 14.5057 22.938 14.5374C23.414 14.5506 23.7776 14.5592 24.0787 14.5664C24.7732 14.5827 25.1647 14.592 25.4705 14.6217C25.6677 14.6411 25.8958 14.1383 26.7919 13.4694C28.4535 12.2297 30.892 10.4102 33.2038 9.18602C35.3943 8.02619 38.2305 6.66216 40.2521 5.68974C41.5812 5.0505 42.5436 4.58755 42.6527 4.51259C43.0785 4.21947 45.2042 3.75833 47.2126 3.32253C48.1532 3.11858 49.0664 2.92032 49.7506 2.75541C50.6708 2.53389 52.0608 2.35398 53.4925 2.22215C55.3498 2.05155 57.2674 1.9585 58.3167 1.9585C59.3696 1.9585 60.8485 2.10687 62.2395 2.37698C63.4458 2.61143 64.6068 2.94333 65.4116 3.35975C66.8019 4.07911 70.7522 5.32476 71.3172 5.50156L78.6775 7.20938L78.7482 7.23548C78.755 7.23807 81.1282 8.11304 82.3891 8.8399L82.7133 9.02653C83.6955 9.59236 84.0347 9.78777 84.8782 10.3063C84.9963 10.3789 85.1803 10.5012 85.3563 10.6185C85.8303 10.9339 86.1902 11.1738 86.6634 10.9243C87.0443 10.7237 87.2737 10.5462 87.4773 10.3882C87.886 10.0718 88.2195 9.81336 89.1677 9.52205L89.8171 9.32172C91.046 8.93554 92.3966 8.51085 93.3108 8.47182C93.6433 8.4576 93.9719 8.39867 94.2852 8.34258C94.8566 8.24048 95.3891 8.14509 96.0012 8.23996C96.4327 8.30691 96.6224 8.37256 96.8121 8.43848C96.9585 8.48888 97.1046 8.5398 97.6097 8.59667C98.2485 8.6693 99.0653 8.32319 99.7284 8.04273C99.8619 7.98613 99.9907 7.93158 100.201 7.84887C100.387 7.77598 100.661 7.64725 100.952 7.51129C101.734 7.14475 102.619 6.7304 103.423 6.69266C103.775 6.67612 105.078 6.63554 106.467 6.5947C108.305 6.54067 110.223 6.48717 110.334 6.48717C110.524 6.48717 111.274 6.51896 112.131 6.59289C112.634 6.63605 113.204 6.69809 113.766 6.78443C114.564 6.90695 115.784 7.14036 116.759 7.4004C117.574 7.61727 118.283 7.87679 118.625 8.16138C119.248 8.68042 119.205 9.23254 118.727 9.78803C118.24 10.3544 116.881 10.8768 116.208 11.1353C116.004 11.2133 116.215 11.1291 116.025 11.2038L116.026 11.205C115.873 11.265 115.623 11.4591 115.387 11.6861C115.967 11.9454 116.727 12.3225 117.535 12.8862C118.487 13.5511 119.054 14.2361 119.501 14.7765C119.681 14.9939 119.837 15.1824 119.97 15.3031C120.318 15.6192 120.661 16.0501 120.974 16.6069C121.244 17.0864 121.495 17.6594 121.709 18.3325C122.008 19.276 122.957 22.3747 123.486 24.1043L128.8 25.3104L113.558 127.206L75.43 156.258L72.6517 171.56L61.9273 163.623L58.2343 161.466L57.9192 161.004C57.9109 160.992 55.0588 156.821 54.8359 156.543C54.4244 156.03 53.4161 154.725 52.4752 153.501C52.032 154.124 51.5829 154.79 51.2049 155.351C50.9659 155.706 50.7578 156.015 50.506 156.374C50.1206 156.923 49.2561 158.079 48.493 159.049C47.8817 159.825 47.2683 160.572 46.8622 160.999C46.3074 161.581 44.9637 162.407 43.5507 163.152C41.9787 163.981 40.1813 164.801 39.3829 165.04C38.7574 165.227 37.8234 165.376 36.8796 165.487C35.4474 165.656 33.877 165.756 33.508 165.756C32.9399 165.756 29.1892 165.948 29.1785 165.948L25.6397 166.139L26.6006 162.731C26.6022 162.726 27.1495 160.8 27.1495 160.505C27.1495 159.719 27.4822 159.166 27.9956 158.311C28.8272 156.927 30.6046 153.97 30.7671 150.995L30.7816 150.728L31.8293 146.548L32.047 146.206C32.7295 145.132 33.148 144.409 33.4777 143.84C34.2292 142.543 34.6389 141.835 35.5192 141.095C36.152 140.563 36.8343 140.193 37.8988 139.733L21.4588 127.206L20.0322 117.669L18.3849 124.384L15.5722 117.257L14.6439 121.701L11.611 113.151C11.6081 113.143 11.0085 111.435 10.4796 109.738L8.88665 109.572C8.87913 109.572 6.29215 109.335 5.07367 108.12C4.49787 107.545 4.02753 106.578 3.64556 105.478C3.33303 104.579 3.07286 103.637 2.86658 102.814C2.4574 101.181 2.79169 99.9701 3.10085 98.8511L3.10344 98.8516C3.19103 98.5347 3.27343 98.2349 3.27343 98.0738C3.27343 97.2961 3.36569 96.1135 3.58544 94.8986C3.75854 93.9409 4.02053 92.9569 4.39395 92.1183C4.68134 91.4737 5.32037 89.8007 5.8954 88.2964C6.23695 87.4023 6.55336 86.5746 6.87754 85.7893C7.3953 84.5354 8.84052 80.2898 8.84467 80.2774L8.90427 80.1184L8.90297 80.1176Z" fill="black"/>
<path fill-rule="evenodd" clip-rule="evenodd" d="M87.7091 7.96954C87.9551 7.86666 88.243 7.76275 88.592 7.65548L89.2228 7.46084L89.2352 7.45438C90.5703 7.03486 92.037 6.57372 93.2257 6.52125C93.4397 6.51142 93.6952 6.46593 93.9386 6.42225L94.0461 6.39898L94.0474 6.4026C94.3786 6.34341 94.6958 6.28913 94.9585 6.26586C95.3633 6.23019 95.7966 6.23355 96.2999 6.31135C96.9016 6.40493 97.1752 6.49953 97.4478 6.59388L97.4686 6.60086L97.4709 6.59414L97.4722 6.59466L97.4699 6.60138C97.5056 6.61172 97.5746 6.62516 97.8236 6.65333C97.964 6.66936 98.5134 6.43698 98.9615 6.24751L98.9602 6.24467L99.1841 6.15264L99.183 6.15006C99.2644 6.11646 99.3603 6.07743 99.4862 6.02805C99.6661 5.95723 99.8843 5.85513 100.115 5.74708L100.123 5.73958L100.13 5.73622L100.131 5.73958C101.075 5.29757 102.141 4.79973 103.33 4.74209C103.445 4.7364 103.838 4.72296 104.39 4.70512L106.412 4.6436L109.019 4.56864C109.893 4.54435 110.231 4.52832 110.332 4.52832C110.436 4.52832 110.768 4.5415 111.257 4.57019C111.643 4.59268 112.024 4.61801 112.298 4.6418C112.555 4.66454 112.855 4.69479 113.2 4.73511C113.509 4.77156 113.801 4.80955 114.055 4.84858H114.063C114.45 4.90804 115.029 5.0135 115.723 5.15618C116.284 5.27147 116.828 5.39451 117.264 5.51057C117.737 5.63645 118.211 5.78947 118.657 5.97145C119.135 6.16634 119.553 6.3951 119.873 6.6616C119.875 6.6616 119.878 6.6616 119.88 6.6616C120.005 6.76526 120.119 6.87201 120.223 6.98187C122.36 8.39759 120.964 10.7589 119.475 11.9233C119.708 12.1224 119.914 12.318 120.102 12.5083C120.465 12.8782 120.755 13.2282 121.01 13.5368L121.231 13.7904L121.227 13.7943C121.248 13.8186 121.268 13.8398 121.287 13.8568C121.542 14.0882 121.797 14.3645 122.045 14.6871C122.276 14.9861 122.49 15.3074 122.683 15.6499C122.849 15.9454 123.013 16.2786 123.172 16.651V16.6588C123.332 17.0357 123.469 17.3988 123.578 17.7431L124.201 19.7627L125.023 22.4509L131.006 23.8088L115.379 128.276L77.2171 157.354L74.0131 175L60.8348 165.247L56.857 162.924L56.2989 162.106L56.2911 162.091C56.2862 162.083 55.035 160.254 54.1239 158.936C53.6891 158.307 53.3527 157.821 53.3112 157.765L53.3076 157.768C53.1589 157.582 52.8956 157.246 52.5667 156.823L52.4768 156.956C52.348 157.145 52.2252 157.323 52.107 157.491C51.8886 157.803 51.5431 158.274 51.1573 158.787C50.7157 159.373 50.3065 159.91 50.0326 160.258C49.7064 160.673 49.3692 161.091 49.0489 161.474L49.045 161.471C48.7406 161.834 48.4755 162.139 48.2788 162.345C47.9108 162.732 47.3544 163.157 46.6954 163.585C46.642 163.62 46.5879 163.655 46.5332 163.69L47.4075 160.382C47.7366 159.994 48.114 159.527 48.4905 159.049C49.2536 158.079 50.1179 156.924 50.5035 156.374C50.7554 156.015 50.9637 155.707 51.2026 155.352C51.5807 154.791 52.0298 154.125 52.4729 153.502C53.4136 154.725 54.4219 156.031 54.8337 156.544C55.0565 156.822 57.9089 160.993 57.9169 161.005L58.232 161.467L61.925 163.623L72.6495 171.561L75.4277 156.259L113.556 127.206L128.798 25.3111L123.484 24.105C122.955 22.3755 122.006 19.2767 121.706 18.3333C121.492 17.6602 121.242 17.0871 120.972 16.6076C120.659 16.0508 120.316 15.6199 119.968 15.3038C119.835 15.1831 119.679 14.9947 119.499 14.7773C119.052 14.2365 118.485 13.5518 117.532 12.887C116.725 12.3232 115.965 11.9461 115.385 11.6868C115.621 11.4599 115.871 11.2658 116.023 11.2058L116.023 11.2045C116.213 11.1298 116.002 11.2141 116.206 11.136C116.878 10.8775 118.238 10.3551 118.725 9.78876C119.203 9.23328 119.246 8.68115 118.622 8.16211C118.28 7.87752 117.571 7.618 116.757 7.40113C115.781 7.14109 114.562 6.90768 113.764 6.78516C113.201 6.69882 112.631 6.63679 112.129 6.59362C111.272 6.51969 110.522 6.4879 110.332 6.4879C110.221 6.4879 108.303 6.54141 106.465 6.59569C105.076 6.63627 103.773 6.67711 103.421 6.69366C102.617 6.73114 101.732 7.14575 100.95 7.51228C100.659 7.64824 100.385 7.77697 100.199 7.84986C99.9892 7.93258 99.8602 7.98712 99.7267 8.04373C99.0636 8.32418 98.247 8.6703 97.608 8.59766C97.1032 8.54054 96.9568 8.48987 96.8104 8.43921C96.6207 8.37355 96.431 8.3079 95.9995 8.24095C95.3877 8.14609 94.8546 8.24147 94.2835 8.34357C93.9702 8.39966 93.6413 8.4586 93.3091 8.47281C92.3946 8.51184 91.044 8.93654 89.8154 9.32297L89.166 9.52304C88.2178 9.81435 87.8843 10.0728 87.4756 10.3892C87.3347 10.4986 87.1813 10.6175 86.9737 10.7467L87.7078 7.97006L87.7091 7.96954Z" fill="#F352AA"/>
<path fill-rule="evenodd" clip-rule="evenodd" d="M7.0925 79.368L10.9407 70.1554L4.00822 23.8091L14.0849 21.5223C14.0893 20.951 14.1338 20.3392 14.2719 19.8977L14.274 19.8985C14.324 19.7377 14.3111 19.7886 14.3243 19.7429L14.3173 19.7408L14.3813 19.5162L14.3831 19.5167C14.4603 19.2448 14.5456 18.9447 14.6723 18.5688C14.7532 18.329 14.8441 18.0881 14.948 17.8546C14.989 17.5062 15.0719 17.1355 15.3453 16.638C15.6122 16.152 16.0509 15.6327 16.8338 15.034C17.0833 14.8433 17.2212 14.7055 17.3308 14.5957V14.5879L17.335 14.5915C17.6524 14.2733 17.8976 14.0288 18.341 13.7592C18.7499 13.5103 19.2306 13.3115 19.9564 13.121C20.1863 13.0608 20.3122 13.0083 20.4081 12.9682L20.4102 12.9677C20.7471 12.8268 20.9904 12.7253 21.4841 12.6456C21.8494 12.5867 22.29 12.5668 22.9917 12.5864L24.7671 12.6312C24.978 12.4259 25.2509 12.1829 25.6184 11.9087C26.4769 11.2682 27.5365 10.4777 28.642 9.71544C29.8229 8.90121 31.081 8.09371 32.2834 7.45731C34.413 6.32954 37.3068 4.93734 39.3773 3.94139L39.4007 3.93028C40.3802 3.45906 40.8614 3.23004 41.0509 3.1375C41.3815 2.9762 41.5134 2.92477 41.5404 2.9059C41.9773 2.60502 42.8293 2.33102 43.8711 2.07357C44.8273 1.83732 45.8271 1.62045 46.7981 1.40978C47.923 1.16577 47.3205 1.30432 48.1557 1.11924C48.5358 1.03472 48.9137 0.948643 49.2902 0.858173C49.8103 0.732807 50.4097 0.625277 51.0474 0.534549C51.695 0.442269 52.4794 0.355935 53.3159 0.279165C54.2623 0.192055 55.1812 0.126141 55.9819 0.0821985C56.9649 0.0281749 57.7876 0 58.3165 0C58.8949 0 59.6143 0.0439426 60.3982 0.127692C61.1217 0.204979 61.8807 0.31587 62.6076 0.457003C63.2962 0.59064 63.9839 0.757622 64.624 0.95588C65.2485 1.14949 65.8235 1.3723 66.3089 1.62355C66.7261 1.83938 67.4654 2.12915 68.2683 2.4202C69.6858 2.93407 71.3354 3.45802 71.8242 3.6113L79.2387 5.33179L79.4232 5.39951C79.4581 5.41243 81.9622 6.33729 83.3711 7.14946L83.6951 7.33608C84.2496 7.65557 84.6176 7.86753 84.8446 8.00143C85.0421 8.11774 85.3463 8.30282 85.9058 8.64686C85.9592 8.67969 86.0548 8.74173 86.1691 8.81669L86.244 8.8658L86.2725 8.84357C86.6329 8.56415 86.9511 8.31807 87.4798 8.07148L86.7355 10.8864L86.663 10.9254C86.1901 11.1749 85.8301 10.935 85.3559 10.6194C85.1799 10.5023 84.9959 10.3798 84.8778 10.3071C84.034 9.7886 83.6951 9.59318 82.7129 9.02736L82.3887 8.84073C81.1278 8.11387 78.7546 7.23889 78.7478 7.23631L78.6771 7.2102L71.3168 5.50239C70.7516 5.32584 66.8013 4.0802 65.4112 3.36083C64.6066 2.94441 63.4454 2.61252 62.2391 2.37807C60.8481 2.10795 59.3692 1.95958 58.3163 1.95958C57.267 1.95958 55.3494 2.05264 53.4921 2.22324C52.0604 2.35506 50.6706 2.53471 49.7502 2.75649C49.0658 2.92141 48.1528 3.11966 47.2122 3.32361C45.2038 3.75942 43.0781 4.22055 42.6526 4.51368C42.5435 4.58864 41.5813 5.05159 40.2517 5.69082C38.2304 6.66325 35.3941 8.02728 33.2036 9.1871C30.8918 10.4113 28.4531 12.2308 26.7917 13.4705C25.8954 14.1394 25.6673 14.6419 25.4704 14.6228C25.1643 14.5928 24.7728 14.5835 24.0783 14.5672C23.7769 14.5602 23.4133 14.5517 22.9376 14.5383C21.8025 14.5065 21.6058 14.5884 21.1614 14.774C21.0155 14.835 20.8248 14.9146 20.4548 15.0116C19.4045 15.2868 19.1663 15.5254 18.7193 15.9734C18.5656 16.1272 18.3731 16.32 18.0227 16.5878C16.9543 17.4049 16.9152 17.8425 16.876 18.3075L16.8701 18.3742C16.6076 18.8537 16.4218 19.509 16.2678 20.0525C16.2238 20.2082 16.1823 20.3534 16.1429 20.4801C15.9232 21.1816 16.1061 22.9062 16.1067 22.9111L16.1238 23.0626L6.21531 25.3112L12.9604 70.4035L8.90258 80.1182L8.84298 80.2771C8.83884 80.2893 7.39336 84.5352 6.87586 85.7891C6.55193 86.5744 6.23552 87.4023 5.89372 88.2961C5.31869 89.8008 4.67965 91.4734 4.39227 92.1184C4.01885 92.9572 3.75712 93.9407 3.58375 94.8989C3.36426 96.1138 3.27175 97.2964 3.27175 98.0741C3.27175 98.2352 3.18934 98.5353 3.10175 98.8522L3.09916 98.8514C2.79001 99.9706 2.45572 101.182 2.8649 102.814C3.07143 103.638 3.33135 104.579 3.64387 105.479C4.02584 106.578 4.49618 107.546 5.07199 108.12C6.29046 109.336 8.87745 109.572 8.88496 109.573L10.4779 109.739C11.0065 111.436 11.6062 113.143 11.6093 113.151L14.6423 121.702L15.5705 117.257L18.3829 124.385L20.0303 117.669L21.4568 127.207L37.8969 139.733C36.8326 140.194 36.1503 140.563 35.5172 141.096C34.6369 141.836 34.2272 142.543 33.476 143.841C33.1463 144.41 32.7278 145.133 32.0453 146.206L31.8276 146.548L30.7799 150.728L30.7654 150.995C30.6029 153.97 28.8255 156.927 27.9939 158.311C27.4805 159.166 27.1478 159.719 27.1478 160.505C27.1478 160.8 26.6005 162.726 26.5989 162.731L25.6381 166.139L29.1771 165.948C29.1877 165.947 32.9385 165.756 33.5066 165.756C33.8756 165.756 35.4459 165.656 36.8782 165.487C37.822 165.376 38.7559 165.227 39.3815 165.04C40.1802 164.801 41.9773 163.98 43.5492 163.152C44.9623 162.407 46.3057 161.581 46.8608 160.998C46.939 160.916 47.0251 160.822 47.1171 160.718L46.2912 163.841C45.7239 164.192 45.0955 164.547 44.4622 164.881C43.6233 165.323 42.7324 165.759 41.9542 166.112C41.1457 166.478 40.4209 166.771 39.9415 166.914C39.6062 167.015 39.1716 167.109 38.68 167.197C38.1301 167.295 37.5984 167.372 37.1081 167.429C36.4641 167.506 35.7973 167.569 35.2164 167.615C34.4104 167.679 33.747 167.714 33.5063 167.714C32.9059 167.714 29.6138 167.881 29.295 167.897C27.2188 168.052 25.0949 168.124 23.0104 168.237L24.7119 162.203L24.7194 162.18C24.7202 162.177 24.9482 161.375 25.1029 160.747C25.1491 160.56 25.1838 160.57 25.1838 160.505C25.1838 159.189 25.6279 158.45 26.3131 157.31L26.3139 157.309C27.0662 156.057 28.6731 153.382 28.8091 150.895L28.8348 150.423L30.0027 145.764L30.3883 145.157C31.0841 144.063 31.4715 143.395 31.7758 142.869L31.7807 142.861C32.6366 141.383 33.1044 140.576 34.2547 139.607L34.2513 139.603L34.3705 139.505L19.6338 128.276L19.5615 127.793L18.8175 130.825L16.1492 124.062L15.1302 128.94L9.76008 113.801L9.75126 113.783L9.75567 113.781C9.71447 113.663 9.3807 112.709 9.00132 111.548L8.68491 111.516L8.68517 111.513C8.39234 111.483 5.31584 111.133 3.683 109.504V109.497C3.25465 109.069 2.87915 108.522 2.55082 107.898C2.2681 107.36 2.017 106.753 1.79466 106.113C1.59745 105.546 1.44534 105.064 1.32691 104.653C1.19734 104.203 1.07425 103.737 0.961783 103.288C0.694092 102.22 0.669992 101.285 0.763541 100.433C0.849835 99.6473 1.03434 98.9796 1.21133 98.3386L1.24839 98.2042C1.26523 98.1403 1.28415 98.0653 1.30773 97.9648C1.3124 97.545 1.34375 96.996 1.40647 96.3575C1.4614 95.7979 1.54381 95.1838 1.65757 94.5546C1.76071 93.9833 1.89157 93.4051 2.05354 92.8486C2.20306 92.3342 2.38498 91.8221 2.60421 91.3302V91.3227C2.8351 90.8047 3.47984 89.1176 4.05953 87.6006C4.10773 87.4742 4.14764 87.37 4.56511 86.298C4.73174 85.8697 4.89707 85.4538 5.06499 85.047C5.207 84.7027 5.47443 83.9722 5.767 83.1515C6.39412 81.3946 6.98366 79.6645 6.98599 79.6575L7.06866 79.4376L7.09146 79.3688L7.0925 79.368Z" fill="#28EBF7"/>
<path fill-rule="evenodd" clip-rule="evenodd" d="M56.7256 12.3705C47.5347 14.4451 43.7531 14.2916 36.5156 19.4352C24.1352 28.2338 18.827 42.0312 20.4982 57.8273C21.3609 65.9823 24.4902 73.7071 24.7937 81.0215C26.8689 85.8239 25.1681 71.2841 24.9925 70.4957C24.0593 66.3085 23.0956 62.5796 24.0847 57.8684L27.297 75.5723C27.3786 75.9228 27.3092 76.8614 28.2498 78.075C28.3486 72.395 26.7292 67.8646 26.7463 63.1048C26.7668 57.4078 29.134 54.5763 30.2413 51.0506L28.4724 58.1398L36.0909 51.497L34.0273 47.7404L37.953 45.2501C39.4156 46.4278 39.0969 46.8921 41.1407 47.6355C43.7458 45.8568 48.9102 40.8042 50.854 38.4897C48.3251 44.3 43.5875 47.0404 41.8339 49.4648L43.58 53.1562C47.125 52.7214 51.2404 48.2964 53.3967 46.5961C51.2303 50.9143 48.1364 50.8983 46.7943 56.9926L48.2429 55.6353C53.6989 48.7622 61.734 43.5527 61.6625 29.4507C67.4291 35.8581 71.5802 48.4636 80.3425 53.805L80.5379 59.1158L82.6289 53.0998C83.4327 57.0291 82.1249 65.0876 82.3298 67.6229L82.6343 69.1094C82.6628 69.2294 82.724 69.4491 82.7976 69.6078C84.5546 61.6035 85.3892 61.5252 84.5595 52.3738C84.6929 52.4748 84.8653 52.4991 84.9184 52.7256C84.9702 52.9484 85.1939 52.9983 85.2636 53.0789L87.1447 55.4353C89.5267 53.4442 91.5461 51.9943 95.5138 53.4012C95.2013 49.7072 95.9886 45.4135 95.683 41.3928C95.5423 39.5436 95.2684 37.8451 94.9634 36.0403C94.6343 34.0921 94.4425 32.7624 93.2564 31.1852L93.1546 36.2626C92.1909 34.0621 92.9533 33.8646 90.5549 32.9137L91.7299 46.4234C86.7552 45.292 86.9508 45.2357 86.2268 40.3159L84.3263 44.3584L84.8951 37.8934L82.4143 40.4981C81.7763 41.3506 81.7476 41.7523 80.6017 42.4469L84.6155 31.7195C82.689 34.1117 81.2972 35.9736 78.7869 37.1515C79.875 34.0662 80.8424 34.9459 78.7654 33.3841C76.6705 32.5109 76.7413 32.5546 76.6832 29.6529C76.6682 28.9048 76.7127 27.2792 76.8387 26.551C77.343 23.6392 76.7213 25.9245 77.4925 24.852C76.9825 17.9261 79.6058 18.7313 82.6634 17.7604L83.5504 17.4138C83.6447 17.3776 83.8443 17.3076 83.9697 17.2181C79.9434 13.8599 73.8827 10.5846 66.7994 11.3084C65.485 12.9066 63.4052 15.9014 62.4971 18.1154C62.421 16.3326 62.3551 16.9116 61.6557 16.019L57.2817 15.919L60.6912 14.3045L58.8723 13.1682C57.6883 12.6512 57.8637 12.9738 56.7251 12.37L56.7256 12.3705Z" fill="#F352AA"/>
<path fill-rule="evenodd" clip-rule="evenodd" d="M95.0878 17.9664C93.6796 18.5966 94.3925 17.8501 93.868 18.9864C91.612 18.7303 93.1943 19.6344 91.6107 18.4211C91.1997 16.6308 92.3425 16.0366 94.6053 16.0022L95.0878 17.9664ZM93.2679 20.3228L97.6351 20.4544L95.2233 21.8833L99.0773 23.0912L94.8069 23.7451L97.76 25.8456L93.8758 27.1411C98.5839 30.6268 100.182 31.2826 104.787 36.1884C104.406 37.8207 103.882 35.3767 104.38 41.3938C105.143 50.6096 104.151 54.7306 103.686 63.3239C105.673 61.819 107.094 58.6722 108.031 56.0546C108.63 54.3793 110.236 48.9635 110.354 47.9575C111.279 54.6897 107.243 63.7019 104.986 69.1133L98.9809 88.4188C99.277 89.9394 98.8443 88.8634 99.5789 89.8397C101.2 88.7455 101.584 85.5423 102.256 83.7288C103.111 81.4195 103.932 79.6176 105.096 78.0315C104.142 86.9557 100.504 89.6916 104.553 92.8523L108.491 74.8374C108.664 78.9897 107.487 84.6431 109.526 88.2577C110.558 86.3623 114.881 62.0041 116.058 57.255C120.378 39.8359 120.262 40.9502 111.58 29.1072C114.923 29.8718 116.819 33.4807 119.292 35.6817C118.957 31.7458 117.168 26.7813 115.681 23.4916C113.568 18.8161 111.984 17.1765 106.48 16.5192L111.809 13.0981C103.34 11.7594 100.044 16.2105 96.3928 16.3726L94.9295 13.9503C90.0818 14.4655 92.0155 16.3462 87.7412 17.9003C90.9367 20.039 89.6088 17.7359 91.4972 21.4369L93.2681 20.322L93.2679 20.3228Z" fill="#F352AA"/>
<path fill-rule="evenodd" clip-rule="evenodd" d="M73.8707 60.2557C73.6872 61.8009 73.4364 63.1931 72.8867 64.4057L70.8966 66.9944C71.4703 61.2162 70.9854 63.0476 70.3599 62.2065C70.3034 62.3691 70.2712 62.5833 70.2523 62.7118L69.7167 67.3157C68.7045 70.6825 64.4051 71.1656 62.2942 68.6521L60.4128 65.6301C59.1448 67.0944 58.0697 67.7435 56.9803 69.6927C56.9401 63.9138 60.2465 64.036 63.5157 60.867L57.0505 62.7821C59.1404 62.0726 60.7575 60.2019 64.1284 59.9026C66.8846 59.6578 70.7714 60.2376 73.8707 60.2557ZM50.0167 61.8666C51.6122 60.5491 52.3251 61.2397 54.521 59.7023C55.7385 58.8498 56.9038 57.4826 58.0065 56.3624C60.4361 53.8943 61.7173 52.484 66.648 51.981C65.3289 52.9591 63.5557 53.677 61.9739 54.7616C58.7605 56.9646 55.8854 64.286 50.0164 61.8666H50.0167ZM48.2766 56.8028C47.7819 58.7492 46.2662 60.174 44.439 61.6965L44.9982 56.3541C41.8165 57.5798 39.4161 59.7061 37.4686 61.8666C38.8789 62.9235 41.3542 63.7403 42.3765 64.9645C43.2301 65.9868 44.6512 69.2117 44.9313 71.0767C41.3197 69.2936 40.074 66.9719 34.8508 69.2368C36.6474 70.6571 39.0364 69.8825 41.1875 70.5858C43.0857 71.2064 44.1912 72.4363 44.7714 74.1852C43.1982 75.1969 41.2894 76.4152 39.287 74.2899C36.3867 71.2119 39.7677 70.6184 33.5898 71.1609C36.5886 77.9004 43.9875 77.3478 46.1143 75.0501C47.637 76.715 47.2322 77.0345 50.0434 77.6745C52.1688 78.1584 54.4941 78.458 56.8351 78.9052C59.6947 76.4558 73.4667 72.8644 77.7632 69.8564C80.8395 67.7024 80.9522 68.1902 80.7594 63.1717C79.4492 65.0289 77.0361 67.6667 74.964 68.4928C82.6089 51.2048 77.2794 57.2376 70.3239 45.7621L63.7498 35.4475C63.5354 38.98 63.6153 41.7316 62.5225 44.7305C61.34 47.9766 60.3219 48.4044 58.7813 50.4609C59.823 46.5908 61.8049 43.8703 61.9513 39.0511C60.1218 45.7838 52.3891 54.1795 48.2763 56.8031L48.2766 56.8028Z" fill="white"/>
<path fill-rule="evenodd" clip-rule="evenodd" d="M78.9115 84.5358C77.7521 85.7824 77.8918 85.5312 76.0747 86.2027C75.777 89.2516 76.6977 87.802 76.0882 89.4467C75.6637 90.5913 74.3292 91.3176 73.8593 91.7023C73.651 95.8225 66.3829 103.67 64.1458 105.205C64.4819 108.204 66.8924 113.092 65.3868 115.531L64.2745 111.968C62.5751 112.882 61.693 113.669 60.9482 117.082C69.738 117.941 67.0803 119.184 69.7382 120.816C75.4924 116.889 90.8962 105.694 92.1903 99.0068C88.5206 98.2337 87.991 96.6892 87.4172 100.617C85.5087 97.0971 85.0396 87.6402 84.9015 82.708C82.6055 82.9101 81.9326 84.4107 78.9115 84.536V84.5358Z" fill="white"/>
<path fill-rule="evenodd" clip-rule="evenodd" d="M58.7363 79.2812L47.3998 79.0356L46.668 87.2831C48.6379 89.3006 48.3516 87.7055 49.2423 89.9504L51.4561 95.626C52.4255 97.4628 51.8813 96.1148 52.687 97.5737C53.5901 99.2104 53.2589 99.8078 54.1967 101.629C63.6864 102.978 69.4274 92.3908 73.4495 90.729C74.2155 87.7572 74.4246 83.8352 74.3396 80.2678C72.9455 81.0208 74.0193 80.3679 73.0196 81.1511L70.8267 83.3937C69.8669 81.3212 70.9496 83.0985 70.7272 81.5859L66.1679 83.9828L69.3675 79.8548L62.6784 81.7146C65.4556 79.3163 71.4466 78.0399 72.6506 74.3904C69.3483 74.5431 63.3954 78.4437 58.7366 79.2809L58.7363 79.2812Z" fill="#F452A9"/>
<path fill-rule="evenodd" clip-rule="evenodd" d="M24.7943 81.0217C24.4909 73.7073 21.3615 65.9825 20.4988 57.8275C18.8279 42.0314 24.1359 28.2337 36.5162 19.4354C43.7535 14.2918 47.5354 14.4453 56.7262 12.3707C58.9292 12.2435 62.5359 13.0751 63.8769 12.2583C64.4507 8.99386 64.9207 11.1781 63.0762 9.64188C57.9525 5.37402 45.8763 10.6924 41.3316 13.0485C12.3642 28.0652 14.364 53.5842 24.7941 81.0219L24.7943 81.0217Z" fill="#7CFAFA"/>
<path fill-rule="evenodd" clip-rule="evenodd" d="M77.8166 84.0571C81.0779 80.1734 83.3931 85.4214 87.0166 75.3629C87.318 74.5267 87.5782 73.8547 87.5875 72.9973C87.5999 71.8194 87.474 72.2285 87.3854 71.8525L87.205 71.3269C87.1957 71.2975 87.0943 71.1788 87.1213 71.1041C94.3186 64.9467 94.1294 66.1663 94.2953 54.8609C91.9985 53.7786 89.2302 55.2401 87.829 56.989C86.5393 58.5989 86.518 61.9943 86.2905 64.5626C90.5515 62.3893 86.7266 62.8176 88.808 59.2122C92.0589 53.5814 93.2893 57.4967 93.3088 57.5256C92.7213 59.7737 93.6005 57.391 92.4759 58.5366C91.337 59.6964 91.2134 59.1228 90.7876 60.7156C90.0594 63.4385 92.1284 62.2161 89.5844 65.0377C86.7525 68.1778 91.224 66.3759 88.4012 68.0987C87.1436 68.8662 88.1301 68.4663 86.7178 68.4081C84.0484 68.2983 87.0218 65.7 82.6701 72.9143C81.6195 74.6562 79.5746 77.6617 78.0385 78.4992C78.713 75.912 80.1549 73.278 79.9553 70.3576C79.4046 70.872 76.0625 73.0722 74.708 73.6494C77.9094 86.7337 74.2887 83.611 77.8166 84.0571Z" fill="white"/>
<path fill-rule="evenodd" clip-rule="evenodd" d="M65.6646 150.055C63.7462 149.255 63.7918 149.257 62.5272 147.702C62.7247 149.872 63.2144 149.989 62.2777 151.367C58.8005 147.696 58.7179 142.997 56.0609 139.572C54.7383 142.557 57.4323 151.245 59.3623 153.453C61.23 155.59 67.1601 159.792 69.51 161.501C71.8922 152.639 65.6472 137.685 57.9822 135.715C57.7064 139.943 64.1577 143.668 65.6646 150.056V150.055Z" fill="#F051A7"/>
<path fill-rule="evenodd" clip-rule="evenodd" d="M10.3926 101.891C10.5351 106.131 10.2749 102.972 11.6069 104.211C11.6453 101.919 14.3748 96.916 15.6528 94.4379C15.6736 94.4909 15.2452 103.375 15.6611 106.001L16.7791 100.584C17.8343 102.673 17.3971 108.026 19.2678 111.931C19.0929 103.742 17.8229 101.526 21.1158 93.316C24.0026 86.1188 25.4252 84.0573 21.4114 76.0999C19.5557 82.8732 14.9514 88.8158 12.213 98.0502C12.0684 98.5374 11.781 99.6143 11.6007 100.009C10.6447 102.104 11.1874 100.964 10.3926 101.891V101.891Z" fill="#EE52A7"/>
<path fill-rule="evenodd" clip-rule="evenodd" d="M36.5469 149.984C36.4736 153.552 34.0573 156.211 32.999 159.326C38.9807 158.918 49.9063 151.08 52.4163 142.31C49.8143 143.504 51.3196 143.197 49.4919 144.683C46.0127 147.512 49.5834 144.203 46.4533 145.968C44.0998 147.295 42.8914 149.725 40.6027 151.088C42.83 144.35 49.4251 141.722 49.3844 137.714C45.6642 138.788 40.5737 142.545 38.8644 145.839L36.8796 149.6C36.8317 149.498 36.6684 149.866 36.5464 149.984H36.5469Z" fill="#F051A7"/>
<path fill-rule="evenodd" clip-rule="evenodd" d="M61.2822 136.001L84.3591 122.35C89.6637 119.317 97.6975 115.27 103.885 113.826C106.223 113.281 110.511 113.856 112.323 112.715C107.428 104.538 69.9981 128.689 63.2263 133.508C61.1801 134.964 61.4362 134.126 61.2822 136.001Z" fill="#EBEBEB"/>
<path fill-rule="evenodd" clip-rule="evenodd" d="M63.1546 137.149C70.2415 133.676 78.4337 128.83 86.2218 124.851C90.2478 122.794 94.1015 121.023 98.5698 119.161C111.022 113.972 110.481 118.176 113.375 115.816C112.326 114.012 113.187 114.475 110.197 114.398C108.912 114.365 106.603 114.515 105.338 114.74C99.7935 115.728 90.4541 120.38 85.7264 123.076C82.2513 125.058 64.1294 135.198 63.1543 137.149L63.1546 137.149Z" fill="#EBEBEB"/>
<path fill-rule="evenodd" clip-rule="evenodd" d="M86.7915 89.1513C90.0637 92.2815 98.0143 90.6037 100.351 94.7322L100.249 97.8364C98.2652 99.3604 97.9021 98.8876 96.7368 100.933C98.8379 102.016 103.297 100.919 107.744 107.66C109.124 109.752 108.468 110.036 111.264 110.075C110.398 107.043 106.048 101.324 100.125 100.805L102.683 99.2764C102.322 92.1487 104.355 92.5953 91.8766 88.9357C85.3072 87.0092 87.5055 88.5945 86.791 89.1513H86.7915Z" fill="#76E7EA"/>
<path fill-rule="evenodd" clip-rule="evenodd" d="M10.5468 98.456L10.3926 101.891C11.1874 100.965 10.6447 102.104 11.6007 100.009C11.7808 99.6151 12.0684 98.538 12.213 98.0507C14.9514 88.8163 19.556 82.8735 21.4114 76.1004L20.2899 73.2759C20.2352 73.1849 20.1033 73.0174 20.0043 72.8928C17.5256 76.0507 11.4846 93.1646 10.5465 98.456H10.5468Z" fill="#81F6FA"/>
<path fill-rule="evenodd" clip-rule="evenodd" d="M28.7077 65.4834L38.9196 56.2855L37.6128 52.9585C34.4295 53.9464 33.13 55.928 31.3569 58.3076C30.1076 59.9844 27.4237 62.9521 28.7075 65.4837L28.7077 65.4834Z" fill="#F051A7"/>
<path fill-rule="evenodd" clip-rule="evenodd" d="M53.1978 136.053L52.5914 132.682C52.5383 132.532 52.4302 132.319 52.331 132.147C52.3263 132.151 50.0588 132.342 50.8487 136.91C51.2384 139.164 51.9985 139.424 53.5743 140.015C54.9195 138.222 54.1851 138.105 57.9758 133.294C59.1606 133.604 58.8602 133.422 59.6104 134.255L59.6107 131.077C55.7969 130.522 54.6368 133.227 53.1978 136.053Z" fill="#EE52A7"/>
<path fill-rule="evenodd" clip-rule="evenodd" d="M40.801 93.6348C40.1775 90.8346 37.532 84.343 35.881 82.1502C41.5567 82.8528 42.424 83.741 43.3385 81.4482L34.2925 80.8198C34.2642 83.5727 34.0722 81.495 35.2391 84.1142C36.7217 87.442 38.0417 92.3454 40.801 93.6348Z" fill="#6BDCDC"/>
<path fill-rule="evenodd" clip-rule="evenodd" d="M29.3292 100.828C30.2544 98.8909 30.8566 95.7056 31.7543 93.3381C32.7157 90.8029 34.5838 88.8802 34.489 85.9836C33.4545 86.7865 34.3965 85.4765 33.0564 87.3293C32.01 88.7766 32.1357 90.0339 30.1139 92.4437C28.372 94.5201 28.2056 98.5386 29.329 100.828L29.3292 100.828Z" fill="#68D4D4"/>
<path fill-rule="evenodd" clip-rule="evenodd" d="M54.6773 115.414C57.5854 112.391 54.9181 109.857 59.2304 105.953C61.3507 104.032 60.9716 105.501 60.9812 102.718C58.6595 103.118 59.5981 102.694 58.3061 104.412C55.4991 108.142 54.5426 109.624 54.6773 115.414Z" fill="#6BDCDC"/>
<path fill-rule="evenodd" clip-rule="evenodd" d="M49.8795 132.179C49.321 127.917 47.1816 123.699 46.4288 117.983C44.7288 121.319 46.5793 127.264 48.6571 130.596L49.8795 132.179Z" fill="#D7D7D7"/>
<path fill-rule="evenodd" clip-rule="evenodd" d="M51.2342 130.121L48.8789 115.78C46.6554 118.603 49.1828 127.973 51.2342 130.121Z" fill="#D7D7D7"/>
<path fill-rule="evenodd" clip-rule="evenodd" d="M66.3184 66.4541C66.0914 66.4055 65.7812 66.0736 65.6467 66.2688L62.3945 65.7058C62.7843 70.3929 68.5747 70.5692 68.6092 64.272C66.0619 64.7982 66.974 64.1662 66.3184 66.4541Z" fill="#7CFAFA"/>
<path fill-rule="evenodd" clip-rule="evenodd" d="M21.6826 27.29C24.2442 25.4054 22.7948 25.4263 24.1761 23.8627C25.4653 22.4036 25.6316 23.4288 27.0857 20.8413C22.4976 21.821 21.9456 22.4209 21.6826 27.29Z" fill="#76E7EA"/>
<path fill-rule="evenodd" clip-rule="evenodd" d="M54.4375 129.902C55.6482 128.727 56.9188 126.126 57.1344 124.204C57.345 122.326 57.2746 123.391 56.6835 122.398C54.5914 123.886 54.5629 127.216 54.4375 129.902Z" fill="#77E5E7"/>
<path fill-rule="evenodd" clip-rule="evenodd" d="M81.4203 21.9315C82.5608 20.416 83.2944 21.0922 84.992 19.6992L79.9256 19.6516L79.0813 23.2828C78.9725 23.4242 78.8683 23.4914 78.8346 23.7569L77.2018 27.8466C78.3534 26.8525 77.9416 26.7982 77.4938 24.8523C76.7223 25.9248 77.3443 23.6393 76.84 26.5514C76.7141 27.2795 76.6692 28.9051 76.6845 29.6532C76.7426 32.555 76.6718 32.5115 78.7667 33.3844C78.4182 31.0968 78.3741 32.6204 80.9665 29.7121L84.1197 26.5206C83.4268 25.8473 83.0492 25.4422 82.4068 24.3842C82.3337 24.264 82.2389 24.0983 82.1728 23.9787C82.1096 23.8647 82.0153 23.6967 81.9598 23.5858L81.4205 21.9317L81.4203 21.9315Z" fill="#7CFAFA"/>
<path fill-rule="evenodd" clip-rule="evenodd" d="M50.7308 116.156C51.2257 115.886 51.9594 115.54 52.3333 115.26C54.9185 113.326 53.3932 115.832 53.8729 112.35C51.5308 113.054 50.552 113.184 50.7305 116.156H50.7308Z" fill="#6BDCDC"/>
<path fill-rule="evenodd" clip-rule="evenodd" d="M43.7925 73.9641L38.9502 72.3374C40.314 74.9603 40.9484 75.3736 43.7925 73.9641Z" fill="#6BDCDC"/>
</g>
<defs>
<clipPath id="clip0_1_2933">
<rect width="130.292" height="175" fill="white" transform="translate(0.714844)"/>
</clipPath>
</defs>
</svg>
