<svg width="73" height="73" viewBox="0 0 73 73" fill="none" xmlns="http://www.w3.org/2000/svg">
<mask id="mask0_1_528" style="mask-type:alpha" maskUnits="userSpaceOnUse" x="0" y="0" width="73" height="73">
<rect width="73" height="73" fill="#D9D9D9"/>
</mask>
<g mask="url(#mask0_1_528)">
</g>
<g clip-path="url(#clip0_1_528)">
<path fill-rule="evenodd" clip-rule="evenodd" d="M12.4752 33.4204L14.1679 29.368L11.3542 10.558L15.4874 9.61998L15.4803 9.5568C15.4801 9.55475 15.4037 8.83534 15.4954 8.54259C15.5118 8.48986 15.5291 8.42927 15.5475 8.36435C15.6118 8.1376 15.6892 7.86426 15.7987 7.66424L15.8012 7.63642C15.8175 7.44245 15.8338 7.2599 16.2796 6.91917C16.4258 6.80735 16.506 6.72692 16.5701 6.66276C16.7567 6.47579 16.8559 6.37648 17.2941 6.26154C17.4484 6.22111 17.5279 6.18779 17.5888 6.16245C17.7742 6.08503 17.8563 6.05085 18.3297 6.06411C18.5283 6.06961 18.68 6.07317 18.8056 6.07619C19.0953 6.08298 19.2586 6.08686 19.3862 6.09926C19.4684 6.10735 19.5636 5.89763 19.9374 5.61858C20.6305 5.10145 21.6477 4.34246 22.612 3.8318C23.5258 3.34799 24.7089 2.77899 25.5522 2.37336C26.1066 2.1067 26.5081 1.91359 26.5536 1.88232C26.7312 1.76004 27.618 1.56768 28.4557 1.38589C28.8481 1.30082 29.2291 1.21811 29.5144 1.14932C29.8983 1.05691 30.4781 0.981868 31.0754 0.926877C31.8501 0.855712 32.65 0.816895 33.0877 0.816895C33.5269 0.816895 34.1438 0.878786 34.7241 0.991464C35.2273 1.08926 35.7116 1.22771 36.0473 1.40142C36.6273 1.70149 38.2751 2.22111 38.5108 2.29486L41.5811 3.00726L41.6106 3.01815C41.6134 3.01923 42.6034 3.38422 43.1294 3.68742L43.2646 3.76527C43.6743 4.0013 43.8158 4.08282 44.1677 4.29912C44.217 4.32942 44.2937 4.38042 44.3671 4.42937C44.5648 4.56092 44.715 4.66098 44.9124 4.55693C45.0713 4.47326 45.1669 4.39918 45.2519 4.3333C45.4224 4.20132 45.5615 4.0935 45.957 3.97198L46.2279 3.88841C46.7405 3.72732 47.3039 3.55016 47.6853 3.53388C47.824 3.52795 47.961 3.50337 48.0917 3.47997C48.3301 3.43738 48.5522 3.39759 48.8076 3.43716C48.9875 3.46509 49.0667 3.49248 49.1458 3.51997C49.2069 3.541 49.2678 3.56224 49.4785 3.58596C49.745 3.61626 50.0857 3.47188 50.3623 3.35489C50.418 3.33128 50.4717 3.30853 50.5595 3.27402C50.6369 3.24361 50.7515 3.18992 50.8727 3.1332C51.199 2.98031 51.5681 2.80746 51.9035 2.79172C52.0504 2.78482 52.594 2.76789 53.1734 2.75085C53.9402 2.72832 54.7401 2.706 54.7864 2.706C54.8658 2.706 55.1784 2.71926 55.536 2.7501C55.7456 2.7681 55.9834 2.79398 56.2179 2.83C56.5507 2.88111 57.0597 2.97847 57.4666 3.08694C57.8063 3.17741 58.1022 3.28567 58.2447 3.40438C58.5048 3.6209 58.487 3.85121 58.2877 4.08293C58.0843 4.31917 57.5173 4.53709 57.2366 4.64492C57.1518 4.67748 57.2397 4.64233 57.1604 4.67349L57.1606 4.67403C57.0968 4.69904 56.9929 4.78002 56.8944 4.87469C57.1363 4.98284 57.4531 5.14016 57.7901 5.37532C58.1876 5.65265 58.4239 5.93839 58.6103 6.16385C58.6853 6.25453 58.7504 6.33314 58.8059 6.38349C58.9512 6.51536 59.0943 6.69511 59.225 6.92736C59.3376 7.12738 59.4419 7.36643 59.5312 7.64721C59.6563 8.04077 60.0521 9.33338 60.2725 10.0548L62.4894 10.558L56.1313 53.0629L40.2264 65.1819L39.0675 71.5649L34.5939 68.254L33.0533 67.3544L32.9219 67.1616C32.9184 67.1566 31.7287 65.4169 31.6357 65.3008C31.4641 65.0869 31.0435 64.5422 30.651 64.0317C30.4661 64.2916 30.2788 64.5696 30.1211 64.8037C30.0214 64.9516 29.9346 65.0805 29.8295 65.2302C29.6688 65.4594 29.3082 65.9413 28.9898 66.346C28.7348 66.6699 28.479 66.9814 28.3096 67.1593C28.0781 67.4023 27.5176 67.7468 26.9282 68.0575C26.2725 68.4034 25.5227 68.7454 25.1896 68.8452C24.9287 68.9232 24.5391 68.9854 24.1454 69.0317C23.548 69.1021 22.8929 69.1437 22.739 69.1437C22.502 69.1437 20.9374 69.2237 20.933 69.224L19.4568 69.3035L19.8576 67.8821C19.8582 67.8798 20.0866 67.0766 20.0866 66.9534C20.0866 66.6255 20.2254 66.3947 20.4395 66.0384C20.7864 65.461 21.5278 64.2272 21.5956 62.9864L21.6017 62.8751L22.0387 61.1315L22.1295 60.9886C22.4142 60.5408 22.5888 60.2392 22.7263 60.0019C23.0398 59.4607 23.2107 59.1656 23.5779 58.8569C23.8419 58.6348 24.1265 58.4806 24.5706 58.2885L17.7127 53.0632L17.1176 49.0847L16.4305 51.886L15.2572 48.9127L14.87 50.7667L13.6048 47.2C13.6036 47.1966 13.3534 46.4844 13.1328 45.7763L12.4683 45.7072C12.4652 45.7069 11.3861 45.6084 10.8778 45.1013C10.6376 44.8616 10.4414 44.4581 10.2821 43.9995C10.1517 43.6243 10.0432 43.2316 9.95711 42.8879C9.78643 42.2069 9.92587 41.7017 10.0548 41.235L10.0559 41.2352C10.0925 41.103 10.1268 40.9779 10.1268 40.9107C10.1268 40.5863 10.1653 40.093 10.257 39.5862C10.3292 39.1867 10.4385 38.7762 10.5942 38.4264C10.7141 38.1575 10.9807 37.4597 11.2206 36.8321C11.363 36.4591 11.495 36.1139 11.6303 35.7863C11.8462 35.2633 12.4491 33.4922 12.4508 33.487L12.4757 33.4207L12.4752 33.4204Z" fill="black"/>
<path fill-rule="evenodd" clip-rule="evenodd" d="M45.3481 3.3244C45.4507 3.28148 45.5708 3.23814 45.7164 3.19339L45.9795 3.1122L45.9847 3.1095C46.5416 2.9345 47.1535 2.74214 47.6493 2.72025C47.7386 2.71615 47.8452 2.69718 47.9467 2.67895L47.9915 2.66925L47.9921 2.67076C48.1302 2.64607 48.2625 2.62342 48.3722 2.61372C48.541 2.59884 48.7218 2.60024 48.9317 2.6327C49.1827 2.67173 49.2968 2.71119 49.4106 2.75055L49.4192 2.75346L49.4202 2.75066L49.4207 2.75087L49.4197 2.75368C49.4347 2.75799 49.4634 2.7636 49.5673 2.77535C49.6259 2.78203 49.855 2.6851 50.042 2.60606L50.0414 2.60488L50.1348 2.56649L50.1344 2.56541C50.1683 2.5514 50.2083 2.53511 50.2608 2.51452C50.3359 2.48498 50.4269 2.44238 50.5231 2.39731L50.5263 2.39419L50.5293 2.39278L50.5299 2.39419C50.9235 2.2098 51.3684 2.00213 51.8641 1.97809C51.9124 1.97572 52.0761 1.97011 52.3066 1.96267L53.15 1.93701L54.2372 1.90574C54.602 1.8956 54.743 1.88892 54.7852 1.88892C54.8283 1.88892 54.9671 1.89442 55.171 1.90638C55.3319 1.91576 55.4907 1.92633 55.6052 1.93625C55.7123 1.94574 55.8376 1.95836 55.9813 1.97518C56.1105 1.99038 56.2322 2.00623 56.3382 2.02251H56.3415C56.503 2.04731 56.7445 2.0913 57.0338 2.15082C57.268 2.19891 57.4947 2.25024 57.6766 2.29865C57.8739 2.35116 58.0718 2.415 58.2579 2.49091C58.4574 2.57221 58.6314 2.66763 58.7649 2.7788C58.766 2.7788 58.7672 2.7788 58.7682 2.7788C58.8202 2.82204 58.8678 2.86657 58.911 2.9124C59.8023 3.50296 59.2201 4.48794 58.5992 4.9737C58.6961 5.05672 58.7823 5.13834 58.8604 5.2177C59.012 5.372 59.1329 5.518 59.2394 5.64674L59.3317 5.75252L59.3298 5.75414C59.3387 5.76427 59.3471 5.77311 59.355 5.78023C59.4614 5.87673 59.5674 5.992 59.6712 6.12657C59.7673 6.25132 59.8568 6.38535 59.9373 6.52822C60.0066 6.65146 60.0749 6.79045 60.141 6.94582V6.94906C60.2078 7.10627 60.2651 7.25776 60.3107 7.40139L60.5703 8.24383L60.9135 9.36521L63.4091 9.93162L56.8906 53.5092L40.9714 65.6391L39.6349 72.9999L34.1377 68.9315L32.4784 67.9625L32.2456 67.6213L32.2423 67.6149C32.2403 67.6118 31.7184 66.8489 31.3383 66.299C31.1569 66.0366 31.0166 65.834 30.9993 65.8105L30.9978 65.8116C30.9357 65.7343 30.8259 65.594 30.6887 65.4176L30.6512 65.4729C30.5975 65.5518 30.5462 65.6261 30.497 65.6963C30.4058 65.8262 30.2617 66.0228 30.1008 66.2367C29.9166 66.4814 29.7459 66.7053 29.6316 66.8504C29.4955 67.0234 29.3549 67.1978 29.2213 67.3575L29.2197 67.3562C29.0927 67.5081 28.9821 67.6352 28.9 67.7212C28.7465 67.8824 28.5144 68.0597 28.2395 68.2384C28.2173 68.2528 28.1947 68.2674 28.1719 68.2819L28.5366 66.9022C28.6739 66.7404 28.8313 66.5457 28.9883 66.3462C29.3067 65.9417 29.6672 65.4597 29.828 65.2305C29.9331 65.0807 30.02 64.9519 30.1197 64.804C30.2774 64.5699 30.4647 64.2921 30.6496 64.0321C31.042 64.5425 31.4626 65.0873 31.6344 65.3012C31.7273 65.4172 32.9172 67.157 32.9205 67.1619L33.052 67.3547L34.5925 68.2543L39.0661 71.5652L40.225 65.1823L56.1299 53.0632L62.488 10.5583L60.2712 10.0552C60.0507 9.33373 59.6549 8.04111 59.5298 7.64755C59.4405 7.36677 59.3362 7.12772 59.2236 6.92771C59.0929 6.69545 58.9498 6.51571 58.8045 6.38384C58.749 6.33348 58.684 6.25488 58.6089 6.1642C58.4225 5.93863 58.1862 5.653 57.7887 5.37567C57.4517 5.1405 57.1349 4.98318 56.893 4.87504C56.9915 4.78036 57.0956 4.69939 57.1592 4.67437L57.159 4.67383C57.2384 4.64267 57.1504 4.67782 57.2352 4.64526C57.5159 4.53743 58.0828 4.31952 58.2863 4.08327C58.4857 3.85156 58.5035 3.62124 58.2434 3.40473C58.1007 3.28601 57.8049 3.17775 57.4653 3.08729C57.0583 2.97882 56.5495 2.88145 56.2165 2.83034C55.9819 2.79433 55.7442 2.76845 55.5346 2.75044C55.177 2.7196 54.8644 2.70634 54.785 2.70634C54.7387 2.70634 53.9388 2.72866 53.1721 2.7513C52.5927 2.76823 52.0491 2.78527 51.9022 2.79217C51.5667 2.8078 51.1977 2.98076 50.8714 3.13365C50.7502 3.19037 50.6356 3.24407 50.5582 3.27447C50.4707 3.30898 50.4168 3.33173 50.3612 3.35534C50.0845 3.47233 49.7439 3.61671 49.4774 3.58641C49.2668 3.56258 49.2057 3.54145 49.1446 3.52032C49.0655 3.49293 48.9864 3.46554 48.8064 3.43761C48.5512 3.39804 48.3288 3.43783 48.0906 3.48042C47.9599 3.50382 47.8227 3.5284 47.6841 3.53433C47.3026 3.55061 46.7392 3.72777 46.2267 3.88897L45.9558 3.97243C45.5603 4.09395 45.4212 4.20177 45.2507 4.33375C45.1919 4.37936 45.1279 4.42896 45.0413 4.48287L45.3476 3.32461L45.3481 3.3244Z" fill="#F352AA"/>
<path fill-rule="evenodd" clip-rule="evenodd" d="M11.7194 33.1078L13.3246 29.2648L10.4328 9.9318L14.6362 8.97787C14.638 8.73958 14.6566 8.48436 14.7143 8.30019L14.7151 8.30051C14.736 8.23345 14.7306 8.25469 14.7361 8.2356L14.7332 8.23474L14.7599 8.14104L14.7606 8.14125C14.7928 8.02782 14.8284 7.90264 14.8813 7.74586C14.915 7.6458 14.9529 7.5453 14.9963 7.44794C15.0134 7.30259 15.0479 7.14797 15.162 6.9404C15.2733 6.73769 15.4563 6.52107 15.7829 6.27135C15.887 6.19177 15.9445 6.1343 15.9902 6.08847V6.08524L15.992 6.08675C16.1244 5.95401 16.2267 5.85201 16.4116 5.73955C16.5822 5.63571 16.7827 5.5528 17.0855 5.47333C17.1814 5.44821 17.2339 5.42632 17.2739 5.4096L17.2748 5.40939C17.4153 5.35062 17.5168 5.30825 17.7227 5.27504C17.8751 5.25045 18.0589 5.24215 18.3516 5.25035L19.0922 5.269C19.1802 5.18339 19.294 5.08203 19.4473 4.96763C19.8055 4.70044 20.2475 4.37071 20.7086 4.05273C21.2012 3.71308 21.726 3.37623 22.2276 3.11076C23.116 2.64032 24.3231 2.05957 25.1868 1.64412L25.1965 1.63949C25.6051 1.44292 25.8059 1.34739 25.8849 1.30879C26.0228 1.2415 26.0778 1.22005 26.0891 1.21217C26.2713 1.08667 26.6268 0.97237 27.0613 0.864976C27.4602 0.766423 27.8772 0.675958 28.2823 0.58808C28.7515 0.486293 28.5002 0.544087 28.8486 0.466884C29.0072 0.431625 29.1648 0.395719 29.3219 0.357981C29.5388 0.305685 29.7889 0.26083 30.0549 0.222983C30.325 0.184489 30.6522 0.148476 31.0012 0.116452C31.3959 0.0801143 31.7793 0.0526188 32.1133 0.0342885C32.5233 0.011753 32.8665 0 33.0871 0C33.3284 0 33.6285 0.0183303 33.9555 0.0532658C34.2573 0.0855056 34.5739 0.131763 34.8771 0.190635C35.1643 0.246381 35.4512 0.316036 35.7182 0.398739C35.9788 0.4795 36.2186 0.572445 36.4211 0.677252C36.5951 0.767286 36.9035 0.888158 37.2384 1.00957C37.8297 1.22393 38.5179 1.44249 38.7218 1.50643L41.8147 2.22412L41.8916 2.25237C41.9062 2.25776 42.9508 2.64356 43.5385 2.98234L43.6736 3.06019C43.9049 3.19347 44.0584 3.28188 44.1531 3.33774C44.2355 3.38626 44.3624 3.46346 44.5958 3.60698C44.6181 3.62067 44.658 3.64655 44.7056 3.67782L44.7369 3.69831L44.7488 3.68903C44.8991 3.57247 45.0319 3.46982 45.2524 3.36696L44.9419 4.54118L44.9117 4.55746C44.7144 4.66151 44.5642 4.56145 44.3664 4.42979C44.293 4.38095 44.2163 4.32984 44.167 4.29954C43.815 4.08324 43.6736 4.00173 43.2639 3.7657L43.1287 3.68785C42.6027 3.38464 41.6127 3.01965 41.6099 3.01857L41.5804 3.00768L38.5101 2.29528C38.2743 2.22164 36.6265 1.70203 36.0466 1.40195C35.711 1.22824 35.2266 1.08979 34.7234 0.991994C34.1431 0.879317 33.5262 0.817425 33.087 0.817425C32.6493 0.817425 31.8494 0.856242 31.0747 0.927407C30.4774 0.982398 29.8977 1.05734 29.5137 1.14985C29.2283 1.21864 28.8474 1.30135 28.455 1.38642C27.6173 1.56821 26.7305 1.76057 26.553 1.88285C26.5075 1.91412 26.1062 2.10723 25.5515 2.37389C24.7083 2.77953 23.5252 3.34852 22.6115 3.83233C21.6471 4.34299 20.6298 5.10198 19.9368 5.61911C19.5629 5.89816 19.4678 6.10777 19.3856 6.09979C19.2579 6.08729 19.0946 6.08341 18.8049 6.07661C18.6792 6.0737 18.5275 6.07014 18.3291 6.06454C17.8556 6.05127 17.7735 6.08545 17.5881 6.16287C17.5273 6.18832 17.4477 6.22153 17.2934 6.26196C16.8552 6.3768 16.7559 6.47632 16.5694 6.66318C16.5053 6.72734 16.425 6.80778 16.2789 6.91948C15.8332 7.26032 15.8169 7.44287 15.8005 7.63685L15.798 7.66467C15.6885 7.86468 15.611 8.13802 15.5468 8.36478C15.5284 8.42969 15.5111 8.49029 15.4947 8.54312C15.4031 8.83576 15.4794 9.55517 15.4796 9.55722L15.4867 9.6204L11.3535 10.5584L14.1672 29.3683L12.4745 33.4207L12.4496 33.487C12.4479 33.4921 11.8449 35.2632 11.629 35.7863C11.4939 36.1139 11.3619 36.4592 11.2193 36.8321C10.9795 37.4598 10.7129 38.1575 10.593 38.4265C10.4372 38.7764 10.3281 39.1867 10.2557 39.5864C10.1642 40.0932 10.1256 40.5865 10.1256 40.9109C10.1256 40.9781 10.0912 41.1033 10.0547 41.2355L10.0536 41.2352C9.92464 41.702 9.7852 42.2072 9.95588 42.8882C10.042 43.2319 10.1505 43.6246 10.2808 43.9998C10.4402 44.4583 10.6364 44.8619 10.8766 45.1016C11.3848 45.6087 12.464 45.7072 12.4671 45.7075L13.1316 45.7767C13.3521 46.4847 13.6022 47.1969 13.6035 47.2003L14.8687 50.7669L15.2559 48.913L16.4291 51.8863L17.1163 49.085L17.7114 53.0634L24.5692 58.2887C24.1253 58.4808 23.8406 58.635 23.5766 58.8571C23.2094 59.1658 23.0384 59.4609 22.7251 60.0021C22.5876 60.2394 22.413 60.541 22.1283 60.9887L22.0375 61.1315L21.6004 62.8752L21.5944 62.9865C21.5266 64.2273 20.7851 65.4612 20.4383 66.0385C20.2241 66.3949 20.0853 66.6257 20.0853 66.9535C20.0853 67.0767 19.857 67.8799 19.8564 67.8821L19.4555 69.3035L20.9318 69.224C20.9363 69.2237 22.5009 69.1437 22.7378 69.1437C22.8918 69.1437 23.5468 69.1021 24.1443 69.0317C24.538 68.9853 24.9276 68.9233 25.1885 68.8452C25.5217 68.7454 26.2713 68.4033 26.9271 68.0575C27.5165 67.7467 28.0769 67.4024 28.3084 67.1593C28.3411 67.125 28.377 67.0858 28.4154 67.0425L28.0708 68.3453C27.8342 68.4915 27.5721 68.6395 27.3079 68.7789C26.958 68.9633 26.5863 69.1453 26.2617 69.2923C25.9245 69.4452 25.6221 69.5673 25.4221 69.6271C25.2822 69.669 25.101 69.7085 24.8959 69.7451C24.6665 69.786 24.4447 69.8179 24.2402 69.842C23.9716 69.874 23.6934 69.9 23.4511 69.9193C23.1149 69.9461 22.8381 69.9607 22.7377 69.9607C22.4873 69.9607 21.114 70.0305 20.981 70.0372C20.1149 70.1015 19.229 70.1318 18.3594 70.1787L19.0692 67.6618L19.0723 67.6523C19.0727 67.6509 19.1678 67.3164 19.2323 67.0545C19.2516 66.9763 19.266 66.9805 19.266 66.9535C19.266 66.4047 19.4513 66.0965 19.7371 65.6208L19.7375 65.6202C20.0513 65.0981 20.7216 63.9823 20.7783 62.945L20.789 62.7478L21.2762 60.8044L21.4371 60.5513C21.7273 60.0949 21.8889 59.8162 22.0158 59.597L22.0179 59.5933C22.3749 58.9768 22.5701 58.6401 23.0499 58.2362L23.0485 58.2346L23.0982 58.1936L16.9509 53.5096L16.9207 53.3078L16.6104 54.5726L15.4973 51.7517L15.0723 53.7865L12.8322 47.4713L12.8285 47.4636L12.8303 47.4629C12.8131 47.4139 12.6739 47.0156 12.5156 46.5317L12.3837 46.518L12.3838 46.517C12.2616 46.5045 10.9783 46.3585 10.2971 45.679V45.6757C10.1185 45.4974 9.96183 45.2693 9.82487 45.009C9.70693 44.7847 9.60219 44.5314 9.50944 44.2644C9.42717 44.0277 9.36372 43.8266 9.31432 43.6553C9.26027 43.4676 9.20892 43.2729 9.16201 43.0859C9.05034 42.6402 9.04029 42.2503 9.07932 41.895C9.11531 41.5672 9.19228 41.2886 9.26611 41.0212L9.28157 40.9652C9.28859 40.9385 9.29648 40.9073 9.30632 40.8653C9.30827 40.6902 9.32135 40.4612 9.34751 40.1949C9.37042 39.9614 9.4048 39.7052 9.45225 39.4428C9.49528 39.2045 9.54987 38.9633 9.61743 38.7311C9.6798 38.5166 9.75568 38.303 9.84714 38.0978V38.0946C9.94345 37.8785 10.2124 37.1748 10.4542 36.5419C10.4743 36.4892 10.491 36.4458 10.6651 35.9986C10.7346 35.8199 10.8036 35.6465 10.8736 35.4767C10.9329 35.3331 11.0444 35.0284 11.1665 34.6861C11.4281 33.9532 11.674 33.2315 11.675 33.2286L11.7094 33.1368L11.719 33.1081L11.7194 33.1078Z" fill="#28EBF7"/>
<path fill-rule="evenodd" clip-rule="evenodd" d="M32.4236 5.16038C28.5897 6.02579 27.0123 5.96174 23.9932 8.10736C18.8288 11.7776 16.6145 17.5331 17.3116 24.1224C17.6715 27.5241 18.9769 30.7465 19.1035 33.7976C19.9691 35.8009 19.2597 29.7358 19.1864 29.4069C18.7971 27.6602 18.3951 26.1047 18.8077 24.1395L20.1477 31.5246C20.1818 31.6708 20.1528 32.0623 20.5452 32.5685C20.5864 30.1992 19.9109 28.3093 19.918 26.3238C19.9265 23.9474 20.914 22.7662 21.3759 21.2955L20.638 24.2527L23.816 21.4817L22.9552 19.9147L24.5928 18.8759C25.2029 19.3671 25.07 19.5608 25.9225 19.8709C27.0092 19.129 29.1635 17.0213 29.9744 16.0558C28.9194 18.4795 26.9432 19.6227 26.2117 20.634L26.9401 22.1738C28.4188 21.9925 30.1355 20.1466 31.035 19.4373C30.1313 21.2387 28.8407 21.232 28.2809 23.7742L28.8852 23.208C31.1611 20.3409 34.5129 18.1678 34.483 12.2853C36.8885 14.9581 38.6202 20.2164 42.2753 22.4445L42.3568 24.6599L43.229 22.1503C43.5643 23.7894 43.0188 27.151 43.1043 28.2085L43.2313 28.8286C43.2432 28.8786 43.2687 28.9703 43.2994 29.0365C44.0323 25.6976 44.3805 25.6649 44.0344 21.8475C44.09 21.8896 44.1619 21.8998 44.1841 21.9942C44.2057 22.0872 44.299 22.108 44.3281 22.1416L45.1127 23.1245C46.1064 22.294 46.9488 21.6892 48.6039 22.2761C48.4735 20.7351 48.8019 18.944 48.6745 17.2668C48.6158 16.4954 48.5015 15.7869 48.3743 15.0341C48.237 14.2214 48.157 13.6667 47.6622 13.0088L47.6198 15.1268C47.2177 14.2089 47.5358 14.1265 46.5353 13.7298L47.0254 19.3653C44.9503 18.8934 45.0319 18.8699 44.7299 16.8176L43.9371 18.5039L44.1743 15.8071L43.1395 16.8936C42.8734 17.2492 42.8614 17.4168 42.3834 17.7065L44.0577 13.2317C43.2541 14.2296 42.6735 15.0063 41.6264 15.4976C42.0803 14.2106 42.4838 14.5775 41.6174 13.9261C40.7435 13.5618 40.773 13.58 40.7488 12.3696C40.7426 12.0575 40.7611 11.3794 40.8137 11.0757C41.024 9.86104 40.7647 10.8143 41.0864 10.367C40.8737 7.47788 41.968 7.81375 43.2434 7.40876L43.6134 7.26417C43.6528 7.24907 43.736 7.21985 43.7883 7.18254C42.1088 5.78167 39.5806 4.41542 36.6259 4.71733C36.0776 5.38401 35.21 6.63328 34.8312 7.5568C34.7994 6.81313 34.772 7.05466 34.4802 6.68234L32.6556 6.64061L34.0779 5.96713L33.3191 5.49313C32.8252 5.27748 32.8984 5.41205 32.4234 5.16017L32.4236 5.16038Z" fill="#F352AA"/>
<path fill-rule="evenodd" clip-rule="evenodd" d="M48.4262 7.49449C47.8387 7.75737 48.1361 7.44597 47.9173 7.91997C46.9762 7.81312 47.6363 8.19029 46.9757 7.68416C46.8042 6.93736 47.281 6.68947 48.2249 6.67513L48.4262 7.49449ZM47.667 8.47743L49.4888 8.53231L48.4827 9.12837L50.0903 9.63224L48.309 9.90504L49.5409 10.7812L47.9206 11.3216C49.8845 12.7757 50.5514 13.0492 52.4722 15.0956C52.3131 15.7766 52.0946 14.7571 52.3022 17.267C52.6205 21.1113 52.2068 22.8304 52.0128 26.4151C52.8418 25.7873 53.4347 24.4746 53.8252 23.3827C54.0751 22.6839 54.7452 20.4247 54.7942 20.005C55.1801 22.8134 53.4965 26.5727 52.555 28.83L50.0501 36.8832C50.1737 37.5175 49.9931 37.0686 50.2996 37.4759C50.9756 37.0195 51.1362 35.6833 51.4164 34.9268C51.7731 33.9635 52.1155 33.2118 52.6009 32.5502C52.2031 36.2729 50.6855 37.4141 52.3743 38.7326L54.0172 31.2178C54.0893 32.9499 53.5983 35.3082 54.4488 36.816C54.8795 36.0253 56.6826 25.8645 57.1739 23.8834C58.9758 16.6172 58.9276 17.082 55.3057 12.1418C56.7004 12.4607 57.491 13.9662 58.5229 14.8843C58.3828 13.2425 57.6369 11.1716 57.0166 9.79926C56.1349 7.84891 55.4741 7.16498 53.1784 6.89078L55.4012 5.46371C51.8683 4.90528 50.4936 6.76203 48.9705 6.82964L48.3601 5.81921C46.3379 6.0341 47.1445 6.81864 45.3616 7.46689C46.6945 8.35904 46.1406 7.39831 46.9283 8.94216L47.6671 8.4771L47.667 8.47743Z" fill="#F352AA"/>
<path fill-rule="evenodd" clip-rule="evenodd" d="M39.5756 25.1352C39.499 25.7798 39.3944 26.3605 39.1651 26.8663L38.3349 27.9462C38.5743 25.5359 38.372 26.2998 38.1111 25.9489C38.0875 26.0168 38.0741 26.1061 38.0662 26.1597L37.8428 28.0802C37.4205 29.4846 35.6271 29.6862 34.7465 28.6377L33.9617 27.3771C33.4328 27.9879 32.9843 28.2587 32.5299 29.0718C32.5131 26.6611 33.8923 26.7121 35.2561 25.3902L32.5591 26.1891C33.431 25.8931 34.1055 25.1127 35.5116 24.9879C36.6614 24.8858 38.2827 25.1276 39.5756 25.1352ZM29.625 25.8071C30.2906 25.2576 30.588 25.5457 31.504 24.9043C32.0118 24.5487 32.498 23.9784 32.9579 23.5111C33.9714 22.4816 34.5059 21.8933 36.5627 21.6835C36.0124 22.0915 35.2727 22.3909 34.6129 22.8433C33.2725 23.7623 32.0731 26.8164 29.6249 25.8071H29.625ZM28.8992 23.6948C28.6928 24.5068 28.0605 25.1011 27.2983 25.7362L27.5316 23.5077C26.2044 24.019 25.2031 24.9059 24.3907 25.8071C24.979 26.248 26.0115 26.5888 26.438 27.0994C26.7941 27.5259 27.3869 28.8711 27.5037 29.6491C25.9972 28.9053 25.4775 27.9368 23.2987 28.8816C24.0482 29.4741 25.0447 29.1509 25.942 29.4443C26.7338 29.7032 27.195 30.2162 27.437 30.9458C26.7808 31.3678 25.9845 31.876 25.1492 30.9895C23.9394 29.7055 25.3498 29.4579 22.7727 29.6842C24.0236 32.4956 27.11 32.265 27.9972 31.3066C28.6324 32.0011 28.4635 32.1343 29.6362 32.4013C30.5228 32.6032 31.4928 32.7281 32.4693 32.9147C33.6622 31.8929 39.407 30.3948 41.1993 29.14C42.4825 28.2415 42.5296 28.445 42.4491 26.3516C41.9026 27.1263 40.896 28.2266 40.0316 28.5712C43.2206 21.3597 40.9975 23.8762 38.096 19.0893L35.3537 14.7866C35.2643 16.2602 35.2976 17.408 34.8417 18.659C34.3485 20.013 33.9238 20.1915 33.2811 21.0493C33.7157 19.435 34.5424 18.3001 34.6035 16.2898C33.8403 19.0983 30.6147 22.6005 28.8991 23.6949L28.8992 23.6948Z" fill="white"/>
<path fill-rule="evenodd" clip-rule="evenodd" d="M41.6778 35.2634C41.1942 35.7835 41.2525 35.6786 40.4945 35.9588C40.3703 37.2306 40.7543 36.6259 40.5001 37.312C40.323 37.7894 39.7663 38.0924 39.5703 38.2529C39.4834 39.9716 36.4516 43.2452 35.5184 43.8855C35.6586 45.1366 36.6641 47.1756 36.0361 48.1928L35.5721 46.7067C34.8632 47.0879 34.4952 47.416 34.1846 48.8398C37.8511 49.198 36.7425 49.7169 37.8513 50.3973C40.2516 48.7592 46.6771 44.0896 47.217 41.2999C45.6862 40.9774 45.4653 40.3331 45.2259 41.9717C44.4298 40.5033 44.2341 36.5584 44.1765 34.501C43.2188 34.5853 42.938 35.2112 41.6778 35.2635V35.2634Z" fill="white"/>
<path fill-rule="evenodd" clip-rule="evenodd" d="M33.2618 33.0714L28.5328 32.969L28.2275 36.4094C29.0493 37.2509 28.9299 36.5856 29.3014 37.522L30.2249 39.8895C30.6293 40.6558 30.4023 40.0934 30.7383 40.702C31.1151 41.3848 30.9769 41.6339 31.3681 42.3936C35.3267 42.9562 37.7215 38.54 39.3993 37.8468C39.7188 36.6071 39.806 34.9711 39.7706 33.483C39.189 33.7971 39.637 33.5247 39.2199 33.8514L38.3052 34.7869C37.9048 33.9224 38.3564 34.6638 38.2637 34.0328L36.3618 35.0327L37.6965 33.3107L34.9062 34.0865C36.0646 33.0861 38.5638 32.5536 39.066 31.0312C37.6885 31.095 35.2053 32.7221 33.2619 33.0713L33.2618 33.0714Z" fill="#F452A9"/>
<path fill-rule="evenodd" clip-rule="evenodd" d="M19.1037 33.7977C18.9771 30.7465 17.6717 27.5242 17.3119 24.1224C16.6148 17.5332 18.829 11.7776 23.9934 8.10739C27.0124 5.96177 28.5899 6.02582 32.4239 5.16042C33.3428 5.10737 34.8473 5.45424 35.4067 5.11351C35.646 3.75178 35.8421 4.66291 35.0727 4.0221C32.9354 2.2418 27.8979 4.4603 26.0021 5.44313C13.9186 11.7073 14.7527 22.3523 19.1036 33.7978L19.1037 33.7977Z" fill="#7CFAFA"/>
<path fill-rule="evenodd" clip-rule="evenodd" d="M41.2215 35.0639C42.582 33.4439 43.5477 35.633 45.0592 31.4372C45.185 31.0884 45.2935 30.8081 45.2974 30.4504C45.3026 29.9591 45.25 30.1297 45.2131 29.9729L45.1378 29.7536C45.1339 29.7413 45.0917 29.6919 45.1029 29.6607C48.1052 27.0922 48.0263 27.6009 48.0955 22.8849C47.1374 22.4335 45.9826 23.0431 45.3981 23.7727C44.8601 24.4442 44.8513 25.8606 44.7564 26.932C46.5338 26.0254 44.9383 26.204 45.8065 24.7001C47.1626 22.3512 47.6759 23.9844 47.684 23.9965C47.4389 24.9343 47.8057 23.9403 47.3365 24.4182C46.8615 24.902 46.8099 24.6628 46.6323 25.3272C46.3285 26.463 47.1916 25.9531 46.1304 27.1301C44.9491 28.44 46.8143 27.6884 45.6368 28.407C45.1122 28.7271 45.5237 28.5603 44.9346 28.5361C43.8211 28.4903 45.0614 27.4064 43.2461 30.4158C42.8079 31.1424 41.9549 32.3961 41.3141 32.7455C41.5955 31.6663 42.1969 30.5675 42.1137 29.3493C41.884 29.5639 40.4898 30.4817 39.9248 30.7225C41.2602 36.1805 39.7499 34.8778 41.2215 35.0639Z" fill="white"/>
<path fill-rule="evenodd" clip-rule="evenodd" d="M36.1519 62.5946C35.3517 62.2609 35.3707 62.2616 34.8432 61.613C34.9256 62.5182 35.1299 62.5668 34.7391 63.1416C33.2886 61.6103 33.2542 59.6503 32.1458 58.2214C31.5941 59.4667 32.7179 63.0907 33.523 64.012C34.3021 64.9034 36.7758 66.6561 37.756 67.3689C38.7498 63.6726 36.1447 57.4344 32.9473 56.6128C32.8322 58.3765 35.5234 59.9304 36.1519 62.5947V62.5946Z" fill="#F051A7"/>
<path fill-rule="evenodd" clip-rule="evenodd" d="M13.0957 42.5032C13.1552 44.2718 13.0466 42.9542 13.6023 43.471C13.6182 42.515 14.7568 40.4279 15.29 39.3942C15.2986 39.4163 15.1199 43.1222 15.2934 44.2178L15.7598 41.958C16.2 42.8295 16.0176 45.0624 16.798 46.6915C16.725 43.2753 16.1952 42.3508 17.5688 38.9262C18.773 35.9239 19.3665 35.064 17.6921 31.7446C16.9181 34.5701 14.9974 37.049 13.8551 40.9011C13.7948 41.1043 13.6749 41.5535 13.5997 41.7181C13.2009 42.5919 13.4272 42.1167 13.0957 42.503V42.5032Z" fill="#EE52A7"/>
<path fill-rule="evenodd" clip-rule="evenodd" d="M24.0061 62.5646C23.9755 64.0532 22.9676 65.1622 22.5261 66.4615C25.0214 66.2916 29.5789 63.0219 30.6259 59.3636C29.5405 59.8617 30.1684 59.7335 29.406 60.3534C27.9547 61.5337 29.4442 60.1532 28.1385 60.8896C27.1567 61.4432 26.6527 62.4569 25.6979 63.0253C26.627 60.2144 29.3781 59.1183 29.3612 57.4465C27.8093 57.8945 25.6858 59.4616 24.9728 60.8358L24.1449 62.4046C24.1249 62.3622 24.0568 62.5155 24.0059 62.5646H24.0061Z" fill="#F051A7"/>
<path fill-rule="evenodd" clip-rule="evenodd" d="M34.3242 56.7316L43.9506 51.0373C46.1633 49.7721 49.5146 48.0838 52.0955 47.4816C53.071 47.2541 54.8595 47.4942 55.6155 47.0182C53.5736 43.607 37.96 53.6817 35.1352 55.692C34.2816 56.2994 34.3884 55.9498 34.3242 56.7316Z" fill="#EBEBEB"/>
<path fill-rule="evenodd" clip-rule="evenodd" d="M35.1053 57.2107C38.0616 55.7618 41.4789 53.7406 44.7277 52.0807C46.4071 51.2227 48.0146 50.4839 49.8786 49.7072C55.073 47.5426 54.8471 49.2961 56.0543 48.3116C55.617 47.5591 55.976 47.7522 54.7288 47.7202C54.1927 47.7064 53.2294 47.7691 52.702 47.863C50.389 48.275 46.4931 50.2155 44.521 51.3402C43.0714 52.1669 35.512 56.397 35.1052 57.2106L35.1053 57.2107Z" fill="#EBEBEB"/>
<path fill-rule="evenodd" clip-rule="evenodd" d="M44.9653 37.1888C46.3303 38.4946 49.6468 37.7947 50.6215 39.5169L50.5788 40.8118C49.7515 41.4475 49.6 41.2503 49.1139 42.1036C49.9903 42.5554 51.8503 42.0975 53.7056 44.9098C54.2812 45.7824 54.0075 45.9007 55.1739 45.9169C54.8125 44.6522 52.9982 42.2667 50.5272 42.0501L51.5942 41.4125C51.4438 38.4392 52.2916 38.6255 47.0865 37.0989C44.3461 36.2953 45.2631 36.9566 44.9651 37.1888H44.9653Z" fill="#76E7EA"/>
<path fill-rule="evenodd" clip-rule="evenodd" d="M13.16 41.0702L13.0957 42.5031C13.4272 42.1168 13.2009 42.5919 13.5997 41.7182C13.6748 41.5537 13.7948 41.1044 13.8551 40.9012C14.9974 37.0491 16.9182 34.5701 17.6921 31.7447L17.2243 30.5665C17.2015 30.5286 17.1465 30.4587 17.1052 30.4067C16.0712 31.724 13.5512 38.863 13.1599 41.0702H13.16Z" fill="#81F6FA"/>
<path fill-rule="evenodd" clip-rule="evenodd" d="M20.7361 27.316L24.996 23.4791L24.4508 22.0913C23.1229 22.5034 22.5808 23.33 21.8412 24.3226C21.3201 25.0221 20.2005 26.2601 20.736 27.3161L20.7361 27.316Z" fill="#F051A7"/>
<path fill-rule="evenodd" clip-rule="evenodd" d="M30.9519 56.7533L30.699 55.3474C30.6768 55.2846 30.6317 55.1958 30.5903 55.1242C30.5884 55.1258 29.6425 55.2054 29.972 57.1111C30.1346 58.0511 30.4517 58.1595 31.109 58.406C31.6701 57.6581 31.3638 57.6096 32.945 55.6025C33.4393 55.7317 33.314 55.6561 33.6269 56.0036L33.627 54.6779C32.0362 54.4463 31.5522 55.5747 30.9519 56.7533Z" fill="#EE52A7"/>
<path fill-rule="evenodd" clip-rule="evenodd" d="M25.7807 39.059C25.5206 37.891 24.4171 35.183 23.7284 34.2684C26.0959 34.5614 26.4577 34.9319 26.8392 33.9755L23.0657 33.7134C23.054 34.8617 22.9739 33.995 23.4606 35.0876C24.079 36.4758 24.6297 38.5212 25.7807 39.059Z" fill="#6BDCDC"/>
<path fill-rule="evenodd" clip-rule="evenodd" d="M20.9953 42.0596C21.3812 41.2516 21.6324 39.9229 22.0069 38.9353C22.4079 37.8777 23.1872 37.0757 23.1476 35.8674C22.7161 36.2023 23.109 35.6559 22.55 36.4288C22.1135 37.0325 22.166 37.557 21.3226 38.5622C20.596 39.4284 20.5266 41.1046 20.9952 42.0595L20.9953 42.0596Z" fill="#68D4D4"/>
<path fill-rule="evenodd" clip-rule="evenodd" d="M31.5696 48.1443C32.7827 46.8833 31.67 45.8263 33.4689 44.1975C34.3533 43.3963 34.1952 44.0091 34.1992 42.8481C33.2307 43.0152 33.6223 42.8382 33.0833 43.5546C31.9124 45.1109 31.5134 45.7289 31.5696 48.1443Z" fill="#6BDCDC"/>
<path fill-rule="evenodd" clip-rule="evenodd" d="M29.5679 55.1378C29.3349 53.3598 28.4425 51.6004 28.1284 49.2158C27.4193 50.6073 28.1912 53.0874 29.058 54.4774L29.5679 55.1378Z" fill="#D7D7D7"/>
<path fill-rule="evenodd" clip-rule="evenodd" d="M30.1325 54.2791L29.15 48.2969C28.2225 49.4745 29.2768 53.3829 30.1325 54.2791Z" fill="#D7D7D7"/>
<path fill-rule="evenodd" clip-rule="evenodd" d="M36.4249 27.7208C36.3302 27.7005 36.2008 27.5621 36.1447 27.6435L34.7881 27.4087C34.9507 29.3639 37.3661 29.4374 37.3805 26.8105C36.3179 27.0301 36.6984 26.7664 36.4249 27.7208Z" fill="#7CFAFA"/>
<path fill-rule="evenodd" clip-rule="evenodd" d="M17.8054 11.3839C18.874 10.5977 18.2694 10.6065 18.8455 9.95422C19.3833 9.34554 19.4527 9.77318 20.0593 8.69385C18.1454 9.10251 17.9151 9.35277 17.8054 11.3839Z" fill="#76E7EA"/>
<path fill-rule="evenodd" clip-rule="evenodd" d="M31.4688 54.1877C31.9738 53.6976 32.5038 52.6127 32.5937 51.8107C32.6816 51.0272 32.6522 51.4716 32.4056 51.0576C31.533 51.6782 31.5211 53.0673 31.4688 54.1877Z" fill="#77E5E7"/>
<path fill-rule="evenodd" clip-rule="evenodd" d="M42.7247 9.14853C43.2005 8.51635 43.5065 8.79842 44.2147 8.21735L42.1012 8.19751L41.749 9.71224C41.7036 9.77122 41.6602 9.79926 41.6461 9.90999L40.965 11.616C41.4454 11.2013 41.2736 11.1787 41.0868 10.367C40.765 10.8143 41.0245 9.86093 40.8141 11.0757C40.7616 11.3794 40.7429 12.0576 40.7492 12.3696C40.7735 13.58 40.7439 13.5619 41.6178 13.9261C41.4724 12.9718 41.454 13.6073 42.5355 12.3942L43.8508 11.0629C43.5617 10.782 43.4042 10.613 43.1363 10.1717C43.1058 10.1215 43.0662 10.0524 43.0387 10.0025C43.0123 9.95496 42.9729 9.88487 42.9498 9.83861L42.7248 9.14864L42.7247 9.14853Z" fill="#7CFAFA"/>
<path fill-rule="evenodd" clip-rule="evenodd" d="M29.923 48.4535C30.1295 48.3409 30.4355 48.1965 30.5915 48.0798C31.6699 47.273 31.0336 48.3184 31.2337 46.866C30.2567 47.1598 29.8484 47.2137 29.9229 48.4535H29.923Z" fill="#6BDCDC"/>
<path fill-rule="evenodd" clip-rule="evenodd" d="M27.0287 30.8536L25.0088 30.175C25.5777 31.2692 25.8423 31.4416 27.0287 30.8536Z" fill="#6BDCDC"/>
</g>
<defs>
<clipPath id="clip0_1_528">
<rect width="54.3504" height="73" fill="white" transform="translate(9.05859)"/>
</clipPath>
</defs>
</svg>
